#VRML V2.0 utf8

Shape {
  appearance Appearance {
    material Material {
      diffuseColor 0.6667 0.6667 0.6667
      specularColor 0.4667 0.4667 0.4667
      ambientIntensity 0.2
      transparency 0.0000
      shininess 0.5
    }
  }
  geometry IndexedFaceSet {
    ccw TRUE
    solid FALSE
    coord DEF co Coordinate {
      point [
        -0.875984 -0.339567 -0.098425,
        -0.875984 -0.319882 -0.098425,
        -0.808071 -0.319882 -0.098425,
        0.816929 1.082677 -0.098425,
        0.828740 1.082677 -0.098425,
        0.828740 0.924213 -0.098425,
        -0.006243 0.176179 -0.098425,
        -0.006243 0.167537 -0.098425,
        -0.013924 0.167057 -0.098425,
        0.036008 0.167537 -0.098425,
        0.051372 0.171618 -0.098425,
        0.051372 0.180260 -0.098425,
        0.036008 0.246277 -0.098425,
        0.683071 1.082677 -0.098425,
        0.683071 1.186024 -0.098425,
        0.816929 1.186024 -0.098425,
        0.171260 0.943898 -0.098425,
        0.171260 1.082677 -0.098425,
        0.328740 0.943898 -0.098425,
        0.183071 1.082677 -0.098425,
        0.328740 1.082677 -0.098425,
        0.316929 1.082677 -0.098425,
        0.316929 1.186024 -0.098425,
        0.183071 1.186024 -0.098425,
        -0.004322 0.237635 -0.098425,
        -0.004322 0.246277 -0.098425,
        -0.013924 0.943898 -0.098425,
        0.025446 0.203066 -0.098425,
        0.025446 0.176179 -0.098425,
        -0.002402 0.203066 -0.098425,
        -0.002402 0.211708 -0.098425,
        0.025446 0.211708 -0.098425,
        0.025446 0.237635 -0.098425,
        0.077565 0.237724 -0.098425,
        0.083459 0.235598 -0.098425,
        0.052783 0.179479 -0.098425,
        0.088909 0.231952 -0.098425,
        0.093664 0.226702 -0.098425,
        0.099385 0.206067 -0.098425,
        0.098587 0.197543 -0.098425,
        0.096448 0.190770 -0.098425,
        0.078927 0.176043 -0.098425,
        0.071582 0.175219 -0.098425,
        0.084664 0.178155 -0.098425,
        0.089496 0.181412 -0.098425,
        0.093191 0.185310 -0.098425,
        0.061130 0.176379 -0.098425,
        0.156999 0.246277 -0.098425,
        0.808071 0.924213 -0.098425,
        0.156999 0.167537 -0.098425,
        0.808071 0.167057 -0.098425,
        0.096910 0.220623 -0.098425,
        0.099009 0.212193 -0.098425,
        0.090373 0.170210 -0.098425,
        0.116669 0.167537 -0.098425,
        0.082741 0.167583 -0.098425,
        0.077669 0.167057 -0.098425,
        0.105792 0.225538 -0.098425,
        0.101176 0.232900 -0.098425,
        0.146437 0.246277 -0.098425,
        0.096707 0.174254 -0.098425,
        0.102621 0.180481 -0.098425,
        0.116669 0.176179 -0.098425,
        0.106816 0.187968 -0.098425,
        0.146437 0.176179 -0.098425,
        0.094068 0.239737 -0.098425,
        0.086589 0.244042 -0.098425,
        0.077811 0.246592 -0.098425,
        0.069902 0.247237 -0.098425,
        0.060476 0.246587 -0.098425,
        0.051372 0.244117 -0.098425,
        0.051372 0.233554 -0.098425,
        0.060241 0.237352 -0.098425,
        0.069812 0.238595 -0.098425,
        0.109186 0.196303 -0.098425,
        0.109947 0.205422 -0.098425,
        0.108815 0.216616 -0.098425,
        0.671260 0.943898 -0.098425,
        0.671260 1.082677 -0.098425,
        0.875984 -0.319882 -0.098425,
        0.875984 -0.339567 -0.098425,
        0.808071 -0.319882 -0.098425,
        -0.013924 -0.437992 -0.098425,
        0.875984 -0.437992 -0.098425,
        0.875984 -0.418307 -0.098425,
        0.994488 -0.418307 -0.098425,
        0.994488 -0.339567 -0.098425,
        0.073038 0.166577 -0.098425,
        0.070885 0.166614 -0.098425,
        0.067722 0.167057 -0.098425,
        -0.043017 0.167537 -0.098425,
        -0.021606 0.167537 -0.098425,
        -0.021606 0.246277 -0.098425,
        -0.183071 1.082677 -0.098425,
        -0.171260 1.082677 -0.098425,
        -0.171260 0.943898 -0.098425,
        -0.161802 0.167537 -0.098425,
        -0.150280 0.167537 -0.098425,
        -0.090744 0.167537 -0.098425,
        -0.081051 0.189118 -0.098425,
        -0.076535 0.182075 -0.098425,
        -0.816929 1.082677 -0.098425,
        -0.816929 1.186024 -0.098425,
        -0.683071 1.186024 -0.098425,
        -0.070054 0.175870 -0.098425,
        -0.061833 0.171092 -0.098425,
        -0.052759 0.168387 -0.098425,
        -0.328740 0.943898 -0.098425,
        -0.328740 1.082677 -0.098425,
        -0.316929 1.082677 -0.098425,
        -0.316929 1.186024 -0.098425,
        -0.183071 1.186024 -0.098425,
        -0.828740 0.924213 -0.098425,
        -0.828740 1.082677 -0.098425,
        -0.808071 0.924213 -0.098425,
        -0.683071 1.082677 -0.098425,
        -0.102267 0.167537 -0.098425,
        -0.109784 0.189623 -0.098425,
        -0.142312 0.189623 -0.098425,
        -0.043827 0.246277 -0.098425,
        -0.055203 0.245061 -0.098425,
        -0.120512 0.246277 -0.098425,
        -0.671260 0.943898 -0.098425,
        -0.131074 0.246277 -0.098425,
        -0.671260 1.082677 -0.098425,
        -0.808071 0.167057 -0.098425,
        -0.078636 0.229836 -0.098425,
        -0.082296 0.223064 -0.098425,
        -0.064416 0.241826 -0.098425,
        -0.072986 0.236083 -0.098425,
        -0.073068 0.236010 -0.098425,
        -0.084411 0.215306 -0.098425,
        -0.084983 0.207897 -0.098425,
        -0.083878 0.197359 -0.098425,
        -0.875984 -0.437992 -0.098425,
        -0.875984 -0.418307 -0.098425,
        -0.994488 -0.418307 -0.098425,
        -0.994488 -0.339567 -0.098425,
        0.059765 0.168172 -0.098425,
      ]
    }
    coordIndex [
      0, 1, 2, -1,
      3, 4, 5, -1,
      6, 7, 8, -1,
      8, 7, 9, -1,
      10, 9, 11, -1,
      11, 9, 12, -1,
      13, 14, 15, -1,
      16, 17, 18, -1,
      18, 17, 19, -1,
      20, 18, 21, -1,
      21, 18, 19, -1,
      21, 19, 22, -1,
      22, 19, 23, -1,
      24, 6, 25, -1,
      25, 6, 26, -1,
      27, 28, 29, -1,
      29, 28, 6, -1,
      29, 6, 30, -1,
      30, 6, 24, -1,
      30, 24, 31, -1,
      31, 24, 32, -1,
      33, 34, 35, -1,
      35, 34, 36, -1,
      35, 36, 37, -1,
      38, 39, 35, -1,
      35, 39, 40, -1,
      41, 42, 43, -1,
      43, 42, 44, -1,
      40, 45, 35, -1,
      35, 45, 44, -1,
      35, 44, 46, -1,
      46, 44, 42, -1,
      47, 48, 49, -1,
      49, 48, 50, -1,
      37, 51, 35, -1,
      35, 51, 52, -1,
      35, 52, 38, -1,
      53, 54, 55, -1,
      55, 54, 56, -1,
      57, 58, 59, -1,
      26, 16, 25, -1,
      25, 16, 18, -1,
      25, 18, 12, -1,
      53, 60, 54, -1,
      54, 60, 61, -1,
      54, 61, 62, -1,
      62, 61, 63, -1,
      62, 63, 64, -1,
      58, 65, 59, -1,
      59, 65, 66, -1,
      59, 66, 67, -1,
      68, 69, 18, -1,
      18, 69, 70, -1,
      18, 70, 12, -1,
      12, 70, 71, -1,
      12, 71, 11, -1,
      11, 71, 72, -1,
      11, 72, 35, -1,
      35, 72, 73, -1,
      35, 73, 33, -1,
      63, 74, 64, -1,
      64, 74, 75, -1,
      64, 75, 59, -1,
      59, 75, 76, -1,
      59, 76, 57, -1,
      67, 68, 59, -1,
      59, 68, 18, -1,
      59, 18, 47, -1,
      47, 18, 77, -1,
      47, 77, 48, -1,
      48, 77, 78, -1,
      48, 78, 5, -1,
      5, 78, 13, -1,
      5, 13, 3, -1,
      3, 13, 15, -1,
      79, 80, 81, -1,
      81, 80, 82, -1,
      83, 82, 84, -1,
      84, 82, 80, -1,
      84, 80, 85, -1,
      85, 80, 86, -1,
      54, 49, 56, -1,
      56, 49, 50, -1,
      56, 50, 87, -1,
      87, 50, 81, -1,
      87, 81, 88, -1,
      88, 81, 82, -1,
      88, 82, 89, -1,
      90, 91, 8, -1,
      8, 91, 92, -1,
      93, 94, 95, -1,
      96, 97, 8, -1,
      98, 99, 100, -1,
      6, 8, 26, -1,
      26, 8, 92, -1,
      26, 92, 95, -1,
      101, 102, 103, -1,
      100, 104, 98, -1,
      98, 104, 105, -1,
      98, 105, 106, -1,
      107, 108, 109, -1,
      109, 110, 111, -1,
      112, 113, 114, -1,
      114, 113, 101, -1,
      114, 101, 115, -1,
      115, 101, 103, -1,
      106, 90, 98, -1,
      98, 90, 8, -1,
      98, 8, 116, -1,
      116, 8, 97, -1,
      116, 97, 117, -1,
      117, 97, 118, -1,
      119, 120, 107, -1,
      107, 121, 122, -1,
      122, 121, 123, -1,
      115, 124, 114, -1,
      114, 124, 122, -1,
      114, 122, 125, -1,
      125, 122, 123, -1,
      111, 93, 109, -1,
      109, 93, 95, -1,
      109, 95, 107, -1,
      107, 95, 92, -1,
      107, 92, 119, -1,
      121, 126, 127, -1,
      120, 128, 107, -1,
      107, 128, 129, -1,
      107, 129, 121, -1,
      121, 129, 130, -1,
      121, 130, 126, -1,
      127, 131, 121, -1,
      121, 131, 132, -1,
      121, 132, 98, -1,
      98, 132, 133, -1,
      98, 133, 99, -1,
      123, 96, 125, -1,
      125, 96, 8, -1,
      125, 8, 2, -1,
      82, 134, 135, -1,
      135, 136, 137, -1,
      137, 0, 135, -1,
      135, 0, 2, -1,
      135, 2, 82, -1,
      82, 2, 8, -1,
      82, 8, 89, -1,
      89, 8, 9, -1,
      89, 9, 138, -1,
      138, 9, 10, -1,
    ]
  }
}

Shape {
  appearance Appearance {
    material Material {
      diffuseColor 0.2078 0.2078 0.2078
      specularColor 0.0157 0.0157 0.0157
      ambientIntensity 0.2
      transparency 0.0000
      shininess 0.5
    }
  }
  geometry IndexedFaceSet {
    ccw TRUE
    solid FALSE
    coord DEF co Coordinate {
      point [
        0.671260 -1.082677 -0.088583,
        0.683071 -1.082677 -0.088583,
        0.683071 -1.122047 -0.088583,
        0.816929 -1.122047 -0.088583,
        0.816929 -1.082677 -0.088583,
        0.828740 -1.082677 -0.088583,
        0.171260 -1.082677 -0.088583,
        0.183071 -1.082677 -0.088583,
        0.183071 -1.122047 -0.088583,
        0.316929 -1.122047 -0.088583,
        0.316929 -1.082677 -0.088583,
        0.328740 -1.082677 -0.088583,
        -0.328740 -0.943898 -0.088583,
        -0.328740 -1.082677 -0.088583,
        -0.671260 -1.082677 -0.088583,
        0.974409 -1.116772 -0.088583,
        0.982563 -1.110516 -0.088583,
        0.988820 -1.102362 -0.088583,
        0.964914 -1.120706 -0.088583,
        0.954724 -1.122047 -0.088583,
        0.671260 -0.943898 -0.088583,
        0.994094 -0.418307 -0.088583,
        0.828740 -0.943898 -0.088583,
        0.994094 -1.082677 -0.088583,
        0.992753 -1.092867 -0.088583,
        -0.183071 -1.122047 -0.088583,
        -0.183071 -1.082677 -0.088583,
        -0.171260 -1.082677 -0.088583,
        0.328740 -0.943898 -0.088583,
        0.171260 -0.943898 -0.088583,
        -0.316929 -1.082677 -0.088583,
        -0.316929 -1.122047 -0.088583,
        -0.683071 -1.122047 -0.088583,
        -0.683071 -1.082677 -0.088583,
        -0.171260 -0.943898 -0.088583,
        -0.671260 -0.943898 -0.088583,
        -0.828740 -0.943898 -0.088583,
        -0.875984 -0.437992 -0.088583,
        0.875984 -0.437992 -0.088583,
        0.875984 -0.418307 -0.088583,
        -0.816929 -1.082677 -0.088583,
        -0.816929 -1.122047 -0.088583,
        -0.828740 -1.082677 -0.088583,
        -0.954724 -1.122047 -0.088583,
        -0.964914 -1.120706 -0.088583,
        -0.974409 -1.116772 -0.088583,
        -0.982563 -1.110516 -0.088583,
        -0.988820 -1.102362 -0.088583,
        -0.992753 -1.092867 -0.088583,
        -0.994094 -1.082677 -0.088583,
        -0.994094 -0.418307 -0.088583,
        -0.875984 -0.418307 -0.088583,
        -0.994094 1.082677 -0.088583,
        -0.994094 -0.339567 -0.088583,
        -0.994094 1.082677 0.000000,
        -0.994094 -0.339567 0.000000,
        -0.875984 -0.319882 -0.088583,
        -0.875984 -0.339567 -0.088583,
        -0.816929 1.122047 -0.088583,
        -0.816929 1.082677 -0.088583,
        -0.828740 1.082677 -0.088583,
        -0.988820 1.102362 -0.088583,
        -0.982563 1.110516 -0.088583,
        -0.828740 0.924213 -0.088583,
        -0.808071 0.924213 -0.088583,
        -0.808071 -0.319882 -0.088583,
        -0.992753 1.092867 -0.088583,
        -0.974409 1.116772 -0.088583,
        -0.964914 1.120706 -0.088583,
        -0.954724 1.122047 -0.088583,
        0.994094 -1.082677 0.000000,
        0.994094 -0.418307 0.000000,
      ]
    }
    coordIndex [
      0, 1, 2, -1,
      3, 4, 5, -1,
      6, 7, 8, -1,
      9, 10, 11, -1,
      12, 13, 14, -1,
      15, 5, 16, -1,
      16, 5, 17, -1,
      15, 18, 5, -1,
      5, 18, 19, -1,
      5, 19, 3, -1,
      20, 21, 22, -1,
      22, 21, 23, -1,
      22, 23, 5, -1,
      5, 23, 24, -1,
      5, 24, 17, -1,
      25, 26, 27, -1,
      2, 9, 0, -1,
      0, 9, 11, -1,
      0, 11, 20, -1,
      20, 11, 28, -1,
      20, 28, 21, -1,
      21, 28, 29, -1,
      30, 31, 13, -1,
      13, 31, 32, -1,
      13, 32, 14, -1,
      14, 32, 33, -1,
      8, 25, 6, -1,
      6, 25, 27, -1,
      6, 27, 29, -1,
      29, 27, 34, -1,
      29, 34, 21, -1,
      21, 34, 12, -1,
      21, 12, 35, -1,
      35, 12, 14, -1,
      36, 37, 35, -1,
      35, 37, 38, -1,
      35, 38, 21, -1,
      21, 38, 39, -1,
      40, 41, 42, -1,
      42, 41, 43, -1,
      42, 43, 36, -1,
      36, 43, 44, -1,
      44, 45, 36, -1,
      36, 45, 46, -1,
      36, 46, 47, -1,
      47, 48, 36, -1,
      36, 48, 49, -1,
      36, 49, 37, -1,
      37, 49, 50, -1,
      37, 50, 51, -1,
      52, 53, 54, -1,
      54, 53, 55, -1,
      56, 57, 53, -1,
      58, 59, 60, -1,
      61, 62, 63, -1,
      64, 65, 63, -1,
      63, 65, 56, -1,
      61, 63, 66, -1,
      56, 53, 63, -1,
      63, 53, 52, -1,
      63, 52, 66, -1,
      62, 67, 63, -1,
      63, 67, 68, -1,
      63, 68, 60, -1,
      60, 68, 69, -1,
      60, 69, 58, -1,
      23, 21, 70, -1,
      70, 21, 71, -1,
    ]
  }
}

Shape {
  appearance Appearance {
    material Material {
      diffuseColor 0.6667 0.6667 0.6667
      specularColor 0.4667 0.4667 0.4667
      ambientIntensity 0.2
      transparency 0.0000
      shininess 0.5
    }
  }
  geometry IndexedFaceSet {
    ccw TRUE
    solid FALSE
    coord DEF co Coordinate {
      point [
        0.808071 0.924213 -0.098425,
        0.808071 0.167057 -0.098425,
        0.808071 -0.319882 -0.098425,
        0.808071 0.924213 -0.088583,
        0.808071 -0.319882 -0.088583,
      ]
    }
    coordIndex [
      0, 3, 1, -1,
      1, 3, 4, -1,
      1, 4, 2, -1,
    ]
  }
}

Shape {
  appearance Appearance {
    material Material {
      diffuseColor 0.2078 0.2078 0.2078
      specularColor 0.0157 0.0157 0.0157
      ambientIntensity 0.2
      transparency 0.0000
      shininess 0.5
    }
  }
  geometry IndexedFaceSet {
    ccw TRUE
    solid FALSE
    coord DEF co Coordinate {
      point [
        0.683071 -1.122047 -0.088583,
        0.183071 -1.122047 -0.088583,
        0.316929 -1.122047 -0.088583,
        -0.183071 -1.122047 -0.088583,
        0.808071 0.924213 -0.088583,
        0.808071 -0.319882 -0.088583,
        0.316929 -1.122047 0.000000,
        0.683071 -1.122047 0.000000,
        0.954724 1.122047 -0.088583,
        0.816929 1.122047 -0.088583,
        0.954724 1.122047 0.000000,
        0.816929 1.122047 0.000000,
        0.316929 1.122047 -0.088583,
        0.683071 1.122047 -0.088583,
        0.671260 1.082677 -0.088583,
        0.683071 1.082677 -0.088583,
        0.316929 1.082677 -0.088583,
        0.328740 1.082677 -0.088583,
        0.328740 0.943898 -0.088583,
        0.671260 0.943898 -0.088583,
        -0.183071 -1.122047 0.000000,
        0.183071 -1.122047 0.000000,
        0.316929 1.122047 0.000000,
        0.683071 1.122047 0.000000,
        0.875984 -0.319882 -0.088583,
        0.828740 0.924213 -0.088583,
        0.816929 1.082677 -0.088583,
        0.828740 1.082677 -0.088583,
        0.963485 1.121060 -0.088583,
        0.971806 1.118148 -0.088583,
        0.979271 1.113458 -0.088583,
        0.985505 1.107224 -0.088583,
        0.990196 1.099759 -0.088583,
        0.993107 1.091438 -0.088583,
        0.994094 1.082677 -0.088583,
        0.994094 -0.339567 -0.088583,
        0.875984 -0.339567 -0.088583,
      ]
    }
    coordIndex [
      6, 2, 7, -1,
      7, 2, 0, -1,
      8, 9, 10, -1,
      10, 9, 11, -1,
      12, 13, 14, -1,
      14, 13, 15, -1,
      16, 12, 17, -1,
      17, 12, 14, -1,
      17, 14, 18, -1,
      18, 14, 19, -1,
      20, 3, 21, -1,
      21, 3, 1, -1,
      12, 22, 13, -1,
      13, 22, 23, -1,
      5, 4, 24, -1,
      24, 4, 25, -1,
      26, 9, 27, -1,
      27, 9, 8, -1,
      27, 8, 25, -1,
      25, 8, 28, -1,
      25, 28, 29, -1,
      29, 30, 25, -1,
      25, 30, 31, -1,
      25, 31, 32, -1,
      32, 33, 25, -1,
      25, 33, 34, -1,
      25, 34, 24, -1,
      24, 34, 35, -1,
      24, 35, 36, -1,
    ]
  }
}

Shape {
  appearance Appearance {
    material Material {
      diffuseColor 0.6667 0.6667 0.6667
      specularColor 0.4667 0.4667 0.4667
      ambientIntensity 0.2
      transparency 0.0000
      shininess 0.5
    }
  }
  geometry IndexedFaceSet {
    ccw TRUE
    solid FALSE
    coord DEF co Coordinate {
      point [
        0.328740 0.943898 -0.098425,
        0.671260 0.943898 -0.098425,
        0.328740 0.943898 -0.088583,
        0.671260 0.943898 -0.088583,
      ]
    }
    coordIndex [
      0, 2, 1, -1,
      1, 2, 3, -1,
    ]
  }
}

Shape {
  appearance Appearance {
    material Material {
      diffuseColor 0.2078 0.2078 0.2078
      specularColor 0.0157 0.0157 0.0157
      ambientIntensity 0.2
      transparency 0.0000
      shininess 0.5
    }
  }
  geometry IndexedFaceSet {
    ccw TRUE
    solid FALSE
    coord DEF co Coordinate {
      point [
        -0.316929 -1.122047 -0.088583,
        -0.683071 -1.122047 -0.088583,
        -0.683071 -1.122047 0.000000,
        -0.316929 -1.122047 0.000000,
        -0.183071 1.122047 -0.088583,
        -0.183071 1.122047 0.000000,
        0.183071 1.122047 -0.088583,
        0.183071 1.122047 0.000000,
        0.171260 1.082677 -0.088583,
        0.183071 1.082677 -0.088583,
        -0.183071 1.082677 -0.088583,
        -0.171260 1.082677 -0.088583,
        -0.171260 0.943898 -0.088583,
        0.171260 0.943898 -0.088583,
      ]
    }
    coordIndex [
      2, 1, 3, -1,
      3, 1, 0, -1,
      4, 5, 6, -1,
      6, 5, 7, -1,
      4, 6, 8, -1,
      8, 6, 9, -1,
      10, 4, 11, -1,
      11, 4, 8, -1,
      11, 8, 12, -1,
      12, 8, 13, -1,
    ]
  }
}

Shape {
  appearance Appearance {
    material Material {
      diffuseColor 0.6667 0.6667 0.6667
      specularColor 0.4667 0.4667 0.4667
      ambientIntensity 0.2
      transparency 0.0000
      shininess 0.5
    }
  }
  geometry IndexedFaceSet {
    ccw TRUE
    solid FALSE
    coord DEF co Coordinate {
      point [
        0.171260 0.943898 -0.098425,
        -0.013924 0.943898 -0.098425,
        -0.171260 0.943898 -0.098425,
        -0.171260 0.943898 -0.088583,
        0.171260 0.943898 -0.088583,
      ]
    }
    coordIndex [
      2, 3, 1, -1,
      1, 3, 4, -1,
      1, 4, 0, -1,
    ]
  }
}

Shape {
  appearance Appearance {
    material Material {
      diffuseColor 0.2078 0.2078 0.2078
      specularColor 0.0157 0.0157 0.0157
      ambientIntensity 0.2
      transparency 0.0000
      shininess 0.5
    }
  }
  geometry IndexedFaceSet {
    ccw TRUE
    solid FALSE
    coord DEF co Coordinate {
      point [
        0.816929 -1.122047 -0.088583,
        0.954724 -1.122047 -0.088583,
        -0.816929 -1.122047 -0.088583,
        -0.954724 -1.122047 -0.088583,
        -0.994094 -1.082677 -0.088583,
        -0.994094 -0.418307 -0.088583,
        -0.994094 1.082677 0.000000,
        -0.994094 -0.339567 0.000000,
        -0.816929 1.122047 -0.088583,
        -0.954724 1.122047 -0.088583,
        0.994094 -1.082677 0.000000,
        0.994094 -0.418307 0.000000,
        0.316929 -1.122047 0.000000,
        0.683071 -1.122047 0.000000,
        0.954724 1.122047 0.000000,
        0.816929 1.122047 0.000000,
        -0.183071 -1.122047 0.000000,
        0.183071 -1.122047 0.000000,
        0.316929 1.122047 0.000000,
        0.683071 1.122047 0.000000,
        0.994094 1.082677 -0.088583,
        0.994094 -0.339567 -0.088583,
        -0.683071 -1.122047 0.000000,
        -0.316929 -1.122047 0.000000,
        -0.183071 1.122047 0.000000,
        0.183071 1.122047 0.000000,
        -0.954724 -1.122047 0.000000,
        -0.816929 -1.122047 0.000000,
        -0.683071 1.122047 -0.088583,
        -0.683071 1.122047 0.000000,
        -0.316929 1.122047 -0.088583,
        -0.316929 1.122047 0.000000,
        -0.328740 1.082677 -0.088583,
        -0.316929 1.082677 -0.088583,
        -0.683071 1.082677 -0.088583,
        -0.671260 1.082677 -0.088583,
        -0.671260 0.943898 -0.088583,
        -0.328740 0.943898 -0.088583,
        0.964696 -1.053494 0.279706,
        0.994094 -1.082892 0.000006,
        0.994094 -0.339567 0.000000,
        0.964696 1.053494 0.279706,
        0.994094 1.082677 -0.000000,
        0.994094 1.082892 0.000006,
        -0.954724 1.122047 -0.000000,
        -0.954939 1.122046 0.000006,
        -0.925542 1.092649 0.279706,
        0.954939 1.122046 0.000006,
        0.925542 1.092649 0.279706,
        -0.816929 1.122047 0.000000,
        -0.994094 -0.418307 0.000000,
        -0.964696 -1.053494 0.279706,
        -0.994094 -1.082677 -0.000000,
        -0.994094 -1.082892 0.000006,
        -0.964696 1.053494 0.279706,
        -0.994094 1.082892 0.000006,
        0.954724 -1.122047 -0.000000,
        0.954939 -1.122046 0.000006,
        0.925542 -1.092649 0.279706,
        -0.954939 -1.122046 0.000006,
        -0.925542 -1.092649 0.279706,
        0.816929 -1.122047 0.000000,
        -0.848387 -0.954724 0.314961,
        -0.854287 -0.940481 0.314961,
        -0.925542 -1.053494 0.314961,
        -0.740201 -0.909912 0.314961,
        -0.738189 -0.925197 0.314961,
        0.925542 -1.053494 0.314961,
        -0.740201 -0.940481 0.314961,
        -0.797244 -0.984252 0.314961,
        -0.812529 -0.982240 0.314961,
        -0.826772 -0.976340 0.314961,
        -0.839002 -0.966955 0.314961,
        -0.856299 -0.925197 0.314961,
        -0.854287 -0.909912 0.314961,
        -0.925542 1.053494 0.314961,
        -0.848387 -0.895669 0.314961,
        -0.781959 -0.982240 0.314961,
        -0.767717 -0.976340 0.314961,
        -0.839002 -0.883439 0.314961,
        -0.826772 -0.874054 0.314961,
        -0.812529 -0.868154 0.314961,
        -0.746101 -0.895669 0.314961,
        0.925542 1.053494 0.314961,
        -0.755486 -0.883439 0.314961,
        -0.746101 -0.954724 0.314961,
        -0.755486 -0.966955 0.314961,
        -0.797244 -0.866142 0.314961,
        -0.781959 -0.868154 0.314961,
        -0.767717 -0.874054 0.314961,
      ]
    }
    coordIndex [
      3, 2, 26, -1,
      26, 2, 27, -1,
      28, 29, 30, -1,
      30, 29, 31, -1,
      28, 30, 32, -1,
      32, 30, 33, -1,
      34, 28, 35, -1,
      35, 28, 32, -1,
      35, 32, 36, -1,
      36, 32, 37, -1,
      38, 39, 10, -1,
      10, 11, 38, -1,
      38, 11, 40, -1,
      38, 40, 41, -1,
      41, 40, 42, -1,
      41, 42, 43, -1,
      44, 45, 46, -1,
      47, 14, 48, -1,
      48, 14, 15, -1,
      48, 15, 19, -1,
      19, 18, 48, -1,
      48, 18, 25, -1,
      48, 25, 46, -1,
      46, 25, 24, -1,
      46, 24, 31, -1,
      31, 29, 46, -1,
      46, 29, 49, -1,
      46, 49, 44, -1,
      7, 50, 51, -1,
      51, 50, 52, -1,
      51, 52, 53, -1,
      7, 51, 6, -1,
      6, 51, 54, -1,
      6, 54, 55, -1,
      56, 57, 58, -1,
      59, 26, 60, -1,
      60, 26, 27, -1,
      60, 27, 22, -1,
      22, 23, 60, -1,
      60, 23, 16, -1,
      60, 16, 58, -1,
      58, 16, 17, -1,
      58, 17, 12, -1,
      12, 13, 58, -1,
      58, 13, 61, -1,
      58, 61, 56, -1,
      62, 63, 64, -1,
      65, 66, 67, -1,
      67, 66, 68, -1,
      69, 70, 64, -1,
      70, 71, 64, -1,
      64, 71, 72, -1,
      64, 72, 62, -1,
      63, 73, 64, -1,
      64, 73, 74, -1,
      64, 74, 75, -1,
      75, 74, 76, -1,
      69, 64, 77, -1,
      77, 64, 67, -1,
      77, 67, 78, -1,
      76, 79, 75, -1,
      75, 79, 80, -1,
      75, 80, 81, -1,
      65, 67, 82, -1,
      82, 67, 83, -1,
      82, 83, 84, -1,
      68, 85, 67, -1,
      67, 85, 86, -1,
      67, 86, 78, -1,
      81, 87, 75, -1,
      75, 87, 88, -1,
      75, 88, 83, -1,
      83, 88, 89, -1,
      83, 89, 84, -1,
      42, 40, 20, -1,
      20, 40, 21, -1,
      56, 61, 1, -1,
      1, 61, 0, -1,
      52, 50, 4, -1,
      4, 50, 5, -1,
      44, 49, 9, -1,
      9, 49, 8, -1,
    ]
  }
}

Shape {
  appearance Appearance {
    material Material {
      diffuseColor 0.6667 0.6667 0.6667
      specularColor 0.4667 0.4667 0.4667
      ambientIntensity 0.2
      transparency 0.0000
      shininess 0.5
    }
  }
  geometry IndexedFaceSet {
    ccw TRUE
    solid FALSE
    coord DEF co Coordinate {
      point [
        -0.875984 -0.339567 -0.098425,
        -0.875984 -0.319882 -0.098425,
        -0.808071 -0.319882 -0.098425,
        0.816929 1.082677 -0.098425,
        0.828740 1.082677 -0.098425,
        0.828740 0.924213 -0.098425,
        0.683071 1.082677 -0.098425,
        0.683071 1.186024 -0.098425,
        0.816929 1.186024 -0.098425,
        0.171260 0.943898 -0.098425,
        0.171260 1.082677 -0.098425,
        0.328740 0.943898 -0.098425,
        0.183071 1.082677 -0.098425,
        0.328740 1.082677 -0.098425,
        0.316929 1.082677 -0.098425,
        0.316929 1.186024 -0.098425,
        0.183071 1.186024 -0.098425,
        0.671260 0.943898 -0.098425,
        0.671260 1.082677 -0.098425,
        0.875984 -0.319882 -0.098425,
        0.875984 -0.339567 -0.098425,
        0.808071 -0.319882 -0.098425,
        -0.013924 -0.437992 -0.098425,
        0.875984 -0.437992 -0.098425,
        0.875984 -0.418307 -0.098425,
        0.994488 -0.418307 -0.098425,
        0.994488 -0.339567 -0.098425,
        -0.183071 1.082677 -0.098425,
        -0.171260 1.082677 -0.098425,
        -0.171260 0.943898 -0.098425,
        -0.816929 1.082677 -0.098425,
        -0.816929 1.186024 -0.098425,
        -0.683071 1.186024 -0.098425,
        -0.328740 0.943898 -0.098425,
        -0.328740 1.082677 -0.098425,
        -0.316929 1.082677 -0.098425,
        -0.316929 1.186024 -0.098425,
        -0.183071 1.186024 -0.098425,
        -0.828740 0.924213 -0.098425,
        -0.828740 1.082677 -0.098425,
        -0.808071 0.924213 -0.098425,
        -0.683071 1.082677 -0.098425,
        -0.671260 0.943898 -0.098425,
        -0.671260 1.082677 -0.098425,
        -0.808071 0.167057 -0.098425,
        -0.875984 -0.437992 -0.098425,
        -0.875984 -0.418307 -0.098425,
        -0.994488 -0.418307 -0.098425,
        -0.994488 -0.339567 -0.098425,
        0.671260 -1.082677 -0.088583,
        0.683071 -1.082677 -0.088583,
        0.683071 -1.122047 -0.088583,
        0.816929 -1.122047 -0.088583,
        0.816929 -1.082677 -0.088583,
        0.828740 -1.082677 -0.088583,
        0.171260 -1.082677 -0.088583,
        0.183071 -1.082677 -0.088583,
        0.183071 -1.122047 -0.088583,
        0.316929 -1.122047 -0.088583,
        0.316929 -1.082677 -0.088583,
        0.328740 -1.082677 -0.088583,
        -0.328740 -0.943898 -0.088583,
        -0.328740 -1.082677 -0.088583,
        -0.671260 -1.082677 -0.088583,
        0.671260 -0.943898 -0.088583,
        0.994094 -0.418307 -0.088583,
        0.828740 -0.943898 -0.088583,
        -0.183071 -1.122047 -0.088583,
        -0.183071 -1.082677 -0.088583,
        -0.171260 -1.082677 -0.088583,
        0.328740 -0.943898 -0.088583,
        0.171260 -0.943898 -0.088583,
        -0.316929 -1.082677 -0.088583,
        -0.316929 -1.122047 -0.088583,
        -0.683071 -1.122047 -0.088583,
        -0.683071 -1.082677 -0.088583,
        -0.171260 -0.943898 -0.088583,
        -0.671260 -0.943898 -0.088583,
        -0.828740 -0.943898 -0.088583,
        -0.875984 -0.437992 -0.088583,
        0.875984 -0.437992 -0.088583,
        0.875984 -0.418307 -0.088583,
        -0.816929 -1.082677 -0.088583,
        -0.816929 -1.122047 -0.088583,
        -0.828740 -1.082677 -0.088583,
        -0.994094 -0.418307 -0.088583,
        -0.875984 -0.418307 -0.088583,
        -0.994094 -0.339567 -0.088583,
        -0.994094 -0.339567 0.000000,
        -0.875984 -0.319882 -0.088583,
        -0.875984 -0.339567 -0.088583,
        -0.816929 1.122047 -0.088583,
        -0.816929 1.082677 -0.088583,
        -0.828740 1.082677 -0.088583,
        -0.828740 0.924213 -0.088583,
        -0.808071 0.924213 -0.088583,
        -0.808071 -0.319882 -0.088583,
        0.994094 -0.418307 0.000000,
        0.808071 -0.319882 -0.088583,
        0.316929 -1.122047 0.000000,
        0.683071 -1.122047 0.000000,
        0.816929 1.122047 -0.088583,
        0.816929 1.122047 0.000000,
        0.316929 1.122047 -0.088583,
        0.683071 1.122047 -0.088583,
        0.671260 1.082677 -0.088583,
        0.683071 1.082677 -0.088583,
        0.316929 1.082677 -0.088583,
        0.328740 1.082677 -0.088583,
        0.328740 0.943898 -0.088583,
        0.671260 0.943898 -0.088583,
        -0.183071 -1.122047 0.000000,
        0.183071 -1.122047 0.000000,
        0.316929 1.122047 0.000000,
        0.683071 1.122047 0.000000,
        0.875984 -0.319882 -0.088583,
        0.828740 0.924213 -0.088583,
        0.816929 1.082677 -0.088583,
        0.828740 1.082677 -0.088583,
        0.994094 -0.339567 -0.088583,
        0.875984 -0.339567 -0.088583,
        -0.683071 -1.122047 0.000000,
        -0.316929 -1.122047 0.000000,
        -0.183071 1.122047 -0.088583,
        -0.183071 1.122047 0.000000,
        0.183071 1.122047 -0.088583,
        0.183071 1.122047 0.000000,
        0.171260 1.082677 -0.088583,
        0.183071 1.082677 -0.088583,
        -0.183071 1.082677 -0.088583,
        -0.171260 1.082677 -0.088583,
        -0.171260 0.943898 -0.088583,
        0.171260 0.943898 -0.088583,
        -0.816929 -1.122047 0.000000,
        -0.683071 1.122047 -0.088583,
        -0.683071 1.122047 0.000000,
        -0.316929 1.122047 -0.088583,
        -0.316929 1.122047 0.000000,
        -0.328740 1.082677 -0.088583,
        -0.316929 1.082677 -0.088583,
        -0.683071 1.082677 -0.088583,
        -0.671260 1.082677 -0.088583,
        -0.671260 0.943898 -0.088583,
        -0.328740 0.943898 -0.088583,
        0.994094 -0.339567 0.000000,
        -0.816929 1.122047 0.000000,
        -0.994094 -0.418307 0.000000,
        0.816929 -1.122047 0.000000,
        -0.683071 1.186024 0.000000,
        -0.816929 1.186024 0.000000,
        -0.828740 -0.943898 -0.098425,
        -0.828740 -1.082677 -0.098425,
        -0.816929 -1.082677 -0.098425,
        -0.816929 -1.186024 -0.098425,
        -0.816929 -1.186024 0.000000,
        -0.683071 -1.186024 -0.098425,
        -0.683071 -1.186024 0.000000,
        -0.683071 -1.082677 -0.098425,
        -0.671260 -1.082677 -0.098425,
        -0.671260 -0.943898 -0.098425,
        -0.183071 1.186024 0.000000,
        -0.316929 1.186024 0.000000,
        -0.328740 -0.943898 -0.098425,
        -0.328740 -1.082677 -0.098425,
        -0.316929 -1.082677 -0.098425,
        -0.316929 -1.186024 -0.098425,
        -0.316929 -1.186024 0.000000,
        -0.183071 -1.186024 -0.098425,
        -0.183071 -1.186024 0.000000,
        -0.183071 -1.082677 -0.098425,
        -0.171260 -1.082677 -0.098425,
        -0.171260 -0.943898 -0.098425,
        0.316929 1.186024 0.000000,
        0.183071 1.186024 0.000000,
        0.171260 -0.943898 -0.098425,
        0.171260 -1.082677 -0.098425,
        0.183071 -1.082677 -0.098425,
        0.183071 -1.186024 -0.098425,
        0.183071 -1.186024 0.000000,
        0.316929 -1.186024 -0.098425,
        0.316929 -1.186024 0.000000,
        0.316929 -1.082677 -0.098425,
        0.328740 -1.082677 -0.098425,
        0.328740 -0.943898 -0.098425,
        0.816929 1.186024 0.000000,
        0.683071 1.186024 0.000000,
        0.671260 -0.943898 -0.098425,
        0.671260 -1.082677 -0.098425,
        0.683071 -1.082677 -0.098425,
        0.683071 -1.186024 -0.098425,
        0.683071 -1.186024 0.000000,
        0.816929 -1.186024 -0.098425,
        0.816929 -1.186024 0.000000,
        0.816929 -1.082677 -0.098425,
        0.828740 -1.082677 -0.098425,
        0.828740 -0.943898 -0.098425,
        0.994488 -0.418307 0.000000,
        0.994488 -0.339567 0.000000,
        -0.994488 -0.339567 0.000000,
        -0.994488 -0.418307 0.000000,
      ]
    }
    coordIndex [
      2, 96, 44, -1,
      44, 96, 95, -1,
      44, 95, 40, -1,
      42, 142, 33, -1,
      33, 142, 143, -1,
      23, 80, 22, -1,
      22, 80, 79, -1,
      22, 79, 45, -1,
      142, 42, 141, -1,
      141, 42, 43, -1,
      141, 43, 140, -1,
      140, 43, 41, -1,
      140, 41, 134, -1,
      134, 41, 32, -1,
      134, 32, 135, -1,
      135, 32, 148, -1,
      31, 149, 32, -1,
      32, 149, 148, -1,
      30, 92, 91, -1,
      145, 149, 91, -1,
      91, 149, 31, -1,
      91, 31, 30, -1,
      92, 30, 93, -1,
      93, 30, 39, -1,
      94, 93, 38, -1,
      38, 93, 39, -1,
      135, 148, 145, -1,
      145, 148, 149, -1,
      78, 150, 84, -1,
      84, 150, 151, -1,
      84, 151, 82, -1,
      82, 151, 152, -1,
      82, 152, 83, -1,
      83, 152, 153, -1,
      83, 153, 133, -1,
      133, 153, 154, -1,
      155, 156, 153, -1,
      153, 156, 154, -1,
      157, 75, 74, -1,
      121, 156, 74, -1,
      74, 156, 155, -1,
      74, 155, 157, -1,
      75, 157, 63, -1,
      63, 157, 158, -1,
      63, 158, 77, -1,
      77, 158, 159, -1,
      77, 159, 78, -1,
      78, 159, 150, -1,
      154, 156, 133, -1,
      133, 156, 121, -1,
      159, 158, 150, -1,
      150, 158, 157, -1,
      151, 150, 152, -1,
      152, 150, 157, -1,
      152, 157, 153, -1,
      153, 157, 155, -1,
      160, 161, 124, -1,
      124, 161, 137, -1,
      131, 29, 130, -1,
      130, 29, 28, -1,
      130, 28, 129, -1,
      129, 28, 27, -1,
      129, 27, 123, -1,
      123, 27, 37, -1,
      123, 37, 124, -1,
      124, 37, 160, -1,
      36, 161, 37, -1,
      37, 161, 160, -1,
      35, 139, 136, -1,
      137, 161, 136, -1,
      136, 161, 36, -1,
      136, 36, 35, -1,
      139, 35, 138, -1,
      138, 35, 34, -1,
      138, 34, 143, -1,
      143, 34, 33, -1,
      61, 162, 62, -1,
      62, 162, 163, -1,
      62, 163, 72, -1,
      72, 163, 164, -1,
      72, 164, 73, -1,
      73, 164, 165, -1,
      73, 165, 122, -1,
      122, 165, 166, -1,
      167, 168, 165, -1,
      165, 168, 166, -1,
      169, 68, 67, -1,
      111, 168, 67, -1,
      67, 168, 167, -1,
      67, 167, 169, -1,
      68, 169, 69, -1,
      69, 169, 170, -1,
      69, 170, 76, -1,
      76, 170, 171, -1,
      76, 171, 61, -1,
      61, 171, 162, -1,
      166, 168, 122, -1,
      122, 168, 111, -1,
      171, 170, 162, -1,
      162, 170, 169, -1,
      163, 162, 164, -1,
      164, 162, 169, -1,
      164, 169, 165, -1,
      165, 169, 167, -1,
      172, 173, 113, -1,
      113, 173, 126, -1,
      109, 11, 108, -1,
      108, 11, 13, -1,
      108, 13, 107, -1,
      107, 13, 14, -1,
      107, 14, 103, -1,
      103, 14, 15, -1,
      103, 15, 113, -1,
      113, 15, 172, -1,
      16, 173, 15, -1,
      15, 173, 172, -1,
      12, 128, 125, -1,
      126, 173, 125, -1,
      125, 173, 16, -1,
      125, 16, 12, -1,
      128, 12, 127, -1,
      127, 12, 10, -1,
      127, 10, 132, -1,
      132, 10, 9, -1,
      71, 174, 55, -1,
      55, 174, 175, -1,
      55, 175, 56, -1,
      56, 175, 176, -1,
      56, 176, 57, -1,
      57, 176, 177, -1,
      57, 177, 112, -1,
      112, 177, 178, -1,
      179, 180, 177, -1,
      177, 180, 178, -1,
      181, 59, 58, -1,
      99, 180, 58, -1,
      58, 180, 179, -1,
      58, 179, 181, -1,
      59, 181, 60, -1,
      60, 181, 182, -1,
      60, 182, 70, -1,
      70, 182, 183, -1,
      70, 183, 71, -1,
      71, 183, 174, -1,
      178, 180, 112, -1,
      112, 180, 99, -1,
      183, 182, 174, -1,
      174, 182, 181, -1,
      175, 174, 176, -1,
      176, 174, 181, -1,
      176, 181, 177, -1,
      177, 181, 179, -1,
      184, 185, 102, -1,
      102, 185, 114, -1,
      116, 5, 118, -1,
      118, 5, 4, -1,
      118, 4, 117, -1,
      117, 4, 3, -1,
      117, 3, 101, -1,
      101, 3, 8, -1,
      101, 8, 102, -1,
      102, 8, 184, -1,
      7, 185, 8, -1,
      8, 185, 184, -1,
      6, 106, 104, -1,
      114, 185, 104, -1,
      104, 185, 7, -1,
      104, 7, 6, -1,
      106, 6, 105, -1,
      105, 6, 18, -1,
      105, 18, 110, -1,
      110, 18, 17, -1,
      64, 186, 49, -1,
      49, 186, 187, -1,
      49, 187, 50, -1,
      50, 187, 188, -1,
      50, 188, 51, -1,
      51, 188, 189, -1,
      51, 189, 100, -1,
      100, 189, 190, -1,
      191, 192, 189, -1,
      189, 192, 190, -1,
      193, 53, 52, -1,
      147, 192, 52, -1,
      52, 192, 191, -1,
      52, 191, 193, -1,
      53, 193, 54, -1,
      54, 193, 194, -1,
      54, 194, 66, -1,
      66, 194, 195, -1,
      66, 195, 64, -1,
      64, 195, 186, -1,
      190, 192, 100, -1,
      100, 192, 147, -1,
      195, 194, 186, -1,
      186, 194, 193, -1,
      187, 186, 188, -1,
      188, 186, 193, -1,
      188, 193, 189, -1,
      189, 193, 191, -1,
      23, 24, 80, -1,
      80, 24, 81, -1,
      196, 97, 65, -1,
      81, 24, 65, -1,
      65, 24, 25, -1,
      65, 25, 196, -1,
      197, 196, 26, -1,
      26, 196, 25, -1,
      144, 197, 119, -1,
      119, 197, 26, -1,
      119, 26, 120, -1,
      120, 26, 20, -1,
      20, 19, 120, -1,
      120, 19, 115, -1,
      19, 21, 115, -1,
      115, 21, 98, -1,
      196, 197, 97, -1,
      97, 197, 144, -1,
      96, 2, 89, -1,
      89, 2, 1, -1,
      89, 1, 90, -1,
      90, 1, 0, -1,
      198, 88, 87, -1,
      90, 0, 87, -1,
      87, 0, 48, -1,
      87, 48, 198, -1,
      199, 198, 47, -1,
      47, 198, 48, -1,
      146, 199, 85, -1,
      85, 199, 47, -1,
      85, 47, 86, -1,
      86, 47, 46, -1,
      86, 46, 79, -1,
      79, 46, 45, -1,
      198, 199, 88, -1,
      88, 199, 146, -1,
    ]
  }
}

Shape {
  appearance Appearance {
    material Material {
      diffuseColor 1.0000 1.0000 1.0000
      specularColor 0.8784 0.8784 0.8784
      ambientIntensity 0.2
      transparency 0.0000
      shininess 0.5
    }
  }
  geometry IndexedFaceSet {
    ccw TRUE
    solid FALSE
    coord DEF co Coordinate {
      point [
        -0.006243 0.176179 -0.098425,
        -0.006243 0.167537 -0.098425,
        0.036008 0.167537 -0.098425,
        0.051372 0.171618 -0.098425,
        0.051372 0.180260 -0.098425,
        0.036008 0.246277 -0.098425,
        -0.004322 0.237635 -0.098425,
        -0.004322 0.246277 -0.098425,
        0.025446 0.203066 -0.098425,
        0.025446 0.176179 -0.098425,
        -0.002402 0.203066 -0.098425,
        -0.002402 0.211708 -0.098425,
        0.025446 0.211708 -0.098425,
        0.025446 0.237635 -0.098425,
        0.077565 0.237724 -0.098425,
        0.083459 0.235598 -0.098425,
        0.052783 0.179479 -0.098425,
        0.088909 0.231952 -0.098425,
        0.093664 0.226702 -0.098425,
        0.099385 0.206067 -0.098425,
        0.098587 0.197543 -0.098425,
        0.096448 0.190770 -0.098425,
        0.078927 0.176043 -0.098425,
        0.071582 0.175219 -0.098425,
        0.084664 0.178155 -0.098425,
        0.089496 0.181412 -0.098425,
        0.093191 0.185310 -0.098425,
        0.061130 0.176379 -0.098425,
        0.156999 0.246277 -0.098425,
        0.156999 0.167537 -0.098425,
        0.096910 0.220623 -0.098425,
        0.099009 0.212193 -0.098425,
        0.090373 0.170210 -0.098425,
        0.116669 0.167537 -0.098425,
        0.082741 0.167583 -0.098425,
        0.077669 0.167057 -0.098425,
        0.105792 0.225538 -0.098425,
        0.101176 0.232900 -0.098425,
        0.146437 0.246277 -0.098425,
        0.096707 0.174254 -0.098425,
        0.102621 0.180481 -0.098425,
        0.116669 0.176179 -0.098425,
        0.106816 0.187968 -0.098425,
        0.146437 0.176179 -0.098425,
        0.094068 0.239737 -0.098425,
        0.086589 0.244042 -0.098425,
        0.077811 0.246592 -0.098425,
        0.069902 0.247237 -0.098425,
        0.060476 0.246587 -0.098425,
        0.051372 0.244117 -0.098425,
        0.051372 0.233554 -0.098425,
        0.060241 0.237352 -0.098425,
        0.069812 0.238595 -0.098425,
        0.109186 0.196303 -0.098425,
        0.109947 0.205422 -0.098425,
        0.108815 0.216616 -0.098425,
        0.073038 0.166577 -0.098425,
        0.070885 0.166614 -0.098425,
        0.067722 0.167057 -0.098425,
        -0.043017 0.167537 -0.098425,
        -0.021606 0.167537 -0.098425,
        -0.021606 0.246277 -0.098425,
        -0.161802 0.167537 -0.098425,
        -0.150280 0.167537 -0.098425,
        -0.090744 0.167537 -0.098425,
        -0.081051 0.189118 -0.098425,
        -0.076535 0.182075 -0.098425,
        -0.070054 0.175870 -0.098425,
        -0.061833 0.171092 -0.098425,
        -0.052759 0.168387 -0.098425,
        -0.102267 0.167537 -0.098425,
        -0.109784 0.189623 -0.098425,
        -0.142312 0.189623 -0.098425,
        -0.043827 0.246277 -0.098425,
        -0.055203 0.245061 -0.098425,
        -0.120512 0.246277 -0.098425,
        -0.131074 0.246277 -0.098425,
        -0.078636 0.229836 -0.098425,
        -0.082296 0.223064 -0.098425,
        -0.064416 0.241826 -0.098425,
        -0.072986 0.236083 -0.098425,
        -0.073068 0.236010 -0.098425,
        -0.084411 0.215306 -0.098425,
        -0.084983 0.207897 -0.098425,
        -0.083878 0.197359 -0.098425,
        0.059765 0.168172 -0.098425,
        -0.131074 0.246277 -0.090551,
        -0.161802 0.167537 -0.090551,
        -0.150280 0.167537 -0.090551,
        -0.142312 0.189623 -0.090551,
        -0.109784 0.189623 -0.090551,
        -0.102267 0.167537 -0.090551,
        -0.090744 0.167537 -0.090551,
        -0.120512 0.246277 -0.090551,
        -0.112440 0.198265 -0.090551,
        -0.124188 0.231153 -0.090551,
        -0.124946 0.233884 -0.090551,
        -0.125448 0.236675 -0.090551,
        -0.125703 0.236675 -0.090551,
        -0.126217 0.233893 -0.090551,
        -0.126919 0.231153 -0.090551,
        -0.138771 0.198265 -0.090551,
        -0.112440 0.198265 -0.098425,
        -0.138771 0.198265 -0.098425,
        -0.124188 0.231153 -0.098425,
        -0.124946 0.233884 -0.098425,
        -0.125448 0.236675 -0.098425,
        -0.125703 0.236675 -0.098425,
        -0.126217 0.233893 -0.098425,
        -0.126919 0.231153 -0.098425,
        -0.043017 0.167537 -0.090551,
        -0.021606 0.167537 -0.090551,
        -0.021606 0.246277 -0.090551,
        -0.043827 0.246277 -0.090551,
        -0.084983 0.207897 -0.090551,
        -0.084411 0.215306 -0.090551,
        -0.082296 0.223064 -0.090551,
        -0.078636 0.229836 -0.090551,
        -0.073068 0.236010 -0.090551,
        -0.072986 0.236083 -0.090551,
        -0.064416 0.241826 -0.090551,
        -0.055203 0.245061 -0.090551,
        -0.052759 0.168387 -0.090551,
        -0.061833 0.171092 -0.090551,
        -0.070054 0.175870 -0.090551,
        -0.076535 0.182075 -0.090551,
        -0.081051 0.189118 -0.090551,
        -0.083878 0.197359 -0.090551,
        -0.069178 0.226593 -0.090551,
        -0.065353 0.230654 -0.090551,
        -0.059601 0.234370 -0.090551,
        -0.053102 0.236644 -0.090551,
        -0.043782 0.237635 -0.090551,
        -0.032169 0.237635 -0.090551,
        -0.032169 0.176179 -0.090551,
        -0.043347 0.176179 -0.090551,
        -0.051654 0.176952 -0.090551,
        -0.058280 0.179021 -0.090551,
        -0.063650 0.182209 -0.090551,
        -0.068067 0.186572 -0.090551,
        -0.071387 0.192000 -0.090551,
        -0.073697 0.199402 -0.090551,
        -0.074420 0.207672 -0.090551,
        -0.073751 0.215509 -0.090551,
        -0.071913 0.221737 -0.090551,
        -0.043782 0.237635 -0.098425,
        -0.032169 0.237635 -0.098425,
        -0.053102 0.236644 -0.098425,
        -0.059601 0.234370 -0.098425,
        -0.065353 0.230654 -0.098425,
        -0.069178 0.226593 -0.098425,
        -0.071913 0.221737 -0.098425,
        -0.073751 0.215509 -0.098425,
        -0.074420 0.207672 -0.098425,
        -0.073697 0.199402 -0.098425,
        -0.071387 0.192000 -0.098425,
        -0.068067 0.186572 -0.098425,
        -0.063650 0.182209 -0.098425,
        -0.058280 0.179021 -0.098425,
        -0.051654 0.176952 -0.098425,
        -0.043347 0.176179 -0.098425,
        -0.032169 0.176179 -0.098425,
        -0.006243 0.176179 -0.090551,
        -0.006243 0.167537 -0.090551,
        0.036008 0.167537 -0.090551,
        0.036008 0.246277 -0.090551,
        -0.004322 0.246277 -0.090551,
        -0.004322 0.237635 -0.090551,
        0.025446 0.237635 -0.090551,
        0.025446 0.211708 -0.090551,
        -0.002402 0.211708 -0.090551,
        -0.002402 0.203066 -0.090551,
        0.025446 0.203066 -0.090551,
        0.025446 0.176179 -0.090551,
        0.051372 0.180260 -0.090551,
        0.051372 0.171618 -0.090551,
        0.059765 0.168172 -0.090551,
        0.073038 0.166577 -0.090551,
        0.070885 0.166614 -0.090551,
        0.109947 0.205422 -0.090551,
        0.109186 0.196303 -0.090551,
        0.106816 0.187968 -0.090551,
        0.102621 0.180481 -0.090551,
        0.096707 0.174254 -0.090551,
        0.090373 0.170210 -0.090551,
        0.082741 0.167583 -0.090551,
        0.069902 0.247237 -0.090551,
        0.077811 0.246592 -0.090551,
        0.086589 0.244042 -0.090551,
        0.094068 0.239737 -0.090551,
        0.101176 0.232900 -0.090551,
        0.105792 0.225538 -0.090551,
        0.108815 0.216616 -0.090551,
        0.051372 0.244117 -0.090551,
        0.060476 0.246587 -0.090551,
        0.051372 0.233554 -0.090551,
        0.069812 0.238595 -0.090551,
        0.060241 0.237352 -0.090551,
        0.099385 0.206067 -0.090551,
        0.099009 0.212193 -0.090551,
        0.096910 0.220623 -0.090551,
        0.093664 0.226702 -0.090551,
        0.088909 0.231952 -0.090551,
        0.083459 0.235598 -0.090551,
        0.077565 0.237724 -0.090551,
        0.071582 0.175219 -0.090551,
        0.078927 0.176043 -0.090551,
        0.084664 0.178155 -0.090551,
        0.089496 0.181412 -0.090551,
        0.093191 0.185310 -0.090551,
        0.096448 0.190770 -0.090551,
        0.098587 0.197543 -0.090551,
        0.052783 0.179479 -0.090551,
        0.061130 0.176379 -0.090551,
        0.116669 0.176179 -0.090551,
        0.116669 0.167537 -0.090551,
        0.156999 0.167537 -0.090551,
        0.156999 0.246277 -0.090551,
        0.146437 0.246277 -0.090551,
        0.146437 0.176179 -0.090551,
      ]
    }
    coordIndex [
      86, 87, 76, -1,
      76, 87, 62, -1,
      87, 88, 62, -1,
      62, 88, 63, -1,
      88, 89, 63, -1,
      63, 89, 72, -1,
      89, 90, 72, -1,
      72, 90, 71, -1,
      90, 91, 71, -1,
      71, 91, 70, -1,
      91, 92, 70, -1,
      70, 92, 64, -1,
      92, 93, 64, -1,
      64, 93, 75, -1,
      93, 86, 75, -1,
      75, 86, 76, -1,
      94, 95, 93, -1,
      92, 91, 90, -1,
      95, 96, 93, -1,
      93, 96, 97, -1,
      93, 97, 86, -1,
      86, 97, 98, -1,
      86, 98, 99, -1,
      99, 100, 86, -1,
      86, 100, 101, -1,
      86, 101, 87, -1,
      88, 87, 89, -1,
      89, 87, 101, -1,
      89, 101, 90, -1,
      90, 101, 94, -1,
      90, 94, 92, -1,
      92, 94, 93, -1,
      94, 101, 102, -1,
      102, 101, 103, -1,
      95, 94, 104, -1,
      104, 94, 102, -1,
      95, 104, 105, -1,
      95, 105, 96, -1,
      96, 105, 106, -1,
      96, 106, 97, -1,
      98, 97, 107, -1,
      107, 97, 106, -1,
      98, 107, 108, -1,
      98, 108, 99, -1,
      99, 108, 109, -1,
      99, 109, 100, -1,
      101, 100, 103, -1,
      103, 100, 109, -1,
      110, 111, 59, -1,
      59, 111, 60, -1,
      111, 112, 60, -1,
      60, 112, 61, -1,
      112, 113, 61, -1,
      61, 113, 73, -1,
      114, 83, 82, -1,
      114, 82, 115, -1,
      115, 82, 78, -1,
      115, 78, 116, -1,
      116, 78, 77, -1,
      116, 77, 117, -1,
      117, 77, 81, -1,
      117, 81, 118, -1,
      118, 81, 80, -1,
      118, 80, 119, -1,
      119, 80, 79, -1,
      119, 79, 120, -1,
      120, 79, 74, -1,
      120, 74, 121, -1,
      121, 74, 73, -1,
      121, 73, 113, -1,
      110, 59, 69, -1,
      110, 69, 122, -1,
      122, 69, 68, -1,
      122, 68, 123, -1,
      123, 68, 67, -1,
      123, 67, 124, -1,
      124, 67, 66, -1,
      124, 66, 125, -1,
      125, 66, 65, -1,
      125, 65, 126, -1,
      126, 65, 84, -1,
      126, 84, 127, -1,
      127, 84, 83, -1,
      127, 83, 114, -1,
      116, 117, 128, -1,
      128, 117, 118, -1,
      128, 118, 129, -1,
      129, 118, 119, -1,
      129, 119, 130, -1,
      130, 119, 120, -1,
      130, 120, 131, -1,
      131, 120, 121, -1,
      131, 121, 132, -1,
      132, 121, 113, -1,
      132, 113, 133, -1,
      133, 113, 112, -1,
      133, 112, 134, -1,
      134, 112, 111, -1,
      134, 111, 135, -1,
      135, 111, 110, -1,
      135, 110, 136, -1,
      136, 110, 122, -1,
      136, 122, 137, -1,
      137, 122, 123, -1,
      137, 123, 138, -1,
      138, 123, 124, -1,
      138, 124, 139, -1,
      139, 124, 125, -1,
      139, 125, 140, -1,
      140, 125, 126, -1,
      140, 126, 141, -1,
      141, 126, 127, -1,
      141, 127, 142, -1,
      142, 127, 114, -1,
      142, 114, 143, -1,
      143, 114, 115, -1,
      143, 115, 144, -1,
      144, 115, 116, -1,
      144, 116, 128, -1,
      132, 133, 145, -1,
      145, 133, 146, -1,
      132, 145, 147, -1,
      132, 147, 131, -1,
      131, 147, 148, -1,
      131, 148, 130, -1,
      130, 148, 149, -1,
      130, 149, 129, -1,
      129, 149, 150, -1,
      129, 150, 128, -1,
      128, 150, 151, -1,
      128, 151, 144, -1,
      144, 151, 152, -1,
      144, 152, 143, -1,
      143, 152, 153, -1,
      143, 153, 142, -1,
      142, 153, 154, -1,
      142, 154, 141, -1,
      141, 154, 155, -1,
      141, 155, 140, -1,
      140, 155, 156, -1,
      140, 156, 139, -1,
      139, 156, 157, -1,
      139, 157, 138, -1,
      138, 157, 158, -1,
      138, 158, 137, -1,
      137, 158, 159, -1,
      137, 159, 136, -1,
      136, 159, 160, -1,
      136, 160, 135, -1,
      134, 135, 161, -1,
      161, 135, 160, -1,
      133, 134, 146, -1,
      146, 134, 161, -1,
      162, 163, 0, -1,
      0, 163, 1, -1,
      163, 164, 1, -1,
      1, 164, 2, -1,
      164, 165, 2, -1,
      2, 165, 5, -1,
      165, 166, 5, -1,
      5, 166, 7, -1,
      166, 167, 7, -1,
      7, 167, 6, -1,
      167, 168, 6, -1,
      6, 168, 13, -1,
      168, 169, 13, -1,
      13, 169, 12, -1,
      169, 170, 12, -1,
      12, 170, 11, -1,
      170, 171, 11, -1,
      11, 171, 10, -1,
      171, 172, 10, -1,
      10, 172, 8, -1,
      172, 173, 8, -1,
      8, 173, 9, -1,
      173, 162, 9, -1,
      9, 162, 0, -1,
      164, 163, 162, -1,
      162, 173, 164, -1,
      164, 173, 172, -1,
      164, 172, 165, -1,
      167, 166, 168, -1,
      168, 166, 165, -1,
      168, 165, 169, -1,
      169, 165, 172, -1,
      169, 172, 170, -1,
      170, 172, 171, -1,
      174, 175, 4, -1,
      4, 175, 3, -1,
      3, 175, 176, -1,
      177, 56, 57, -1,
      177, 57, 178, -1,
      178, 57, 58, -1,
      178, 58, 176, -1,
      176, 58, 85, -1,
      176, 85, 3, -1,
      179, 54, 53, -1,
      179, 53, 180, -1,
      180, 53, 42, -1,
      180, 42, 181, -1,
      181, 42, 40, -1,
      181, 40, 182, -1,
      182, 40, 39, -1,
      182, 39, 183, -1,
      183, 39, 32, -1,
      183, 32, 184, -1,
      184, 32, 34, -1,
      184, 34, 185, -1,
      185, 34, 177, -1,
      177, 34, 35, -1,
      177, 35, 56, -1,
      186, 47, 46, -1,
      186, 46, 187, -1,
      187, 46, 45, -1,
      187, 45, 188, -1,
      188, 45, 44, -1,
      188, 44, 189, -1,
      189, 44, 37, -1,
      189, 37, 190, -1,
      190, 37, 36, -1,
      190, 36, 191, -1,
      191, 36, 55, -1,
      191, 55, 192, -1,
      192, 55, 54, -1,
      192, 54, 179, -1,
      193, 49, 48, -1,
      193, 48, 194, -1,
      194, 48, 47, -1,
      194, 47, 186, -1,
      193, 195, 49, -1,
      49, 195, 50, -1,
      196, 52, 51, -1,
      196, 51, 197, -1,
      197, 51, 50, -1,
      197, 50, 195, -1,
      198, 19, 31, -1,
      198, 31, 199, -1,
      199, 31, 30, -1,
      199, 30, 200, -1,
      200, 30, 18, -1,
      200, 18, 201, -1,
      201, 18, 17, -1,
      201, 17, 202, -1,
      202, 17, 15, -1,
      202, 15, 203, -1,
      203, 15, 14, -1,
      203, 14, 204, -1,
      204, 14, 52, -1,
      204, 52, 196, -1,
      205, 23, 22, -1,
      205, 22, 206, -1,
      206, 22, 24, -1,
      206, 24, 207, -1,
      207, 24, 25, -1,
      207, 25, 208, -1,
      208, 25, 26, -1,
      208, 26, 209, -1,
      209, 26, 21, -1,
      209, 21, 210, -1,
      210, 21, 20, -1,
      210, 20, 211, -1,
      211, 20, 19, -1,
      211, 19, 198, -1,
      174, 4, 16, -1,
      174, 16, 212, -1,
      212, 16, 27, -1,
      212, 27, 213, -1,
      213, 27, 23, -1,
      213, 23, 205, -1,
      206, 177, 205, -1,
      205, 177, 178, -1,
      205, 178, 213, -1,
      213, 178, 176, -1,
      213, 176, 212, -1,
      212, 176, 175, -1,
      212, 175, 174, -1,
      195, 193, 197, -1,
      197, 193, 194, -1,
      197, 194, 196, -1,
      196, 194, 186, -1,
      196, 186, 204, -1,
      204, 186, 187, -1,
      204, 187, 203, -1,
      203, 187, 188, -1,
      203, 188, 202, -1,
      202, 188, 189, -1,
      202, 189, 201, -1,
      201, 189, 190, -1,
      201, 190, 200, -1,
      200, 190, 191, -1,
      200, 191, 199, -1,
      199, 191, 192, -1,
      199, 192, 198, -1,
      198, 192, 179, -1,
      198, 179, 211, -1,
      211, 179, 180, -1,
      211, 180, 210, -1,
      210, 180, 181, -1,
      210, 181, 209, -1,
      209, 181, 182, -1,
      209, 182, 208, -1,
      208, 182, 183, -1,
      208, 183, 207, -1,
      207, 183, 184, -1,
      207, 184, 206, -1,
      206, 184, 185, -1,
      206, 185, 177, -1,
      214, 215, 41, -1,
      41, 215, 33, -1,
      215, 216, 33, -1,
      33, 216, 29, -1,
      216, 217, 29, -1,
      29, 217, 28, -1,
      217, 218, 28, -1,
      28, 218, 38, -1,
      218, 219, 38, -1,
      38, 219, 43, -1,
      219, 214, 43, -1,
      43, 214, 41, -1,
      218, 217, 219, -1,
      219, 217, 216, -1,
      219, 216, 214, -1,
      214, 216, 215, -1,
    ]
  }
}

Shape {
  appearance Appearance {
    material Material {
      diffuseColor 0.6667 0.6667 0.6667
      specularColor 0.4667 0.4667 0.4667
      ambientIntensity 0.2
      transparency 0.0000
      shininess 0.5
    }
  }
  geometry IndexedFaceSet {
    ccw TRUE
    solid FALSE
    coord DEF co Coordinate {
      point [
        -0.112440 0.198265 -0.098425,
        -0.138771 0.198265 -0.098425,
        -0.124188 0.231153 -0.098425,
        -0.124946 0.233884 -0.098425,
        -0.125448 0.236675 -0.098425,
        -0.125703 0.236675 -0.098425,
        -0.126217 0.233893 -0.098425,
        -0.126919 0.231153 -0.098425,
        -0.043782 0.237635 -0.098425,
        -0.032169 0.237635 -0.098425,
        -0.053102 0.236644 -0.098425,
        -0.059601 0.234370 -0.098425,
        -0.065353 0.230654 -0.098425,
        -0.069178 0.226593 -0.098425,
        -0.071913 0.221737 -0.098425,
        -0.073751 0.215509 -0.098425,
        -0.074420 0.207672 -0.098425,
        -0.073697 0.199402 -0.098425,
        -0.071387 0.192000 -0.098425,
        -0.068067 0.186572 -0.098425,
        -0.063650 0.182209 -0.098425,
        -0.058280 0.179021 -0.098425,
        -0.051654 0.176952 -0.098425,
        -0.043347 0.176179 -0.098425,
        -0.032169 0.176179 -0.098425,
      ]
    }
    coordIndex [
      0, 1, 2, -1,
      2, 1, 7, -1,
      2, 7, 3, -1,
      3, 7, 6, -1,
      3, 6, 4, -1,
      4, 6, 5, -1,
      9, 24, 8, -1,
      8, 24, 23, -1,
      8, 23, 22, -1,
      16, 15, 8, -1,
      8, 15, 14, -1,
      8, 14, 10, -1,
      22, 21, 8, -1,
      8, 21, 20, -1,
      8, 20, 19, -1,
      19, 18, 8, -1,
      8, 18, 17, -1,
      8, 17, 16, -1,
      13, 12, 14, -1,
      14, 12, 11, -1,
      14, 11, 10, -1,
    ]
  }
}

Shape {
  appearance Appearance {
    material Material {
      diffuseColor 0.3490 0.3490 0.3490
      specularColor 0.0235 0.0235 0.0235
      ambientIntensity 0.2
      transparency 0.0000
      shininess 0.5
    }
  }
  geometry IndexedFaceSet {
    ccw TRUE
    solid FALSE
    coord DEF co Coordinate {
      point [
        -0.848387 -0.954724 0.314961,
        -0.854287 -0.940481 0.314961,
        -0.740201 -0.909912 0.314961,
        -0.738189 -0.925197 0.314961,
        -0.740201 -0.940481 0.314961,
        -0.797244 -0.984252 0.314961,
        -0.812529 -0.982240 0.314961,
        -0.826772 -0.976340 0.314961,
        -0.839002 -0.966955 0.314961,
        -0.856299 -0.925197 0.314961,
        -0.854287 -0.909912 0.314961,
        -0.848387 -0.895669 0.314961,
        -0.781959 -0.982240 0.314961,
        -0.767717 -0.976340 0.314961,
        -0.839002 -0.883439 0.314961,
        -0.826772 -0.874054 0.314961,
        -0.812529 -0.868154 0.314961,
        -0.746101 -0.895669 0.314961,
        -0.755486 -0.883439 0.314961,
        -0.746101 -0.954724 0.314961,
        -0.755486 -0.966955 0.314961,
        -0.797244 -0.866142 0.314961,
        -0.781959 -0.868154 0.314961,
        -0.767717 -0.874054 0.314961,
        -0.738189 -0.925197 0.307087,
        -0.740201 -0.909912 0.307087,
        -0.746101 -0.895669 0.307087,
        -0.755486 -0.883439 0.307087,
        -0.767717 -0.874054 0.307087,
        -0.781959 -0.868154 0.307087,
        -0.797244 -0.866142 0.307087,
        -0.812529 -0.868154 0.307087,
        -0.826772 -0.874054 0.307087,
        -0.839002 -0.883439 0.307087,
        -0.848387 -0.895669 0.307087,
        -0.854287 -0.909912 0.307087,
        -0.856299 -0.925197 0.307087,
        -0.854287 -0.940481 0.307087,
        -0.848387 -0.954724 0.307087,
        -0.839002 -0.966955 0.307087,
        -0.826772 -0.976340 0.307087,
        -0.812529 -0.982240 0.307087,
        -0.797244 -0.984252 0.307087,
        -0.781959 -0.982240 0.307087,
        -0.767717 -0.976340 0.307087,
        -0.755486 -0.966955 0.307087,
        -0.746101 -0.954724 0.307087,
        -0.740201 -0.940481 0.307087,
        -0.797244 -0.925197 0.307087,
      ]
    }
    coordIndex [
      24, 3, 25, -1,
      25, 3, 2, -1,
      25, 2, 26, -1,
      26, 2, 17, -1,
      26, 17, 27, -1,
      27, 17, 18, -1,
      27, 18, 28, -1,
      28, 18, 23, -1,
      28, 23, 29, -1,
      29, 23, 22, -1,
      29, 22, 30, -1,
      30, 22, 21, -1,
      30, 21, 31, -1,
      31, 21, 16, -1,
      31, 16, 32, -1,
      32, 16, 15, -1,
      32, 15, 33, -1,
      33, 15, 14, -1,
      33, 14, 34, -1,
      34, 14, 11, -1,
      34, 11, 35, -1,
      35, 11, 10, -1,
      35, 10, 36, -1,
      36, 10, 9, -1,
      36, 9, 37, -1,
      37, 9, 1, -1,
      37, 1, 38, -1,
      38, 1, 0, -1,
      38, 0, 39, -1,
      39, 0, 8, -1,
      39, 8, 40, -1,
      40, 8, 7, -1,
      40, 7, 41, -1,
      41, 7, 6, -1,
      41, 6, 42, -1,
      42, 6, 5, -1,
      42, 5, 43, -1,
      43, 5, 12, -1,
      43, 12, 44, -1,
      44, 12, 13, -1,
      44, 13, 45, -1,
      45, 13, 20, -1,
      45, 20, 46, -1,
      46, 20, 19, -1,
      46, 19, 47, -1,
      47, 19, 4, -1,
      47, 4, 24, -1,
      24, 4, 3, -1,
      46, 47, 48, -1,
      48, 47, 24, -1,
      48, 24, 25, -1,
      43, 44, 48, -1,
      48, 44, 45, -1,
      48, 45, 46, -1,
      40, 41, 48, -1,
      48, 41, 42, -1,
      48, 42, 43, -1,
      37, 38, 48, -1,
      48, 38, 39, -1,
      48, 39, 40, -1,
      34, 35, 48, -1,
      48, 35, 36, -1,
      48, 36, 37, -1,
      31, 32, 48, -1,
      48, 32, 33, -1,
      48, 33, 34, -1,
      28, 29, 48, -1,
      48, 29, 30, -1,
      48, 30, 31, -1,
      25, 26, 48, -1,
      48, 26, 27, -1,
      48, 27, 28, -1,
    ]
  }
}

Shape {
  appearance Appearance {
    material Material {
      diffuseColor 0.6667 0.6667 0.6667
      specularColor 0.4667 0.4667 0.4667
      ambientIntensity 0.2
      transparency 0.0000
      shininess 0.5
    }
  }
  geometry IndexedFaceSet {
    ccw TRUE
    solid FALSE
    coord DEF co Coordinate {
      point [
        0.828740 0.924213 -0.098425,
        0.808071 0.924213 -0.098425,
        -0.828740 0.924213 -0.098425,
        -0.808071 0.924213 -0.098425,
        -0.828740 0.924213 -0.088583,
        -0.808071 0.924213 -0.088583,
        0.808071 0.924213 -0.088583,
        0.828740 0.924213 -0.088583,
      ]
    }
    coordIndex [
      1, 0, 6, -1,
      6, 0, 7, -1,
      4, 2, 5, -1,
      5, 2, 3, -1,
    ]
  }
}

Shape {
  appearance Appearance {
    material Material {
      diffuseColor 0.2078 0.2078 0.2078
      specularColor 0.0157 0.0157 0.0157
      ambientIntensity 0.2
      transparency 0.0000
      shininess 0.5
    }
  }
  geometry IndexedFaceSet {
    ccw TRUE
    solid FALSE
    coord DEF co Coordinate {
      point [
        0.974409 -1.116772 -0.088583,
        0.982563 -1.110516 -0.088583,
        0.988820 -1.102362 -0.088583,
        0.964914 -1.120706 -0.088583,
        0.954724 -1.122047 -0.088583,
        0.994094 -1.082677 -0.088583,
        0.992753 -1.092867 -0.088583,
        -0.954724 -1.122047 -0.088583,
        -0.964914 -1.120706 -0.088583,
        -0.974409 -1.116772 -0.088583,
        -0.982563 -1.110516 -0.088583,
        -0.988820 -1.102362 -0.088583,
        -0.992753 -1.092867 -0.088583,
        -0.994094 -1.082677 -0.088583,
        -0.994094 1.082677 -0.088583,
        -0.994094 1.082677 0.000000,
        -0.988820 1.102362 -0.088583,
        -0.982563 1.110516 -0.088583,
        -0.992753 1.092867 -0.088583,
        -0.974409 1.116772 -0.088583,
        -0.964914 1.120706 -0.088583,
        -0.954724 1.122047 -0.088583,
        0.994094 -1.082677 0.000000,
        0.954724 1.122047 -0.088583,
        0.954724 1.122047 0.000000,
        0.963485 1.121060 -0.088583,
        0.971806 1.118148 -0.088583,
        0.979271 1.113458 -0.088583,
        0.985505 1.107224 -0.088583,
        0.990196 1.099759 -0.088583,
        0.993107 1.091438 -0.088583,
        0.994094 1.082677 -0.088583,
        -0.954724 -1.122047 0.000000,
        0.964696 -1.053494 0.279706,
        0.994094 -1.082892 0.000006,
        0.964696 1.053494 0.279706,
        0.994094 1.082677 -0.000000,
        0.994094 1.082892 0.000006,
        -0.954724 1.122047 -0.000000,
        -0.954939 1.122046 0.000006,
        -0.925542 1.092649 0.279706,
        0.954939 1.122046 0.000006,
        0.925542 1.092649 0.279706,
        -0.964696 -1.053494 0.279706,
        -0.994094 -1.082677 -0.000000,
        -0.994094 -1.082892 0.000006,
        -0.964696 1.053494 0.279706,
        -0.994094 1.082892 0.000006,
        0.954724 -1.122047 -0.000000,
        0.954939 -1.122046 0.000006,
        0.925542 -1.092649 0.279706,
        -0.954939 -1.122046 0.000006,
        -0.925542 -1.092649 0.279706,
        -0.925542 -1.053494 0.314961,
        0.925542 -1.053494 0.314961,
        -0.925542 1.053494 0.314961,
        0.925542 1.053494 0.314961,
        0.992932 1.091414 0.000390,
        0.992716 1.093005 0.000462,
        0.989941 1.099653 0.000665,
        0.988784 1.102424 0.000749,
        0.985247 1.107025 0.000804,
        0.982563 1.110516 0.000847,
        0.979072 1.113200 0.000804,
        0.974471 1.116737 0.000749,
        0.971700 1.117894 0.000665,
        0.965053 1.120669 0.000462,
        0.963461 1.120885 0.000390,
        0.963468 1.062165 0.280488,
        0.963270 1.063560 0.280614,
        0.960424 1.070307 0.281024,
        0.959309 1.072949 0.281184,
        0.955737 1.077581 0.281296,
        0.953078 1.081031 0.281379,
        0.949629 1.083690 0.281296,
        0.944996 1.087262 0.281184,
        0.942355 1.088376 0.281024,
        0.935607 1.091223 0.280614,
        0.934212 1.091421 0.280488,
        -0.964912 1.120687 0.000456,
        -0.965053 1.120669 0.000462,
        -0.974406 1.116764 0.000747,
        -0.974471 1.116737 0.000749,
        -0.982563 1.110516 0.000847,
        -0.988784 1.102424 0.000749,
        -0.988811 1.102359 0.000747,
        -0.992716 1.093005 0.000462,
        -0.992735 1.092865 0.000456,
        0.925542 1.090460 0.289041,
        0.925542 1.086262 0.297414,
        0.932833 1.085441 0.297414,
        0.925542 1.086113 0.297588,
        0.925542 1.079967 0.304732,
        0.931432 1.079303 0.304732,
        0.929678 1.071614 0.310298,
        0.927674 1.062835 0.313777,
        0.929698 1.062126 0.313777,
        0.934174 1.057652 0.313777,
        0.933032 1.059468 0.313777,
        0.934882 1.055626 0.313777,
        0.925542 1.063018 0.313784,
        0.933796 1.089658 0.288784,
        0.941636 1.086915 0.288784,
        0.948669 1.082495 0.288784,
        0.954543 1.076622 0.288784,
        0.958962 1.069589 0.288784,
        0.961706 1.061748 0.288784,
        0.962635 1.053494 0.288784,
        0.935065 1.053494 0.313784,
        0.925542 1.079826 0.304831,
        0.925542 1.072080 0.310298,
        0.925542 1.071973 0.310339,
        0.925542 1.063075 0.313777,
        0.937129 1.068025 0.310298,
        0.940072 1.065082 0.310298,
        0.942286 1.061558 0.310298,
        0.943661 1.057630 0.310298,
        0.933606 1.070239 0.310298,
        0.931515 1.060985 0.313777,
        0.935122 1.053494 0.313777,
        0.944020 1.053494 0.310339,
        0.944127 1.053494 0.310298,
        0.951874 1.053494 0.304831,
        0.937028 1.077345 0.304732,
        0.942047 1.074191 0.304732,
        0.946239 1.070000 0.304732,
        0.949393 1.064980 0.304732,
        0.951350 1.059385 0.304732,
        0.939759 1.083017 0.297414,
        0.945972 1.079113 0.297414,
        0.951161 1.073925 0.297414,
        0.955065 1.067712 0.297414,
        0.957488 1.060786 0.297414,
        0.925542 1.090588 0.288784,
        0.952014 1.053494 0.304732,
        0.958160 1.053494 0.297588,
        0.958310 1.053494 0.297414,
        0.962507 1.053494 0.289041,
        0.964912 -1.120687 0.000456,
        0.965053 -1.120669 0.000462,
        0.974406 -1.116764 0.000747,
        0.974471 -1.116737 0.000749,
        0.982563 -1.110516 0.000847,
        0.988784 -1.102424 0.000749,
        0.988811 -1.102359 0.000747,
        0.992716 -1.093005 0.000462,
        0.992735 -1.092865 0.000456,
        -0.963270 1.063560 0.280614,
        -0.963254 1.063599 0.280616,
        -0.959309 1.072949 0.281184,
        -0.959288 1.072977 0.281185,
        -0.953078 1.081031 0.281379,
        -0.945024 1.087241 0.281185,
        -0.944996 1.087262 0.281184,
        -0.935646 1.091207 0.280616,
        -0.935607 1.091223 0.280614,
        -0.925542 1.090588 0.288784,
        -0.925542 1.090460 0.289041,
        -0.925542 1.086262 0.297414,
        -0.925542 1.086113 0.297588,
        -0.925542 1.079967 0.304732,
        -0.925542 1.079826 0.304831,
        -0.925542 1.072080 0.310298,
        -0.925542 1.071973 0.310339,
        -0.925542 1.063075 0.313777,
        -0.925542 1.063018 0.313784,
        0.935065 -1.053494 0.313784,
        0.962635 -1.053494 0.288784,
        0.962507 -1.053494 0.289041,
        0.958310 -1.053494 0.297414,
        0.958160 -1.053494 0.297588,
        0.952014 -1.053494 0.304732,
        0.951874 -1.053494 0.304831,
        0.944127 -1.053494 0.310298,
        0.944020 -1.053494 0.310339,
        0.935122 -1.053494 0.313777,
        0.963270 -1.063560 0.280614,
        0.963254 -1.063599 0.280616,
        0.959309 -1.072949 0.281184,
        0.959288 -1.072977 0.281185,
        0.953078 -1.081031 0.281379,
        0.945024 -1.087241 0.281185,
        0.944996 -1.087262 0.281184,
        0.935646 -1.091207 0.280616,
        0.935607 -1.091223 0.280614,
        -0.958160 1.053494 0.297588,
        -0.952014 1.053494 0.304732,
        -0.951112 1.060346 0.304732,
        -0.943494 1.058305 0.310298,
        -0.934796 1.055974 0.313777,
        -0.933839 1.058285 0.313777,
        -0.930332 1.061791 0.313777,
        -0.932316 1.060269 0.313777,
        -0.928021 1.062748 0.313777,
        -0.935065 1.053494 0.313784,
        -0.961371 1.063095 0.288784,
        -0.957666 1.072041 0.288784,
        -0.951771 1.079724 0.288784,
        -0.944089 1.085619 0.288784,
        -0.935142 1.089324 0.288784,
        -0.951874 1.053494 0.304831,
        -0.944127 1.053494 0.310298,
        -0.944020 1.053494 0.310339,
        -0.935122 1.053494 0.313777,
        -0.941637 1.062787 0.310298,
        -0.938683 1.066636 0.310298,
        -0.934834 1.069590 0.310298,
        -0.930352 1.071446 0.310298,
        -0.948467 1.066731 0.304732,
        -0.944261 1.072213 0.304732,
        -0.938778 1.076420 0.304732,
        -0.932393 1.079065 0.304732,
        -0.962507 1.053494 0.289041,
        -0.958310 1.053494 0.297414,
        -0.957193 1.061976 0.297414,
        -0.953920 1.069878 0.297414,
        -0.948712 1.076665 0.297414,
        -0.941926 1.081872 0.297414,
        -0.934023 1.085146 0.297414,
        -0.962635 1.053494 0.288784,
        0.951112 -1.060346 0.304732,
        0.943494 -1.058305 0.310298,
        0.934796 -1.055974 0.313777,
        0.933839 -1.058285 0.313777,
        0.930332 -1.061791 0.313777,
        0.932316 -1.060269 0.313777,
        0.928021 -1.062748 0.313777,
        0.961371 -1.063095 0.288784,
        0.957666 -1.072041 0.288784,
        0.951771 -1.079724 0.288784,
        0.944089 -1.085619 0.288784,
        0.935142 -1.089324 0.288784,
        0.925542 -1.090588 0.288784,
        0.925542 -1.063018 0.313784,
        0.941637 -1.062787 0.310298,
        0.938683 -1.066636 0.310298,
        0.934834 -1.069590 0.310298,
        0.930352 -1.071446 0.310298,
        0.925542 -1.063075 0.313777,
        0.925542 -1.071973 0.310339,
        0.925542 -1.072080 0.310298,
        0.925542 -1.079826 0.304831,
        0.948467 -1.066731 0.304732,
        0.944261 -1.072213 0.304732,
        0.938778 -1.076420 0.304732,
        0.932393 -1.079065 0.304732,
        0.957193 -1.061976 0.297414,
        0.953920 -1.069878 0.297414,
        0.948712 -1.076665 0.297414,
        0.941926 -1.081872 0.297414,
        0.934023 -1.085146 0.297414,
        0.925542 -1.079967 0.304732,
        0.925542 -1.086113 0.297588,
        0.925542 -1.086262 0.297414,
        0.925542 -1.090460 0.289041,
        -0.962635 -1.053494 0.288784,
        -0.962507 -1.053494 0.289041,
        -0.958310 -1.053494 0.297414,
        -0.958160 -1.053494 0.297588,
        -0.952014 -1.053494 0.304732,
        -0.951874 -1.053494 0.304831,
        -0.944127 -1.053494 0.310298,
        -0.944020 -1.053494 0.310339,
        -0.935122 -1.053494 0.313777,
        -0.935065 -1.053494 0.313784,
        -0.925542 -1.063018 0.313784,
        -0.925542 -1.090588 0.288784,
        -0.925542 -1.090460 0.289041,
        -0.925542 -1.086262 0.297414,
        -0.925542 -1.086113 0.297588,
        -0.925542 -1.079967 0.304732,
        -0.925542 -1.079826 0.304831,
        -0.925542 -1.072080 0.310298,
        -0.925542 -1.071973 0.310339,
        -0.925542 -1.063075 0.313777,
        -0.932393 -1.079065 0.304732,
        -0.930352 -1.071446 0.310298,
        -0.928021 -1.062748 0.313777,
        -0.930332 -1.061791 0.313777,
        -0.933839 -1.058285 0.313777,
        -0.932316 -1.060269 0.313777,
        -0.934796 -1.055974 0.313777,
        -0.935142 -1.089324 0.288784,
        -0.935646 -1.091207 0.280616,
        -0.935607 -1.091223 0.280614,
        -0.944996 -1.087262 0.281184,
        -0.944089 -1.085619 0.288784,
        -0.945024 -1.087241 0.281185,
        -0.951771 -1.079724 0.288784,
        -0.953078 -1.081031 0.281379,
        -0.957666 -1.072041 0.288784,
        -0.959288 -1.072977 0.281185,
        -0.959309 -1.072949 0.281184,
        -0.961371 -1.063095 0.288784,
        -0.963254 -1.063599 0.280616,
        -0.963270 -1.063560 0.280614,
        -0.934834 -1.069590 0.310298,
        -0.938683 -1.066636 0.310298,
        -0.941637 -1.062787 0.310298,
        -0.943494 -1.058305 0.310298,
        -0.938778 -1.076420 0.304732,
        -0.944261 -1.072213 0.304732,
        -0.948467 -1.066731 0.304732,
        -0.951112 -1.060346 0.304732,
        -0.934023 -1.085146 0.297414,
        -0.941926 -1.081872 0.297414,
        -0.948712 -1.076665 0.297414,
        -0.953920 -1.069878 0.297414,
        -0.957193 -1.061976 0.297414,
        -0.974471 -1.116737 0.000749,
        -0.974406 -1.116764 0.000747,
        -0.965053 -1.120669 0.000462,
        -0.964912 -1.120687 0.000456,
        -0.982563 -1.110516 0.000847,
        -0.988784 -1.102424 0.000749,
        -0.988811 -1.102359 0.000747,
        -0.992716 -1.093005 0.000462,
        -0.992735 -1.092865 0.000456,
      ]
    }
    coordIndex [
      37, 36, 31, -1,
      37, 31, 57, -1,
      57, 31, 30, -1,
      57, 30, 58, -1,
      58, 30, 29, -1,
      58, 29, 59, -1,
      59, 29, 60, -1,
      60, 29, 28, -1,
      60, 28, 61, -1,
      61, 28, 62, -1,
      62, 28, 27, -1,
      62, 27, 63, -1,
      63, 27, 64, -1,
      64, 27, 26, -1,
      64, 26, 65, -1,
      65, 26, 66, -1,
      66, 26, 25, -1,
      66, 25, 67, -1,
      23, 24, 25, -1,
      25, 24, 41, -1,
      25, 41, 67, -1,
      35, 37, 68, -1,
      68, 37, 57, -1,
      68, 57, 69, -1,
      69, 57, 58, -1,
      69, 58, 70, -1,
      70, 58, 59, -1,
      70, 59, 71, -1,
      71, 59, 60, -1,
      71, 60, 72, -1,
      72, 60, 61, -1,
      72, 61, 73, -1,
      73, 61, 62, -1,
      73, 62, 74, -1,
      74, 62, 63, -1,
      74, 63, 75, -1,
      75, 63, 64, -1,
      75, 64, 76, -1,
      76, 64, 65, -1,
      76, 65, 77, -1,
      77, 65, 66, -1,
      77, 66, 78, -1,
      78, 66, 67, -1,
      78, 67, 42, -1,
      42, 67, 41, -1,
      39, 38, 21, -1,
      39, 21, 79, -1,
      79, 21, 20, -1,
      79, 20, 80, -1,
      80, 20, 19, -1,
      80, 19, 81, -1,
      81, 19, 82, -1,
      82, 19, 17, -1,
      82, 17, 83, -1,
      83, 17, 84, -1,
      84, 17, 16, -1,
      84, 16, 85, -1,
      85, 16, 86, -1,
      86, 16, 18, -1,
      86, 18, 87, -1,
      14, 15, 18, -1,
      18, 15, 47, -1,
      18, 47, 87, -1,
      88, 89, 90, -1,
      91, 92, 93, -1,
      94, 95, 96, -1,
      56, 97, 98, -1,
      99, 97, 56, -1,
      96, 95, 56, -1,
      100, 56, 95, -1,
      78, 101, 77, -1,
      77, 101, 102, -1,
      77, 102, 76, -1,
      76, 102, 75, -1,
      75, 102, 103, -1,
      75, 103, 74, -1,
      74, 103, 73, -1,
      73, 103, 104, -1,
      73, 104, 72, -1,
      72, 104, 71, -1,
      71, 104, 105, -1,
      71, 105, 70, -1,
      70, 105, 69, -1,
      69, 105, 106, -1,
      69, 106, 68, -1,
      68, 106, 107, -1,
      68, 107, 35, -1,
      108, 99, 56, -1,
      109, 110, 94, -1,
      94, 110, 111, -1,
      94, 111, 95, -1,
      95, 111, 112, -1,
      95, 112, 100, -1,
      113, 98, 114, -1,
      114, 98, 97, -1,
      114, 97, 115, -1,
      115, 97, 99, -1,
      115, 99, 116, -1,
      92, 109, 93, -1,
      93, 109, 94, -1,
      93, 94, 117, -1,
      117, 94, 96, -1,
      117, 96, 118, -1,
      118, 96, 56, -1,
      108, 119, 99, -1,
      99, 119, 120, -1,
      99, 120, 116, -1,
      116, 120, 121, -1,
      116, 121, 122, -1,
      123, 113, 124, -1,
      124, 113, 114, -1,
      124, 114, 125, -1,
      125, 114, 115, -1,
      125, 115, 126, -1,
      126, 115, 116, -1,
      126, 116, 127, -1,
      127, 116, 122, -1,
      90, 123, 128, -1,
      128, 123, 124, -1,
      128, 124, 129, -1,
      129, 124, 125, -1,
      129, 125, 130, -1,
      130, 125, 126, -1,
      130, 126, 131, -1,
      131, 126, 127, -1,
      131, 127, 132, -1,
      89, 91, 90, -1,
      90, 91, 93, -1,
      90, 93, 123, -1,
      123, 93, 117, -1,
      123, 117, 113, -1,
      113, 117, 118, -1,
      113, 118, 98, -1,
      98, 118, 56, -1,
      78, 42, 101, -1,
      101, 42, 133, -1,
      101, 133, 88, -1,
      122, 134, 127, -1,
      127, 134, 135, -1,
      127, 135, 132, -1,
      132, 135, 136, -1,
      132, 136, 137, -1,
      88, 90, 101, -1,
      101, 90, 128, -1,
      101, 128, 102, -1,
      102, 128, 129, -1,
      102, 129, 103, -1,
      103, 129, 130, -1,
      103, 130, 104, -1,
      104, 130, 131, -1,
      104, 131, 105, -1,
      105, 131, 132, -1,
      105, 132, 106, -1,
      106, 132, 137, -1,
      106, 137, 107, -1,
      49, 48, 4, -1,
      49, 4, 138, -1,
      138, 4, 3, -1,
      138, 3, 139, -1,
      139, 3, 0, -1,
      139, 0, 140, -1,
      140, 0, 141, -1,
      141, 0, 1, -1,
      141, 1, 142, -1,
      142, 1, 143, -1,
      143, 1, 2, -1,
      143, 2, 144, -1,
      144, 2, 145, -1,
      145, 2, 6, -1,
      145, 6, 146, -1,
      5, 22, 6, -1,
      6, 22, 34, -1,
      6, 34, 146, -1,
      84, 85, 147, -1,
      147, 85, 86, -1,
      147, 86, 46, -1,
      46, 86, 87, -1,
      46, 87, 47, -1,
      147, 148, 84, -1,
      84, 148, 149, -1,
      84, 149, 83, -1,
      83, 149, 150, -1,
      150, 151, 83, -1,
      83, 151, 152, -1,
      83, 152, 82, -1,
      82, 152, 153, -1,
      82, 153, 81, -1,
      81, 153, 154, -1,
      81, 154, 80, -1,
      80, 154, 155, -1,
      80, 155, 79, -1,
      79, 155, 40, -1,
      79, 40, 39, -1,
      55, 56, 100, -1,
      42, 40, 133, -1,
      133, 40, 156, -1,
      133, 156, 88, -1,
      88, 156, 157, -1,
      88, 157, 89, -1,
      89, 157, 158, -1,
      89, 158, 91, -1,
      91, 158, 159, -1,
      91, 159, 92, -1,
      92, 159, 160, -1,
      92, 160, 109, -1,
      109, 160, 161, -1,
      109, 161, 110, -1,
      110, 161, 162, -1,
      110, 162, 111, -1,
      111, 162, 163, -1,
      111, 163, 112, -1,
      112, 163, 164, -1,
      112, 164, 100, -1,
      100, 164, 165, -1,
      100, 165, 55, -1,
      56, 54, 166, -1,
      33, 35, 167, -1,
      167, 35, 107, -1,
      167, 107, 168, -1,
      168, 107, 137, -1,
      168, 137, 169, -1,
      169, 137, 136, -1,
      169, 136, 170, -1,
      170, 136, 135, -1,
      170, 135, 171, -1,
      171, 135, 134, -1,
      171, 134, 172, -1,
      172, 134, 122, -1,
      172, 122, 173, -1,
      173, 122, 121, -1,
      173, 121, 174, -1,
      174, 121, 120, -1,
      174, 120, 175, -1,
      175, 120, 119, -1,
      175, 119, 166, -1,
      166, 119, 108, -1,
      166, 108, 56, -1,
      143, 144, 176, -1,
      176, 144, 145, -1,
      176, 145, 33, -1,
      33, 145, 146, -1,
      33, 146, 34, -1,
      176, 177, 143, -1,
      143, 177, 178, -1,
      143, 178, 142, -1,
      142, 178, 179, -1,
      179, 180, 142, -1,
      142, 180, 181, -1,
      142, 181, 141, -1,
      141, 181, 182, -1,
      141, 182, 140, -1,
      140, 182, 183, -1,
      140, 183, 139, -1,
      139, 183, 184, -1,
      139, 184, 138, -1,
      138, 184, 50, -1,
      138, 50, 49, -1,
      185, 186, 187, -1,
      188, 189, 190, -1,
      55, 191, 192, -1,
      193, 191, 55, -1,
      190, 189, 55, -1,
      194, 55, 189, -1,
      195, 148, 147, -1,
      148, 195, 149, -1,
      149, 195, 196, -1,
      149, 196, 150, -1,
      150, 196, 197, -1,
      150, 197, 151, -1,
      151, 197, 198, -1,
      151, 198, 152, -1,
      152, 198, 153, -1,
      153, 198, 199, -1,
      153, 199, 154, -1,
      154, 199, 155, -1,
      155, 199, 156, -1,
      155, 156, 40, -1,
      165, 193, 55, -1,
      200, 201, 188, -1,
      188, 201, 202, -1,
      188, 202, 189, -1,
      189, 202, 203, -1,
      189, 203, 194, -1,
      204, 192, 205, -1,
      205, 192, 191, -1,
      205, 191, 206, -1,
      206, 191, 193, -1,
      206, 193, 207, -1,
      165, 164, 193, -1,
      193, 164, 163, -1,
      193, 163, 207, -1,
      207, 163, 162, -1,
      207, 162, 161, -1,
      187, 204, 208, -1,
      208, 204, 205, -1,
      208, 205, 209, -1,
      209, 205, 206, -1,
      209, 206, 210, -1,
      210, 206, 207, -1,
      210, 207, 211, -1,
      211, 207, 161, -1,
      212, 213, 214, -1,
      214, 213, 185, -1,
      185, 187, 214, -1,
      214, 187, 208, -1,
      214, 208, 215, -1,
      215, 208, 209, -1,
      215, 209, 216, -1,
      216, 209, 210, -1,
      216, 210, 217, -1,
      217, 210, 211, -1,
      217, 211, 218, -1,
      186, 200, 187, -1,
      187, 200, 188, -1,
      187, 188, 204, -1,
      204, 188, 190, -1,
      204, 190, 192, -1,
      192, 190, 55, -1,
      212, 195, 219, -1,
      219, 195, 147, -1,
      219, 147, 46, -1,
      161, 160, 211, -1,
      211, 160, 159, -1,
      211, 159, 218, -1,
      218, 159, 158, -1,
      218, 158, 157, -1,
      212, 214, 195, -1,
      195, 214, 215, -1,
      195, 215, 196, -1,
      196, 215, 216, -1,
      196, 216, 197, -1,
      197, 216, 217, -1,
      197, 217, 198, -1,
      198, 217, 218, -1,
      198, 218, 199, -1,
      199, 218, 157, -1,
      199, 157, 156, -1,
      170, 171, 220, -1,
      221, 222, 223, -1,
      54, 224, 225, -1,
      226, 224, 54, -1,
      223, 222, 54, -1,
      166, 54, 222, -1,
      227, 177, 176, -1,
      177, 227, 178, -1,
      178, 227, 228, -1,
      178, 228, 179, -1,
      179, 228, 229, -1,
      179, 229, 180, -1,
      180, 229, 230, -1,
      180, 230, 181, -1,
      181, 230, 182, -1,
      182, 230, 231, -1,
      182, 231, 183, -1,
      183, 231, 184, -1,
      184, 231, 232, -1,
      184, 232, 50, -1,
      233, 226, 54, -1,
      172, 173, 221, -1,
      221, 173, 174, -1,
      221, 174, 222, -1,
      222, 174, 175, -1,
      222, 175, 166, -1,
      234, 225, 235, -1,
      235, 225, 224, -1,
      235, 224, 236, -1,
      236, 224, 226, -1,
      236, 226, 237, -1,
      233, 238, 226, -1,
      226, 238, 239, -1,
      226, 239, 237, -1,
      237, 239, 240, -1,
      237, 240, 241, -1,
      220, 234, 242, -1,
      242, 234, 235, -1,
      242, 235, 243, -1,
      243, 235, 236, -1,
      243, 236, 244, -1,
      244, 236, 237, -1,
      244, 237, 245, -1,
      245, 237, 241, -1,
      168, 169, 246, -1,
      246, 169, 170, -1,
      170, 220, 246, -1,
      246, 220, 242, -1,
      246, 242, 247, -1,
      247, 242, 243, -1,
      247, 243, 248, -1,
      248, 243, 244, -1,
      248, 244, 249, -1,
      249, 244, 245, -1,
      249, 245, 250, -1,
      171, 172, 220, -1,
      220, 172, 221, -1,
      220, 221, 234, -1,
      234, 221, 223, -1,
      234, 223, 225, -1,
      225, 223, 54, -1,
      168, 227, 167, -1,
      167, 227, 176, -1,
      167, 176, 33, -1,
      241, 251, 245, -1,
      245, 251, 252, -1,
      245, 252, 250, -1,
      250, 252, 253, -1,
      250, 253, 254, -1,
      168, 246, 227, -1,
      227, 246, 247, -1,
      227, 247, 228, -1,
      228, 247, 248, -1,
      228, 248, 229, -1,
      229, 248, 249, -1,
      229, 249, 230, -1,
      230, 249, 250, -1,
      230, 250, 231, -1,
      231, 250, 254, -1,
      231, 254, 232, -1,
      53, 55, 194, -1,
      46, 43, 219, -1,
      219, 43, 255, -1,
      219, 255, 212, -1,
      212, 255, 256, -1,
      212, 256, 213, -1,
      213, 256, 257, -1,
      213, 257, 185, -1,
      185, 257, 258, -1,
      185, 258, 186, -1,
      186, 258, 259, -1,
      186, 259, 200, -1,
      200, 259, 260, -1,
      200, 260, 201, -1,
      201, 260, 261, -1,
      201, 261, 202, -1,
      202, 261, 262, -1,
      202, 262, 203, -1,
      203, 262, 263, -1,
      203, 263, 194, -1,
      194, 263, 264, -1,
      194, 264, 53, -1,
      54, 53, 265, -1,
      52, 50, 266, -1,
      266, 50, 232, -1,
      266, 232, 267, -1,
      267, 232, 254, -1,
      267, 254, 268, -1,
      268, 254, 253, -1,
      268, 253, 269, -1,
      269, 253, 252, -1,
      269, 252, 270, -1,
      270, 252, 251, -1,
      270, 251, 271, -1,
      271, 251, 241, -1,
      271, 241, 272, -1,
      272, 241, 240, -1,
      272, 240, 273, -1,
      273, 240, 239, -1,
      273, 239, 274, -1,
      274, 239, 238, -1,
      274, 238, 265, -1,
      265, 238, 233, -1,
      265, 233, 54, -1,
      269, 270, 275, -1,
      276, 277, 278, -1,
      53, 279, 280, -1,
      281, 279, 53, -1,
      278, 277, 53, -1,
      265, 53, 277, -1,
      282, 283, 284, -1,
      283, 282, 285, -1,
      285, 282, 286, -1,
      285, 286, 287, -1,
      287, 286, 288, -1,
      287, 288, 289, -1,
      289, 288, 290, -1,
      289, 290, 291, -1,
      291, 290, 292, -1,
      292, 290, 293, -1,
      292, 293, 294, -1,
      294, 293, 295, -1,
      295, 293, 255, -1,
      295, 255, 43, -1,
      264, 281, 53, -1,
      271, 272, 276, -1,
      276, 272, 273, -1,
      276, 273, 277, -1,
      277, 273, 274, -1,
      277, 274, 265, -1,
      296, 280, 297, -1,
      297, 280, 279, -1,
      297, 279, 298, -1,
      298, 279, 281, -1,
      298, 281, 299, -1,
      264, 263, 281, -1,
      281, 263, 262, -1,
      281, 262, 299, -1,
      299, 262, 261, -1,
      299, 261, 260, -1,
      275, 296, 300, -1,
      300, 296, 297, -1,
      300, 297, 301, -1,
      301, 297, 298, -1,
      301, 298, 302, -1,
      302, 298, 299, -1,
      302, 299, 303, -1,
      303, 299, 260, -1,
      267, 268, 304, -1,
      304, 268, 269, -1,
      269, 275, 304, -1,
      304, 275, 300, -1,
      304, 300, 305, -1,
      305, 300, 301, -1,
      305, 301, 306, -1,
      306, 301, 302, -1,
      306, 302, 307, -1,
      307, 302, 303, -1,
      307, 303, 308, -1,
      270, 271, 275, -1,
      275, 271, 276, -1,
      275, 276, 296, -1,
      296, 276, 278, -1,
      296, 278, 280, -1,
      280, 278, 53, -1,
      267, 282, 266, -1,
      266, 282, 284, -1,
      266, 284, 52, -1,
      260, 259, 303, -1,
      303, 259, 258, -1,
      303, 258, 308, -1,
      308, 258, 257, -1,
      308, 257, 256, -1,
      267, 304, 282, -1,
      282, 304, 305, -1,
      282, 305, 286, -1,
      286, 305, 306, -1,
      286, 306, 288, -1,
      288, 306, 307, -1,
      288, 307, 290, -1,
      290, 307, 308, -1,
      290, 308, 293, -1,
      293, 308, 256, -1,
      293, 256, 255, -1,
      309, 310, 284, -1,
      284, 310, 311, -1,
      284, 311, 52, -1,
      52, 311, 312, -1,
      52, 312, 51, -1,
      284, 283, 309, -1,
      309, 283, 285, -1,
      309, 285, 313, -1,
      313, 285, 287, -1,
      287, 289, 313, -1,
      313, 289, 291, -1,
      313, 291, 314, -1,
      314, 291, 292, -1,
      314, 292, 315, -1,
      315, 292, 294, -1,
      315, 294, 316, -1,
      316, 294, 295, -1,
      316, 295, 317, -1,
      317, 295, 43, -1,
      317, 43, 45, -1,
      45, 44, 13, -1,
      45, 13, 317, -1,
      317, 13, 12, -1,
      317, 12, 316, -1,
      316, 12, 11, -1,
      316, 11, 315, -1,
      315, 11, 314, -1,
      314, 11, 10, -1,
      314, 10, 313, -1,
      313, 10, 309, -1,
      309, 10, 9, -1,
      309, 9, 310, -1,
      310, 9, 311, -1,
      311, 9, 8, -1,
      311, 8, 312, -1,
      7, 32, 8, -1,
      8, 32, 51, -1,
      8, 51, 312, -1,
    ]
  }
}
