#VRML V2.0 utf8

Shape {
  appearance Appearance {
    material Material {
      diffuseColor 0.2000 0.2000 0.2000
      specularColor 0.2196 0.2196 0.2196
      ambientIntensity 0.2
      transparency 0.0000
      shininess 0.5
    }
  }
  geometry IndexedFaceSet {
    ccw TRUE
    solid FALSE
    coord DEF co Coordinate {
      point [
        -1.000000 0.165000 0.000000,
        -1.000000 0.325000 0.000000,
        -0.723498 0.662500 0.000000,
        -1.250000 -0.093896 -0.000000,
        -1.250000 0.105356 0.000000,
        -1.165000 0.105356 0.000000,
        1.250000 0.675000 0.000000,
        1.250000 0.662500 0.000000,
        1.000000 0.675000 0.000000,
        0.675004 0.662500 0.000000,
        1.000000 1.000000 0.000000,
        -1.165000 0.662500 0.000000,
        -1.000000 0.675000 0.000000,
        -1.165000 0.675000 0.000000,
        -1.250000 -0.135048 -0.000000,
        -1.165000 -0.135048 -0.000000,
        -1.250000 -0.675000 -0.000000,
        -1.165000 -0.675000 -0.000000,
        -1.000000 -0.335000 -0.000000,
        -1.000000 -0.175000 -0.000000,
        -0.723498 -0.135048 -0.000000,
        -1.080000 -0.335000 -0.000000,
        -1.000000 -0.675000 -0.000000,
        -0.723498 -1.000000 -0.000000,
        -1.000000 -1.000000 -0.000000,
        -1.080000 -0.175000 -0.000000,
        1.000000 -0.675000 -0.000000,
        1.000000 -1.000000 -0.000000,
        0.675004 -1.000000 -0.000000,
        0.675004 -0.135048 -0.000000,
        1.000000 -0.175000 -0.000000,
        1.000000 -0.335000 -0.000000,
        1.080000 -0.175000 -0.000000,
        1.250000 -0.135048 -0.000000,
        1.080000 -0.335000 -0.000000,
        1.250000 -0.675000 -0.000000,
        0.066734 -0.093896 -0.000000,
        0.066734 0.105356 0.000000,
        0.085939 -0.060887 -0.000000,
        0.085939 -0.082493 -0.000000,
        0.106922 -0.091108 -0.000000,
        0.126814 -0.093896 -0.000000,
        0.114869 0.105356 0.000000,
        0.108698 0.104930 0.000000,
        0.085939 0.098754 0.000000,
        0.085939 0.072347 0.000000,
        0.108113 0.081842 0.000000,
        0.089467 -0.062841 -0.000000,
        0.132039 0.084950 0.000000,
        0.151422 0.082773 0.000000,
        0.166156 0.077456 0.000000,
        0.179781 0.068341 0.000000,
        0.191669 0.055218 0.000000,
        0.205970 0.003629 0.000000,
        0.203977 -0.017681 -0.000000,
        0.198629 -0.034613 -0.000000,
        0.154826 -0.071431 -0.000000,
        0.136465 -0.073491 -0.000000,
        0.169169 -0.066150 -0.000000,
        0.181250 -0.058008 -0.000000,
        0.190487 -0.048263 -0.000000,
        0.110335 -0.070590 -0.000000,
        0.199784 0.040019 0.000000,
        0.205031 0.018945 0.000000,
        0.066734 0.135778 0.000000,
        0.132264 0.106556 0.000000,
        0.199276 -0.075902 -0.000000,
        0.214062 -0.060335 -0.000000,
        0.240779 -0.093896 -0.000000,
        0.224549 -0.041618 -0.000000,
        0.221988 0.052307 0.000000,
        0.210450 0.070711 0.000000,
        0.240779 0.105356 0.000000,
        0.192678 0.087804 0.000000,
        0.151680 -0.093896 -0.000000,
        0.164362 -0.092581 -0.000000,
        0.183442 -0.086013 -0.000000,
        0.173980 0.098566 0.000000,
        0.152035 0.104941 0.000000,
        0.146967 0.105356 0.000000,
        0.230473 -0.020781 -0.000000,
        0.232377 0.002017 0.000000,
        0.229545 0.030003 0.000000,
        0.134721 -0.095004 -0.000000,
        0.066734 -0.135048 -0.000000,
        0.140103 -0.095096 -0.000000,
        0.240779 -0.135048 -0.000000,
        -1.250000 0.675000 0.000000,
        -1.250000 0.662500 0.000000,
        -1.250000 0.135778 0.000000,
        -1.165000 0.135778 0.000000,
        -1.165000 -0.093896 -0.000000,
        -0.723498 0.105356 0.000000,
        -0.723498 -0.093896 -0.000000,
        -0.723498 0.135778 0.000000,
        -1.080000 0.325000 0.000000,
        -1.080000 0.165000 0.000000,
        -0.298159 -0.092695 -0.000000,
        -0.269352 -0.092695 -0.000000,
        -0.262150 -0.093896 -0.000000,
        -0.418190 -0.092695 -0.000000,
        -0.398272 -0.037481 -0.000000,
        -0.316951 -0.037481 -0.000000,
        -0.262150 0.105356 0.000000,
        -0.343770 0.104155 0.000000,
        -0.370178 0.104155 0.000000,
        -0.446997 -0.092695 -0.000000,
        -0.152059 0.104155 0.000000,
        -0.077302 0.105356 0.000000,
        -0.180498 0.101115 0.000000,
        -0.203530 0.093028 0.000000,
        -0.224956 0.078669 0.000000,
        -0.245118 -0.038743 -0.000000,
        -0.233830 -0.056350 -0.000000,
        -0.217627 -0.071864 -0.000000,
        -0.197073 -0.083808 -0.000000,
        -0.225162 0.078488 0.000000,
        -0.239082 0.063052 0.000000,
        -0.248230 0.046123 0.000000,
        -0.174390 -0.090569 -0.000000,
        -0.150033 -0.092695 -0.000000,
        -0.077302 -0.093896 -0.000000,
        -0.096507 -0.092695 -0.000000,
        -0.096507 0.104155 0.000000,
        -0.253517 0.026728 0.000000,
        -0.254948 0.008206 0.000000,
        -0.252185 -0.018139 -0.000000,
        -0.077302 -0.135048 -0.000000,
        -0.262150 -0.135048 -0.000000,
        0.021123 0.082550 0.000000,
        0.021123 0.017733 0.000000,
        -0.053296 0.082550 0.000000,
        -0.048495 0.017733 0.000000,
        -0.053296 0.104155 0.000000,
        -0.048495 -0.003873 -0.000000,
        0.021123 -0.003873 -0.000000,
        0.021123 -0.071090 -0.000000,
        -0.058098 -0.071090 -0.000000,
        -0.058098 -0.092695 -0.000000,
        0.047530 -0.092695 -0.000000,
        0.047530 0.104155 0.000000,
        -0.077302 0.135778 0.000000,
        -0.262150 0.135778 0.000000,
        -0.262150 -1.000000 -0.000000,
        -0.077302 -1.000000 -0.000000,
        0.066734 -1.000000 -0.000000,
        0.240779 -1.000000 -0.000000,
        0.675004 -0.093896 -0.000000,
        0.249181 -0.092695 -0.000000,
        0.350007 -0.092695 -0.000000,
        0.249181 -0.071090 -0.000000,
        0.323600 -0.071090 -0.000000,
        0.675004 0.105356 0.000000,
        0.350007 0.104155 0.000000,
        0.323600 0.104155 0.000000,
        0.240779 0.135778 0.000000,
        0.675004 0.135778 0.000000,
        -0.262150 0.662500 0.000000,
        -0.077302 0.662500 0.000000,
        0.066734 0.662500 0.000000,
        0.240779 0.662500 0.000000,
        0.675004 1.000000 0.000000,
        0.240779 1.000000 0.000000,
        0.066734 1.000000 0.000000,
        -0.077302 1.000000 0.000000,
        -0.262150 1.000000 0.000000,
        -0.723498 1.000000 0.000000,
        -1.000000 1.000000 0.000000,
        1.250000 0.135778 0.000000,
        1.250000 0.105356 0.000000,
        1.250000 -0.093896 -0.000000,
        1.080000 0.165000 0.000000,
        1.000000 0.165000 0.000000,
        1.000000 0.325000 0.000000,
        1.080000 0.325000 0.000000,
        -0.425000 -1.000000 0.990000,
        -0.250000 -1.000000 0.990000,
        -1.000000 -1.000000 2.250000,
        -0.425000 -1.000000 2.050000,
        -0.525000 -1.000000 2.250000,
        0.250000 -1.000000 0.990000,
        0.425000 -1.000000 0.990000,
        0.425000 -1.000000 2.050000,
        1.000000 -1.000000 2.250000,
        0.525000 -1.000000 2.250000,
        -1.250000 -0.675000 0.990000,
        -1.165000 -0.675000 0.990000,
        -1.165000 -0.005000 0.990000,
        -0.425000 -0.675000 0.990000,
        0.750000 -0.005000 0.990000,
        0.750000 -0.675000 0.990000,
        0.920000 -0.335000 0.990000,
        1.000000 -0.675000 0.990000,
        1.080000 -0.335000 0.990000,
        1.250000 -0.675000 0.990000,
        1.080000 -0.175000 0.990000,
        1.250000 -0.005000 0.990000,
        0.920000 -0.175000 0.990000,
        0.425000 -0.675000 0.990000,
        0.250000 -0.005000 0.990000,
        0.420000 -0.175000 0.990000,
        0.580000 -0.175000 0.990000,
        0.580000 -0.335000 0.990000,
        0.420000 -0.335000 0.990000,
        -0.250000 -0.005000 0.990000,
        -0.420000 -0.335000 0.990000,
        -0.750000 -0.675000 0.990000,
        -0.580000 -0.335000 0.990000,
        -0.750000 -0.005000 0.990000,
        -0.580000 -0.175000 0.990000,
        -0.420000 -0.175000 0.990000,
        -1.080000 -0.335000 0.990000,
        -1.080000 -0.175000 0.990000,
        -0.920000 -0.175000 0.990000,
        -0.920000 -0.335000 0.990000,
        -1.000000 -0.675000 0.990000,
        1.080000 0.165000 0.990000,
        1.080000 0.325000 0.990000,
        1.250000 0.500000 0.990000,
        0.920000 0.325000 0.990000,
        0.750000 0.500000 0.990000,
        0.920000 0.165000 0.990000,
        1.250000 0.675000 0.990000,
        1.000000 0.675000 0.990000,
        0.580000 0.165000 0.990000,
        0.580000 0.325000 0.990000,
        0.420000 0.325000 0.990000,
        0.250000 0.500000 0.990000,
        0.420000 0.165000 0.990000,
        0.080000 -0.175000 0.990000,
        0.080000 -0.335000 0.990000,
        -0.080000 -0.175000 0.990000,
        -0.080000 -0.335000 0.990000,
        0.080000 0.165000 0.990000,
        0.080000 0.325000 0.990000,
        -0.080000 0.325000 0.990000,
        -0.250000 0.500000 0.990000,
        -0.080000 0.165000 0.990000,
        -0.420000 0.165000 0.990000,
        -0.420000 0.325000 0.990000,
        -0.580000 0.325000 0.990000,
        -0.750000 0.500000 0.990000,
        -0.580000 0.165000 0.990000,
        -0.920000 0.165000 0.990000,
        -0.920000 0.325000 0.990000,
        -1.080000 0.325000 0.990000,
        -1.165000 0.500000 0.990000,
        -1.080000 0.165000 0.990000,
        0.750000 0.675000 0.990000,
        0.250000 0.675000 0.990000,
        -0.250000 0.675000 0.990000,
        -0.750000 0.675000 0.990000,
        -1.000000 0.675000 0.990000,
        -1.165000 0.675000 0.990000,
        -1.250000 -0.005000 0.990000,
        -1.250000 0.500000 0.990000,
        -1.250000 0.675000 0.990000,
        -1.000000 0.675000 0.745000,
        -1.250000 0.675000 0.745000,
        -1.250000 0.675000 0.245000,
        -1.250000 -0.675000 0.245000,
        -1.250000 -0.575000 0.245000,
        -1.250000 -0.675000 0.745000,
        -1.250000 -0.575000 0.745000,
        -1.250000 0.575000 0.745000,
        -1.250000 0.575000 0.245000,
        1.250000 0.575000 0.745000,
        1.000000 0.675000 0.745000,
        1.250000 0.675000 0.745000,
        1.250000 0.575000 0.245000,
        1.250000 0.675000 0.245000,
        1.000000 0.675000 0.245000,
        -1.000000 0.675000 0.245000,
        1.250000 -0.675000 0.745000,
        1.250000 -0.575000 0.745000,
        1.250000 -0.675000 0.245000,
        1.250000 -0.575000 0.245000,
        1.000000 -0.675000 0.245000,
        1.000000 -0.675000 2.250000,
        1.000000 -0.675000 0.745000,
        0.525000 -0.675000 2.250000,
        0.425000 -0.675000 2.050000,
        -1.000000 -0.675000 0.745000,
        -1.000000 -0.675000 0.245000,
        -1.000000 -0.675000 2.250000,
        -0.525000 -0.675000 2.250000,
        -0.425000 -0.675000 2.050000,
        1.000000 1.000000 2.250000,
        1.000000 0.675000 2.250000,
        -1.000000 0.675000 2.250000,
        -1.000000 1.000000 2.250000,
        1.000000 0.325000 0.050000,
        0.920000 0.325000 0.050000,
        0.920000 0.165000 0.050000,
        1.000000 0.165000 0.050000,
        1.000000 -0.175000 0.050000,
        0.920000 -0.175000 0.050000,
        0.920000 -0.335000 0.050000,
        1.000000 -0.335000 0.050000,
        -1.000000 -0.335000 0.050000,
        -0.920000 -0.335000 0.050000,
        -1.000000 -0.175000 0.050000,
        -0.920000 -0.175000 0.050000,
        -1.000000 0.165000 0.050000,
        -0.920000 0.165000 0.050000,
        -1.000000 0.325000 0.050000,
        -0.920000 0.325000 0.050000,
        0.420000 0.165000 0.050000,
        0.580000 0.165000 0.050000,
        0.420000 0.325000 0.050000,
        0.580000 0.325000 0.050000,
        0.420000 -0.335000 0.050000,
        0.580000 -0.335000 0.050000,
        0.420000 -0.175000 0.050000,
        0.580000 -0.175000 0.050000,
        -0.080000 0.165000 0.050000,
        0.080000 0.165000 0.050000,
        -0.080000 0.325000 0.050000,
        0.080000 0.325000 0.050000,
        -0.080000 -0.335000 0.050000,
        0.080000 -0.335000 0.050000,
        -0.080000 -0.175000 0.050000,
        0.080000 -0.175000 0.050000,
        -0.580000 0.165000 0.050000,
        -0.420000 0.165000 0.050000,
        -0.580000 0.325000 0.050000,
        -0.420000 0.325000 0.050000,
        -0.580000 -0.335000 0.050000,
        -0.420000 -0.335000 0.050000,
        -0.580000 -0.175000 0.050000,
        -0.420000 -0.175000 0.050000,
      ]
    }
    coordIndex [
      0, 1, 2, -1,
      3, 4, 5, -1,
      6, 7, 8, -1,
      8, 7, 9, -1,
      8, 9, 10, -1,
      2, 11, 12, -1,
      12, 11, 13, -1,
      14, 15, 16, -1,
      16, 15, 17, -1,
      18, 19, 20, -1,
      20, 19, 15, -1,
      21, 18, 22, -1,
      22, 18, 23, -1,
      22, 23, 24, -1,
      19, 25, 15, -1,
      15, 25, 21, -1,
      15, 21, 17, -1,
      17, 21, 22, -1,
      26, 27, 28, -1,
      29, 30, 31, -1,
      32, 33, 34, -1,
      34, 33, 35, -1,
      34, 35, 31, -1,
      31, 35, 26, -1,
      31, 26, 29, -1,
      29, 26, 28, -1,
      36, 37, 38, -1,
      38, 39, 36, -1,
      36, 39, 40, -1,
      36, 40, 41, -1,
      37, 42, 43, -1,
      43, 44, 37, -1,
      37, 44, 45, -1,
      37, 45, 38, -1,
      38, 45, 46, -1,
      38, 46, 47, -1,
      47, 46, 48, -1,
      47, 48, 49, -1,
      49, 50, 47, -1,
      47, 50, 51, -1,
      47, 51, 52, -1,
      53, 54, 47, -1,
      47, 54, 55, -1,
      56, 57, 58, -1,
      58, 57, 59, -1,
      55, 60, 47, -1,
      47, 60, 59, -1,
      47, 59, 61, -1,
      61, 59, 57, -1,
      52, 62, 47, -1,
      47, 62, 63, -1,
      47, 63, 53, -1,
      64, 65, 42, -1,
      66, 67, 68, -1,
      68, 67, 69, -1,
      70, 71, 72, -1,
      72, 71, 73, -1,
      74, 75, 68, -1,
      68, 75, 76, -1,
      68, 76, 66, -1,
      73, 77, 72, -1,
      72, 77, 78, -1,
      72, 78, 79, -1,
      69, 80, 68, -1,
      68, 80, 81, -1,
      68, 81, 72, -1,
      72, 81, 82, -1,
      72, 82, 70, -1,
      41, 83, 84, -1,
      84, 83, 85, -1,
      84, 85, 86, -1,
      87, 13, 88, -1,
      88, 13, 11, -1,
      88, 11, 89, -1,
      89, 11, 90, -1,
      3, 5, 91, -1,
      91, 5, 92, -1,
      91, 92, 93, -1,
      0, 94, 90, -1,
      2, 1, 11, -1,
      11, 1, 95, -1,
      11, 95, 90, -1,
      90, 95, 96, -1,
      90, 96, 0, -1,
      97, 98, 99, -1,
      100, 101, 102, -1,
      99, 98, 103, -1,
      103, 98, 104, -1,
      103, 104, 105, -1,
      102, 97, 100, -1,
      100, 97, 99, -1,
      100, 99, 106, -1,
      106, 99, 93, -1,
      106, 93, 105, -1,
      105, 93, 92, -1,
      105, 92, 103, -1,
      107, 103, 108, -1,
      107, 109, 103, -1,
      103, 109, 110, -1,
      103, 110, 111, -1,
      112, 113, 99, -1,
      99, 113, 114, -1,
      99, 114, 115, -1,
      111, 116, 103, -1,
      103, 116, 117, -1,
      103, 117, 118, -1,
      115, 119, 99, -1,
      99, 119, 120, -1,
      99, 120, 121, -1,
      121, 120, 122, -1,
      121, 122, 108, -1,
      108, 122, 123, -1,
      108, 123, 107, -1,
      118, 124, 103, -1,
      103, 124, 125, -1,
      103, 125, 99, -1,
      99, 125, 126, -1,
      99, 126, 112, -1,
      41, 84, 36, -1,
      36, 84, 127, -1,
      36, 127, 121, -1,
      121, 127, 128, -1,
      121, 128, 99, -1,
      99, 128, 20, -1,
      99, 20, 93, -1,
      93, 20, 15, -1,
      93, 15, 91, -1,
      91, 15, 14, -1,
      91, 14, 3, -1,
      129, 130, 131, -1,
      131, 130, 132, -1,
      37, 133, 108, -1,
      108, 133, 131, -1,
      108, 131, 121, -1,
      121, 131, 132, -1,
      121, 132, 134, -1,
      135, 136, 134, -1,
      134, 136, 137, -1,
      134, 137, 121, -1,
      121, 137, 138, -1,
      121, 138, 36, -1,
      36, 138, 139, -1,
      36, 139, 37, -1,
      37, 139, 140, -1,
      37, 140, 133, -1,
      42, 37, 64, -1,
      64, 37, 108, -1,
      64, 108, 141, -1,
      141, 108, 103, -1,
      141, 103, 142, -1,
      142, 103, 92, -1,
      142, 92, 94, -1,
      94, 92, 5, -1,
      94, 5, 90, -1,
      90, 5, 4, -1,
      90, 4, 89, -1,
      18, 20, 23, -1,
      23, 20, 128, -1,
      23, 128, 143, -1,
      143, 128, 127, -1,
      143, 127, 144, -1,
      144, 127, 84, -1,
      144, 84, 145, -1,
      145, 84, 86, -1,
      145, 86, 146, -1,
      28, 146, 29, -1,
      29, 146, 86, -1,
      29, 86, 147, -1,
      68, 148, 149, -1,
      148, 68, 150, -1,
      150, 68, 72, -1,
      150, 72, 151, -1,
      85, 74, 86, -1,
      86, 74, 68, -1,
      86, 68, 147, -1,
      147, 68, 149, -1,
      147, 149, 152, -1,
      152, 149, 153, -1,
      152, 153, 72, -1,
      72, 153, 154, -1,
      72, 154, 151, -1,
      65, 64, 79, -1,
      79, 64, 155, -1,
      79, 155, 72, -1,
      72, 155, 156, -1,
      72, 156, 152, -1,
      0, 2, 94, -1,
      94, 2, 157, -1,
      94, 157, 142, -1,
      142, 157, 158, -1,
      142, 158, 141, -1,
      141, 158, 159, -1,
      141, 159, 64, -1,
      64, 159, 160, -1,
      64, 160, 155, -1,
      155, 160, 9, -1,
      155, 9, 156, -1,
      10, 9, 161, -1,
      161, 9, 160, -1,
      161, 160, 162, -1,
      162, 160, 159, -1,
      162, 159, 163, -1,
      163, 159, 158, -1,
      163, 158, 164, -1,
      164, 158, 157, -1,
      164, 157, 165, -1,
      165, 157, 2, -1,
      165, 2, 166, -1,
      166, 2, 12, -1,
      166, 12, 167, -1,
      156, 168, 152, -1,
      152, 168, 169, -1,
      152, 169, 147, -1,
      147, 169, 170, -1,
      147, 170, 29, -1,
      29, 170, 33, -1,
      29, 33, 30, -1,
      30, 33, 32, -1,
      171, 168, 172, -1,
      172, 168, 156, -1,
      172, 156, 173, -1,
      173, 156, 9, -1,
      173, 9, 174, -1,
      174, 9, 7, -1,
      174, 7, 171, -1,
      171, 7, 168, -1,
      175, 24, 23, -1,
      175, 23, 176, -1,
      24, 175, 177, -1,
      177, 175, 178, -1,
      177, 178, 179, -1,
      23, 143, 176, -1,
      176, 143, 144, -1,
      176, 144, 180, -1,
      180, 144, 145, -1,
      145, 146, 180, -1,
      180, 146, 28, -1,
      180, 28, 181, -1,
      181, 28, 27, -1,
      181, 27, 182, -1,
      182, 27, 183, -1,
      182, 183, 184, -1,
      185, 186, 187, -1,
      188, 175, 176, -1,
      189, 190, 191, -1,
      191, 190, 192, -1,
      191, 192, 193, -1,
      193, 192, 194, -1,
      193, 194, 195, -1,
      195, 194, 196, -1,
      195, 196, 197, -1,
      197, 196, 189, -1,
      197, 189, 191, -1,
      180, 181, 198, -1,
      199, 200, 189, -1,
      189, 200, 201, -1,
      189, 201, 190, -1,
      190, 201, 202, -1,
      190, 202, 198, -1,
      198, 202, 203, -1,
      198, 203, 180, -1,
      176, 204, 188, -1,
      188, 204, 205, -1,
      188, 205, 206, -1,
      206, 205, 207, -1,
      206, 207, 208, -1,
      208, 207, 209, -1,
      208, 209, 204, -1,
      204, 209, 210, -1,
      204, 210, 205, -1,
      186, 211, 187, -1,
      187, 211, 212, -1,
      187, 212, 208, -1,
      208, 212, 213, -1,
      208, 213, 206, -1,
      206, 213, 214, -1,
      206, 214, 215, -1,
      215, 214, 211, -1,
      215, 211, 186, -1,
      216, 196, 217, -1,
      217, 196, 218, -1,
      217, 218, 219, -1,
      219, 218, 220, -1,
      219, 220, 221, -1,
      221, 220, 189, -1,
      221, 189, 216, -1,
      216, 189, 196, -1,
      218, 222, 223, -1,
      224, 189, 225, -1,
      225, 189, 220, -1,
      225, 220, 226, -1,
      226, 220, 227, -1,
      226, 227, 228, -1,
      228, 227, 199, -1,
      228, 199, 224, -1,
      224, 199, 189, -1,
      199, 229, 230, -1,
      229, 199, 231, -1,
      231, 199, 204, -1,
      231, 204, 232, -1,
      232, 204, 176, -1,
      232, 176, 230, -1,
      230, 176, 180, -1,
      230, 180, 199, -1,
      199, 180, 203, -1,
      199, 203, 200, -1,
      233, 199, 234, -1,
      234, 199, 227, -1,
      234, 227, 235, -1,
      235, 227, 236, -1,
      235, 236, 237, -1,
      237, 236, 204, -1,
      237, 204, 233, -1,
      233, 204, 199, -1,
      238, 204, 239, -1,
      239, 204, 236, -1,
      239, 236, 240, -1,
      240, 236, 241, -1,
      240, 241, 242, -1,
      242, 241, 208, -1,
      242, 208, 238, -1,
      238, 208, 204, -1,
      243, 208, 244, -1,
      244, 208, 241, -1,
      244, 241, 245, -1,
      245, 241, 246, -1,
      245, 246, 247, -1,
      247, 246, 187, -1,
      247, 187, 243, -1,
      243, 187, 208, -1,
      218, 223, 220, -1,
      220, 223, 248, -1,
      220, 248, 227, -1,
      227, 248, 249, -1,
      227, 249, 236, -1,
      236, 249, 250, -1,
      236, 250, 241, -1,
      241, 250, 251, -1,
      241, 251, 246, -1,
      246, 251, 252, -1,
      246, 252, 253, -1,
      185, 187, 254, -1,
      254, 187, 246, -1,
      254, 246, 255, -1,
      255, 246, 253, -1,
      255, 253, 256, -1,
      252, 257, 253, -1,
      253, 257, 258, -1,
      253, 258, 256, -1,
      259, 87, 88, -1,
      16, 260, 14, -1,
      14, 260, 261, -1,
      262, 185, 263, -1,
      263, 185, 254, -1,
      256, 258, 255, -1,
      255, 258, 264, -1,
      89, 4, 254, -1,
      259, 88, 265, -1,
      265, 88, 89, -1,
      265, 89, 264, -1,
      264, 89, 254, -1,
      264, 254, 255, -1,
      261, 263, 14, -1,
      14, 263, 254, -1,
      14, 254, 3, -1,
      3, 254, 4, -1,
      264, 258, 257, -1,
      264, 257, 266, -1,
      266, 257, 267, -1,
      266, 267, 268, -1,
      266, 269, 264, -1,
      264, 269, 265, -1,
      269, 270, 271, -1,
      269, 271, 265, -1,
      265, 271, 272, -1,
      265, 272, 259, -1,
      87, 259, 13, -1,
      13, 259, 272, -1,
      13, 272, 12, -1,
      7, 6, 270, -1,
      194, 273, 196, -1,
      196, 273, 274, -1,
      7, 270, 168, -1,
      168, 270, 269, -1,
      168, 269, 266, -1,
      275, 35, 276, -1,
      276, 35, 33, -1,
      276, 33, 274, -1,
      274, 33, 196, -1,
      196, 33, 170, -1,
      196, 170, 169, -1,
      169, 168, 196, -1,
      196, 168, 266, -1,
      196, 266, 218, -1,
      218, 266, 268, -1,
      218, 268, 222, -1,
      26, 35, 277, -1,
      277, 35, 275, -1,
      27, 26, 277, -1,
      278, 183, 192, -1,
      192, 183, 27, -1,
      192, 27, 279, -1,
      279, 27, 277, -1,
      183, 278, 184, -1,
      184, 278, 280, -1,
      198, 281, 190, -1,
      190, 281, 280, -1,
      190, 280, 192, -1,
      192, 280, 278, -1,
      281, 182, 280, -1,
      280, 182, 184, -1,
      198, 181, 281, -1,
      281, 181, 182, -1,
      279, 273, 192, -1,
      192, 273, 194, -1,
      274, 273, 279, -1,
      274, 279, 263, -1,
      263, 279, 282, -1,
      263, 282, 262, -1,
      185, 262, 186, -1,
      186, 262, 282, -1,
      186, 282, 215, -1,
      22, 24, 283, -1,
      283, 24, 282, -1,
      177, 284, 24, -1,
      24, 284, 215, -1,
      24, 215, 282, -1,
      282, 279, 283, -1,
      283, 279, 277, -1,
      261, 260, 283, -1,
      261, 283, 276, -1,
      276, 283, 277, -1,
      276, 277, 275, -1,
      276, 274, 261, -1,
      261, 274, 263, -1,
      22, 283, 17, -1,
      17, 283, 260, -1,
      17, 260, 16, -1,
      215, 284, 206, -1,
      206, 284, 285, -1,
      206, 285, 188, -1,
      188, 285, 286, -1,
      286, 178, 188, -1,
      188, 178, 175, -1,
      285, 179, 286, -1,
      286, 179, 178, -1,
      284, 177, 285, -1,
      285, 177, 179, -1,
      223, 222, 267, -1,
      267, 222, 268, -1,
      8, 10, 271, -1,
      271, 10, 267, -1,
      287, 288, 10, -1,
      10, 288, 223, -1,
      10, 223, 267, -1,
      267, 257, 271, -1,
      271, 257, 272, -1,
      167, 12, 272, -1,
      289, 290, 252, -1,
      252, 290, 167, -1,
      252, 167, 257, -1,
      257, 167, 272, -1,
      287, 10, 161, -1,
      161, 162, 287, -1,
      287, 162, 163, -1,
      287, 163, 290, -1,
      290, 163, 164, -1,
      164, 165, 290, -1,
      290, 165, 166, -1,
      290, 166, 167, -1,
      287, 290, 288, -1,
      288, 290, 289, -1,
      248, 223, 288, -1,
      252, 251, 289, -1,
      289, 251, 250, -1,
      289, 250, 288, -1,
      288, 250, 249, -1,
      288, 249, 248, -1,
      270, 6, 271, -1,
      271, 6, 8, -1,
      216, 217, 171, -1,
      171, 217, 174, -1,
      173, 174, 291, -1,
      291, 174, 217, -1,
      291, 217, 292, -1,
      292, 217, 219, -1,
      293, 294, 292, -1,
      292, 294, 291, -1,
      291, 294, 173, -1,
      173, 294, 172, -1,
      171, 172, 294, -1,
      293, 221, 294, -1,
      294, 221, 216, -1,
      294, 216, 171, -1,
      292, 219, 293, -1,
      293, 219, 221, -1,
      193, 195, 34, -1,
      34, 195, 32, -1,
      30, 32, 295, -1,
      295, 32, 195, -1,
      295, 195, 296, -1,
      296, 195, 197, -1,
      297, 298, 296, -1,
      296, 298, 295, -1,
      295, 298, 30, -1,
      30, 298, 31, -1,
      34, 31, 298, -1,
      297, 191, 298, -1,
      298, 191, 193, -1,
      298, 193, 34, -1,
      296, 197, 297, -1,
      297, 197, 191, -1,
      18, 21, 299, -1,
      299, 21, 211, -1,
      299, 211, 300, -1,
      300, 211, 214, -1,
      299, 300, 301, -1,
      301, 300, 302, -1,
      300, 214, 302, -1,
      302, 214, 213, -1,
      25, 19, 301, -1,
      302, 213, 301, -1,
      301, 213, 212, -1,
      301, 212, 25, -1,
      212, 211, 25, -1,
      25, 211, 21, -1,
      19, 18, 301, -1,
      301, 18, 299, -1,
      0, 96, 303, -1,
      303, 96, 247, -1,
      303, 247, 304, -1,
      304, 247, 243, -1,
      303, 304, 305, -1,
      305, 304, 306, -1,
      304, 243, 306, -1,
      306, 243, 244, -1,
      95, 1, 305, -1,
      306, 244, 305, -1,
      305, 244, 245, -1,
      305, 245, 95, -1,
      245, 247, 95, -1,
      95, 247, 96, -1,
      1, 0, 305, -1,
      305, 0, 303, -1,
      307, 228, 308, -1,
      308, 228, 224, -1,
      309, 226, 307, -1,
      307, 226, 228, -1,
      310, 225, 309, -1,
      309, 225, 226, -1,
      308, 224, 310, -1,
      310, 224, 225, -1,
      308, 310, 307, -1,
      307, 310, 309, -1,
      311, 203, 312, -1,
      312, 203, 202, -1,
      313, 200, 311, -1,
      311, 200, 203, -1,
      314, 201, 313, -1,
      313, 201, 200, -1,
      312, 202, 314, -1,
      314, 202, 201, -1,
      312, 314, 311, -1,
      311, 314, 313, -1,
      315, 237, 316, -1,
      316, 237, 233, -1,
      317, 235, 315, -1,
      315, 235, 237, -1,
      318, 234, 317, -1,
      317, 234, 235, -1,
      316, 233, 318, -1,
      318, 233, 234, -1,
      316, 318, 315, -1,
      315, 318, 317, -1,
      319, 232, 320, -1,
      320, 232, 230, -1,
      321, 231, 319, -1,
      319, 231, 232, -1,
      322, 229, 321, -1,
      321, 229, 231, -1,
      320, 230, 322, -1,
      322, 230, 229, -1,
      320, 322, 319, -1,
      319, 322, 321, -1,
      323, 242, 324, -1,
      324, 242, 238, -1,
      325, 240, 323, -1,
      323, 240, 242, -1,
      326, 239, 325, -1,
      325, 239, 240, -1,
      324, 238, 326, -1,
      326, 238, 239, -1,
      324, 326, 323, -1,
      323, 326, 325, -1,
      327, 207, 328, -1,
      328, 207, 205, -1,
      329, 209, 327, -1,
      327, 209, 207, -1,
      330, 210, 329, -1,
      329, 210, 209, -1,
      328, 205, 330, -1,
      330, 205, 210, -1,
      328, 330, 327, -1,
      327, 330, 329, -1,
    ]
  }
}

Shape {
  appearance Appearance {
    material Material {
      diffuseColor 1.0000 1.0000 1.0000
      specularColor 0.5020 0.5020 0.5020
      ambientIntensity 0.2
      transparency 0.0000
      shininess 0.5
    }
  }
  geometry IndexedFaceSet {
    ccw TRUE
    solid FALSE
    coord DEF co Coordinate {
      point [
        0.085939 -0.060887 -0.000000,
        0.085939 -0.082493 -0.000000,
        0.106922 -0.091108 -0.000000,
        0.126814 -0.093896 -0.000000,
        0.114869 0.105356 0.000000,
        0.108698 0.104930 0.000000,
        0.085939 0.098754 0.000000,
        0.085939 0.072347 0.000000,
        0.108113 0.081842 0.000000,
        0.089467 -0.062841 -0.000000,
        0.132039 0.084950 0.000000,
        0.151422 0.082773 0.000000,
        0.166156 0.077456 0.000000,
        0.179781 0.068341 0.000000,
        0.191669 0.055218 0.000000,
        0.205970 0.003629 0.000000,
        0.203977 -0.017681 -0.000000,
        0.198629 -0.034613 -0.000000,
        0.154826 -0.071431 -0.000000,
        0.136465 -0.073491 -0.000000,
        0.169169 -0.066150 -0.000000,
        0.181250 -0.058008 -0.000000,
        0.190487 -0.048263 -0.000000,
        0.110335 -0.070590 -0.000000,
        0.199784 0.040019 0.000000,
        0.205031 0.018945 0.000000,
        0.132264 0.106556 0.000000,
        0.199276 -0.075902 -0.000000,
        0.214062 -0.060335 -0.000000,
        0.224549 -0.041618 -0.000000,
        0.221988 0.052307 0.000000,
        0.210450 0.070711 0.000000,
        0.192678 0.087804 0.000000,
        0.151680 -0.093896 -0.000000,
        0.164362 -0.092581 -0.000000,
        0.183442 -0.086013 -0.000000,
        0.173980 0.098566 0.000000,
        0.152035 0.104941 0.000000,
        0.146967 0.105356 0.000000,
        0.230473 -0.020781 -0.000000,
        0.232377 0.002017 0.000000,
        0.229545 0.030003 0.000000,
        0.134721 -0.095004 -0.000000,
        0.140103 -0.095096 -0.000000,
        -0.298159 -0.092695 -0.000000,
        -0.269352 -0.092695 -0.000000,
        -0.418190 -0.092695 -0.000000,
        -0.398272 -0.037481 -0.000000,
        -0.316951 -0.037481 -0.000000,
        -0.343770 0.104155 0.000000,
        -0.370178 0.104155 0.000000,
        -0.446997 -0.092695 -0.000000,
        -0.152059 0.104155 0.000000,
        -0.180498 0.101115 0.000000,
        -0.203530 0.093028 0.000000,
        -0.224956 0.078669 0.000000,
        -0.245118 -0.038743 -0.000000,
        -0.233830 -0.056350 -0.000000,
        -0.217627 -0.071864 -0.000000,
        -0.197073 -0.083808 -0.000000,
        -0.225162 0.078488 0.000000,
        -0.239082 0.063052 0.000000,
        -0.248230 0.046123 0.000000,
        -0.174390 -0.090569 -0.000000,
        -0.150033 -0.092695 -0.000000,
        -0.096507 -0.092695 -0.000000,
        -0.096507 0.104155 0.000000,
        -0.253517 0.026728 0.000000,
        -0.254948 0.008206 0.000000,
        -0.252185 -0.018139 -0.000000,
        0.021123 0.082550 0.000000,
        0.021123 0.017733 0.000000,
        -0.053296 0.082550 0.000000,
        -0.048495 0.017733 0.000000,
        -0.053296 0.104155 0.000000,
        -0.048495 -0.003873 -0.000000,
        0.021123 -0.003873 -0.000000,
        0.021123 -0.071090 -0.000000,
        -0.058098 -0.071090 -0.000000,
        -0.058098 -0.092695 -0.000000,
        0.047530 -0.092695 -0.000000,
        0.047530 0.104155 0.000000,
        0.249181 -0.092695 -0.000000,
        0.350007 -0.092695 -0.000000,
        0.249181 -0.071090 -0.000000,
        0.323600 -0.071090 -0.000000,
        0.350007 0.104155 0.000000,
        0.323600 0.104155 0.000000,
        -0.323591 -0.015876 0.003937,
        -0.352961 0.066345 0.003937,
        -0.343770 0.104155 0.003937,
        -0.269352 -0.092695 0.003937,
        -0.298159 -0.092695 0.003937,
        -0.316951 -0.037481 0.003937,
        -0.354855 0.073172 0.003937,
        -0.356111 0.080149 0.003937,
        -0.370178 0.104155 0.003937,
        -0.356749 0.080149 0.003937,
        -0.358033 0.073193 0.003937,
        -0.359787 0.066345 0.003937,
        -0.389420 -0.015876 0.003937,
        -0.446997 -0.092695 0.003937,
        -0.418190 -0.092695 0.003937,
        -0.398272 -0.037481 0.003937,
        -0.359787 0.066345 0.000000,
        -0.358033 0.073193 0.000000,
        -0.356749 0.080149 0.000000,
        -0.356111 0.080149 0.000000,
        -0.354855 0.073172 0.000000,
        -0.352961 0.066345 0.000000,
        -0.323591 -0.015876 -0.000000,
        -0.389420 -0.015876 -0.000000,
        -0.152059 0.104155 0.003937,
        -0.096507 0.104155 0.003937,
        -0.180498 0.101115 0.003937,
        -0.203530 0.093028 0.003937,
        -0.224956 0.078669 0.003937,
        -0.225162 0.078488 0.003937,
        -0.239082 0.063052 0.003937,
        -0.248230 0.046123 0.003937,
        -0.253517 0.026728 0.003937,
        -0.254948 0.008206 0.003937,
        -0.252185 -0.018139 0.003937,
        -0.245118 -0.038743 0.003937,
        -0.233830 -0.056350 0.003937,
        -0.217627 -0.071864 0.003937,
        -0.197073 -0.083808 0.003937,
        -0.174390 -0.090569 0.003937,
        -0.150033 -0.092695 0.003937,
        -0.096507 -0.092695 0.003937,
        -0.215435 0.054945 0.003937,
        -0.205873 0.065098 0.003937,
        -0.191494 0.074387 0.003937,
        -0.175246 0.080073 0.003937,
        -0.151946 0.082550 0.003937,
        -0.122914 0.082550 0.003937,
        -0.122914 -0.071090 0.003937,
        -0.150859 -0.071090 0.003937,
        -0.171627 -0.069157 0.003937,
        -0.188192 -0.063986 0.003937,
        -0.201617 -0.056014 0.003937,
        -0.212657 -0.045109 0.003937,
        -0.220960 -0.031537 0.003937,
        -0.226734 -0.013033 0.003937,
        -0.228541 0.007643 0.003937,
        -0.226869 0.027234 0.003937,
        -0.222274 0.042804 0.003937,
        -0.150859 -0.071090 -0.000000,
        -0.122914 -0.071090 -0.000000,
        -0.171627 -0.069157 -0.000000,
        -0.188192 -0.063986 -0.000000,
        -0.201617 -0.056014 -0.000000,
        -0.212657 -0.045109 -0.000000,
        -0.220960 -0.031537 -0.000000,
        -0.226734 -0.013033 -0.000000,
        -0.228541 0.007643 0.000000,
        -0.226869 0.027234 0.000000,
        -0.222274 0.042804 0.000000,
        -0.215435 0.054945 0.000000,
        -0.205873 0.065098 0.000000,
        -0.191494 0.074387 0.000000,
        -0.175246 0.080073 0.000000,
        -0.151946 0.082550 0.000000,
        -0.122914 0.082550 0.000000,
        0.047530 0.104155 0.003937,
        0.047530 -0.092695 0.003937,
        -0.053296 0.104155 0.003937,
        -0.053296 0.082550 0.003937,
        0.021123 0.082550 0.003937,
        0.021123 0.017733 0.003937,
        -0.048495 0.017733 0.003937,
        -0.048495 -0.003873 0.003937,
        0.021123 -0.003873 0.003937,
        0.021123 -0.071090 0.003937,
        -0.058098 -0.071090 0.003937,
        -0.058098 -0.092695 0.003937,
        0.140103 -0.095096 0.003937,
        0.164362 -0.092581 0.003937,
        0.183442 -0.086013 0.003937,
        0.199276 -0.075902 0.003937,
        0.214062 -0.060335 0.003937,
        0.224549 -0.041618 0.003937,
        0.230473 -0.020781 0.003937,
        0.232377 0.002017 0.003937,
        0.229545 0.030003 0.003937,
        0.221988 0.052307 0.003937,
        0.210450 0.070711 0.003937,
        0.192678 0.087804 0.003937,
        0.173980 0.098566 0.003937,
        0.152035 0.104941 0.003937,
        0.132264 0.106556 0.003937,
        0.108698 0.104930 0.003937,
        0.085939 0.098754 0.003937,
        0.085939 0.072347 0.003937,
        0.108113 0.081842 0.003937,
        0.132039 0.084950 0.003937,
        0.151422 0.082773 0.003937,
        0.166156 0.077456 0.003937,
        0.179781 0.068341 0.003937,
        0.191669 0.055218 0.003937,
        0.199784 0.040019 0.003937,
        0.205031 0.018945 0.003937,
        0.205970 0.003629 0.003937,
        0.203977 -0.017681 0.003937,
        0.198629 -0.034613 0.003937,
        0.190487 -0.048263 0.003937,
        0.181250 -0.058008 0.003937,
        0.169169 -0.066150 0.003937,
        0.154826 -0.071431 0.003937,
        0.136465 -0.073491 0.003937,
        0.110335 -0.070590 0.003937,
        0.089467 -0.062841 0.003937,
        0.085939 -0.060887 0.003937,
        0.085939 -0.082493 0.003937,
        0.106922 -0.091108 0.003937,
        0.134721 -0.095004 0.003937,
        0.350007 0.104155 0.003937,
        0.350007 -0.092695 0.003937,
        0.323600 0.104155 0.003937,
        0.323600 -0.071090 0.003937,
        0.249181 -0.071090 0.003937,
        0.249181 -0.092695 0.003937,
      ]
    }
    coordIndex [
      88, 89, 90, -1,
      91, 92, 93, -1,
      89, 94, 90, -1,
      90, 94, 95, -1,
      90, 95, 96, -1,
      96, 95, 97, -1,
      96, 97, 98, -1,
      98, 99, 96, -1,
      96, 99, 100, -1,
      96, 100, 101, -1,
      102, 101, 103, -1,
      103, 101, 100, -1,
      103, 100, 93, -1,
      93, 100, 88, -1,
      93, 88, 91, -1,
      91, 88, 90, -1,
      103, 47, 102, -1,
      102, 47, 46, -1,
      93, 48, 103, -1,
      103, 48, 47, -1,
      92, 44, 93, -1,
      93, 44, 48, -1,
      91, 45, 92, -1,
      92, 45, 44, -1,
      90, 49, 91, -1,
      91, 49, 45, -1,
      96, 50, 90, -1,
      90, 50, 49, -1,
      101, 51, 96, -1,
      96, 51, 50, -1,
      101, 102, 51, -1,
      51, 102, 46, -1,
      104, 99, 98, -1,
      104, 98, 105, -1,
      105, 98, 97, -1,
      105, 97, 106, -1,
      95, 107, 97, -1,
      97, 107, 106, -1,
      107, 95, 94, -1,
      107, 94, 108, -1,
      108, 94, 89, -1,
      108, 89, 109, -1,
      88, 110, 89, -1,
      89, 110, 109, -1,
      100, 111, 88, -1,
      88, 111, 110, -1,
      104, 111, 99, -1,
      99, 111, 100, -1,
      112, 52, 113, -1,
      113, 52, 66, -1,
      52, 112, 114, -1,
      52, 114, 53, -1,
      53, 114, 115, -1,
      53, 115, 54, -1,
      54, 115, 116, -1,
      54, 116, 55, -1,
      55, 116, 117, -1,
      55, 117, 60, -1,
      60, 117, 118, -1,
      60, 118, 61, -1,
      61, 118, 119, -1,
      61, 119, 62, -1,
      62, 119, 120, -1,
      62, 120, 67, -1,
      67, 120, 121, -1,
      67, 121, 68, -1,
      68, 121, 122, -1,
      68, 122, 69, -1,
      69, 122, 123, -1,
      69, 123, 56, -1,
      56, 123, 124, -1,
      56, 124, 57, -1,
      57, 124, 125, -1,
      57, 125, 58, -1,
      58, 125, 126, -1,
      58, 126, 59, -1,
      59, 126, 127, -1,
      59, 127, 63, -1,
      63, 127, 128, -1,
      63, 128, 64, -1,
      129, 65, 128, -1,
      128, 65, 64, -1,
      129, 113, 65, -1,
      65, 113, 66, -1,
      119, 118, 130, -1,
      130, 118, 117, -1,
      130, 117, 131, -1,
      131, 117, 116, -1,
      131, 116, 132, -1,
      132, 116, 115, -1,
      132, 115, 133, -1,
      133, 115, 114, -1,
      133, 114, 134, -1,
      134, 114, 112, -1,
      134, 112, 135, -1,
      135, 112, 113, -1,
      135, 113, 136, -1,
      136, 113, 129, -1,
      136, 129, 137, -1,
      137, 129, 128, -1,
      137, 128, 138, -1,
      138, 128, 127, -1,
      138, 127, 139, -1,
      139, 127, 126, -1,
      139, 126, 140, -1,
      140, 126, 125, -1,
      140, 125, 141, -1,
      141, 125, 124, -1,
      141, 124, 142, -1,
      142, 124, 123, -1,
      142, 123, 143, -1,
      143, 123, 122, -1,
      143, 122, 144, -1,
      144, 122, 121, -1,
      144, 121, 145, -1,
      145, 121, 120, -1,
      145, 120, 146, -1,
      146, 120, 119, -1,
      146, 119, 130, -1,
      137, 147, 136, -1,
      136, 147, 148, -1,
      147, 137, 138, -1,
      147, 138, 149, -1,
      149, 138, 139, -1,
      149, 139, 150, -1,
      150, 139, 140, -1,
      150, 140, 151, -1,
      151, 140, 141, -1,
      151, 141, 152, -1,
      152, 141, 142, -1,
      152, 142, 153, -1,
      153, 142, 143, -1,
      153, 143, 154, -1,
      154, 143, 144, -1,
      154, 144, 155, -1,
      155, 144, 145, -1,
      155, 145, 156, -1,
      156, 145, 146, -1,
      156, 146, 157, -1,
      157, 146, 130, -1,
      157, 130, 158, -1,
      158, 130, 131, -1,
      158, 131, 159, -1,
      159, 131, 132, -1,
      159, 132, 160, -1,
      160, 132, 133, -1,
      160, 133, 161, -1,
      161, 133, 134, -1,
      161, 134, 162, -1,
      135, 163, 134, -1,
      134, 163, 162, -1,
      148, 163, 136, -1,
      136, 163, 135, -1,
      164, 81, 165, -1,
      165, 81, 80, -1,
      166, 74, 164, -1,
      164, 74, 81, -1,
      167, 72, 166, -1,
      166, 72, 74, -1,
      168, 70, 167, -1,
      167, 70, 72, -1,
      169, 71, 168, -1,
      168, 71, 70, -1,
      170, 73, 169, -1,
      169, 73, 71, -1,
      171, 75, 170, -1,
      170, 75, 73, -1,
      172, 76, 171, -1,
      171, 76, 75, -1,
      173, 77, 172, -1,
      172, 77, 76, -1,
      174, 78, 173, -1,
      173, 78, 77, -1,
      175, 79, 174, -1,
      174, 79, 78, -1,
      175, 165, 79, -1,
      79, 165, 80, -1,
      165, 175, 174, -1,
      174, 173, 165, -1,
      165, 173, 172, -1,
      165, 172, 164, -1,
      167, 166, 168, -1,
      168, 166, 164, -1,
      168, 164, 169, -1,
      169, 164, 172, -1,
      169, 172, 170, -1,
      170, 172, 171, -1,
      33, 43, 176, -1,
      33, 176, 34, -1,
      176, 177, 34, -1,
      34, 177, 178, -1,
      34, 178, 35, -1,
      35, 178, 179, -1,
      35, 179, 27, -1,
      27, 179, 180, -1,
      27, 180, 28, -1,
      28, 180, 181, -1,
      28, 181, 29, -1,
      29, 181, 182, -1,
      29, 182, 39, -1,
      39, 182, 183, -1,
      39, 183, 40, -1,
      40, 183, 184, -1,
      40, 184, 41, -1,
      41, 184, 185, -1,
      41, 185, 30, -1,
      30, 185, 186, -1,
      30, 186, 31, -1,
      31, 186, 187, -1,
      31, 187, 32, -1,
      32, 187, 188, -1,
      32, 188, 36, -1,
      36, 188, 189, -1,
      36, 189, 37, -1,
      190, 26, 189, -1,
      189, 26, 38, -1,
      189, 38, 37, -1,
      26, 190, 4, -1,
      4, 190, 191, -1,
      4, 191, 5, -1,
      5, 191, 192, -1,
      5, 192, 6, -1,
      193, 7, 192, -1,
      192, 7, 6, -1,
      7, 193, 194, -1,
      7, 194, 8, -1,
      8, 194, 195, -1,
      8, 195, 10, -1,
      10, 195, 196, -1,
      10, 196, 11, -1,
      11, 196, 197, -1,
      11, 197, 12, -1,
      12, 197, 198, -1,
      12, 198, 13, -1,
      13, 198, 199, -1,
      13, 199, 14, -1,
      14, 199, 200, -1,
      14, 200, 24, -1,
      24, 200, 201, -1,
      24, 201, 25, -1,
      25, 201, 202, -1,
      25, 202, 15, -1,
      15, 202, 203, -1,
      15, 203, 16, -1,
      16, 203, 204, -1,
      16, 204, 17, -1,
      17, 204, 205, -1,
      17, 205, 22, -1,
      22, 205, 206, -1,
      22, 206, 21, -1,
      21, 206, 207, -1,
      21, 207, 20, -1,
      20, 207, 208, -1,
      20, 208, 18, -1,
      18, 208, 209, -1,
      18, 209, 19, -1,
      19, 209, 210, -1,
      19, 210, 23, -1,
      23, 210, 211, -1,
      23, 211, 9, -1,
      9, 211, 212, -1,
      9, 212, 0, -1,
      213, 1, 212, -1,
      212, 1, 0, -1,
      2, 1, 214, -1,
      214, 1, 213, -1,
      2, 214, 3, -1,
      3, 214, 215, -1,
      3, 215, 42, -1,
      42, 215, 176, -1,
      42, 176, 43, -1,
      208, 176, 209, -1,
      209, 176, 215, -1,
      209, 215, 210, -1,
      210, 215, 214, -1,
      210, 214, 211, -1,
      211, 214, 213, -1,
      211, 213, 212, -1,
      193, 192, 194, -1,
      194, 192, 191, -1,
      194, 191, 195, -1,
      195, 191, 190, -1,
      195, 190, 196, -1,
      196, 190, 189, -1,
      196, 189, 197, -1,
      197, 189, 188, -1,
      197, 188, 198, -1,
      198, 188, 187, -1,
      198, 187, 199, -1,
      199, 187, 186, -1,
      199, 186, 200, -1,
      200, 186, 185, -1,
      200, 185, 201, -1,
      201, 185, 184, -1,
      201, 184, 202, -1,
      202, 184, 183, -1,
      202, 183, 203, -1,
      203, 183, 182, -1,
      203, 182, 204, -1,
      204, 182, 181, -1,
      204, 181, 205, -1,
      205, 181, 180, -1,
      205, 180, 206, -1,
      206, 180, 179, -1,
      206, 179, 207, -1,
      207, 179, 178, -1,
      207, 178, 208, -1,
      208, 178, 177, -1,
      208, 177, 176, -1,
      216, 86, 217, -1,
      217, 86, 83, -1,
      218, 87, 216, -1,
      216, 87, 86, -1,
      219, 85, 218, -1,
      218, 85, 87, -1,
      220, 84, 219, -1,
      219, 84, 85, -1,
      221, 82, 220, -1,
      220, 82, 84, -1,
      221, 217, 82, -1,
      82, 217, 83, -1,
      218, 216, 219, -1,
      219, 216, 217, -1,
      219, 217, 220, -1,
      220, 217, 221, -1,
    ]
  }
}

Shape {
  appearance Appearance {
    material Material {
      diffuseColor 0.2000 0.2000 0.2000
      specularColor 0.2196 0.2196 0.2196
      ambientIntensity 0.2
      transparency 0.0000
      shininess 0.5
    }
  }
  geometry IndexedFaceSet {
    ccw TRUE
    solid FALSE
    coord DEF co Coordinate {
      point [
        -0.359787 0.066345 0.000000,
        -0.358033 0.073193 0.000000,
        -0.356749 0.080149 0.000000,
        -0.356111 0.080149 0.000000,
        -0.354855 0.073172 0.000000,
        -0.352961 0.066345 0.000000,
        -0.323591 -0.015876 -0.000000,
        -0.389420 -0.015876 -0.000000,
        -0.150859 -0.071090 -0.000000,
        -0.122914 -0.071090 -0.000000,
        -0.171627 -0.069157 -0.000000,
        -0.188192 -0.063986 -0.000000,
        -0.201617 -0.056014 -0.000000,
        -0.212657 -0.045109 -0.000000,
        -0.220960 -0.031537 -0.000000,
        -0.226734 -0.013033 -0.000000,
        -0.228541 0.007643 0.000000,
        -0.226869 0.027234 0.000000,
        -0.222274 0.042804 0.000000,
        -0.215435 0.054945 0.000000,
        -0.205873 0.065098 0.000000,
        -0.191494 0.074387 0.000000,
        -0.175246 0.080073 0.000000,
        -0.151946 0.082550 0.000000,
        -0.122914 0.082550 0.000000,
      ]
    }
    coordIndex [
      6, 7, 5, -1,
      5, 7, 0, -1,
      5, 0, 4, -1,
      4, 0, 1, -1,
      4, 1, 3, -1,
      3, 1, 2, -1,
      24, 9, 23, -1,
      23, 9, 8, -1,
      23, 8, 10, -1,
      16, 17, 23, -1,
      23, 17, 18, -1,
      23, 18, 22, -1,
      10, 11, 23, -1,
      23, 11, 12, -1,
      23, 12, 13, -1,
      13, 14, 23, -1,
      23, 14, 15, -1,
      23, 15, 16, -1,
      19, 20, 18, -1,
      18, 20, 21, -1,
      18, 21, 22, -1,
    ]
  }
}

Shape {
  appearance Appearance {
    material Material {
      diffuseColor 1.0000 1.0000 0.0000
      specularColor 1.0000 1.0000 0.0000
      ambientIntensity 0.2
      transparency 0.0000
      shininess 0.5
    }
  }
  geometry IndexedFaceSet {
    ccw TRUE
    solid FALSE
    coord DEF co Coordinate {
      point [
        -1.080000 0.330000 0.990000,
        -1.080000 0.330000 2.100000,
        -0.920000 0.330000 0.990000,
        -0.920000 0.330000 2.100000,
        -0.971961 0.278039 2.190000,
        -1.028039 0.278039 2.190000,
        -0.920000 0.170000 2.100000,
        -0.971961 0.221961 2.190000,
        -1.028039 0.221961 2.190000,
        -1.080000 0.170000 2.100000,
        -1.080000 0.170000 0.890000,
        -0.920000 0.170000 0.890000,
        0.580000 -0.262653 0.890000,
        0.920000 -0.262653 0.890000,
        0.580000 -0.170000 0.890000,
        0.920000 -0.170000 0.890000,
        0.920000 0.262653 0.890000,
        0.580000 0.262653 0.890000,
        0.920000 0.170000 0.890000,
        0.580000 0.170000 0.890000,
        0.080000 -0.262653 0.890000,
        0.420000 -0.262653 0.890000,
        0.080000 -0.170000 0.890000,
        0.420000 -0.170000 0.890000,
        0.420000 0.262653 0.890000,
        0.080000 0.262653 0.890000,
        0.420000 0.170000 0.890000,
        0.080000 0.170000 0.890000,
        -0.420000 -0.262653 0.890000,
        -0.080000 -0.262653 0.890000,
        -0.420000 -0.170000 0.890000,
        -0.080000 -0.170000 0.890000,
        -0.080000 0.262653 0.890000,
        -0.420000 0.262653 0.890000,
        -0.080000 0.170000 0.890000,
        -0.420000 0.170000 0.890000,
        -0.920000 -0.262653 0.890000,
        -0.580000 -0.262653 0.890000,
        -0.920000 -0.170000 0.890000,
        -0.580000 -0.170000 0.890000,
        -0.580000 0.262653 0.890000,
        -0.920000 0.262653 0.890000,
        -0.580000 0.170000 0.890000,
        -1.080000 -0.170000 0.890000,
        1.080000 0.170000 0.890000,
        1.080000 -0.170000 0.890000,
        1.080000 -0.170000 2.100000,
        1.080000 -0.330000 2.100000,
        1.080000 0.330000 2.100000,
        1.080000 0.170000 2.100000,
        1.080000 0.330000 0.990000,
        1.080000 -0.000000 0.500000,
        1.080000 -0.330000 0.990000,
        0.920000 0.170000 2.100000,
        1.028039 0.221961 2.190000,
        0.971961 0.221961 2.190000,
        1.028039 0.278039 2.190000,
        0.971961 0.278039 2.190000,
        0.920000 0.330000 2.100000,
        0.920000 0.330000 0.990000,
        -1.080000 -0.000000 0.500000,
        -0.080000 0.330000 0.990000,
        0.080000 0.330000 0.990000,
        -0.420000 0.330000 0.990000,
        -0.580000 0.330000 0.990000,
        0.580000 0.330000 0.990000,
        0.420000 0.330000 0.990000,
        -1.080000 -0.330000 2.100000,
        -1.080000 -0.170000 2.100000,
        -1.080000 -0.330000 0.990000,
        -0.920000 -0.170000 2.100000,
        -0.971961 -0.221961 2.190000,
        -1.028039 -0.221961 2.190000,
        -0.920000 -0.330000 2.100000,
        -0.971961 -0.278039 2.190000,
        -1.028039 -0.278039 2.190000,
        -0.920000 -0.330000 0.990000,
        0.920000 -0.330000 0.990000,
        0.080000 -0.330000 0.990000,
        -0.080000 -0.330000 0.990000,
        0.420000 -0.330000 0.990000,
        0.580000 -0.330000 0.990000,
        -0.580000 -0.330000 0.990000,
        -0.420000 -0.330000 0.990000,
        -0.580000 -0.330000 2.100000,
        -0.580000 -0.170000 2.100000,
        -0.420000 -0.170000 2.100000,
        -0.420000 -0.330000 2.100000,
        -0.471961 -0.278039 2.190000,
        -0.528039 -0.278039 2.190000,
        -0.471961 -0.221961 2.190000,
        -0.528039 -0.221961 2.190000,
        -0.080000 -0.330000 2.100000,
        -0.080000 -0.170000 2.100000,
        0.080000 -0.170000 2.100000,
        0.080000 -0.330000 2.100000,
        0.028039 -0.278039 2.190000,
        -0.028039 -0.278039 2.190000,
        0.028039 -0.221961 2.190000,
        -0.028039 -0.221961 2.190000,
        0.420000 -0.330000 2.100000,
        0.420000 -0.170000 2.100000,
        0.580000 -0.170000 2.100000,
        0.580000 -0.330000 2.100000,
        0.528039 -0.278039 2.190000,
        0.471961 -0.278039 2.190000,
        0.528039 -0.221961 2.190000,
        0.471961 -0.221961 2.190000,
        0.920000 -0.330000 2.100000,
        0.920000 -0.170000 2.100000,
        1.028039 -0.221961 2.190000,
        0.971961 -0.221961 2.190000,
        1.028039 -0.278039 2.190000,
        0.971961 -0.278039 2.190000,
        0.580000 0.330000 2.100000,
        0.580000 0.170000 2.100000,
        0.420000 0.170000 2.100000,
        0.528039 0.221961 2.190000,
        0.471961 0.221961 2.190000,
        0.528039 0.278039 2.190000,
        0.471961 0.278039 2.190000,
        0.420000 0.330000 2.100000,
        0.080000 0.330000 2.100000,
        0.080000 0.170000 2.100000,
        -0.080000 0.170000 2.100000,
        0.028039 0.221961 2.190000,
        -0.028039 0.221961 2.190000,
        0.028039 0.278039 2.190000,
        -0.028039 0.278039 2.190000,
        -0.080000 0.330000 2.100000,
        -0.420000 0.330000 2.100000,
        -0.420000 0.170000 2.100000,
        -0.580000 0.170000 2.100000,
        -0.471961 0.221961 2.190000,
        -0.528039 0.221961 2.190000,
        -0.471961 0.278039 2.190000,
        -0.528039 0.278039 2.190000,
        -0.580000 0.330000 2.100000,
      ]
    }
    coordIndex [
      0, 1, 2, -1,
      2, 1, 3, -1,
      4, 3, 5, -1,
      5, 3, 1, -1,
      3, 4, 6, -1,
      6, 4, 7, -1,
      7, 4, 8, -1,
      8, 4, 5, -1,
      6, 7, 9, -1,
      9, 7, 8, -1,
      9, 10, 6, -1,
      6, 10, 11, -1,
      12, 13, 14, -1,
      14, 13, 15, -1,
      16, 17, 18, -1,
      18, 17, 19, -1,
      20, 21, 22, -1,
      22, 21, 23, -1,
      24, 25, 26, -1,
      26, 25, 27, -1,
      28, 29, 30, -1,
      30, 29, 31, -1,
      32, 33, 34, -1,
      34, 33, 35, -1,
      36, 37, 38, -1,
      38, 37, 39, -1,
      40, 41, 42, -1,
      42, 41, 11, -1,
      10, 43, 11, -1,
      11, 43, 38, -1,
      11, 38, 42, -1,
      42, 38, 39, -1,
      42, 39, 35, -1,
      35, 39, 30, -1,
      35, 30, 34, -1,
      34, 30, 31, -1,
      34, 31, 27, -1,
      27, 31, 22, -1,
      27, 22, 26, -1,
      26, 22, 23, -1,
      26, 23, 19, -1,
      19, 23, 14, -1,
      19, 14, 18, -1,
      18, 14, 15, -1,
      18, 15, 44, -1,
      44, 15, 45, -1,
      45, 46, 47, -1,
      48, 49, 50, -1,
      50, 49, 44, -1,
      50, 44, 51, -1,
      51, 44, 45, -1,
      51, 45, 52, -1,
      52, 45, 47, -1,
      44, 49, 18, -1,
      18, 49, 53, -1,
      49, 54, 53, -1,
      53, 54, 55, -1,
      54, 56, 55, -1,
      55, 56, 57, -1,
      56, 48, 57, -1,
      57, 48, 58, -1,
      48, 50, 58, -1,
      58, 50, 59, -1,
      60, 0, 2, -1,
      2, 41, 60, -1,
      60, 41, 40, -1,
      60, 40, 51, -1,
      25, 24, 51, -1,
      32, 61, 62, -1,
      62, 25, 32, -1,
      32, 25, 51, -1,
      32, 51, 33, -1,
      33, 51, 40, -1,
      33, 40, 63, -1,
      63, 40, 64, -1,
      59, 50, 16, -1,
      16, 50, 51, -1,
      16, 51, 17, -1,
      17, 51, 24, -1,
      17, 24, 65, -1,
      65, 24, 66, -1,
      10, 9, 1, -1,
      67, 68, 69, -1,
      69, 68, 43, -1,
      69, 43, 60, -1,
      60, 43, 10, -1,
      60, 10, 0, -1,
      0, 10, 1, -1,
      5, 1, 8, -1,
      8, 1, 9, -1,
      43, 68, 38, -1,
      38, 68, 70, -1,
      71, 70, 72, -1,
      72, 70, 68, -1,
      70, 71, 73, -1,
      73, 71, 74, -1,
      74, 71, 75, -1,
      75, 71, 72, -1,
      73, 74, 67, -1,
      67, 74, 75, -1,
      67, 69, 73, -1,
      73, 69, 76, -1,
      51, 52, 77, -1,
      77, 13, 51, -1,
      51, 13, 12, -1,
      51, 12, 60, -1,
      20, 78, 79, -1,
      29, 28, 60, -1,
      79, 29, 20, -1,
      20, 29, 60, -1,
      20, 60, 21, -1,
      21, 60, 12, -1,
      21, 12, 80, -1,
      80, 12, 81, -1,
      76, 69, 36, -1,
      36, 69, 60, -1,
      36, 60, 37, -1,
      37, 60, 28, -1,
      37, 28, 82, -1,
      82, 28, 83, -1,
      84, 85, 82, -1,
      82, 85, 39, -1,
      82, 39, 37, -1,
      86, 30, 85, -1,
      85, 30, 39, -1,
      86, 87, 30, -1,
      30, 87, 83, -1,
      30, 83, 28, -1,
      83, 87, 82, -1,
      82, 87, 84, -1,
      87, 88, 84, -1,
      84, 88, 89, -1,
      88, 90, 89, -1,
      89, 90, 91, -1,
      90, 86, 91, -1,
      91, 86, 85, -1,
      86, 90, 87, -1,
      87, 90, 88, -1,
      91, 85, 89, -1,
      89, 85, 84, -1,
      92, 93, 79, -1,
      79, 93, 31, -1,
      79, 31, 29, -1,
      94, 22, 93, -1,
      93, 22, 31, -1,
      94, 95, 22, -1,
      22, 95, 78, -1,
      22, 78, 20, -1,
      78, 95, 79, -1,
      79, 95, 92, -1,
      95, 96, 92, -1,
      92, 96, 97, -1,
      96, 98, 97, -1,
      97, 98, 99, -1,
      98, 94, 99, -1,
      99, 94, 93, -1,
      94, 98, 95, -1,
      95, 98, 96, -1,
      99, 93, 97, -1,
      97, 93, 92, -1,
      100, 101, 80, -1,
      80, 101, 23, -1,
      80, 23, 21, -1,
      102, 14, 101, -1,
      101, 14, 23, -1,
      102, 103, 14, -1,
      14, 103, 81, -1,
      14, 81, 12, -1,
      81, 103, 80, -1,
      80, 103, 100, -1,
      103, 104, 100, -1,
      100, 104, 105, -1,
      104, 106, 105, -1,
      105, 106, 107, -1,
      106, 102, 107, -1,
      107, 102, 101, -1,
      102, 106, 103, -1,
      103, 106, 104, -1,
      107, 101, 105, -1,
      105, 101, 100, -1,
      108, 109, 77, -1,
      77, 109, 15, -1,
      77, 15, 13, -1,
      46, 45, 109, -1,
      109, 45, 15, -1,
      110, 46, 111, -1,
      111, 46, 109, -1,
      46, 110, 47, -1,
      47, 110, 112, -1,
      112, 110, 113, -1,
      113, 110, 111, -1,
      47, 112, 108, -1,
      108, 112, 113, -1,
      52, 47, 77, -1,
      77, 47, 108, -1,
      111, 109, 113, -1,
      113, 109, 108, -1,
      70, 73, 38, -1,
      38, 73, 76, -1,
      38, 76, 36, -1,
      72, 68, 75, -1,
      75, 68, 67, -1,
      53, 58, 18, -1,
      18, 58, 59, -1,
      18, 59, 16, -1,
      57, 58, 55, -1,
      55, 58, 53, -1,
      114, 115, 65, -1,
      65, 115, 19, -1,
      65, 19, 17, -1,
      19, 115, 26, -1,
      26, 115, 116, -1,
      115, 117, 116, -1,
      116, 117, 118, -1,
      117, 119, 118, -1,
      118, 119, 120, -1,
      119, 114, 120, -1,
      120, 114, 121, -1,
      114, 65, 121, -1,
      121, 65, 66, -1,
      116, 121, 26, -1,
      26, 121, 66, -1,
      26, 66, 24, -1,
      120, 121, 118, -1,
      118, 121, 116, -1,
      114, 119, 115, -1,
      115, 119, 117, -1,
      122, 123, 62, -1,
      62, 123, 27, -1,
      62, 27, 25, -1,
      27, 123, 34, -1,
      34, 123, 124, -1,
      123, 125, 124, -1,
      124, 125, 126, -1,
      125, 127, 126, -1,
      126, 127, 128, -1,
      127, 122, 128, -1,
      128, 122, 129, -1,
      122, 62, 129, -1,
      129, 62, 61, -1,
      124, 129, 34, -1,
      34, 129, 61, -1,
      34, 61, 32, -1,
      128, 129, 126, -1,
      126, 129, 124, -1,
      122, 127, 123, -1,
      123, 127, 125, -1,
      130, 131, 63, -1,
      63, 131, 35, -1,
      63, 35, 33, -1,
      35, 131, 42, -1,
      42, 131, 132, -1,
      131, 133, 132, -1,
      132, 133, 134, -1,
      133, 135, 134, -1,
      134, 135, 136, -1,
      135, 130, 136, -1,
      136, 130, 137, -1,
      130, 63, 137, -1,
      137, 63, 64, -1,
      132, 137, 42, -1,
      42, 137, 64, -1,
      42, 64, 40, -1,
      136, 137, 134, -1,
      134, 137, 132, -1,
      130, 135, 131, -1,
      131, 135, 133, -1,
      3, 6, 2, -1,
      2, 6, 11, -1,
      2, 11, 41, -1,
      48, 56, 49, -1,
      49, 56, 54, -1,
    ]
  }
}

Shape {
  appearance Appearance {
    material Material {
      diffuseColor 1.0000 1.0000 1.0000
      specularColor 1.0000 1.0000 1.0000
      ambientIntensity 0.2
      transparency 0.0000
      shininess 0.5
    }
  }
  geometry IndexedFaceSet {
    ccw TRUE
    solid FALSE
    coord DEF co Coordinate {
      point [
        1.080000 0.660000 0.000000,
        1.080000 1.150000 0.000000,
        0.920000 0.660000 0.000000,
        0.920000 1.150000 0.000000,
        1.080000 1.150000 -0.160000,
        0.920000 1.150000 -0.160000,
        1.080000 0.403238 -0.160000,
        0.920000 0.403238 -0.160000,
        1.080000 0.170000 0.000000,
        0.920000 0.170000 0.000000,
        0.920000 0.198151 -0.052965,
        1.080000 0.198151 -0.052965,
        0.920000 0.238107 -0.097701,
        1.080000 0.238107 -0.097701,
        0.920000 0.287569 -0.131632,
        1.080000 0.287569 -0.131632,
        0.920000 0.343690 -0.152804,
        1.080000 0.343690 -0.152804,
        1.080000 0.170000 0.100000,
        0.920000 0.170000 0.100000,
        -0.580000 -0.555931 0.100000,
        -0.920000 -0.555931 0.100000,
        -0.580000 -0.170000 0.100000,
        -0.920000 -0.170000 0.100000,
        -0.920000 0.555931 0.100000,
        -0.580000 0.555931 0.100000,
        -0.920000 0.170000 0.100000,
        -0.580000 0.170000 0.100000,
        -0.080000 -0.555931 0.100000,
        -0.420000 -0.555931 0.100000,
        -0.080000 -0.170000 0.100000,
        -0.420000 -0.170000 0.100000,
        -0.420000 0.555931 0.100000,
        -0.080000 0.555931 0.100000,
        -0.420000 0.170000 0.100000,
        -0.080000 0.170000 0.100000,
        0.420000 -0.555931 0.100000,
        0.080000 -0.555931 0.100000,
        0.420000 -0.170000 0.100000,
        0.080000 -0.170000 0.100000,
        0.080000 0.555931 0.100000,
        0.420000 0.555931 0.100000,
        0.080000 0.170000 0.100000,
        0.420000 0.170000 0.100000,
        0.920000 -0.555931 0.100000,
        0.580000 -0.555931 0.100000,
        0.920000 -0.170000 0.100000,
        0.580000 -0.170000 0.100000,
        0.580000 0.555931 0.100000,
        0.920000 0.555931 0.100000,
        0.580000 0.170000 0.100000,
        1.080000 -0.170000 0.100000,
        -1.080000 0.170000 0.100000,
        -1.080000 -0.170000 0.100000,
        -1.080000 -1.150000 -0.160000,
        -1.080000 -1.150000 -0.000000,
        -1.080000 -0.403238 -0.160000,
        -1.080000 -0.660000 -0.000000,
        -1.080000 -0.198151 -0.052965,
        -1.080000 -0.238107 -0.097701,
        -1.080000 -0.287569 -0.131632,
        -1.080000 -0.343690 -0.152804,
        -1.080000 1.150000 -0.160000,
        -1.080000 0.403238 -0.160000,
        -1.080000 0.343690 -0.152804,
        -1.080000 0.287569 -0.131632,
        -1.080000 0.238107 -0.097701,
        -1.080000 0.198151 -0.052965,
        -1.080000 0.170000 0.000000,
        -1.080000 1.150000 0.000000,
        -1.080000 0.660000 0.000000,
        -1.080000 -0.000000 0.634194,
        -1.080000 -0.170000 -0.000000,
        -0.920000 0.170000 0.000000,
        -0.920000 0.198151 -0.052965,
        -0.920000 0.238107 -0.097701,
        -0.920000 0.287569 -0.131632,
        -0.920000 0.343690 -0.152804,
        -0.920000 0.403238 -0.160000,
        -0.920000 1.150000 -0.160000,
        -0.920000 1.150000 0.000000,
        -0.920000 0.660000 0.000000,
        1.080000 -0.000000 0.634194,
        0.080000 0.660000 0.000000,
        -0.080000 0.660000 0.000000,
        0.420000 0.660000 0.000000,
        0.580000 0.660000 0.000000,
        -0.580000 0.660000 0.000000,
        -0.420000 0.660000 0.000000,
        1.080000 -0.198151 -0.052965,
        1.080000 -0.170000 -0.000000,
        1.080000 -1.150000 -0.160000,
        1.080000 -0.403238 -0.160000,
        1.080000 -0.343690 -0.152804,
        1.080000 -0.287569 -0.131632,
        1.080000 -0.238107 -0.097701,
        1.080000 -1.150000 -0.000000,
        1.080000 -0.660000 -0.000000,
        0.920000 -0.170000 -0.000000,
        0.920000 -0.403238 -0.160000,
        0.920000 -0.343690 -0.152804,
        0.920000 -0.287569 -0.131632,
        0.920000 -0.238107 -0.097701,
        0.920000 -0.198151 -0.052965,
        0.920000 -1.150000 -0.160000,
        0.920000 -1.150000 -0.000000,
        0.920000 -0.660000 -0.000000,
        -0.080000 -0.660000 -0.000000,
        0.080000 -0.660000 -0.000000,
        -0.920000 -0.660000 -0.000000,
        -0.580000 -0.660000 -0.000000,
        -0.420000 -0.660000 -0.000000,
        0.420000 -0.660000 -0.000000,
        0.580000 -0.660000 -0.000000,
        0.580000 -1.150000 -0.000000,
        0.580000 -1.150000 -0.160000,
        0.580000 -0.403238 -0.160000,
        0.580000 -0.343690 -0.152804,
        0.580000 -0.287569 -0.131632,
        0.580000 -0.170000 -0.000000,
        0.580000 -0.198151 -0.052965,
        0.580000 -0.238107 -0.097701,
        0.420000 -0.403238 -0.160000,
        0.420000 -0.343690 -0.152804,
        0.420000 -0.287569 -0.131632,
        0.420000 -0.238107 -0.097701,
        0.420000 -0.198151 -0.052965,
        0.420000 -0.170000 -0.000000,
        0.420000 -1.150000 -0.160000,
        0.420000 -1.150000 -0.000000,
        0.080000 -1.150000 -0.000000,
        0.080000 -1.150000 -0.160000,
        0.080000 -0.403238 -0.160000,
        0.080000 -0.343690 -0.152804,
        0.080000 -0.287569 -0.131632,
        0.080000 -0.170000 -0.000000,
        0.080000 -0.198151 -0.052965,
        0.080000 -0.238107 -0.097701,
        -0.080000 -0.403238 -0.160000,
        -0.080000 -0.343690 -0.152804,
        -0.080000 -0.287569 -0.131632,
        -0.080000 -0.238107 -0.097701,
        -0.080000 -0.198151 -0.052965,
        -0.080000 -0.170000 -0.000000,
        -0.080000 -1.150000 -0.160000,
        -0.080000 -1.150000 -0.000000,
        -0.420000 -1.150000 -0.000000,
        -0.420000 -1.150000 -0.160000,
        -0.420000 -0.403238 -0.160000,
        -0.420000 -0.343690 -0.152804,
        -0.420000 -0.287569 -0.131632,
        -0.420000 -0.170000 -0.000000,
        -0.420000 -0.198151 -0.052965,
        -0.420000 -0.238107 -0.097701,
        -0.580000 -0.403238 -0.160000,
        -0.580000 -0.343690 -0.152804,
        -0.580000 -0.287569 -0.131632,
        -0.580000 -0.238107 -0.097701,
        -0.580000 -0.198151 -0.052965,
        -0.580000 -0.170000 -0.000000,
        -0.580000 -1.150000 -0.160000,
        -0.580000 -1.150000 -0.000000,
        -0.920000 -1.150000 -0.000000,
        -0.920000 -1.150000 -0.160000,
        -0.920000 -0.403238 -0.160000,
        -0.920000 -0.343690 -0.152804,
        -0.920000 -0.287569 -0.131632,
        -0.920000 -0.170000 -0.000000,
        -0.920000 -0.198151 -0.052965,
        -0.920000 -0.238107 -0.097701,
        -0.580000 0.170000 0.000000,
        -0.580000 0.198151 -0.052965,
        -0.580000 0.238107 -0.097701,
        -0.580000 0.287569 -0.131632,
        -0.580000 1.150000 0.000000,
        -0.580000 1.150000 -0.160000,
        -0.580000 0.403238 -0.160000,
        -0.580000 0.343690 -0.152804,
        -0.420000 0.170000 0.000000,
        -0.420000 0.198151 -0.052965,
        -0.420000 0.238107 -0.097701,
        -0.420000 0.287569 -0.131632,
        -0.420000 0.343690 -0.152804,
        -0.420000 0.403238 -0.160000,
        -0.420000 1.150000 -0.160000,
        -0.420000 1.150000 0.000000,
        -0.080000 0.170000 0.000000,
        -0.080000 0.198151 -0.052965,
        -0.080000 0.238107 -0.097701,
        -0.080000 0.287569 -0.131632,
        -0.080000 1.150000 0.000000,
        -0.080000 1.150000 -0.160000,
        -0.080000 0.403238 -0.160000,
        -0.080000 0.343690 -0.152804,
        0.080000 0.170000 0.000000,
        0.080000 0.198151 -0.052965,
        0.080000 0.238107 -0.097701,
        0.080000 0.287569 -0.131632,
        0.080000 0.343690 -0.152804,
        0.080000 0.403238 -0.160000,
        0.080000 1.150000 -0.160000,
        0.080000 1.150000 0.000000,
        0.420000 0.170000 0.000000,
        0.420000 0.198151 -0.052965,
        0.420000 0.238107 -0.097701,
        0.420000 0.287569 -0.131632,
        0.420000 1.150000 0.000000,
        0.420000 1.150000 -0.160000,
        0.420000 0.403238 -0.160000,
        0.420000 0.343690 -0.152804,
        0.580000 0.170000 0.000000,
        0.580000 0.198151 -0.052965,
        0.580000 0.238107 -0.097701,
        0.580000 0.287569 -0.131632,
        0.580000 0.343690 -0.152804,
        0.580000 0.403238 -0.160000,
        0.580000 1.150000 -0.160000,
        0.580000 1.150000 0.000000,
      ]
    }
    coordIndex [
      0, 1, 2, -1,
      2, 1, 3, -1,
      1, 4, 3, -1,
      3, 4, 5, -1,
      4, 6, 5, -1,
      5, 6, 7, -1,
      8, 9, 10, -1,
      8, 10, 11, -1,
      11, 10, 12, -1,
      11, 12, 13, -1,
      13, 12, 14, -1,
      13, 14, 15, -1,
      15, 14, 16, -1,
      15, 16, 17, -1,
      17, 16, 7, -1,
      17, 7, 6, -1,
      8, 18, 9, -1,
      9, 18, 19, -1,
      20, 21, 22, -1,
      22, 21, 23, -1,
      24, 25, 26, -1,
      26, 25, 27, -1,
      28, 29, 30, -1,
      30, 29, 31, -1,
      32, 33, 34, -1,
      34, 33, 35, -1,
      36, 37, 38, -1,
      38, 37, 39, -1,
      40, 41, 42, -1,
      42, 41, 43, -1,
      44, 45, 46, -1,
      46, 45, 47, -1,
      48, 49, 50, -1,
      50, 49, 19, -1,
      18, 51, 19, -1,
      19, 51, 46, -1,
      19, 46, 50, -1,
      50, 46, 47, -1,
      50, 47, 43, -1,
      43, 47, 38, -1,
      43, 38, 42, -1,
      42, 38, 39, -1,
      42, 39, 35, -1,
      35, 39, 30, -1,
      35, 30, 34, -1,
      34, 30, 31, -1,
      34, 31, 27, -1,
      27, 31, 22, -1,
      27, 22, 26, -1,
      26, 22, 23, -1,
      26, 23, 52, -1,
      52, 23, 53, -1,
      54, 55, 56, -1,
      56, 55, 57, -1,
      58, 59, 57, -1,
      59, 60, 57, -1,
      57, 60, 61, -1,
      57, 61, 56, -1,
      62, 63, 52, -1,
      52, 63, 64, -1,
      52, 64, 65, -1,
      65, 66, 52, -1,
      52, 66, 67, -1,
      52, 67, 68, -1,
      69, 62, 70, -1,
      70, 62, 52, -1,
      70, 52, 71, -1,
      71, 52, 53, -1,
      71, 53, 57, -1,
      57, 53, 72, -1,
      57, 72, 58, -1,
      52, 68, 26, -1,
      26, 68, 73, -1,
      73, 68, 67, -1,
      73, 67, 74, -1,
      74, 67, 66, -1,
      74, 66, 75, -1,
      75, 66, 65, -1,
      75, 65, 76, -1,
      76, 65, 64, -1,
      76, 64, 77, -1,
      77, 64, 63, -1,
      77, 63, 78, -1,
      63, 62, 78, -1,
      78, 62, 79, -1,
      62, 69, 79, -1,
      79, 69, 80, -1,
      69, 70, 80, -1,
      80, 70, 81, -1,
      0, 2, 49, -1,
      48, 71, 49, -1,
      49, 71, 82, -1,
      49, 82, 0, -1,
      33, 32, 71, -1,
      40, 83, 84, -1,
      84, 33, 40, -1,
      40, 33, 71, -1,
      40, 71, 41, -1,
      41, 71, 48, -1,
      41, 48, 85, -1,
      85, 48, 86, -1,
      81, 70, 24, -1,
      24, 70, 71, -1,
      24, 71, 25, -1,
      25, 71, 32, -1,
      25, 32, 87, -1,
      87, 32, 88, -1,
      89, 90, 51, -1,
      91, 92, 51, -1,
      51, 92, 93, -1,
      4, 1, 6, -1,
      6, 1, 0, -1,
      15, 17, 18, -1,
      93, 94, 51, -1,
      51, 94, 95, -1,
      51, 95, 89, -1,
      96, 91, 97, -1,
      97, 91, 51, -1,
      97, 51, 82, -1,
      82, 51, 18, -1,
      82, 18, 0, -1,
      0, 18, 17, -1,
      0, 17, 6, -1,
      8, 11, 18, -1,
      18, 11, 13, -1,
      18, 13, 15, -1,
      51, 90, 46, -1,
      46, 90, 98, -1,
      92, 99, 100, -1,
      92, 100, 93, -1,
      93, 100, 101, -1,
      93, 101, 94, -1,
      94, 101, 102, -1,
      94, 102, 95, -1,
      95, 102, 103, -1,
      95, 103, 89, -1,
      89, 103, 98, -1,
      89, 98, 90, -1,
      92, 91, 99, -1,
      99, 91, 104, -1,
      91, 96, 104, -1,
      104, 96, 105, -1,
      96, 97, 105, -1,
      105, 97, 106, -1,
      28, 107, 108, -1,
      20, 71, 21, -1,
      21, 71, 57, -1,
      21, 57, 109, -1,
      110, 111, 20, -1,
      20, 111, 29, -1,
      20, 29, 71, -1,
      71, 29, 28, -1,
      71, 28, 37, -1,
      37, 28, 108, -1,
      112, 113, 36, -1,
      36, 113, 45, -1,
      106, 97, 44, -1,
      44, 97, 82, -1,
      44, 82, 45, -1,
      45, 82, 71, -1,
      45, 71, 36, -1,
      36, 71, 37, -1,
      114, 115, 113, -1,
      113, 115, 116, -1,
      113, 116, 45, -1,
      45, 116, 117, -1,
      45, 117, 118, -1,
      119, 47, 120, -1,
      120, 47, 45, -1,
      120, 45, 121, -1,
      121, 45, 118, -1,
      116, 122, 123, -1,
      116, 123, 117, -1,
      117, 123, 124, -1,
      117, 124, 118, -1,
      118, 124, 125, -1,
      118, 125, 121, -1,
      121, 125, 126, -1,
      121, 126, 120, -1,
      120, 126, 127, -1,
      120, 127, 119, -1,
      127, 38, 119, -1,
      119, 38, 47, -1,
      38, 127, 36, -1,
      36, 127, 126, -1,
      36, 126, 125, -1,
      128, 129, 122, -1,
      122, 129, 112, -1,
      122, 112, 123, -1,
      123, 112, 36, -1,
      123, 36, 124, -1,
      124, 36, 125, -1,
      112, 129, 113, -1,
      113, 129, 114, -1,
      129, 128, 114, -1,
      114, 128, 115, -1,
      128, 122, 115, -1,
      115, 122, 116, -1,
      130, 131, 108, -1,
      108, 131, 132, -1,
      108, 132, 37, -1,
      37, 132, 133, -1,
      37, 133, 134, -1,
      135, 39, 136, -1,
      136, 39, 37, -1,
      136, 37, 137, -1,
      137, 37, 134, -1,
      132, 138, 139, -1,
      132, 139, 133, -1,
      133, 139, 140, -1,
      133, 140, 134, -1,
      134, 140, 141, -1,
      134, 141, 137, -1,
      137, 141, 142, -1,
      137, 142, 136, -1,
      136, 142, 143, -1,
      136, 143, 135, -1,
      143, 30, 135, -1,
      135, 30, 39, -1,
      30, 143, 28, -1,
      28, 143, 142, -1,
      28, 142, 141, -1,
      144, 145, 138, -1,
      138, 145, 107, -1,
      138, 107, 139, -1,
      139, 107, 28, -1,
      139, 28, 140, -1,
      140, 28, 141, -1,
      107, 145, 108, -1,
      108, 145, 130, -1,
      145, 144, 130, -1,
      130, 144, 131, -1,
      144, 138, 131, -1,
      131, 138, 132, -1,
      146, 147, 111, -1,
      111, 147, 148, -1,
      111, 148, 29, -1,
      29, 148, 149, -1,
      29, 149, 150, -1,
      151, 31, 152, -1,
      152, 31, 29, -1,
      152, 29, 153, -1,
      153, 29, 150, -1,
      148, 154, 155, -1,
      148, 155, 149, -1,
      149, 155, 156, -1,
      149, 156, 150, -1,
      150, 156, 157, -1,
      150, 157, 153, -1,
      153, 157, 158, -1,
      153, 158, 152, -1,
      152, 158, 159, -1,
      152, 159, 151, -1,
      159, 22, 151, -1,
      151, 22, 31, -1,
      22, 159, 20, -1,
      20, 159, 158, -1,
      20, 158, 157, -1,
      160, 161, 154, -1,
      154, 161, 110, -1,
      154, 110, 155, -1,
      155, 110, 20, -1,
      155, 20, 156, -1,
      156, 20, 157, -1,
      110, 161, 111, -1,
      111, 161, 146, -1,
      161, 160, 146, -1,
      146, 160, 147, -1,
      160, 154, 147, -1,
      147, 154, 148, -1,
      162, 163, 109, -1,
      109, 163, 164, -1,
      109, 164, 21, -1,
      21, 164, 165, -1,
      21, 165, 166, -1,
      167, 23, 168, -1,
      168, 23, 21, -1,
      168, 21, 169, -1,
      169, 21, 166, -1,
      164, 56, 61, -1,
      164, 61, 165, -1,
      165, 61, 60, -1,
      165, 60, 166, -1,
      166, 60, 59, -1,
      166, 59, 169, -1,
      169, 59, 58, -1,
      169, 58, 168, -1,
      168, 58, 72, -1,
      168, 72, 167, -1,
      72, 53, 167, -1,
      167, 53, 23, -1,
      54, 56, 163, -1,
      163, 56, 164, -1,
      55, 54, 162, -1,
      162, 54, 163, -1,
      57, 55, 109, -1,
      109, 55, 162, -1,
      46, 98, 44, -1,
      44, 98, 103, -1,
      44, 103, 102, -1,
      104, 105, 99, -1,
      99, 105, 106, -1,
      99, 106, 100, -1,
      100, 106, 44, -1,
      100, 44, 101, -1,
      101, 44, 102, -1,
      26, 73, 24, -1,
      24, 73, 74, -1,
      24, 74, 75, -1,
      79, 80, 78, -1,
      78, 80, 81, -1,
      78, 81, 77, -1,
      77, 81, 24, -1,
      77, 24, 76, -1,
      76, 24, 75, -1,
      170, 27, 171, -1,
      171, 27, 25, -1,
      171, 25, 172, -1,
      172, 25, 173, -1,
      174, 175, 87, -1,
      87, 175, 176, -1,
      87, 176, 25, -1,
      25, 176, 177, -1,
      25, 177, 173, -1,
      178, 170, 171, -1,
      178, 171, 179, -1,
      179, 171, 172, -1,
      179, 172, 180, -1,
      180, 172, 173, -1,
      180, 173, 181, -1,
      181, 173, 177, -1,
      181, 177, 182, -1,
      182, 177, 176, -1,
      182, 176, 183, -1,
      176, 175, 183, -1,
      183, 175, 184, -1,
      175, 174, 184, -1,
      184, 174, 185, -1,
      174, 87, 185, -1,
      185, 87, 88, -1,
      34, 178, 32, -1,
      32, 178, 179, -1,
      32, 179, 180, -1,
      184, 185, 183, -1,
      183, 185, 88, -1,
      183, 88, 182, -1,
      182, 88, 32, -1,
      182, 32, 181, -1,
      181, 32, 180, -1,
      27, 170, 34, -1,
      34, 170, 178, -1,
      186, 35, 187, -1,
      187, 35, 33, -1,
      187, 33, 188, -1,
      188, 33, 189, -1,
      190, 191, 84, -1,
      84, 191, 192, -1,
      84, 192, 33, -1,
      33, 192, 193, -1,
      33, 193, 189, -1,
      194, 186, 187, -1,
      194, 187, 195, -1,
      195, 187, 188, -1,
      195, 188, 196, -1,
      196, 188, 189, -1,
      196, 189, 197, -1,
      197, 189, 193, -1,
      197, 193, 198, -1,
      198, 193, 192, -1,
      198, 192, 199, -1,
      192, 191, 199, -1,
      199, 191, 200, -1,
      191, 190, 200, -1,
      200, 190, 201, -1,
      190, 84, 201, -1,
      201, 84, 83, -1,
      42, 194, 40, -1,
      40, 194, 195, -1,
      40, 195, 196, -1,
      200, 201, 199, -1,
      199, 201, 83, -1,
      199, 83, 198, -1,
      198, 83, 40, -1,
      198, 40, 197, -1,
      197, 40, 196, -1,
      35, 186, 42, -1,
      42, 186, 194, -1,
      202, 43, 203, -1,
      203, 43, 41, -1,
      203, 41, 204, -1,
      204, 41, 205, -1,
      206, 207, 85, -1,
      85, 207, 208, -1,
      85, 208, 41, -1,
      41, 208, 209, -1,
      41, 209, 205, -1,
      210, 202, 203, -1,
      210, 203, 211, -1,
      211, 203, 204, -1,
      211, 204, 212, -1,
      212, 204, 205, -1,
      212, 205, 213, -1,
      213, 205, 209, -1,
      213, 209, 214, -1,
      214, 209, 208, -1,
      214, 208, 215, -1,
      208, 207, 215, -1,
      215, 207, 216, -1,
      207, 206, 216, -1,
      216, 206, 217, -1,
      206, 85, 217, -1,
      217, 85, 86, -1,
      50, 210, 48, -1,
      48, 210, 211, -1,
      48, 211, 212, -1,
      216, 217, 215, -1,
      215, 217, 86, -1,
      215, 86, 214, -1,
      214, 86, 48, -1,
      214, 48, 213, -1,
      213, 48, 212, -1,
      43, 202, 50, -1,
      50, 202, 210, -1,
      9, 19, 10, -1,
      10, 19, 49, -1,
      10, 49, 12, -1,
      12, 49, 14, -1,
      3, 5, 2, -1,
      2, 5, 7, -1,
      2, 7, 49, -1,
      49, 7, 16, -1,
      49, 16, 14, -1,
    ]
  }
}
