#VRML V2.0 utf8

Shape {
  appearance Appearance {
    material Material {
      diffuseColor 0.2510 0.2510 0.2510
      specularColor 0.1255 0.1255 0.1255
      ambientIntensity 0.2
      transparency 0.0000
      shininess 0.5
    }
  }
  geometry IndexedFaceSet {
    ccw TRUE
    solid FALSE
    coord DEF co Coordinate {
      point [
        -0.056252 -1.153543 0.000000,
        -0.171260 -1.153543 0.000000,
        -0.056252 -0.710143 0.000000,
        -0.171260 -0.982283 0.000000,
        -1.023622 -0.710143 0.000000,
        -0.328740 -0.982283 0.000000,
        -0.828740 -1.153543 0.000000,
        -1.023622 -1.153543 0.000000,
        -0.828740 -0.982283 0.000000,
        -0.671260 -0.982283 0.000000,
        -0.671260 -1.153543 0.000000,
        -0.328740 -1.153543 0.000000,
        1.023622 -0.710143 0.000000,
        1.023622 -1.153543 0.000000,
        0.828740 -1.153543 0.000000,
        0.671260 -0.982283 0.000000,
        0.671260 -1.153543 0.000000,
        0.328740 -1.153543 0.000000,
        0.828740 -0.982283 0.000000,
        0.328740 -0.982283 0.000000,
        0.025394 -0.710143 0.000000,
        0.028557 -0.710586 0.000000,
        0.171260 -0.982283 0.000000,
        0.030711 -0.710623 0.000000,
        0.035341 -0.710143 0.000000,
        -0.046649 -0.630923 0.000000,
        -0.046649 -0.639565 0.000000,
        -0.056252 -0.490157 0.000000,
        -0.048570 -0.701021 0.000000,
        -0.048570 -0.709663 0.000000,
        -0.006319 -0.709663 0.000000,
        0.009045 -0.705582 0.000000,
        0.009045 -0.696940 0.000000,
        -0.006319 -0.630923 0.000000,
        0.171260 -1.153543 0.000000,
        0.017438 -0.709028 0.000000,
        0.929134 -0.236220 0.000000,
        1.023622 -0.236220 0.000000,
        0.929134 -0.334646 0.000000,
        0.828740 -0.334646 0.000000,
        0.828740 -0.490157 0.000000,
        -0.016882 -0.674134 0.000000,
        -0.016882 -0.701021 0.000000,
        -0.044729 -0.674134 0.000000,
        -0.044729 -0.665492 0.000000,
        -0.016882 -0.665492 0.000000,
        -0.016882 -0.639565 0.000000,
        0.114672 -0.709663 0.000000,
        0.074342 -0.709663 0.000000,
        0.040414 -0.709617 0.000000,
        0.048046 -0.706990 0.000000,
        0.104109 -0.630923 0.000000,
        0.114672 -0.630923 0.000000,
        0.035238 -0.639476 0.000000,
        0.041131 -0.641602 0.000000,
        0.010456 -0.697721 0.000000,
        0.046581 -0.645248 0.000000,
        0.051337 -0.650498 0.000000,
        0.057057 -0.671133 0.000000,
        0.056260 -0.679657 0.000000,
        0.054121 -0.686430 0.000000,
        0.036599 -0.701157 0.000000,
        0.029255 -0.701981 0.000000,
        0.042337 -0.699045 0.000000,
        0.047169 -0.695788 0.000000,
        0.050864 -0.691890 0.000000,
        0.018803 -0.700821 0.000000,
        0.009045 -0.633083 0.000000,
        0.009045 -0.643646 0.000000,
        0.054583 -0.656577 0.000000,
        0.056681 -0.665007 0.000000,
        0.017914 -0.639848 0.000000,
        0.027485 -0.638605 0.000000,
        0.054380 -0.702946 0.000000,
        0.060294 -0.696719 0.000000,
        0.074342 -0.701021 0.000000,
        0.064489 -0.689232 0.000000,
        0.104109 -0.701021 0.000000,
        0.063464 -0.651662 0.000000,
        0.058849 -0.644300 0.000000,
        0.051740 -0.637463 0.000000,
        0.044261 -0.633158 0.000000,
        0.035483 -0.630608 0.000000,
        0.066859 -0.680897 0.000000,
        0.067620 -0.671778 0.000000,
        0.066487 -0.660584 0.000000,
        0.027575 -0.629963 0.000000,
        0.018148 -0.630613 0.000000,
        -1.023622 -0.236220 0.000000,
        -0.929134 -0.236220 0.000000,
        -0.929134 -0.334646 0.000000,
        -0.133072 -0.709663 0.000000,
        -0.123378 -0.688082 0.000000,
        -0.118863 -0.695125 0.000000,
        -0.828740 -0.334646 0.000000,
        -0.828740 -0.490157 0.000000,
        -0.112381 -0.701330 0.000000,
        -0.104160 -0.706108 0.000000,
        -0.095087 -0.708813 0.000000,
        -0.162839 -0.630923 0.000000,
        -0.173402 -0.630923 0.000000,
        -0.192607 -0.709663 0.000000,
        -0.204130 -0.709663 0.000000,
        -0.085344 -0.709663 0.000000,
        -0.144594 -0.709663 0.000000,
        -0.152111 -0.687577 0.000000,
        -0.184640 -0.687577 0.000000,
        -0.063934 -0.709663 0.000000,
        -0.063934 -0.630923 0.000000,
        -0.086154 -0.630923 0.000000,
        -0.115396 -0.641190 0.000000,
        -0.120964 -0.647364 0.000000,
        -0.124623 -0.654136 0.000000,
        -0.097530 -0.632139 0.000000,
        -0.106743 -0.635374 0.000000,
        -0.115313 -0.641117 0.000000,
        -0.126738 -0.661894 0.000000,
        -0.127310 -0.669303 0.000000,
        -0.126205 -0.679840 0.000000,
      ]
    }
    coordIndex [
      0, 1, 2, -1,
      2, 1, 3, -1,
      2, 3, 4, -1,
      4, 3, 5, -1,
      6, 7, 8, -1,
      8, 7, 4, -1,
      8, 4, 9, -1,
      9, 4, 5, -1,
      9, 5, 10, -1,
      10, 5, 11, -1,
      12, 13, 14, -1,
      15, 16, 17, -1,
      14, 18, 12, -1,
      12, 18, 15, -1,
      12, 15, 19, -1,
      19, 15, 17, -1,
      20, 21, 22, -1,
      22, 21, 23, -1,
      22, 23, 24, -1,
      25, 26, 27, -1,
      27, 26, 28, -1,
      27, 28, 2, -1,
      2, 28, 29, -1,
      2, 29, 30, -1,
      31, 30, 32, -1,
      32, 30, 33, -1,
      34, 0, 22, -1,
      22, 0, 2, -1,
      22, 2, 20, -1,
      20, 2, 30, -1,
      20, 30, 35, -1,
      35, 30, 31, -1,
      36, 37, 38, -1,
      38, 37, 12, -1,
      38, 12, 39, -1,
      39, 12, 40, -1,
      41, 42, 43, -1,
      43, 42, 28, -1,
      43, 28, 44, -1,
      44, 28, 26, -1,
      44, 26, 45, -1,
      45, 26, 46, -1,
      47, 24, 48, -1,
      48, 24, 49, -1,
      48, 49, 50, -1,
      51, 27, 52, -1,
      52, 27, 40, -1,
      52, 40, 47, -1,
      47, 40, 12, -1,
      47, 12, 24, -1,
      24, 12, 19, -1,
      24, 19, 22, -1,
      53, 54, 55, -1,
      55, 54, 56, -1,
      55, 56, 57, -1,
      58, 59, 55, -1,
      55, 59, 60, -1,
      61, 62, 63, -1,
      63, 62, 64, -1,
      60, 65, 55, -1,
      55, 65, 64, -1,
      55, 64, 66, -1,
      66, 64, 62, -1,
      27, 67, 68, -1,
      57, 69, 55, -1,
      55, 69, 70, -1,
      55, 70, 58, -1,
      25, 27, 33, -1,
      33, 27, 68, -1,
      33, 68, 32, -1,
      32, 68, 71, -1,
      32, 71, 55, -1,
      55, 71, 72, -1,
      55, 72, 53, -1,
      50, 73, 48, -1,
      48, 73, 74, -1,
      48, 74, 75, -1,
      75, 74, 76, -1,
      75, 76, 77, -1,
      78, 79, 51, -1,
      51, 79, 80, -1,
      51, 80, 27, -1,
      27, 80, 81, -1,
      27, 81, 82, -1,
      76, 83, 77, -1,
      77, 83, 84, -1,
      77, 84, 51, -1,
      51, 84, 85, -1,
      51, 85, 78, -1,
      82, 86, 27, -1,
      27, 86, 87, -1,
      27, 87, 67, -1,
      88, 89, 90, -1,
      91, 92, 93, -1,
      88, 90, 4, -1,
      4, 90, 94, -1,
      4, 94, 95, -1,
      93, 96, 91, -1,
      91, 96, 97, -1,
      91, 97, 98, -1,
      27, 99, 100, -1,
      101, 2, 102, -1,
      102, 2, 4, -1,
      102, 4, 100, -1,
      100, 4, 95, -1,
      100, 95, 27, -1,
      98, 103, 91, -1,
      91, 103, 2, -1,
      91, 2, 104, -1,
      104, 2, 101, -1,
      104, 101, 105, -1,
      105, 101, 106, -1,
      103, 107, 2, -1,
      2, 107, 108, -1,
      2, 108, 27, -1,
      27, 108, 109, -1,
      110, 111, 99, -1,
      99, 111, 112, -1,
      109, 113, 27, -1,
      27, 113, 114, -1,
      27, 114, 99, -1,
      99, 114, 115, -1,
      99, 115, 110, -1,
      112, 116, 99, -1,
      99, 116, 117, -1,
      99, 117, 91, -1,
      91, 117, 118, -1,
      91, 118, 92, -1,
    ]
  }
}

Shape {
  appearance Appearance {
    material Material {
      diffuseColor 1.0000 1.0000 1.0000
      specularColor 0.5020 0.5020 0.5020
      ambientIntensity 0.2
      transparency 0.0000
      shininess 0.5
    }
  }
  geometry IndexedFaceSet {
    ccw TRUE
    solid FALSE
    coord DEF co Coordinate {
      point [
        0.828740 -0.059055 0.000000,
        0.828740 -0.059055 -0.003937,
        0.828740 0.915354 0.000000,
        0.828740 0.915354 -0.003937,
        -0.828740 -0.059055 -0.003937,
        -0.828740 -0.059055 0.000000,
        -0.828740 0.915354 -0.003937,
        -0.828740 0.915354 0.000000,
      ]
    }
    coordIndex [
      0, 1, 2, -1,
      2, 1, 3, -1,
      4, 5, 6, -1,
      6, 5, 7, -1,
    ]
  }
}

Shape {
  appearance Appearance {
    material Material {
      diffuseColor 0.2510 0.2510 0.2510
      specularColor 0.1255 0.1255 0.1255
      ambientIntensity 0.2
      transparency 0.0000
      shininess 0.5
    }
  }
  geometry IndexedFaceSet {
    ccw TRUE
    solid FALSE
    coord DEF co Coordinate {
      point [
        -0.056252 -1.153543 0.000000,
        -0.171260 -1.153543 0.000000,
        -1.023622 -0.710143 0.000000,
        -0.828740 -1.153543 0.000000,
        -1.023622 -1.153543 0.000000,
        -0.671260 -1.153543 0.000000,
        -0.328740 -1.153543 0.000000,
        1.023622 -0.710143 0.000000,
        1.023622 -1.153543 0.000000,
        0.828740 -1.153543 0.000000,
        0.671260 -1.153543 0.000000,
        0.328740 -1.153543 0.000000,
        0.171260 -1.153543 0.000000,
        1.023622 -0.236220 0.000000,
        -1.023622 -0.236220 0.000000,
        0.828740 -0.059055 0.000000,
        0.828740 0.915354 0.000000,
        -0.828740 -0.059055 0.000000,
        -0.828740 0.915354 0.000000,
        0.671260 1.013780 0.000000,
        0.328740 1.013780 0.000000,
        0.671260 1.153543 0.000000,
        0.328740 1.153543 0.000000,
        0.171260 1.013780 0.000000,
        -0.171260 1.013780 0.000000,
        0.171260 1.153543 0.000000,
        -0.171260 1.153543 0.000000,
        -0.328740 1.013780 0.000000,
        -0.671260 1.013780 0.000000,
        -0.328740 1.153543 0.000000,
        -0.671260 1.153543 0.000000,
        -1.023622 1.153543 0.000000,
        -0.828740 1.153543 0.000000,
        -0.828740 1.013780 0.000000,
        -0.929134 0.915354 0.000000,
        -0.929134 -0.059055 0.000000,
        -0.929134 1.013780 0.000000,
        -1.023622 -0.157480 0.000000,
        -0.929134 -0.157480 0.000000,
        1.012098 -0.157480 0.065354,
        1.023622 -0.157480 -0.000000,
        1.023622 1.153543 0.000000,
        0.947260 -1.077181 0.433071,
        0.947260 1.077181 0.433071,
        1.012098 -0.236220 0.065354,
        0.828740 1.142020 0.065354,
        0.828740 1.153543 0.000000,
        0.171260 1.142020 0.065354,
        0.671260 1.142020 0.065354,
        0.328740 1.142020 0.065354,
        -0.171260 1.142020 0.065354,
        -0.328740 1.142020 0.065354,
        -0.947260 1.077181 0.433071,
        -0.828740 1.142020 0.065354,
        -0.671260 1.142020 0.065354,
        -1.012098 -0.236220 0.065354,
        -0.947260 -1.077181 0.433071,
        -1.012098 -0.157480 0.065354,
        -0.828740 -1.142020 0.065354,
        -0.671260 -1.142020 0.065354,
        -0.171260 -1.142020 0.065354,
        0.171260 -1.142020 0.065354,
        0.328740 -1.142020 0.065354,
        -0.328740 -1.142020 0.065354,
        0.828740 -1.142020 0.065354,
        0.671260 -1.142020 0.065354,
        -0.653725 -0.830773 0.433071,
        -0.650169 -0.857789 0.433071,
        -0.844948 -0.909980 0.433071,
        -0.855376 -0.884805 0.433071,
        -0.858933 -0.857789 0.433071,
        -0.855376 -0.830773 0.433071,
        -0.844948 -0.805598 0.433071,
        -0.828360 -0.783980 0.433071,
        -0.806742 -0.767392 0.433071,
        -0.781567 -0.756964 0.433071,
        -0.754551 -0.753407 0.433071,
        -0.664153 -0.805598 0.433071,
        -0.680741 -0.783980 0.433071,
        -0.781567 -0.958614 0.433071,
        -0.806742 -0.948187 0.433071,
        -0.828360 -0.931598 0.433071,
        0.229030 0.814098 0.433071,
        0.236458 0.755293 0.433071,
        0.229030 0.696489 0.433071,
        -0.653725 -0.884805 0.433071,
        -0.664153 -0.909980 0.433071,
        -0.680741 -0.931598 0.433071,
        -0.100679 0.969247 0.433071,
        -0.150724 0.937488 0.433071,
        -0.191299 0.894280 0.433071,
        0.126701 0.954942 0.433071,
        0.172371 0.917160 0.433071,
        0.207210 0.869208 0.433071,
        -0.727535 -0.756964 0.433071,
        -0.191299 0.616307 0.433071,
        -0.219854 0.668247 0.433071,
        -0.702360 -0.948187 0.433071,
        -0.727535 -0.958614 0.433071,
        -0.754551 -0.962171 0.433071,
        -0.219854 0.842339 0.433071,
        -0.044308 0.987563 0.433071,
        0.014847 0.991285 0.433071,
        0.073070 0.980179 0.433071,
        0.207210 0.641379 0.433071,
        0.172371 0.593426 0.433071,
        0.126701 0.555645 0.433071,
        -0.702360 -0.767392 0.433071,
        0.073070 0.530408 0.433071,
        0.014847 0.519302 0.433071,
        -0.044308 0.523024 0.433071,
        -0.100679 0.541339 0.433071,
        -0.150724 0.573099 0.433071,
        -0.234594 0.725657 0.433071,
        -0.234594 0.784930 0.433071,
        0.929134 -0.059055 0.000000,
        0.929134 -0.157480 0.000000,
        0.828740 1.013780 0.000000,
        0.929134 1.013780 0.000000,
        0.929134 0.915354 0.000000,
      ]
    }
    coordIndex [
      19, 20, 21, -1,
      21, 20, 22, -1,
      23, 24, 25, -1,
      25, 24, 26, -1,
      27, 28, 29, -1,
      29, 28, 30, -1,
      31, 32, 33, -1,
      18, 17, 34, -1,
      34, 17, 35, -1,
      33, 36, 31, -1,
      31, 36, 34, -1,
      31, 34, 37, -1,
      37, 34, 35, -1,
      37, 35, 38, -1,
      39, 40, 41, -1,
      42, 8, 7, -1,
      41, 43, 39, -1,
      39, 43, 42, -1,
      39, 42, 44, -1,
      44, 42, 7, -1,
      44, 7, 13, -1,
      43, 41, 45, -1,
      45, 41, 46, -1,
      47, 25, 26, -1,
      21, 22, 48, -1,
      48, 22, 49, -1,
      50, 51, 52, -1,
      26, 50, 47, -1,
      47, 50, 52, -1,
      47, 52, 49, -1,
      49, 52, 43, -1,
      49, 43, 48, -1,
      48, 43, 45, -1,
      32, 31, 53, -1,
      53, 31, 52, -1,
      53, 52, 54, -1,
      54, 52, 51, -1,
      54, 51, 30, -1,
      30, 51, 29, -1,
      55, 56, 57, -1,
      57, 56, 52, -1,
      57, 52, 37, -1,
      37, 52, 31, -1,
      55, 14, 56, -1,
      56, 14, 2, -1,
      56, 2, 4, -1,
      4, 3, 58, -1,
      4, 58, 56, -1,
      56, 58, 59, -1,
      56, 59, 42, -1,
      60, 1, 0, -1,
      61, 62, 42, -1,
      5, 6, 59, -1,
      59, 6, 63, -1,
      59, 63, 42, -1,
      42, 63, 60, -1,
      42, 60, 61, -1,
      61, 60, 0, -1,
      61, 0, 12, -1,
      9, 8, 64, -1,
      64, 8, 42, -1,
      64, 42, 65, -1,
      65, 42, 62, -1,
      65, 62, 10, -1,
      10, 62, 11, -1,
      66, 67, 42, -1,
      56, 68, 69, -1,
      69, 70, 56, -1,
      56, 70, 71, -1,
      56, 71, 52, -1,
      52, 71, 72, -1,
      52, 72, 73, -1,
      73, 74, 52, -1,
      52, 74, 75, -1,
      52, 75, 76, -1,
      66, 42, 77, -1,
      77, 42, 43, -1,
      77, 43, 78, -1,
      79, 80, 56, -1,
      56, 80, 81, -1,
      56, 81, 68, -1,
      82, 83, 43, -1,
      43, 83, 84, -1,
      67, 85, 42, -1,
      42, 85, 86, -1,
      42, 86, 87, -1,
      88, 52, 89, -1,
      89, 52, 90, -1,
      91, 92, 43, -1,
      43, 92, 93, -1,
      43, 93, 82, -1,
      94, 95, 96, -1,
      87, 97, 42, -1,
      42, 97, 98, -1,
      42, 98, 56, -1,
      56, 98, 99, -1,
      56, 99, 79, -1,
      76, 94, 52, -1,
      52, 94, 100, -1,
      52, 100, 90, -1,
      88, 101, 52, -1,
      52, 101, 102, -1,
      52, 102, 43, -1,
      43, 102, 103, -1,
      43, 103, 91, -1,
      84, 104, 43, -1,
      43, 104, 105, -1,
      43, 105, 78, -1,
      78, 105, 106, -1,
      78, 106, 107, -1,
      107, 106, 108, -1,
      107, 108, 109, -1,
      109, 110, 107, -1,
      107, 110, 111, -1,
      107, 111, 94, -1,
      94, 111, 112, -1,
      94, 112, 95, -1,
      96, 113, 94, -1,
      94, 113, 114, -1,
      94, 114, 100, -1,
      41, 40, 115, -1,
      115, 40, 116, -1,
      117, 46, 118, -1,
      118, 46, 41, -1,
      118, 41, 119, -1,
      119, 41, 115, -1,
      119, 115, 16, -1,
      16, 115, 15, -1,
    ]
  }
}

Shape {
  appearance Appearance {
    material Material {
      diffuseColor 0.0000 0.0000 0.0000
      specularColor 0.0000 0.0000 0.0000
      ambientIntensity 0.2
      transparency 0.0000
      shininess 0.5
    }
  }
  geometry IndexedFaceSet {
    ccw TRUE
    solid FALSE
    coord DEF co Coordinate {
      point [
        -0.653725 -0.830773 0.433071,
        -0.650169 -0.857789 0.433071,
        -0.844948 -0.909980 0.433071,
        -0.855376 -0.884805 0.433071,
        -0.858933 -0.857789 0.433071,
        -0.855376 -0.830773 0.433071,
        -0.844948 -0.805598 0.433071,
        -0.828360 -0.783980 0.433071,
        -0.806742 -0.767392 0.433071,
        -0.781567 -0.756964 0.433071,
        -0.754551 -0.753407 0.433071,
        -0.664153 -0.805598 0.433071,
        -0.680741 -0.783980 0.433071,
        -0.781567 -0.958614 0.433071,
        -0.806742 -0.948187 0.433071,
        -0.828360 -0.931598 0.433071,
        -0.653725 -0.884805 0.433071,
        -0.664153 -0.909980 0.433071,
        -0.680741 -0.931598 0.433071,
        -0.727535 -0.756964 0.433071,
        -0.702360 -0.948187 0.433071,
        -0.727535 -0.958614 0.433071,
        -0.754551 -0.962171 0.433071,
        -0.702360 -0.767392 0.433071,
        -0.650169 -0.857789 0.432677,
        -0.653725 -0.830773 0.432677,
        -0.664153 -0.805598 0.432677,
        -0.680741 -0.783980 0.432677,
        -0.702360 -0.767392 0.432677,
        -0.727535 -0.756964 0.432677,
        -0.754551 -0.753407 0.432677,
        -0.781567 -0.756964 0.432677,
        -0.806742 -0.767392 0.432677,
        -0.828360 -0.783980 0.432677,
        -0.844948 -0.805598 0.432677,
        -0.855376 -0.830773 0.432677,
        -0.858933 -0.857789 0.432677,
        -0.855376 -0.884805 0.432677,
        -0.844948 -0.909980 0.432677,
        -0.828360 -0.931598 0.432677,
        -0.806742 -0.948187 0.432677,
        -0.781567 -0.958614 0.432677,
        -0.754551 -0.962171 0.432677,
        -0.727535 -0.958614 0.432677,
        -0.702360 -0.948187 0.432677,
        -0.680741 -0.931598 0.432677,
        -0.664153 -0.909980 0.432677,
        -0.653725 -0.884805 0.432677,
        -0.754551 -0.857789 0.432677,
      ]
    }
    coordIndex [
      24, 1, 25, -1,
      25, 1, 0, -1,
      25, 0, 26, -1,
      26, 0, 11, -1,
      26, 11, 27, -1,
      27, 11, 12, -1,
      27, 12, 28, -1,
      28, 12, 23, -1,
      28, 23, 29, -1,
      29, 23, 19, -1,
      29, 19, 30, -1,
      30, 19, 10, -1,
      30, 10, 31, -1,
      31, 10, 9, -1,
      31, 9, 32, -1,
      32, 9, 8, -1,
      32, 8, 33, -1,
      33, 8, 7, -1,
      33, 7, 34, -1,
      34, 7, 6, -1,
      34, 6, 35, -1,
      35, 6, 5, -1,
      35, 5, 36, -1,
      36, 5, 4, -1,
      36, 4, 37, -1,
      37, 4, 3, -1,
      37, 3, 38, -1,
      38, 3, 2, -1,
      38, 2, 39, -1,
      39, 2, 15, -1,
      39, 15, 40, -1,
      40, 15, 14, -1,
      40, 14, 41, -1,
      41, 14, 13, -1,
      41, 13, 42, -1,
      42, 13, 22, -1,
      42, 22, 43, -1,
      43, 22, 21, -1,
      43, 21, 44, -1,
      44, 21, 20, -1,
      44, 20, 45, -1,
      45, 20, 18, -1,
      45, 18, 46, -1,
      46, 18, 17, -1,
      46, 17, 47, -1,
      47, 17, 16, -1,
      47, 16, 24, -1,
      24, 16, 1, -1,
      46, 47, 48, -1,
      48, 47, 24, -1,
      48, 24, 25, -1,
      43, 44, 48, -1,
      48, 44, 45, -1,
      48, 45, 46, -1,
      40, 41, 48, -1,
      48, 41, 42, -1,
      48, 42, 43, -1,
      37, 38, 48, -1,
      48, 38, 39, -1,
      48, 39, 40, -1,
      34, 35, 48, -1,
      48, 35, 36, -1,
      48, 36, 37, -1,
      31, 32, 48, -1,
      48, 32, 33, -1,
      48, 33, 34, -1,
      28, 29, 48, -1,
      48, 29, 30, -1,
      48, 30, 31, -1,
      25, 26, 48, -1,
      48, 26, 27, -1,
      48, 27, 28, -1,
    ]
  }
}

Shape {
  appearance Appearance {
    material Material {
      diffuseColor 1.0000 1.0000 1.0000
      specularColor 0.5020 0.5020 0.5020
      ambientIntensity 0.2
      transparency 0.0000
      shininess 0.5
    }
  }
  geometry IndexedFaceSet {
    ccw TRUE
    solid FALSE
    coord DEF co Coordinate {
      point [
        -0.171260 -1.153543 0.000000,
        -0.171260 -0.982283 0.000000,
        -0.328740 -0.982283 0.000000,
        -0.828740 -1.153543 0.000000,
        -0.828740 -0.982283 0.000000,
        -0.671260 -0.982283 0.000000,
        -0.671260 -1.153543 0.000000,
        -0.328740 -1.153543 0.000000,
        0.828740 -1.153543 0.000000,
        0.671260 -0.982283 0.000000,
        0.671260 -1.153543 0.000000,
        0.328740 -1.153543 0.000000,
        0.828740 -0.982283 0.000000,
        0.328740 -0.982283 0.000000,
        0.171260 -0.982283 0.000000,
        -0.056252 -0.490157 0.000000,
        0.171260 -1.153543 0.000000,
        0.929134 -0.236220 0.000000,
        1.023622 -0.236220 0.000000,
        0.929134 -0.334646 0.000000,
        0.828740 -0.334646 0.000000,
        0.828740 -0.490157 0.000000,
        -1.023622 -0.236220 0.000000,
        -0.929134 -0.236220 0.000000,
        -0.929134 -0.334646 0.000000,
        -0.828740 -0.334646 0.000000,
        -0.828740 -0.490157 0.000000,
        0.828740 -0.059055 0.000000,
        0.828740 -0.059055 -0.003937,
        0.828740 0.915354 -0.003937,
        -0.828740 -0.059055 -0.003937,
        -0.828740 -0.059055 0.000000,
        -0.828740 0.915354 -0.003937,
        0.671260 1.013780 0.000000,
        0.328740 1.013780 0.000000,
        0.671260 1.153543 0.000000,
        0.328740 1.153543 0.000000,
        0.171260 1.013780 0.000000,
        -0.171260 1.013780 0.000000,
        0.171260 1.153543 0.000000,
        -0.171260 1.153543 0.000000,
        -0.328740 1.013780 0.000000,
        -0.671260 1.013780 0.000000,
        -0.328740 1.153543 0.000000,
        -0.671260 1.153543 0.000000,
        -0.828740 1.153543 0.000000,
        -0.828740 1.013780 0.000000,
        -0.929134 -0.059055 0.000000,
        -1.023622 -0.157480 0.000000,
        -0.929134 -0.157480 0.000000,
        1.012098 -0.157480 0.065354,
        1.023622 -0.157480 -0.000000,
        1.012098 -0.236220 0.065354,
        0.828740 1.142020 0.065354,
        0.828740 1.153543 0.000000,
        0.171260 1.142020 0.065354,
        0.671260 1.142020 0.065354,
        0.328740 1.142020 0.065354,
        -0.171260 1.142020 0.065354,
        -0.328740 1.142020 0.065354,
        -0.828740 1.142020 0.065354,
        -0.671260 1.142020 0.065354,
        -1.012098 -0.236220 0.065354,
        -1.012098 -0.157480 0.065354,
        -0.828740 -1.142020 0.065354,
        -0.671260 -1.142020 0.065354,
        -0.171260 -1.142020 0.065354,
        0.171260 -1.142020 0.065354,
        0.328740 -1.142020 0.065354,
        -0.328740 -1.142020 0.065354,
        0.828740 -1.142020 0.065354,
        0.671260 -1.142020 0.065354,
        0.929134 -0.059055 0.000000,
        0.929134 -0.157480 0.000000,
        0.828740 1.013780 0.000000,
        -0.328740 -1.210630 0.065354,
        -0.171260 -1.210630 0.065354,
        -0.171260 -0.982283 -0.003937,
        -0.171260 -1.210630 -0.003937,
        -0.328740 -0.982283 -0.003937,
        -0.328740 -1.210630 -0.003937,
        0.171260 -1.210630 0.065354,
        0.328740 -1.210630 0.065354,
        0.328740 -0.982283 -0.003937,
        0.328740 -1.210630 -0.003937,
        0.171260 -0.982283 -0.003937,
        0.171260 -1.210630 -0.003937,
        -0.828740 -1.210630 0.065354,
        -0.671260 -1.210630 0.065354,
        -0.671260 -0.982283 -0.003937,
        -0.828740 -0.982283 -0.003937,
        -0.828740 -1.210630 -0.003937,
        -0.671260 -1.210630 -0.003937,
        0.671260 -1.210630 0.065354,
        0.828740 -1.210630 0.065354,
        0.828740 -0.982283 -0.003937,
        0.828740 -1.210630 -0.003937,
        0.671260 -0.982283 -0.003937,
        0.671260 -1.210630 -0.003937,
        1.027559 -0.236220 0.065354,
        1.027559 -0.157480 0.065354,
        0.828740 1.210630 0.065354,
        0.671260 1.210630 0.065354,
        0.328740 1.210630 0.065354,
        0.171260 1.210630 0.065354,
        -0.171260 1.210630 0.065354,
        -0.328740 1.210630 0.065354,
        -0.671260 1.210630 0.065354,
        -0.828740 1.210630 0.065354,
        -1.027559 -0.157480 0.065354,
        -1.027559 -0.236220 0.065354,
        0.671260 1.013780 -0.003937,
        0.671260 1.210630 -0.003937,
        0.328740 1.013780 -0.003937,
        0.328740 1.210630 -0.003937,
        0.171260 1.013780 -0.003937,
        0.171260 1.210630 -0.003937,
        -0.171260 1.013780 -0.003937,
        -0.171260 1.210630 -0.003937,
        -0.328740 1.013780 -0.003937,
        -0.328740 1.210630 -0.003937,
        -0.671260 1.013780 -0.003937,
        -0.671260 1.210630 -0.003937,
        -0.828740 1.013780 -0.003937,
        -0.828740 1.210630 -0.003937,
        -0.929134 -0.059055 -0.003937,
        -0.929134 -0.157480 -0.003937,
        -1.027559 -0.157480 -0.003937,
        -1.027559 -0.236220 -0.003937,
        -0.929134 -0.236220 -0.003937,
        -0.929134 -0.334646 -0.003937,
        -0.828740 -0.334646 -0.003937,
        -0.828740 -0.490157 -0.003937,
        0.828740 -0.490157 -0.003937,
        0.828740 -0.334646 -0.003937,
        0.929134 -0.334646 -0.003937,
        0.929134 -0.236220 -0.003937,
        1.027559 -0.236220 -0.003937,
        1.027559 -0.157480 -0.003937,
        0.929134 -0.157480 -0.003937,
        0.929134 -0.059055 -0.003937,
        0.828740 1.013780 -0.003937,
        0.828740 1.210630 -0.003937,
        -0.929134 0.915354 -0.003937,
        -0.929134 1.013780 -0.003937,
        0.929134 1.013780 -0.003937,
        0.929134 0.915354 -0.003937,
      ]
    }
    coordIndex [
      69, 75, 66, -1,
      66, 75, 76, -1,
      77, 1, 0, -1,
      66, 76, 0, -1,
      0, 76, 78, -1,
      0, 78, 77, -1,
      77, 79, 1, -1,
      1, 79, 2, -1,
      2, 79, 7, -1,
      7, 79, 80, -1,
      7, 80, 69, -1,
      69, 80, 75, -1,
      78, 76, 80, -1,
      80, 76, 75, -1,
      80, 79, 78, -1,
      78, 79, 77, -1,
      81, 82, 67, -1,
      67, 82, 68, -1,
      83, 13, 11, -1,
      68, 82, 11, -1,
      11, 82, 84, -1,
      11, 84, 83, -1,
      83, 85, 13, -1,
      13, 85, 14, -1,
      14, 85, 16, -1,
      16, 85, 86, -1,
      16, 86, 67, -1,
      67, 86, 81, -1,
      84, 82, 86, -1,
      86, 82, 81, -1,
      86, 85, 84, -1,
      84, 85, 83, -1,
      87, 88, 64, -1,
      64, 88, 65, -1,
      89, 90, 5, -1,
      5, 90, 4, -1,
      4, 90, 3, -1,
      3, 90, 91, -1,
      3, 91, 64, -1,
      64, 91, 87, -1,
      89, 5, 6, -1,
      65, 88, 6, -1,
      6, 88, 92, -1,
      6, 92, 89, -1,
      92, 88, 91, -1,
      91, 88, 87, -1,
      92, 91, 89, -1,
      89, 91, 90, -1,
      93, 94, 71, -1,
      71, 94, 70, -1,
      95, 12, 8, -1,
      70, 94, 8, -1,
      8, 94, 96, -1,
      8, 96, 95, -1,
      95, 97, 12, -1,
      12, 97, 9, -1,
      9, 97, 10, -1,
      10, 97, 98, -1,
      10, 98, 71, -1,
      71, 98, 93, -1,
      96, 94, 98, -1,
      98, 94, 93, -1,
      98, 97, 96, -1,
      96, 97, 95, -1,
      99, 100, 52, -1,
      52, 100, 50, -1,
      101, 102, 53, -1,
      53, 102, 56, -1,
      103, 104, 57, -1,
      57, 104, 55, -1,
      105, 106, 58, -1,
      58, 106, 59, -1,
      107, 108, 61, -1,
      61, 108, 60, -1,
      109, 110, 63, -1,
      63, 110, 62, -1,
      111, 33, 35, -1,
      56, 102, 35, -1,
      35, 102, 112, -1,
      35, 112, 111, -1,
      111, 113, 33, -1,
      33, 113, 34, -1,
      34, 113, 36, -1,
      36, 113, 114, -1,
      36, 114, 57, -1,
      57, 114, 103, -1,
      115, 37, 39, -1,
      55, 104, 39, -1,
      39, 104, 116, -1,
      39, 116, 115, -1,
      115, 117, 37, -1,
      37, 117, 38, -1,
      38, 117, 40, -1,
      40, 117, 118, -1,
      40, 118, 58, -1,
      58, 118, 105, -1,
      119, 41, 43, -1,
      59, 106, 43, -1,
      43, 106, 120, -1,
      43, 120, 119, -1,
      119, 121, 41, -1,
      41, 121, 42, -1,
      42, 121, 44, -1,
      44, 121, 122, -1,
      44, 122, 61, -1,
      61, 122, 107, -1,
      123, 46, 45, -1,
      60, 108, 45, -1,
      45, 108, 124, -1,
      45, 124, 123, -1,
      30, 125, 31, -1,
      31, 125, 47, -1,
      125, 126, 47, -1,
      47, 126, 49, -1,
      49, 126, 48, -1,
      48, 126, 127, -1,
      48, 127, 63, -1,
      63, 127, 109, -1,
      62, 110, 22, -1,
      22, 110, 128, -1,
      22, 128, 23, -1,
      23, 128, 129, -1,
      129, 130, 23, -1,
      23, 130, 24, -1,
      130, 131, 24, -1,
      24, 131, 25, -1,
      131, 132, 25, -1,
      25, 132, 26, -1,
      26, 132, 15, -1,
      15, 132, 133, -1,
      15, 133, 21, -1,
      133, 134, 21, -1,
      21, 134, 20, -1,
      134, 135, 20, -1,
      20, 135, 19, -1,
      135, 136, 19, -1,
      19, 136, 17, -1,
      17, 136, 18, -1,
      18, 136, 137, -1,
      18, 137, 52, -1,
      52, 137, 99, -1,
      50, 100, 51, -1,
      51, 100, 138, -1,
      51, 138, 73, -1,
      73, 138, 139, -1,
      139, 140, 73, -1,
      73, 140, 72, -1,
      140, 28, 72, -1,
      72, 28, 27, -1,
      74, 141, 54, -1,
      54, 141, 142, -1,
      54, 142, 53, -1,
      53, 142, 101, -1,
      112, 102, 142, -1,
      142, 102, 101, -1,
      116, 104, 114, -1,
      114, 104, 103, -1,
      120, 106, 118, -1,
      118, 106, 105, -1,
      124, 108, 122, -1,
      122, 108, 107, -1,
      128, 110, 127, -1,
      127, 110, 109, -1,
      138, 100, 137, -1,
      137, 100, 99, -1,
      32, 143, 144, -1,
      111, 112, 142, -1,
      124, 122, 123, -1,
      123, 122, 121, -1,
      136, 135, 134, -1,
      115, 116, 114, -1,
      145, 146, 141, -1,
      141, 146, 29, -1,
      144, 123, 32, -1,
      32, 123, 121, -1,
      32, 121, 30, -1,
      30, 121, 119, -1,
      115, 131, 130, -1,
      138, 137, 139, -1,
      139, 137, 136, -1,
      142, 141, 111, -1,
      111, 141, 29, -1,
      111, 29, 113, -1,
      113, 29, 28, -1,
      136, 134, 139, -1,
      139, 134, 28, -1,
      139, 28, 140, -1,
      133, 132, 134, -1,
      134, 132, 131, -1,
      134, 131, 28, -1,
      28, 131, 115, -1,
      28, 115, 113, -1,
      113, 115, 114, -1,
      125, 30, 126, -1,
      126, 30, 129, -1,
      126, 129, 127, -1,
      127, 129, 128, -1,
      130, 129, 115, -1,
      115, 129, 30, -1,
      115, 30, 117, -1,
      117, 30, 119, -1,
      117, 119, 118, -1,
      118, 119, 120, -1,
    ]
  }
}

Shape {
  appearance Appearance {
    material Material {
      diffuseColor 0.5020 0.2510 0.0000
      specularColor 0.4431 0.2196 0.0000
      ambientIntensity 0.2
      transparency 0.0000
      shininess 0.5
    }
  }
  geometry IndexedFaceSet {
    ccw TRUE
    solid FALSE
    coord DEF co Coordinate {
      point [
        0.828740 0.915354 0.000000,
        0.828740 0.915354 -0.003937,
        -0.828740 0.915354 -0.003937,
        -0.828740 0.915354 0.000000,
        -0.828740 1.013780 0.000000,
        -0.929134 0.915354 0.000000,
        -0.929134 1.013780 0.000000,
        0.828740 1.013780 0.000000,
        0.929134 1.013780 0.000000,
        0.929134 0.915354 0.000000,
        -0.828740 1.013780 -0.003937,
        0.828740 1.013780 -0.003937,
        -0.929134 0.915354 -0.003937,
        -0.929134 1.013780 -0.003937,
        0.929134 1.013780 -0.003937,
        0.929134 0.915354 -0.003937,
      ]
    }
    coordIndex [
      3, 5, 2, -1,
      2, 5, 12, -1,
      6, 13, 5, -1,
      5, 13, 12, -1,
      10, 13, 4, -1,
      4, 13, 6, -1,
      9, 15, 8, -1,
      8, 15, 14, -1,
      1, 15, 0, -1,
      0, 15, 9, -1,
      7, 8, 11, -1,
      11, 8, 14, -1,
    ]
  }
}

Shape {
  appearance Appearance {
    material Material {
      diffuseColor 0.0000 0.0000 0.0000
      specularColor 0.0000 0.0000 0.0000
      ambientIntensity 0.2
      transparency 0.0000
      shininess 0.5
    }
  }
  geometry IndexedFaceSet {
    ccw TRUE
    solid FALSE
    coord DEF co Coordinate {
      point [
        0.025394 -0.710143 0.000000,
        0.028557 -0.710586 0.000000,
        0.030711 -0.710623 0.000000,
        0.035341 -0.710143 0.000000,
        -0.046649 -0.630923 0.000000,
        -0.046649 -0.639565 0.000000,
        -0.048570 -0.701021 0.000000,
        -0.048570 -0.709663 0.000000,
        -0.006319 -0.709663 0.000000,
        0.009045 -0.705582 0.000000,
        0.009045 -0.696940 0.000000,
        -0.006319 -0.630923 0.000000,
        0.017438 -0.709028 0.000000,
        -0.016882 -0.674134 0.000000,
        -0.016882 -0.701021 0.000000,
        -0.044729 -0.674134 0.000000,
        -0.044729 -0.665492 0.000000,
        -0.016882 -0.665492 0.000000,
        -0.016882 -0.639565 0.000000,
        0.114672 -0.709663 0.000000,
        0.074342 -0.709663 0.000000,
        0.040414 -0.709617 0.000000,
        0.048046 -0.706990 0.000000,
        0.104109 -0.630923 0.000000,
        0.114672 -0.630923 0.000000,
        0.035238 -0.639476 0.000000,
        0.041131 -0.641602 0.000000,
        0.010456 -0.697721 0.000000,
        0.046581 -0.645248 0.000000,
        0.051337 -0.650498 0.000000,
        0.057057 -0.671133 0.000000,
        0.056260 -0.679657 0.000000,
        0.054121 -0.686430 0.000000,
        0.036599 -0.701157 0.000000,
        0.029255 -0.701981 0.000000,
        0.042337 -0.699045 0.000000,
        0.047169 -0.695788 0.000000,
        0.050864 -0.691890 0.000000,
        0.018803 -0.700821 0.000000,
        0.009045 -0.633083 0.000000,
        0.009045 -0.643646 0.000000,
        0.054583 -0.656577 0.000000,
        0.056681 -0.665007 0.000000,
        0.017914 -0.639848 0.000000,
        0.027485 -0.638605 0.000000,
        0.054380 -0.702946 0.000000,
        0.060294 -0.696719 0.000000,
        0.074342 -0.701021 0.000000,
        0.064489 -0.689232 0.000000,
        0.104109 -0.701021 0.000000,
        0.063464 -0.651662 0.000000,
        0.058849 -0.644300 0.000000,
        0.051740 -0.637463 0.000000,
        0.044261 -0.633158 0.000000,
        0.035483 -0.630608 0.000000,
        0.066859 -0.680897 0.000000,
        0.067620 -0.671778 0.000000,
        0.066487 -0.660584 0.000000,
        0.027575 -0.629963 0.000000,
        0.018148 -0.630613 0.000000,
        -0.133072 -0.709663 0.000000,
        -0.123378 -0.688082 0.000000,
        -0.118863 -0.695125 0.000000,
        -0.112381 -0.701330 0.000000,
        -0.104160 -0.706108 0.000000,
        -0.095087 -0.708813 0.000000,
        -0.162839 -0.630923 0.000000,
        -0.173402 -0.630923 0.000000,
        -0.192607 -0.709663 0.000000,
        -0.204130 -0.709663 0.000000,
        -0.085344 -0.709663 0.000000,
        -0.144594 -0.709663 0.000000,
        -0.152111 -0.687577 0.000000,
        -0.184640 -0.687577 0.000000,
        -0.063934 -0.709663 0.000000,
        -0.063934 -0.630923 0.000000,
        -0.086154 -0.630923 0.000000,
        -0.115396 -0.641190 0.000000,
        -0.120964 -0.647364 0.000000,
        -0.124623 -0.654136 0.000000,
        -0.097530 -0.632139 0.000000,
        -0.106743 -0.635374 0.000000,
        -0.115313 -0.641117 0.000000,
        -0.126738 -0.661894 0.000000,
        -0.127310 -0.669303 0.000000,
        -0.126205 -0.679840 0.000000,
        -0.173402 -0.630923 0.000394,
        -0.204130 -0.709663 0.000394,
        -0.192607 -0.709663 0.000394,
        -0.184640 -0.687577 0.000394,
        -0.152111 -0.687577 0.000394,
        -0.144594 -0.709663 0.000394,
        -0.133072 -0.709663 0.000394,
        -0.162839 -0.630923 0.000394,
        -0.154767 -0.678935 0.000394,
        -0.181099 -0.678935 0.000394,
        -0.166515 -0.646047 0.000394,
        -0.167273 -0.643316 0.000394,
        -0.167775 -0.640525 0.000394,
        -0.168030 -0.640525 0.000394,
        -0.168544 -0.643307 0.000394,
        -0.169246 -0.646047 0.000394,
        -0.154767 -0.678935 0.000000,
        -0.181099 -0.678935 0.000000,
        -0.166515 -0.646047 -0.000000,
        -0.167273 -0.643316 -0.000000,
        -0.167775 -0.640525 0.000000,
        -0.168030 -0.640525 0.000000,
        -0.168544 -0.643307 0.000000,
        -0.169246 -0.646047 0.000000,
        -0.085344 -0.709663 0.000394,
        -0.063934 -0.709663 0.000394,
        -0.063934 -0.630923 0.000394,
        -0.086154 -0.630923 0.000394,
        -0.127310 -0.669303 0.000394,
        -0.126738 -0.661894 0.000394,
        -0.124623 -0.654136 0.000394,
        -0.120964 -0.647364 0.000394,
        -0.115396 -0.641190 0.000394,
        -0.115313 -0.641117 0.000394,
        -0.106743 -0.635374 0.000394,
        -0.097530 -0.632139 0.000394,
        -0.095087 -0.708813 0.000394,
        -0.104160 -0.706108 0.000394,
        -0.112381 -0.701330 0.000394,
        -0.118863 -0.695125 0.000394,
        -0.123378 -0.688082 0.000394,
        -0.126205 -0.679840 0.000394,
        -0.111505 -0.650607 0.000394,
        -0.107680 -0.646546 0.000394,
        -0.101929 -0.642830 0.000394,
        -0.095429 -0.640556 0.000394,
        -0.086109 -0.639565 0.000394,
        -0.074496 -0.639565 0.000394,
        -0.074496 -0.701021 0.000394,
        -0.085674 -0.701021 0.000394,
        -0.093981 -0.700248 0.000394,
        -0.100607 -0.698179 0.000394,
        -0.105978 -0.694991 0.000394,
        -0.110394 -0.690628 0.000394,
        -0.113715 -0.685200 0.000394,
        -0.116024 -0.677798 0.000394,
        -0.116747 -0.669528 0.000394,
        -0.116078 -0.661691 0.000394,
        -0.114240 -0.655463 0.000394,
        -0.086109 -0.639565 0.000000,
        -0.074496 -0.639565 0.000000,
        -0.095429 -0.640556 0.000000,
        -0.101929 -0.642830 0.000000,
        -0.107680 -0.646546 0.000000,
        -0.111505 -0.650607 0.000000,
        -0.114240 -0.655463 0.000000,
        -0.116078 -0.661691 -0.000000,
        -0.116747 -0.669528 0.000000,
        -0.116024 -0.677798 -0.000000,
        -0.113715 -0.685200 0.000000,
        -0.110394 -0.690628 0.000000,
        -0.105978 -0.694991 0.000000,
        -0.100607 -0.698179 0.000000,
        -0.093981 -0.700248 0.000000,
        -0.085674 -0.701021 0.000000,
        -0.074496 -0.701021 0.000000,
        -0.048570 -0.701021 0.000394,
        -0.048570 -0.709663 0.000394,
        -0.006319 -0.709663 0.000394,
        -0.006319 -0.630923 0.000394,
        -0.046649 -0.630923 0.000394,
        -0.046649 -0.639565 0.000394,
        -0.016882 -0.639565 0.000394,
        -0.016882 -0.665492 0.000394,
        -0.044729 -0.665492 0.000394,
        -0.044729 -0.674134 0.000394,
        -0.016882 -0.674134 0.000394,
        -0.016882 -0.701021 0.000394,
        0.009045 -0.696940 0.000394,
        0.009045 -0.705582 0.000394,
        0.017438 -0.709028 0.000394,
        0.030711 -0.710623 0.000394,
        0.028557 -0.710586 0.000394,
        0.040414 -0.709617 0.000394,
        0.048046 -0.706990 0.000394,
        0.054380 -0.702946 0.000394,
        0.060294 -0.696719 0.000394,
        0.064489 -0.689232 0.000394,
        0.066859 -0.680897 0.000394,
        0.067620 -0.671778 0.000394,
        0.027575 -0.629963 0.000394,
        0.035483 -0.630608 0.000394,
        0.044261 -0.633158 0.000394,
        0.051740 -0.637463 0.000394,
        0.058849 -0.644300 0.000394,
        0.063464 -0.651662 0.000394,
        0.066487 -0.660584 0.000394,
        0.009045 -0.633083 0.000394,
        0.018148 -0.630613 0.000394,
        0.009045 -0.643646 0.000394,
        0.027485 -0.638605 0.000394,
        0.017914 -0.639848 0.000394,
        0.057057 -0.671133 0.000394,
        0.056681 -0.665007 0.000394,
        0.054583 -0.656577 0.000394,
        0.051337 -0.650498 0.000394,
        0.046581 -0.645248 0.000394,
        0.041131 -0.641602 0.000394,
        0.035238 -0.639476 0.000394,
        0.029255 -0.701981 0.000394,
        0.036599 -0.701157 0.000394,
        0.042337 -0.699045 0.000394,
        0.047169 -0.695788 0.000394,
        0.050864 -0.691890 0.000394,
        0.054121 -0.686430 0.000394,
        0.056260 -0.679657 0.000394,
        0.010456 -0.697721 0.000394,
        0.018803 -0.700821 0.000394,
        0.074342 -0.701021 0.000394,
        0.074342 -0.709663 0.000394,
        0.114672 -0.709663 0.000394,
        0.114672 -0.630923 0.000394,
        0.104109 -0.630923 0.000394,
        0.104109 -0.701021 0.000394,
      ]
    }
    coordIndex [
      86, 87, 67, -1,
      67, 87, 69, -1,
      87, 88, 69, -1,
      69, 88, 68, -1,
      88, 89, 68, -1,
      68, 89, 73, -1,
      89, 90, 73, -1,
      73, 90, 72, -1,
      90, 91, 72, -1,
      72, 91, 71, -1,
      91, 92, 71, -1,
      71, 92, 60, -1,
      92, 93, 60, -1,
      60, 93, 66, -1,
      93, 86, 66, -1,
      66, 86, 67, -1,
      94, 90, 95, -1,
      95, 90, 89, -1,
      96, 93, 94, -1,
      94, 93, 92, -1,
      94, 92, 90, -1,
      90, 92, 91, -1,
      96, 97, 93, -1,
      93, 97, 98, -1,
      93, 98, 86, -1,
      86, 98, 99, -1,
      86, 99, 100, -1,
      100, 101, 86, -1,
      86, 101, 95, -1,
      86, 95, 87, -1,
      87, 95, 89, -1,
      87, 89, 88, -1,
      94, 95, 102, -1,
      102, 95, 103, -1,
      96, 94, 104, -1,
      104, 94, 102, -1,
      96, 104, 105, -1,
      96, 105, 97, -1,
      97, 105, 106, -1,
      97, 106, 98, -1,
      99, 98, 107, -1,
      107, 98, 106, -1,
      99, 107, 108, -1,
      99, 108, 100, -1,
      100, 108, 109, -1,
      100, 109, 101, -1,
      95, 101, 103, -1,
      103, 101, 109, -1,
      110, 111, 70, -1,
      70, 111, 74, -1,
      111, 112, 74, -1,
      74, 112, 75, -1,
      112, 113, 75, -1,
      75, 113, 76, -1,
      114, 84, 83, -1,
      114, 83, 115, -1,
      115, 83, 79, -1,
      115, 79, 116, -1,
      116, 79, 78, -1,
      116, 78, 117, -1,
      117, 78, 77, -1,
      117, 77, 118, -1,
      118, 77, 82, -1,
      118, 82, 119, -1,
      119, 82, 81, -1,
      119, 81, 120, -1,
      120, 81, 80, -1,
      120, 80, 121, -1,
      121, 80, 76, -1,
      121, 76, 113, -1,
      110, 70, 65, -1,
      110, 65, 122, -1,
      122, 65, 64, -1,
      122, 64, 123, -1,
      123, 64, 63, -1,
      123, 63, 124, -1,
      124, 63, 62, -1,
      124, 62, 125, -1,
      125, 62, 61, -1,
      125, 61, 126, -1,
      126, 61, 85, -1,
      126, 85, 127, -1,
      127, 85, 84, -1,
      127, 84, 114, -1,
      116, 117, 128, -1,
      128, 117, 118, -1,
      128, 118, 129, -1,
      129, 118, 119, -1,
      129, 119, 130, -1,
      130, 119, 120, -1,
      130, 120, 131, -1,
      131, 120, 121, -1,
      131, 121, 132, -1,
      132, 121, 113, -1,
      132, 113, 133, -1,
      133, 113, 112, -1,
      133, 112, 134, -1,
      134, 112, 111, -1,
      134, 111, 135, -1,
      135, 111, 110, -1,
      135, 110, 136, -1,
      136, 110, 122, -1,
      136, 122, 137, -1,
      137, 122, 123, -1,
      137, 123, 138, -1,
      138, 123, 124, -1,
      138, 124, 139, -1,
      139, 124, 125, -1,
      139, 125, 140, -1,
      140, 125, 126, -1,
      140, 126, 141, -1,
      141, 126, 127, -1,
      141, 127, 142, -1,
      142, 127, 114, -1,
      142, 114, 143, -1,
      143, 114, 115, -1,
      143, 115, 144, -1,
      144, 115, 116, -1,
      144, 116, 128, -1,
      132, 133, 145, -1,
      145, 133, 146, -1,
      132, 145, 147, -1,
      132, 147, 131, -1,
      131, 147, 148, -1,
      131, 148, 130, -1,
      130, 148, 149, -1,
      130, 149, 129, -1,
      129, 149, 150, -1,
      129, 150, 128, -1,
      128, 150, 151, -1,
      128, 151, 144, -1,
      144, 151, 152, -1,
      144, 152, 143, -1,
      143, 152, 153, -1,
      143, 153, 142, -1,
      142, 153, 154, -1,
      142, 154, 141, -1,
      141, 154, 155, -1,
      141, 155, 140, -1,
      140, 155, 156, -1,
      140, 156, 139, -1,
      139, 156, 157, -1,
      139, 157, 138, -1,
      138, 157, 158, -1,
      138, 158, 137, -1,
      137, 158, 159, -1,
      137, 159, 136, -1,
      136, 159, 160, -1,
      136, 160, 135, -1,
      134, 135, 161, -1,
      161, 135, 160, -1,
      133, 134, 146, -1,
      146, 134, 161, -1,
      162, 163, 6, -1,
      6, 163, 7, -1,
      163, 164, 7, -1,
      7, 164, 8, -1,
      164, 165, 8, -1,
      8, 165, 11, -1,
      165, 166, 11, -1,
      11, 166, 4, -1,
      166, 167, 4, -1,
      4, 167, 5, -1,
      167, 168, 5, -1,
      5, 168, 18, -1,
      168, 169, 18, -1,
      18, 169, 17, -1,
      169, 170, 17, -1,
      17, 170, 16, -1,
      170, 171, 16, -1,
      16, 171, 15, -1,
      171, 172, 15, -1,
      15, 172, 13, -1,
      172, 173, 13, -1,
      13, 173, 14, -1,
      173, 162, 14, -1,
      14, 162, 6, -1,
      164, 163, 162, -1,
      162, 173, 164, -1,
      164, 173, 172, -1,
      164, 172, 165, -1,
      167, 166, 168, -1,
      168, 166, 165, -1,
      168, 165, 169, -1,
      169, 165, 172, -1,
      169, 172, 170, -1,
      170, 172, 171, -1,
      174, 175, 10, -1,
      10, 175, 9, -1,
      9, 175, 176, -1,
      177, 2, 1, -1,
      177, 1, 178, -1,
      178, 1, 0, -1,
      178, 0, 176, -1,
      176, 0, 12, -1,
      176, 12, 9, -1,
      2, 177, 3, -1,
      3, 177, 179, -1,
      3, 179, 21, -1,
      21, 179, 180, -1,
      21, 180, 22, -1,
      22, 180, 181, -1,
      22, 181, 45, -1,
      45, 181, 182, -1,
      45, 182, 46, -1,
      46, 182, 183, -1,
      46, 183, 48, -1,
      48, 183, 184, -1,
      48, 184, 55, -1,
      55, 184, 185, -1,
      55, 185, 56, -1,
      186, 58, 54, -1,
      186, 54, 187, -1,
      187, 54, 53, -1,
      187, 53, 188, -1,
      188, 53, 52, -1,
      188, 52, 189, -1,
      189, 52, 51, -1,
      189, 51, 190, -1,
      190, 51, 50, -1,
      190, 50, 191, -1,
      191, 50, 57, -1,
      191, 57, 192, -1,
      192, 57, 56, -1,
      192, 56, 185, -1,
      193, 39, 59, -1,
      193, 59, 194, -1,
      194, 59, 58, -1,
      194, 58, 186, -1,
      193, 195, 39, -1,
      39, 195, 40, -1,
      196, 44, 43, -1,
      196, 43, 197, -1,
      197, 43, 40, -1,
      197, 40, 195, -1,
      198, 30, 42, -1,
      198, 42, 199, -1,
      199, 42, 41, -1,
      199, 41, 200, -1,
      200, 41, 29, -1,
      200, 29, 201, -1,
      201, 29, 28, -1,
      201, 28, 202, -1,
      202, 28, 26, -1,
      202, 26, 203, -1,
      203, 26, 25, -1,
      203, 25, 204, -1,
      204, 25, 44, -1,
      204, 44, 196, -1,
      205, 34, 33, -1,
      205, 33, 206, -1,
      206, 33, 35, -1,
      206, 35, 207, -1,
      207, 35, 36, -1,
      207, 36, 208, -1,
      208, 36, 37, -1,
      208, 37, 209, -1,
      209, 37, 32, -1,
      209, 32, 210, -1,
      210, 32, 31, -1,
      210, 31, 211, -1,
      211, 31, 30, -1,
      211, 30, 198, -1,
      174, 10, 27, -1,
      174, 27, 212, -1,
      212, 27, 38, -1,
      212, 38, 213, -1,
      213, 38, 34, -1,
      213, 34, 205, -1,
      206, 177, 205, -1,
      205, 177, 178, -1,
      205, 178, 213, -1,
      213, 178, 176, -1,
      213, 176, 212, -1,
      212, 176, 175, -1,
      212, 175, 174, -1,
      195, 193, 197, -1,
      197, 193, 194, -1,
      197, 194, 196, -1,
      196, 194, 186, -1,
      196, 186, 204, -1,
      204, 186, 187, -1,
      204, 187, 203, -1,
      203, 187, 188, -1,
      203, 188, 202, -1,
      202, 188, 189, -1,
      202, 189, 201, -1,
      201, 189, 190, -1,
      201, 190, 200, -1,
      200, 190, 191, -1,
      200, 191, 199, -1,
      199, 191, 192, -1,
      199, 192, 198, -1,
      198, 192, 185, -1,
      198, 185, 211, -1,
      211, 185, 184, -1,
      211, 184, 210, -1,
      210, 184, 183, -1,
      210, 183, 209, -1,
      209, 183, 182, -1,
      209, 182, 208, -1,
      208, 182, 181, -1,
      208, 181, 207, -1,
      207, 181, 180, -1,
      207, 180, 206, -1,
      206, 180, 179, -1,
      206, 179, 177, -1,
      214, 215, 47, -1,
      47, 215, 20, -1,
      215, 216, 20, -1,
      20, 216, 19, -1,
      216, 217, 19, -1,
      19, 217, 24, -1,
      217, 218, 24, -1,
      24, 218, 23, -1,
      218, 219, 23, -1,
      23, 219, 49, -1,
      219, 214, 49, -1,
      49, 214, 47, -1,
      218, 217, 219, -1,
      219, 217, 216, -1,
      219, 216, 214, -1,
      214, 216, 215, -1,
    ]
  }
}

Shape {
  appearance Appearance {
    material Material {
      diffuseColor 0.2510 0.2510 0.2510
      specularColor 0.1255 0.1255 0.1255
      ambientIntensity 0.2
      transparency 0.0000
      shininess 0.5
    }
  }
  geometry IndexedFaceSet {
    ccw TRUE
    solid FALSE
    coord DEF co Coordinate {
      point [
        0.229030 0.814098 0.433071,
        0.236458 0.755293 0.433071,
        0.229030 0.696489 0.433071,
        -0.100679 0.969247 0.433071,
        -0.150724 0.937488 0.433071,
        -0.191299 0.894280 0.433071,
        0.126701 0.954942 0.433071,
        0.172371 0.917160 0.433071,
        0.207210 0.869208 0.433071,
        -0.191299 0.616307 0.433071,
        -0.219854 0.668247 0.433071,
        -0.219854 0.842339 0.433071,
        -0.044308 0.987563 0.433071,
        0.014847 0.991285 0.433071,
        0.073070 0.980179 0.433071,
        0.207210 0.641379 0.433071,
        0.172371 0.593426 0.433071,
        0.126701 0.555645 0.433071,
        0.073070 0.530408 0.433071,
        0.014847 0.519302 0.433071,
        -0.044308 0.523024 0.433071,
        -0.100679 0.541339 0.433071,
        -0.150724 0.573099 0.433071,
        -0.234594 0.725657 0.433071,
        -0.234594 0.784930 0.433071,
        -0.154767 -0.678935 0.000000,
        -0.181099 -0.678935 0.000000,
        -0.166515 -0.646047 -0.000000,
        -0.167273 -0.643316 -0.000000,
        -0.167775 -0.640525 0.000000,
        -0.168030 -0.640525 0.000000,
        -0.168544 -0.643307 0.000000,
        -0.169246 -0.646047 0.000000,
        -0.086109 -0.639565 0.000000,
        -0.074496 -0.639565 0.000000,
        -0.095429 -0.640556 0.000000,
        -0.101929 -0.642830 0.000000,
        -0.107680 -0.646546 0.000000,
        -0.111505 -0.650607 0.000000,
        -0.114240 -0.655463 0.000000,
        -0.116078 -0.661691 -0.000000,
        -0.116747 -0.669528 0.000000,
        -0.116024 -0.677798 -0.000000,
        -0.113715 -0.685200 0.000000,
        -0.110394 -0.690628 0.000000,
        -0.105978 -0.694991 0.000000,
        -0.100607 -0.698179 0.000000,
        -0.093981 -0.700248 0.000000,
        -0.085674 -0.701021 0.000000,
        -0.074496 -0.701021 0.000000,
        0.236458 0.755293 0.393701,
        0.229030 0.814098 0.393701,
        0.207210 0.869208 0.393701,
        0.172371 0.917160 0.393701,
        0.126701 0.954942 0.393701,
        0.073070 0.980179 0.393701,
        0.014847 0.991285 0.393701,
        -0.044308 0.987563 0.393701,
        -0.100679 0.969247 0.393701,
        -0.150724 0.937488 0.393701,
        -0.191299 0.894280 0.393701,
        -0.219854 0.842339 0.393701,
        -0.234594 0.784930 0.393701,
        -0.234594 0.725657 0.393701,
        -0.219854 0.668247 0.393701,
        -0.191299 0.616307 0.393701,
        -0.150724 0.573099 0.393701,
        -0.100679 0.541339 0.393701,
        -0.044308 0.523024 0.393701,
        0.014847 0.519302 0.393701,
        0.073070 0.530408 0.393701,
        0.126701 0.555645 0.393701,
        0.172371 0.593426 0.393701,
        0.207210 0.641379 0.393701,
        0.229030 0.696489 0.393701,
        0.000000 0.755293 0.393701,
      ]
    }
    coordIndex [
      25, 26, 27, -1,
      27, 26, 32, -1,
      27, 32, 28, -1,
      28, 32, 31, -1,
      28, 31, 29, -1,
      29, 31, 30, -1,
      34, 49, 33, -1,
      33, 49, 48, -1,
      33, 48, 47, -1,
      41, 40, 33, -1,
      33, 40, 39, -1,
      33, 39, 35, -1,
      47, 46, 33, -1,
      33, 46, 45, -1,
      33, 45, 44, -1,
      44, 43, 33, -1,
      33, 43, 42, -1,
      33, 42, 41, -1,
      38, 37, 39, -1,
      39, 37, 36, -1,
      39, 36, 35, -1,
      50, 1, 51, -1,
      51, 1, 0, -1,
      51, 0, 52, -1,
      52, 0, 8, -1,
      52, 8, 53, -1,
      53, 8, 7, -1,
      53, 7, 54, -1,
      54, 7, 6, -1,
      54, 6, 55, -1,
      55, 6, 14, -1,
      55, 14, 56, -1,
      56, 14, 13, -1,
      56, 13, 57, -1,
      57, 13, 12, -1,
      57, 12, 58, -1,
      58, 12, 3, -1,
      58, 3, 59, -1,
      59, 3, 4, -1,
      59, 4, 60, -1,
      60, 4, 5, -1,
      60, 5, 61, -1,
      61, 5, 11, -1,
      61, 11, 62, -1,
      62, 11, 24, -1,
      62, 24, 63, -1,
      63, 24, 23, -1,
      63, 23, 64, -1,
      64, 23, 10, -1,
      64, 10, 65, -1,
      65, 10, 9, -1,
      65, 9, 66, -1,
      66, 9, 22, -1,
      66, 22, 67, -1,
      67, 22, 21, -1,
      67, 21, 68, -1,
      68, 21, 20, -1,
      68, 20, 69, -1,
      69, 20, 19, -1,
      69, 19, 70, -1,
      70, 19, 18, -1,
      70, 18, 71, -1,
      71, 18, 17, -1,
      71, 17, 72, -1,
      72, 17, 16, -1,
      72, 16, 73, -1,
      73, 16, 15, -1,
      73, 15, 74, -1,
      74, 15, 2, -1,
      74, 2, 50, -1,
      50, 2, 1, -1,
      50, 51, 75, -1,
      72, 73, 75, -1,
      75, 73, 74, -1,
      75, 74, 50, -1,
      69, 70, 75, -1,
      75, 70, 71, -1,
      75, 71, 72, -1,
      66, 67, 75, -1,
      75, 67, 68, -1,
      75, 68, 69, -1,
      63, 64, 75, -1,
      75, 64, 65, -1,
      75, 65, 66, -1,
      60, 61, 75, -1,
      75, 61, 62, -1,
      75, 62, 63, -1,
      57, 58, 75, -1,
      75, 58, 59, -1,
      75, 59, 60, -1,
      54, 55, 75, -1,
      75, 55, 56, -1,
      75, 56, 57, -1,
      51, 52, 75, -1,
      75, 52, 53, -1,
      75, 53, 54, -1,
    ]
  }
}
