#VRML V2.0 utf8

Shape {
  appearance Appearance {
    material Material {
      diffuseColor 0.7529 0.7529 0.7529
      specularColor 0.3765 0.3765 0.3765
      ambientIntensity 0.2
      transparency 0.0000
      shininess 0.5
    }
  }
  geometry IndexedFaceSet {
    ccw TRUE
    solid FALSE
    coord DEF co Coordinate {
      point [
        -0.905512 -1.000000 0.196850,
        -0.905512 -0.001514 0.196850,
        -0.301333 -0.001514 0.196850,
        -0.290733 0.105996 0.196850,
        -0.234706 0.105996 0.196850,
        -0.234706 0.069655 0.196850,
        -0.290733 0.069655 0.196850,
        -0.290733 0.057541 0.196850,
        -0.015143 0.000000 0.196850,
        -0.135261 -0.001514 0.196850,
        -0.071169 0.000000 0.196850,
        -0.130058 -0.000919 0.196850,
        -0.115924 0.004516 0.196850,
        -0.290733 0.118110 0.196850,
        -0.301333 1.000000 0.196850,
        -0.224107 0.118110 0.196850,
        -0.099676 0.100021 0.196850,
        -0.111978 0.110802 0.196850,
        -0.095664 0.064484 0.196850,
        -0.095397 0.058937 0.196850,
        -0.147685 0.109025 0.196850,
        -0.098192 0.075958 0.196850,
        -0.190604 0.028770 0.196850,
        -0.199879 0.021743 0.196850,
        -0.199879 0.096438 0.196850,
        -0.234706 0.057541 0.196850,
        -0.234706 0.012114 0.196850,
        -0.290733 0.012114 0.196850,
        -0.290733 0.000000 0.196850,
        -0.224107 0.000000 0.196850,
        -0.104508 0.012709 0.196850,
        -0.099774 0.017627 0.196850,
        -0.071169 0.012114 0.196850,
        -0.091194 0.030572 0.196850,
        -0.086455 0.044151 0.196850,
        -0.124491 0.117153 0.196850,
        -0.138910 0.120575 0.196850,
        -0.148348 0.121139 0.196850,
        -0.165537 0.119161 0.196850,
        -0.176302 0.115468 0.196850,
        -0.189170 0.107668 0.196850,
        -0.196406 0.100790 0.196850,
        -0.107052 0.026867 0.196850,
        -0.115589 0.019060 0.196850,
        -0.189452 0.010817 0.196850,
        -0.177224 0.003104 0.196850,
        -0.084797 0.059741 0.196850,
        -0.086750 0.075874 0.196850,
        -0.091568 0.088394 0.196850,
        -0.190604 0.089340 0.196850,
        -0.181133 0.098507 0.196850,
        -0.184067 0.022171 0.196850,
        -0.170026 0.104780 0.196850,
        -0.173621 0.015017 0.196850,
        -0.162250 0.010720 0.196850,
        -0.133721 0.107307 0.196850,
        -0.121664 0.102635 0.196850,
        -0.096956 0.045922 0.196850,
        -0.100688 0.036117 0.196850,
        -0.164850 0.106618 0.196850,
        -0.151804 0.108883 0.196850,
        -0.139026 0.009729 0.196850,
        -0.127024 0.012824 0.196850,
        -0.148419 0.009085 0.196850,
        -0.110793 0.094996 0.196850,
        -0.103457 0.086431 0.196850,
        -0.163397 -0.001514 0.196850,
        -0.154389 -0.002814 0.196850,
        -0.301333 -1.003937 0.196850,
        -0.148489 -0.003028 0.196850,
        0.905512 -1.003937 0.196850,
        0.905512 -1.000000 0.196850,
        0.905512 -0.001514 0.196850,
        0.905512 1.000000 0.196850,
        -0.015143 0.118110 0.196850,
        -0.025742 0.118110 0.196850,
        -0.025742 0.012114 0.196850,
        -0.905512 -1.003937 0.196850,
        -0.163794 -0.001457 0.196850,
        -0.435555 0.000000 0.196850,
        -0.423985 0.000000 0.196850,
        -0.524517 0.000000 0.196850,
        -0.507056 0.037856 0.196850,
        -0.453513 0.037856 0.196850,
        -0.402562 0.028609 0.196850,
        -0.394508 0.016463 0.196850,
        -0.385667 0.008659 0.196850,
        -0.376780 0.004075 0.196850,
        -0.354701 0.117388 0.196850,
        -0.373259 0.113852 0.196850,
        -0.362372 0.000778 0.196850,
        -0.348534 0.000000 0.196850,
        -0.311932 0.000000 0.196850,
        -0.311932 0.118110 0.196850,
        -0.335781 0.118110 0.196850,
        -0.385211 0.107814 0.196850,
        -0.480012 0.118110 0.196850,
        -0.905512 1.000000 0.196850,
        -0.481526 0.118110 0.196850,
        -0.536039 0.000000 0.196850,
        -0.393837 0.100319 0.196850,
        -0.401366 0.089658 0.196850,
        -0.406304 0.077338 0.196850,
        -0.408675 0.063038 0.196850,
        -0.408843 0.057565 0.196850,
        -0.407181 0.041772 0.196850,
        -0.975635 -1.003937 0.366142,
        0.975635 -1.003937 0.366142,
        -0.975635 -1.000000 0.366142,
        0.975635 -1.000000 0.366142,
        -0.975635 1.000000 0.366142,
        0.975635 1.000000 0.366142,
      ]
    }
    coordIndex [
      0, 1, 2, -1,
      3, 4, 5, -1,
      6, 7, 2, -1,
      8, 9, 10, -1,
      10, 9, 11, -1,
      10, 11, 12, -1,
      5, 6, 3, -1,
      3, 6, 2, -1,
      3, 2, 13, -1,
      13, 2, 14, -1,
      13, 14, 15, -1,
      16, 17, 14, -1,
      18, 19, 20, -1,
      18, 20, 21, -1,
      22, 23, 24, -1,
      25, 26, 7, -1,
      7, 26, 27, -1,
      7, 27, 2, -1,
      2, 27, 28, -1,
      2, 28, 29, -1,
      12, 30, 10, -1,
      10, 30, 31, -1,
      10, 31, 32, -1,
      32, 31, 33, -1,
      32, 33, 34, -1,
      17, 35, 14, -1,
      14, 35, 36, -1,
      14, 36, 37, -1,
      37, 38, 14, -1,
      14, 38, 39, -1,
      14, 39, 40, -1,
      29, 15, 24, -1,
      24, 15, 14, -1,
      24, 14, 41, -1,
      41, 14, 40, -1,
      20, 42, 43, -1,
      24, 23, 29, -1,
      29, 23, 44, -1,
      29, 44, 45, -1,
      34, 46, 32, -1,
      32, 46, 47, -1,
      32, 47, 14, -1,
      14, 47, 48, -1,
      14, 48, 16, -1,
      24, 49, 22, -1,
      22, 49, 50, -1,
      22, 50, 51, -1,
      51, 50, 52, -1,
      51, 52, 53, -1,
      53, 52, 54, -1,
      20, 55, 56, -1,
      19, 57, 20, -1,
      20, 57, 58, -1,
      20, 58, 42, -1,
      59, 60, 61, -1,
      61, 60, 20, -1,
      61, 20, 62, -1,
      62, 20, 43, -1,
      59, 61, 52, -1,
      52, 61, 63, -1,
      52, 63, 54, -1,
      56, 64, 20, -1,
      20, 64, 65, -1,
      20, 65, 21, -1,
      66, 67, 68, -1,
      68, 67, 69, -1,
      68, 69, 9, -1,
      70, 68, 71, -1,
      71, 68, 9, -1,
      71, 9, 72, -1,
      72, 9, 8, -1,
      72, 8, 73, -1,
      73, 8, 74, -1,
      73, 74, 14, -1,
      14, 74, 75, -1,
      14, 75, 32, -1,
      32, 75, 76, -1,
      77, 0, 68, -1,
      68, 0, 2, -1,
      68, 2, 66, -1,
      66, 2, 29, -1,
      66, 29, 78, -1,
      78, 29, 45, -1,
      79, 80, 2, -1,
      81, 82, 83, -1,
      84, 85, 80, -1,
      80, 85, 86, -1,
      80, 86, 87, -1,
      88, 89, 14, -1,
      87, 90, 80, -1,
      80, 90, 91, -1,
      80, 91, 2, -1,
      91, 92, 2, -1,
      2, 92, 93, -1,
      2, 93, 14, -1,
      14, 93, 94, -1,
      14, 94, 88, -1,
      89, 95, 14, -1,
      14, 95, 96, -1,
      14, 96, 97, -1,
      97, 96, 98, -1,
      97, 98, 1, -1,
      1, 98, 99, -1,
      1, 99, 2, -1,
      2, 99, 81, -1,
      2, 81, 79, -1,
      79, 81, 83, -1,
      95, 100, 96, -1,
      96, 100, 101, -1,
      96, 101, 102, -1,
      102, 103, 96, -1,
      96, 103, 104, -1,
      96, 104, 80, -1,
      80, 104, 105, -1,
      80, 105, 84, -1,
      106, 107, 108, -1,
      108, 107, 109, -1,
      108, 109, 110, -1,
      110, 109, 111, -1,
    ]
  }
}

Shape {
  appearance Appearance {
    material Material {
      diffuseColor 1.0000 0.5020 0.0000
      specularColor 0.5020 0.2510 0.0000
      ambientIntensity 0.2
      transparency 0.0000
      shininess 0.5
    }
  }
  geometry IndexedFaceSet {
    ccw TRUE
    solid FALSE
    coord DEF co Coordinate {
      point [
        -0.905512 -1.000000 0.196850,
        -0.905512 -0.001514 0.196850,
        0.905512 -1.000000 0.196850,
        0.905512 -0.001514 0.196850,
        0.905512 1.000000 0.196850,
        -0.905512 1.000000 0.196850,
        -0.975635 -1.000000 0.366142,
        0.975635 -1.000000 0.366142,
        -0.975635 1.000000 0.366142,
        0.975635 1.000000 0.366142,
        -0.975635 1.003937 0.366142,
        -0.905512 1.003937 0.196850,
        -1.172485 1.003937 0.169291,
        -1.102362 1.003937 0.000000,
        -1.968504 1.003937 0.169291,
        -1.968504 1.003937 0.000000,
        -1.172485 -1.000000 0.169291,
        -1.968504 -1.000000 0.169291,
        1.172485 -1.000000 0.169291,
        1.172485 1.003937 0.169291,
        0.975635 1.003937 0.366142,
        1.968504 1.003937 0.169291,
        1.968504 -1.000000 0.169291,
        1.968504 1.003937 0.000000,
        1.968504 -1.000000 0.000000,
        1.102362 1.003937 0.000000,
        1.102362 -1.000000 0.000000,
        0.905512 1.003937 0.196850,
        -1.102362 -1.000000 0.000000,
        -1.968504 -1.000000 0.000000,
      ]
    }
    coordIndex [
      10, 11, 12, -1,
      12, 11, 13, -1,
      12, 13, 14, -1,
      14, 13, 15, -1,
      12, 14, 16, -1,
      16, 14, 17, -1,
      10, 12, 8, -1,
      8, 12, 16, -1,
      8, 16, 6, -1,
      7, 18, 9, -1,
      9, 18, 19, -1,
      9, 19, 20, -1,
      21, 19, 22, -1,
      22, 19, 18, -1,
      23, 21, 24, -1,
      24, 21, 22, -1,
      25, 23, 26, -1,
      26, 23, 24, -1,
      4, 27, 25, -1,
      4, 25, 3, -1,
      3, 25, 26, -1,
      3, 26, 2, -1,
      11, 5, 13, -1,
      13, 5, 1, -1,
      13, 1, 28, -1,
      28, 1, 0, -1,
      15, 13, 29, -1,
      29, 13, 28, -1,
      14, 15, 17, -1,
      17, 15, 29, -1,
    ]
  }
}

Shape {
  appearance Appearance {
    material Material {
      diffuseColor 0.7529 0.7529 0.7529
      specularColor 0.3765 0.3765 0.3765
      ambientIntensity 0.2
      transparency 0.0000
      shininess 0.5
    }
  }
  geometry IndexedFaceSet {
    ccw TRUE
    solid FALSE
    coord DEF co Coordinate {
      point [
        -0.301333 -1.003937 0.196850,
        0.905512 -1.003937 0.196850,
        -0.905512 -1.003937 0.196850,
        -0.975635 -1.003937 0.366142,
        0.975635 -1.003937 0.366142,
      ]
    }
    coordIndex [
      1, 4, 0, -1,
      0, 4, 3, -1,
      0, 3, 2, -1,
    ]
  }
}

Shape {
  appearance Appearance {
    material Material {
      diffuseColor 1.0000 0.5020 0.0000
      specularColor 0.5020 0.2510 0.0000
      ambientIntensity 0.2
      transparency 0.0000
      shininess 0.5
    }
  }
  geometry IndexedFaceSet {
    ccw TRUE
    solid FALSE
    coord DEF co Coordinate {
      point [
        1.172485 1.003937 0.169291,
        0.975635 1.003937 0.366142,
        1.968504 1.003937 0.169291,
        1.968504 1.003937 0.000000,
        1.102362 1.003937 0.000000,
        0.905512 1.003937 0.196850,
      ]
    }
    coordIndex [
      2, 3, 0, -1,
      0, 3, 4, -1,
      0, 4, 1, -1,
      1, 4, 5, -1,
    ]
  }
}

Shape {
  appearance Appearance {
    material Material {
      diffuseColor 0.7529 0.7529 0.7529
      specularColor 0.3765 0.3765 0.3765
      ambientIntensity 0.2
      transparency 0.0000
      shininess 0.5
    }
  }
  geometry IndexedFaceSet {
    ccw TRUE
    solid FALSE
    coord DEF co Coordinate {
      point [
        -0.905512 -1.000000 0.196850,
        -0.290733 0.105996 0.196850,
        -0.234706 0.105996 0.196850,
        -0.234706 0.069655 0.196850,
        -0.290733 0.069655 0.196850,
        -0.290733 0.057541 0.196850,
        -0.015143 0.000000 0.196850,
        -0.135261 -0.001514 0.196850,
        -0.071169 0.000000 0.196850,
        -0.130058 -0.000919 0.196850,
        -0.115924 0.004516 0.196850,
        -0.290733 0.118110 0.196850,
        -0.224107 0.118110 0.196850,
        -0.099676 0.100021 0.196850,
        -0.111978 0.110802 0.196850,
        -0.095664 0.064484 0.196850,
        -0.095397 0.058937 0.196850,
        -0.147685 0.109025 0.196850,
        -0.098192 0.075958 0.196850,
        -0.190604 0.028770 0.196850,
        -0.199879 0.021743 0.196850,
        -0.199879 0.096438 0.196850,
        -0.234706 0.057541 0.196850,
        -0.234706 0.012114 0.196850,
        -0.290733 0.012114 0.196850,
        -0.290733 0.000000 0.196850,
        -0.224107 0.000000 0.196850,
        -0.104508 0.012709 0.196850,
        -0.099774 0.017627 0.196850,
        -0.071169 0.012114 0.196850,
        -0.091194 0.030572 0.196850,
        -0.086455 0.044151 0.196850,
        -0.124491 0.117153 0.196850,
        -0.138910 0.120575 0.196850,
        -0.148348 0.121139 0.196850,
        -0.165537 0.119161 0.196850,
        -0.176302 0.115468 0.196850,
        -0.189170 0.107668 0.196850,
        -0.196406 0.100790 0.196850,
        -0.107052 0.026867 0.196850,
        -0.115589 0.019060 0.196850,
        -0.189452 0.010817 0.196850,
        -0.177224 0.003104 0.196850,
        -0.084797 0.059741 0.196850,
        -0.086750 0.075874 0.196850,
        -0.091568 0.088394 0.196850,
        -0.190604 0.089340 0.196850,
        -0.181133 0.098507 0.196850,
        -0.184067 0.022171 0.196850,
        -0.170026 0.104780 0.196850,
        -0.173621 0.015017 0.196850,
        -0.162250 0.010720 0.196850,
        -0.133721 0.107307 0.196850,
        -0.121664 0.102635 0.196850,
        -0.096956 0.045922 0.196850,
        -0.100688 0.036117 0.196850,
        -0.164850 0.106618 0.196850,
        -0.151804 0.108883 0.196850,
        -0.139026 0.009729 0.196850,
        -0.127024 0.012824 0.196850,
        -0.148419 0.009085 0.196850,
        -0.110793 0.094996 0.196850,
        -0.103457 0.086431 0.196850,
        -0.163397 -0.001514 0.196850,
        -0.154389 -0.002814 0.196850,
        -0.148489 -0.003028 0.196850,
        -0.015143 0.118110 0.196850,
        -0.025742 0.118110 0.196850,
        -0.025742 0.012114 0.196850,
        -0.905512 -1.003937 0.196850,
        -0.163794 -0.001457 0.196850,
        -0.435555 0.000000 0.196850,
        -0.423985 0.000000 0.196850,
        -0.524517 0.000000 0.196850,
        -0.507056 0.037856 0.196850,
        -0.453513 0.037856 0.196850,
        -0.402562 0.028609 0.196850,
        -0.394508 0.016463 0.196850,
        -0.385667 0.008659 0.196850,
        -0.376780 0.004075 0.196850,
        -0.354701 0.117388 0.196850,
        -0.373259 0.113852 0.196850,
        -0.362372 0.000778 0.196850,
        -0.348534 0.000000 0.196850,
        -0.311932 0.000000 0.196850,
        -0.311932 0.118110 0.196850,
        -0.335781 0.118110 0.196850,
        -0.385211 0.107814 0.196850,
        -0.480012 0.118110 0.196850,
        -0.481526 0.118110 0.196850,
        -0.536039 0.000000 0.196850,
        -0.393837 0.100319 0.196850,
        -0.401366 0.089658 0.196850,
        -0.406304 0.077338 0.196850,
        -0.408675 0.063038 0.196850,
        -0.408843 0.057565 0.196850,
        -0.407181 0.041772 0.196850,
        -0.975635 -1.003937 0.366142,
        -0.975635 -1.000000 0.366142,
        -0.480012 0.118110 0.236220,
        -0.481526 0.118110 0.236220,
        -0.536039 -0.000000 0.236220,
        -0.524517 0.000000 0.236220,
        -0.507056 0.037856 0.236220,
        -0.453513 0.037856 0.236220,
        -0.435555 -0.000000 0.236220,
        -0.423985 0.000000 0.236220,
        -0.501472 0.049970 0.236220,
        -0.459262 0.049970 0.236220,
        -0.480651 0.095089 0.236220,
        -0.501472 0.049970 0.196850,
        -0.480651 0.095089 0.196850,
        -0.459262 0.049970 0.196850,
        -0.348534 0.000000 0.236220,
        -0.311932 0.000000 0.236220,
        -0.311932 0.118110 0.236220,
        -0.335781 0.118110 0.236220,
        -0.373259 0.113852 0.236220,
        -0.354701 0.117388 0.236220,
        -0.408843 0.057565 0.236220,
        -0.408675 0.063038 0.236220,
        -0.406304 0.077338 0.236220,
        -0.401366 0.089658 0.236220,
        -0.393837 0.100319 0.236220,
        -0.385211 0.107814 0.236220,
        -0.362372 0.000778 0.236220,
        -0.376780 0.004075 0.236220,
        -0.385667 0.008659 0.236220,
        -0.394508 0.016463 0.236220,
        -0.402562 0.028609 0.236220,
        -0.407181 0.041772 0.236220,
        -0.349099 0.105440 0.236220,
        -0.367131 0.102684 0.236220,
        -0.372430 0.100756 0.236220,
        -0.381254 0.095595 0.236220,
        -0.388080 0.088923 0.236220,
        -0.393504 0.080282 0.236220,
        -0.396957 0.070112 0.236220,
        -0.398243 0.057588 0.236220,
        -0.398158 0.054298 0.236220,
        -0.396067 0.041819 0.236220,
        -0.392159 0.032874 0.236220,
        -0.386293 0.025141 0.236220,
        -0.379267 0.019458 0.236220,
        -0.369852 0.015119 0.236220,
        -0.353078 0.012592 0.236220,
        -0.336089 0.012114 0.236220,
        -0.322532 0.012114 0.236220,
        -0.322532 0.105996 0.236220,
        -0.330837 0.105996 0.236220,
        -0.322532 0.105996 0.196850,
        -0.322532 0.012114 0.196850,
        -0.330837 0.105996 0.196850,
        -0.349099 0.105440 0.196850,
        -0.367131 0.102684 0.196850,
        -0.372430 0.100756 0.196850,
        -0.381254 0.095595 0.196850,
        -0.388080 0.088923 0.196850,
        -0.393504 0.080282 0.196850,
        -0.396957 0.070112 0.196850,
        -0.398243 0.057588 0.196850,
        -0.398158 0.054298 0.196850,
        -0.396067 0.041819 0.196850,
        -0.392159 0.032874 0.196850,
        -0.386293 0.025141 0.196850,
        -0.379267 0.019458 0.196850,
        -0.369852 0.015119 0.196850,
        -0.353078 0.012592 0.196850,
        -0.336089 0.012114 0.196850,
        -0.224107 0.000000 0.236220,
        -0.224107 0.118110 0.236220,
        -0.290733 0.118110 0.236220,
        -0.290733 0.105996 0.236220,
        -0.234706 0.105996 0.236220,
        -0.234706 0.069655 0.236220,
        -0.290733 0.069655 0.236220,
        -0.290733 0.057541 0.236220,
        -0.234706 0.057541 0.236220,
        -0.234706 0.012114 0.236220,
        -0.290733 0.012114 0.236220,
        -0.290733 0.000000 0.236220,
        -0.199879 0.096438 0.236220,
        -0.196406 0.100790 0.236220,
        -0.189170 0.107668 0.236220,
        -0.176302 0.115468 0.236220,
        -0.165537 0.119161 0.236220,
        -0.148348 0.121139 0.236220,
        -0.190604 0.089340 0.236220,
        -0.147685 0.109025 0.236220,
        -0.151804 0.108883 0.236220,
        -0.164850 0.106618 0.236220,
        -0.170026 0.104780 0.236220,
        -0.181133 0.098507 0.236220,
        -0.095397 0.058937 0.236220,
        -0.095664 0.064484 0.236220,
        -0.098192 0.075958 0.236220,
        -0.103457 0.086431 0.236220,
        -0.110793 0.094996 0.236220,
        -0.121664 0.102635 0.236220,
        -0.133721 0.107307 0.236220,
        -0.148419 0.009085 0.236220,
        -0.139026 0.009729 0.236220,
        -0.127024 0.012824 0.236220,
        -0.115589 0.019060 0.236220,
        -0.107052 0.026867 0.236220,
        -0.100688 0.036117 0.236220,
        -0.096956 0.045922 0.236220,
        -0.190604 0.028770 0.236220,
        -0.184067 0.022171 0.236220,
        -0.173621 0.015017 0.236220,
        -0.162250 0.010720 0.236220,
        -0.199879 0.021743 0.236220,
        -0.148489 -0.003028 0.236220,
        -0.154389 -0.002814 0.236220,
        -0.163794 -0.001457 0.236220,
        -0.177224 0.003104 0.236220,
        -0.189452 0.010817 0.236220,
        -0.130058 -0.000919 0.236220,
        -0.115924 0.004516 0.236220,
        -0.104508 0.012709 0.236220,
        -0.099774 0.017627 0.236220,
        -0.084797 0.059741 0.236220,
        -0.086455 0.044151 0.236220,
        -0.091194 0.030572 0.236220,
        -0.138910 0.120575 0.236220,
        -0.124491 0.117153 0.236220,
        -0.111978 0.110802 0.236220,
        -0.099676 0.100021 0.236220,
        -0.091568 0.088394 0.236220,
        -0.086750 0.075874 0.236220,
        -0.015143 0.000000 0.236220,
        -0.015143 0.118110 0.236220,
        -0.025742 0.118110 0.236220,
        -0.025742 0.012114 0.236220,
        -0.071169 0.012114 0.236220,
        -0.071169 0.000000 0.236220,
      ]
    }
    coordIndex [
      99, 100, 88, -1,
      88, 100, 89, -1,
      100, 101, 89, -1,
      89, 101, 90, -1,
      101, 102, 90, -1,
      90, 102, 73, -1,
      102, 103, 73, -1,
      73, 103, 74, -1,
      103, 104, 74, -1,
      74, 104, 75, -1,
      104, 105, 75, -1,
      75, 105, 71, -1,
      105, 106, 71, -1,
      71, 106, 72, -1,
      106, 99, 72, -1,
      72, 99, 88, -1,
      107, 101, 100, -1,
      99, 108, 100, -1,
      100, 108, 109, -1,
      100, 109, 107, -1,
      106, 105, 104, -1,
      102, 101, 103, -1,
      103, 101, 107, -1,
      103, 107, 104, -1,
      104, 107, 108, -1,
      104, 108, 106, -1,
      106, 108, 99, -1,
      107, 109, 110, -1,
      110, 109, 111, -1,
      108, 107, 112, -1,
      112, 107, 110, -1,
      109, 108, 111, -1,
      111, 108, 112, -1,
      113, 114, 83, -1,
      83, 114, 84, -1,
      114, 115, 84, -1,
      84, 115, 85, -1,
      115, 116, 85, -1,
      85, 116, 86, -1,
      117, 81, 80, -1,
      117, 80, 118, -1,
      118, 80, 86, -1,
      118, 86, 116, -1,
      119, 95, 94, -1,
      119, 94, 120, -1,
      120, 94, 93, -1,
      120, 93, 121, -1,
      121, 93, 92, -1,
      121, 92, 122, -1,
      122, 92, 91, -1,
      122, 91, 123, -1,
      123, 91, 87, -1,
      123, 87, 124, -1,
      124, 87, 81, -1,
      124, 81, 117, -1,
      113, 83, 82, -1,
      113, 82, 125, -1,
      125, 82, 79, -1,
      125, 79, 126, -1,
      126, 79, 78, -1,
      126, 78, 127, -1,
      127, 78, 77, -1,
      127, 77, 128, -1,
      128, 77, 76, -1,
      128, 76, 129, -1,
      129, 76, 96, -1,
      129, 96, 130, -1,
      130, 96, 95, -1,
      130, 95, 119, -1,
      131, 132, 117, -1,
      117, 132, 133, -1,
      117, 133, 124, -1,
      124, 133, 134, -1,
      124, 134, 123, -1,
      123, 134, 135, -1,
      123, 135, 122, -1,
      122, 135, 136, -1,
      122, 136, 121, -1,
      121, 136, 137, -1,
      121, 137, 120, -1,
      120, 137, 138, -1,
      120, 138, 119, -1,
      119, 138, 139, -1,
      119, 139, 130, -1,
      130, 139, 140, -1,
      130, 140, 129, -1,
      129, 140, 141, -1,
      129, 141, 128, -1,
      128, 141, 142, -1,
      128, 142, 127, -1,
      127, 142, 143, -1,
      127, 143, 126, -1,
      126, 143, 144, -1,
      126, 144, 125, -1,
      125, 144, 145, -1,
      125, 145, 113, -1,
      113, 145, 146, -1,
      113, 146, 114, -1,
      114, 146, 147, -1,
      114, 147, 115, -1,
      115, 147, 148, -1,
      115, 148, 116, -1,
      116, 148, 149, -1,
      116, 149, 118, -1,
      118, 149, 131, -1,
      118, 131, 117, -1,
      148, 147, 150, -1,
      150, 147, 151, -1,
      149, 148, 152, -1,
      152, 148, 150, -1,
      149, 152, 153, -1,
      149, 153, 131, -1,
      131, 153, 154, -1,
      131, 154, 132, -1,
      132, 154, 155, -1,
      132, 155, 133, -1,
      133, 155, 156, -1,
      133, 156, 134, -1,
      134, 156, 157, -1,
      134, 157, 135, -1,
      135, 157, 158, -1,
      135, 158, 136, -1,
      136, 158, 159, -1,
      136, 159, 137, -1,
      137, 159, 160, -1,
      137, 160, 138, -1,
      138, 160, 161, -1,
      138, 161, 139, -1,
      139, 161, 162, -1,
      139, 162, 140, -1,
      140, 162, 163, -1,
      140, 163, 141, -1,
      141, 163, 164, -1,
      141, 164, 142, -1,
      142, 164, 165, -1,
      142, 165, 143, -1,
      143, 165, 166, -1,
      143, 166, 144, -1,
      144, 166, 167, -1,
      144, 167, 145, -1,
      145, 167, 168, -1,
      145, 168, 146, -1,
      147, 146, 151, -1,
      151, 146, 168, -1,
      169, 170, 26, -1,
      26, 170, 12, -1,
      170, 171, 12, -1,
      12, 171, 11, -1,
      171, 172, 11, -1,
      11, 172, 1, -1,
      172, 173, 1, -1,
      1, 173, 2, -1,
      173, 174, 2, -1,
      2, 174, 3, -1,
      174, 175, 3, -1,
      3, 175, 4, -1,
      175, 176, 4, -1,
      4, 176, 5, -1,
      176, 177, 5, -1,
      5, 177, 22, -1,
      177, 178, 22, -1,
      22, 178, 23, -1,
      178, 179, 23, -1,
      23, 179, 24, -1,
      179, 180, 24, -1,
      24, 180, 25, -1,
      180, 169, 25, -1,
      25, 169, 26, -1,
      169, 180, 179, -1,
      179, 178, 169, -1,
      169, 178, 177, -1,
      169, 177, 170, -1,
      172, 171, 173, -1,
      173, 171, 170, -1,
      173, 170, 174, -1,
      174, 170, 177, -1,
      174, 177, 175, -1,
      175, 177, 176, -1,
      181, 21, 38, -1,
      181, 38, 182, -1,
      182, 38, 37, -1,
      182, 37, 183, -1,
      183, 37, 36, -1,
      183, 36, 184, -1,
      184, 36, 35, -1,
      184, 35, 185, -1,
      185, 35, 34, -1,
      185, 34, 186, -1,
      181, 187, 21, -1,
      21, 187, 46, -1,
      188, 17, 57, -1,
      188, 57, 189, -1,
      189, 57, 56, -1,
      189, 56, 190, -1,
      190, 56, 49, -1,
      190, 49, 191, -1,
      191, 49, 47, -1,
      191, 47, 192, -1,
      192, 47, 46, -1,
      192, 46, 187, -1,
      193, 16, 15, -1,
      193, 15, 194, -1,
      194, 15, 18, -1,
      194, 18, 195, -1,
      195, 18, 62, -1,
      195, 62, 196, -1,
      196, 62, 61, -1,
      196, 61, 197, -1,
      197, 61, 53, -1,
      197, 53, 198, -1,
      198, 53, 52, -1,
      198, 52, 199, -1,
      199, 52, 17, -1,
      199, 17, 188, -1,
      200, 60, 58, -1,
      200, 58, 201, -1,
      201, 58, 59, -1,
      201, 59, 202, -1,
      202, 59, 40, -1,
      202, 40, 203, -1,
      203, 40, 39, -1,
      203, 39, 204, -1,
      204, 39, 55, -1,
      204, 55, 205, -1,
      205, 55, 54, -1,
      205, 54, 206, -1,
      206, 54, 16, -1,
      206, 16, 193, -1,
      207, 19, 48, -1,
      207, 48, 208, -1,
      208, 48, 50, -1,
      208, 50, 209, -1,
      209, 50, 51, -1,
      209, 51, 210, -1,
      210, 51, 60, -1,
      210, 60, 200, -1,
      207, 211, 19, -1,
      19, 211, 20, -1,
      212, 65, 64, -1,
      212, 64, 213, -1,
      213, 64, 63, -1,
      213, 63, 214, -1,
      63, 70, 214, -1,
      214, 70, 42, -1,
      214, 42, 215, -1,
      215, 42, 41, -1,
      215, 41, 216, -1,
      216, 41, 20, -1,
      216, 20, 211, -1,
      65, 212, 7, -1,
      7, 212, 217, -1,
      7, 217, 9, -1,
      9, 217, 218, -1,
      9, 218, 10, -1,
      10, 218, 219, -1,
      10, 219, 27, -1,
      27, 219, 220, -1,
      27, 220, 28, -1,
      221, 43, 31, -1,
      221, 31, 222, -1,
      222, 31, 30, -1,
      222, 30, 223, -1,
      223, 30, 28, -1,
      223, 28, 220, -1,
      186, 34, 33, -1,
      186, 33, 224, -1,
      224, 33, 32, -1,
      224, 32, 225, -1,
      225, 32, 14, -1,
      225, 14, 226, -1,
      226, 14, 13, -1,
      226, 13, 227, -1,
      227, 13, 45, -1,
      227, 45, 228, -1,
      228, 45, 44, -1,
      228, 44, 229, -1,
      229, 44, 43, -1,
      229, 43, 221, -1,
      187, 181, 182, -1,
      211, 207, 216, -1,
      216, 207, 208, -1,
      216, 208, 215, -1,
      215, 208, 209, -1,
      215, 209, 214, -1,
      214, 209, 210, -1,
      214, 210, 213, -1,
      213, 210, 200, -1,
      187, 182, 192, -1,
      192, 182, 183, -1,
      192, 183, 191, -1,
      191, 183, 184, -1,
      191, 184, 190, -1,
      190, 184, 185, -1,
      190, 185, 189, -1,
      189, 185, 186, -1,
      189, 186, 188, -1,
      188, 186, 224, -1,
      188, 224, 199, -1,
      199, 224, 225, -1,
      199, 225, 198, -1,
      198, 225, 226, -1,
      198, 226, 197, -1,
      197, 226, 227, -1,
      197, 227, 196, -1,
      196, 227, 228, -1,
      196, 228, 195, -1,
      195, 228, 229, -1,
      195, 229, 194, -1,
      194, 229, 221, -1,
      194, 221, 193, -1,
      193, 221, 206, -1,
      206, 221, 222, -1,
      206, 222, 205, -1,
      205, 222, 223, -1,
      205, 223, 204, -1,
      204, 223, 220, -1,
      204, 220, 203, -1,
      203, 220, 219, -1,
      203, 219, 202, -1,
      202, 219, 218, -1,
      202, 218, 201, -1,
      201, 218, 217, -1,
      201, 217, 200, -1,
      200, 217, 212, -1,
      200, 212, 213, -1,
      230, 231, 6, -1,
      6, 231, 66, -1,
      231, 232, 66, -1,
      66, 232, 67, -1,
      232, 233, 67, -1,
      67, 233, 68, -1,
      233, 234, 68, -1,
      68, 234, 29, -1,
      234, 235, 29, -1,
      29, 235, 8, -1,
      235, 230, 8, -1,
      8, 230, 6, -1,
      232, 231, 233, -1,
      233, 231, 230, -1,
      233, 230, 234, -1,
      234, 230, 235, -1,
      111, 112, 110, -1,
      150, 151, 152, -1,
      152, 151, 168, -1,
      152, 168, 153, -1,
      153, 168, 167, -1,
      153, 167, 154, -1,
      163, 162, 167, -1,
      167, 162, 161, -1,
      167, 161, 160, -1,
      166, 165, 167, -1,
      167, 165, 164, -1,
      167, 164, 163, -1,
      160, 159, 167, -1,
      167, 159, 158, -1,
      167, 158, 157, -1,
      157, 156, 167, -1,
      167, 156, 155, -1,
      167, 155, 154, -1,
      97, 98, 69, -1,
      69, 98, 0, -1,
    ]
  }
}

Shape {
  appearance Appearance {
    material Material {
      diffuseColor 1.0000 0.5020 0.0000
      specularColor 0.5020 0.2510 0.0000
      ambientIntensity 0.2
      transparency 0.0000
      shininess 0.5
    }
  }
  geometry IndexedFaceSet {
    ccw TRUE
    solid FALSE
    coord DEF co Coordinate {
      point [
        -0.905512 -1.000000 0.196850,
        -0.975635 -1.000000 0.366142,
        -1.172485 -1.000000 0.169291,
        -1.968504 -1.000000 0.169291,
        -1.102362 -1.000000 0.000000,
        -1.968504 -1.000000 0.000000,
      ]
    }
    coordIndex [
      3, 5, 2, -1,
      2, 5, 4, -1,
      2, 4, 1, -1,
      1, 4, 0, -1,
    ]
  }
}

Shape {
  appearance Appearance {
    material Material {
      diffuseColor 0.7529 0.7529 0.7529
      specularColor 0.3765 0.3765 0.3765
      ambientIntensity 0.2
      transparency 0.0000
      shininess 0.5
    }
  }
  geometry IndexedFaceSet {
    ccw TRUE
    solid FALSE
    coord DEF co Coordinate {
      point [
        0.905512 -1.003937 0.196850,
        0.905512 -1.000000 0.196850,
        0.975635 -1.003937 0.366142,
        0.975635 -1.000000 0.366142,
      ]
    }
    coordIndex [
      0, 1, 2, -1,
      2, 1, 3, -1,
    ]
  }
}

Shape {
  appearance Appearance {
    material Material {
      diffuseColor 1.0000 0.5020 0.0000
      specularColor 0.5020 0.2510 0.0000
      ambientIntensity 0.2
      transparency 0.0000
      shininess 0.5
    }
  }
  geometry IndexedFaceSet {
    ccw TRUE
    solid FALSE
    coord DEF co Coordinate {
      point [
        0.905512 -1.000000 0.196850,
        0.975635 -1.000000 0.366142,
        1.172485 -1.000000 0.169291,
        1.968504 -1.000000 0.169291,
        1.968504 -1.000000 0.000000,
        1.102362 -1.000000 0.000000,
      ]
    }
    coordIndex [
      1, 0, 2, -1,
      2, 0, 5, -1,
      2, 5, 3, -1,
      3, 5, 4, -1,
    ]
  }
}

Shape {
  appearance Appearance {
    material Material {
      diffuseColor 0.7529 0.7529 0.7529
      specularColor 0.3765 0.3765 0.3765
      ambientIntensity 0.2
      transparency 0.0000
      shininess 0.5
    }
  }
  geometry IndexedFaceSet {
    ccw TRUE
    solid FALSE
    coord DEF co Coordinate {
      point [
        -0.301333 1.000000 0.196850,
        0.905512 1.000000 0.196850,
        -0.905512 1.000000 0.196850,
        -0.975635 1.000000 0.366142,
        0.975635 1.000000 0.366142,
        -0.975635 1.003937 0.366142,
        -0.905512 1.003937 0.196850,
        0.975635 1.003937 0.366142,
        0.905512 1.003937 0.196850,
      ]
    }
    coordIndex [
      3, 2, 5, -1,
      5, 2, 6, -1,
      1, 4, 8, -1,
      8, 4, 7, -1,
      2, 3, 0, -1,
      0, 3, 4, -1,
      0, 4, 1, -1,
    ]
  }
}
