#VRML V2.0 utf8

Shape {
  appearance Appearance {
    material Material {
      diffuseColor 0.2235 0.2235 0.2235
      specularColor 0.1137 0.1137 0.1137
      ambientIntensity 0.2
      transparency 0.0000
      shininess 0.5
    }
  }
  geometry IndexedFaceSet {
    ccw TRUE
    solid FALSE
    coord DEF co Coordinate {
      point [
        -0.056126 -0.399606 -0.110236,
        -0.048444 -0.684316 -0.110236,
        -0.056126 -0.693439 -0.110236,
        -0.048444 -0.692959 -0.110236,
        -0.006193 -0.692959 -0.110236,
        0.009171 -0.688878 -0.110236,
        0.009171 -0.680235 -0.110236,
        -0.006193 -0.614219 -0.110236,
        0.917323 -0.299213 -0.110236,
        0.964567 -0.299213 -0.110236,
        0.838583 -0.328740 -0.110236,
        0.964567 -0.693439 -0.110236,
        0.783465 -0.328740 -0.110236,
        0.783465 -0.399606 -0.110236,
        -0.016756 -0.622861 -0.110236,
        -0.016756 -0.648787 -0.110236,
        -0.046523 -0.622861 -0.110236,
        -0.044603 -0.648787 -0.110236,
        -0.016756 -0.657430 -0.110236,
        -0.016756 -0.684316 -0.110236,
        -0.044603 -0.657430 -0.110236,
        0.114798 -0.692959 -0.110236,
        0.035467 -0.693439 -0.110236,
        0.074468 -0.692959 -0.110236,
        0.040540 -0.692913 -0.110236,
        0.048172 -0.690286 -0.110236,
        -0.046523 -0.614219 -0.110236,
        0.035364 -0.622771 -0.110236,
        0.041258 -0.624898 -0.110236,
        0.010582 -0.681017 -0.110236,
        0.046708 -0.628544 -0.110236,
        0.051463 -0.633793 -0.110236,
        0.057183 -0.654429 -0.110236,
        0.056386 -0.662953 -0.110236,
        0.054247 -0.669726 -0.110236,
        0.036726 -0.684453 -0.110236,
        0.029381 -0.685276 -0.110236,
        0.042463 -0.682341 -0.110236,
        0.047295 -0.679083 -0.110236,
        0.050990 -0.675185 -0.110236,
        0.018929 -0.684117 -0.110236,
        0.063591 -0.634957 -0.110236,
        0.058975 -0.627596 -0.110236,
        0.104235 -0.614219 -0.110236,
        0.054709 -0.639873 -0.110236,
        0.056808 -0.648302 -0.110236,
        0.054506 -0.686241 -0.110236,
        0.060420 -0.680015 -0.110236,
        0.074468 -0.684316 -0.110236,
        0.064615 -0.672528 -0.110236,
        0.104235 -0.684316 -0.110236,
        0.066985 -0.664193 -0.110236,
        0.067746 -0.655074 -0.110236,
        0.066613 -0.643880 -0.110236,
        0.051867 -0.620759 -0.110236,
        0.044387 -0.616454 -0.110236,
        0.035609 -0.613904 -0.110236,
        0.027701 -0.613258 -0.110236,
        0.018275 -0.613909 -0.110236,
        0.009171 -0.616379 -0.110236,
        0.009171 -0.626942 -0.110236,
        0.018040 -0.623144 -0.110236,
        0.027611 -0.621900 -0.110236,
        -0.132945 -0.692959 -0.110236,
        -0.123252 -0.671378 -0.110236,
        -0.118737 -0.678420 -0.110236,
        -0.783465 -0.328740 -0.110236,
        -0.783465 -0.399606 -0.110236,
        -0.838583 -0.328740 -0.110236,
        -0.964567 -0.693439 -0.110236,
        -0.917323 -0.299213 -0.110236,
        -0.964567 -0.299213 -0.110236,
        -0.112256 -0.684626 -0.110236,
        -0.104034 -0.689404 -0.110236,
        -0.094961 -0.692108 -0.110236,
        -0.192481 -0.692959 -0.110236,
        -0.204004 -0.692959 -0.110236,
        -0.173276 -0.614219 -0.110236,
        -0.162713 -0.614219 -0.110236,
        -0.085218 -0.692959 -0.110236,
        -0.063807 -0.692959 -0.110236,
        -0.063807 -0.614219 -0.110236,
        -0.086028 -0.614219 -0.110236,
        -0.115269 -0.624485 -0.110236,
        -0.120837 -0.630659 -0.110236,
        -0.124497 -0.637431 -0.110236,
        -0.144469 -0.692959 -0.110236,
        -0.151985 -0.670873 -0.110236,
        -0.184513 -0.670873 -0.110236,
        -0.097404 -0.615434 -0.110236,
        -0.106617 -0.618669 -0.110236,
        -0.115187 -0.624413 -0.110236,
        -0.126612 -0.645189 -0.110236,
        -0.127184 -0.652598 -0.110236,
        -0.126079 -0.663136 -0.110236,
        -0.330709 -0.970472 -0.110236,
        -0.330709 -1.159449 -0.110236,
        -0.669291 -1.159449 -0.110236,
        -0.669291 -0.970472 -0.110236,
        -0.169291 -0.970472 -0.110236,
        -0.169291 -1.159449 -0.110236,
        -0.056126 -1.159449 -0.110236,
        -0.830709 -0.970472 -0.110236,
        -0.830709 -1.159449 -0.110236,
        -0.925197 -1.159449 -0.110236,
        -0.935387 -1.158107 -0.110236,
        -0.963226 -1.130269 -0.110236,
        -0.964567 -1.120079 -0.110236,
        -0.944882 -1.154174 -0.110236,
        -0.953036 -1.147918 -0.110236,
        -0.959293 -1.139764 -0.110236,
        0.114798 -0.614219 -0.110236,
        0.830709 -0.970472 -0.110236,
        0.830709 -1.159449 -0.110236,
        0.964567 -1.120079 -0.110236,
        0.925197 -1.159449 -0.110236,
        0.669291 -1.159449 -0.110236,
        0.330709 -1.159449 -0.110236,
        0.669291 -0.970472 -0.110236,
        0.330709 -0.970472 -0.110236,
        0.017564 -0.692324 -0.110236,
        0.025521 -0.693439 -0.110236,
        0.169291 -0.970472 -0.110236,
        0.169291 -1.159449 -0.110236,
        0.953036 -1.147918 -0.110236,
        0.959293 -1.139764 -0.110236,
        0.963226 -1.130269 -0.110236,
        0.944882 -1.154174 -0.110236,
        0.935387 -1.158107 -0.110236,
        0.028683 -0.693882 -0.110236,
        0.030837 -0.693919 -0.110236,
      ]
    }
    coordIndex [
      0, 1, 2, -1,
      2, 1, 3, -1,
      2, 3, 4, -1,
      5, 4, 6, -1,
      6, 4, 7, -1,
      8, 9, 10, -1,
      10, 9, 11, -1,
      10, 11, 12, -1,
      12, 11, 13, -1,
      14, 15, 16, -1,
      16, 15, 17, -1,
      18, 19, 20, -1,
      20, 19, 1, -1,
      21, 22, 23, -1,
      23, 22, 24, -1,
      23, 24, 25, -1,
      7, 26, 0, -1,
      0, 26, 16, -1,
      0, 16, 1, -1,
      1, 16, 17, -1,
      1, 17, 20, -1,
      27, 28, 29, -1,
      29, 28, 30, -1,
      29, 30, 31, -1,
      32, 33, 29, -1,
      29, 33, 34, -1,
      35, 36, 37, -1,
      37, 36, 38, -1,
      34, 39, 29, -1,
      29, 39, 38, -1,
      29, 38, 40, -1,
      40, 38, 36, -1,
      41, 42, 43, -1,
      31, 44, 29, -1,
      29, 44, 45, -1,
      29, 45, 32, -1,
      25, 46, 23, -1,
      23, 46, 47, -1,
      23, 47, 48, -1,
      48, 47, 49, -1,
      48, 49, 50, -1,
      49, 51, 50, -1,
      50, 51, 52, -1,
      50, 52, 43, -1,
      43, 52, 53, -1,
      43, 53, 41, -1,
      54, 55, 0, -1,
      0, 55, 56, -1,
      0, 56, 57, -1,
      57, 58, 0, -1,
      0, 58, 59, -1,
      0, 59, 7, -1,
      7, 59, 60, -1,
      7, 60, 6, -1,
      6, 60, 61, -1,
      6, 61, 29, -1,
      29, 61, 62, -1,
      29, 62, 27, -1,
      63, 64, 65, -1,
      66, 67, 68, -1,
      68, 67, 69, -1,
      68, 69, 70, -1,
      70, 69, 71, -1,
      65, 72, 63, -1,
      63, 72, 73, -1,
      63, 73, 74, -1,
      75, 2, 76, -1,
      76, 2, 69, -1,
      76, 69, 77, -1,
      77, 69, 67, -1,
      77, 67, 78, -1,
      78, 67, 0, -1,
      79, 80, 2, -1,
      2, 80, 81, -1,
      2, 81, 0, -1,
      0, 81, 82, -1,
      83, 84, 78, -1,
      78, 84, 85, -1,
      74, 79, 63, -1,
      63, 79, 2, -1,
      63, 2, 86, -1,
      86, 2, 75, -1,
      86, 75, 87, -1,
      87, 75, 88, -1,
      82, 89, 0, -1,
      0, 89, 90, -1,
      0, 90, 78, -1,
      78, 90, 91, -1,
      78, 91, 83, -1,
      85, 92, 78, -1,
      78, 92, 93, -1,
      78, 93, 63, -1,
      63, 93, 94, -1,
      63, 94, 64, -1,
      95, 96, 97, -1,
      97, 98, 95, -1,
      95, 98, 69, -1,
      95, 69, 99, -1,
      99, 69, 2, -1,
      99, 2, 100, -1,
      100, 2, 101, -1,
      98, 102, 69, -1,
      69, 102, 103, -1,
      69, 103, 104, -1,
      105, 106, 104, -1,
      104, 106, 107, -1,
      104, 107, 69, -1,
      105, 108, 106, -1,
      106, 108, 109, -1,
      106, 109, 110, -1,
      42, 54, 43, -1,
      43, 54, 0, -1,
      43, 0, 111, -1,
      111, 0, 13, -1,
      111, 13, 21, -1,
      21, 13, 11, -1,
      21, 11, 22, -1,
      22, 11, 112, -1,
      112, 11, 113, -1,
      113, 11, 114, -1,
      113, 114, 115, -1,
      116, 117, 118, -1,
      118, 117, 119, -1,
      5, 120, 4, -1,
      4, 120, 121, -1,
      4, 121, 2, -1,
      2, 121, 122, -1,
      2, 122, 101, -1,
      101, 122, 123, -1,
      124, 114, 125, -1,
      125, 114, 126, -1,
      124, 127, 114, -1,
      114, 127, 128, -1,
      114, 128, 115, -1,
      121, 129, 122, -1,
      122, 129, 130, -1,
      122, 130, 119, -1,
      119, 130, 22, -1,
      119, 22, 118, -1,
      118, 22, 112, -1,
    ]
  }
}

Shape {
  appearance Appearance {
    material Material {
      diffuseColor 1.0000 1.0000 1.0000
      specularColor 0.5020 0.5020 0.5020
      ambientIntensity 0.2
      transparency 0.0000
      shininess 0.5
    }
  }
  geometry IndexedFaceSet {
    ccw TRUE
    solid FALSE
    coord DEF co Coordinate {
      point [
        -0.330709 -0.970472 -0.110236,
        -0.330709 -1.159449 -0.110236,
        -0.669291 -1.159449 -0.110236,
        -0.669291 -0.970472 -0.110236,
        -0.169291 -0.970472 -0.110236,
        -0.169291 -1.159449 -0.110236,
        -0.830709 -0.970472 -0.110236,
        -0.830709 -1.159449 -0.110236,
        0.830709 -0.970472 -0.110236,
        0.830709 -1.159449 -0.110236,
        0.669291 -1.159449 -0.110236,
        0.330709 -1.159449 -0.110236,
        0.669291 -0.970472 -0.110236,
        0.330709 -0.970472 -0.110236,
        0.169291 -0.970472 -0.110236,
        0.169291 -1.159449 -0.110236,
        -0.811024 -1.210630 0.000000,
        -0.688976 -1.210630 0.000000,
        -0.811024 -1.190945 0.000000,
        -0.688976 -1.190945 0.000000,
        -0.830709 -1.159449 0.000000,
        -0.669291 -1.159449 0.000000,
        -0.669291 -1.159449 -0.114173,
        -0.669291 -0.970472 -0.114173,
        -0.830709 -1.159449 -0.114173,
        -0.830709 -0.970472 -0.114173,
        -0.811024 -1.210630 -0.114173,
        -0.688976 -1.210630 -0.114173,
        -0.688976 -1.190945 -0.114173,
        -0.811024 -1.190945 -0.114173,
        -0.330709 -1.159449 -0.114173,
        -0.330709 -0.970472 -0.114173,
        -0.169291 -1.159449 -0.114173,
        -0.169291 -0.970472 -0.114173,
        -0.169291 -1.159449 0.000000,
        -0.330709 -1.159449 0.000000,
        -0.311024 -1.190945 0.000000,
        -0.311024 -1.210630 0.000000,
        -0.188976 -1.210630 0.000000,
        -0.188976 -1.190945 0.000000,
        -0.311024 -1.210630 -0.114173,
        -0.188976 -1.210630 -0.114173,
        -0.188976 -1.190945 -0.114173,
        -0.311024 -1.190945 -0.114173,
        0.169291 -1.159449 -0.114173,
        0.169291 -0.970472 -0.114173,
        0.330709 -1.159449 -0.114173,
        0.330709 -0.970472 -0.114173,
        0.330709 -1.159449 0.000000,
        0.169291 -1.159449 0.000000,
        0.188976 -1.190945 0.000000,
        0.188976 -1.210630 0.000000,
        0.311024 -1.210630 0.000000,
        0.311024 -1.190945 0.000000,
        0.188976 -1.210630 -0.114173,
        0.311024 -1.210630 -0.114173,
        0.311024 -1.190945 -0.114173,
        0.188976 -1.190945 -0.114173,
        0.669291 -1.159449 -0.114173,
        0.669291 -0.970472 -0.114173,
        0.830709 -1.159449 -0.114173,
        0.830709 -0.970472 -0.114173,
        0.830709 -1.159449 0.000000,
        0.669291 -1.159449 0.000000,
        0.688976 -1.190945 0.000000,
        0.688976 -1.210630 0.000000,
        0.811024 -1.210630 0.000000,
        0.811024 -1.190945 0.000000,
        0.688976 -1.210630 -0.114173,
        0.811024 -1.210630 -0.114173,
        0.811024 -1.190945 -0.114173,
        0.688976 -1.190945 -0.114173,
      ]
    }
    coordIndex [
      16, 17, 18, -1,
      18, 17, 19, -1,
      18, 19, 20, -1,
      20, 19, 21, -1,
      22, 23, 2, -1,
      2, 23, 3, -1,
      7, 6, 24, -1,
      24, 6, 25, -1,
      26, 27, 16, -1,
      16, 27, 17, -1,
      28, 27, 26, -1,
      26, 29, 28, -1,
      28, 29, 24, -1,
      28, 24, 22, -1,
      22, 24, 25, -1,
      22, 25, 23, -1,
      1, 0, 30, -1,
      30, 0, 31, -1,
      32, 33, 5, -1,
      5, 33, 4, -1,
      34, 35, 36, -1,
      37, 38, 36, -1,
      36, 38, 39, -1,
      36, 39, 34, -1,
      40, 41, 37, -1,
      37, 41, 38, -1,
      42, 41, 40, -1,
      40, 43, 42, -1,
      42, 43, 30, -1,
      42, 30, 32, -1,
      32, 30, 31, -1,
      32, 31, 33, -1,
      15, 14, 44, -1,
      44, 14, 45, -1,
      46, 47, 11, -1,
      11, 47, 13, -1,
      48, 49, 50, -1,
      51, 52, 50, -1,
      50, 52, 53, -1,
      50, 53, 48, -1,
      54, 55, 51, -1,
      51, 55, 52, -1,
      56, 55, 54, -1,
      54, 57, 56, -1,
      56, 57, 44, -1,
      56, 44, 46, -1,
      46, 44, 45, -1,
      46, 45, 47, -1,
      10, 12, 58, -1,
      58, 12, 59, -1,
      60, 61, 9, -1,
      9, 61, 8, -1,
      62, 63, 64, -1,
      65, 66, 64, -1,
      64, 66, 67, -1,
      64, 67, 62, -1,
      68, 69, 65, -1,
      65, 69, 66, -1,
      70, 69, 68, -1,
      68, 71, 70, -1,
      70, 71, 58, -1,
      70, 58, 60, -1,
      60, 58, 59, -1,
      60, 59, 61, -1,
    ]
  }
}

Shape {
  appearance Appearance {
    material Material {
      diffuseColor 0.2235 0.2235 0.2235
      specularColor 0.1137 0.1137 0.1137
      ambientIntensity 0.2
      transparency 0.0000
      shininess 0.5
    }
  }
  geometry IndexedFaceSet {
    ccw TRUE
    solid FALSE
    coord DEF co Coordinate {
      point [
        0.964567 -0.299213 -0.110236,
        0.964567 -0.693439 -0.110236,
        -0.964567 -0.693439 -0.110236,
        -0.964567 -0.299213 -0.110236,
        -0.330709 -1.159449 -0.110236,
        -0.669291 -1.159449 -0.110236,
        -0.169291 -1.159449 -0.110236,
        -0.056126 -1.159449 -0.110236,
        -0.830709 -1.159449 -0.110236,
        -0.925197 -1.159449 -0.110236,
        -0.964567 -1.120079 -0.110236,
        0.830709 -1.159449 -0.110236,
        0.964567 -1.120079 -0.110236,
        0.925197 -1.159449 -0.110236,
        0.669291 -1.159449 -0.110236,
        0.330709 -1.159449 -0.110236,
        0.169291 -1.159449 -0.110236,
        -0.830709 -1.159449 0.000000,
        -0.669291 -1.159449 0.000000,
        -0.169291 -1.159449 0.000000,
        -0.330709 -1.159449 0.000000,
        0.330709 -1.159449 0.000000,
        0.169291 -1.159449 0.000000,
        0.830709 -1.159449 0.000000,
        0.669291 -1.159449 0.000000,
        0.964567 -0.299213 0.000000,
        0.964567 -1.120079 0.000000,
        -0.964567 1.120079 -0.110236,
        -0.964567 -0.200787 -0.110236,
        -0.964567 1.120079 0.000000,
        -0.964567 -0.200787 0.000000,
        0.925197 1.159449 -0.110236,
        0.830709 1.159449 -0.110236,
        0.925197 1.159449 0.000000,
        0.830709 1.159449 0.000000,
        0.330709 1.159449 -0.110236,
        0.330709 1.159449 0.000000,
        0.669291 1.159449 -0.110236,
        0.669291 1.159449 0.000000,
        -0.169291 1.159449 -0.110236,
        -0.169291 1.159449 0.000000,
        0.169291 1.159449 -0.110236,
        0.169291 1.159449 0.000000,
        -0.669291 1.159449 -0.110236,
        -0.669291 1.159449 0.000000,
        -0.330709 1.159449 -0.110236,
        -0.330709 1.159449 0.000000,
        0.830709 0.970472 -0.110236,
        0.740157 -0.171260 -0.110236,
        0.740157 0.970472 -0.110236,
        0.838583 -0.171260 -0.110236,
        0.917323 -0.200787 -0.110236,
        0.964567 -0.200787 -0.110236,
        0.964567 1.120079 -0.110236,
        0.933957 1.158462 -0.110236,
        0.942279 1.155550 -0.110236,
        0.949744 1.150859 -0.110236,
        0.955978 1.144626 -0.110236,
        0.960668 1.137161 -0.110236,
        0.963580 1.128839 -0.110236,
        0.669291 1.049213 -0.110236,
        0.391928 0.972446 -0.110236,
        0.330709 1.049213 -0.110236,
        0.409449 0.970472 -0.110236,
        0.590551 0.970472 -0.110236,
        0.646229 0.993535 -0.110236,
        0.658742 1.009843 -0.110236,
        0.666608 1.028833 -0.110236,
        0.629921 0.981022 -0.110236,
        0.610931 0.973156 -0.110236,
        0.360355 0.987651 -0.110236,
        0.347887 1.000119 -0.110236,
        0.375285 0.978270 -0.110236,
        0.338506 1.015048 -0.110236,
        0.332683 1.031691 -0.110236,
        0.169291 0.970472 -0.110236,
        -0.169291 0.970472 -0.110236,
        -0.330709 1.049213 -0.110236,
        -0.667317 1.031691 -0.110236,
        -0.669291 1.049213 -0.110236,
        -0.608072 0.972446 -0.110236,
        -0.590551 0.970472 -0.110236,
        -0.409449 0.970472 -0.110236,
        -0.333392 1.028833 -0.110236,
        -0.639645 0.987651 -0.110236,
        -0.652113 1.000119 -0.110236,
        -0.661494 1.015048 -0.110236,
        -0.341258 1.009843 -0.110236,
        -0.353771 0.993535 -0.110236,
        -0.389069 0.973156 -0.110236,
        -0.370079 0.981022 -0.110236,
        -0.624715 0.978270 -0.110236,
        0.925197 -1.159449 0.000000,
        0.964567 1.120079 0.000000,
        0.964567 -0.200787 0.000000,
        -0.925197 -1.159449 0.000000,
        -0.964567 -1.120079 0.000000,
        -0.964567 -0.299213 0.000000,
        -0.925197 1.159449 0.000000,
        -0.830709 1.159449 0.000000,
        -0.925197 1.159449 -0.110236,
        -0.830709 1.159449 -0.110236,
        -0.838583 -0.171260 -0.110236,
        -0.917323 -0.200787 -0.110236,
        -0.740157 0.970472 -0.110236,
        -0.740157 -0.171260 -0.110236,
        -0.830709 0.970472 -0.110236,
        -0.963226 1.130269 -0.110236,
        -0.959293 1.139764 -0.110236,
        -0.953036 1.147918 -0.110236,
        -0.944882 1.154174 -0.110236,
        -0.935387 1.158107 -0.110236,
        0.932073 -1.087878 0.264641,
        0.964566 -1.120371 0.000009,
        0.932073 1.087878 0.264641,
        0.964566 1.120371 0.000009,
        -0.925489 1.159448 0.000009,
        -0.892996 1.126955 0.264641,
        0.925489 1.159448 0.000009,
        0.892996 1.126955 0.264641,
        -0.964566 -1.120371 0.000009,
        -0.932073 -1.087878 0.264641,
        -0.964566 1.120371 0.000009,
        -0.932073 1.087878 0.264641,
        -0.925489 -1.159448 0.000009,
        -0.892996 -1.126955 0.264641,
        0.892996 -1.126955 0.264641,
        0.925489 -1.159448 0.000009,
        -0.645519 -0.795955 0.299213,
        0.892996 -1.087878 0.299213,
        -0.637924 -0.777619 0.299213,
        -0.635334 -0.757942 0.299213,
        -0.777198 -0.795955 0.299213,
        -0.784793 -0.777619 0.299213,
        -0.892996 -1.087878 0.299213,
        -0.787383 -0.757942 0.299213,
        -0.892996 1.087878 0.299213,
        -0.784793 -0.738265 0.299213,
        -0.777198 -0.719930 0.299213,
        -0.711359 -0.833967 0.299213,
        -0.731035 -0.831376 0.299213,
        -0.749371 -0.823782 0.299213,
        -0.765116 -0.811700 0.299213,
        -0.657601 -0.811700 0.299213,
        -0.673346 -0.823782 0.299213,
        -0.691682 -0.831376 0.299213,
        -0.765116 -0.704185 0.299213,
        -0.749371 -0.692103 0.299213,
        -0.731035 -0.684508 0.299213,
        -0.673346 -0.692103 0.299213,
        0.892996 1.087878 0.299213,
        -0.691682 -0.684508 0.299213,
        -0.711359 -0.681917 0.299213,
        -0.657601 -0.704185 0.299213,
        -0.645519 -0.719930 0.299213,
        -0.637924 -0.738265 0.299213,
      ]
    }
    coordIndex [
      21, 15, 24, -1,
      24, 15, 14, -1,
      16, 22, 7, -1,
      7, 22, 19, -1,
      7, 19, 6, -1,
      18, 5, 20, -1,
      20, 5, 4, -1,
      0, 25, 1, -1,
      1, 25, 26, -1,
      1, 26, 12, -1,
      27, 28, 29, -1,
      29, 28, 30, -1,
      31, 32, 33, -1,
      33, 32, 34, -1,
      35, 36, 37, -1,
      37, 36, 38, -1,
      39, 40, 41, -1,
      41, 40, 42, -1,
      43, 44, 45, -1,
      45, 44, 46, -1,
      47, 32, 31, -1,
      48, 49, 50, -1,
      50, 49, 47, -1,
      50, 47, 51, -1,
      51, 47, 52, -1,
      52, 47, 31, -1,
      52, 31, 53, -1,
      31, 54, 53, -1,
      53, 54, 55, -1,
      53, 55, 56, -1,
      56, 57, 53, -1,
      53, 57, 58, -1,
      53, 58, 59, -1,
      35, 37, 60, -1,
      61, 62, 63, -1,
      63, 62, 35, -1,
      63, 35, 64, -1,
      64, 35, 60, -1,
      65, 60, 66, -1,
      66, 60, 67, -1,
      65, 68, 60, -1,
      60, 68, 69, -1,
      60, 69, 64, -1,
      70, 71, 72, -1,
      72, 71, 73, -1,
      72, 73, 61, -1,
      61, 73, 74, -1,
      61, 74, 62, -1,
      75, 76, 41, -1,
      41, 76, 39, -1,
      43, 45, 77, -1,
      78, 79, 80, -1,
      80, 79, 81, -1,
      81, 79, 43, -1,
      81, 43, 82, -1,
      82, 43, 77, -1,
      82, 77, 83, -1,
      84, 85, 86, -1,
      83, 87, 82, -1,
      82, 87, 88, -1,
      82, 88, 89, -1,
      89, 88, 90, -1,
      78, 80, 86, -1,
      86, 80, 91, -1,
      86, 91, 84, -1,
      92, 23, 13, -1,
      13, 23, 11, -1,
      93, 94, 53, -1,
      53, 94, 52, -1,
      9, 8, 95, -1,
      95, 8, 17, -1,
      10, 96, 2, -1,
      2, 96, 97, -1,
      2, 97, 3, -1,
      98, 99, 100, -1,
      100, 99, 101, -1,
      102, 103, 28, -1,
      104, 105, 106, -1,
      106, 105, 102, -1,
      102, 28, 106, -1,
      106, 28, 27, -1,
      106, 27, 107, -1,
      107, 108, 106, -1,
      106, 108, 109, -1,
      106, 109, 110, -1,
      110, 111, 106, -1,
      106, 111, 100, -1,
      106, 100, 101, -1,
      112, 113, 26, -1,
      26, 25, 112, -1,
      112, 25, 94, -1,
      112, 94, 114, -1,
      114, 94, 93, -1,
      114, 93, 115, -1,
      98, 116, 117, -1,
      118, 33, 119, -1,
      119, 33, 34, -1,
      119, 34, 38, -1,
      38, 36, 119, -1,
      119, 36, 42, -1,
      119, 42, 117, -1,
      117, 42, 40, -1,
      117, 40, 46, -1,
      46, 44, 117, -1,
      117, 44, 99, -1,
      117, 99, 98, -1,
      96, 120, 121, -1,
      122, 29, 123, -1,
      123, 29, 30, -1,
      123, 30, 121, -1,
      121, 30, 97, -1,
      121, 97, 96, -1,
      124, 95, 125, -1,
      125, 95, 17, -1,
      125, 17, 18, -1,
      126, 21, 24, -1,
      18, 20, 125, -1,
      125, 20, 19, -1,
      125, 19, 126, -1,
      126, 19, 22, -1,
      126, 22, 21, -1,
      24, 23, 126, -1,
      126, 23, 92, -1,
      126, 92, 127, -1,
      128, 129, 130, -1,
      130, 129, 131, -1,
      132, 133, 134, -1,
      134, 133, 135, -1,
      134, 135, 136, -1,
      136, 135, 137, -1,
      136, 137, 138, -1,
      139, 140, 134, -1,
      140, 141, 134, -1,
      134, 141, 142, -1,
      134, 142, 132, -1,
      128, 143, 129, -1,
      129, 143, 144, -1,
      129, 144, 134, -1,
      134, 144, 145, -1,
      134, 145, 139, -1,
      138, 146, 136, -1,
      136, 146, 147, -1,
      136, 147, 148, -1,
      149, 150, 151, -1,
      151, 150, 136, -1,
      151, 136, 152, -1,
      152, 136, 148, -1,
      149, 153, 150, -1,
      150, 153, 154, -1,
      150, 154, 129, -1,
      129, 154, 155, -1,
      129, 155, 131, -1,
    ]
  }
}

Shape {
  appearance Appearance {
    material Material {
      diffuseColor 0.6471 0.6471 0.6471
      specularColor 0.3216 0.3216 0.3216
      ambientIntensity 0.2
      transparency 0.0000
      shininess 0.5
    }
  }
  geometry IndexedFaceSet {
    ccw TRUE
    solid FALSE
    coord DEF co Coordinate {
      point [
        -0.645519 -0.795955 0.299213,
        -0.637924 -0.777619 0.299213,
        -0.635334 -0.757942 0.299213,
        -0.777198 -0.795955 0.299213,
        -0.784793 -0.777619 0.299213,
        -0.787383 -0.757942 0.299213,
        -0.784793 -0.738265 0.299213,
        -0.777198 -0.719930 0.299213,
        -0.711359 -0.833967 0.299213,
        -0.731035 -0.831376 0.299213,
        -0.749371 -0.823782 0.299213,
        -0.765116 -0.811700 0.299213,
        -0.657601 -0.811700 0.299213,
        -0.673346 -0.823782 0.299213,
        -0.691682 -0.831376 0.299213,
        -0.765116 -0.704185 0.299213,
        -0.749371 -0.692103 0.299213,
        -0.731035 -0.684508 0.299213,
        -0.673346 -0.692103 0.299213,
        -0.691682 -0.684508 0.299213,
        -0.711359 -0.681917 0.299213,
        -0.657601 -0.704185 0.299213,
        -0.645519 -0.719930 0.299213,
        -0.637924 -0.738265 0.299213,
        -0.635334 -0.757942 0.298819,
        -0.637924 -0.738265 0.298819,
        -0.645519 -0.719930 0.298819,
        -0.657601 -0.704185 0.298819,
        -0.673346 -0.692103 0.298819,
        -0.691682 -0.684508 0.298819,
        -0.711359 -0.681917 0.298819,
        -0.731035 -0.684508 0.298819,
        -0.749371 -0.692103 0.298819,
        -0.765116 -0.704185 0.298819,
        -0.777198 -0.719930 0.298819,
        -0.784793 -0.738265 0.298819,
        -0.787383 -0.757942 0.298819,
        -0.784793 -0.777619 0.298819,
        -0.777198 -0.795955 0.298819,
        -0.765116 -0.811700 0.298819,
        -0.749371 -0.823782 0.298819,
        -0.731035 -0.831376 0.298819,
        -0.711359 -0.833967 0.298819,
        -0.691682 -0.831376 0.298819,
        -0.673346 -0.823782 0.298819,
        -0.657601 -0.811700 0.298819,
        -0.645519 -0.795955 0.298819,
        -0.637924 -0.777619 0.298819,
        -0.711359 -0.757942 0.298819,
      ]
    }
    coordIndex [
      24, 2, 25, -1,
      25, 2, 23, -1,
      25, 23, 26, -1,
      26, 23, 22, -1,
      26, 22, 27, -1,
      27, 22, 21, -1,
      27, 21, 28, -1,
      28, 21, 18, -1,
      28, 18, 29, -1,
      29, 18, 19, -1,
      29, 19, 30, -1,
      30, 19, 20, -1,
      30, 20, 31, -1,
      31, 20, 17, -1,
      31, 17, 32, -1,
      32, 17, 16, -1,
      32, 16, 33, -1,
      33, 16, 15, -1,
      33, 15, 34, -1,
      34, 15, 7, -1,
      34, 7, 35, -1,
      35, 7, 6, -1,
      35, 6, 36, -1,
      36, 6, 5, -1,
      36, 5, 37, -1,
      37, 5, 4, -1,
      37, 4, 38, -1,
      38, 4, 3, -1,
      38, 3, 39, -1,
      39, 3, 11, -1,
      39, 11, 40, -1,
      40, 11, 10, -1,
      40, 10, 41, -1,
      41, 10, 9, -1,
      41, 9, 42, -1,
      42, 9, 8, -1,
      42, 8, 43, -1,
      43, 8, 14, -1,
      43, 14, 44, -1,
      44, 14, 13, -1,
      44, 13, 45, -1,
      45, 13, 12, -1,
      45, 12, 46, -1,
      46, 12, 0, -1,
      46, 0, 47, -1,
      47, 0, 1, -1,
      47, 1, 24, -1,
      24, 1, 2, -1,
      46, 47, 48, -1,
      48, 47, 24, -1,
      48, 24, 25, -1,
      43, 44, 48, -1,
      48, 44, 45, -1,
      48, 45, 46, -1,
      40, 41, 48, -1,
      48, 41, 42, -1,
      48, 42, 43, -1,
      37, 38, 48, -1,
      48, 38, 39, -1,
      48, 39, 40, -1,
      34, 35, 48, -1,
      48, 35, 36, -1,
      48, 36, 37, -1,
      31, 32, 48, -1,
      48, 32, 33, -1,
      48, 33, 34, -1,
      28, 29, 48, -1,
      48, 29, 30, -1,
      48, 30, 31, -1,
      25, 26, 48, -1,
      48, 26, 27, -1,
      48, 27, 28, -1,
    ]
  }
}

Shape {
  appearance Appearance {
    material Material {
      diffuseColor 1.0000 1.0000 1.0000
      specularColor 0.5020 0.5020 0.5020
      ambientIntensity 0.2
      transparency 0.0000
      shininess 0.5
    }
  }
  geometry IndexedFaceSet {
    ccw TRUE
    solid FALSE
    coord DEF co Coordinate {
      point [
        -0.056126 -0.399606 -0.110236,
        0.917323 -0.299213 -0.110236,
        0.964567 -0.299213 -0.110236,
        0.838583 -0.328740 -0.110236,
        0.783465 -0.328740 -0.110236,
        0.783465 -0.399606 -0.110236,
        -0.783465 -0.328740 -0.110236,
        -0.783465 -0.399606 -0.110236,
        -0.838583 -0.328740 -0.110236,
        -0.917323 -0.299213 -0.110236,
        -0.964567 -0.299213 -0.110236,
        -0.330709 -0.970472 -0.110236,
        -0.669291 -0.970472 -0.110236,
        -0.169291 -0.970472 -0.110236,
        -0.830709 -0.970472 -0.110236,
        0.830709 -0.970472 -0.110236,
        0.669291 -0.970472 -0.110236,
        0.330709 -0.970472 -0.110236,
        0.169291 -0.970472 -0.110236,
        -0.669291 -0.970472 -0.114173,
        -0.830709 -0.970472 -0.114173,
        -0.330709 -0.970472 -0.114173,
        -0.169291 -0.970472 -0.114173,
        0.169291 -0.970472 -0.114173,
        0.330709 -0.970472 -0.114173,
        0.669291 -0.970472 -0.114173,
        0.830709 -0.970472 -0.114173,
        0.964567 -0.299213 0.000000,
        -0.964567 -0.200787 -0.110236,
        -0.964567 -0.200787 0.000000,
        0.830709 1.159449 -0.110236,
        0.830709 1.159449 0.000000,
        0.330709 1.159449 -0.110236,
        0.330709 1.159449 0.000000,
        0.669291 1.159449 -0.110236,
        0.669291 1.159449 0.000000,
        -0.169291 1.159449 -0.110236,
        -0.169291 1.159449 0.000000,
        0.169291 1.159449 -0.110236,
        0.169291 1.159449 0.000000,
        -0.669291 1.159449 -0.110236,
        -0.669291 1.159449 0.000000,
        -0.330709 1.159449 -0.110236,
        -0.330709 1.159449 0.000000,
        0.830709 0.970472 -0.110236,
        0.740157 -0.171260 -0.110236,
        0.740157 0.970472 -0.110236,
        0.838583 -0.171260 -0.110236,
        0.917323 -0.200787 -0.110236,
        0.964567 -0.200787 -0.110236,
        0.669291 1.049213 -0.110236,
        0.391928 0.972446 -0.110236,
        0.330709 1.049213 -0.110236,
        0.409449 0.970472 -0.110236,
        0.590551 0.970472 -0.110236,
        0.646229 0.993535 -0.110236,
        0.658742 1.009843 -0.110236,
        0.666608 1.028833 -0.110236,
        0.629921 0.981022 -0.110236,
        0.610931 0.973156 -0.110236,
        0.360355 0.987651 -0.110236,
        0.347887 1.000119 -0.110236,
        0.375285 0.978270 -0.110236,
        0.338506 1.015048 -0.110236,
        0.332683 1.031691 -0.110236,
        0.169291 0.970472 -0.110236,
        -0.169291 0.970472 -0.110236,
        -0.330709 1.049213 -0.110236,
        -0.667317 1.031691 -0.110236,
        -0.669291 1.049213 -0.110236,
        -0.608072 0.972446 -0.110236,
        -0.590551 0.970472 -0.110236,
        -0.409449 0.970472 -0.110236,
        -0.333392 1.028833 -0.110236,
        -0.639645 0.987651 -0.110236,
        -0.652113 1.000119 -0.110236,
        -0.661494 1.015048 -0.110236,
        -0.341258 1.009843 -0.110236,
        -0.353771 0.993535 -0.110236,
        -0.389069 0.973156 -0.110236,
        -0.370079 0.981022 -0.110236,
        -0.624715 0.978270 -0.110236,
        0.964567 -0.200787 0.000000,
        -0.964567 -0.299213 0.000000,
        -0.830709 1.159449 0.000000,
        -0.830709 1.159449 -0.110236,
        -0.838583 -0.171260 -0.110236,
        -0.917323 -0.200787 -0.110236,
        -0.740157 0.970472 -0.110236,
        -0.740157 -0.171260 -0.110236,
        -0.830709 0.970472 -0.110236,
        -0.838583 -0.171260 -0.114173,
        -0.917323 -0.200787 -0.114173,
        -0.917323 -0.299213 -0.114173,
        -0.838583 -0.328740 -0.114173,
        -0.783465 -0.328740 -0.114173,
        -0.783465 -0.399606 -0.114173,
        0.783465 -0.399606 -0.114173,
        0.838583 -0.328740 -0.114173,
        0.783465 -0.328740 -0.114173,
        0.917323 -0.299213 -0.114173,
        0.917323 -0.200787 -0.114173,
        0.838583 -0.171260 -0.114173,
        0.740157 -0.171260 -0.114173,
        0.740157 0.970472 -0.114173,
        0.830709 0.970472 -0.114173,
        0.669291 1.049213 -0.114173,
        0.666608 1.028833 -0.114173,
        0.658742 1.009843 -0.114173,
        0.646229 0.993535 -0.114173,
        0.629921 0.981022 -0.114173,
        0.610931 0.973156 -0.114173,
        0.590551 0.970472 -0.114173,
        0.409449 0.970472 -0.114173,
        0.391928 0.972446 -0.114173,
        0.375285 0.978270 -0.114173,
        0.360355 0.987651 -0.114173,
        0.347887 1.000119 -0.114173,
        0.338506 1.015048 -0.114173,
        0.332683 1.031691 -0.114173,
        0.330709 1.049213 -0.114173,
        0.169291 0.970472 -0.114173,
        -0.169291 0.970472 -0.114173,
        -0.330709 1.049213 -0.114173,
        -0.333392 1.028833 -0.114173,
        -0.341258 1.009843 -0.114173,
        -0.353771 0.993535 -0.114173,
        -0.370079 0.981022 -0.114173,
        -0.389069 0.973156 -0.114173,
        -0.409449 0.970472 -0.114173,
        -0.590551 0.970472 -0.114173,
        -0.608072 0.972446 -0.114173,
        -0.624715 0.978270 -0.114173,
        -0.639645 0.987651 -0.114173,
        -0.652113 1.000119 -0.114173,
        -0.661494 1.015048 -0.114173,
        -0.667317 1.031691 -0.114173,
        -0.669291 1.049213 -0.114173,
        -0.830709 0.970472 -0.114173,
        -0.740157 0.970472 -0.114173,
        -0.740157 -0.171260 -0.114173,
        1.013780 -0.299213 0.000000,
        1.013780 -0.200787 0.000000,
        0.811024 1.190945 0.000000,
        0.811024 1.210630 0.000000,
        0.688976 1.210630 0.000000,
        0.688976 1.190945 0.000000,
        0.311024 1.190945 0.000000,
        0.311024 1.210630 0.000000,
        0.188976 1.210630 0.000000,
        0.188976 1.190945 0.000000,
        -0.188976 1.190945 0.000000,
        -0.188976 1.210630 0.000000,
        -0.311024 1.210630 0.000000,
        -0.311024 1.190945 0.000000,
        -0.688976 1.190945 0.000000,
        -0.688976 1.210630 0.000000,
        -0.811024 1.210630 0.000000,
        -0.811024 1.190945 0.000000,
        -1.013780 -0.200787 0.000000,
        -1.013780 -0.299213 0.000000,
        -1.013780 -0.200787 -0.114173,
        -1.013780 -0.299213 -0.114173,
        1.013780 -0.299213 -0.114173,
        1.013780 -0.200787 -0.114173,
        0.830709 1.159449 -0.114173,
        0.811024 1.210630 -0.114173,
        0.688976 1.210630 -0.114173,
        0.669291 1.159449 -0.114173,
        0.330709 1.159449 -0.114173,
        0.311024 1.210630 -0.114173,
        0.188976 1.210630 -0.114173,
        0.169291 1.159449 -0.114173,
        -0.169291 1.159449 -0.114173,
        -0.188976 1.210630 -0.114173,
        -0.311024 1.210630 -0.114173,
        -0.330709 1.159449 -0.114173,
        -0.669291 1.159449 -0.114173,
        -0.688976 1.210630 -0.114173,
        -0.811024 1.210630 -0.114173,
        -0.830709 1.159449 -0.114173,
        0.688976 1.190945 -0.114173,
        0.811024 1.190945 -0.114173,
        -0.811024 1.190945 -0.114173,
        -0.688976 1.190945 -0.114173,
        -0.311024 1.190945 -0.114173,
        -0.188976 1.190945 -0.114173,
        0.188976 1.190945 -0.114173,
        0.311024 1.190945 -0.114173,
      ]
    }
    coordIndex [
      19, 20, 12, -1,
      12, 20, 14, -1,
      91, 92, 86, -1,
      86, 92, 87, -1,
      93, 94, 9, -1,
      9, 94, 8, -1,
      8, 94, 6, -1,
      6, 94, 95, -1,
      7, 96, 0, -1,
      0, 96, 97, -1,
      0, 97, 5, -1,
      98, 3, 99, -1,
      99, 3, 4, -1,
      98, 100, 3, -1,
      3, 100, 1, -1,
      101, 102, 48, -1,
      48, 102, 47, -1,
      102, 103, 47, -1,
      47, 103, 45, -1,
      103, 104, 45, -1,
      45, 104, 46, -1,
      104, 105, 46, -1,
      46, 105, 44, -1,
      50, 106, 57, -1,
      57, 106, 107, -1,
      57, 107, 56, -1,
      56, 107, 108, -1,
      56, 108, 55, -1,
      55, 108, 109, -1,
      55, 109, 58, -1,
      58, 109, 110, -1,
      58, 110, 59, -1,
      59, 110, 111, -1,
      59, 111, 54, -1,
      54, 111, 112, -1,
      112, 113, 54, -1,
      54, 113, 53, -1,
      53, 113, 51, -1,
      51, 113, 114, -1,
      51, 114, 62, -1,
      62, 114, 115, -1,
      62, 115, 60, -1,
      60, 115, 116, -1,
      60, 116, 61, -1,
      61, 116, 117, -1,
      61, 117, 63, -1,
      63, 117, 118, -1,
      63, 118, 64, -1,
      64, 118, 119, -1,
      64, 119, 52, -1,
      52, 119, 120, -1,
      121, 122, 65, -1,
      65, 122, 66, -1,
      67, 123, 73, -1,
      73, 123, 124, -1,
      73, 124, 77, -1,
      77, 124, 125, -1,
      77, 125, 78, -1,
      78, 125, 126, -1,
      78, 126, 80, -1,
      80, 126, 127, -1,
      80, 127, 79, -1,
      79, 127, 128, -1,
      79, 128, 72, -1,
      72, 128, 129, -1,
      129, 130, 72, -1,
      72, 130, 71, -1,
      71, 130, 70, -1,
      70, 130, 131, -1,
      70, 131, 81, -1,
      81, 131, 132, -1,
      81, 132, 74, -1,
      74, 132, 133, -1,
      74, 133, 75, -1,
      75, 133, 134, -1,
      75, 134, 76, -1,
      76, 134, 135, -1,
      76, 135, 68, -1,
      68, 135, 136, -1,
      68, 136, 69, -1,
      69, 136, 137, -1,
      138, 139, 90, -1,
      90, 139, 88, -1,
      139, 140, 88, -1,
      88, 140, 89, -1,
      140, 91, 89, -1,
      89, 91, 86, -1,
      141, 142, 27, -1,
      27, 142, 82, -1,
      35, 31, 143, -1,
      144, 145, 143, -1,
      143, 145, 146, -1,
      143, 146, 35, -1,
      39, 33, 147, -1,
      148, 149, 147, -1,
      147, 149, 150, -1,
      147, 150, 39, -1,
      43, 37, 151, -1,
      152, 153, 151, -1,
      151, 153, 154, -1,
      151, 154, 43, -1,
      84, 41, 155, -1,
      156, 157, 155, -1,
      155, 157, 158, -1,
      155, 158, 84, -1,
      159, 160, 29, -1,
      29, 160, 83, -1,
      87, 92, 28, -1,
      28, 92, 161, -1,
      28, 161, 29, -1,
      29, 161, 159, -1,
      162, 160, 161, -1,
      161, 160, 159, -1,
      93, 9, 10, -1,
      83, 160, 10, -1,
      10, 160, 162, -1,
      10, 162, 93, -1,
      1, 100, 2, -1,
      2, 100, 163, -1,
      2, 163, 27, -1,
      27, 163, 141, -1,
      164, 142, 163, -1,
      163, 142, 141, -1,
      101, 48, 49, -1,
      82, 142, 49, -1,
      49, 142, 164, -1,
      49, 164, 101, -1,
      44, 105, 30, -1,
      30, 105, 165, -1,
      144, 166, 145, -1,
      145, 166, 167, -1,
      106, 50, 168, -1,
      168, 50, 34, -1,
      52, 120, 32, -1,
      32, 120, 169, -1,
      148, 170, 149, -1,
      149, 170, 171, -1,
      121, 65, 172, -1,
      172, 65, 38, -1,
      66, 122, 36, -1,
      36, 122, 173, -1,
      152, 174, 153, -1,
      153, 174, 175, -1,
      123, 67, 176, -1,
      176, 67, 42, -1,
      69, 137, 40, -1,
      40, 137, 177, -1,
      156, 178, 157, -1,
      157, 178, 179, -1,
      138, 90, 180, -1,
      180, 90, 85, -1,
      165, 105, 104, -1,
      167, 166, 181, -1,
      181, 166, 182, -1,
      181, 182, 165, -1,
      183, 179, 178, -1,
      108, 107, 104, -1,
      104, 107, 106, -1,
      104, 106, 165, -1,
      165, 106, 168, -1,
      165, 168, 181, -1,
      111, 110, 103, -1,
      178, 184, 183, -1,
      183, 184, 177, -1,
      183, 177, 180, -1,
      180, 177, 137, -1,
      180, 137, 138, -1,
      185, 175, 174, -1,
      101, 164, 163, -1,
      97, 96, 95, -1,
      122, 121, 103, -1,
      135, 134, 139, -1,
      139, 134, 133, -1,
      119, 118, 121, -1,
      103, 110, 104, -1,
      104, 110, 109, -1,
      104, 109, 108, -1,
      163, 100, 101, -1,
      101, 100, 98, -1,
      101, 98, 102, -1,
      102, 98, 99, -1,
      102, 99, 103, -1,
      138, 137, 139, -1,
      139, 137, 136, -1,
      139, 136, 135, -1,
      162, 161, 93, -1,
      93, 161, 92, -1,
      93, 92, 94, -1,
      94, 92, 91, -1,
      94, 91, 95, -1,
      95, 91, 140, -1,
      95, 140, 97, -1,
      97, 140, 99, -1,
      127, 126, 122, -1,
      122, 126, 125, -1,
      122, 125, 124, -1,
      174, 186, 185, -1,
      185, 186, 173, -1,
      185, 173, 176, -1,
      176, 173, 122, -1,
      176, 122, 123, -1,
      123, 122, 124, -1,
      131, 130, 103, -1,
      103, 130, 129, -1,
      103, 129, 122, -1,
      122, 129, 128, -1,
      122, 128, 127, -1,
      131, 103, 132, -1,
      132, 103, 99, -1,
      132, 99, 133, -1,
      133, 99, 140, -1,
      133, 140, 139, -1,
      118, 117, 121, -1,
      121, 117, 116, -1,
      121, 116, 103, -1,
      103, 116, 115, -1,
      103, 115, 114, -1,
      171, 170, 187, -1,
      187, 170, 188, -1,
      187, 188, 172, -1,
      172, 188, 169, -1,
      172, 169, 121, -1,
      121, 169, 120, -1,
      121, 120, 119, -1,
      114, 113, 103, -1,
      103, 113, 112, -1,
      103, 112, 111, -1,
      22, 21, 13, -1,
      13, 21, 11, -1,
      24, 23, 17, -1,
      17, 23, 18, -1,
      26, 25, 15, -1,
      15, 25, 16, -1,
    ]
  }
}

Shape {
  appearance Appearance {
    material Material {
      diffuseColor 0.5020 0.2510 0.2510
      specularColor 0.4431 0.2196 0.2196
      ambientIntensity 0.2
      transparency 0.0000
      shininess 0.5
    }
  }
  geometry IndexedFaceSet {
    ccw TRUE
    solid FALSE
    coord DEF co Coordinate {
      point [
        0.783465 -0.328740 -0.110236,
        0.783465 -0.399606 -0.110236,
        -0.783465 -0.328740 -0.110236,
        -0.783465 -0.399606 -0.110236,
        -0.783465 -0.328740 -0.114173,
        -0.783465 -0.399606 -0.114173,
        0.783465 -0.399606 -0.114173,
        0.783465 -0.328740 -0.114173,
      ]
    }
    coordIndex [
      0, 1, 7, -1,
      7, 1, 6, -1,
      4, 5, 2, -1,
      2, 5, 3, -1,
    ]
  }
}

Shape {
  appearance Appearance {
    material Material {
      diffuseColor 1.0000 1.0000 1.0000
      specularColor 0.5020 0.5020 0.5020
      ambientIntensity 0.2
      transparency 0.0000
      shininess 0.5
    }
  }
  geometry IndexedFaceSet {
    ccw TRUE
    solid FALSE
    coord DEF co Coordinate {
      point [
        -0.330709 -1.159449 -0.110236,
        -0.669291 -1.159449 -0.110236,
        -0.169291 -1.159449 -0.110236,
        -0.830709 -1.159449 -0.110236,
        0.830709 -1.159449 -0.110236,
        0.669291 -1.159449 -0.110236,
        0.330709 -1.159449 -0.110236,
        0.169291 -1.159449 -0.110236,
        -0.811024 -1.210630 0.000000,
        -0.688976 -1.210630 0.000000,
        -0.811024 -1.190945 0.000000,
        -0.688976 -1.190945 0.000000,
        -0.830709 -1.159449 0.000000,
        -0.669291 -1.159449 0.000000,
        -0.669291 -1.159449 -0.114173,
        -0.830709 -1.159449 -0.114173,
        -0.811024 -1.210630 -0.114173,
        -0.688976 -1.210630 -0.114173,
        -0.688976 -1.190945 -0.114173,
        -0.811024 -1.190945 -0.114173,
        -0.330709 -1.159449 -0.114173,
        -0.169291 -1.159449 -0.114173,
        -0.169291 -1.159449 0.000000,
        -0.330709 -1.159449 0.000000,
        -0.311024 -1.190945 0.000000,
        -0.311024 -1.210630 0.000000,
        -0.188976 -1.210630 0.000000,
        -0.188976 -1.190945 0.000000,
        -0.311024 -1.210630 -0.114173,
        -0.188976 -1.210630 -0.114173,
        -0.188976 -1.190945 -0.114173,
        -0.311024 -1.190945 -0.114173,
        0.169291 -1.159449 -0.114173,
        0.330709 -1.159449 -0.114173,
        0.330709 -1.159449 0.000000,
        0.169291 -1.159449 0.000000,
        0.188976 -1.190945 0.000000,
        0.188976 -1.210630 0.000000,
        0.311024 -1.210630 0.000000,
        0.311024 -1.190945 0.000000,
        0.188976 -1.210630 -0.114173,
        0.311024 -1.210630 -0.114173,
        0.311024 -1.190945 -0.114173,
        0.188976 -1.190945 -0.114173,
        0.669291 -1.159449 -0.114173,
        0.830709 -1.159449 -0.114173,
        0.830709 -1.159449 0.000000,
        0.669291 -1.159449 0.000000,
        0.688976 -1.190945 0.000000,
        0.688976 -1.210630 0.000000,
        0.811024 -1.210630 0.000000,
        0.811024 -1.190945 0.000000,
        0.688976 -1.210630 -0.114173,
        0.811024 -1.210630 -0.114173,
        0.811024 -1.190945 -0.114173,
        0.688976 -1.190945 -0.114173,
        0.830709 1.159449 -0.110236,
        0.830709 1.159449 0.000000,
        0.330709 1.159449 -0.110236,
        0.330709 1.159449 0.000000,
        0.669291 1.159449 -0.110236,
        0.669291 1.159449 0.000000,
        -0.169291 1.159449 -0.110236,
        -0.169291 1.159449 0.000000,
        0.169291 1.159449 -0.110236,
        0.169291 1.159449 0.000000,
        -0.669291 1.159449 -0.110236,
        -0.669291 1.159449 0.000000,
        -0.330709 1.159449 -0.110236,
        -0.330709 1.159449 0.000000,
        -0.830709 1.159449 0.000000,
        -0.830709 1.159449 -0.110236,
        0.811024 1.190945 0.000000,
        0.811024 1.210630 0.000000,
        0.688976 1.210630 0.000000,
        0.688976 1.190945 0.000000,
        0.311024 1.190945 0.000000,
        0.311024 1.210630 0.000000,
        0.188976 1.210630 0.000000,
        0.188976 1.190945 0.000000,
        -0.188976 1.190945 0.000000,
        -0.188976 1.210630 0.000000,
        -0.311024 1.210630 0.000000,
        -0.311024 1.190945 0.000000,
        -0.688976 1.190945 0.000000,
        -0.688976 1.210630 0.000000,
        -0.811024 1.210630 0.000000,
        -0.811024 1.190945 0.000000,
        0.830709 1.159449 -0.114173,
        0.811024 1.210630 -0.114173,
        0.688976 1.210630 -0.114173,
        0.669291 1.159449 -0.114173,
        0.330709 1.159449 -0.114173,
        0.311024 1.210630 -0.114173,
        0.188976 1.210630 -0.114173,
        0.169291 1.159449 -0.114173,
        -0.169291 1.159449 -0.114173,
        -0.188976 1.210630 -0.114173,
        -0.311024 1.210630 -0.114173,
        -0.330709 1.159449 -0.114173,
        -0.669291 1.159449 -0.114173,
        -0.688976 1.210630 -0.114173,
        -0.811024 1.210630 -0.114173,
        -0.830709 1.159449 -0.114173,
        0.688976 1.190945 -0.114173,
        0.811024 1.190945 -0.114173,
        -0.811024 1.190945 -0.114173,
        -0.688976 1.190945 -0.114173,
        -0.311024 1.190945 -0.114173,
        -0.188976 1.190945 -0.114173,
        0.188976 1.190945 -0.114173,
        0.311024 1.190945 -0.114173,
      ]
    }
    coordIndex [
      107, 101, 84, -1,
      84, 101, 85, -1,
      100, 107, 66, -1,
      66, 107, 84, -1,
      66, 84, 67, -1,
      70, 87, 71, -1,
      71, 87, 106, -1,
      71, 106, 103, -1,
      102, 106, 86, -1,
      86, 106, 87, -1,
      105, 89, 72, -1,
      72, 89, 73, -1,
      88, 105, 56, -1,
      56, 105, 72, -1,
      56, 72, 57, -1,
      61, 75, 60, -1,
      60, 75, 104, -1,
      60, 104, 91, -1,
      90, 104, 74, -1,
      74, 104, 75, -1,
      111, 93, 76, -1,
      76, 93, 77, -1,
      92, 111, 58, -1,
      58, 111, 76, -1,
      58, 76, 59, -1,
      65, 79, 64, -1,
      64, 79, 110, -1,
      64, 110, 95, -1,
      94, 110, 78, -1,
      78, 110, 79, -1,
      109, 97, 80, -1,
      80, 97, 81, -1,
      96, 109, 62, -1,
      62, 109, 80, -1,
      62, 80, 63, -1,
      69, 83, 68, -1,
      68, 83, 108, -1,
      68, 108, 99, -1,
      98, 108, 82, -1,
      82, 108, 83, -1,
      54, 51, 53, -1,
      53, 51, 50, -1,
      46, 51, 4, -1,
      4, 51, 54, -1,
      4, 54, 45, -1,
      52, 49, 55, -1,
      55, 49, 48, -1,
      44, 55, 5, -1,
      5, 55, 48, -1,
      5, 48, 47, -1,
      42, 39, 41, -1,
      41, 39, 38, -1,
      34, 39, 6, -1,
      6, 39, 42, -1,
      6, 42, 33, -1,
      40, 37, 43, -1,
      43, 37, 36, -1,
      32, 43, 7, -1,
      7, 43, 36, -1,
      7, 36, 35, -1,
      30, 27, 29, -1,
      29, 27, 26, -1,
      22, 27, 2, -1,
      2, 27, 30, -1,
      2, 30, 21, -1,
      28, 25, 31, -1,
      31, 25, 24, -1,
      20, 31, 0, -1,
      0, 31, 24, -1,
      0, 24, 23, -1,
      17, 18, 9, -1,
      9, 18, 11, -1,
      13, 11, 1, -1,
      1, 11, 18, -1,
      1, 18, 14, -1,
      19, 16, 10, -1,
      10, 16, 8, -1,
      15, 19, 3, -1,
      3, 19, 10, -1,
      3, 10, 12, -1,
    ]
  }
}

Shape {
  appearance Appearance {
    material Material {
      diffuseColor 0.6471 0.6471 0.6471
      specularColor 0.3216 0.3216 0.3216
      ambientIntensity 0.2
      transparency 0.0000
      shininess 0.5
    }
  }
  geometry IndexedFaceSet {
    ccw TRUE
    solid FALSE
    coord DEF co Coordinate {
      point [
        -0.048444 -0.684316 -0.110236,
        -0.048444 -0.692959 -0.110236,
        -0.006193 -0.692959 -0.110236,
        0.009171 -0.688878 -0.110236,
        0.009171 -0.680235 -0.110236,
        -0.006193 -0.614219 -0.110236,
        -0.016756 -0.622861 -0.110236,
        -0.016756 -0.648787 -0.110236,
        -0.046523 -0.622861 -0.110236,
        -0.044603 -0.648787 -0.110236,
        -0.016756 -0.657430 -0.110236,
        -0.016756 -0.684316 -0.110236,
        -0.044603 -0.657430 -0.110236,
        0.114798 -0.692959 -0.110236,
        0.035467 -0.693439 -0.110236,
        0.074468 -0.692959 -0.110236,
        0.040540 -0.692913 -0.110236,
        0.048172 -0.690286 -0.110236,
        -0.046523 -0.614219 -0.110236,
        0.035364 -0.622771 -0.110236,
        0.041258 -0.624898 -0.110236,
        0.010582 -0.681017 -0.110236,
        0.046708 -0.628544 -0.110236,
        0.051463 -0.633793 -0.110236,
        0.057183 -0.654429 -0.110236,
        0.056386 -0.662953 -0.110236,
        0.054247 -0.669726 -0.110236,
        0.036726 -0.684453 -0.110236,
        0.029381 -0.685276 -0.110236,
        0.042463 -0.682341 -0.110236,
        0.047295 -0.679083 -0.110236,
        0.050990 -0.675185 -0.110236,
        0.018929 -0.684117 -0.110236,
        0.063591 -0.634957 -0.110236,
        0.058975 -0.627596 -0.110236,
        0.104235 -0.614219 -0.110236,
        0.054709 -0.639873 -0.110236,
        0.056808 -0.648302 -0.110236,
        0.054506 -0.686241 -0.110236,
        0.060420 -0.680015 -0.110236,
        0.074468 -0.684316 -0.110236,
        0.064615 -0.672528 -0.110236,
        0.104235 -0.684316 -0.110236,
        0.066985 -0.664193 -0.110236,
        0.067746 -0.655074 -0.110236,
        0.066613 -0.643880 -0.110236,
        0.051867 -0.620759 -0.110236,
        0.044387 -0.616454 -0.110236,
        0.035609 -0.613904 -0.110236,
        0.027701 -0.613258 -0.110236,
        0.018275 -0.613909 -0.110236,
        0.009171 -0.616379 -0.110236,
        0.009171 -0.626942 -0.110236,
        0.018040 -0.623144 -0.110236,
        0.027611 -0.621900 -0.110236,
        -0.132945 -0.692959 -0.110236,
        -0.123252 -0.671378 -0.110236,
        -0.118737 -0.678420 -0.110236,
        -0.112256 -0.684626 -0.110236,
        -0.104034 -0.689404 -0.110236,
        -0.094961 -0.692108 -0.110236,
        -0.192481 -0.692959 -0.110236,
        -0.204004 -0.692959 -0.110236,
        -0.173276 -0.614219 -0.110236,
        -0.162713 -0.614219 -0.110236,
        -0.085218 -0.692959 -0.110236,
        -0.063807 -0.692959 -0.110236,
        -0.063807 -0.614219 -0.110236,
        -0.086028 -0.614219 -0.110236,
        -0.115269 -0.624485 -0.110236,
        -0.120837 -0.630659 -0.110236,
        -0.124497 -0.637431 -0.110236,
        -0.144469 -0.692959 -0.110236,
        -0.151985 -0.670873 -0.110236,
        -0.184513 -0.670873 -0.110236,
        -0.097404 -0.615434 -0.110236,
        -0.106617 -0.618669 -0.110236,
        -0.115187 -0.624413 -0.110236,
        -0.126612 -0.645189 -0.110236,
        -0.127184 -0.652598 -0.110236,
        -0.126079 -0.663136 -0.110236,
        0.114798 -0.614219 -0.110236,
        0.017564 -0.692324 -0.110236,
        0.025521 -0.693439 -0.110236,
        0.028683 -0.693882 -0.110236,
        0.030837 -0.693919 -0.110236,
        -0.173276 -0.614219 -0.109843,
        -0.204004 -0.692959 -0.109843,
        -0.192481 -0.692959 -0.109843,
        -0.184513 -0.670873 -0.109843,
        -0.151985 -0.670873 -0.109843,
        -0.144469 -0.692959 -0.109843,
        -0.132945 -0.692959 -0.109843,
        -0.162713 -0.614219 -0.109843,
        -0.154641 -0.662231 -0.109843,
        -0.180973 -0.662231 -0.109843,
        -0.166389 -0.629342 -0.109843,
        -0.167147 -0.626611 -0.109843,
        -0.167649 -0.623821 -0.109843,
        -0.167904 -0.623821 -0.109843,
        -0.168418 -0.626603 -0.109843,
        -0.169120 -0.629342 -0.109843,
        -0.154641 -0.662231 -0.110236,
        -0.180973 -0.662231 -0.110236,
        -0.166389 -0.629342 -0.110236,
        -0.167147 -0.626611 -0.110236,
        -0.167649 -0.623821 -0.110236,
        -0.167904 -0.623821 -0.110236,
        -0.168418 -0.626603 -0.110236,
        -0.169120 -0.629342 -0.110236,
        -0.085218 -0.692959 -0.109843,
        -0.063807 -0.692959 -0.109843,
        -0.063807 -0.614219 -0.109843,
        -0.086028 -0.614219 -0.109843,
        -0.127184 -0.652598 -0.109843,
        -0.126612 -0.645189 -0.109843,
        -0.124497 -0.637431 -0.109843,
        -0.120837 -0.630659 -0.109843,
        -0.115269 -0.624485 -0.109843,
        -0.115187 -0.624413 -0.109843,
        -0.106617 -0.618669 -0.109843,
        -0.097404 -0.615434 -0.109843,
        -0.094961 -0.692108 -0.109843,
        -0.104034 -0.689404 -0.109843,
        -0.112256 -0.684626 -0.109843,
        -0.118737 -0.678420 -0.109843,
        -0.123252 -0.671378 -0.109843,
        -0.126079 -0.663136 -0.109843,
        -0.111379 -0.633902 -0.109843,
        -0.107554 -0.629841 -0.109843,
        -0.101802 -0.626126 -0.109843,
        -0.095303 -0.623851 -0.109843,
        -0.085983 -0.622861 -0.109843,
        -0.074370 -0.622861 -0.109843,
        -0.074370 -0.684316 -0.109843,
        -0.085548 -0.684316 -0.109843,
        -0.093856 -0.683543 -0.109843,
        -0.100481 -0.681475 -0.109843,
        -0.105852 -0.678286 -0.109843,
        -0.110268 -0.673924 -0.109843,
        -0.113589 -0.668495 -0.109843,
        -0.115898 -0.661094 -0.109843,
        -0.116621 -0.652823 -0.109843,
        -0.115952 -0.644987 -0.109843,
        -0.114114 -0.638759 -0.109843,
        -0.085983 -0.622861 -0.110236,
        -0.074370 -0.622861 -0.110236,
        -0.095303 -0.623851 -0.110236,
        -0.101802 -0.626126 -0.110236,
        -0.107554 -0.629841 -0.110236,
        -0.111379 -0.633902 -0.110236,
        -0.114114 -0.638759 -0.110236,
        -0.115952 -0.644987 -0.110236,
        -0.116621 -0.652823 -0.110236,
        -0.115898 -0.661094 -0.110236,
        -0.113589 -0.668495 -0.110236,
        -0.110268 -0.673924 -0.110236,
        -0.105852 -0.678286 -0.110236,
        -0.100481 -0.681475 -0.110236,
        -0.093856 -0.683543 -0.110236,
        -0.085548 -0.684316 -0.110236,
        -0.074370 -0.684316 -0.110236,
        -0.048444 -0.684316 -0.109843,
        -0.048444 -0.692959 -0.109843,
        -0.006193 -0.692959 -0.109843,
        -0.006193 -0.614219 -0.109843,
        -0.046523 -0.614219 -0.109843,
        -0.046523 -0.622861 -0.109843,
        -0.016756 -0.622861 -0.109843,
        -0.016756 -0.648787 -0.109843,
        -0.044603 -0.648787 -0.109843,
        -0.044603 -0.657430 -0.109843,
        -0.016756 -0.657430 -0.109843,
        -0.016756 -0.684316 -0.109843,
        0.009171 -0.680235 -0.109843,
        0.009171 -0.688878 -0.109843,
        0.017564 -0.692324 -0.109843,
        0.030837 -0.693919 -0.109843,
        0.028683 -0.693882 -0.109843,
        0.040540 -0.692913 -0.109843,
        0.048172 -0.690286 -0.109843,
        0.054506 -0.686241 -0.109843,
        0.060420 -0.680015 -0.109843,
        0.064615 -0.672528 -0.109843,
        0.066985 -0.664193 -0.109843,
        0.067746 -0.655074 -0.109843,
        0.027701 -0.613258 -0.109843,
        0.035609 -0.613904 -0.109843,
        0.044387 -0.616454 -0.109843,
        0.051867 -0.620759 -0.109843,
        0.058975 -0.627596 -0.109843,
        0.063591 -0.634957 -0.109843,
        0.066613 -0.643880 -0.109843,
        0.009171 -0.616379 -0.109843,
        0.018275 -0.613909 -0.109843,
        0.009171 -0.626942 -0.109843,
        0.027611 -0.621900 -0.109843,
        0.018040 -0.623144 -0.109843,
        0.057183 -0.654429 -0.109843,
        0.056808 -0.648302 -0.109843,
        0.054709 -0.639873 -0.109843,
        0.051463 -0.633793 -0.109843,
        0.046708 -0.628544 -0.109843,
        0.041258 -0.624898 -0.109843,
        0.035364 -0.622771 -0.109843,
        0.029381 -0.685276 -0.109843,
        0.036726 -0.684453 -0.109843,
        0.042463 -0.682341 -0.109843,
        0.047295 -0.679083 -0.109843,
        0.050990 -0.675185 -0.109843,
        0.054247 -0.669726 -0.109843,
        0.056386 -0.662953 -0.109843,
        0.010582 -0.681017 -0.109843,
        0.018929 -0.684117 -0.109843,
        0.074468 -0.684316 -0.109843,
        0.074468 -0.692959 -0.109843,
        0.114798 -0.692959 -0.109843,
        0.114798 -0.614219 -0.109843,
        0.104235 -0.614219 -0.109843,
        0.104235 -0.684316 -0.109843,
      ]
    }
    coordIndex [
      86, 87, 63, -1,
      63, 87, 62, -1,
      87, 88, 62, -1,
      62, 88, 61, -1,
      88, 89, 61, -1,
      61, 89, 74, -1,
      89, 90, 74, -1,
      74, 90, 73, -1,
      90, 91, 73, -1,
      73, 91, 72, -1,
      91, 92, 72, -1,
      72, 92, 55, -1,
      92, 93, 55, -1,
      55, 93, 64, -1,
      93, 86, 64, -1,
      64, 86, 63, -1,
      94, 90, 95, -1,
      95, 90, 89, -1,
      96, 93, 94, -1,
      94, 93, 92, -1,
      94, 92, 90, -1,
      90, 92, 91, -1,
      96, 97, 93, -1,
      93, 97, 98, -1,
      93, 98, 86, -1,
      86, 98, 99, -1,
      86, 99, 100, -1,
      100, 101, 86, -1,
      86, 101, 95, -1,
      86, 95, 87, -1,
      87, 95, 89, -1,
      87, 89, 88, -1,
      94, 95, 102, -1,
      102, 95, 103, -1,
      96, 94, 104, -1,
      104, 94, 102, -1,
      96, 104, 105, -1,
      96, 105, 97, -1,
      97, 105, 106, -1,
      97, 106, 98, -1,
      99, 98, 107, -1,
      107, 98, 106, -1,
      99, 107, 108, -1,
      99, 108, 100, -1,
      100, 108, 109, -1,
      100, 109, 101, -1,
      95, 101, 103, -1,
      103, 101, 109, -1,
      110, 111, 65, -1,
      65, 111, 66, -1,
      111, 112, 66, -1,
      66, 112, 67, -1,
      112, 113, 67, -1,
      67, 113, 68, -1,
      114, 79, 78, -1,
      114, 78, 115, -1,
      115, 78, 71, -1,
      115, 71, 116, -1,
      116, 71, 70, -1,
      116, 70, 117, -1,
      117, 70, 69, -1,
      117, 69, 118, -1,
      118, 69, 77, -1,
      118, 77, 119, -1,
      119, 77, 76, -1,
      119, 76, 120, -1,
      120, 76, 75, -1,
      120, 75, 121, -1,
      121, 75, 68, -1,
      121, 68, 113, -1,
      110, 65, 60, -1,
      110, 60, 122, -1,
      122, 60, 59, -1,
      122, 59, 123, -1,
      123, 59, 58, -1,
      123, 58, 124, -1,
      124, 58, 57, -1,
      124, 57, 125, -1,
      125, 57, 56, -1,
      125, 56, 126, -1,
      126, 56, 80, -1,
      126, 80, 127, -1,
      127, 80, 79, -1,
      127, 79, 114, -1,
      116, 117, 128, -1,
      128, 117, 118, -1,
      128, 118, 129, -1,
      129, 118, 119, -1,
      129, 119, 130, -1,
      130, 119, 120, -1,
      130, 120, 131, -1,
      131, 120, 121, -1,
      131, 121, 132, -1,
      132, 121, 113, -1,
      132, 113, 133, -1,
      133, 113, 112, -1,
      133, 112, 134, -1,
      134, 112, 111, -1,
      134, 111, 135, -1,
      135, 111, 110, -1,
      135, 110, 136, -1,
      136, 110, 122, -1,
      136, 122, 137, -1,
      137, 122, 123, -1,
      137, 123, 138, -1,
      138, 123, 124, -1,
      138, 124, 139, -1,
      139, 124, 125, -1,
      139, 125, 140, -1,
      140, 125, 126, -1,
      140, 126, 141, -1,
      141, 126, 127, -1,
      141, 127, 142, -1,
      142, 127, 114, -1,
      142, 114, 143, -1,
      143, 114, 115, -1,
      143, 115, 144, -1,
      144, 115, 116, -1,
      144, 116, 128, -1,
      132, 133, 145, -1,
      145, 133, 146, -1,
      132, 145, 147, -1,
      132, 147, 131, -1,
      131, 147, 148, -1,
      131, 148, 130, -1,
      130, 148, 149, -1,
      130, 149, 129, -1,
      129, 149, 150, -1,
      129, 150, 128, -1,
      128, 150, 151, -1,
      128, 151, 144, -1,
      144, 151, 152, -1,
      144, 152, 143, -1,
      143, 152, 153, -1,
      143, 153, 142, -1,
      142, 153, 154, -1,
      142, 154, 141, -1,
      141, 154, 155, -1,
      141, 155, 140, -1,
      140, 155, 156, -1,
      140, 156, 139, -1,
      139, 156, 157, -1,
      139, 157, 138, -1,
      138, 157, 158, -1,
      138, 158, 137, -1,
      137, 158, 159, -1,
      137, 159, 136, -1,
      136, 159, 160, -1,
      136, 160, 135, -1,
      134, 135, 161, -1,
      161, 135, 160, -1,
      133, 134, 146, -1,
      146, 134, 161, -1,
      162, 163, 0, -1,
      0, 163, 1, -1,
      163, 164, 1, -1,
      1, 164, 2, -1,
      164, 165, 2, -1,
      2, 165, 5, -1,
      165, 166, 5, -1,
      5, 166, 18, -1,
      166, 167, 18, -1,
      18, 167, 8, -1,
      167, 168, 8, -1,
      8, 168, 6, -1,
      168, 169, 6, -1,
      6, 169, 7, -1,
      169, 170, 7, -1,
      7, 170, 9, -1,
      170, 171, 9, -1,
      9, 171, 12, -1,
      171, 172, 12, -1,
      12, 172, 10, -1,
      172, 173, 10, -1,
      10, 173, 11, -1,
      173, 162, 11, -1,
      11, 162, 0, -1,
      164, 163, 162, -1,
      162, 173, 164, -1,
      164, 173, 172, -1,
      164, 172, 165, -1,
      167, 166, 168, -1,
      168, 166, 165, -1,
      168, 165, 169, -1,
      169, 165, 172, -1,
      169, 172, 170, -1,
      170, 172, 171, -1,
      174, 175, 4, -1,
      4, 175, 3, -1,
      3, 175, 176, -1,
      177, 85, 84, -1,
      177, 84, 178, -1,
      178, 84, 83, -1,
      178, 83, 176, -1,
      176, 83, 82, -1,
      176, 82, 3, -1,
      85, 177, 14, -1,
      14, 177, 179, -1,
      14, 179, 16, -1,
      16, 179, 180, -1,
      16, 180, 17, -1,
      17, 180, 181, -1,
      17, 181, 38, -1,
      38, 181, 182, -1,
      38, 182, 39, -1,
      39, 182, 183, -1,
      39, 183, 41, -1,
      41, 183, 184, -1,
      41, 184, 43, -1,
      43, 184, 185, -1,
      43, 185, 44, -1,
      186, 49, 48, -1,
      186, 48, 187, -1,
      187, 48, 47, -1,
      187, 47, 188, -1,
      188, 47, 46, -1,
      188, 46, 189, -1,
      189, 46, 34, -1,
      189, 34, 190, -1,
      190, 34, 33, -1,
      190, 33, 191, -1,
      191, 33, 45, -1,
      191, 45, 192, -1,
      192, 45, 44, -1,
      192, 44, 185, -1,
      193, 51, 50, -1,
      193, 50, 194, -1,
      194, 50, 49, -1,
      194, 49, 186, -1,
      193, 195, 51, -1,
      51, 195, 52, -1,
      196, 54, 53, -1,
      196, 53, 197, -1,
      197, 53, 52, -1,
      197, 52, 195, -1,
      198, 24, 37, -1,
      198, 37, 199, -1,
      199, 37, 36, -1,
      199, 36, 200, -1,
      200, 36, 23, -1,
      200, 23, 201, -1,
      201, 23, 22, -1,
      201, 22, 202, -1,
      202, 22, 20, -1,
      202, 20, 203, -1,
      203, 20, 19, -1,
      203, 19, 204, -1,
      204, 19, 54, -1,
      204, 54, 196, -1,
      205, 28, 27, -1,
      205, 27, 206, -1,
      206, 27, 29, -1,
      206, 29, 207, -1,
      207, 29, 30, -1,
      207, 30, 208, -1,
      208, 30, 31, -1,
      208, 31, 209, -1,
      209, 31, 26, -1,
      209, 26, 210, -1,
      210, 26, 25, -1,
      210, 25, 211, -1,
      211, 25, 24, -1,
      211, 24, 198, -1,
      174, 4, 21, -1,
      174, 21, 212, -1,
      212, 21, 32, -1,
      212, 32, 213, -1,
      213, 32, 28, -1,
      213, 28, 205, -1,
      206, 177, 205, -1,
      205, 177, 178, -1,
      205, 178, 213, -1,
      213, 178, 176, -1,
      213, 176, 212, -1,
      212, 176, 175, -1,
      212, 175, 174, -1,
      195, 193, 197, -1,
      197, 193, 194, -1,
      197, 194, 196, -1,
      196, 194, 186, -1,
      196, 186, 204, -1,
      204, 186, 187, -1,
      204, 187, 203, -1,
      203, 187, 188, -1,
      203, 188, 202, -1,
      202, 188, 189, -1,
      202, 189, 201, -1,
      201, 189, 190, -1,
      201, 190, 200, -1,
      200, 190, 191, -1,
      200, 191, 199, -1,
      199, 191, 192, -1,
      199, 192, 198, -1,
      198, 192, 185, -1,
      198, 185, 211, -1,
      211, 185, 184, -1,
      211, 184, 210, -1,
      210, 184, 183, -1,
      210, 183, 209, -1,
      209, 183, 182, -1,
      209, 182, 208, -1,
      208, 182, 181, -1,
      208, 181, 207, -1,
      207, 181, 180, -1,
      207, 180, 206, -1,
      206, 180, 179, -1,
      206, 179, 177, -1,
      214, 215, 40, -1,
      40, 215, 15, -1,
      215, 216, 15, -1,
      15, 216, 13, -1,
      216, 217, 13, -1,
      13, 217, 81, -1,
      217, 218, 81, -1,
      81, 218, 35, -1,
      218, 219, 35, -1,
      35, 219, 42, -1,
      219, 214, 42, -1,
      42, 214, 40, -1,
      218, 217, 219, -1,
      219, 217, 216, -1,
      219, 216, 214, -1,
      214, 216, 215, -1,
    ]
  }
}

Shape {
  appearance Appearance {
    material Material {
      diffuseColor 0.2235 0.2235 0.2235
      specularColor 0.1137 0.1137 0.1137
      ambientIntensity 0.2
      transparency 0.0000
      shininess 0.5
    }
  }
  geometry IndexedFaceSet {
    ccw TRUE
    solid FALSE
    coord DEF co Coordinate {
      point [
        -0.925197 -1.159449 -0.110236,
        -0.935387 -1.158107 -0.110236,
        -0.963226 -1.130269 -0.110236,
        -0.964567 -1.120079 -0.110236,
        -0.944882 -1.154174 -0.110236,
        -0.953036 -1.147918 -0.110236,
        -0.959293 -1.139764 -0.110236,
        0.964567 -1.120079 -0.110236,
        0.925197 -1.159449 -0.110236,
        0.953036 -1.147918 -0.110236,
        0.959293 -1.139764 -0.110236,
        0.963226 -1.130269 -0.110236,
        0.944882 -1.154174 -0.110236,
        0.935387 -1.158107 -0.110236,
        0.964567 -1.120079 0.000000,
        -0.964567 1.120079 -0.110236,
        -0.964567 1.120079 0.000000,
        0.925197 1.159449 -0.110236,
        0.925197 1.159449 0.000000,
        0.964567 1.120079 -0.110236,
        0.933957 1.158462 -0.110236,
        0.942279 1.155550 -0.110236,
        0.949744 1.150859 -0.110236,
        0.955978 1.144626 -0.110236,
        0.960668 1.137161 -0.110236,
        0.963580 1.128839 -0.110236,
        0.925197 -1.159449 0.000000,
        0.964567 1.120079 0.000000,
        -0.925197 -1.159449 0.000000,
        -0.964567 -1.120079 0.000000,
        -0.925197 1.159449 0.000000,
        -0.925197 1.159449 -0.110236,
        -0.963226 1.130269 -0.110236,
        -0.959293 1.139764 -0.110236,
        -0.953036 1.147918 -0.110236,
        -0.944882 1.154174 -0.110236,
        -0.935387 1.158107 -0.110236,
        0.932073 -1.087878 0.264641,
        0.964566 -1.120371 0.000009,
        0.932073 1.087878 0.264641,
        0.964566 1.120371 0.000009,
        -0.925489 1.159448 0.000009,
        -0.892996 1.126955 0.264641,
        0.925489 1.159448 0.000009,
        0.892996 1.126955 0.264641,
        -0.964566 -1.120371 0.000009,
        -0.932073 -1.087878 0.264641,
        -0.964566 1.120371 0.000009,
        -0.932073 1.087878 0.264641,
        -0.925489 -1.159448 0.000009,
        -0.892996 -1.126955 0.264641,
        0.892996 -1.126955 0.264641,
        0.925489 -1.159448 0.000009,
        0.892996 -1.087878 0.299213,
        -0.892996 -1.087878 0.299213,
        -0.892996 1.087878 0.299213,
        0.892996 1.087878 0.299213,
        -0.154641 -0.662231 -0.110236,
        -0.180973 -0.662231 -0.110236,
        -0.166389 -0.629342 -0.110236,
        -0.167147 -0.626611 -0.110236,
        -0.167649 -0.623821 -0.110236,
        -0.167904 -0.623821 -0.110236,
        -0.168418 -0.626603 -0.110236,
        -0.169120 -0.629342 -0.110236,
        -0.085983 -0.622861 -0.110236,
        -0.074370 -0.622861 -0.110236,
        -0.095303 -0.623851 -0.110236,
        -0.101802 -0.626126 -0.110236,
        -0.107554 -0.629841 -0.110236,
        -0.111379 -0.633902 -0.110236,
        -0.114114 -0.638759 -0.110236,
        -0.115952 -0.644987 -0.110236,
        -0.116621 -0.652823 -0.110236,
        -0.115898 -0.661094 -0.110236,
        -0.113589 -0.668495 -0.110236,
        -0.110268 -0.673924 -0.110236,
        -0.105852 -0.678286 -0.110236,
        -0.100481 -0.681475 -0.110236,
        -0.093856 -0.683543 -0.110236,
        -0.085548 -0.684316 -0.110236,
        -0.074370 -0.684316 -0.110236,
        -0.963201 -1.130265 0.000529,
        -0.963174 -1.130457 0.000539,
        -0.959281 -1.139759 0.000868,
        -0.959243 -1.139848 0.000871,
        -0.953036 -1.147918 0.000985,
        -0.944966 -1.154126 0.000871,
        -0.944877 -1.154163 0.000868,
        -0.935575 -1.158056 0.000539,
        -0.935383 -1.158083 0.000529,
        -0.935383 1.158083 0.000529,
        -0.935575 1.158056 0.000539,
        -0.944877 1.154163 0.000868,
        -0.944966 1.154126 0.000871,
        -0.953036 1.147918 0.000985,
        -0.959243 1.139848 0.000871,
        -0.959281 1.139759 0.000868,
        -0.963174 1.130457 0.000539,
        -0.963201 1.130265 0.000529,
        -0.903018 -1.125500 0.265692,
        -0.903070 -1.125478 0.265696,
        -0.912369 -1.121528 0.266353,
        -0.912407 -1.121500 0.266354,
        -0.920425 -1.115307 0.266578,
        -0.926618 -1.107289 0.266354,
        -0.926646 -1.107251 0.266353,
        -0.930596 -1.097952 0.265696,
        -0.930618 -1.097900 0.265692,
        -0.929893 1.087878 0.273578,
        -0.929893 -1.087878 0.273578,
        -0.929763 1.087878 0.273829,
        -0.929763 -1.087878 0.273829,
        -0.925507 1.087878 0.282048,
        -0.925507 -1.087878 0.282048,
        -0.925357 1.087878 0.282219,
        -0.925357 -1.087878 0.282219,
        -0.919212 1.087878 0.289215,
        -0.919212 -1.087878 0.289215,
        -0.919072 1.087878 0.289312,
        -0.919072 -1.087878 0.289312,
        -0.911378 1.087878 0.294658,
        -0.911378 -1.087878 0.294658,
        -0.911272 1.087878 0.294698,
        -0.911272 -1.087878 0.294698,
        -0.902465 1.087878 0.298057,
        -0.902465 -1.087878 0.298057,
        -0.902409 1.087878 0.298064,
        -0.902409 -1.087878 0.298064,
        -0.930618 1.097900 0.265692,
        -0.930596 1.097952 0.265696,
        -0.926646 1.107251 0.266353,
        -0.926618 1.107289 0.266354,
        -0.920425 1.115307 0.266578,
        -0.912407 1.121500 0.266354,
        -0.912369 1.121528 0.266353,
        -0.903070 1.125478 0.265696,
        -0.903018 1.125500 0.265692,
        0.935383 -1.158083 0.000529,
        0.935575 -1.158056 0.000539,
        0.944877 -1.154163 0.000868,
        0.944966 -1.154126 0.000871,
        0.953036 -1.147918 0.000985,
        0.959243 -1.139848 0.000871,
        0.959281 -1.139759 0.000868,
        0.963174 -1.130457 0.000539,
        0.963201 -1.130265 0.000529,
        -0.892996 -1.120239 0.282219,
        -0.892996 -1.114094 0.289215,
        -0.899781 -1.113200 0.289215,
        -0.897754 -1.105633 0.294658,
        -0.895447 -1.097024 0.298057,
        -0.897731 -1.096078 0.298057,
        -0.901197 -1.092613 0.298057,
        -0.899692 -1.094574 0.298057,
        -0.902143 -1.090329 0.298057,
        -0.892996 -1.097291 0.298064,
        -0.902546 -1.123518 0.273578,
        -0.911445 -1.119832 0.273578,
        -0.919086 -1.113968 0.273578,
        -0.924950 -1.106327 0.273578,
        -0.928636 -1.097428 0.273578,
        -0.892996 -1.113954 0.289312,
        -0.892996 -1.106260 0.294658,
        -0.892996 -1.106154 0.294698,
        -0.892996 -1.097347 0.298057,
        -0.902187 -1.103797 0.294658,
        -0.905994 -1.100876 0.294658,
        -0.908915 -1.097069 0.294658,
        -0.910752 -1.092636 0.294658,
        -0.906104 -1.110581 0.289215,
        -0.911533 -1.106415 0.289215,
        -0.915700 -1.100986 0.289215,
        -0.918319 -1.094663 0.289215,
        -0.892996 -1.124644 0.273829,
        -0.892996 -1.120389 0.282048,
        -0.901411 -1.119281 0.282048,
        -0.909252 -1.116033 0.282048,
        -0.915985 -1.110867 0.282048,
        -0.921151 -1.104133 0.282048,
        -0.924399 -1.096293 0.282048,
        -0.892996 -1.124775 0.273578,
        -0.918319 1.094663 0.289215,
        -0.910752 1.092636 0.294658,
        -0.902143 1.090329 0.298057,
        -0.901197 1.092613 0.298057,
        -0.897731 1.096078 0.298057,
        -0.899692 1.094574 0.298057,
        -0.895447 1.097024 0.298057,
        -0.928636 1.097428 0.273578,
        -0.924950 1.106327 0.273578,
        -0.919086 1.113968 0.273578,
        -0.911445 1.119832 0.273578,
        -0.902546 1.123518 0.273578,
        -0.892996 1.124775 0.273578,
        -0.892996 1.097291 0.298064,
        -0.908915 1.097069 0.294658,
        -0.905994 1.100876 0.294658,
        -0.902187 1.103797 0.294658,
        -0.897754 1.105633 0.294658,
        -0.892996 1.097347 0.298057,
        -0.892996 1.106154 0.294698,
        -0.892996 1.106260 0.294658,
        -0.892996 1.113954 0.289312,
        -0.915700 1.100986 0.289215,
        -0.911533 1.106415 0.289215,
        -0.906104 1.110581 0.289215,
        -0.899781 1.113200 0.289215,
        -0.924399 1.096293 0.282048,
        -0.921151 1.104133 0.282048,
        -0.915985 1.110867 0.282048,
        -0.909252 1.116033 0.282048,
        -0.901411 1.119281 0.282048,
        -0.892996 1.114094 0.289215,
        -0.892996 1.120239 0.282219,
        -0.892996 1.120389 0.282048,
        -0.892996 1.124644 0.273829,
        0.963401 1.128815 0.000452,
        0.963174 1.130457 0.000539,
        0.960413 1.137054 0.000772,
        0.959243 1.139848 0.000871,
        0.955720 1.144428 0.000936,
        0.953036 1.147918 0.000985,
        0.949546 1.150602 0.000936,
        0.944966 1.154126 0.000871,
        0.942172 1.155295 0.000772,
        0.935575 1.158056 0.000539,
        0.933933 1.158283 0.000452,
        0.930618 -1.097900 0.265692,
        0.930596 -1.097952 0.265696,
        0.926646 -1.107251 0.266353,
        0.926618 -1.107289 0.266354,
        0.920425 -1.115307 0.266578,
        0.912407 -1.121500 0.266354,
        0.912369 -1.121528 0.266353,
        0.903070 -1.125478 0.265696,
        0.903018 -1.125500 0.265692,
        0.892996 -1.124775 0.273578,
        0.892996 -1.124644 0.273829,
        0.892996 -1.120389 0.282048,
        0.892996 -1.120239 0.282219,
        0.892996 -1.114094 0.289215,
        0.892996 -1.113954 0.289312,
        0.892996 -1.106260 0.294658,
        0.892996 -1.106154 0.294698,
        0.892996 -1.097347 0.298057,
        0.892996 -1.097291 0.298064,
        0.892996 1.124775 0.273578,
        0.892996 1.124644 0.273829,
        0.892996 1.120389 0.282048,
        0.892996 1.120239 0.282219,
        0.892996 1.114094 0.289215,
        0.892996 1.113954 0.289312,
        0.892996 1.106260 0.294658,
        0.892996 1.106154 0.294698,
        0.892996 1.097347 0.298057,
        0.892996 1.097291 0.298064,
        0.903018 1.125500 0.265692,
        0.903070 1.125478 0.265696,
        0.912369 1.121528 0.266353,
        0.912407 1.121500 0.266354,
        0.920425 1.115307 0.266578,
        0.926618 1.107289 0.266354,
        0.926646 1.107251 0.266353,
        0.930596 1.097952 0.265696,
        0.930618 1.097900 0.265692,
        0.925357 -1.087878 0.282219,
        0.919212 -1.087878 0.289215,
        0.918319 -1.094663 0.289215,
        0.910752 -1.092636 0.294658,
        0.902143 -1.090329 0.298057,
        0.901197 -1.092613 0.298057,
        0.897731 -1.096078 0.298057,
        0.899692 -1.094574 0.298057,
        0.895447 -1.097024 0.298057,
        0.902409 -1.087878 0.298064,
        0.928636 -1.097428 0.273578,
        0.924950 -1.106327 0.273578,
        0.919086 -1.113968 0.273578,
        0.911445 -1.119832 0.273578,
        0.902546 -1.123518 0.273578,
        0.919072 -1.087878 0.289312,
        0.911378 -1.087878 0.294658,
        0.911272 -1.087878 0.294698,
        0.902465 -1.087878 0.298057,
        0.908915 -1.097069 0.294658,
        0.905994 -1.100876 0.294658,
        0.902187 -1.103797 0.294658,
        0.897754 -1.105633 0.294658,
        0.915700 -1.100986 0.289215,
        0.911533 -1.106415 0.289215,
        0.906104 -1.110581 0.289215,
        0.899781 -1.113200 0.289215,
        0.929763 -1.087878 0.273829,
        0.925507 -1.087878 0.282048,
        0.924399 -1.096293 0.282048,
        0.921151 -1.104133 0.282048,
        0.915985 -1.110867 0.282048,
        0.909252 -1.116033 0.282048,
        0.901411 -1.119281 0.282048,
        0.929893 -1.087878 0.273578,
        0.899781 1.113200 0.289215,
        0.897754 1.105633 0.294658,
        0.895447 1.097024 0.298057,
        0.897731 1.096078 0.298057,
        0.901197 1.092613 0.298057,
        0.899692 1.094574 0.298057,
        0.902143 1.090329 0.298057,
        0.902546 1.123518 0.273578,
        0.911445 1.119832 0.273578,
        0.919086 1.113968 0.273578,
        0.924950 1.106327 0.273578,
        0.928636 1.097428 0.273578,
        0.929893 1.087878 0.273578,
        0.902409 1.087878 0.298064,
        0.902187 1.103797 0.294658,
        0.905994 1.100876 0.294658,
        0.908915 1.097069 0.294658,
        0.910752 1.092636 0.294658,
        0.902465 1.087878 0.298057,
        0.911272 1.087878 0.294698,
        0.911378 1.087878 0.294658,
        0.919072 1.087878 0.289312,
        0.906104 1.110581 0.289215,
        0.911533 1.106415 0.289215,
        0.915700 1.100986 0.289215,
        0.918319 1.094663 0.289215,
        0.901411 1.119281 0.282048,
        0.909252 1.116033 0.282048,
        0.915985 1.110867 0.282048,
        0.921151 1.104133 0.282048,
        0.924399 1.096293 0.282048,
        0.919212 1.087878 0.289215,
        0.925357 1.087878 0.282219,
        0.925507 1.087878 0.282048,
        0.929763 1.087878 0.273829,
      ]
    }
    coordIndex [
      57, 58, 59, -1,
      59, 58, 64, -1,
      59, 64, 60, -1,
      60, 64, 63, -1,
      60, 63, 61, -1,
      61, 63, 62, -1,
      66, 81, 65, -1,
      65, 81, 80, -1,
      65, 80, 79, -1,
      73, 72, 65, -1,
      65, 72, 71, -1,
      65, 71, 67, -1,
      79, 78, 65, -1,
      65, 78, 77, -1,
      65, 77, 76, -1,
      76, 75, 65, -1,
      65, 75, 74, -1,
      65, 74, 73, -1,
      70, 69, 71, -1,
      71, 69, 68, -1,
      71, 68, 67, -1,
      45, 29, 3, -1,
      45, 3, 82, -1,
      82, 3, 2, -1,
      82, 2, 83, -1,
      83, 2, 6, -1,
      83, 6, 84, -1,
      84, 6, 85, -1,
      85, 6, 5, -1,
      85, 5, 86, -1,
      86, 5, 87, -1,
      87, 5, 4, -1,
      87, 4, 88, -1,
      88, 4, 89, -1,
      89, 4, 1, -1,
      89, 1, 90, -1,
      0, 28, 1, -1,
      1, 28, 49, -1,
      1, 49, 90, -1,
      41, 30, 31, -1,
      41, 31, 91, -1,
      91, 31, 36, -1,
      91, 36, 92, -1,
      92, 36, 35, -1,
      92, 35, 93, -1,
      93, 35, 94, -1,
      94, 35, 34, -1,
      94, 34, 95, -1,
      95, 34, 96, -1,
      96, 34, 33, -1,
      96, 33, 97, -1,
      97, 33, 98, -1,
      98, 33, 32, -1,
      98, 32, 99, -1,
      15, 16, 32, -1,
      32, 16, 47, -1,
      32, 47, 99, -1,
      87, 88, 100, -1,
      100, 88, 89, -1,
      100, 89, 50, -1,
      50, 89, 90, -1,
      50, 90, 49, -1,
      100, 101, 87, -1,
      87, 101, 102, -1,
      87, 102, 86, -1,
      86, 102, 103, -1,
      103, 104, 86, -1,
      86, 104, 105, -1,
      86, 105, 85, -1,
      85, 105, 106, -1,
      85, 106, 84, -1,
      84, 106, 107, -1,
      84, 107, 83, -1,
      83, 107, 108, -1,
      83, 108, 82, -1,
      82, 108, 46, -1,
      82, 46, 45, -1,
      48, 46, 109, -1,
      109, 46, 110, -1,
      109, 110, 111, -1,
      111, 110, 112, -1,
      111, 112, 113, -1,
      113, 112, 114, -1,
      113, 114, 115, -1,
      115, 114, 116, -1,
      115, 116, 117, -1,
      117, 116, 118, -1,
      117, 118, 119, -1,
      119, 118, 120, -1,
      119, 120, 121, -1,
      121, 120, 122, -1,
      121, 122, 123, -1,
      123, 122, 124, -1,
      123, 124, 125, -1,
      125, 124, 126, -1,
      125, 126, 127, -1,
      126, 128, 127, -1,
      127, 128, 54, -1,
      127, 54, 55, -1,
      96, 97, 129, -1,
      129, 97, 98, -1,
      129, 98, 48, -1,
      48, 98, 99, -1,
      48, 99, 47, -1,
      129, 130, 96, -1,
      96, 130, 131, -1,
      96, 131, 95, -1,
      95, 131, 132, -1,
      132, 133, 95, -1,
      95, 133, 134, -1,
      95, 134, 94, -1,
      94, 134, 135, -1,
      94, 135, 93, -1,
      93, 135, 136, -1,
      93, 136, 92, -1,
      92, 136, 137, -1,
      92, 137, 91, -1,
      91, 137, 42, -1,
      91, 42, 41, -1,
      52, 26, 8, -1,
      52, 8, 138, -1,
      138, 8, 13, -1,
      138, 13, 139, -1,
      139, 13, 12, -1,
      139, 12, 140, -1,
      140, 12, 141, -1,
      141, 12, 9, -1,
      141, 9, 142, -1,
      142, 9, 143, -1,
      143, 9, 10, -1,
      143, 10, 144, -1,
      144, 10, 145, -1,
      145, 10, 11, -1,
      145, 11, 146, -1,
      7, 14, 11, -1,
      11, 14, 38, -1,
      11, 38, 146, -1,
      147, 148, 149, -1,
      150, 151, 152, -1,
      54, 153, 154, -1,
      155, 153, 54, -1,
      152, 151, 54, -1,
      156, 54, 151, -1,
      157, 101, 100, -1,
      101, 157, 102, -1,
      102, 157, 158, -1,
      102, 158, 103, -1,
      103, 158, 159, -1,
      103, 159, 104, -1,
      104, 159, 160, -1,
      104, 160, 105, -1,
      105, 160, 106, -1,
      106, 160, 161, -1,
      106, 161, 107, -1,
      107, 161, 108, -1,
      108, 161, 110, -1,
      108, 110, 46, -1,
      128, 155, 54, -1,
      162, 163, 150, -1,
      150, 163, 164, -1,
      150, 164, 151, -1,
      151, 164, 165, -1,
      151, 165, 156, -1,
      166, 154, 167, -1,
      167, 154, 153, -1,
      167, 153, 168, -1,
      168, 153, 155, -1,
      168, 155, 169, -1,
      128, 126, 155, -1,
      155, 126, 124, -1,
      155, 124, 169, -1,
      169, 124, 122, -1,
      169, 122, 120, -1,
      149, 166, 170, -1,
      170, 166, 167, -1,
      170, 167, 171, -1,
      171, 167, 168, -1,
      171, 168, 172, -1,
      172, 168, 169, -1,
      172, 169, 173, -1,
      173, 169, 120, -1,
      174, 175, 176, -1,
      176, 175, 147, -1,
      147, 149, 176, -1,
      176, 149, 170, -1,
      176, 170, 177, -1,
      177, 170, 171, -1,
      177, 171, 178, -1,
      178, 171, 172, -1,
      178, 172, 179, -1,
      179, 172, 173, -1,
      179, 173, 180, -1,
      148, 162, 149, -1,
      149, 162, 150, -1,
      149, 150, 166, -1,
      166, 150, 152, -1,
      166, 152, 154, -1,
      154, 152, 54, -1,
      174, 157, 181, -1,
      181, 157, 100, -1,
      181, 100, 50, -1,
      120, 118, 173, -1,
      173, 118, 116, -1,
      173, 116, 180, -1,
      180, 116, 114, -1,
      180, 114, 112, -1,
      174, 176, 157, -1,
      157, 176, 177, -1,
      157, 177, 158, -1,
      158, 177, 178, -1,
      158, 178, 159, -1,
      159, 178, 179, -1,
      159, 179, 160, -1,
      160, 179, 180, -1,
      160, 180, 161, -1,
      161, 180, 112, -1,
      161, 112, 110, -1,
      115, 117, 182, -1,
      183, 184, 185, -1,
      55, 186, 187, -1,
      188, 186, 55, -1,
      185, 184, 55, -1,
      127, 55, 184, -1,
      189, 130, 129, -1,
      130, 189, 131, -1,
      131, 189, 190, -1,
      131, 190, 132, -1,
      132, 190, 191, -1,
      132, 191, 133, -1,
      133, 191, 192, -1,
      133, 192, 134, -1,
      134, 192, 135, -1,
      135, 192, 193, -1,
      135, 193, 136, -1,
      136, 193, 137, -1,
      137, 193, 194, -1,
      137, 194, 42, -1,
      195, 188, 55, -1,
      119, 121, 183, -1,
      183, 121, 123, -1,
      183, 123, 184, -1,
      184, 123, 125, -1,
      184, 125, 127, -1,
      196, 187, 197, -1,
      197, 187, 186, -1,
      197, 186, 198, -1,
      198, 186, 188, -1,
      198, 188, 199, -1,
      195, 200, 188, -1,
      188, 200, 201, -1,
      188, 201, 199, -1,
      199, 201, 202, -1,
      199, 202, 203, -1,
      182, 196, 204, -1,
      204, 196, 197, -1,
      204, 197, 205, -1,
      205, 197, 198, -1,
      205, 198, 206, -1,
      206, 198, 199, -1,
      206, 199, 207, -1,
      207, 199, 203, -1,
      111, 113, 208, -1,
      208, 113, 115, -1,
      115, 182, 208, -1,
      208, 182, 204, -1,
      208, 204, 209, -1,
      209, 204, 205, -1,
      209, 205, 210, -1,
      210, 205, 206, -1,
      210, 206, 211, -1,
      211, 206, 207, -1,
      211, 207, 212, -1,
      117, 119, 182, -1,
      182, 119, 183, -1,
      182, 183, 196, -1,
      196, 183, 185, -1,
      196, 185, 187, -1,
      187, 185, 55, -1,
      111, 189, 109, -1,
      109, 189, 129, -1,
      109, 129, 48, -1,
      203, 213, 207, -1,
      207, 213, 214, -1,
      207, 214, 212, -1,
      212, 214, 215, -1,
      212, 215, 216, -1,
      111, 208, 189, -1,
      189, 208, 209, -1,
      189, 209, 190, -1,
      190, 209, 210, -1,
      190, 210, 191, -1,
      191, 210, 211, -1,
      191, 211, 192, -1,
      192, 211, 212, -1,
      192, 212, 193, -1,
      193, 212, 216, -1,
      193, 216, 194, -1,
      27, 19, 40, -1,
      40, 19, 25, -1,
      40, 25, 217, -1,
      217, 25, 218, -1,
      218, 25, 24, -1,
      218, 24, 219, -1,
      219, 24, 220, -1,
      220, 24, 23, -1,
      220, 23, 221, -1,
      221, 23, 222, -1,
      222, 23, 22, -1,
      222, 22, 223, -1,
      223, 22, 224, -1,
      224, 22, 21, -1,
      224, 21, 225, -1,
      225, 21, 226, -1,
      226, 21, 20, -1,
      226, 20, 227, -1,
      17, 18, 20, -1,
      20, 18, 43, -1,
      20, 43, 227, -1,
      143, 144, 228, -1,
      228, 144, 145, -1,
      228, 145, 37, -1,
      37, 145, 146, -1,
      37, 146, 38, -1,
      228, 229, 143, -1,
      143, 229, 230, -1,
      143, 230, 142, -1,
      142, 230, 231, -1,
      231, 232, 142, -1,
      142, 232, 233, -1,
      142, 233, 141, -1,
      141, 233, 234, -1,
      141, 234, 140, -1,
      140, 234, 235, -1,
      140, 235, 139, -1,
      139, 235, 236, -1,
      139, 236, 138, -1,
      138, 236, 51, -1,
      138, 51, 52, -1,
      50, 51, 181, -1,
      181, 51, 237, -1,
      181, 237, 174, -1,
      174, 237, 238, -1,
      174, 238, 175, -1,
      175, 238, 239, -1,
      175, 239, 147, -1,
      147, 239, 240, -1,
      147, 240, 148, -1,
      148, 240, 241, -1,
      148, 241, 162, -1,
      162, 241, 242, -1,
      162, 242, 163, -1,
      163, 242, 243, -1,
      163, 243, 164, -1,
      164, 243, 244, -1,
      164, 244, 165, -1,
      165, 244, 245, -1,
      165, 245, 156, -1,
      245, 246, 156, -1,
      156, 246, 53, -1,
      156, 53, 54, -1,
      44, 42, 247, -1,
      247, 42, 194, -1,
      247, 194, 248, -1,
      248, 194, 216, -1,
      248, 216, 249, -1,
      249, 216, 215, -1,
      249, 215, 250, -1,
      250, 215, 214, -1,
      250, 214, 251, -1,
      251, 214, 213, -1,
      251, 213, 252, -1,
      252, 213, 203, -1,
      252, 203, 253, -1,
      253, 203, 202, -1,
      253, 202, 254, -1,
      254, 202, 201, -1,
      254, 201, 255, -1,
      255, 201, 200, -1,
      255, 200, 256, -1,
      200, 195, 256, -1,
      256, 195, 55, -1,
      256, 55, 56, -1,
      43, 44, 227, -1,
      227, 44, 257, -1,
      227, 257, 226, -1,
      226, 257, 225, -1,
      225, 257, 258, -1,
      225, 258, 224, -1,
      224, 258, 259, -1,
      224, 259, 223, -1,
      223, 259, 260, -1,
      223, 260, 222, -1,
      222, 260, 261, -1,
      222, 261, 221, -1,
      221, 261, 262, -1,
      221, 262, 220, -1,
      220, 262, 263, -1,
      220, 263, 219, -1,
      219, 263, 264, -1,
      219, 264, 218, -1,
      218, 264, 265, -1,
      218, 265, 217, -1,
      217, 265, 39, -1,
      217, 39, 40, -1,
      266, 267, 268, -1,
      269, 270, 271, -1,
      53, 272, 273, -1,
      274, 272, 53, -1,
      271, 270, 53, -1,
      275, 53, 270, -1,
      276, 229, 228, -1,
      229, 276, 230, -1,
      230, 276, 277, -1,
      230, 277, 231, -1,
      231, 277, 278, -1,
      231, 278, 232, -1,
      232, 278, 279, -1,
      232, 279, 233, -1,
      233, 279, 234, -1,
      234, 279, 280, -1,
      234, 280, 235, -1,
      235, 280, 236, -1,
      236, 280, 237, -1,
      236, 237, 51, -1,
      246, 274, 53, -1,
      281, 282, 269, -1,
      269, 282, 283, -1,
      269, 283, 270, -1,
      270, 283, 284, -1,
      270, 284, 275, -1,
      285, 273, 286, -1,
      286, 273, 272, -1,
      286, 272, 287, -1,
      287, 272, 274, -1,
      287, 274, 288, -1,
      246, 245, 274, -1,
      274, 245, 244, -1,
      274, 244, 288, -1,
      288, 244, 243, -1,
      288, 243, 242, -1,
      268, 285, 289, -1,
      289, 285, 286, -1,
      289, 286, 290, -1,
      290, 286, 287, -1,
      290, 287, 291, -1,
      291, 287, 288, -1,
      291, 288, 292, -1,
      292, 288, 242, -1,
      293, 294, 295, -1,
      295, 294, 266, -1,
      266, 268, 295, -1,
      295, 268, 289, -1,
      295, 289, 296, -1,
      296, 289, 290, -1,
      296, 290, 297, -1,
      297, 290, 291, -1,
      297, 291, 298, -1,
      298, 291, 292, -1,
      298, 292, 299, -1,
      267, 281, 268, -1,
      268, 281, 269, -1,
      268, 269, 285, -1,
      285, 269, 271, -1,
      285, 271, 273, -1,
      273, 271, 53, -1,
      293, 276, 300, -1,
      300, 276, 228, -1,
      300, 228, 37, -1,
      242, 241, 292, -1,
      292, 241, 240, -1,
      292, 240, 299, -1,
      299, 240, 239, -1,
      299, 239, 238, -1,
      293, 295, 276, -1,
      276, 295, 296, -1,
      276, 296, 277, -1,
      277, 296, 297, -1,
      277, 297, 278, -1,
      278, 297, 298, -1,
      278, 298, 279, -1,
      279, 298, 299, -1,
      279, 299, 280, -1,
      280, 299, 238, -1,
      280, 238, 237, -1,
      250, 251, 301, -1,
      302, 303, 304, -1,
      56, 305, 306, -1,
      307, 305, 56, -1,
      304, 303, 56, -1,
      256, 56, 303, -1,
      308, 258, 257, -1,
      258, 308, 259, -1,
      259, 308, 309, -1,
      259, 309, 260, -1,
      260, 309, 310, -1,
      260, 310, 261, -1,
      261, 310, 311, -1,
      261, 311, 262, -1,
      262, 311, 263, -1,
      263, 311, 312, -1,
      263, 312, 264, -1,
      264, 312, 265, -1,
      265, 312, 313, -1,
      265, 313, 39, -1,
      314, 307, 56, -1,
      252, 253, 302, -1,
      302, 253, 254, -1,
      302, 254, 303, -1,
      303, 254, 255, -1,
      303, 255, 256, -1,
      315, 306, 316, -1,
      316, 306, 305, -1,
      316, 305, 317, -1,
      317, 305, 307, -1,
      317, 307, 318, -1,
      314, 319, 307, -1,
      307, 319, 320, -1,
      307, 320, 318, -1,
      318, 320, 321, -1,
      318, 321, 322, -1,
      301, 315, 323, -1,
      323, 315, 316, -1,
      323, 316, 324, -1,
      324, 316, 317, -1,
      324, 317, 325, -1,
      325, 317, 318, -1,
      325, 318, 326, -1,
      326, 318, 322, -1,
      248, 249, 327, -1,
      327, 249, 250, -1,
      250, 301, 327, -1,
      327, 301, 323, -1,
      327, 323, 328, -1,
      328, 323, 324, -1,
      328, 324, 329, -1,
      329, 324, 325, -1,
      329, 325, 330, -1,
      330, 325, 326, -1,
      330, 326, 331, -1,
      251, 252, 301, -1,
      301, 252, 302, -1,
      301, 302, 315, -1,
      315, 302, 304, -1,
      315, 304, 306, -1,
      306, 304, 56, -1,
      248, 308, 247, -1,
      247, 308, 257, -1,
      247, 257, 44, -1,
      322, 332, 326, -1,
      326, 332, 333, -1,
      326, 333, 331, -1,
      331, 333, 334, -1,
      331, 334, 335, -1,
      248, 327, 308, -1,
      308, 327, 328, -1,
      308, 328, 309, -1,
      309, 328, 329, -1,
      309, 329, 310, -1,
      310, 329, 330, -1,
      310, 330, 311, -1,
      311, 330, 331, -1,
      311, 331, 312, -1,
      312, 331, 335, -1,
      312, 335, 313, -1,
      37, 39, 300, -1,
      300, 39, 313, -1,
      300, 313, 293, -1,
      293, 313, 335, -1,
      293, 335, 294, -1,
      294, 335, 334, -1,
      294, 334, 266, -1,
      266, 334, 333, -1,
      266, 333, 267, -1,
      267, 333, 332, -1,
      267, 332, 281, -1,
      281, 332, 322, -1,
      281, 322, 282, -1,
      282, 322, 321, -1,
      282, 321, 283, -1,
      283, 321, 320, -1,
      283, 320, 284, -1,
      284, 320, 319, -1,
      284, 319, 275, -1,
      319, 314, 275, -1,
      275, 314, 56, -1,
      275, 56, 53, -1,
    ]
  }
}
