#VRML V2.0 utf8

Shape {
  appearance Appearance {
    material Material {
      diffuseColor 0.2078 0.2078 0.2078
      specularColor 0.0157 0.0157 0.0157
      ambientIntensity 0.2
      transparency 0.0000
      shininess 0.5
    }
  }
  geometry IndexedFaceSet {
    ccw TRUE
    solid FALSE
    coord DEF co Coordinate {
      point [
        -0.777503 0.639707 0.413386,
        -0.777503 -0.639707 0.413386,
        -0.659393 0.639707 0.413386,
        -0.659393 -0.639707 0.413386,
        0.777503 -0.639707 0.413386,
        0.777503 0.639707 0.413386,
        -0.580652 -0.639707 0.413386,
        -0.580652 0.639707 0.413386,
        0.067412 0.036224 -0.413386,
        0.075166 0.035354 -0.413386,
        0.050384 -0.022892 -0.413386,
        0.048972 -0.022111 -0.413386,
        0.048972 -0.030753 -0.413386,
        0.041291 -0.035314 -0.413386,
        0.087974 -0.032161 -0.413386,
        0.114269 -0.034834 -0.413386,
        0.080342 -0.034788 -0.413386,
        0.075269 -0.035314 -0.413386,
        0.057842 0.034981 -0.413386,
        0.048972 0.031183 -0.413386,
        0.041291 0.639707 -0.413386,
        0.048972 0.041746 -0.413386,
        0.081059 0.033227 -0.413386,
        0.086509 0.029581 -0.413386,
        0.091264 0.024331 -0.413386,
        0.096985 0.003696 -0.413386,
        0.096187 -0.004828 -0.413386,
        0.094048 -0.011601 -0.413386,
        0.076527 -0.026328 -0.413386,
        0.069183 -0.027152 -0.413386,
        0.082264 -0.024216 -0.413386,
        0.087097 -0.020959 -0.413386,
        0.090792 -0.017061 -0.413386,
        0.058731 -0.025992 -0.413386,
        0.103392 0.023167 -0.413386,
        0.098777 0.030529 -0.413386,
        0.144037 0.043906 -0.413386,
        0.154600 0.043906 -0.413386,
        0.397638 0.639707 -0.413386,
        0.154600 -0.034834 -0.413386,
        0.397638 -0.035314 -0.413386,
        0.094510 0.018252 -0.413386,
        0.096609 0.009822 -0.413386,
        0.094307 -0.028116 -0.413386,
        0.100222 -0.021890 -0.413386,
        0.114269 -0.026191 -0.413386,
        0.104417 -0.014403 -0.413386,
        0.144037 -0.026191 -0.413386,
        0.091668 0.037366 -0.413386,
        0.084189 0.041671 -0.413386,
        0.075411 0.044221 -0.413386,
        0.106786 -0.006068 -0.413386,
        0.107548 0.003051 -0.413386,
        0.106415 0.014246 -0.413386,
        0.067502 0.044867 -0.413386,
        0.058076 0.044216 -0.413386,
        0.057366 -0.034199 -0.413386,
        0.065322 -0.035314 -0.413386,
        0.041291 -0.639707 -0.413386,
        0.068485 -0.035757 -0.413386,
        0.397638 -0.639707 -0.413386,
        0.070638 -0.035794 -0.413386,
        0.033609 -0.034834 -0.413386,
        0.033609 0.043906 -0.413386,
        -0.093144 -0.034834 -0.413386,
        -0.083450 -0.013253 -0.413386,
        -0.078935 -0.020296 -0.413386,
        -0.122911 0.043906 -0.413386,
        -0.133474 0.043906 -0.413386,
        -0.397638 0.639707 -0.413386,
        -0.006722 0.035264 -0.413386,
        0.023046 0.035264 -0.413386,
        0.023046 0.009338 -0.413386,
        -0.397638 -0.035314 -0.413386,
        -0.006722 0.043906 -0.413386,
        -0.024006 0.043906 -0.413386,
        -0.004801 0.009338 -0.413386,
        -0.024006 -0.034834 -0.413386,
        -0.004801 0.000695 -0.413386,
        -0.072454 -0.026501 -0.413386,
        -0.064232 -0.031279 -0.413386,
        -0.055159 -0.033983 -0.413386,
        0.023046 0.000695 -0.413386,
        0.023046 -0.026191 -0.413386,
        -0.008642 -0.026191 -0.413386,
        -0.008642 -0.034834 -0.413386,
        -0.046227 0.043906 -0.413386,
        -0.057603 0.042691 -0.413386,
        -0.081036 0.027465 -0.413386,
        -0.084695 0.020694 -0.413386,
        -0.164202 -0.034834 -0.413386,
        -0.152679 -0.034834 -0.413386,
        -0.045417 -0.034834 -0.413386,
        -0.086810 0.012936 -0.413386,
        -0.087382 0.005527 -0.413386,
        -0.086278 -0.005011 -0.413386,
        -0.066815 0.039456 -0.413386,
        -0.075385 0.033712 -0.413386,
        -0.075468 0.033640 -0.413386,
        -0.144712 -0.012748 -0.413386,
        -0.112184 -0.012748 -0.413386,
        -0.104667 -0.034834 -0.413386,
        -0.397638 -0.639707 -0.413386,
        0.850394 -0.408465 0.000000,
        0.850394 -0.712598 0.000000,
        0.834427 -0.408465 -0.090551,
        0.784444 -0.646649 -0.374016,
        0.834427 0.408465 -0.090551,
        0.784444 0.646649 -0.374016,
        0.850394 0.408465 0.000000,
        0.850394 0.712598 0.000000,
        0.437008 -0.646649 -0.374016,
        -0.850394 -0.712598 0.000000,
        -0.784444 -0.646649 -0.374016,
        -0.437008 -0.646649 -0.374016,
        -0.437008 0.646649 -0.374016,
        -0.784444 0.646649 -0.374016,
        -0.850394 0.712598 0.000000,
        0.437008 0.646649 -0.374016,
        -0.850394 0.408465 0.000000,
        -0.834427 0.408465 -0.090551,
        -0.834427 -0.408465 -0.090551,
        -0.850394 -0.408465 0.000000,
      ]
    }
    coordIndex [
      0, 1, 2, -1,
      2, 1, 3, -1,
      4, 5, 6, -1,
      6, 5, 7, -1,
      8, 9, 10, -1,
      11, 12, 13, -1,
      14, 15, 16, -1,
      16, 15, 17, -1,
      8, 10, 18, -1,
      18, 10, 11, -1,
      18, 11, 19, -1,
      19, 11, 20, -1,
      19, 20, 21, -1,
      9, 22, 10, -1,
      10, 22, 23, -1,
      10, 23, 24, -1,
      25, 26, 10, -1,
      10, 26, 27, -1,
      28, 29, 30, -1,
      30, 29, 31, -1,
      27, 32, 10, -1,
      10, 32, 31, -1,
      10, 31, 33, -1,
      33, 31, 29, -1,
      34, 35, 36, -1,
      36, 35, 20, -1,
      36, 20, 37, -1,
      37, 20, 38, -1,
      37, 38, 39, -1,
      39, 38, 40, -1,
      24, 41, 10, -1,
      10, 41, 42, -1,
      10, 42, 25, -1,
      14, 43, 15, -1,
      15, 43, 44, -1,
      15, 44, 45, -1,
      45, 44, 46, -1,
      45, 46, 47, -1,
      35, 48, 20, -1,
      20, 48, 49, -1,
      20, 49, 50, -1,
      46, 51, 47, -1,
      47, 51, 52, -1,
      47, 52, 36, -1,
      36, 52, 53, -1,
      36, 53, 34, -1,
      50, 54, 20, -1,
      20, 54, 55, -1,
      20, 55, 21, -1,
      12, 56, 13, -1,
      13, 56, 57, -1,
      13, 57, 58, -1,
      58, 57, 59, -1,
      58, 59, 60, -1,
      60, 59, 61, -1,
      60, 61, 40, -1,
      40, 61, 17, -1,
      40, 17, 39, -1,
      39, 17, 15, -1,
      13, 62, 63, -1,
      64, 65, 66, -1,
      67, 68, 69, -1,
      70, 71, 72, -1,
      69, 68, 73, -1,
      11, 13, 20, -1,
      20, 13, 63, -1,
      20, 63, 69, -1,
      69, 63, 74, -1,
      69, 74, 70, -1,
      75, 76, 77, -1,
      77, 76, 78, -1,
      66, 79, 64, -1,
      64, 79, 80, -1,
      64, 80, 81, -1,
      82, 83, 78, -1,
      78, 83, 84, -1,
      78, 84, 77, -1,
      77, 84, 85, -1,
      72, 76, 70, -1,
      70, 76, 75, -1,
      70, 75, 69, -1,
      69, 75, 86, -1,
      69, 86, 87, -1,
      67, 88, 89, -1,
      90, 91, 13, -1,
      92, 77, 13, -1,
      13, 77, 85, -1,
      13, 85, 62, -1,
      89, 93, 67, -1,
      67, 93, 94, -1,
      67, 94, 64, -1,
      64, 94, 95, -1,
      64, 95, 65, -1,
      87, 96, 69, -1,
      69, 96, 97, -1,
      69, 97, 67, -1,
      67, 97, 98, -1,
      67, 98, 88, -1,
      99, 100, 91, -1,
      91, 100, 101, -1,
      91, 101, 13, -1,
      13, 101, 64, -1,
      13, 64, 92, -1,
      92, 64, 81, -1,
      68, 90, 73, -1,
      73, 90, 13, -1,
      73, 13, 102, -1,
      102, 13, 58, -1,
      103, 104, 105, -1,
      105, 104, 106, -1,
      105, 106, 107, -1,
      107, 106, 108, -1,
      107, 108, 109, -1,
      109, 108, 110, -1,
      111, 106, 104, -1,
      58, 60, 111, -1,
      112, 113, 114, -1,
      104, 112, 111, -1,
      111, 112, 114, -1,
      111, 114, 58, -1,
      58, 114, 102, -1,
      115, 116, 117, -1,
      117, 110, 118, -1,
      118, 110, 108, -1,
      118, 38, 20, -1,
      117, 118, 115, -1,
      115, 118, 20, -1,
      115, 20, 69, -1,
      119, 117, 120, -1,
      120, 117, 116, -1,
      120, 116, 121, -1,
      121, 116, 113, -1,
      121, 113, 122, -1,
      122, 113, 112, -1,
      110, 5, 109, -1,
      109, 5, 4, -1,
      109, 4, 103, -1,
      103, 4, 104, -1,
      5, 110, 7, -1,
      7, 110, 117, -1,
      7, 117, 2, -1,
      2, 117, 0, -1,
      112, 1, 122, -1,
      122, 1, 0, -1,
      122, 0, 119, -1,
      119, 0, 117, -1,
      112, 104, 4, -1,
      4, 6, 112, -1,
      112, 6, 3, -1,
      112, 3, 1, -1,
    ]
  }
}

Shape {
  appearance Appearance {
    material Material {
      diffuseColor 0.3490 0.3490 0.3490
      specularColor 0.0235 0.0235 0.0235
      ambientIntensity 0.2
      transparency 0.0000
      shininess 0.5
    }
  }
  geometry IndexedFaceSet {
    ccw TRUE
    solid FALSE
    coord DEF co Coordinate {
      point [
        -0.659393 0.639707 0.413386,
        -0.659393 -0.639707 0.413386,
        -0.580652 -0.639707 0.413386,
        -0.580652 0.639707 0.413386,
      ]
    }
    coordIndex [
      1, 2, 0, -1,
      0, 2, 3, -1,
    ]
  }
}

Shape {
  appearance Appearance {
    material Material {
      diffuseColor 0.2078 0.2078 0.2078
      specularColor 0.0157 0.0157 0.0157
      ambientIntensity 0.2
      transparency 0.0000
      shininess 0.5
    }
  }
  geometry IndexedFaceSet {
    ccw TRUE
    solid FALSE
    coord DEF co Coordinate {
      point [
        0.397638 0.639707 -0.413386,
        0.397638 -0.035314 -0.413386,
        0.397638 -0.639707 -0.413386,
        -0.397638 0.639707 -0.413386,
        -0.397638 -0.035314 -0.413386,
        -0.397638 -0.639707 -0.413386,
        0.784444 -0.646649 -0.374016,
        0.784444 0.646649 -0.374016,
        0.437008 -0.646649 -0.374016,
        -0.784444 -0.646649 -0.374016,
        -0.437008 -0.646649 -0.374016,
        -0.437008 0.646649 -0.374016,
        -0.784444 0.646649 -0.374016,
        0.437008 0.646649 -0.374016,
      ]
    }
    coordIndex [
      12, 11, 9, -1,
      9, 11, 10, -1,
      7, 6, 13, -1,
      13, 6, 8, -1,
      0, 13, 1, -1,
      1, 13, 8, -1,
      1, 8, 2, -1,
      5, 10, 4, -1,
      4, 10, 11, -1,
      4, 11, 3, -1,
    ]
  }
}

Shape {
  appearance Appearance {
    material Material {
      diffuseColor 0.6667 0.6667 0.6667
      specularColor 0.4667 0.4667 0.4667
      ambientIntensity 0.2
      transparency 0.0000
      shininess 0.5
    }
  }
  geometry IndexedFaceSet {
    ccw TRUE
    solid FALSE
    coord DEF co Coordinate {
      point [
        0.850394 -0.408465 0.000000,
        0.834427 -0.408465 -0.090551,
        0.834427 0.408465 -0.090551,
        0.850394 0.408465 0.000000,
        -0.850394 0.408465 0.000000,
        -0.834427 0.408465 -0.090551,
        -0.834427 -0.408465 -0.090551,
        -0.850394 -0.408465 0.000000,
        -0.933071 0.408465 0.000000,
        -0.933071 -0.408465 0.000000,
        -0.933071 0.408465 -0.090551,
        -0.933071 -0.408465 -0.090551,
        -0.943261 0.408465 -0.091893,
        -0.943261 -0.408465 -0.091893,
        -0.952756 0.408465 -0.095826,
        -0.952756 -0.408465 -0.095826,
        -0.960910 0.408465 -0.102082,
        -0.960910 -0.408465 -0.102082,
        -0.967167 0.408465 -0.110236,
        -0.967167 -0.408465 -0.110236,
        -0.971100 0.408465 -0.119731,
        -0.971100 -0.408465 -0.119731,
        -0.972441 0.408465 -0.129921,
        -0.972441 -0.408465 -0.129921,
        -0.972441 0.408465 -0.346457,
        -0.972441 -0.408465 -0.346457,
        -0.971100 0.408465 -0.356646,
        -0.971100 -0.408465 -0.356646,
        -0.967167 0.408465 -0.366142,
        -0.967167 -0.408465 -0.366142,
        -0.960910 0.408465 -0.374296,
        -0.960910 -0.408465 -0.374296,
        -0.952756 0.408465 -0.380552,
        -0.952756 -0.408465 -0.380552,
        -0.943261 0.408465 -0.384485,
        -0.943261 -0.408465 -0.384485,
        -0.933071 0.408465 -0.385827,
        -0.933071 -0.408465 -0.385827,
        -0.614173 0.408465 -0.385827,
        -0.614173 -0.408465 -0.385827,
        -0.614173 0.408465 -0.476378,
        -0.614173 -0.408465 -0.476378,
        -0.933071 0.408465 -0.476378,
        -0.933071 -0.408465 -0.476378,
        -0.966697 -0.408465 -0.471951,
        -0.966697 0.408465 -0.471951,
        -0.998031 -0.408465 -0.458972,
        -0.998031 0.408465 -0.458972,
        -1.024939 -0.408465 -0.438325,
        -1.024939 0.408465 -0.438325,
        -1.045586 -0.408465 -0.411417,
        -1.045586 0.408465 -0.411417,
        -1.058565 -0.408465 -0.380083,
        -1.058565 0.408465 -0.380083,
        -1.062992 -0.408465 -0.346457,
        -1.062992 0.408465 -0.346457,
        -1.062992 0.408465 -0.129921,
        -1.062992 -0.408465 -0.129921,
        -1.058565 -0.408465 -0.096295,
        -1.058565 0.408465 -0.096295,
        -1.045586 -0.408465 -0.064961,
        -1.045586 0.408465 -0.064961,
        -1.024939 -0.408465 -0.038053,
        -1.024939 0.408465 -0.038053,
        -0.998031 -0.408465 -0.017406,
        -0.998031 0.408465 -0.017406,
        -0.966697 -0.408465 -0.004427,
        -0.966697 0.408465 -0.004427,
        0.933071 -0.408465 0.000000,
        0.933071 0.408465 0.000000,
        0.966697 -0.408465 -0.004427,
        0.966697 0.408465 -0.004427,
        0.998031 -0.408465 -0.017406,
        0.998031 0.408465 -0.017406,
        1.024939 -0.408465 -0.038053,
        1.024939 0.408465 -0.038053,
        1.045586 -0.408465 -0.064961,
        1.045586 0.408465 -0.064961,
        1.058565 -0.408465 -0.096295,
        1.058565 0.408465 -0.096295,
        1.062992 -0.408465 -0.129921,
        1.062992 0.408465 -0.129921,
        1.062992 0.408465 -0.346457,
        1.062992 -0.408465 -0.346457,
        1.058565 -0.408465 -0.380083,
        1.058565 0.408465 -0.380083,
        1.045586 -0.408465 -0.411417,
        1.045586 0.408465 -0.411417,
        1.024939 -0.408465 -0.438325,
        1.024939 0.408465 -0.438325,
        0.998031 -0.408465 -0.458972,
        0.998031 0.408465 -0.458972,
        0.966697 -0.408465 -0.471951,
        0.966697 0.408465 -0.471951,
        0.933071 -0.408465 -0.476378,
        0.933071 0.408465 -0.476378,
        0.614173 0.408465 -0.476378,
        0.614173 -0.408465 -0.476378,
        0.614173 0.408465 -0.385827,
        0.614173 -0.408465 -0.385827,
        0.933071 0.408465 -0.385827,
        0.933071 -0.408465 -0.385827,
        0.943261 0.408465 -0.384485,
        0.943261 -0.408465 -0.384485,
        0.952756 0.408465 -0.380552,
        0.952756 -0.408465 -0.380552,
        0.960910 0.408465 -0.374296,
        0.960910 -0.408465 -0.374296,
        0.967167 0.408465 -0.366142,
        0.967167 -0.408465 -0.366142,
        0.971100 0.408465 -0.356646,
        0.971100 -0.408465 -0.356646,
        0.972441 0.408465 -0.346457,
        0.972441 -0.408465 -0.346457,
        0.972441 0.408465 -0.129921,
        0.972441 -0.408465 -0.129921,
        0.971100 0.408465 -0.119731,
        0.971100 -0.408465 -0.119731,
        0.967167 0.408465 -0.110236,
        0.967167 -0.408465 -0.110236,
        0.960910 0.408465 -0.102082,
        0.960910 -0.408465 -0.102082,
        0.952756 0.408465 -0.095826,
        0.952756 -0.408465 -0.095826,
        0.943261 0.408465 -0.091893,
        0.943261 -0.408465 -0.091893,
        0.933071 0.408465 -0.090551,
        0.933071 -0.408465 -0.090551,
      ]
    }
    coordIndex [
      4, 8, 7, -1,
      7, 8, 9, -1,
      10, 5, 11, -1,
      11, 5, 6, -1,
      10, 11, 12, -1,
      12, 11, 13, -1,
      12, 13, 14, -1,
      14, 13, 15, -1,
      14, 15, 16, -1,
      16, 15, 17, -1,
      16, 17, 18, -1,
      18, 17, 19, -1,
      18, 19, 20, -1,
      20, 19, 21, -1,
      20, 21, 22, -1,
      22, 21, 23, -1,
      24, 22, 25, -1,
      25, 22, 23, -1,
      24, 25, 26, -1,
      26, 25, 27, -1,
      26, 27, 28, -1,
      28, 27, 29, -1,
      28, 29, 30, -1,
      30, 29, 31, -1,
      30, 31, 32, -1,
      32, 31, 33, -1,
      32, 33, 34, -1,
      34, 33, 35, -1,
      34, 35, 36, -1,
      36, 35, 37, -1,
      38, 36, 39, -1,
      39, 36, 37, -1,
      40, 38, 41, -1,
      41, 38, 39, -1,
      42, 40, 43, -1,
      43, 40, 41, -1,
      42, 43, 44, -1,
      42, 44, 45, -1,
      45, 44, 46, -1,
      45, 46, 47, -1,
      47, 46, 48, -1,
      47, 48, 49, -1,
      49, 48, 50, -1,
      49, 50, 51, -1,
      51, 50, 52, -1,
      51, 52, 53, -1,
      53, 52, 54, -1,
      53, 54, 55, -1,
      56, 55, 57, -1,
      57, 55, 54, -1,
      56, 57, 58, -1,
      56, 58, 59, -1,
      59, 58, 60, -1,
      59, 60, 61, -1,
      61, 60, 62, -1,
      61, 62, 63, -1,
      63, 62, 64, -1,
      63, 64, 65, -1,
      65, 64, 66, -1,
      65, 66, 67, -1,
      67, 66, 9, -1,
      67, 9, 8, -1,
      38, 40, 36, -1,
      36, 40, 42, -1,
      36, 42, 34, -1,
      34, 42, 45, -1,
      34, 45, 32, -1,
      32, 45, 47, -1,
      32, 47, 30, -1,
      30, 47, 49, -1,
      30, 49, 28, -1,
      28, 49, 51, -1,
      28, 51, 26, -1,
      26, 51, 53, -1,
      26, 53, 24, -1,
      24, 53, 55, -1,
      24, 55, 22, -1,
      22, 55, 56, -1,
      22, 56, 20, -1,
      20, 56, 59, -1,
      20, 59, 18, -1,
      18, 59, 61, -1,
      18, 61, 16, -1,
      16, 61, 63, -1,
      16, 63, 14, -1,
      14, 63, 65, -1,
      14, 65, 12, -1,
      12, 65, 67, -1,
      12, 67, 10, -1,
      10, 67, 8, -1,
      10, 8, 5, -1,
      5, 8, 4, -1,
      6, 7, 11, -1,
      11, 7, 9, -1,
      11, 9, 13, -1,
      13, 9, 66, -1,
      13, 66, 15, -1,
      15, 66, 64, -1,
      15, 64, 17, -1,
      17, 64, 62, -1,
      17, 62, 19, -1,
      19, 62, 60, -1,
      19, 60, 21, -1,
      21, 60, 58, -1,
      21, 58, 23, -1,
      23, 58, 57, -1,
      23, 57, 25, -1,
      25, 57, 54, -1,
      25, 54, 27, -1,
      27, 54, 52, -1,
      27, 52, 29, -1,
      29, 52, 50, -1,
      29, 50, 31, -1,
      31, 50, 48, -1,
      31, 48, 33, -1,
      33, 48, 46, -1,
      33, 46, 35, -1,
      35, 46, 44, -1,
      35, 44, 37, -1,
      37, 44, 43, -1,
      37, 43, 39, -1,
      39, 43, 41, -1,
      68, 69, 0, -1,
      0, 69, 3, -1,
      69, 68, 70, -1,
      69, 70, 71, -1,
      71, 70, 72, -1,
      71, 72, 73, -1,
      73, 72, 74, -1,
      73, 74, 75, -1,
      75, 74, 76, -1,
      75, 76, 77, -1,
      77, 76, 78, -1,
      77, 78, 79, -1,
      79, 78, 80, -1,
      79, 80, 81, -1,
      82, 81, 83, -1,
      83, 81, 80, -1,
      82, 83, 84, -1,
      82, 84, 85, -1,
      85, 84, 86, -1,
      85, 86, 87, -1,
      87, 86, 88, -1,
      87, 88, 89, -1,
      89, 88, 90, -1,
      89, 90, 91, -1,
      91, 90, 92, -1,
      91, 92, 93, -1,
      93, 92, 94, -1,
      93, 94, 95, -1,
      96, 95, 97, -1,
      97, 95, 94, -1,
      98, 96, 99, -1,
      99, 96, 97, -1,
      100, 98, 101, -1,
      101, 98, 99, -1,
      100, 101, 102, -1,
      102, 101, 103, -1,
      102, 103, 104, -1,
      104, 103, 105, -1,
      104, 105, 106, -1,
      106, 105, 107, -1,
      106, 107, 108, -1,
      108, 107, 109, -1,
      108, 109, 110, -1,
      110, 109, 111, -1,
      110, 111, 112, -1,
      112, 111, 113, -1,
      114, 112, 115, -1,
      115, 112, 113, -1,
      114, 115, 116, -1,
      116, 115, 117, -1,
      116, 117, 118, -1,
      118, 117, 119, -1,
      118, 119, 120, -1,
      120, 119, 121, -1,
      120, 121, 122, -1,
      122, 121, 123, -1,
      122, 123, 124, -1,
      124, 123, 125, -1,
      124, 125, 126, -1,
      126, 125, 127, -1,
      2, 126, 1, -1,
      1, 126, 127, -1,
      2, 3, 126, -1,
      126, 3, 69, -1,
      126, 69, 124, -1,
      124, 69, 71, -1,
      124, 71, 122, -1,
      122, 71, 73, -1,
      122, 73, 120, -1,
      120, 73, 75, -1,
      120, 75, 118, -1,
      118, 75, 77, -1,
      118, 77, 116, -1,
      116, 77, 79, -1,
      116, 79, 114, -1,
      114, 79, 81, -1,
      114, 81, 112, -1,
      112, 81, 82, -1,
      112, 82, 110, -1,
      110, 82, 85, -1,
      110, 85, 108, -1,
      108, 85, 87, -1,
      108, 87, 106, -1,
      106, 87, 89, -1,
      106, 89, 104, -1,
      104, 89, 91, -1,
      104, 91, 102, -1,
      102, 91, 93, -1,
      102, 93, 100, -1,
      100, 93, 95, -1,
      100, 95, 98, -1,
      98, 95, 96, -1,
      99, 97, 101, -1,
      101, 97, 94, -1,
      101, 94, 103, -1,
      103, 94, 92, -1,
      103, 92, 105, -1,
      105, 92, 90, -1,
      105, 90, 107, -1,
      107, 90, 88, -1,
      107, 88, 109, -1,
      109, 88, 86, -1,
      109, 86, 111, -1,
      111, 86, 84, -1,
      111, 84, 113, -1,
      113, 84, 83, -1,
      113, 83, 115, -1,
      115, 83, 80, -1,
      115, 80, 117, -1,
      117, 80, 78, -1,
      117, 78, 119, -1,
      119, 78, 76, -1,
      119, 76, 121, -1,
      121, 76, 74, -1,
      121, 74, 123, -1,
      123, 74, 72, -1,
      123, 72, 125, -1,
      125, 72, 70, -1,
      125, 70, 127, -1,
      127, 70, 68, -1,
      127, 68, 1, -1,
      1, 68, 0, -1,
    ]
  }
}

Shape {
  appearance Appearance {
    material Material {
      diffuseColor 1.0000 1.0000 1.0000
      specularColor 0.8784 0.8784 0.8784
      ambientIntensity 0.2
      transparency 0.0000
      shininess 0.5
    }
  }
  geometry IndexedFaceSet {
    ccw TRUE
    solid FALSE
    coord DEF co Coordinate {
      point [
        0.067412 0.036224 -0.413386,
        0.075166 0.035354 -0.413386,
        0.050384 -0.022892 -0.413386,
        0.048972 -0.022111 -0.413386,
        0.048972 -0.030753 -0.413386,
        0.087974 -0.032161 -0.413386,
        0.114269 -0.034834 -0.413386,
        0.080342 -0.034788 -0.413386,
        0.075269 -0.035314 -0.413386,
        0.057842 0.034981 -0.413386,
        0.048972 0.031183 -0.413386,
        0.048972 0.041746 -0.413386,
        0.081059 0.033227 -0.413386,
        0.086509 0.029581 -0.413386,
        0.091264 0.024331 -0.413386,
        0.096985 0.003696 -0.413386,
        0.096187 -0.004828 -0.413386,
        0.094048 -0.011601 -0.413386,
        0.076527 -0.026328 -0.413386,
        0.069183 -0.027152 -0.413386,
        0.082264 -0.024216 -0.413386,
        0.087097 -0.020959 -0.413386,
        0.090792 -0.017061 -0.413386,
        0.058731 -0.025992 -0.413386,
        0.103392 0.023167 -0.413386,
        0.098777 0.030529 -0.413386,
        0.144037 0.043906 -0.413386,
        0.154600 0.043906 -0.413386,
        0.154600 -0.034834 -0.413386,
        0.094510 0.018252 -0.413386,
        0.096609 0.009822 -0.413386,
        0.094307 -0.028116 -0.413386,
        0.100222 -0.021890 -0.413386,
        0.114269 -0.026191 -0.413386,
        0.104417 -0.014403 -0.413386,
        0.144037 -0.026191 -0.413386,
        0.091668 0.037366 -0.413386,
        0.084189 0.041671 -0.413386,
        0.075411 0.044221 -0.413386,
        0.106786 -0.006068 -0.413386,
        0.107548 0.003051 -0.413386,
        0.106415 0.014246 -0.413386,
        0.067502 0.044867 -0.413386,
        0.058076 0.044216 -0.413386,
        0.057366 -0.034199 -0.413386,
        0.065322 -0.035314 -0.413386,
        0.068485 -0.035757 -0.413386,
        0.070638 -0.035794 -0.413386,
        0.033609 -0.034834 -0.413386,
        0.033609 0.043906 -0.413386,
        -0.093144 -0.034834 -0.413386,
        -0.083450 -0.013253 -0.413386,
        -0.078935 -0.020296 -0.413386,
        -0.122911 0.043906 -0.413386,
        -0.133474 0.043906 -0.413386,
        -0.006722 0.035264 -0.413386,
        0.023046 0.035264 -0.413386,
        0.023046 0.009338 -0.413386,
        -0.006722 0.043906 -0.413386,
        -0.024006 0.043906 -0.413386,
        -0.004801 0.009338 -0.413386,
        -0.024006 -0.034834 -0.413386,
        -0.004801 0.000695 -0.413386,
        -0.072454 -0.026501 -0.413386,
        -0.064232 -0.031279 -0.413386,
        -0.055159 -0.033983 -0.413386,
        0.023046 0.000695 -0.413386,
        0.023046 -0.026191 -0.413386,
        -0.008642 -0.026191 -0.413386,
        -0.008642 -0.034834 -0.413386,
        -0.046227 0.043906 -0.413386,
        -0.057603 0.042691 -0.413386,
        -0.081036 0.027465 -0.413386,
        -0.084695 0.020694 -0.413386,
        -0.164202 -0.034834 -0.413386,
        -0.152679 -0.034834 -0.413386,
        -0.045417 -0.034834 -0.413386,
        -0.086810 0.012936 -0.413386,
        -0.087382 0.005527 -0.413386,
        -0.086278 -0.005011 -0.413386,
        -0.066815 0.039456 -0.413386,
        -0.075385 0.033712 -0.413386,
        -0.075468 0.033640 -0.413386,
        -0.144712 -0.012748 -0.413386,
        -0.112184 -0.012748 -0.413386,
        -0.104667 -0.034834 -0.413386,
        -0.133474 0.043906 -0.405512,
        -0.164202 -0.034834 -0.405512,
        -0.152679 -0.034834 -0.405512,
        -0.144712 -0.012748 -0.405512,
        -0.112184 -0.012748 -0.405512,
        -0.104667 -0.034834 -0.405512,
        -0.093144 -0.034834 -0.405512,
        -0.122911 0.043906 -0.405512,
        -0.114839 -0.004106 -0.405512,
        -0.141171 -0.004106 -0.405512,
        -0.126587 0.028783 -0.405512,
        -0.127345 0.031513 -0.405512,
        -0.127848 0.034304 -0.405512,
        -0.128103 0.034304 -0.405512,
        -0.128617 0.031522 -0.405512,
        -0.129318 0.028783 -0.405512,
        -0.114839 -0.004106 -0.413386,
        -0.141171 -0.004106 -0.413386,
        -0.126587 0.028783 -0.413386,
        -0.127345 0.031513 -0.413386,
        -0.127848 0.034304 -0.413386,
        -0.128103 0.034304 -0.413386,
        -0.128617 0.031522 -0.413386,
        -0.129318 0.028783 -0.413386,
        -0.045417 -0.034834 -0.405512,
        -0.024006 -0.034834 -0.405512,
        -0.024006 0.043906 -0.405512,
        -0.046227 0.043906 -0.405512,
        -0.087382 0.005527 -0.405512,
        -0.086810 0.012936 -0.405512,
        -0.084695 0.020694 -0.405512,
        -0.081036 0.027465 -0.405512,
        -0.075468 0.033640 -0.405512,
        -0.075385 0.033712 -0.405512,
        -0.066815 0.039456 -0.405512,
        -0.057603 0.042691 -0.405512,
        -0.055159 -0.033983 -0.405512,
        -0.064232 -0.031279 -0.405512,
        -0.072454 -0.026501 -0.405512,
        -0.078935 -0.020296 -0.405512,
        -0.083450 -0.013253 -0.405512,
        -0.086278 -0.005011 -0.405512,
        -0.071577 0.024222 -0.405512,
        -0.067752 0.028283 -0.405512,
        -0.062001 0.031999 -0.405512,
        -0.055502 0.034274 -0.405512,
        -0.046182 0.035264 -0.405512,
        -0.034569 0.035264 -0.405512,
        -0.034569 -0.026191 -0.405512,
        -0.045747 -0.026191 -0.405512,
        -0.054054 -0.025418 -0.405512,
        -0.060680 -0.023350 -0.405512,
        -0.066050 -0.020161 -0.405512,
        -0.070466 -0.015799 -0.405512,
        -0.073787 -0.010370 -0.405512,
        -0.076097 -0.002969 -0.405512,
        -0.076820 0.005302 -0.405512,
        -0.076151 0.013138 -0.405512,
        -0.074313 0.019366 -0.405512,
        -0.046182 0.035264 -0.413386,
        -0.034569 0.035264 -0.413386,
        -0.055502 0.034274 -0.413386,
        -0.062001 0.031999 -0.413386,
        -0.067752 0.028283 -0.413386,
        -0.071577 0.024222 -0.413386,
        -0.074313 0.019366 -0.413386,
        -0.076151 0.013138 -0.413386,
        -0.076820 0.005302 -0.413386,
        -0.076097 -0.002969 -0.413386,
        -0.073787 -0.010370 -0.413386,
        -0.070466 -0.015799 -0.413386,
        -0.066050 -0.020161 -0.413386,
        -0.060680 -0.023350 -0.413386,
        -0.054054 -0.025418 -0.413386,
        -0.045747 -0.026191 -0.413386,
        -0.034569 -0.026191 -0.413386,
        -0.008642 -0.026191 -0.405512,
        -0.008642 -0.034834 -0.405512,
        0.033609 -0.034834 -0.405512,
        0.033609 0.043906 -0.405512,
        -0.006722 0.043906 -0.405512,
        -0.006722 0.035264 -0.405512,
        0.023046 0.035264 -0.405512,
        0.023046 0.009338 -0.405512,
        -0.004801 0.009338 -0.405512,
        -0.004801 0.000695 -0.405512,
        0.023046 0.000695 -0.405512,
        0.023046 -0.026191 -0.405512,
        0.048972 -0.022111 -0.405512,
        0.048972 -0.030753 -0.405512,
        0.057366 -0.034199 -0.405512,
        0.070638 -0.035794 -0.405512,
        0.068485 -0.035757 -0.405512,
        0.107548 0.003051 -0.405512,
        0.106786 -0.006068 -0.405512,
        0.104417 -0.014403 -0.405512,
        0.100222 -0.021890 -0.405512,
        0.094307 -0.028116 -0.405512,
        0.087974 -0.032161 -0.405512,
        0.080342 -0.034788 -0.405512,
        0.067502 0.044867 -0.405512,
        0.075411 0.044221 -0.405512,
        0.084189 0.041671 -0.405512,
        0.091668 0.037366 -0.405512,
        0.098777 0.030529 -0.405512,
        0.103392 0.023167 -0.405512,
        0.106415 0.014246 -0.405512,
        0.048972 0.041746 -0.405512,
        0.058076 0.044216 -0.405512,
        0.048972 0.031183 -0.405512,
        0.067412 0.036224 -0.405512,
        0.057842 0.034981 -0.405512,
        0.096985 0.003696 -0.405512,
        0.096609 0.009822 -0.405512,
        0.094510 0.018252 -0.405512,
        0.091264 0.024331 -0.405512,
        0.086509 0.029581 -0.405512,
        0.081059 0.033227 -0.405512,
        0.075166 0.035354 -0.405512,
        0.069183 -0.027152 -0.405512,
        0.076527 -0.026328 -0.405512,
        0.082264 -0.024216 -0.405512,
        0.087097 -0.020959 -0.405512,
        0.090792 -0.017061 -0.405512,
        0.094048 -0.011601 -0.405512,
        0.096187 -0.004828 -0.405512,
        0.050384 -0.022892 -0.405512,
        0.058731 -0.025992 -0.405512,
        0.114269 -0.026191 -0.405512,
        0.114269 -0.034834 -0.405512,
        0.154600 -0.034834 -0.405512,
        0.154600 0.043906 -0.405512,
        0.144037 0.043906 -0.405512,
        0.144037 -0.026191 -0.405512,
      ]
    }
    coordIndex [
      86, 87, 54, -1,
      54, 87, 74, -1,
      87, 88, 74, -1,
      74, 88, 75, -1,
      88, 89, 75, -1,
      75, 89, 83, -1,
      89, 90, 83, -1,
      83, 90, 84, -1,
      90, 91, 84, -1,
      84, 91, 85, -1,
      91, 92, 85, -1,
      85, 92, 50, -1,
      92, 93, 50, -1,
      50, 93, 53, -1,
      93, 86, 53, -1,
      53, 86, 54, -1,
      94, 90, 95, -1,
      95, 90, 89, -1,
      96, 93, 94, -1,
      94, 93, 92, -1,
      94, 92, 90, -1,
      90, 92, 91, -1,
      96, 97, 93, -1,
      93, 97, 98, -1,
      93, 98, 86, -1,
      86, 98, 99, -1,
      86, 99, 100, -1,
      100, 101, 86, -1,
      86, 101, 95, -1,
      86, 95, 87, -1,
      87, 95, 89, -1,
      87, 89, 88, -1,
      94, 95, 102, -1,
      102, 95, 103, -1,
      96, 94, 104, -1,
      104, 94, 102, -1,
      96, 104, 105, -1,
      96, 105, 97, -1,
      97, 105, 106, -1,
      97, 106, 98, -1,
      99, 98, 107, -1,
      107, 98, 106, -1,
      99, 107, 108, -1,
      99, 108, 100, -1,
      100, 108, 109, -1,
      100, 109, 101, -1,
      95, 101, 103, -1,
      103, 101, 109, -1,
      110, 111, 76, -1,
      76, 111, 61, -1,
      111, 112, 61, -1,
      61, 112, 59, -1,
      112, 113, 59, -1,
      59, 113, 70, -1,
      114, 78, 77, -1,
      114, 77, 115, -1,
      115, 77, 73, -1,
      115, 73, 116, -1,
      116, 73, 72, -1,
      116, 72, 117, -1,
      117, 72, 82, -1,
      117, 82, 118, -1,
      118, 82, 81, -1,
      118, 81, 119, -1,
      119, 81, 80, -1,
      119, 80, 120, -1,
      120, 80, 71, -1,
      120, 71, 121, -1,
      121, 71, 70, -1,
      121, 70, 113, -1,
      110, 76, 65, -1,
      110, 65, 122, -1,
      122, 65, 64, -1,
      122, 64, 123, -1,
      123, 64, 63, -1,
      123, 63, 124, -1,
      124, 63, 52, -1,
      124, 52, 125, -1,
      125, 52, 51, -1,
      125, 51, 126, -1,
      126, 51, 79, -1,
      126, 79, 127, -1,
      127, 79, 78, -1,
      127, 78, 114, -1,
      116, 117, 128, -1,
      128, 117, 118, -1,
      128, 118, 129, -1,
      129, 118, 119, -1,
      129, 119, 130, -1,
      130, 119, 120, -1,
      130, 120, 131, -1,
      131, 120, 121, -1,
      131, 121, 132, -1,
      132, 121, 113, -1,
      132, 113, 133, -1,
      133, 113, 112, -1,
      133, 112, 134, -1,
      134, 112, 111, -1,
      134, 111, 135, -1,
      135, 111, 110, -1,
      135, 110, 136, -1,
      136, 110, 122, -1,
      136, 122, 137, -1,
      137, 122, 123, -1,
      137, 123, 138, -1,
      138, 123, 124, -1,
      138, 124, 139, -1,
      139, 124, 125, -1,
      139, 125, 140, -1,
      140, 125, 126, -1,
      140, 126, 141, -1,
      141, 126, 127, -1,
      141, 127, 142, -1,
      142, 127, 114, -1,
      142, 114, 143, -1,
      143, 114, 115, -1,
      143, 115, 144, -1,
      144, 115, 116, -1,
      144, 116, 128, -1,
      132, 133, 145, -1,
      145, 133, 146, -1,
      132, 145, 147, -1,
      132, 147, 131, -1,
      131, 147, 148, -1,
      131, 148, 130, -1,
      130, 148, 149, -1,
      130, 149, 129, -1,
      129, 149, 150, -1,
      129, 150, 128, -1,
      128, 150, 151, -1,
      128, 151, 144, -1,
      144, 151, 152, -1,
      144, 152, 143, -1,
      143, 152, 153, -1,
      143, 153, 142, -1,
      142, 153, 154, -1,
      142, 154, 141, -1,
      141, 154, 155, -1,
      141, 155, 140, -1,
      140, 155, 156, -1,
      140, 156, 139, -1,
      139, 156, 157, -1,
      139, 157, 138, -1,
      138, 157, 158, -1,
      138, 158, 137, -1,
      137, 158, 159, -1,
      137, 159, 136, -1,
      136, 159, 160, -1,
      136, 160, 135, -1,
      134, 135, 161, -1,
      161, 135, 160, -1,
      133, 134, 146, -1,
      146, 134, 161, -1,
      162, 163, 68, -1,
      68, 163, 69, -1,
      163, 164, 69, -1,
      69, 164, 48, -1,
      164, 165, 48, -1,
      48, 165, 49, -1,
      165, 166, 49, -1,
      49, 166, 58, -1,
      166, 167, 58, -1,
      58, 167, 55, -1,
      167, 168, 55, -1,
      55, 168, 56, -1,
      168, 169, 56, -1,
      56, 169, 57, -1,
      169, 170, 57, -1,
      57, 170, 60, -1,
      170, 171, 60, -1,
      60, 171, 62, -1,
      171, 172, 62, -1,
      62, 172, 66, -1,
      172, 173, 66, -1,
      66, 173, 67, -1,
      173, 162, 67, -1,
      67, 162, 68, -1,
      164, 163, 162, -1,
      162, 173, 164, -1,
      164, 173, 172, -1,
      164, 172, 165, -1,
      167, 166, 168, -1,
      168, 166, 165, -1,
      168, 165, 169, -1,
      169, 165, 172, -1,
      169, 172, 170, -1,
      170, 172, 171, -1,
      174, 175, 3, -1,
      3, 175, 4, -1,
      4, 175, 176, -1,
      177, 47, 46, -1,
      177, 46, 178, -1,
      178, 46, 45, -1,
      178, 45, 176, -1,
      176, 45, 44, -1,
      176, 44, 4, -1,
      179, 40, 39, -1,
      179, 39, 180, -1,
      180, 39, 34, -1,
      180, 34, 181, -1,
      181, 34, 32, -1,
      181, 32, 182, -1,
      182, 32, 31, -1,
      182, 31, 183, -1,
      183, 31, 5, -1,
      183, 5, 184, -1,
      184, 5, 7, -1,
      184, 7, 185, -1,
      185, 7, 177, -1,
      177, 7, 8, -1,
      177, 8, 47, -1,
      186, 42, 38, -1,
      186, 38, 187, -1,
      187, 38, 37, -1,
      187, 37, 188, -1,
      188, 37, 36, -1,
      188, 36, 189, -1,
      189, 36, 25, -1,
      189, 25, 190, -1,
      190, 25, 24, -1,
      190, 24, 191, -1,
      191, 24, 41, -1,
      191, 41, 192, -1,
      192, 41, 40, -1,
      192, 40, 179, -1,
      193, 11, 43, -1,
      193, 43, 194, -1,
      194, 43, 42, -1,
      194, 42, 186, -1,
      193, 195, 11, -1,
      11, 195, 10, -1,
      196, 0, 9, -1,
      196, 9, 197, -1,
      197, 9, 10, -1,
      197, 10, 195, -1,
      198, 15, 30, -1,
      198, 30, 199, -1,
      199, 30, 29, -1,
      199, 29, 200, -1,
      200, 29, 14, -1,
      200, 14, 201, -1,
      201, 14, 13, -1,
      201, 13, 202, -1,
      202, 13, 12, -1,
      202, 12, 203, -1,
      203, 12, 1, -1,
      203, 1, 204, -1,
      204, 1, 0, -1,
      204, 0, 196, -1,
      205, 19, 18, -1,
      205, 18, 206, -1,
      206, 18, 20, -1,
      206, 20, 207, -1,
      207, 20, 21, -1,
      207, 21, 208, -1,
      208, 21, 22, -1,
      208, 22, 209, -1,
      209, 22, 17, -1,
      209, 17, 210, -1,
      210, 17, 16, -1,
      210, 16, 211, -1,
      211, 16, 15, -1,
      211, 15, 198, -1,
      174, 3, 2, -1,
      174, 2, 212, -1,
      212, 2, 23, -1,
      212, 23, 213, -1,
      213, 23, 19, -1,
      213, 19, 205, -1,
      206, 177, 205, -1,
      205, 177, 178, -1,
      205, 178, 213, -1,
      213, 178, 176, -1,
      213, 176, 212, -1,
      212, 176, 175, -1,
      212, 175, 174, -1,
      195, 193, 197, -1,
      197, 193, 194, -1,
      197, 194, 196, -1,
      196, 194, 186, -1,
      196, 186, 204, -1,
      204, 186, 187, -1,
      204, 187, 203, -1,
      203, 187, 188, -1,
      203, 188, 202, -1,
      202, 188, 189, -1,
      202, 189, 201, -1,
      201, 189, 190, -1,
      201, 190, 200, -1,
      200, 190, 191, -1,
      200, 191, 199, -1,
      199, 191, 192, -1,
      199, 192, 198, -1,
      198, 192, 179, -1,
      198, 179, 211, -1,
      211, 179, 180, -1,
      211, 180, 210, -1,
      210, 180, 181, -1,
      210, 181, 209, -1,
      209, 181, 182, -1,
      209, 182, 208, -1,
      208, 182, 183, -1,
      208, 183, 207, -1,
      207, 183, 184, -1,
      207, 184, 206, -1,
      206, 184, 185, -1,
      206, 185, 177, -1,
      214, 215, 33, -1,
      33, 215, 6, -1,
      215, 216, 6, -1,
      6, 216, 28, -1,
      216, 217, 28, -1,
      28, 217, 27, -1,
      217, 218, 27, -1,
      27, 218, 26, -1,
      218, 219, 26, -1,
      26, 219, 35, -1,
      219, 214, 35, -1,
      35, 214, 33, -1,
      218, 217, 219, -1,
      219, 217, 216, -1,
      219, 216, 214, -1,
      214, 216, 215, -1,
    ]
  }
}

Shape {
  appearance Appearance {
    material Material {
      diffuseColor 0.2078 0.2078 0.2078
      specularColor 0.0157 0.0157 0.0157
      ambientIntensity 0.2
      transparency 0.0000
      shininess 0.5
    }
  }
  geometry IndexedFaceSet {
    ccw TRUE
    solid FALSE
    coord DEF co Coordinate {
      point [
        -0.114839 -0.004106 -0.413386,
        -0.141171 -0.004106 -0.413386,
        -0.126587 0.028783 -0.413386,
        -0.127345 0.031513 -0.413386,
        -0.127848 0.034304 -0.413386,
        -0.128103 0.034304 -0.413386,
        -0.128617 0.031522 -0.413386,
        -0.129318 0.028783 -0.413386,
        -0.046182 0.035264 -0.413386,
        -0.034569 0.035264 -0.413386,
        -0.055502 0.034274 -0.413386,
        -0.062001 0.031999 -0.413386,
        -0.067752 0.028283 -0.413386,
        -0.071577 0.024222 -0.413386,
        -0.074313 0.019366 -0.413386,
        -0.076151 0.013138 -0.413386,
        -0.076820 0.005302 -0.413386,
        -0.076097 -0.002969 -0.413386,
        -0.073787 -0.010370 -0.413386,
        -0.070466 -0.015799 -0.413386,
        -0.066050 -0.020161 -0.413386,
        -0.060680 -0.023350 -0.413386,
        -0.054054 -0.025418 -0.413386,
        -0.045747 -0.026191 -0.413386,
        -0.034569 -0.026191 -0.413386,
      ]
    }
    coordIndex [
      0, 1, 2, -1,
      2, 1, 7, -1,
      2, 7, 3, -1,
      3, 7, 6, -1,
      3, 6, 4, -1,
      4, 6, 5, -1,
      9, 24, 8, -1,
      8, 24, 23, -1,
      8, 23, 22, -1,
      16, 15, 8, -1,
      8, 15, 14, -1,
      8, 14, 10, -1,
      22, 21, 8, -1,
      8, 21, 20, -1,
      8, 20, 19, -1,
      19, 18, 8, -1,
      8, 18, 17, -1,
      8, 17, 16, -1,
      13, 12, 14, -1,
      14, 12, 11, -1,
      14, 11, 10, -1,
    ]
  }
}
