#VRML V2.0 utf8

Shape {
  appearance Appearance {
    material Material {
      diffuseColor 0.2510 0.2510 0.2510
      specularColor 0.1255 0.1255 0.1255
      ambientIntensity 0.2
      transparency 0.0000
      shininess 0.5
    }
  }
  geometry IndexedFaceSet {
    ccw TRUE
    solid FALSE
    coord DEF co Coordinate {
      point [
        0.472441 -0.196850 -0.074803,
        0.526599 -0.196850 -0.074803,
        0.526599 -0.349433 -0.074803,
        0.047357 -0.033600 -0.074803,
        0.050520 -0.034043 -0.074803,
        -0.034289 -0.349433 -0.074803,
        0.052673 -0.034080 -0.074803,
        0.057304 -0.033600 -0.074803,
        -0.034289 0.349433 -0.074803,
        -0.026607 -0.024477 -0.074803,
        -0.034289 -0.033600 -0.074803,
        -0.026607 -0.033119 -0.074803,
        0.015644 -0.033119 -0.074803,
        0.526599 0.349433 -0.074803,
        0.472441 0.196850 -0.074803,
        0.526599 0.196850 -0.074803,
        0.031008 -0.029038 -0.074803,
        0.031008 -0.020396 -0.074803,
        0.015644 0.045621 -0.074803,
        0.039401 -0.032485 -0.074803,
        0.005081 0.036978 -0.074803,
        0.005081 0.011052 -0.074803,
        -0.024687 0.036978 -0.074803,
        -0.022766 0.011052 -0.074803,
        0.005081 0.002410 -0.074803,
        0.005081 -0.024477 -0.074803,
        -0.022766 0.002410 -0.074803,
        0.136635 -0.033119 -0.074803,
        0.096304 -0.033119 -0.074803,
        0.062377 -0.033074 -0.074803,
        0.070009 -0.030446 -0.074803,
        -0.024687 0.045621 -0.074803,
        0.057201 0.037068 -0.074803,
        0.063094 0.034941 -0.074803,
        0.032419 -0.021178 -0.074803,
        0.068544 0.031295 -0.074803,
        0.073299 0.026046 -0.074803,
        0.079020 0.005411 -0.074803,
        0.078223 -0.003114 -0.074803,
        0.076083 -0.009886 -0.074803,
        0.058562 -0.024614 -0.074803,
        0.051218 -0.025437 -0.074803,
        0.064300 -0.022502 -0.074803,
        0.069132 -0.019244 -0.074803,
        0.072827 -0.015346 -0.074803,
        0.040766 -0.024277 -0.074803,
        0.085427 0.024881 -0.074803,
        0.080812 0.032243 -0.074803,
        0.126072 0.045621 -0.074803,
        0.076546 0.019966 -0.074803,
        0.078644 0.011537 -0.074803,
        0.073703 0.039080 -0.074803,
        0.136635 0.045621 -0.074803,
        0.472441 -0.033600 -0.074803,
        0.076343 -0.026402 -0.074803,
        0.082257 -0.020176 -0.074803,
        0.096304 -0.024477 -0.074803,
        0.086452 -0.012689 -0.074803,
        0.126072 -0.024477 -0.074803,
        0.088821 -0.004354 -0.074803,
        0.089583 0.004765 -0.074803,
        0.088450 0.015960 -0.074803,
        0.066224 0.043385 -0.074803,
        0.057446 0.045935 -0.074803,
        0.049537 0.046581 -0.074803,
        0.040111 0.045931 -0.074803,
        0.031008 0.043460 -0.074803,
        0.031008 0.032898 -0.074803,
        0.039877 0.036695 -0.074803,
        0.049447 0.037939 -0.074803,
        -0.526599 0.196850 -0.074803,
        -0.526599 0.349433 -0.074803,
        -0.472441 0.196850 -0.074803,
        -0.182167 -0.033119 -0.074803,
        -0.170644 -0.033119 -0.074803,
        -0.111109 -0.033119 -0.074803,
        -0.101415 -0.011539 -0.074803,
        -0.096900 -0.018581 -0.074803,
        -0.090419 -0.024787 -0.074803,
        -0.082197 -0.029565 -0.074803,
        -0.073124 -0.032269 -0.074803,
        -0.140876 0.045621 -0.074803,
        -0.151439 0.045621 -0.074803,
        -0.472441 -0.033600 -0.074803,
        -0.063381 -0.033119 -0.074803,
        -0.041971 -0.033119 -0.074803,
        -0.041971 0.045621 -0.074803,
        -0.064192 0.045621 -0.074803,
        -0.093433 0.035354 -0.074803,
        -0.099001 0.029180 -0.074803,
        -0.102660 0.022408 -0.074803,
        -0.122631 -0.033119 -0.074803,
        -0.130148 -0.011034 -0.074803,
        -0.162677 -0.011034 -0.074803,
        -0.075567 0.044405 -0.074803,
        -0.084780 0.041170 -0.074803,
        -0.093350 0.035426 -0.074803,
        -0.104775 0.014650 -0.074803,
        -0.105347 0.007241 -0.074803,
        -0.104242 -0.003297 -0.074803,
        -0.472441 -0.196850 -0.074803,
        -0.526599 -0.196850 -0.074803,
        -0.526599 -0.349433 -0.074803,
        0.551181 -0.196850 -0.000000,
        0.551181 -0.354406 -0.000000,
        0.546209 -0.196850 -0.056834,
        0.546209 -0.349433 -0.056834,
        0.546209 0.196850 -0.056834,
        0.546209 0.349433 -0.056834,
        0.551181 0.196850 0.000000,
        0.551181 0.354406 0.000000,
        0.545240 -0.349433 -0.061443,
        0.545193 -0.196850 -0.061581,
        0.545177 -0.349433 -0.061573,
        0.543109 -0.349433 -0.065837,
        0.543045 -0.196850 -0.065935,
        0.543035 -0.349433 -0.065926,
        0.539962 -0.349433 -0.069572,
        0.539898 -0.196850 -0.069631,
        0.539891 -0.349433 -0.069623,
        0.535993 -0.349433 -0.072417,
        0.535941 -0.196850 -0.072445,
        0.535939 -0.349433 -0.072438,
        0.531445 -0.349433 -0.074197,
        0.531417 -0.196850 -0.074204,
        0.531416 -0.349433 -0.074201,
        0.545193 0.196850 -0.061581,
        0.545177 0.349433 -0.061573,
        0.545240 0.349433 -0.061443,
        0.543045 0.196850 -0.065935,
        0.539898 0.196850 -0.069631,
        0.539891 0.349433 -0.069623,
        0.539962 0.349433 -0.069572,
        0.543035 0.349433 -0.065926,
        0.543109 0.349433 -0.065837,
        0.531416 0.349433 -0.074201,
        0.531445 0.349433 -0.074197,
        0.535941 0.196850 -0.072445,
        0.535939 0.349433 -0.072438,
        0.535993 0.349433 -0.072417,
        0.531417 0.196850 -0.074204,
        -0.551181 0.354406 0.000000,
        -0.546209 0.349433 -0.056834,
        -0.551181 0.196850 0.000000,
        -0.546209 0.196850 -0.056834,
        -0.545240 0.349433 -0.061443,
        -0.545193 0.196850 -0.061581,
        -0.545177 0.349433 -0.061573,
        -0.543109 0.349433 -0.065837,
        -0.543045 0.196850 -0.065935,
        -0.543035 0.349433 -0.065926,
        -0.539962 0.349433 -0.069572,
        -0.539898 0.196850 -0.069631,
        -0.539891 0.349433 -0.069623,
        -0.535993 0.349433 -0.072417,
        -0.535941 0.196850 -0.072445,
        -0.535939 0.349433 -0.072438,
        -0.531445 0.349433 -0.074197,
        -0.531417 0.196850 -0.074204,
        -0.531416 0.349433 -0.074201,
        0.491810 -0.314644 0.472441,
        0.491810 0.314644 0.472441,
        -0.300020 -0.314644 0.472441,
        -0.300020 0.314644 0.472441,
        0.531571 -0.374016 0.000000,
        -0.531571 -0.374016 -0.000000,
        0.526599 -0.369043 -0.056834,
        -0.526599 -0.369043 -0.056834,
        -0.546209 -0.349433 -0.056834,
        -0.551181 -0.354406 -0.000000,
        -0.546209 -0.196850 -0.056834,
        -0.551181 -0.196850 -0.000000,
        0.526599 0.369043 -0.056834,
        -0.526599 0.369043 -0.056834,
        0.531571 0.374016 -0.000000,
        -0.531571 0.374016 0.000000,
        0.511420 0.314644 0.454472,
        0.511420 -0.314644 0.454472,
        0.491810 0.334255 0.454472,
        -0.491810 0.334255 0.454472,
        -0.511420 -0.314644 0.454472,
        -0.511420 0.314644 0.454472,
        0.491810 -0.334255 0.454472,
        -0.491810 -0.334255 0.454472,
        -0.491810 0.314644 0.472441,
        -0.491810 -0.314644 0.472441,
        -0.379296 0.314644 0.472441,
        -0.379296 -0.314644 0.472441,
        0.491810 -0.319462 0.471839,
        -0.379296 -0.318562 0.472047,
        -0.491810 -0.319462 0.471839,
        -0.300020 -0.318562 0.472047,
        -0.491810 -0.333286 0.459081,
        0.491810 -0.333286 0.459081,
        -0.491810 -0.333222 0.459211,
        0.491810 -0.333222 0.459211,
        -0.491810 -0.331155 0.463475,
        0.491810 -0.331155 0.463475,
        -0.491810 -0.331080 0.463564,
        0.491810 -0.331080 0.463564,
        -0.491810 -0.328008 0.467210,
        0.491810 -0.328008 0.467210,
        -0.491810 -0.327937 0.467261,
        0.491810 -0.327937 0.467261,
        -0.491810 -0.324039 0.470055,
        0.491810 -0.324039 0.470055,
        -0.491810 -0.323984 0.470076,
        0.491810 -0.323984 0.470076,
        -0.491810 -0.319491 0.471835,
        0.491810 -0.319491 0.471835,
        0.508246 -0.314644 0.463564,
        0.505173 -0.314644 0.467210,
        0.504718 -0.318103 0.467210,
        0.500883 -0.317076 0.470055,
        0.496491 -0.315899 0.471835,
        0.496007 -0.317068 0.471835,
        0.494233 -0.318841 0.471835,
        0.495237 -0.318071 0.471835,
        0.493064 -0.319326 0.471835,
        0.496627 -0.314644 0.471839,
        0.509816 -0.319469 0.459081,
        0.510714 -0.319709 0.454853,
        0.510720 -0.319696 0.454852,
        0.508743 -0.324407 0.455091,
        0.507954 -0.323965 0.459081,
        0.508736 -0.324417 0.455092,
        0.504991 -0.327826 0.459081,
        0.505624 -0.328459 0.455173,
        0.501130 -0.330788 0.459081,
        0.501582 -0.331570 0.455092,
        0.501572 -0.331578 0.455091,
        0.496635 -0.332650 0.459081,
        0.496875 -0.333549 0.454853,
        0.496861 -0.333554 0.454852,
        0.505103 -0.314644 0.467261,
        0.501204 -0.314644 0.470055,
        0.501150 -0.314644 0.470076,
        0.496656 -0.314644 0.471835,
        0.499945 -0.319341 0.470055,
        0.498452 -0.321287 0.470055,
        0.496507 -0.322780 0.470055,
        0.494241 -0.323719 0.470055,
        0.503383 -0.321326 0.467210,
        0.501259 -0.324094 0.467210,
        0.498492 -0.326218 0.467210,
        0.495269 -0.327553 0.467210,
        0.510388 -0.314644 0.459211,
        0.508320 -0.314644 0.463475,
        0.507758 -0.318918 0.463475,
        0.506108 -0.322900 0.463475,
        0.503485 -0.326319 0.463475,
        0.500065 -0.328943 0.463475,
        0.496083 -0.330593 0.463475,
        0.510451 -0.314644 0.459081,
        -0.495269 -0.327553 0.467210,
        -0.494241 -0.323719 0.470055,
        -0.493064 -0.319326 0.471835,
        -0.494233 -0.318841 0.471835,
        -0.496007 -0.317068 0.471835,
        -0.495237 -0.318071 0.471835,
        -0.496491 -0.315899 0.471835,
        -0.496635 -0.332650 0.459081,
        -0.496875 -0.333549 0.454853,
        -0.496861 -0.333554 0.454852,
        -0.501572 -0.331578 0.455091,
        -0.501130 -0.330788 0.459081,
        -0.501582 -0.331570 0.455092,
        -0.504991 -0.327826 0.459081,
        -0.505624 -0.328459 0.455173,
        -0.507954 -0.323965 0.459081,
        -0.508736 -0.324417 0.455092,
        -0.508743 -0.324407 0.455091,
        -0.509816 -0.319469 0.459081,
        -0.510714 -0.319709 0.454853,
        -0.510720 -0.319696 0.454852,
        -0.510451 -0.314644 0.459081,
        -0.496627 -0.314644 0.471839,
        -0.496507 -0.322780 0.470055,
        -0.498452 -0.321287 0.470055,
        -0.499945 -0.319341 0.470055,
        -0.500883 -0.317076 0.470055,
        -0.496656 -0.314644 0.471835,
        -0.501150 -0.314644 0.470076,
        -0.501204 -0.314644 0.470055,
        -0.505103 -0.314644 0.467261,
        -0.498492 -0.326218 0.467210,
        -0.501259 -0.324094 0.467210,
        -0.503383 -0.321326 0.467210,
        -0.504718 -0.318103 0.467210,
        -0.496083 -0.330593 0.463475,
        -0.500065 -0.328943 0.463475,
        -0.503485 -0.326319 0.463475,
        -0.506108 -0.322900 0.463475,
        -0.507758 -0.318918 0.463475,
        -0.505173 -0.314644 0.467210,
        -0.508246 -0.314644 0.463564,
        -0.508320 -0.314644 0.463475,
        -0.510388 -0.314644 0.459211,
        0.550514 -0.359491 0.000000,
        0.549691 -0.361921 0.000000,
        0.548559 -0.364222 0.000000,
        0.547136 -0.366354 0.000000,
        0.545446 -0.368281 0.000000,
        0.543520 -0.369970 0.000000,
        0.541387 -0.371393 0.000000,
        0.539087 -0.372526 0.000000,
        0.536656 -0.373349 0.000000,
        0.510451 0.314644 0.459081,
        0.510388 0.314644 0.459211,
        0.508320 0.314644 0.463475,
        0.508246 0.314644 0.463564,
        0.505173 0.314644 0.467210,
        0.505103 0.314644 0.467261,
        0.501204 0.314644 0.470055,
        0.501150 0.314644 0.470076,
        0.496656 0.314644 0.471835,
        0.496627 0.314644 0.471839,
        -0.491810 0.319462 0.471839,
        -0.379296 0.318562 0.472047,
        -0.300020 0.318562 0.472047,
        0.491810 0.319462 0.471839,
        0.491810 0.333286 0.459081,
        -0.491810 0.333286 0.459081,
        0.491810 0.333222 0.459211,
        -0.491810 0.333222 0.459211,
        0.491810 0.331155 0.463475,
        -0.491810 0.331155 0.463475,
        0.491810 0.331080 0.463564,
        -0.491810 0.331080 0.463564,
        0.491810 0.328008 0.467210,
        -0.491810 0.328008 0.467210,
        0.491810 0.327937 0.467261,
        -0.491810 0.327937 0.467261,
        0.491810 0.324039 0.470055,
        -0.491810 0.324039 0.470055,
        0.491810 0.323984 0.470076,
        -0.491810 0.323984 0.470076,
        0.491810 0.319491 0.471835,
        -0.491810 0.319491 0.471835,
        -0.510451 0.314644 0.459081,
        -0.510388 0.314644 0.459211,
        -0.508320 0.314644 0.463475,
        -0.508246 0.314644 0.463564,
        -0.505173 0.314644 0.467210,
        -0.505103 0.314644 0.467261,
        -0.501204 0.314644 0.470055,
        -0.501150 0.314644 0.470076,
        -0.496656 0.314644 0.471835,
        -0.496627 0.314644 0.471839,
        -0.536656 -0.373349 -0.000000,
        -0.539087 -0.372526 -0.000000,
        -0.541387 -0.371393 -0.000000,
        -0.543520 -0.369970 -0.000000,
        -0.545446 -0.368281 -0.000000,
        -0.547136 -0.366354 -0.000000,
        -0.548559 -0.364222 -0.000000,
        -0.549691 -0.361921 -0.000000,
        -0.550514 -0.359491 -0.000000,
        0.530944 -0.368441 -0.057161,
        0.531650 -0.368343 -0.057215,
        0.535030 -0.366925 -0.057386,
        0.536361 -0.366367 -0.057454,
        0.538681 -0.364580 -0.057500,
        0.540413 -0.363247 -0.057535,
        0.541746 -0.361516 -0.057500,
        0.543532 -0.359196 -0.057454,
        0.544091 -0.357865 -0.057386,
        0.545606 -0.353779 -0.057161,
        0.545509 -0.354485 -0.057215,
        0.495484 0.330741 0.463475,
        0.494783 0.327673 0.467210,
        0.493900 0.323803 0.470055,
        0.492888 0.319369 0.471835,
        0.493913 0.319011 0.471835,
        0.496176 0.316747 0.471835,
        0.495599 0.317666 0.471835,
        0.496534 0.315723 0.471835,
        0.496156 0.333652 0.454799,
        0.495958 0.332819 0.459081,
        0.496861 0.333554 0.454852,
        0.499898 0.331440 0.459081,
        0.500241 0.332136 0.455024,
        0.501572 0.331578 0.455091,
        0.503433 0.329219 0.459081,
        0.503893 0.329791 0.455138,
        0.505624 0.328459 0.455173,
        0.506384 0.326267 0.459081,
        0.506957 0.326728 0.455138,
        0.508743 0.324407 0.455091,
        0.508605 0.322733 0.459081,
        0.509302 0.323076 0.455024,
        0.510720 0.319696 0.454852,
        0.509984 0.318793 0.459081,
        0.510818 0.318990 0.454799,
        0.497667 0.321989 0.470055,
        0.499154 0.320502 0.470055,
        0.500274 0.318720 0.470055,
        0.500968 0.316735 0.470055,
        0.495886 0.323108 0.470055,
        0.494831 0.318433 0.471835,
        0.497608 0.326685 0.467210,
        0.500142 0.325093 0.467210,
        0.502258 0.322976 0.467210,
        0.503850 0.320443 0.467210,
        0.504838 0.317618 0.467210,
        0.498974 0.329520 0.463475,
        0.502104 0.327553 0.463475,
        0.504718 0.324939 0.463475,
        0.506685 0.321808 0.463475,
        0.507906 0.318319 0.463475,
        -0.504718 0.318103 0.467210,
        -0.500883 0.317076 0.470055,
        -0.496491 0.315899 0.471835,
        -0.496007 0.317068 0.471835,
        -0.494233 0.318841 0.471835,
        -0.495237 0.318071 0.471835,
        -0.493064 0.319326 0.471835,
        -0.509816 0.319469 0.459081,
        -0.510714 0.319709 0.454853,
        -0.510720 0.319696 0.454852,
        -0.508743 0.324407 0.455091,
        -0.507954 0.323965 0.459081,
        -0.508736 0.324417 0.455092,
        -0.504991 0.327826 0.459081,
        -0.505624 0.328459 0.455173,
        -0.501130 0.330788 0.459081,
        -0.501582 0.331570 0.455092,
        -0.501572 0.331578 0.455091,
        -0.496635 0.332650 0.459081,
        -0.496875 0.333549 0.454853,
        -0.496861 0.333554 0.454852,
        -0.499945 0.319341 0.470055,
        -0.498452 0.321287 0.470055,
        -0.496507 0.322780 0.470055,
        -0.494241 0.323719 0.470055,
        -0.503383 0.321326 0.467210,
        -0.501259 0.324094 0.467210,
        -0.498492 0.326218 0.467210,
        -0.495269 0.327553 0.467210,
        -0.507758 0.318918 0.463475,
        -0.506108 0.322900 0.463475,
        -0.503485 0.326319 0.463475,
        -0.500065 0.328943 0.463475,
        -0.496083 0.330593 0.463475,
        -0.545509 -0.354485 -0.057215,
        -0.545503 -0.354498 -0.057215,
        -0.543532 -0.359196 -0.057454,
        -0.543525 -0.359206 -0.057454,
        -0.540413 -0.363247 -0.057535,
        -0.536370 -0.366359 -0.057454,
        -0.536361 -0.366367 -0.057454,
        -0.531664 -0.368338 -0.057215,
        -0.531650 -0.368343 -0.057215,
        0.526599 -0.354251 -0.074201,
        -0.526599 -0.354251 -0.074201,
        -0.526599 -0.354280 -0.074197,
        0.526599 -0.354280 -0.074197,
        -0.526599 -0.358773 -0.072438,
        0.526599 -0.358773 -0.072438,
        -0.526599 -0.358827 -0.072417,
        0.526599 -0.358827 -0.072417,
        -0.526599 -0.362726 -0.069623,
        0.526599 -0.362726 -0.069623,
        -0.526599 -0.362797 -0.069572,
        0.526599 -0.362797 -0.069572,
        -0.526599 -0.365869 -0.065926,
        0.526599 -0.365869 -0.065926,
        -0.526599 -0.365944 -0.065837,
        0.526599 -0.365944 -0.065837,
        -0.526599 -0.368011 -0.061573,
        0.526599 -0.368011 -0.061573,
        -0.526599 -0.368074 -0.061443,
        0.526599 -0.368074 -0.061443,
        0.527677 -0.354158 -0.074197,
        0.530387 -0.352455 -0.074197,
        0.529620 -0.353222 -0.074197,
        0.535757 -0.351524 -0.072417,
        0.539627 -0.352407 -0.069572,
        0.542695 -0.353107 -0.065837,
        0.544772 -0.353581 -0.061443,
        0.543394 -0.357521 -0.061443,
        0.534687 -0.366228 -0.061443,
        0.530747 -0.367607 -0.061443,
        0.541173 -0.361056 -0.061443,
        0.530272 -0.365530 -0.065837,
        0.541474 -0.356597 -0.065837,
        0.529572 -0.362462 -0.069572,
        0.538639 -0.355231 -0.069572,
        0.539507 -0.359728 -0.065837,
        0.538221 -0.364007 -0.061443,
        0.528689 -0.358592 -0.072417,
        0.536893 -0.362342 -0.065837,
        0.537047 -0.357765 -0.069572,
        0.535062 -0.353509 -0.072417,
        0.531323 -0.350512 -0.074197,
        0.532456 -0.356778 -0.072417,
        0.533762 -0.364309 -0.065837,
        0.532397 -0.361473 -0.069572,
        0.530674 -0.357897 -0.072417,
        0.528701 -0.353800 -0.074197,
        0.534931 -0.359881 -0.069572,
        0.533943 -0.355290 -0.072417,
        0.530965 -0.351536 -0.074197,
        0.536656 0.373349 -0.000000,
        0.539087 0.372526 -0.000000,
        0.541387 0.371393 -0.000000,
        0.543520 0.369970 -0.000000,
        0.545446 0.368281 -0.000000,
        0.547136 0.366354 -0.000000,
        0.548559 0.364222 -0.000000,
        0.549691 0.361921 -0.000000,
        0.550514 0.359491 -0.000000,
        -0.550514 0.359491 0.000000,
        -0.549691 0.361921 0.000000,
        -0.548559 0.364222 0.000000,
        -0.547136 0.366354 0.000000,
        -0.545446 0.368281 0.000000,
        -0.543520 0.369970 0.000000,
        -0.541387 0.371393 0.000000,
        -0.539087 0.372526 0.000000,
        -0.536656 0.373349 0.000000,
        -0.531416 -0.349433 -0.074201,
        -0.531280 -0.350687 -0.074197,
        -0.529030 -0.358507 -0.072417,
        -0.530057 -0.362341 -0.069572,
        -0.530872 -0.365381 -0.065837,
        -0.531423 -0.367439 -0.061443,
        -0.535919 -0.365577 -0.061443,
        -0.545240 -0.349433 -0.061443,
        -0.544605 -0.354258 -0.061443,
        -0.545177 -0.349433 -0.061573,
        -0.542546 -0.353707 -0.065837,
        -0.534854 -0.363732 -0.065837,
        -0.539780 -0.362615 -0.061443,
        -0.543109 -0.349433 -0.065837,
        -0.543035 -0.349433 -0.065926,
        -0.539507 -0.352892 -0.069572,
        -0.533280 -0.361006 -0.069572,
        -0.538273 -0.361108 -0.065837,
        -0.539962 -0.349433 -0.069572,
        -0.539891 -0.349433 -0.069623,
        -0.535672 -0.351865 -0.072417,
        -0.536048 -0.358883 -0.069572,
        -0.531296 -0.357569 -0.072417,
        -0.527853 -0.354114 -0.074197,
        -0.542743 -0.358754 -0.061443,
        -0.540897 -0.357689 -0.065837,
        -0.538172 -0.356115 -0.069572,
        -0.534734 -0.354130 -0.072417,
        -0.530795 -0.351856 -0.074197,
        -0.533241 -0.356076 -0.072417,
        -0.529022 -0.353630 -0.074197,
        -0.530025 -0.352860 -0.074197,
        -0.535993 -0.349433 -0.072417,
        -0.535939 -0.349433 -0.072438,
        -0.531445 -0.349433 -0.074197,
        0.545606 0.353779 -0.057161,
        0.545509 0.354485 -0.057215,
        0.544091 0.357865 -0.057386,
        0.543532 0.359196 -0.057454,
        0.541746 0.361516 -0.057500,
        0.540413 0.363247 -0.057535,
        0.538681 0.364580 -0.057500,
        0.536361 0.366367 -0.057454,
        0.535030 0.366925 -0.057386,
        0.530944 0.368441 -0.057161,
        0.531650 0.368343 -0.057215,
        -0.531650 0.368343 -0.057215,
        -0.531664 0.368338 -0.057215,
        -0.536361 0.366367 -0.057454,
        -0.536370 0.366359 -0.057454,
        -0.540413 0.363247 -0.057535,
        -0.543525 0.359206 -0.057454,
        -0.543532 0.359196 -0.057454,
        -0.545503 0.354498 -0.057215,
        -0.545509 0.354485 -0.057215,
        -0.545193 -0.196850 -0.061581,
        -0.543045 -0.196850 -0.065935,
        -0.539898 -0.196850 -0.069631,
        -0.535941 -0.196850 -0.072445,
        -0.531417 -0.196850 -0.074204,
        0.531323 0.350512 -0.074197,
        0.529620 0.353222 -0.074197,
        0.530387 0.352455 -0.074197,
        0.526599 0.358773 -0.072438,
        0.526599 0.358827 -0.072417,
        0.528689 0.358592 -0.072417,
        0.526599 0.362726 -0.069623,
        0.526599 0.362797 -0.069572,
        0.529572 0.362462 -0.069572,
        0.530272 0.365530 -0.065837,
        0.530747 0.367607 -0.061443,
        0.534687 0.366228 -0.061443,
        0.543394 0.357521 -0.061443,
        0.544772 0.353581 -0.061443,
        0.538221 0.364007 -0.061443,
        0.526599 0.368074 -0.061443,
        0.526599 0.368011 -0.061573,
        0.526599 0.365944 -0.065837,
        0.526599 0.365869 -0.065926,
        0.542695 0.353107 -0.065837,
        0.533762 0.364309 -0.065837,
        0.539627 0.352407 -0.069572,
        0.532397 0.361473 -0.069572,
        0.536893 0.362342 -0.065837,
        0.541173 0.361056 -0.061443,
        0.535757 0.351524 -0.072417,
        0.539507 0.359728 -0.065837,
        0.534931 0.359881 -0.069572,
        0.530674 0.357897 -0.072417,
        0.527677 0.354158 -0.074197,
        0.533943 0.355290 -0.072417,
        0.541474 0.356597 -0.065837,
        0.538639 0.355231 -0.069572,
        0.535062 0.353509 -0.072417,
        0.530965 0.351536 -0.074197,
        0.526599 0.354251 -0.074201,
        0.526599 0.354280 -0.074197,
        0.537047 0.357765 -0.069572,
        0.532456 0.356778 -0.072417,
        0.528701 0.353800 -0.074197,
        -0.526599 0.354251 -0.074201,
        -0.527853 0.354114 -0.074197,
        -0.535672 0.351865 -0.072417,
        -0.539507 0.352892 -0.069572,
        -0.542546 0.353707 -0.065837,
        -0.544605 0.354258 -0.061443,
        -0.542743 0.358754 -0.061443,
        -0.526599 0.368074 -0.061443,
        -0.531423 0.367439 -0.061443,
        -0.526599 0.368011 -0.061573,
        -0.530872 0.365381 -0.065837,
        -0.540897 0.357689 -0.065837,
        -0.539780 0.362615 -0.061443,
        -0.526599 0.365944 -0.065837,
        -0.526599 0.365869 -0.065926,
        -0.530057 0.362341 -0.069572,
        -0.538172 0.356115 -0.069572,
        -0.538273 0.361108 -0.065837,
        -0.526599 0.362797 -0.069572,
        -0.526599 0.362726 -0.069623,
        -0.529030 0.358507 -0.072417,
        -0.536048 0.358883 -0.069572,
        -0.534734 0.354130 -0.072417,
        -0.531280 0.350687 -0.074197,
        -0.535919 0.365577 -0.061443,
        -0.534854 0.363732 -0.065837,
        -0.533280 0.361006 -0.069572,
        -0.531296 0.357569 -0.072417,
        -0.529022 0.353630 -0.074197,
        -0.533241 0.356076 -0.072417,
        -0.530795 0.351856 -0.074197,
        -0.530025 0.352860 -0.074197,
        -0.526599 0.358827 -0.072417,
        -0.526599 0.358773 -0.072438,
        -0.526599 0.354280 -0.074197,
      ]
    }
    coordIndex [
      0, 1, 2, -1,
      3, 4, 5, -1,
      5, 4, 6, -1,
      5, 6, 7, -1,
      8, 9, 10, -1,
      10, 9, 11, -1,
      10, 11, 12, -1,
      8, 13, 14, -1,
      14, 13, 15, -1,
      16, 12, 17, -1,
      17, 12, 18, -1,
      5, 10, 3, -1,
      3, 10, 12, -1,
      3, 12, 19, -1,
      19, 12, 16, -1,
      20, 21, 22, -1,
      22, 21, 23, -1,
      24, 25, 26, -1,
      26, 25, 9, -1,
      27, 7, 28, -1,
      28, 7, 29, -1,
      28, 29, 30, -1,
      18, 31, 8, -1,
      8, 31, 22, -1,
      8, 22, 9, -1,
      9, 22, 23, -1,
      9, 23, 26, -1,
      32, 33, 34, -1,
      34, 33, 35, -1,
      34, 35, 36, -1,
      37, 38, 34, -1,
      34, 38, 39, -1,
      40, 41, 42, -1,
      42, 41, 43, -1,
      39, 44, 34, -1,
      34, 44, 43, -1,
      34, 43, 45, -1,
      45, 43, 41, -1,
      46, 47, 48, -1,
      36, 49, 34, -1,
      34, 49, 50, -1,
      34, 50, 37, -1,
      47, 51, 48, -1,
      48, 51, 8, -1,
      48, 8, 52, -1,
      52, 8, 14, -1,
      52, 14, 27, -1,
      27, 14, 53, -1,
      27, 53, 7, -1,
      7, 53, 0, -1,
      7, 0, 5, -1,
      5, 0, 2, -1,
      30, 54, 28, -1,
      28, 54, 55, -1,
      28, 55, 56, -1,
      56, 55, 57, -1,
      56, 57, 58, -1,
      57, 59, 58, -1,
      58, 59, 60, -1,
      58, 60, 48, -1,
      48, 60, 61, -1,
      48, 61, 46, -1,
      51, 62, 8, -1,
      8, 62, 63, -1,
      8, 63, 64, -1,
      64, 65, 8, -1,
      8, 65, 66, -1,
      8, 66, 18, -1,
      18, 66, 67, -1,
      18, 67, 17, -1,
      17, 67, 68, -1,
      17, 68, 34, -1,
      34, 68, 69, -1,
      34, 69, 32, -1,
      70, 71, 72, -1,
      72, 71, 8, -1,
      73, 74, 10, -1,
      75, 76, 77, -1,
      77, 78, 75, -1,
      75, 78, 79, -1,
      75, 79, 80, -1,
      8, 81, 72, -1,
      72, 81, 82, -1,
      72, 82, 83, -1,
      84, 85, 10, -1,
      10, 85, 86, -1,
      10, 86, 8, -1,
      8, 86, 87, -1,
      88, 89, 81, -1,
      81, 89, 90, -1,
      80, 84, 75, -1,
      75, 84, 10, -1,
      75, 10, 91, -1,
      91, 10, 74, -1,
      91, 74, 92, -1,
      92, 74, 93, -1,
      87, 94, 8, -1,
      8, 94, 95, -1,
      8, 95, 81, -1,
      81, 95, 96, -1,
      81, 96, 88, -1,
      90, 97, 81, -1,
      81, 97, 98, -1,
      81, 98, 75, -1,
      75, 98, 99, -1,
      75, 99, 76, -1,
      82, 73, 83, -1,
      83, 73, 10, -1,
      83, 10, 100, -1,
      100, 10, 5, -1,
      100, 5, 101, -1,
      101, 5, 102, -1,
      103, 104, 105, -1,
      105, 104, 106, -1,
      107, 108, 109, -1,
      109, 108, 110, -1,
      106, 111, 105, -1,
      105, 111, 112, -1,
      111, 113, 112, -1,
      112, 113, 114, -1,
      112, 114, 115, -1,
      114, 116, 115, -1,
      115, 116, 117, -1,
      115, 117, 118, -1,
      117, 119, 118, -1,
      118, 119, 120, -1,
      118, 120, 121, -1,
      120, 122, 121, -1,
      121, 122, 123, -1,
      121, 123, 124, -1,
      123, 125, 124, -1,
      124, 125, 2, -1,
      124, 2, 1, -1,
      126, 127, 107, -1,
      107, 127, 128, -1,
      107, 128, 108, -1,
      129, 130, 131, -1,
      131, 132, 129, -1,
      129, 132, 133, -1,
      129, 133, 126, -1,
      126, 133, 134, -1,
      126, 134, 127, -1,
      135, 136, 137, -1,
      137, 136, 138, -1,
      137, 138, 130, -1,
      130, 138, 139, -1,
      130, 139, 131, -1,
      137, 140, 135, -1,
      135, 140, 15, -1,
      135, 15, 13, -1,
      141, 142, 143, -1,
      143, 142, 144, -1,
      142, 145, 144, -1,
      144, 145, 146, -1,
      145, 147, 146, -1,
      146, 147, 148, -1,
      146, 148, 149, -1,
      148, 150, 149, -1,
      149, 150, 151, -1,
      149, 151, 152, -1,
      151, 153, 152, -1,
      152, 153, 154, -1,
      152, 154, 155, -1,
      154, 156, 155, -1,
      155, 156, 157, -1,
      155, 157, 158, -1,
      157, 159, 158, -1,
      158, 159, 71, -1,
      158, 71, 70, -1,
      160, 161, 162, -1,
      162, 161, 163, -1,
      164, 165, 166, -1,
      166, 165, 167, -1,
      168, 169, 170, -1,
      170, 169, 171, -1,
      172, 173, 174, -1,
      174, 173, 175, -1,
      110, 176, 109, -1,
      109, 176, 177, -1,
      109, 177, 103, -1,
      103, 177, 104, -1,
      174, 175, 178, -1,
      178, 175, 179, -1,
      169, 180, 171, -1,
      171, 180, 181, -1,
      171, 181, 143, -1,
      143, 181, 141, -1,
      182, 183, 164, -1,
      164, 183, 165, -1,
      184, 185, 186, -1,
      186, 185, 187, -1,
      188, 160, 162, -1,
      187, 185, 189, -1,
      189, 185, 190, -1,
      189, 190, 191, -1,
      183, 182, 192, -1,
      192, 182, 193, -1,
      192, 193, 194, -1,
      194, 193, 195, -1,
      194, 195, 196, -1,
      196, 195, 197, -1,
      196, 197, 198, -1,
      198, 197, 199, -1,
      198, 199, 200, -1,
      200, 199, 201, -1,
      200, 201, 202, -1,
      202, 201, 203, -1,
      202, 203, 204, -1,
      204, 203, 205, -1,
      204, 205, 206, -1,
      206, 205, 207, -1,
      206, 207, 208, -1,
      208, 207, 209, -1,
      208, 209, 190, -1,
      190, 209, 188, -1,
      190, 188, 191, -1,
      191, 188, 162, -1,
      210, 211, 212, -1,
      213, 214, 215, -1,
      160, 216, 217, -1,
      218, 216, 160, -1,
      215, 214, 160, -1,
      219, 160, 214, -1,
      220, 221, 222, -1,
      221, 220, 223, -1,
      223, 220, 224, -1,
      223, 224, 225, -1,
      225, 224, 226, -1,
      225, 226, 227, -1,
      227, 226, 228, -1,
      227, 228, 229, -1,
      229, 228, 230, -1,
      230, 228, 231, -1,
      230, 231, 232, -1,
      232, 231, 233, -1,
      233, 231, 193, -1,
      233, 193, 182, -1,
      188, 218, 160, -1,
      234, 235, 213, -1,
      213, 235, 236, -1,
      213, 236, 214, -1,
      214, 236, 237, -1,
      214, 237, 219, -1,
      238, 217, 239, -1,
      239, 217, 216, -1,
      239, 216, 240, -1,
      240, 216, 218, -1,
      240, 218, 241, -1,
      188, 209, 218, -1,
      218, 209, 207, -1,
      218, 207, 241, -1,
      241, 207, 205, -1,
      241, 205, 203, -1,
      212, 238, 242, -1,
      242, 238, 239, -1,
      242, 239, 243, -1,
      243, 239, 240, -1,
      243, 240, 244, -1,
      244, 240, 241, -1,
      244, 241, 245, -1,
      245, 241, 203, -1,
      246, 247, 248, -1,
      248, 247, 210, -1,
      210, 212, 248, -1,
      248, 212, 242, -1,
      248, 242, 249, -1,
      249, 242, 243, -1,
      249, 243, 250, -1,
      250, 243, 244, -1,
      250, 244, 251, -1,
      251, 244, 245, -1,
      251, 245, 252, -1,
      211, 234, 212, -1,
      212, 234, 213, -1,
      212, 213, 238, -1,
      238, 213, 215, -1,
      238, 215, 217, -1,
      217, 215, 160, -1,
      246, 220, 253, -1,
      253, 220, 222, -1,
      253, 222, 177, -1,
      203, 201, 245, -1,
      245, 201, 199, -1,
      245, 199, 252, -1,
      252, 199, 197, -1,
      252, 197, 195, -1,
      246, 248, 220, -1,
      220, 248, 249, -1,
      220, 249, 224, -1,
      224, 249, 250, -1,
      224, 250, 226, -1,
      226, 250, 251, -1,
      226, 251, 228, -1,
      228, 251, 252, -1,
      228, 252, 231, -1,
      231, 252, 195, -1,
      231, 195, 193, -1,
      198, 200, 254, -1,
      255, 256, 257, -1,
      185, 258, 259, -1,
      260, 258, 185, -1,
      257, 256, 185, -1,
      190, 185, 256, -1,
      261, 262, 263, -1,
      262, 261, 264, -1,
      264, 261, 265, -1,
      264, 265, 266, -1,
      266, 265, 267, -1,
      266, 267, 268, -1,
      268, 267, 269, -1,
      268, 269, 270, -1,
      270, 269, 271, -1,
      271, 269, 272, -1,
      271, 272, 273, -1,
      273, 272, 274, -1,
      274, 272, 275, -1,
      274, 275, 180, -1,
      276, 260, 185, -1,
      202, 204, 255, -1,
      255, 204, 206, -1,
      255, 206, 256, -1,
      256, 206, 208, -1,
      256, 208, 190, -1,
      277, 259, 278, -1,
      278, 259, 258, -1,
      278, 258, 279, -1,
      279, 258, 260, -1,
      279, 260, 280, -1,
      276, 281, 260, -1,
      260, 281, 282, -1,
      260, 282, 280, -1,
      280, 282, 283, -1,
      280, 283, 284, -1,
      254, 277, 285, -1,
      285, 277, 278, -1,
      285, 278, 286, -1,
      286, 278, 279, -1,
      286, 279, 287, -1,
      287, 279, 280, -1,
      287, 280, 288, -1,
      288, 280, 284, -1,
      194, 196, 289, -1,
      289, 196, 198, -1,
      198, 254, 289, -1,
      289, 254, 285, -1,
      289, 285, 290, -1,
      290, 285, 286, -1,
      290, 286, 291, -1,
      291, 286, 287, -1,
      291, 287, 292, -1,
      292, 287, 288, -1,
      292, 288, 293, -1,
      200, 202, 254, -1,
      254, 202, 255, -1,
      254, 255, 277, -1,
      277, 255, 257, -1,
      277, 257, 259, -1,
      259, 257, 185, -1,
      194, 261, 192, -1,
      192, 261, 263, -1,
      192, 263, 183, -1,
      284, 294, 288, -1,
      288, 294, 295, -1,
      288, 295, 293, -1,
      293, 295, 296, -1,
      293, 296, 297, -1,
      194, 289, 261, -1,
      261, 289, 290, -1,
      261, 290, 265, -1,
      265, 290, 291, -1,
      265, 291, 267, -1,
      267, 291, 292, -1,
      267, 292, 269, -1,
      269, 292, 293, -1,
      269, 293, 272, -1,
      272, 293, 297, -1,
      272, 297, 275, -1,
      177, 222, 104, -1,
      104, 222, 298, -1,
      298, 222, 299, -1,
      299, 222, 221, -1,
      299, 221, 300, -1,
      300, 221, 223, -1,
      300, 223, 301, -1,
      301, 223, 225, -1,
      301, 225, 302, -1,
      302, 225, 227, -1,
      302, 227, 303, -1,
      303, 227, 229, -1,
      303, 229, 304, -1,
      304, 229, 230, -1,
      304, 230, 305, -1,
      305, 230, 232, -1,
      305, 232, 306, -1,
      232, 233, 306, -1,
      306, 233, 182, -1,
      306, 182, 164, -1,
      177, 176, 253, -1,
      253, 176, 307, -1,
      253, 307, 246, -1,
      246, 307, 308, -1,
      246, 308, 247, -1,
      247, 308, 309, -1,
      247, 309, 210, -1,
      210, 309, 310, -1,
      210, 310, 211, -1,
      211, 310, 311, -1,
      211, 311, 234, -1,
      234, 311, 312, -1,
      234, 312, 235, -1,
      235, 312, 313, -1,
      235, 313, 236, -1,
      236, 313, 314, -1,
      236, 314, 237, -1,
      237, 314, 315, -1,
      237, 315, 219, -1,
      315, 316, 219, -1,
      219, 316, 161, -1,
      219, 161, 160, -1,
      184, 186, 317, -1,
      317, 186, 318, -1,
      163, 161, 319, -1,
      319, 161, 320, -1,
      178, 179, 321, -1,
      321, 179, 322, -1,
      321, 322, 323, -1,
      323, 322, 324, -1,
      323, 324, 325, -1,
      325, 324, 326, -1,
      325, 326, 327, -1,
      327, 326, 328, -1,
      327, 328, 329, -1,
      329, 328, 330, -1,
      329, 330, 331, -1,
      331, 330, 332, -1,
      331, 332, 333, -1,
      333, 332, 334, -1,
      333, 334, 335, -1,
      335, 334, 336, -1,
      335, 336, 337, -1,
      337, 336, 338, -1,
      337, 338, 320, -1,
      320, 338, 317, -1,
      320, 317, 319, -1,
      319, 317, 318, -1,
      181, 180, 339, -1,
      339, 180, 275, -1,
      339, 275, 340, -1,
      340, 275, 297, -1,
      340, 297, 341, -1,
      341, 297, 296, -1,
      341, 296, 342, -1,
      342, 296, 295, -1,
      342, 295, 343, -1,
      343, 295, 294, -1,
      343, 294, 344, -1,
      344, 294, 284, -1,
      344, 284, 345, -1,
      345, 284, 283, -1,
      345, 283, 346, -1,
      346, 283, 282, -1,
      346, 282, 347, -1,
      347, 282, 281, -1,
      347, 281, 348, -1,
      281, 276, 348, -1,
      348, 276, 185, -1,
      348, 185, 184, -1,
      183, 263, 165, -1,
      165, 263, 349, -1,
      349, 263, 350, -1,
      350, 263, 262, -1,
      350, 262, 351, -1,
      351, 262, 264, -1,
      351, 264, 352, -1,
      352, 264, 266, -1,
      352, 266, 353, -1,
      353, 266, 268, -1,
      353, 268, 354, -1,
      354, 268, 270, -1,
      354, 270, 355, -1,
      355, 270, 271, -1,
      355, 271, 356, -1,
      356, 271, 273, -1,
      356, 273, 357, -1,
      273, 274, 357, -1,
      357, 274, 180, -1,
      357, 180, 169, -1,
      164, 166, 358, -1,
      164, 358, 306, -1,
      306, 358, 359, -1,
      306, 359, 305, -1,
      305, 359, 360, -1,
      305, 360, 304, -1,
      304, 360, 361, -1,
      304, 361, 303, -1,
      303, 361, 362, -1,
      303, 362, 302, -1,
      302, 362, 363, -1,
      302, 363, 301, -1,
      301, 363, 364, -1,
      301, 364, 300, -1,
      300, 364, 365, -1,
      300, 365, 299, -1,
      299, 365, 366, -1,
      299, 366, 298, -1,
      106, 104, 367, -1,
      367, 104, 298, -1,
      367, 298, 368, -1,
      368, 298, 366, -1,
      323, 325, 369, -1,
      327, 329, 370, -1,
      371, 372, 373, -1,
      161, 374, 375, -1,
      376, 374, 161, -1,
      373, 372, 161, -1,
      320, 161, 372, -1,
      377, 378, 379, -1,
      379, 378, 380, -1,
      379, 380, 381, -1,
      381, 380, 382, -1,
      382, 380, 383, -1,
      382, 383, 384, -1,
      384, 383, 385, -1,
      385, 383, 386, -1,
      385, 386, 387, -1,
      387, 386, 388, -1,
      388, 386, 389, -1,
      388, 389, 390, -1,
      390, 389, 391, -1,
      391, 389, 392, -1,
      391, 392, 393, -1,
      393, 392, 307, -1,
      393, 307, 176, -1,
      316, 376, 161, -1,
      331, 333, 371, -1,
      371, 333, 335, -1,
      371, 335, 372, -1,
      372, 335, 337, -1,
      372, 337, 320, -1,
      394, 375, 395, -1,
      395, 375, 374, -1,
      395, 374, 396, -1,
      396, 374, 376, -1,
      396, 376, 397, -1,
      329, 331, 370, -1,
      370, 331, 371, -1,
      370, 371, 398, -1,
      398, 371, 373, -1,
      398, 373, 399, -1,
      399, 373, 161, -1,
      316, 315, 376, -1,
      376, 315, 314, -1,
      376, 314, 397, -1,
      397, 314, 313, -1,
      397, 313, 312, -1,
      400, 394, 401, -1,
      401, 394, 395, -1,
      401, 395, 402, -1,
      402, 395, 396, -1,
      402, 396, 403, -1,
      403, 396, 397, -1,
      403, 397, 404, -1,
      404, 397, 312, -1,
      369, 400, 405, -1,
      405, 400, 401, -1,
      405, 401, 406, -1,
      406, 401, 402, -1,
      406, 402, 407, -1,
      407, 402, 403, -1,
      407, 403, 408, -1,
      408, 403, 404, -1,
      408, 404, 409, -1,
      325, 327, 369, -1,
      369, 327, 370, -1,
      369, 370, 400, -1,
      400, 370, 398, -1,
      400, 398, 394, -1,
      394, 398, 399, -1,
      394, 399, 375, -1,
      375, 399, 161, -1,
      377, 178, 378, -1,
      378, 178, 321, -1,
      378, 321, 323, -1,
      312, 311, 404, -1,
      404, 311, 310, -1,
      404, 310, 409, -1,
      409, 310, 309, -1,
      409, 309, 308, -1,
      323, 369, 378, -1,
      378, 369, 405, -1,
      378, 405, 380, -1,
      380, 405, 406, -1,
      380, 406, 383, -1,
      383, 406, 407, -1,
      383, 407, 386, -1,
      386, 407, 408, -1,
      386, 408, 389, -1,
      389, 408, 409, -1,
      389, 409, 392, -1,
      392, 409, 308, -1,
      392, 308, 307, -1,
      342, 343, 410, -1,
      411, 412, 413, -1,
      184, 414, 415, -1,
      416, 414, 184, -1,
      413, 412, 184, -1,
      348, 184, 412, -1,
      417, 418, 419, -1,
      418, 417, 420, -1,
      420, 417, 421, -1,
      420, 421, 422, -1,
      422, 421, 423, -1,
      422, 423, 424, -1,
      424, 423, 425, -1,
      424, 425, 426, -1,
      426, 425, 427, -1,
      427, 425, 428, -1,
      427, 428, 429, -1,
      429, 428, 430, -1,
      430, 428, 322, -1,
      430, 322, 179, -1,
      317, 416, 184, -1,
      344, 345, 411, -1,
      411, 345, 346, -1,
      411, 346, 412, -1,
      412, 346, 347, -1,
      412, 347, 348, -1,
      431, 415, 432, -1,
      432, 415, 414, -1,
      432, 414, 433, -1,
      433, 414, 416, -1,
      433, 416, 434, -1,
      317, 338, 416, -1,
      416, 338, 336, -1,
      416, 336, 434, -1,
      434, 336, 334, -1,
      434, 334, 332, -1,
      410, 431, 435, -1,
      435, 431, 432, -1,
      435, 432, 436, -1,
      436, 432, 433, -1,
      436, 433, 437, -1,
      437, 433, 434, -1,
      437, 434, 438, -1,
      438, 434, 332, -1,
      340, 341, 439, -1,
      439, 341, 342, -1,
      342, 410, 439, -1,
      439, 410, 435, -1,
      439, 435, 440, -1,
      440, 435, 436, -1,
      440, 436, 441, -1,
      441, 436, 437, -1,
      441, 437, 442, -1,
      442, 437, 438, -1,
      442, 438, 443, -1,
      343, 344, 410, -1,
      410, 344, 411, -1,
      410, 411, 431, -1,
      431, 411, 413, -1,
      431, 413, 415, -1,
      415, 413, 184, -1,
      340, 417, 339, -1,
      339, 417, 419, -1,
      339, 419, 181, -1,
      332, 330, 438, -1,
      438, 330, 328, -1,
      438, 328, 443, -1,
      443, 328, 326, -1,
      443, 326, 324, -1,
      340, 439, 417, -1,
      417, 439, 440, -1,
      417, 440, 421, -1,
      421, 440, 441, -1,
      421, 441, 423, -1,
      423, 441, 442, -1,
      423, 442, 425, -1,
      425, 442, 443, -1,
      425, 443, 428, -1,
      428, 443, 324, -1,
      428, 324, 322, -1,
      168, 444, 169, -1,
      169, 444, 357, -1,
      357, 444, 356, -1,
      356, 444, 445, -1,
      356, 445, 355, -1,
      355, 445, 446, -1,
      355, 446, 354, -1,
      354, 446, 447, -1,
      354, 447, 353, -1,
      353, 447, 448, -1,
      353, 448, 352, -1,
      352, 448, 449, -1,
      352, 449, 351, -1,
      351, 449, 450, -1,
      351, 450, 350, -1,
      350, 450, 451, -1,
      350, 451, 349, -1,
      451, 452, 349, -1,
      349, 452, 167, -1,
      349, 167, 165, -1,
      5, 2, 453, -1,
      102, 5, 454, -1,
      454, 5, 453, -1,
      454, 453, 455, -1,
      455, 453, 456, -1,
      455, 456, 457, -1,
      457, 456, 458, -1,
      457, 458, 459, -1,
      459, 458, 460, -1,
      459, 460, 461, -1,
      461, 460, 462, -1,
      461, 462, 463, -1,
      463, 462, 464, -1,
      463, 464, 465, -1,
      465, 464, 466, -1,
      465, 466, 467, -1,
      467, 466, 468, -1,
      467, 468, 469, -1,
      469, 468, 470, -1,
      469, 470, 471, -1,
      471, 470, 472, -1,
      471, 472, 167, -1,
      167, 472, 166, -1,
      453, 2, 473, -1,
      474, 475, 2, -1,
      122, 120, 476, -1,
      119, 117, 477, -1,
      478, 479, 480, -1,
      361, 360, 481, -1,
      359, 358, 482, -1,
      482, 358, 166, -1,
      483, 364, 363, -1,
      480, 366, 365, -1,
      366, 480, 368, -1,
      368, 480, 479, -1,
      368, 479, 367, -1,
      106, 367, 111, -1,
      111, 367, 479, -1,
      111, 479, 113, -1,
      113, 479, 478, -1,
      113, 478, 114, -1,
      114, 478, 116, -1,
      166, 472, 482, -1,
      482, 472, 470, -1,
      482, 470, 484, -1,
      117, 116, 477, -1,
      477, 116, 478, -1,
      477, 478, 485, -1,
      485, 478, 480, -1,
      485, 480, 483, -1,
      483, 480, 365, -1,
      483, 365, 364, -1,
      470, 468, 484, -1,
      484, 468, 466, -1,
      484, 466, 486, -1,
      120, 119, 476, -1,
      476, 119, 477, -1,
      476, 477, 487, -1,
      487, 477, 485, -1,
      487, 485, 488, -1,
      488, 485, 483, -1,
      488, 483, 489, -1,
      489, 483, 363, -1,
      489, 363, 362, -1,
      466, 464, 486, -1,
      486, 464, 462, -1,
      486, 462, 490, -1,
      489, 491, 488, -1,
      488, 491, 492, -1,
      488, 492, 487, -1,
      487, 492, 493, -1,
      487, 493, 476, -1,
      476, 493, 494, -1,
      476, 494, 122, -1,
      475, 474, 495, -1,
      360, 359, 481, -1,
      481, 359, 482, -1,
      481, 482, 496, -1,
      496, 482, 484, -1,
      496, 484, 497, -1,
      497, 484, 486, -1,
      497, 486, 498, -1,
      498, 486, 490, -1,
      498, 490, 499, -1,
      499, 490, 473, -1,
      499, 473, 2, -1,
      2, 125, 494, -1,
      494, 125, 123, -1,
      494, 123, 122, -1,
      491, 500, 492, -1,
      492, 500, 501, -1,
      492, 501, 493, -1,
      493, 501, 502, -1,
      493, 502, 494, -1,
      494, 502, 2, -1,
      500, 495, 501, -1,
      501, 495, 474, -1,
      501, 474, 502, -1,
      502, 474, 2, -1,
      462, 460, 490, -1,
      490, 460, 458, -1,
      490, 458, 473, -1,
      473, 458, 456, -1,
      473, 456, 453, -1,
      362, 361, 489, -1,
      489, 361, 481, -1,
      489, 481, 491, -1,
      491, 481, 496, -1,
      491, 496, 500, -1,
      500, 496, 497, -1,
      500, 497, 495, -1,
      495, 497, 498, -1,
      495, 498, 475, -1,
      475, 498, 499, -1,
      475, 499, 2, -1,
      174, 178, 377, -1,
      174, 377, 503, -1,
      503, 377, 379, -1,
      503, 379, 504, -1,
      504, 379, 381, -1,
      504, 381, 505, -1,
      505, 381, 382, -1,
      505, 382, 506, -1,
      506, 382, 384, -1,
      506, 384, 507, -1,
      507, 384, 385, -1,
      507, 385, 508, -1,
      508, 385, 387, -1,
      508, 387, 509, -1,
      509, 387, 388, -1,
      509, 388, 510, -1,
      510, 388, 390, -1,
      510, 390, 511, -1,
      511, 390, 391, -1,
      511, 391, 110, -1,
      110, 391, 393, -1,
      110, 393, 176, -1,
      181, 419, 141, -1,
      141, 419, 512, -1,
      512, 419, 513, -1,
      513, 419, 418, -1,
      513, 418, 514, -1,
      514, 418, 420, -1,
      514, 420, 515, -1,
      515, 420, 422, -1,
      515, 422, 516, -1,
      516, 422, 424, -1,
      516, 424, 517, -1,
      517, 424, 426, -1,
      517, 426, 518, -1,
      518, 426, 427, -1,
      518, 427, 519, -1,
      519, 427, 429, -1,
      519, 429, 520, -1,
      429, 430, 520, -1,
      520, 430, 179, -1,
      520, 179, 175, -1,
      521, 102, 522, -1,
      457, 459, 523, -1,
      461, 463, 524, -1,
      525, 526, 527, -1,
      444, 168, 528, -1,
      446, 445, 529, -1,
      529, 445, 444, -1,
      452, 451, 526, -1,
      526, 451, 450, -1,
      526, 450, 527, -1,
      527, 450, 449, -1,
      527, 449, 448, -1,
      167, 452, 471, -1,
      471, 452, 526, -1,
      471, 526, 469, -1,
      469, 526, 525, -1,
      469, 525, 467, -1,
      467, 525, 465, -1,
      444, 528, 529, -1,
      529, 528, 530, -1,
      529, 530, 531, -1,
      463, 465, 524, -1,
      524, 465, 525, -1,
      524, 525, 532, -1,
      532, 525, 527, -1,
      532, 527, 533, -1,
      533, 527, 448, -1,
      530, 534, 531, -1,
      531, 534, 535, -1,
      531, 535, 536, -1,
      459, 461, 523, -1,
      523, 461, 524, -1,
      523, 524, 537, -1,
      537, 524, 532, -1,
      537, 532, 538, -1,
      538, 532, 533, -1,
      535, 539, 536, -1,
      536, 539, 540, -1,
      536, 540, 541, -1,
      538, 542, 537, -1,
      537, 542, 543, -1,
      537, 543, 523, -1,
      523, 543, 544, -1,
      523, 544, 457, -1,
      447, 446, 545, -1,
      545, 446, 529, -1,
      545, 529, 546, -1,
      546, 529, 531, -1,
      546, 531, 547, -1,
      547, 531, 536, -1,
      547, 536, 548, -1,
      548, 536, 541, -1,
      548, 541, 549, -1,
      549, 541, 522, -1,
      549, 522, 102, -1,
      102, 454, 544, -1,
      544, 454, 455, -1,
      544, 455, 457, -1,
      542, 550, 543, -1,
      543, 550, 551, -1,
      543, 551, 544, -1,
      544, 551, 102, -1,
      550, 552, 551, -1,
      551, 552, 102, -1,
      540, 553, 541, -1,
      541, 553, 554, -1,
      541, 554, 522, -1,
      522, 554, 555, -1,
      522, 555, 521, -1,
      448, 447, 533, -1,
      533, 447, 545, -1,
      533, 545, 538, -1,
      538, 545, 546, -1,
      538, 546, 542, -1,
      542, 546, 547, -1,
      542, 547, 550, -1,
      550, 547, 548, -1,
      550, 548, 552, -1,
      552, 548, 549, -1,
      552, 549, 102, -1,
      110, 108, 556, -1,
      110, 556, 511, -1,
      511, 556, 557, -1,
      511, 557, 510, -1,
      510, 557, 558, -1,
      510, 558, 509, -1,
      509, 558, 559, -1,
      509, 559, 508, -1,
      508, 559, 560, -1,
      508, 560, 507, -1,
      507, 560, 561, -1,
      507, 561, 506, -1,
      506, 561, 562, -1,
      506, 562, 505, -1,
      505, 562, 563, -1,
      505, 563, 504, -1,
      504, 563, 564, -1,
      504, 564, 503, -1,
      172, 174, 565, -1,
      565, 174, 503, -1,
      565, 503, 566, -1,
      566, 503, 564, -1,
      173, 567, 175, -1,
      175, 567, 520, -1,
      520, 567, 519, -1,
      519, 567, 568, -1,
      519, 568, 518, -1,
      518, 568, 569, -1,
      518, 569, 517, -1,
      517, 569, 570, -1,
      517, 570, 516, -1,
      516, 570, 571, -1,
      516, 571, 515, -1,
      515, 571, 572, -1,
      515, 572, 514, -1,
      514, 572, 573, -1,
      514, 573, 513, -1,
      513, 573, 574, -1,
      513, 574, 512, -1,
      574, 575, 512, -1,
      512, 575, 142, -1,
      512, 142, 141, -1,
      576, 530, 170, -1,
      170, 530, 528, -1,
      170, 528, 168, -1,
      577, 578, 540, -1,
      540, 539, 577, -1,
      577, 539, 535, -1,
      577, 535, 576, -1,
      576, 535, 534, -1,
      576, 534, 530, -1,
      521, 555, 579, -1,
      579, 555, 554, -1,
      579, 554, 578, -1,
      578, 554, 553, -1,
      578, 553, 540, -1,
      579, 580, 521, -1,
      521, 580, 101, -1,
      521, 101, 102, -1,
      135, 13, 581, -1,
      582, 583, 13, -1,
      584, 585, 586, -1,
      587, 588, 589, -1,
      590, 591, 592, -1,
      559, 558, 593, -1,
      557, 556, 594, -1,
      594, 556, 108, -1,
      595, 562, 561, -1,
      592, 564, 563, -1,
      564, 592, 566, -1,
      566, 592, 591, -1,
      566, 591, 565, -1,
      172, 565, 596, -1,
      596, 565, 591, -1,
      596, 591, 597, -1,
      597, 591, 590, -1,
      597, 590, 598, -1,
      598, 590, 599, -1,
      108, 128, 594, -1,
      594, 128, 127, -1,
      594, 127, 600, -1,
      588, 599, 589, -1,
      589, 599, 590, -1,
      589, 590, 601, -1,
      601, 590, 592, -1,
      601, 592, 595, -1,
      595, 592, 563, -1,
      595, 563, 562, -1,
      127, 134, 600, -1,
      600, 134, 133, -1,
      600, 133, 602, -1,
      585, 587, 586, -1,
      586, 587, 589, -1,
      586, 589, 603, -1,
      603, 589, 601, -1,
      603, 601, 604, -1,
      604, 601, 595, -1,
      604, 595, 605, -1,
      605, 595, 561, -1,
      605, 561, 560, -1,
      133, 132, 602, -1,
      602, 132, 131, -1,
      602, 131, 606, -1,
      605, 607, 604, -1,
      604, 607, 608, -1,
      604, 608, 603, -1,
      603, 608, 609, -1,
      603, 609, 586, -1,
      586, 609, 610, -1,
      586, 610, 584, -1,
      583, 582, 611, -1,
      558, 557, 593, -1,
      593, 557, 594, -1,
      593, 594, 612, -1,
      612, 594, 600, -1,
      612, 600, 613, -1,
      613, 600, 602, -1,
      613, 602, 614, -1,
      614, 602, 606, -1,
      614, 606, 615, -1,
      615, 606, 581, -1,
      615, 581, 13, -1,
      13, 616, 610, -1,
      610, 616, 617, -1,
      610, 617, 584, -1,
      607, 618, 608, -1,
      608, 618, 619, -1,
      608, 619, 609, -1,
      609, 619, 620, -1,
      609, 620, 610, -1,
      610, 620, 13, -1,
      618, 611, 619, -1,
      619, 611, 582, -1,
      619, 582, 620, -1,
      620, 582, 13, -1,
      131, 139, 606, -1,
      606, 139, 138, -1,
      606, 138, 581, -1,
      581, 138, 136, -1,
      581, 136, 135, -1,
      560, 559, 605, -1,
      605, 559, 593, -1,
      605, 593, 607, -1,
      607, 593, 612, -1,
      607, 612, 618, -1,
      618, 612, 613, -1,
      618, 613, 611, -1,
      611, 613, 614, -1,
      611, 614, 583, -1,
      583, 614, 615, -1,
      583, 615, 13, -1,
      621, 71, 622, -1,
      156, 154, 623, -1,
      153, 151, 624, -1,
      625, 626, 627, -1,
      567, 173, 628, -1,
      569, 568, 629, -1,
      629, 568, 567, -1,
      575, 574, 626, -1,
      626, 574, 573, -1,
      626, 573, 627, -1,
      627, 573, 572, -1,
      627, 572, 571, -1,
      142, 575, 145, -1,
      145, 575, 626, -1,
      145, 626, 147, -1,
      147, 626, 625, -1,
      147, 625, 148, -1,
      148, 625, 150, -1,
      567, 628, 629, -1,
      629, 628, 630, -1,
      629, 630, 631, -1,
      151, 150, 624, -1,
      624, 150, 625, -1,
      624, 625, 632, -1,
      632, 625, 627, -1,
      632, 627, 633, -1,
      633, 627, 571, -1,
      630, 634, 631, -1,
      631, 634, 635, -1,
      631, 635, 636, -1,
      154, 153, 623, -1,
      623, 153, 624, -1,
      623, 624, 637, -1,
      637, 624, 632, -1,
      637, 632, 638, -1,
      638, 632, 633, -1,
      635, 639, 636, -1,
      636, 639, 640, -1,
      636, 640, 641, -1,
      638, 642, 637, -1,
      637, 642, 643, -1,
      637, 643, 623, -1,
      623, 643, 644, -1,
      623, 644, 156, -1,
      570, 569, 645, -1,
      645, 569, 629, -1,
      645, 629, 646, -1,
      646, 629, 631, -1,
      646, 631, 647, -1,
      647, 631, 636, -1,
      647, 636, 648, -1,
      648, 636, 641, -1,
      648, 641, 649, -1,
      649, 641, 622, -1,
      649, 622, 71, -1,
      71, 159, 644, -1,
      644, 159, 157, -1,
      644, 157, 156, -1,
      642, 650, 643, -1,
      643, 650, 651, -1,
      643, 651, 644, -1,
      644, 651, 71, -1,
      650, 652, 651, -1,
      651, 652, 71, -1,
      640, 653, 641, -1,
      641, 653, 654, -1,
      641, 654, 622, -1,
      622, 654, 655, -1,
      622, 655, 621, -1,
      571, 570, 633, -1,
      633, 570, 645, -1,
      633, 645, 638, -1,
      638, 645, 646, -1,
      638, 646, 642, -1,
      642, 646, 647, -1,
      642, 647, 650, -1,
      650, 647, 648, -1,
      650, 648, 652, -1,
      652, 648, 649, -1,
      652, 649, 71, -1,
      8, 71, 621, -1,
      173, 172, 628, -1,
      628, 172, 596, -1,
      628, 596, 630, -1,
      630, 596, 597, -1,
      630, 597, 634, -1,
      634, 597, 598, -1,
      634, 598, 635, -1,
      635, 598, 599, -1,
      635, 599, 639, -1,
      639, 599, 588, -1,
      639, 588, 640, -1,
      640, 588, 587, -1,
      640, 587, 653, -1,
      653, 587, 585, -1,
      653, 585, 654, -1,
      654, 585, 584, -1,
      654, 584, 655, -1,
      655, 584, 617, -1,
      655, 617, 621, -1,
      621, 617, 616, -1,
      621, 616, 8, -1,
      8, 616, 13, -1,
    ]
  }
}

Shape {
  appearance Appearance {
    material Material {
      diffuseColor 0.5020 0.5020 0.5020
      specularColor 0.2510 0.2510 0.2510
      ambientIntensity 0.2
      transparency 0.0000
      shininess 0.5
    }
  }
  geometry IndexedFaceSet {
    ccw TRUE
    solid FALSE
    coord DEF co Coordinate {
      point [
        -0.300020 -0.314644 0.472441,
        -0.300020 0.314644 0.472441,
        -0.379296 0.314644 0.472441,
        -0.379296 -0.314644 0.472441,
        -0.379296 -0.318562 0.472047,
        -0.300020 -0.318562 0.472047,
        -0.379296 0.318562 0.472047,
        -0.300020 0.318562 0.472047,
      ]
    }
    coordIndex [
      1, 7, 0, -1,
      0, 7, 5, -1,
      3, 4, 2, -1,
      2, 4, 6, -1,
      6, 4, 7, -1,
      7, 4, 5, -1,
    ]
  }
}

Shape {
  appearance Appearance {
    material Material {
      diffuseColor 1.0000 1.0000 1.0000
      specularColor 0.5020 0.5020 0.5020
      ambientIntensity 0.2
      transparency 0.0000
      shininess 0.5
    }
  }
  geometry IndexedFaceSet {
    ccw TRUE
    solid FALSE
    coord DEF co Coordinate {
      point [
        0.472441 -0.196850 -0.074803,
        0.526599 -0.196850 -0.074803,
        0.472441 0.196850 -0.074803,
        0.526599 0.196850 -0.074803,
        0.472441 -0.033600 -0.074803,
        -0.526599 0.196850 -0.074803,
        -0.472441 0.196850 -0.074803,
        -0.472441 -0.033600 -0.074803,
        -0.472441 -0.196850 -0.074803,
        -0.526599 -0.196850 -0.074803,
        0.551181 -0.196850 -0.000000,
        0.546209 -0.196850 -0.056834,
        0.546209 0.196850 -0.056834,
        0.551181 0.196850 0.000000,
        0.545193 -0.196850 -0.061581,
        0.543045 -0.196850 -0.065935,
        0.539898 -0.196850 -0.069631,
        0.535941 -0.196850 -0.072445,
        0.531417 -0.196850 -0.074204,
        0.545193 0.196850 -0.061581,
        0.543045 0.196850 -0.065935,
        0.539898 0.196850 -0.069631,
        0.535941 0.196850 -0.072445,
        0.531417 0.196850 -0.074204,
        -0.551181 0.196850 0.000000,
        -0.546209 0.196850 -0.056834,
        -0.545193 0.196850 -0.061581,
        -0.543045 0.196850 -0.065935,
        -0.539898 0.196850 -0.069631,
        -0.535941 0.196850 -0.072445,
        -0.531417 0.196850 -0.074204,
        -0.546209 -0.196850 -0.056834,
        -0.551181 -0.196850 -0.000000,
        -0.545193 -0.196850 -0.061581,
        -0.543045 -0.196850 -0.065935,
        -0.539898 -0.196850 -0.069631,
        -0.535941 -0.196850 -0.072445,
        -0.531417 -0.196850 -0.074204,
        -0.472441 -0.196850 -0.078740,
        -0.472441 0.196850 -0.078740,
        -0.708661 0.196850 0.000000,
        -0.708661 -0.196850 0.000000,
        -0.708661 0.196850 -0.078740,
        -0.708661 -0.196850 -0.078740,
        0.472441 0.196850 -0.078740,
        0.472441 -0.196850 -0.078740,
        0.708661 -0.196850 0.000000,
        0.708661 0.196850 0.000000,
        0.708661 -0.196850 -0.078740,
        0.708661 0.196850 -0.078740,
      ]
    }
    coordIndex [
      8, 38, 7, -1,
      7, 38, 39, -1,
      7, 39, 6, -1,
      24, 40, 32, -1,
      32, 40, 41, -1,
      40, 24, 42, -1,
      42, 24, 25, -1,
      42, 25, 26, -1,
      26, 27, 42, -1,
      42, 27, 28, -1,
      42, 28, 29, -1,
      29, 30, 42, -1,
      42, 30, 5, -1,
      42, 5, 39, -1,
      39, 5, 6, -1,
      43, 41, 42, -1,
      42, 41, 40, -1,
      37, 36, 43, -1,
      43, 36, 35, -1,
      43, 35, 34, -1,
      32, 41, 31, -1,
      31, 41, 43, -1,
      31, 43, 33, -1,
      33, 43, 34, -1,
      37, 43, 9, -1,
      9, 43, 38, -1,
      9, 38, 8, -1,
      43, 42, 38, -1,
      38, 42, 39, -1,
      2, 44, 4, -1,
      4, 44, 45, -1,
      4, 45, 0, -1,
      10, 46, 13, -1,
      13, 46, 47, -1,
      46, 10, 48, -1,
      48, 10, 11, -1,
      48, 11, 14, -1,
      14, 15, 48, -1,
      48, 15, 16, -1,
      48, 16, 17, -1,
      17, 18, 48, -1,
      48, 18, 1, -1,
      48, 1, 45, -1,
      45, 1, 0, -1,
      49, 47, 48, -1,
      48, 47, 46, -1,
      23, 22, 49, -1,
      49, 22, 21, -1,
      49, 21, 20, -1,
      13, 47, 12, -1,
      12, 47, 49, -1,
      12, 49, 19, -1,
      19, 49, 20, -1,
      23, 49, 3, -1,
      3, 49, 44, -1,
      3, 44, 2, -1,
      49, 48, 44, -1,
      44, 48, 45, -1,
    ]
  }
}

Shape {
  appearance Appearance {
    material Material {
      diffuseColor 0.7529 0.7529 0.7529
      specularColor 0.3765 0.3765 0.3765
      ambientIntensity 0.2
      transparency 0.0000
      shininess 0.5
    }
  }
  geometry IndexedFaceSet {
    ccw TRUE
    solid FALSE
    coord DEF co Coordinate {
      point [
        0.047357 -0.033600 -0.074803,
        0.050520 -0.034043 -0.074803,
        0.052673 -0.034080 -0.074803,
        0.057304 -0.033600 -0.074803,
        -0.026607 -0.024477 -0.074803,
        -0.026607 -0.033119 -0.074803,
        0.015644 -0.033119 -0.074803,
        0.031008 -0.029038 -0.074803,
        0.031008 -0.020396 -0.074803,
        0.015644 0.045621 -0.074803,
        0.039401 -0.032485 -0.074803,
        0.005081 0.036978 -0.074803,
        0.005081 0.011052 -0.074803,
        -0.024687 0.036978 -0.074803,
        -0.022766 0.011052 -0.074803,
        0.005081 0.002410 -0.074803,
        0.005081 -0.024477 -0.074803,
        -0.022766 0.002410 -0.074803,
        0.136635 -0.033119 -0.074803,
        0.096304 -0.033119 -0.074803,
        0.062377 -0.033074 -0.074803,
        0.070009 -0.030446 -0.074803,
        -0.024687 0.045621 -0.074803,
        0.057201 0.037068 -0.074803,
        0.063094 0.034941 -0.074803,
        0.032419 -0.021178 -0.074803,
        0.068544 0.031295 -0.074803,
        0.073299 0.026046 -0.074803,
        0.079020 0.005411 -0.074803,
        0.078223 -0.003114 -0.074803,
        0.076083 -0.009886 -0.074803,
        0.058562 -0.024614 -0.074803,
        0.051218 -0.025437 -0.074803,
        0.064300 -0.022502 -0.074803,
        0.069132 -0.019244 -0.074803,
        0.072827 -0.015346 -0.074803,
        0.040766 -0.024277 -0.074803,
        0.085427 0.024881 -0.074803,
        0.080812 0.032243 -0.074803,
        0.126072 0.045621 -0.074803,
        0.076546 0.019966 -0.074803,
        0.078644 0.011537 -0.074803,
        0.073703 0.039080 -0.074803,
        0.136635 0.045621 -0.074803,
        0.076343 -0.026402 -0.074803,
        0.082257 -0.020176 -0.074803,
        0.096304 -0.024477 -0.074803,
        0.086452 -0.012689 -0.074803,
        0.126072 -0.024477 -0.074803,
        0.088821 -0.004354 -0.074803,
        0.089583 0.004765 -0.074803,
        0.088450 0.015960 -0.074803,
        0.066224 0.043385 -0.074803,
        0.057446 0.045935 -0.074803,
        0.049537 0.046581 -0.074803,
        0.040111 0.045931 -0.074803,
        0.031008 0.043460 -0.074803,
        0.031008 0.032898 -0.074803,
        0.039877 0.036695 -0.074803,
        0.049447 0.037939 -0.074803,
        -0.182167 -0.033119 -0.074803,
        -0.170644 -0.033119 -0.074803,
        -0.111109 -0.033119 -0.074803,
        -0.101415 -0.011539 -0.074803,
        -0.096900 -0.018581 -0.074803,
        -0.090419 -0.024787 -0.074803,
        -0.082197 -0.029565 -0.074803,
        -0.073124 -0.032269 -0.074803,
        -0.140876 0.045621 -0.074803,
        -0.151439 0.045621 -0.074803,
        -0.063381 -0.033119 -0.074803,
        -0.041971 -0.033119 -0.074803,
        -0.041971 0.045621 -0.074803,
        -0.064192 0.045621 -0.074803,
        -0.093433 0.035354 -0.074803,
        -0.099001 0.029180 -0.074803,
        -0.102660 0.022408 -0.074803,
        -0.122631 -0.033119 -0.074803,
        -0.130148 -0.011034 -0.074803,
        -0.162677 -0.011034 -0.074803,
        -0.075567 0.044405 -0.074803,
        -0.084780 0.041170 -0.074803,
        -0.093350 0.035426 -0.074803,
        -0.104775 0.014650 -0.074803,
        -0.105347 0.007241 -0.074803,
        -0.104242 -0.003297 -0.074803,
        -0.151439 0.045621 -0.074409,
        -0.182167 -0.033119 -0.074409,
        -0.170644 -0.033119 -0.074409,
        -0.162677 -0.011034 -0.074409,
        -0.130148 -0.011034 -0.074409,
        -0.122631 -0.033119 -0.074409,
        -0.111109 -0.033119 -0.074409,
        -0.140876 0.045621 -0.074409,
        -0.132804 -0.002392 -0.074409,
        -0.159136 -0.002392 -0.074409,
        -0.144552 0.030497 -0.074409,
        -0.145310 0.033228 -0.074409,
        -0.145813 0.036018 -0.074409,
        -0.146068 0.036018 -0.074409,
        -0.146581 0.033236 -0.074409,
        -0.147283 0.030497 -0.074409,
        -0.132804 -0.002392 -0.074803,
        -0.159136 -0.002392 -0.074803,
        -0.144552 0.030497 -0.074803,
        -0.145310 0.033228 -0.074803,
        -0.145813 0.036018 -0.074803,
        -0.146068 0.036018 -0.074803,
        -0.146581 0.033236 -0.074803,
        -0.147283 0.030497 -0.074803,
        -0.063381 -0.033119 -0.074409,
        -0.041971 -0.033119 -0.074409,
        -0.041971 0.045621 -0.074409,
        -0.064192 0.045621 -0.074409,
        -0.105347 0.007241 -0.074409,
        -0.104775 0.014650 -0.074409,
        -0.102660 0.022408 -0.074409,
        -0.099001 0.029180 -0.074409,
        -0.093433 0.035354 -0.074409,
        -0.093350 0.035426 -0.074409,
        -0.084780 0.041170 -0.074409,
        -0.075567 0.044405 -0.074409,
        -0.073124 -0.032269 -0.074409,
        -0.082197 -0.029565 -0.074409,
        -0.090419 -0.024787 -0.074409,
        -0.096900 -0.018581 -0.074409,
        -0.101415 -0.011539 -0.074409,
        -0.104242 -0.003297 -0.074409,
        -0.089542 0.025937 -0.074409,
        -0.085717 0.029998 -0.074409,
        -0.079966 0.033713 -0.074409,
        -0.073466 0.035988 -0.074409,
        -0.064147 0.036978 -0.074409,
        -0.052534 0.036978 -0.074409,
        -0.052534 -0.024477 -0.074409,
        -0.063711 -0.024477 -0.074409,
        -0.072019 -0.023704 -0.074409,
        -0.078645 -0.021636 -0.074409,
        -0.084015 -0.018447 -0.074409,
        -0.088431 -0.014085 -0.074409,
        -0.091752 -0.008656 -0.074409,
        -0.094061 -0.001254 -0.074409,
        -0.094785 0.007016 -0.074409,
        -0.094116 0.014852 -0.074409,
        -0.092278 0.021080 -0.074409,
        -0.064147 0.036978 -0.074803,
        -0.052534 0.036978 -0.074803,
        -0.073466 0.035988 -0.074803,
        -0.079966 0.033713 -0.074803,
        -0.085717 0.029998 -0.074803,
        -0.089542 0.025937 -0.074803,
        -0.092278 0.021080 -0.074803,
        -0.094116 0.014852 -0.074803,
        -0.094785 0.007016 -0.074803,
        -0.094061 -0.001254 -0.074803,
        -0.091752 -0.008656 -0.074803,
        -0.088431 -0.014085 -0.074803,
        -0.084015 -0.018447 -0.074803,
        -0.078645 -0.021636 -0.074803,
        -0.072019 -0.023704 -0.074803,
        -0.063711 -0.024477 -0.074803,
        -0.052534 -0.024477 -0.074803,
        -0.026607 -0.024477 -0.074409,
        -0.026607 -0.033119 -0.074409,
        0.015644 -0.033119 -0.074409,
        0.015644 0.045621 -0.074409,
        -0.024687 0.045621 -0.074409,
        -0.024687 0.036978 -0.074409,
        0.005081 0.036978 -0.074409,
        0.005081 0.011052 -0.074409,
        -0.022766 0.011052 -0.074409,
        -0.022766 0.002410 -0.074409,
        0.005081 0.002410 -0.074409,
        0.005081 -0.024477 -0.074409,
        0.031008 -0.020396 -0.074409,
        0.031008 -0.029038 -0.074409,
        0.039401 -0.032485 -0.074409,
        0.052673 -0.034080 -0.074409,
        0.050520 -0.034043 -0.074409,
        0.062377 -0.033074 -0.074409,
        0.070009 -0.030446 -0.074409,
        0.076343 -0.026402 -0.074409,
        0.082257 -0.020176 -0.074409,
        0.086452 -0.012689 -0.074409,
        0.088821 -0.004354 -0.074409,
        0.089583 0.004765 -0.074409,
        0.049537 0.046581 -0.074409,
        0.057446 0.045935 -0.074409,
        0.066224 0.043385 -0.074409,
        0.073703 0.039080 -0.074409,
        0.080812 0.032243 -0.074409,
        0.085427 0.024881 -0.074409,
        0.088450 0.015960 -0.074409,
        0.031008 0.043460 -0.074409,
        0.040111 0.045931 -0.074409,
        0.031008 0.032898 -0.074409,
        0.049447 0.037939 -0.074409,
        0.039877 0.036695 -0.074409,
        0.079020 0.005411 -0.074409,
        0.078644 0.011537 -0.074409,
        0.076546 0.019966 -0.074409,
        0.073299 0.026046 -0.074409,
        0.068544 0.031295 -0.074409,
        0.063094 0.034941 -0.074409,
        0.057201 0.037068 -0.074409,
        0.051218 -0.025437 -0.074409,
        0.058562 -0.024614 -0.074409,
        0.064300 -0.022502 -0.074409,
        0.069132 -0.019244 -0.074409,
        0.072827 -0.015346 -0.074409,
        0.076083 -0.009886 -0.074409,
        0.078223 -0.003114 -0.074409,
        0.032419 -0.021178 -0.074409,
        0.040766 -0.024277 -0.074409,
        0.096304 -0.024477 -0.074409,
        0.096304 -0.033119 -0.074409,
        0.136635 -0.033119 -0.074409,
        0.136635 0.045621 -0.074409,
        0.126072 0.045621 -0.074409,
        0.126072 -0.024477 -0.074409,
      ]
    }
    coordIndex [
      86, 87, 69, -1,
      69, 87, 60, -1,
      87, 88, 60, -1,
      60, 88, 61, -1,
      88, 89, 61, -1,
      61, 89, 79, -1,
      89, 90, 79, -1,
      79, 90, 78, -1,
      90, 91, 78, -1,
      78, 91, 77, -1,
      91, 92, 77, -1,
      77, 92, 62, -1,
      92, 93, 62, -1,
      62, 93, 68, -1,
      93, 86, 68, -1,
      68, 86, 69, -1,
      94, 90, 95, -1,
      95, 90, 89, -1,
      96, 93, 94, -1,
      94, 93, 92, -1,
      94, 92, 90, -1,
      90, 92, 91, -1,
      96, 97, 93, -1,
      93, 97, 98, -1,
      93, 98, 86, -1,
      86, 98, 99, -1,
      86, 99, 100, -1,
      100, 101, 86, -1,
      86, 101, 95, -1,
      86, 95, 87, -1,
      87, 95, 89, -1,
      87, 89, 88, -1,
      94, 95, 102, -1,
      102, 95, 103, -1,
      96, 94, 104, -1,
      104, 94, 102, -1,
      96, 104, 105, -1,
      96, 105, 97, -1,
      97, 105, 106, -1,
      97, 106, 98, -1,
      99, 98, 107, -1,
      107, 98, 106, -1,
      99, 107, 108, -1,
      99, 108, 100, -1,
      100, 108, 109, -1,
      100, 109, 101, -1,
      95, 101, 103, -1,
      103, 101, 109, -1,
      110, 111, 70, -1,
      70, 111, 71, -1,
      111, 112, 71, -1,
      71, 112, 72, -1,
      112, 113, 72, -1,
      72, 113, 73, -1,
      114, 84, 83, -1,
      114, 83, 115, -1,
      115, 83, 76, -1,
      115, 76, 116, -1,
      116, 76, 75, -1,
      116, 75, 117, -1,
      117, 75, 74, -1,
      117, 74, 118, -1,
      118, 74, 82, -1,
      118, 82, 119, -1,
      119, 82, 81, -1,
      119, 81, 120, -1,
      120, 81, 80, -1,
      120, 80, 121, -1,
      121, 80, 73, -1,
      121, 73, 113, -1,
      110, 70, 67, -1,
      110, 67, 122, -1,
      122, 67, 66, -1,
      122, 66, 123, -1,
      123, 66, 65, -1,
      123, 65, 124, -1,
      124, 65, 64, -1,
      124, 64, 125, -1,
      125, 64, 63, -1,
      125, 63, 126, -1,
      126, 63, 85, -1,
      126, 85, 127, -1,
      127, 85, 84, -1,
      127, 84, 114, -1,
      116, 117, 128, -1,
      128, 117, 118, -1,
      128, 118, 129, -1,
      129, 118, 119, -1,
      129, 119, 130, -1,
      130, 119, 120, -1,
      130, 120, 131, -1,
      131, 120, 121, -1,
      131, 121, 132, -1,
      132, 121, 113, -1,
      132, 113, 133, -1,
      133, 113, 112, -1,
      133, 112, 134, -1,
      134, 112, 111, -1,
      134, 111, 135, -1,
      135, 111, 110, -1,
      135, 110, 136, -1,
      136, 110, 122, -1,
      136, 122, 137, -1,
      137, 122, 123, -1,
      137, 123, 138, -1,
      138, 123, 124, -1,
      138, 124, 139, -1,
      139, 124, 125, -1,
      139, 125, 140, -1,
      140, 125, 126, -1,
      140, 126, 141, -1,
      141, 126, 127, -1,
      141, 127, 142, -1,
      142, 127, 114, -1,
      142, 114, 143, -1,
      143, 114, 115, -1,
      143, 115, 144, -1,
      144, 115, 116, -1,
      144, 116, 128, -1,
      132, 133, 145, -1,
      145, 133, 146, -1,
      132, 145, 147, -1,
      132, 147, 131, -1,
      131, 147, 148, -1,
      131, 148, 130, -1,
      130, 148, 149, -1,
      130, 149, 129, -1,
      129, 149, 150, -1,
      129, 150, 128, -1,
      128, 150, 151, -1,
      128, 151, 144, -1,
      144, 151, 152, -1,
      144, 152, 143, -1,
      143, 152, 153, -1,
      143, 153, 142, -1,
      142, 153, 154, -1,
      142, 154, 141, -1,
      141, 154, 155, -1,
      141, 155, 140, -1,
      140, 155, 156, -1,
      140, 156, 139, -1,
      139, 156, 157, -1,
      139, 157, 138, -1,
      138, 157, 158, -1,
      138, 158, 137, -1,
      137, 158, 159, -1,
      137, 159, 136, -1,
      136, 159, 160, -1,
      136, 160, 135, -1,
      134, 135, 161, -1,
      161, 135, 160, -1,
      133, 134, 146, -1,
      146, 134, 161, -1,
      162, 163, 4, -1,
      4, 163, 5, -1,
      163, 164, 5, -1,
      5, 164, 6, -1,
      164, 165, 6, -1,
      6, 165, 9, -1,
      165, 166, 9, -1,
      9, 166, 22, -1,
      166, 167, 22, -1,
      22, 167, 13, -1,
      167, 168, 13, -1,
      13, 168, 11, -1,
      168, 169, 11, -1,
      11, 169, 12, -1,
      169, 170, 12, -1,
      12, 170, 14, -1,
      170, 171, 14, -1,
      14, 171, 17, -1,
      171, 172, 17, -1,
      17, 172, 15, -1,
      172, 173, 15, -1,
      15, 173, 16, -1,
      173, 162, 16, -1,
      16, 162, 4, -1,
      164, 163, 162, -1,
      162, 173, 164, -1,
      164, 173, 172, -1,
      164, 172, 165, -1,
      167, 166, 168, -1,
      168, 166, 165, -1,
      168, 165, 169, -1,
      169, 165, 172, -1,
      169, 172, 170, -1,
      170, 172, 171, -1,
      174, 175, 8, -1,
      8, 175, 7, -1,
      7, 175, 176, -1,
      177, 2, 1, -1,
      177, 1, 178, -1,
      178, 1, 0, -1,
      178, 0, 176, -1,
      176, 0, 10, -1,
      176, 10, 7, -1,
      2, 177, 3, -1,
      3, 177, 179, -1,
      3, 179, 20, -1,
      20, 179, 180, -1,
      20, 180, 21, -1,
      21, 180, 181, -1,
      21, 181, 44, -1,
      44, 181, 182, -1,
      44, 182, 45, -1,
      45, 182, 183, -1,
      45, 183, 47, -1,
      47, 183, 184, -1,
      47, 184, 49, -1,
      49, 184, 185, -1,
      49, 185, 50, -1,
      186, 54, 53, -1,
      186, 53, 187, -1,
      187, 53, 52, -1,
      187, 52, 188, -1,
      188, 52, 42, -1,
      188, 42, 189, -1,
      189, 42, 38, -1,
      189, 38, 190, -1,
      190, 38, 37, -1,
      190, 37, 191, -1,
      191, 37, 51, -1,
      191, 51, 192, -1,
      192, 51, 50, -1,
      192, 50, 185, -1,
      193, 56, 55, -1,
      193, 55, 194, -1,
      194, 55, 54, -1,
      194, 54, 186, -1,
      193, 195, 56, -1,
      56, 195, 57, -1,
      196, 59, 58, -1,
      196, 58, 197, -1,
      197, 58, 57, -1,
      197, 57, 195, -1,
      198, 28, 41, -1,
      198, 41, 199, -1,
      199, 41, 40, -1,
      199, 40, 200, -1,
      200, 40, 27, -1,
      200, 27, 201, -1,
      201, 27, 26, -1,
      201, 26, 202, -1,
      202, 26, 24, -1,
      202, 24, 203, -1,
      203, 24, 23, -1,
      203, 23, 204, -1,
      204, 23, 59, -1,
      204, 59, 196, -1,
      205, 32, 31, -1,
      205, 31, 206, -1,
      206, 31, 33, -1,
      206, 33, 207, -1,
      207, 33, 34, -1,
      207, 34, 208, -1,
      208, 34, 35, -1,
      208, 35, 209, -1,
      209, 35, 30, -1,
      209, 30, 210, -1,
      210, 30, 29, -1,
      210, 29, 211, -1,
      211, 29, 28, -1,
      211, 28, 198, -1,
      174, 8, 25, -1,
      174, 25, 212, -1,
      212, 25, 36, -1,
      212, 36, 213, -1,
      213, 36, 32, -1,
      213, 32, 205, -1,
      206, 177, 205, -1,
      205, 177, 178, -1,
      205, 178, 213, -1,
      213, 178, 176, -1,
      213, 176, 212, -1,
      212, 176, 175, -1,
      212, 175, 174, -1,
      195, 193, 197, -1,
      197, 193, 194, -1,
      197, 194, 196, -1,
      196, 194, 186, -1,
      196, 186, 204, -1,
      204, 186, 187, -1,
      204, 187, 203, -1,
      203, 187, 188, -1,
      203, 188, 202, -1,
      202, 188, 189, -1,
      202, 189, 201, -1,
      201, 189, 190, -1,
      201, 190, 200, -1,
      200, 190, 191, -1,
      200, 191, 199, -1,
      199, 191, 192, -1,
      199, 192, 198, -1,
      198, 192, 185, -1,
      198, 185, 211, -1,
      211, 185, 184, -1,
      211, 184, 210, -1,
      210, 184, 183, -1,
      210, 183, 209, -1,
      209, 183, 182, -1,
      209, 182, 208, -1,
      208, 182, 181, -1,
      208, 181, 207, -1,
      207, 181, 180, -1,
      207, 180, 206, -1,
      206, 180, 179, -1,
      206, 179, 177, -1,
      214, 215, 46, -1,
      46, 215, 19, -1,
      215, 216, 19, -1,
      19, 216, 18, -1,
      216, 217, 18, -1,
      18, 217, 43, -1,
      217, 218, 43, -1,
      43, 218, 39, -1,
      218, 219, 39, -1,
      39, 219, 48, -1,
      219, 214, 48, -1,
      48, 214, 46, -1,
      218, 217, 219, -1,
      219, 217, 216, -1,
      219, 216, 214, -1,
      214, 216, 215, -1,
    ]
  }
}

Shape {
  appearance Appearance {
    material Material {
      diffuseColor 0.2510 0.2510 0.2510
      specularColor 0.1255 0.1255 0.1255
      ambientIntensity 0.2
      transparency 0.0000
      shininess 0.5
    }
  }
  geometry IndexedFaceSet {
    ccw TRUE
    solid FALSE
    coord DEF co Coordinate {
      point [
        -0.132804 -0.002392 -0.074803,
        -0.159136 -0.002392 -0.074803,
        -0.144552 0.030497 -0.074803,
        -0.145310 0.033228 -0.074803,
        -0.145813 0.036018 -0.074803,
        -0.146068 0.036018 -0.074803,
        -0.146581 0.033236 -0.074803,
        -0.147283 0.030497 -0.074803,
        -0.064147 0.036978 -0.074803,
        -0.052534 0.036978 -0.074803,
        -0.073466 0.035988 -0.074803,
        -0.079966 0.033713 -0.074803,
        -0.085717 0.029998 -0.074803,
        -0.089542 0.025937 -0.074803,
        -0.092278 0.021080 -0.074803,
        -0.094116 0.014852 -0.074803,
        -0.094785 0.007016 -0.074803,
        -0.094061 -0.001254 -0.074803,
        -0.091752 -0.008656 -0.074803,
        -0.088431 -0.014085 -0.074803,
        -0.084015 -0.018447 -0.074803,
        -0.078645 -0.021636 -0.074803,
        -0.072019 -0.023704 -0.074803,
        -0.063711 -0.024477 -0.074803,
        -0.052534 -0.024477 -0.074803,
      ]
    }
    coordIndex [
      0, 1, 2, -1,
      2, 1, 7, -1,
      2, 7, 3, -1,
      3, 7, 6, -1,
      3, 6, 4, -1,
      4, 6, 5, -1,
      9, 24, 8, -1,
      8, 24, 23, -1,
      8, 23, 22, -1,
      16, 15, 8, -1,
      8, 15, 14, -1,
      8, 14, 10, -1,
      22, 21, 8, -1,
      8, 21, 20, -1,
      8, 20, 19, -1,
      19, 18, 8, -1,
      8, 18, 17, -1,
      8, 17, 16, -1,
      13, 12, 14, -1,
      14, 12, 11, -1,
      14, 11, 10, -1,
    ]
  }
}
