#VRML V2.0 utf8

Shape {
  appearance Appearance {
    material Material {
      diffuseColor 0.2510 0.2510 0.2510
      specularColor 0.1255 0.1255 0.1255
      ambientIntensity 0.2
      transparency 0.0000
      shininess 0.5
    }
  }
  geometry IndexedFaceSet {
    ccw TRUE
    solid FALSE
    coord DEF co Coordinate {
      point [
        0.711003 -0.415727 0.413386,
        0.711003 0.415727 0.413386,
        -0.463627 -0.415727 0.413386,
        -0.463627 0.415727 0.413386,
        -0.052387 0.448763 -0.413386,
        -0.044706 -0.030744 -0.413386,
        -0.052387 -0.039866 -0.413386,
        -0.044706 -0.039386 -0.413386,
        -0.002455 -0.039386 -0.413386,
        -0.042785 0.030712 -0.413386,
        -0.013017 0.030712 -0.413386,
        -0.013017 0.004785 -0.413386,
        0.012909 -0.035305 -0.413386,
        0.012909 -0.026663 -0.413386,
        -0.002455 0.039354 -0.413386,
        -0.013017 -0.003857 -0.413386,
        -0.013017 -0.030744 -0.413386,
        -0.040865 -0.003857 -0.413386,
        -0.040865 0.004785 -0.413386,
        0.118536 -0.039386 -0.413386,
        0.039206 -0.039866 -0.413386,
        0.078206 -0.039386 -0.413386,
        0.044278 -0.039340 -0.413386,
        0.051910 -0.036713 -0.413386,
        -0.042785 0.039354 -0.413386,
        0.067329 0.018615 -0.413386,
        0.062713 0.025977 -0.413386,
        0.107974 0.039354 -0.413386,
        0.039102 0.030801 -0.413386,
        0.044996 0.028674 -0.413386,
        0.014320 -0.027444 -0.413386,
        0.050446 0.025028 -0.413386,
        0.055201 0.019779 -0.413386,
        0.060922 -0.000856 -0.413386,
        0.060124 -0.009380 -0.413386,
        0.057985 -0.016153 -0.413386,
        0.040464 -0.030880 -0.413386,
        0.033119 -0.031704 -0.413386,
        0.046201 -0.028768 -0.413386,
        0.051033 -0.025511 -0.413386,
        0.054728 -0.021613 -0.413386,
        0.022667 -0.030544 -0.413386,
        0.058447 0.013700 -0.413386,
        0.060546 0.005270 -0.413386,
        0.058244 -0.032669 -0.413386,
        0.064158 -0.026442 -0.413386,
        0.078206 -0.030744 -0.413386,
        0.068353 -0.018955 -0.413386,
        0.107974 -0.030744 -0.413386,
        0.070723 -0.010620 -0.413386,
        0.071484 -0.001502 -0.413386,
        0.070352 0.009693 -0.413386,
        0.055605 0.032813 -0.413386,
        0.048126 0.037119 -0.413386,
        0.039348 0.039669 -0.413386,
        0.031439 0.040314 -0.413386,
        0.022013 0.039664 -0.413386,
        0.012909 0.037193 -0.413386,
        0.012909 0.026631 -0.413386,
        0.021778 0.030429 -0.413386,
        0.031349 0.031672 -0.413386,
        0.029259 -0.039866 -0.413386,
        0.032422 -0.040309 -0.413386,
        -0.052387 -0.448763 -0.413386,
        0.034575 -0.040346 -0.413386,
        0.118536 0.039354 -0.413386,
        0.350337 0.448763 -0.413386,
        0.350337 -0.039866 -0.413386,
        0.350337 -0.448763 -0.413386,
        -0.350337 -0.448763 -0.413386,
        -0.350337 -0.039866 -0.413386,
        0.021302 -0.038751 -0.413386,
        -0.129207 -0.039386 -0.413386,
        -0.119514 -0.017805 -0.413386,
        -0.114998 -0.024848 -0.413386,
        -0.188743 -0.039386 -0.413386,
        -0.200265 -0.039386 -0.413386,
        -0.169537 0.039354 -0.413386,
        -0.350337 0.448763 -0.413386,
        -0.158975 0.039354 -0.413386,
        -0.108517 -0.031054 -0.413386,
        -0.100296 -0.035831 -0.413386,
        -0.091222 -0.038536 -0.413386,
        -0.081480 -0.039386 -0.413386,
        -0.060069 -0.039386 -0.413386,
        -0.060069 0.039354 -0.413386,
        -0.082290 0.039354 -0.413386,
        -0.111531 0.029087 -0.413386,
        -0.117099 0.022913 -0.413386,
        -0.120759 0.016141 -0.413386,
        -0.093666 0.038138 -0.413386,
        -0.102879 0.034903 -0.413386,
        -0.111449 0.029159 -0.413386,
        -0.140730 -0.039386 -0.413386,
        -0.148247 -0.017300 -0.413386,
        -0.180775 -0.017300 -0.413386,
        -0.122873 0.008383 -0.413386,
        -0.123446 0.000974 -0.413386,
        -0.122341 -0.009563 -0.413386,
        0.816929 -0.285433 -0.000000,
        0.816929 -0.482881 0.000000,
        0.800963 -0.285433 -0.090551,
        0.764864 -0.430817 -0.295276,
        0.800963 0.285433 -0.090551,
        0.764864 0.430817 -0.295276,
        0.816929 0.285433 0.000000,
        0.816929 0.482881 0.000000,
        -0.816929 0.285433 0.000000,
        -0.816929 0.482881 0.000000,
        -0.800963 0.285433 -0.090551,
        -0.764864 0.430817 -0.295276,
        -0.800963 -0.285433 -0.090551,
        -0.764864 -0.430817 -0.295276,
        -0.816929 -0.285433 -0.000000,
        -0.816929 -0.482881 -0.000000,
        0.350337 -0.469589 -0.295276,
        0.726092 -0.469589 -0.295276,
        0.778157 -0.521654 0.000000,
        -0.778157 -0.521654 -0.000000,
        -0.350337 -0.469589 -0.295276,
        -0.726092 -0.469589 -0.295276,
        -0.350337 0.469589 -0.295276,
        -0.726092 0.469589 -0.295276,
        -0.778157 0.521654 0.000000,
        0.778157 0.521654 -0.000000,
        0.350337 0.469589 -0.295276,
        0.726092 0.469589 -0.295276,
        0.749775 0.415727 0.380852,
        0.749775 -0.415727 0.380852,
        -0.711003 0.454499 0.380852,
        0.711003 0.454499 0.380852,
        -0.749775 -0.415727 0.380852,
        -0.749775 0.415727 0.380852,
        -0.711003 -0.454499 0.380852,
        0.711003 -0.454499 0.380852,
        -0.590063 -0.415727 0.413386,
        -0.590063 0.415727 0.413386,
        -0.711003 -0.415727 0.413386,
        -0.711003 0.415727 0.413386,
        -0.745567 0.464432 -0.295276,
        -0.741017 0.466659 -0.295276,
        -0.761935 0.445741 -0.295276,
        -0.763554 0.440925 -0.295276,
        -0.736201 0.468278 -0.295276,
        -0.759707 -0.450292 -0.295276,
        -0.761935 -0.445741 -0.295276,
        -0.745567 -0.464432 -0.295276,
        -0.741017 -0.466659 -0.295276,
        -0.736201 -0.468278 -0.295276,
        -0.763554 -0.440925 -0.295276,
        -0.759707 0.450292 -0.295276,
        -0.756906 0.454502 -0.295276,
        -0.749778 0.461631 -0.295276,
        -0.753578 0.458302 -0.295276,
        -0.756906 -0.454502 -0.295276,
        -0.749778 -0.461631 -0.295276,
        -0.753578 -0.458302 -0.295276,
        0.745567 -0.464432 -0.295276,
        0.741017 -0.466659 -0.295276,
        0.761935 -0.445741 -0.295276,
        0.736201 -0.468278 -0.295276,
        0.763554 -0.440925 -0.295276,
        0.736201 0.468278 -0.295276,
        0.761935 0.445741 -0.295276,
        0.763554 0.440925 -0.295276,
        0.741017 0.466659 -0.295276,
        0.745567 0.464432 -0.295276,
        0.759707 0.450292 -0.295276,
        0.759707 -0.450292 -0.295276,
        0.756906 -0.454502 -0.295276,
        0.749778 -0.461631 -0.295276,
        0.753578 -0.458302 -0.295276,
        0.756906 0.454502 -0.295276,
        0.749778 0.461631 -0.295276,
        0.753578 0.458302 -0.295276,
      ]
    }
    coordIndex [
      0, 1, 2, -1,
      2, 1, 3, -1,
      4, 5, 6, -1,
      6, 5, 7, -1,
      6, 7, 8, -1,
      9, 10, 11, -1,
      12, 8, 13, -1,
      13, 8, 14, -1,
      15, 16, 17, -1,
      17, 16, 5, -1,
      17, 5, 18, -1,
      19, 20, 21, -1,
      21, 20, 22, -1,
      21, 22, 23, -1,
      11, 18, 9, -1,
      9, 18, 5, -1,
      9, 5, 24, -1,
      24, 5, 4, -1,
      24, 4, 14, -1,
      25, 26, 27, -1,
      28, 29, 30, -1,
      30, 29, 31, -1,
      30, 31, 32, -1,
      33, 34, 30, -1,
      30, 34, 35, -1,
      36, 37, 38, -1,
      38, 37, 39, -1,
      35, 40, 30, -1,
      30, 40, 39, -1,
      30, 39, 41, -1,
      41, 39, 37, -1,
      32, 42, 30, -1,
      30, 42, 43, -1,
      30, 43, 33, -1,
      23, 44, 21, -1,
      21, 44, 45, -1,
      21, 45, 46, -1,
      46, 45, 47, -1,
      46, 47, 48, -1,
      47, 49, 48, -1,
      48, 49, 50, -1,
      48, 50, 27, -1,
      27, 50, 51, -1,
      27, 51, 25, -1,
      52, 53, 4, -1,
      4, 53, 54, -1,
      4, 54, 55, -1,
      55, 56, 4, -1,
      4, 56, 57, -1,
      4, 57, 14, -1,
      14, 57, 58, -1,
      14, 58, 13, -1,
      13, 58, 59, -1,
      13, 59, 30, -1,
      30, 59, 60, -1,
      30, 60, 28, -1,
      61, 62, 63, -1,
      63, 62, 64, -1,
      63, 64, 20, -1,
      26, 52, 27, -1,
      27, 52, 4, -1,
      27, 4, 65, -1,
      65, 4, 66, -1,
      65, 66, 19, -1,
      19, 66, 67, -1,
      19, 67, 20, -1,
      20, 67, 68, -1,
      20, 68, 63, -1,
      69, 70, 63, -1,
      63, 70, 6, -1,
      63, 6, 61, -1,
      61, 6, 8, -1,
      61, 8, 71, -1,
      71, 8, 12, -1,
      72, 73, 74, -1,
      75, 6, 76, -1,
      76, 6, 70, -1,
      76, 70, 77, -1,
      77, 70, 78, -1,
      77, 78, 79, -1,
      79, 78, 4, -1,
      74, 80, 72, -1,
      72, 80, 81, -1,
      72, 81, 82, -1,
      83, 84, 6, -1,
      6, 84, 85, -1,
      6, 85, 4, -1,
      4, 85, 86, -1,
      87, 88, 79, -1,
      79, 88, 89, -1,
      86, 90, 4, -1,
      4, 90, 91, -1,
      4, 91, 79, -1,
      79, 91, 92, -1,
      79, 92, 87, -1,
      82, 83, 72, -1,
      72, 83, 6, -1,
      72, 6, 93, -1,
      93, 6, 75, -1,
      93, 75, 94, -1,
      94, 75, 95, -1,
      89, 96, 79, -1,
      79, 96, 97, -1,
      79, 97, 72, -1,
      72, 97, 98, -1,
      72, 98, 73, -1,
      99, 100, 101, -1,
      101, 100, 102, -1,
      101, 102, 103, -1,
      103, 102, 104, -1,
      103, 104, 105, -1,
      105, 104, 106, -1,
      107, 108, 109, -1,
      109, 108, 110, -1,
      109, 110, 111, -1,
      111, 110, 112, -1,
      111, 112, 113, -1,
      113, 112, 114, -1,
      115, 116, 117, -1,
      117, 118, 119, -1,
      119, 118, 120, -1,
      119, 69, 63, -1,
      117, 119, 115, -1,
      115, 119, 63, -1,
      115, 63, 68, -1,
      121, 122, 123, -1,
      123, 124, 125, -1,
      125, 124, 126, -1,
      4, 78, 121, -1,
      123, 125, 121, -1,
      121, 125, 66, -1,
      121, 66, 4, -1,
      106, 127, 105, -1,
      105, 127, 128, -1,
      105, 128, 99, -1,
      99, 128, 100, -1,
      129, 130, 123, -1,
      123, 130, 124, -1,
      114, 131, 113, -1,
      113, 131, 132, -1,
      113, 132, 107, -1,
      107, 132, 108, -1,
      118, 117, 133, -1,
      133, 117, 134, -1,
      135, 136, 137, -1,
      137, 136, 138, -1,
      69, 119, 70, -1,
      70, 119, 121, -1,
      70, 121, 78, -1,
      122, 121, 119, -1,
      119, 120, 122, -1,
      122, 120, 112, -1,
      122, 112, 110, -1,
      139, 140, 141, -1,
      110, 142, 122, -1,
      122, 142, 141, -1,
      122, 141, 143, -1,
      143, 141, 140, -1,
      144, 145, 146, -1,
      146, 145, 147, -1,
      120, 148, 112, -1,
      112, 148, 147, -1,
      112, 147, 149, -1,
      149, 147, 145, -1,
      141, 150, 139, -1,
      139, 150, 151, -1,
      139, 151, 152, -1,
      152, 151, 153, -1,
      144, 146, 154, -1,
      154, 146, 155, -1,
      154, 155, 156, -1,
      66, 125, 67, -1,
      67, 125, 115, -1,
      67, 115, 68, -1,
      115, 125, 116, -1,
      116, 125, 126, -1,
      157, 158, 159, -1,
      126, 104, 116, -1,
      116, 104, 102, -1,
      116, 102, 160, -1,
      160, 102, 158, -1,
      158, 102, 161, -1,
      158, 161, 159, -1,
      162, 163, 126, -1,
      126, 163, 164, -1,
      126, 164, 104, -1,
      162, 165, 163, -1,
      163, 165, 166, -1,
      163, 166, 167, -1,
      159, 168, 157, -1,
      157, 168, 169, -1,
      157, 169, 170, -1,
      170, 169, 171, -1,
      167, 166, 172, -1,
      172, 166, 173, -1,
      172, 173, 174, -1,
    ]
  }
}

Shape {
  appearance Appearance {
    material Material {
      diffuseColor 1.0000 1.0000 1.0000
      specularColor 0.5020 0.5020 0.5020
      ambientIntensity 0.2
      transparency 0.0000
      shininess 0.5
    }
  }
  geometry IndexedFaceSet {
    ccw TRUE
    solid FALSE
    coord DEF co Coordinate {
      point [
        0.816929 -0.285433 -0.000000,
        0.800963 -0.285433 -0.090551,
        0.800963 0.285433 -0.090551,
        0.816929 0.285433 0.000000,
        -0.816929 0.285433 0.000000,
        -0.800963 0.285433 -0.090551,
        -0.800963 -0.285433 -0.090551,
        -0.816929 -0.285433 -0.000000,
        -0.866142 0.285433 0.000000,
        -0.866142 -0.285433 0.000000,
        -0.472441 0.285433 -0.362205,
        -0.866142 0.285433 -0.362205,
        -0.472441 -0.285433 -0.362205,
        -0.866142 -0.285433 -0.362205,
        -0.472441 0.285433 -0.452756,
        -0.472441 -0.285433 -0.452756,
        -0.866142 0.285433 -0.452756,
        -0.866142 -0.285433 -0.452756,
        -0.896711 -0.285433 -0.448731,
        -0.896711 0.285433 -0.448731,
        -0.925197 -0.285433 -0.436932,
        -0.925197 0.285433 -0.436932,
        -0.949658 -0.285433 -0.418162,
        -0.949658 0.285433 -0.418162,
        -0.968428 -0.285433 -0.393701,
        -0.968428 0.285433 -0.393701,
        -0.980228 -0.285433 -0.365215,
        -0.980228 0.285433 -0.365215,
        -0.984252 -0.285433 -0.334646,
        -0.984252 0.285433 -0.334646,
        -0.984252 0.285433 -0.118110,
        -0.984252 -0.285433 -0.118110,
        -0.980228 -0.285433 -0.087541,
        -0.980228 0.285433 -0.087541,
        -0.968428 -0.285433 -0.059055,
        -0.968428 0.285433 -0.059055,
        -0.949658 -0.285433 -0.034594,
        -0.949658 0.285433 -0.034594,
        -0.925197 -0.285433 -0.015824,
        -0.925197 0.285433 -0.015824,
        -0.896711 -0.285433 -0.004024,
        -0.896711 0.285433 -0.004024,
        -0.866142 -0.285433 -0.090551,
        -0.866142 0.285433 -0.090551,
        -0.873274 0.285433 -0.091490,
        -0.873274 -0.285433 -0.091490,
        -0.879921 0.285433 -0.094243,
        -0.879921 -0.285433 -0.094243,
        -0.885629 0.285433 -0.098623,
        -0.885629 -0.285433 -0.098623,
        -0.890009 0.285433 -0.104331,
        -0.890009 -0.285433 -0.104331,
        -0.892762 0.285433 -0.110978,
        -0.892762 -0.285433 -0.110978,
        -0.893701 0.285433 -0.118110,
        -0.893701 -0.285433 -0.118110,
        -0.893701 0.285433 -0.334646,
        -0.893701 -0.285433 -0.334646,
        -0.892762 0.285433 -0.341778,
        -0.892762 -0.285433 -0.341778,
        -0.890009 0.285433 -0.348425,
        -0.890009 -0.285433 -0.348425,
        -0.885629 0.285433 -0.354133,
        -0.885629 -0.285433 -0.354133,
        -0.879921 0.285433 -0.358513,
        -0.879921 -0.285433 -0.358513,
        -0.873274 0.285433 -0.361266,
        -0.873274 -0.285433 -0.361266,
        0.866142 -0.285433 0.000000,
        0.866142 0.285433 0.000000,
        0.866142 0.285433 -0.362205,
        0.472441 0.285433 -0.362205,
        0.866142 -0.285433 -0.362205,
        0.472441 -0.285433 -0.362205,
        0.873274 0.285433 -0.361266,
        0.873274 -0.285433 -0.361266,
        0.879921 0.285433 -0.358513,
        0.879921 -0.285433 -0.358513,
        0.885629 0.285433 -0.354133,
        0.885629 -0.285433 -0.354133,
        0.890009 0.285433 -0.348425,
        0.890009 -0.285433 -0.348425,
        0.892762 0.285433 -0.341778,
        0.892762 -0.285433 -0.341778,
        0.893701 0.285433 -0.334646,
        0.893701 -0.285433 -0.334646,
        0.893701 0.285433 -0.118110,
        0.893701 -0.285433 -0.118110,
        0.892762 0.285433 -0.110978,
        0.892762 -0.285433 -0.110978,
        0.890009 0.285433 -0.104331,
        0.890009 -0.285433 -0.104331,
        0.885629 0.285433 -0.098623,
        0.885629 -0.285433 -0.098623,
        0.879921 0.285433 -0.094243,
        0.879921 -0.285433 -0.094243,
        0.873274 0.285433 -0.091490,
        0.873274 -0.285433 -0.091490,
        0.866142 0.285433 -0.090551,
        0.866142 -0.285433 -0.090551,
        0.896711 -0.285433 -0.004024,
        0.896711 0.285433 -0.004024,
        0.925197 -0.285433 -0.015824,
        0.925197 0.285433 -0.015824,
        0.949658 -0.285433 -0.034594,
        0.949658 0.285433 -0.034594,
        0.968428 -0.285433 -0.059055,
        0.968428 0.285433 -0.059055,
        0.980228 -0.285433 -0.087541,
        0.980228 0.285433 -0.087541,
        0.984252 -0.285433 -0.118110,
        0.984252 0.285433 -0.118110,
        0.984252 0.285433 -0.334646,
        0.984252 -0.285433 -0.334646,
        0.980228 -0.285433 -0.365215,
        0.980228 0.285433 -0.365215,
        0.968428 -0.285433 -0.393701,
        0.968428 0.285433 -0.393701,
        0.949658 -0.285433 -0.418162,
        0.949658 0.285433 -0.418162,
        0.925197 -0.285433 -0.436932,
        0.925197 0.285433 -0.436932,
        0.896711 -0.285433 -0.448731,
        0.896711 0.285433 -0.448731,
        0.866142 -0.285433 -0.452756,
        0.866142 0.285433 -0.452756,
        0.472441 0.285433 -0.452756,
        0.472441 -0.285433 -0.452756,
      ]
    }
    coordIndex [
      8, 9, 4, -1,
      4, 9, 7, -1,
      10, 11, 12, -1,
      12, 11, 13, -1,
      14, 10, 15, -1,
      15, 10, 12, -1,
      16, 14, 17, -1,
      17, 14, 15, -1,
      16, 17, 18, -1,
      16, 18, 19, -1,
      19, 18, 20, -1,
      19, 20, 21, -1,
      21, 20, 22, -1,
      21, 22, 23, -1,
      23, 22, 24, -1,
      23, 24, 25, -1,
      25, 24, 26, -1,
      25, 26, 27, -1,
      27, 26, 28, -1,
      27, 28, 29, -1,
      30, 29, 31, -1,
      31, 29, 28, -1,
      30, 31, 32, -1,
      30, 32, 33, -1,
      33, 32, 34, -1,
      33, 34, 35, -1,
      35, 34, 36, -1,
      35, 36, 37, -1,
      37, 36, 38, -1,
      37, 38, 39, -1,
      39, 38, 40, -1,
      39, 40, 41, -1,
      41, 40, 9, -1,
      41, 9, 8, -1,
      42, 43, 6, -1,
      6, 43, 5, -1,
      43, 42, 44, -1,
      44, 42, 45, -1,
      44, 45, 46, -1,
      46, 45, 47, -1,
      46, 47, 48, -1,
      48, 47, 49, -1,
      48, 49, 50, -1,
      50, 49, 51, -1,
      50, 51, 52, -1,
      52, 51, 53, -1,
      52, 53, 54, -1,
      54, 53, 55, -1,
      56, 54, 57, -1,
      57, 54, 55, -1,
      56, 57, 58, -1,
      58, 57, 59, -1,
      58, 59, 60, -1,
      60, 59, 61, -1,
      60, 61, 62, -1,
      62, 61, 63, -1,
      62, 63, 64, -1,
      64, 63, 65, -1,
      64, 65, 66, -1,
      66, 65, 67, -1,
      66, 67, 11, -1,
      11, 67, 13, -1,
      10, 14, 11, -1,
      11, 14, 16, -1,
      11, 16, 66, -1,
      66, 16, 19, -1,
      66, 19, 64, -1,
      64, 19, 21, -1,
      64, 21, 62, -1,
      62, 21, 23, -1,
      62, 23, 60, -1,
      60, 23, 25, -1,
      60, 25, 58, -1,
      58, 25, 27, -1,
      58, 27, 56, -1,
      56, 27, 29, -1,
      56, 29, 54, -1,
      54, 29, 30, -1,
      54, 30, 52, -1,
      52, 30, 33, -1,
      52, 33, 50, -1,
      50, 33, 35, -1,
      50, 35, 48, -1,
      48, 35, 37, -1,
      48, 37, 46, -1,
      46, 37, 39, -1,
      46, 39, 44, -1,
      44, 39, 41, -1,
      44, 41, 43, -1,
      43, 41, 8, -1,
      43, 8, 5, -1,
      5, 8, 4, -1,
      6, 7, 42, -1,
      42, 7, 9, -1,
      42, 9, 45, -1,
      45, 9, 40, -1,
      45, 40, 47, -1,
      47, 40, 38, -1,
      47, 38, 49, -1,
      49, 38, 36, -1,
      49, 36, 51, -1,
      51, 36, 34, -1,
      51, 34, 53, -1,
      53, 34, 32, -1,
      53, 32, 55, -1,
      55, 32, 31, -1,
      55, 31, 57, -1,
      57, 31, 28, -1,
      57, 28, 59, -1,
      59, 28, 26, -1,
      59, 26, 61, -1,
      61, 26, 24, -1,
      61, 24, 63, -1,
      63, 24, 22, -1,
      63, 22, 65, -1,
      65, 22, 20, -1,
      65, 20, 67, -1,
      67, 20, 18, -1,
      67, 18, 13, -1,
      13, 18, 17, -1,
      13, 17, 12, -1,
      12, 17, 15, -1,
      0, 68, 3, -1,
      3, 68, 69, -1,
      70, 71, 72, -1,
      72, 71, 73, -1,
      70, 72, 74, -1,
      74, 72, 75, -1,
      74, 75, 76, -1,
      76, 75, 77, -1,
      76, 77, 78, -1,
      78, 77, 79, -1,
      78, 79, 80, -1,
      80, 79, 81, -1,
      80, 81, 82, -1,
      82, 81, 83, -1,
      82, 83, 84, -1,
      84, 83, 85, -1,
      86, 84, 87, -1,
      87, 84, 85, -1,
      86, 87, 88, -1,
      88, 87, 89, -1,
      88, 89, 90, -1,
      90, 89, 91, -1,
      90, 91, 92, -1,
      92, 91, 93, -1,
      92, 93, 94, -1,
      94, 93, 95, -1,
      94, 95, 96, -1,
      96, 95, 97, -1,
      96, 97, 98, -1,
      98, 97, 99, -1,
      2, 98, 1, -1,
      1, 98, 99, -1,
      69, 68, 100, -1,
      69, 100, 101, -1,
      101, 100, 102, -1,
      101, 102, 103, -1,
      103, 102, 104, -1,
      103, 104, 105, -1,
      105, 104, 106, -1,
      105, 106, 107, -1,
      107, 106, 108, -1,
      107, 108, 109, -1,
      109, 108, 110, -1,
      109, 110, 111, -1,
      112, 111, 113, -1,
      113, 111, 110, -1,
      112, 113, 114, -1,
      112, 114, 115, -1,
      115, 114, 116, -1,
      115, 116, 117, -1,
      117, 116, 118, -1,
      117, 118, 119, -1,
      119, 118, 120, -1,
      119, 120, 121, -1,
      121, 120, 122, -1,
      121, 122, 123, -1,
      123, 122, 124, -1,
      123, 124, 125, -1,
      126, 125, 127, -1,
      127, 125, 124, -1,
      71, 126, 73, -1,
      73, 126, 127, -1,
      2, 3, 98, -1,
      98, 3, 69, -1,
      98, 69, 96, -1,
      96, 69, 101, -1,
      96, 101, 94, -1,
      94, 101, 103, -1,
      94, 103, 92, -1,
      92, 103, 105, -1,
      92, 105, 90, -1,
      90, 105, 107, -1,
      90, 107, 88, -1,
      88, 107, 109, -1,
      88, 109, 86, -1,
      86, 109, 111, -1,
      86, 111, 84, -1,
      84, 111, 112, -1,
      84, 112, 82, -1,
      82, 112, 115, -1,
      82, 115, 80, -1,
      80, 115, 117, -1,
      80, 117, 78, -1,
      78, 117, 119, -1,
      78, 119, 76, -1,
      76, 119, 121, -1,
      76, 121, 74, -1,
      74, 121, 123, -1,
      74, 123, 70, -1,
      70, 123, 125, -1,
      70, 125, 71, -1,
      71, 125, 126, -1,
      73, 127, 72, -1,
      72, 127, 124, -1,
      72, 124, 75, -1,
      75, 124, 122, -1,
      75, 122, 77, -1,
      77, 122, 120, -1,
      77, 120, 79, -1,
      79, 120, 118, -1,
      79, 118, 81, -1,
      81, 118, 116, -1,
      81, 116, 83, -1,
      83, 116, 114, -1,
      83, 114, 85, -1,
      85, 114, 113, -1,
      85, 113, 87, -1,
      87, 113, 110, -1,
      87, 110, 89, -1,
      89, 110, 108, -1,
      89, 108, 91, -1,
      91, 108, 106, -1,
      91, 106, 93, -1,
      93, 106, 104, -1,
      93, 104, 95, -1,
      95, 104, 102, -1,
      95, 102, 97, -1,
      97, 102, 100, -1,
      97, 100, 99, -1,
      99, 100, 68, -1,
      99, 68, 1, -1,
      1, 68, 0, -1,
    ]
  }
}

Shape {
  appearance Appearance {
    material Material {
      diffuseColor 0.7529 0.7529 0.7529
      specularColor 0.3765 0.3765 0.3765
      ambientIntensity 0.2
      transparency 0.0000
      shininess 0.5
    }
  }
  geometry IndexedFaceSet {
    ccw TRUE
    solid FALSE
    coord DEF co Coordinate {
      point [
        -0.044706 -0.030744 -0.413386,
        -0.044706 -0.039386 -0.413386,
        -0.002455 -0.039386 -0.413386,
        -0.042785 0.030712 -0.413386,
        -0.013017 0.030712 -0.413386,
        -0.013017 0.004785 -0.413386,
        0.012909 -0.035305 -0.413386,
        0.012909 -0.026663 -0.413386,
        -0.002455 0.039354 -0.413386,
        -0.013017 -0.003857 -0.413386,
        -0.013017 -0.030744 -0.413386,
        -0.040865 -0.003857 -0.413386,
        -0.040865 0.004785 -0.413386,
        0.118536 -0.039386 -0.413386,
        0.039206 -0.039866 -0.413386,
        0.078206 -0.039386 -0.413386,
        0.044278 -0.039340 -0.413386,
        0.051910 -0.036713 -0.413386,
        -0.042785 0.039354 -0.413386,
        0.067329 0.018615 -0.413386,
        0.062713 0.025977 -0.413386,
        0.107974 0.039354 -0.413386,
        0.039102 0.030801 -0.413386,
        0.044996 0.028674 -0.413386,
        0.014320 -0.027444 -0.413386,
        0.050446 0.025028 -0.413386,
        0.055201 0.019779 -0.413386,
        0.060922 -0.000856 -0.413386,
        0.060124 -0.009380 -0.413386,
        0.057985 -0.016153 -0.413386,
        0.040464 -0.030880 -0.413386,
        0.033119 -0.031704 -0.413386,
        0.046201 -0.028768 -0.413386,
        0.051033 -0.025511 -0.413386,
        0.054728 -0.021613 -0.413386,
        0.022667 -0.030544 -0.413386,
        0.058447 0.013700 -0.413386,
        0.060546 0.005270 -0.413386,
        0.058244 -0.032669 -0.413386,
        0.064158 -0.026442 -0.413386,
        0.078206 -0.030744 -0.413386,
        0.068353 -0.018955 -0.413386,
        0.107974 -0.030744 -0.413386,
        0.070723 -0.010620 -0.413386,
        0.071484 -0.001502 -0.413386,
        0.070352 0.009693 -0.413386,
        0.055605 0.032813 -0.413386,
        0.048126 0.037119 -0.413386,
        0.039348 0.039669 -0.413386,
        0.031439 0.040314 -0.413386,
        0.022013 0.039664 -0.413386,
        0.012909 0.037193 -0.413386,
        0.012909 0.026631 -0.413386,
        0.021778 0.030429 -0.413386,
        0.031349 0.031672 -0.413386,
        0.029259 -0.039866 -0.413386,
        0.032422 -0.040309 -0.413386,
        0.034575 -0.040346 -0.413386,
        0.118536 0.039354 -0.413386,
        0.021302 -0.038751 -0.413386,
        -0.129207 -0.039386 -0.413386,
        -0.119514 -0.017805 -0.413386,
        -0.114998 -0.024848 -0.413386,
        -0.188743 -0.039386 -0.413386,
        -0.200265 -0.039386 -0.413386,
        -0.169537 0.039354 -0.413386,
        -0.158975 0.039354 -0.413386,
        -0.108517 -0.031054 -0.413386,
        -0.100296 -0.035831 -0.413386,
        -0.091222 -0.038536 -0.413386,
        -0.081480 -0.039386 -0.413386,
        -0.060069 -0.039386 -0.413386,
        -0.060069 0.039354 -0.413386,
        -0.082290 0.039354 -0.413386,
        -0.111531 0.029087 -0.413386,
        -0.117099 0.022913 -0.413386,
        -0.120759 0.016141 -0.413386,
        -0.093666 0.038138 -0.413386,
        -0.102879 0.034903 -0.413386,
        -0.111449 0.029159 -0.413386,
        -0.140730 -0.039386 -0.413386,
        -0.148247 -0.017300 -0.413386,
        -0.180775 -0.017300 -0.413386,
        -0.122873 0.008383 -0.413386,
        -0.123446 0.000974 -0.413386,
        -0.122341 -0.009563 -0.413386,
        -0.169537 0.039354 -0.412992,
        -0.200265 -0.039386 -0.412992,
        -0.188743 -0.039386 -0.412992,
        -0.180775 -0.017300 -0.412992,
        -0.148247 -0.017300 -0.412992,
        -0.140730 -0.039386 -0.412992,
        -0.129207 -0.039386 -0.412992,
        -0.158975 0.039354 -0.412992,
        -0.150903 -0.008658 -0.412992,
        -0.177234 -0.008658 -0.412992,
        -0.162651 0.024230 -0.412992,
        -0.163409 0.026961 -0.412992,
        -0.163911 0.029752 -0.412992,
        -0.164166 0.029752 -0.412992,
        -0.164680 0.026969 -0.412992,
        -0.165381 0.024230 -0.412992,
        -0.150903 -0.008658 -0.413386,
        -0.177234 -0.008658 -0.413386,
        -0.162651 0.024230 -0.413386,
        -0.163409 0.026961 -0.413386,
        -0.163911 0.029752 -0.413386,
        -0.164166 0.029752 -0.413386,
        -0.164680 0.026969 -0.413386,
        -0.165381 0.024230 -0.413386,
        -0.081480 -0.039386 -0.412992,
        -0.060069 -0.039386 -0.412992,
        -0.060069 0.039354 -0.412992,
        -0.082290 0.039354 -0.412992,
        -0.123446 0.000974 -0.412992,
        -0.122873 0.008383 -0.412992,
        -0.120759 0.016141 -0.412992,
        -0.117099 0.022913 -0.412992,
        -0.111531 0.029087 -0.412992,
        -0.111449 0.029159 -0.412992,
        -0.102879 0.034903 -0.412992,
        -0.093666 0.038138 -0.412992,
        -0.091222 -0.038536 -0.412992,
        -0.100296 -0.035831 -0.412992,
        -0.108517 -0.031054 -0.412992,
        -0.114998 -0.024848 -0.412992,
        -0.119514 -0.017805 -0.412992,
        -0.122341 -0.009563 -0.412992,
        -0.107641 0.019670 -0.412992,
        -0.103816 0.023731 -0.412992,
        -0.098064 0.027447 -0.412992,
        -0.091565 0.029721 -0.412992,
        -0.082245 0.030712 -0.412992,
        -0.070632 0.030712 -0.412992,
        -0.070632 -0.030744 -0.412992,
        -0.081810 -0.030744 -0.412992,
        -0.090117 -0.029971 -0.412992,
        -0.096743 -0.027902 -0.412992,
        -0.102113 -0.024714 -0.412992,
        -0.106530 -0.020352 -0.412992,
        -0.109850 -0.014923 -0.412992,
        -0.112160 -0.007521 -0.412992,
        -0.112883 0.000749 -0.412992,
        -0.112214 0.008586 -0.412992,
        -0.110376 0.014813 -0.412992,
        -0.082245 0.030712 -0.413386,
        -0.070632 0.030712 -0.413386,
        -0.091565 0.029721 -0.413386,
        -0.098064 0.027447 -0.413386,
        -0.103816 0.023731 -0.413386,
        -0.107641 0.019670 -0.413386,
        -0.110376 0.014813 -0.413386,
        -0.112214 0.008586 -0.413386,
        -0.112883 0.000749 -0.413386,
        -0.112160 -0.007521 -0.413386,
        -0.109850 -0.014923 -0.413386,
        -0.106530 -0.020352 -0.413386,
        -0.102113 -0.024714 -0.413386,
        -0.096743 -0.027902 -0.413386,
        -0.090117 -0.029971 -0.413386,
        -0.081810 -0.030744 -0.413386,
        -0.070632 -0.030744 -0.413386,
        -0.044706 -0.030744 -0.412992,
        -0.044706 -0.039386 -0.412992,
        -0.002455 -0.039386 -0.412992,
        -0.002455 0.039354 -0.412992,
        -0.042785 0.039354 -0.412992,
        -0.042785 0.030712 -0.412992,
        -0.013017 0.030712 -0.412992,
        -0.013017 0.004785 -0.412992,
        -0.040865 0.004785 -0.412992,
        -0.040865 -0.003857 -0.412992,
        -0.013017 -0.003857 -0.412992,
        -0.013017 -0.030744 -0.412992,
        0.012909 -0.026663 -0.412992,
        0.012909 -0.035305 -0.412992,
        0.021302 -0.038751 -0.412992,
        0.034575 -0.040346 -0.412992,
        0.032422 -0.040309 -0.412992,
        0.044278 -0.039340 -0.412992,
        0.051910 -0.036713 -0.412992,
        0.058244 -0.032669 -0.412992,
        0.064158 -0.026442 -0.412992,
        0.068353 -0.018955 -0.412992,
        0.070723 -0.010620 -0.412992,
        0.071484 -0.001502 -0.412992,
        0.031439 0.040314 -0.412992,
        0.039348 0.039669 -0.412992,
        0.048126 0.037119 -0.412992,
        0.055605 0.032813 -0.412992,
        0.062713 0.025977 -0.412992,
        0.067329 0.018615 -0.412992,
        0.070352 0.009693 -0.412992,
        0.012909 0.037193 -0.412992,
        0.022013 0.039664 -0.412992,
        0.012909 0.026631 -0.412992,
        0.031349 0.031672 -0.412992,
        0.021778 0.030429 -0.412992,
        0.060922 -0.000856 -0.412992,
        0.060546 0.005270 -0.412992,
        0.058447 0.013700 -0.412992,
        0.055201 0.019779 -0.412992,
        0.050446 0.025028 -0.412992,
        0.044996 0.028674 -0.412992,
        0.039102 0.030801 -0.412992,
        0.033119 -0.031704 -0.412992,
        0.040464 -0.030880 -0.412992,
        0.046201 -0.028768 -0.412992,
        0.051033 -0.025511 -0.412992,
        0.054728 -0.021613 -0.412992,
        0.057985 -0.016153 -0.412992,
        0.060124 -0.009380 -0.412992,
        0.014320 -0.027444 -0.412992,
        0.022667 -0.030544 -0.412992,
        0.078206 -0.030744 -0.412992,
        0.078206 -0.039386 -0.412992,
        0.118536 -0.039386 -0.412992,
        0.118536 0.039354 -0.412992,
        0.107974 0.039354 -0.412992,
        0.107974 -0.030744 -0.412992,
      ]
    }
    coordIndex [
      86, 87, 65, -1,
      65, 87, 64, -1,
      87, 88, 64, -1,
      64, 88, 63, -1,
      88, 89, 63, -1,
      63, 89, 82, -1,
      89, 90, 82, -1,
      82, 90, 81, -1,
      90, 91, 81, -1,
      81, 91, 80, -1,
      91, 92, 80, -1,
      80, 92, 60, -1,
      92, 93, 60, -1,
      60, 93, 66, -1,
      93, 86, 66, -1,
      66, 86, 65, -1,
      94, 90, 95, -1,
      95, 90, 89, -1,
      96, 93, 94, -1,
      94, 93, 92, -1,
      94, 92, 90, -1,
      90, 92, 91, -1,
      96, 97, 93, -1,
      93, 97, 98, -1,
      93, 98, 86, -1,
      86, 98, 99, -1,
      86, 99, 100, -1,
      100, 101, 86, -1,
      86, 101, 95, -1,
      86, 95, 87, -1,
      87, 95, 89, -1,
      87, 89, 88, -1,
      94, 95, 102, -1,
      102, 95, 103, -1,
      96, 94, 104, -1,
      104, 94, 102, -1,
      96, 104, 105, -1,
      96, 105, 97, -1,
      97, 105, 106, -1,
      97, 106, 98, -1,
      99, 98, 107, -1,
      107, 98, 106, -1,
      99, 107, 108, -1,
      99, 108, 100, -1,
      100, 108, 109, -1,
      100, 109, 101, -1,
      95, 101, 103, -1,
      103, 101, 109, -1,
      110, 111, 70, -1,
      70, 111, 71, -1,
      111, 112, 71, -1,
      71, 112, 72, -1,
      112, 113, 72, -1,
      72, 113, 73, -1,
      114, 84, 83, -1,
      114, 83, 115, -1,
      115, 83, 76, -1,
      115, 76, 116, -1,
      116, 76, 75, -1,
      116, 75, 117, -1,
      117, 75, 74, -1,
      117, 74, 118, -1,
      118, 74, 79, -1,
      118, 79, 119, -1,
      119, 79, 78, -1,
      119, 78, 120, -1,
      120, 78, 77, -1,
      120, 77, 121, -1,
      121, 77, 73, -1,
      121, 73, 113, -1,
      110, 70, 69, -1,
      110, 69, 122, -1,
      122, 69, 68, -1,
      122, 68, 123, -1,
      123, 68, 67, -1,
      123, 67, 124, -1,
      124, 67, 62, -1,
      124, 62, 125, -1,
      125, 62, 61, -1,
      125, 61, 126, -1,
      126, 61, 85, -1,
      126, 85, 127, -1,
      127, 85, 84, -1,
      127, 84, 114, -1,
      116, 117, 128, -1,
      128, 117, 118, -1,
      128, 118, 129, -1,
      129, 118, 119, -1,
      129, 119, 130, -1,
      130, 119, 120, -1,
      130, 120, 131, -1,
      131, 120, 121, -1,
      131, 121, 132, -1,
      132, 121, 113, -1,
      132, 113, 133, -1,
      133, 113, 112, -1,
      133, 112, 134, -1,
      134, 112, 111, -1,
      134, 111, 135, -1,
      135, 111, 110, -1,
      135, 110, 136, -1,
      136, 110, 122, -1,
      136, 122, 137, -1,
      137, 122, 123, -1,
      137, 123, 138, -1,
      138, 123, 124, -1,
      138, 124, 139, -1,
      139, 124, 125, -1,
      139, 125, 140, -1,
      140, 125, 126, -1,
      140, 126, 141, -1,
      141, 126, 127, -1,
      141, 127, 142, -1,
      142, 127, 114, -1,
      142, 114, 143, -1,
      143, 114, 115, -1,
      143, 115, 144, -1,
      144, 115, 116, -1,
      144, 116, 128, -1,
      132, 133, 145, -1,
      145, 133, 146, -1,
      132, 145, 147, -1,
      132, 147, 131, -1,
      131, 147, 148, -1,
      131, 148, 130, -1,
      130, 148, 149, -1,
      130, 149, 129, -1,
      129, 149, 150, -1,
      129, 150, 128, -1,
      128, 150, 151, -1,
      128, 151, 144, -1,
      144, 151, 152, -1,
      144, 152, 143, -1,
      143, 152, 153, -1,
      143, 153, 142, -1,
      142, 153, 154, -1,
      142, 154, 141, -1,
      141, 154, 155, -1,
      141, 155, 140, -1,
      140, 155, 156, -1,
      140, 156, 139, -1,
      139, 156, 157, -1,
      139, 157, 138, -1,
      138, 157, 158, -1,
      138, 158, 137, -1,
      137, 158, 159, -1,
      137, 159, 136, -1,
      136, 159, 160, -1,
      136, 160, 135, -1,
      134, 135, 161, -1,
      161, 135, 160, -1,
      133, 134, 146, -1,
      146, 134, 161, -1,
      162, 163, 0, -1,
      0, 163, 1, -1,
      163, 164, 1, -1,
      1, 164, 2, -1,
      164, 165, 2, -1,
      2, 165, 8, -1,
      165, 166, 8, -1,
      8, 166, 18, -1,
      166, 167, 18, -1,
      18, 167, 3, -1,
      167, 168, 3, -1,
      3, 168, 4, -1,
      168, 169, 4, -1,
      4, 169, 5, -1,
      169, 170, 5, -1,
      5, 170, 12, -1,
      170, 171, 12, -1,
      12, 171, 11, -1,
      171, 172, 11, -1,
      11, 172, 9, -1,
      172, 173, 9, -1,
      9, 173, 10, -1,
      173, 162, 10, -1,
      10, 162, 0, -1,
      164, 163, 162, -1,
      162, 173, 164, -1,
      164, 173, 172, -1,
      164, 172, 165, -1,
      167, 166, 168, -1,
      168, 166, 165, -1,
      168, 165, 169, -1,
      169, 165, 172, -1,
      169, 172, 170, -1,
      170, 172, 171, -1,
      174, 175, 7, -1,
      7, 175, 6, -1,
      6, 175, 176, -1,
      177, 57, 56, -1,
      177, 56, 178, -1,
      178, 56, 55, -1,
      178, 55, 176, -1,
      176, 55, 59, -1,
      176, 59, 6, -1,
      57, 177, 14, -1,
      14, 177, 179, -1,
      14, 179, 16, -1,
      16, 179, 180, -1,
      16, 180, 17, -1,
      17, 180, 181, -1,
      17, 181, 38, -1,
      38, 181, 182, -1,
      38, 182, 39, -1,
      39, 182, 183, -1,
      39, 183, 41, -1,
      41, 183, 184, -1,
      41, 184, 43, -1,
      43, 184, 185, -1,
      43, 185, 44, -1,
      186, 49, 48, -1,
      186, 48, 187, -1,
      187, 48, 47, -1,
      187, 47, 188, -1,
      188, 47, 46, -1,
      188, 46, 189, -1,
      189, 46, 20, -1,
      189, 20, 190, -1,
      190, 20, 19, -1,
      190, 19, 191, -1,
      191, 19, 45, -1,
      191, 45, 192, -1,
      192, 45, 44, -1,
      192, 44, 185, -1,
      193, 51, 50, -1,
      193, 50, 194, -1,
      194, 50, 49, -1,
      194, 49, 186, -1,
      193, 195, 51, -1,
      51, 195, 52, -1,
      196, 54, 53, -1,
      196, 53, 197, -1,
      197, 53, 52, -1,
      197, 52, 195, -1,
      198, 27, 37, -1,
      198, 37, 199, -1,
      199, 37, 36, -1,
      199, 36, 200, -1,
      200, 36, 26, -1,
      200, 26, 201, -1,
      201, 26, 25, -1,
      201, 25, 202, -1,
      202, 25, 23, -1,
      202, 23, 203, -1,
      203, 23, 22, -1,
      203, 22, 204, -1,
      204, 22, 54, -1,
      204, 54, 196, -1,
      205, 31, 30, -1,
      205, 30, 206, -1,
      206, 30, 32, -1,
      206, 32, 207, -1,
      207, 32, 33, -1,
      207, 33, 208, -1,
      208, 33, 34, -1,
      208, 34, 209, -1,
      209, 34, 29, -1,
      209, 29, 210, -1,
      210, 29, 28, -1,
      210, 28, 211, -1,
      211, 28, 27, -1,
      211, 27, 198, -1,
      174, 7, 24, -1,
      174, 24, 212, -1,
      212, 24, 35, -1,
      212, 35, 213, -1,
      213, 35, 31, -1,
      213, 31, 205, -1,
      206, 177, 205, -1,
      205, 177, 178, -1,
      205, 178, 213, -1,
      213, 178, 176, -1,
      213, 176, 212, -1,
      212, 176, 175, -1,
      212, 175, 174, -1,
      195, 193, 197, -1,
      197, 193, 194, -1,
      197, 194, 196, -1,
      196, 194, 186, -1,
      196, 186, 204, -1,
      204, 186, 187, -1,
      204, 187, 203, -1,
      203, 187, 188, -1,
      203, 188, 202, -1,
      202, 188, 189, -1,
      202, 189, 201, -1,
      201, 189, 190, -1,
      201, 190, 200, -1,
      200, 190, 191, -1,
      200, 191, 199, -1,
      199, 191, 192, -1,
      199, 192, 198, -1,
      198, 192, 185, -1,
      198, 185, 211, -1,
      211, 185, 184, -1,
      211, 184, 210, -1,
      210, 184, 183, -1,
      210, 183, 209, -1,
      209, 183, 182, -1,
      209, 182, 208, -1,
      208, 182, 181, -1,
      208, 181, 207, -1,
      207, 181, 180, -1,
      207, 180, 206, -1,
      206, 180, 179, -1,
      206, 179, 177, -1,
      214, 215, 40, -1,
      40, 215, 15, -1,
      215, 216, 15, -1,
      15, 216, 13, -1,
      216, 217, 13, -1,
      13, 217, 58, -1,
      217, 218, 58, -1,
      58, 218, 21, -1,
      218, 219, 21, -1,
      21, 219, 42, -1,
      219, 214, 42, -1,
      42, 214, 40, -1,
      218, 217, 219, -1,
      219, 217, 216, -1,
      219, 216, 214, -1,
      214, 216, 215, -1,
    ]
  }
}

Shape {
  appearance Appearance {
    material Material {
      diffuseColor 0.2510 0.2510 0.2510
      specularColor 0.1255 0.1255 0.1255
      ambientIntensity 0.2
      transparency 0.0000
      shininess 0.5
    }
  }
  geometry IndexedFaceSet {
    ccw TRUE
    solid FALSE
    coord DEF co Coordinate {
      point [
        -0.150903 -0.008658 -0.413386,
        -0.177234 -0.008658 -0.413386,
        -0.162651 0.024230 -0.413386,
        -0.163409 0.026961 -0.413386,
        -0.163911 0.029752 -0.413386,
        -0.164166 0.029752 -0.413386,
        -0.164680 0.026969 -0.413386,
        -0.165381 0.024230 -0.413386,
        -0.082245 0.030712 -0.413386,
        -0.070632 0.030712 -0.413386,
        -0.091565 0.029721 -0.413386,
        -0.098064 0.027447 -0.413386,
        -0.103816 0.023731 -0.413386,
        -0.107641 0.019670 -0.413386,
        -0.110376 0.014813 -0.413386,
        -0.112214 0.008586 -0.413386,
        -0.112883 0.000749 -0.413386,
        -0.112160 -0.007521 -0.413386,
        -0.109850 -0.014923 -0.413386,
        -0.106530 -0.020352 -0.413386,
        -0.102113 -0.024714 -0.413386,
        -0.096743 -0.027902 -0.413386,
        -0.090117 -0.029971 -0.413386,
        -0.081810 -0.030744 -0.413386,
        -0.070632 -0.030744 -0.413386,
      ]
    }
    coordIndex [
      0, 1, 2, -1,
      2, 1, 7, -1,
      2, 7, 3, -1,
      3, 7, 6, -1,
      3, 6, 4, -1,
      4, 6, 5, -1,
      9, 24, 8, -1,
      8, 24, 23, -1,
      8, 23, 22, -1,
      16, 15, 8, -1,
      8, 15, 14, -1,
      8, 14, 10, -1,
      22, 21, 8, -1,
      8, 21, 20, -1,
      8, 20, 19, -1,
      19, 18, 8, -1,
      8, 18, 17, -1,
      8, 17, 16, -1,
      13, 12, 14, -1,
      14, 12, 11, -1,
      14, 11, 10, -1,
    ]
  }
}

Shape {
  appearance Appearance {
    material Material {
      diffuseColor 0.7529 0.7529 0.7529
      specularColor 0.3765 0.3765 0.3765
      ambientIntensity 0.2
      transparency 0.0000
      shininess 0.5
    }
  }
  geometry IndexedFaceSet {
    ccw TRUE
    solid FALSE
    coord DEF co Coordinate {
      point [
        -0.463627 -0.415727 0.413386,
        -0.463627 0.415727 0.413386,
        -0.590063 -0.415727 0.413386,
        -0.590063 0.415727 0.413386,
        -0.463627 -0.421281 0.412992,
        -0.463627 0.421281 0.412992,
        -0.590063 -0.421281 0.412992,
        -0.590063 0.421281 0.412992,
      ]
    }
    coordIndex [
      4, 5, 6, -1,
      6, 5, 7, -1,
      1, 5, 0, -1,
      0, 5, 4, -1,
      6, 7, 2, -1,
      2, 7, 3, -1,
    ]
  }
}

Shape {
  appearance Appearance {
    material Material {
      diffuseColor 0.2510 0.2510 0.2510
      specularColor 0.1255 0.1255 0.1255
      ambientIntensity 0.2
      transparency 0.0000
      shininess 0.5
    }
  }
  geometry IndexedFaceSet {
    ccw TRUE
    solid FALSE
    coord DEF co Coordinate {
      point [
        0.711003 -0.415727 0.413386,
        0.711003 0.415727 0.413386,
        -0.463627 -0.415727 0.413386,
        -0.463627 0.415727 0.413386,
        0.816929 -0.482881 0.000000,
        0.764864 -0.430817 -0.295276,
        0.764864 0.430817 -0.295276,
        0.816929 0.482881 0.000000,
        -0.816929 0.482881 0.000000,
        -0.764864 0.430817 -0.295276,
        -0.764864 -0.430817 -0.295276,
        -0.816929 -0.482881 -0.000000,
        0.726092 -0.469589 -0.295276,
        0.778157 -0.521654 0.000000,
        -0.778157 -0.521654 -0.000000,
        -0.726092 -0.469589 -0.295276,
        -0.726092 0.469589 -0.295276,
        -0.778157 0.521654 0.000000,
        0.778157 0.521654 -0.000000,
        0.726092 0.469589 -0.295276,
        0.749775 0.415727 0.380852,
        0.749775 -0.415727 0.380852,
        -0.711003 0.454499 0.380852,
        0.711003 0.454499 0.380852,
        -0.749775 -0.415727 0.380852,
        -0.749775 0.415727 0.380852,
        -0.711003 -0.454499 0.380852,
        0.711003 -0.454499 0.380852,
        -0.590063 -0.415727 0.413386,
        -0.590063 0.415727 0.413386,
        -0.711003 -0.415727 0.413386,
        -0.711003 0.415727 0.413386,
        -0.745567 0.464432 -0.295276,
        -0.741017 0.466659 -0.295276,
        -0.761935 0.445741 -0.295276,
        -0.763554 0.440925 -0.295276,
        -0.736201 0.468278 -0.295276,
        -0.759707 -0.450292 -0.295276,
        -0.761935 -0.445741 -0.295276,
        -0.745567 -0.464432 -0.295276,
        -0.741017 -0.466659 -0.295276,
        -0.736201 -0.468278 -0.295276,
        -0.763554 -0.440925 -0.295276,
        -0.759707 0.450292 -0.295276,
        -0.756906 0.454502 -0.295276,
        -0.749778 0.461631 -0.295276,
        -0.753578 0.458302 -0.295276,
        -0.756906 -0.454502 -0.295276,
        -0.749778 -0.461631 -0.295276,
        -0.753578 -0.458302 -0.295276,
        0.745567 -0.464432 -0.295276,
        0.741017 -0.466659 -0.295276,
        0.761935 -0.445741 -0.295276,
        0.736201 -0.468278 -0.295276,
        0.763554 -0.440925 -0.295276,
        0.736201 0.468278 -0.295276,
        0.761935 0.445741 -0.295276,
        0.763554 0.440925 -0.295276,
        0.741017 0.466659 -0.295276,
        0.745567 0.464432 -0.295276,
        0.759707 0.450292 -0.295276,
        0.759707 -0.450292 -0.295276,
        0.756906 -0.454502 -0.295276,
        0.749778 -0.461631 -0.295276,
        0.753578 -0.458302 -0.295276,
        0.756906 0.454502 -0.295276,
        0.749778 0.461631 -0.295276,
        0.753578 0.458302 -0.295276,
        -0.463627 -0.421281 0.412992,
        -0.463627 0.421281 0.412992,
        -0.590063 -0.421281 0.412992,
        -0.590063 0.421281 0.412992,
        0.788266 -0.520343 0.000000,
        0.793082 -0.518725 0.000000,
        0.797632 -0.516497 0.000000,
        0.801843 -0.513696 0.000000,
        0.805643 -0.510367 0.000000,
        0.808971 -0.506567 0.000000,
        0.811772 -0.502357 0.000000,
        0.814000 -0.497806 0.000000,
        0.815619 -0.492990 0.000000,
        0.815619 0.492990 -0.000000,
        0.814000 0.497806 -0.000000,
        0.811772 0.502357 -0.000000,
        0.808971 0.506567 -0.000000,
        0.805643 0.510367 -0.000000,
        0.801843 0.513696 -0.000000,
        0.797632 0.516497 -0.000000,
        0.793082 0.518725 -0.000000,
        0.788266 0.520343 -0.000000,
        0.748414 -0.424276 0.382120,
        0.748206 -0.425578 0.382313,
        0.745300 -0.432255 0.382978,
        0.744199 -0.434783 0.383229,
        0.740637 -0.439365 0.383409,
        0.738014 -0.442739 0.383541,
        0.734641 -0.445361 0.383409,
        0.730059 -0.448923 0.383229,
        0.727530 -0.450024 0.382978,
        0.720854 -0.452931 0.382313,
        0.719552 -0.453138 0.382120,
        0.719552 0.453138 0.382120,
        0.720854 0.452931 0.382313,
        0.727530 0.450024 0.382978,
        0.730059 0.448923 0.383229,
        0.734641 0.445361 0.383409,
        0.738014 0.442739 0.383541,
        0.740637 0.439365 0.383409,
        0.744199 0.434783 0.383229,
        0.745300 0.432255 0.382978,
        0.748206 0.425578 0.382313,
        0.748414 0.424276 0.382120,
        0.747261 -0.415727 0.389357,
        0.747261 0.415727 0.389357,
        0.747126 -0.415727 0.389594,
        0.747126 0.415727 0.389594,
        0.742713 -0.415727 0.397349,
        0.742713 0.415727 0.397349,
        0.742564 -0.415727 0.397509,
        0.742564 0.415727 0.397509,
        0.736435 -0.415727 0.404069,
        0.736435 0.415727 0.404069,
        0.736299 -0.415727 0.404159,
        0.736299 0.415727 0.404159,
        0.728770 -0.415727 0.409149,
        0.728770 0.415727 0.409149,
        0.728668 -0.415727 0.409186,
        0.728668 0.415727 0.409186,
        0.720135 -0.415727 0.412312,
        0.720135 0.415727 0.412312,
        0.720081 -0.415727 0.412318,
        0.720081 0.415727 0.412318,
        0.741918 -0.422783 0.397349,
        0.735798 -0.421386 0.404069,
        0.728324 -0.419681 0.409149,
        0.719906 -0.417759 0.412312,
        0.719231 -0.419690 0.412312,
        0.714965 -0.423956 0.412312,
        0.716697 -0.422867 0.412312,
        0.713035 -0.424631 0.412312,
        0.746352 -0.423795 0.389357,
        0.743670 -0.431459 0.389357,
        0.739350 -0.438334 0.389357,
        0.733609 -0.444075 0.389357,
        0.726735 -0.448394 0.389357,
        0.719071 -0.451076 0.389357,
        0.711003 -0.451985 0.389357,
        0.711003 -0.424806 0.412318,
        0.724894 -0.426805 0.409149,
        0.722080 -0.429618 0.409149,
        0.718712 -0.431735 0.409149,
        0.714956 -0.433049 0.409149,
        0.727011 -0.423436 0.409149,
        0.718143 -0.421421 0.412312,
        0.711003 -0.424860 0.412312,
        0.711003 -0.433392 0.409186,
        0.711003 -0.433494 0.409149,
        0.711003 -0.441023 0.404159,
        0.733917 -0.426762 0.404069,
        0.730887 -0.431584 0.404069,
        0.726860 -0.435611 0.404069,
        0.722037 -0.438641 0.404069,
        0.716662 -0.440522 0.404069,
        0.739573 -0.429486 0.397349,
        0.735795 -0.435498 0.397349,
        0.730774 -0.440519 0.397349,
        0.724761 -0.444297 0.397349,
        0.718059 -0.446643 0.397349,
        0.711003 -0.441160 0.404069,
        0.711003 -0.447288 0.397509,
        0.711003 -0.447437 0.397349,
        0.711003 -0.451850 0.389594,
        -0.815619 -0.492990 0.000000,
        -0.814000 -0.497806 0.000000,
        -0.811772 -0.502357 0.000000,
        -0.808971 -0.506567 0.000000,
        -0.805643 -0.510367 0.000000,
        -0.801843 -0.513696 0.000000,
        -0.797632 -0.516497 0.000000,
        -0.793082 -0.518725 0.000000,
        -0.788266 -0.520343 0.000000,
        0.711003 0.451850 0.389594,
        0.711003 0.447437 0.397349,
        0.718059 0.446643 0.397349,
        0.711003 0.447288 0.397509,
        0.711003 0.441160 0.404069,
        0.716662 0.440522 0.404069,
        0.714956 0.433049 0.409149,
        0.713035 0.424631 0.412312,
        0.714965 0.423956 0.412312,
        0.719231 0.419690 0.412312,
        0.718143 0.421421 0.412312,
        0.719906 0.417759 0.412312,
        0.711003 0.424806 0.412318,
        0.719071 0.451076 0.389357,
        0.726735 0.448394 0.389357,
        0.733609 0.444075 0.389357,
        0.739350 0.438334 0.389357,
        0.743670 0.431459 0.389357,
        0.746352 0.423795 0.389357,
        0.711003 0.441023 0.404159,
        0.711003 0.433494 0.409149,
        0.711003 0.433392 0.409186,
        0.711003 0.424860 0.412312,
        0.722080 0.429618 0.409149,
        0.724894 0.426805 0.409149,
        0.727011 0.423436 0.409149,
        0.728324 0.419681 0.409149,
        0.718712 0.431735 0.409149,
        0.716697 0.422867 0.412312,
        0.722037 0.438641 0.404069,
        0.726860 0.435611 0.404069,
        0.730887 0.431584 0.404069,
        0.733917 0.426762 0.404069,
        0.735798 0.421386 0.404069,
        0.724761 0.444297 0.397349,
        0.730774 0.440519 0.397349,
        0.735795 0.435498 0.397349,
        0.739573 0.429486 0.397349,
        0.741918 0.422783 0.397349,
        0.711003 0.451985 0.389357,
        -0.728672 -0.433396 0.409198,
        -0.734068 -0.438793 0.405922,
        -0.732161 -0.440856 0.403983,
        -0.720082 -0.424806 0.412325,
        -0.718628 -0.451773 0.389575,
        -0.719415 -0.451492 0.390475,
        -0.725804 -0.447141 0.397420,
        -0.727275 -0.446139 0.399018,
        -0.736131 -0.436885 0.403983,
        -0.741415 -0.431999 0.399018,
        -0.742416 -0.430529 0.397420,
        -0.746767 -0.424139 0.390475,
        -0.747048 -0.423352 0.389575,
        -0.732161 0.440856 0.403983,
        -0.734068 0.438793 0.405922,
        -0.728672 0.433396 0.409198,
        -0.725799 0.447120 0.397409,
        -0.727275 0.446139 0.399018,
        -0.719379 0.451387 0.390413,
        -0.718641 0.451877 0.389609,
        -0.720082 0.424806 0.412325,
        -0.736131 0.436885 0.403983,
        -0.741415 0.431999 0.399018,
        -0.742416 0.430529 0.397420,
        -0.746767 0.424139 0.390475,
        -0.747048 0.423352 0.389575,
        -0.815619 0.492990 0.000000,
        -0.814000 0.497806 0.000000,
        -0.811772 0.502357 0.000000,
        -0.808971 0.506567 0.000000,
        -0.805643 0.510367 0.000000,
        -0.788266 0.520343 0.000000,
        -0.793082 0.518725 0.000000,
        -0.797632 0.516497 0.000000,
        -0.801843 0.513696 0.000000,
      ]
    }
    coordIndex [
      13, 12, 53, -1,
      13, 53, 72, -1,
      72, 53, 51, -1,
      72, 51, 73, -1,
      73, 51, 50, -1,
      73, 50, 74, -1,
      74, 50, 63, -1,
      74, 63, 75, -1,
      75, 63, 64, -1,
      75, 64, 76, -1,
      76, 64, 77, -1,
      77, 64, 62, -1,
      77, 62, 78, -1,
      78, 62, 61, -1,
      78, 61, 79, -1,
      79, 61, 52, -1,
      79, 52, 80, -1,
      52, 54, 80, -1,
      80, 54, 5, -1,
      80, 5, 4, -1,
      7, 6, 57, -1,
      7, 57, 81, -1,
      81, 57, 56, -1,
      81, 56, 82, -1,
      82, 56, 60, -1,
      82, 60, 83, -1,
      83, 60, 65, -1,
      83, 65, 84, -1,
      84, 65, 67, -1,
      84, 67, 85, -1,
      85, 67, 86, -1,
      86, 67, 66, -1,
      86, 66, 87, -1,
      87, 66, 59, -1,
      87, 59, 88, -1,
      88, 59, 58, -1,
      88, 58, 89, -1,
      58, 55, 89, -1,
      89, 55, 19, -1,
      89, 19, 18, -1,
      4, 21, 90, -1,
      4, 90, 80, -1,
      80, 90, 91, -1,
      80, 91, 79, -1,
      79, 91, 92, -1,
      79, 92, 78, -1,
      78, 92, 93, -1,
      78, 93, 77, -1,
      77, 93, 94, -1,
      77, 94, 76, -1,
      76, 94, 95, -1,
      76, 95, 75, -1,
      75, 95, 96, -1,
      75, 96, 74, -1,
      74, 96, 97, -1,
      74, 97, 73, -1,
      73, 97, 98, -1,
      73, 98, 72, -1,
      72, 98, 99, -1,
      72, 99, 13, -1,
      13, 99, 100, -1,
      13, 100, 27, -1,
      18, 23, 101, -1,
      18, 101, 89, -1,
      89, 101, 102, -1,
      89, 102, 88, -1,
      88, 102, 103, -1,
      88, 103, 87, -1,
      87, 103, 104, -1,
      87, 104, 86, -1,
      86, 104, 105, -1,
      86, 105, 85, -1,
      85, 105, 106, -1,
      85, 106, 84, -1,
      84, 106, 107, -1,
      84, 107, 83, -1,
      83, 107, 108, -1,
      83, 108, 82, -1,
      82, 108, 109, -1,
      82, 109, 81, -1,
      81, 109, 110, -1,
      81, 110, 7, -1,
      7, 110, 111, -1,
      7, 111, 20, -1,
      21, 20, 112, -1,
      112, 20, 113, -1,
      112, 113, 114, -1,
      114, 113, 115, -1,
      114, 115, 116, -1,
      116, 115, 117, -1,
      116, 117, 118, -1,
      118, 117, 119, -1,
      118, 119, 120, -1,
      120, 119, 121, -1,
      120, 121, 122, -1,
      122, 121, 123, -1,
      122, 123, 124, -1,
      124, 123, 125, -1,
      124, 125, 126, -1,
      126, 125, 127, -1,
      126, 127, 128, -1,
      128, 127, 129, -1,
      128, 129, 130, -1,
      129, 131, 130, -1,
      130, 131, 1, -1,
      130, 1, 0, -1,
      114, 116, 132, -1,
      118, 120, 133, -1,
      134, 135, 136, -1,
      0, 137, 138, -1,
      139, 137, 0, -1,
      136, 135, 0, -1,
      130, 0, 135, -1,
      90, 140, 91, -1,
      91, 140, 141, -1,
      95, 94, 142, -1,
      142, 94, 93, -1,
      142, 93, 141, -1,
      141, 93, 92, -1,
      141, 92, 91, -1,
      95, 142, 96, -1,
      96, 142, 143, -1,
      96, 143, 97, -1,
      97, 143, 144, -1,
      97, 144, 98, -1,
      98, 144, 99, -1,
      99, 144, 145, -1,
      99, 145, 100, -1,
      100, 145, 146, -1,
      100, 146, 27, -1,
      147, 139, 0, -1,
      122, 124, 134, -1,
      134, 124, 126, -1,
      134, 126, 135, -1,
      135, 126, 128, -1,
      135, 128, 130, -1,
      148, 138, 149, -1,
      149, 138, 137, -1,
      149, 137, 150, -1,
      150, 137, 139, -1,
      150, 139, 151, -1,
      120, 122, 133, -1,
      133, 122, 134, -1,
      133, 134, 152, -1,
      152, 134, 136, -1,
      152, 136, 153, -1,
      153, 136, 0, -1,
      147, 154, 139, -1,
      139, 154, 155, -1,
      139, 155, 151, -1,
      151, 155, 156, -1,
      151, 156, 157, -1,
      158, 148, 159, -1,
      159, 148, 149, -1,
      159, 149, 160, -1,
      160, 149, 150, -1,
      160, 150, 161, -1,
      161, 150, 151, -1,
      161, 151, 162, -1,
      162, 151, 157, -1,
      132, 158, 163, -1,
      163, 158, 159, -1,
      163, 159, 164, -1,
      164, 159, 160, -1,
      164, 160, 165, -1,
      165, 160, 161, -1,
      165, 161, 166, -1,
      166, 161, 162, -1,
      166, 162, 167, -1,
      116, 118, 132, -1,
      132, 118, 133, -1,
      132, 133, 158, -1,
      158, 133, 152, -1,
      158, 152, 148, -1,
      148, 152, 153, -1,
      148, 153, 138, -1,
      138, 153, 0, -1,
      90, 21, 140, -1,
      140, 21, 112, -1,
      140, 112, 114, -1,
      157, 168, 162, -1,
      162, 168, 169, -1,
      162, 169, 167, -1,
      167, 169, 170, -1,
      167, 170, 171, -1,
      114, 132, 140, -1,
      140, 132, 163, -1,
      140, 163, 141, -1,
      141, 163, 164, -1,
      141, 164, 142, -1,
      142, 164, 165, -1,
      142, 165, 143, -1,
      143, 165, 166, -1,
      143, 166, 144, -1,
      144, 166, 167, -1,
      144, 167, 145, -1,
      145, 167, 171, -1,
      145, 171, 146, -1,
      11, 10, 42, -1,
      11, 42, 172, -1,
      172, 42, 38, -1,
      172, 38, 173, -1,
      173, 38, 37, -1,
      173, 37, 174, -1,
      174, 37, 47, -1,
      174, 47, 175, -1,
      175, 47, 49, -1,
      175, 49, 176, -1,
      176, 49, 177, -1,
      177, 49, 48, -1,
      177, 48, 178, -1,
      178, 48, 39, -1,
      178, 39, 179, -1,
      179, 39, 40, -1,
      179, 40, 180, -1,
      40, 41, 180, -1,
      180, 41, 15, -1,
      180, 15, 14, -1,
      181, 182, 183, -1,
      184, 185, 186, -1,
      187, 188, 189, -1,
      1, 190, 191, -1,
      192, 190, 1, -1,
      189, 188, 1, -1,
      193, 1, 188, -1,
      101, 194, 102, -1,
      102, 194, 195, -1,
      106, 105, 196, -1,
      196, 105, 104, -1,
      196, 104, 195, -1,
      195, 104, 103, -1,
      195, 103, 102, -1,
      106, 196, 107, -1,
      107, 196, 197, -1,
      107, 197, 108, -1,
      108, 197, 198, -1,
      108, 198, 109, -1,
      109, 198, 110, -1,
      110, 198, 199, -1,
      110, 199, 111, -1,
      111, 199, 113, -1,
      111, 113, 20, -1,
      131, 192, 1, -1,
      200, 201, 187, -1,
      187, 201, 202, -1,
      187, 202, 188, -1,
      188, 202, 203, -1,
      188, 203, 193, -1,
      204, 191, 205, -1,
      205, 191, 190, -1,
      205, 190, 206, -1,
      206, 190, 192, -1,
      206, 192, 207, -1,
      185, 200, 186, -1,
      186, 200, 187, -1,
      186, 187, 208, -1,
      208, 187, 189, -1,
      208, 189, 209, -1,
      209, 189, 1, -1,
      131, 129, 192, -1,
      192, 129, 127, -1,
      192, 127, 207, -1,
      207, 127, 125, -1,
      207, 125, 123, -1,
      210, 204, 211, -1,
      211, 204, 205, -1,
      211, 205, 212, -1,
      212, 205, 206, -1,
      212, 206, 213, -1,
      213, 206, 207, -1,
      213, 207, 214, -1,
      214, 207, 123, -1,
      183, 210, 215, -1,
      215, 210, 211, -1,
      215, 211, 216, -1,
      216, 211, 212, -1,
      216, 212, 217, -1,
      217, 212, 213, -1,
      217, 213, 218, -1,
      218, 213, 214, -1,
      218, 214, 219, -1,
      182, 184, 183, -1,
      183, 184, 186, -1,
      183, 186, 210, -1,
      210, 186, 208, -1,
      210, 208, 204, -1,
      204, 208, 209, -1,
      204, 209, 191, -1,
      191, 209, 1, -1,
      101, 23, 194, -1,
      194, 23, 220, -1,
      194, 220, 181, -1,
      123, 121, 214, -1,
      214, 121, 119, -1,
      214, 119, 219, -1,
      219, 119, 117, -1,
      219, 117, 115, -1,
      181, 183, 194, -1,
      194, 183, 215, -1,
      194, 215, 195, -1,
      195, 215, 216, -1,
      195, 216, 196, -1,
      196, 216, 217, -1,
      196, 217, 197, -1,
      197, 217, 218, -1,
      197, 218, 198, -1,
      198, 218, 219, -1,
      198, 219, 199, -1,
      199, 219, 115, -1,
      199, 115, 113, -1,
      221, 222, 223, -1,
      221, 155, 224, -1,
      224, 155, 154, -1,
      224, 154, 147, -1,
      28, 30, 70, -1,
      70, 30, 224, -1,
      70, 224, 68, -1,
      68, 224, 147, -1,
      68, 147, 2, -1,
      2, 147, 0, -1,
      225, 26, 27, -1,
      27, 146, 225, -1,
      225, 146, 171, -1,
      225, 171, 226, -1,
      226, 171, 170, -1,
      226, 170, 227, -1,
      227, 170, 169, -1,
      227, 169, 228, -1,
      228, 169, 168, -1,
      228, 168, 223, -1,
      223, 168, 157, -1,
      223, 157, 221, -1,
      221, 157, 156, -1,
      221, 156, 155, -1,
      180, 14, 26, -1,
      26, 225, 180, -1,
      180, 225, 226, -1,
      180, 226, 179, -1,
      179, 226, 227, -1,
      179, 227, 178, -1,
      178, 227, 228, -1,
      178, 228, 177, -1,
      177, 228, 223, -1,
      177, 223, 176, -1,
      176, 223, 222, -1,
      176, 222, 229, -1,
      172, 173, 230, -1,
      230, 173, 174, -1,
      230, 174, 229, -1,
      229, 174, 175, -1,
      229, 175, 176, -1,
      230, 231, 172, -1,
      172, 231, 232, -1,
      172, 232, 11, -1,
      11, 232, 233, -1,
      11, 233, 24, -1,
      234, 235, 236, -1,
      237, 238, 200, -1,
      200, 238, 234, -1,
      200, 234, 201, -1,
      201, 234, 236, -1,
      201, 236, 202, -1,
      200, 185, 237, -1,
      237, 185, 184, -1,
      237, 184, 239, -1,
      239, 184, 240, -1,
      184, 182, 240, -1,
      240, 182, 181, -1,
      240, 181, 22, -1,
      22, 181, 220, -1,
      22, 220, 23, -1,
      31, 29, 241, -1,
      241, 29, 71, -1,
      3, 1, 69, -1,
      69, 1, 193, -1,
      71, 69, 241, -1,
      241, 69, 193, -1,
      241, 193, 236, -1,
      236, 193, 203, -1,
      236, 203, 202, -1,
      236, 235, 242, -1,
      30, 31, 241, -1,
      229, 222, 221, -1,
      30, 241, 224, -1,
      224, 241, 236, -1,
      224, 236, 221, -1,
      221, 236, 242, -1,
      221, 242, 229, -1,
      229, 242, 243, -1,
      229, 243, 230, -1,
      230, 243, 231, -1,
      231, 243, 244, -1,
      231, 244, 232, -1,
      232, 244, 245, -1,
      232, 245, 233, -1,
      245, 246, 233, -1,
      233, 246, 25, -1,
      233, 25, 24, -1,
      247, 8, 25, -1,
      25, 246, 247, -1,
      247, 246, 245, -1,
      247, 245, 248, -1,
      248, 245, 244, -1,
      248, 244, 249, -1,
      249, 244, 243, -1,
      249, 243, 250, -1,
      250, 243, 242, -1,
      250, 242, 251, -1,
      251, 242, 235, -1,
      251, 235, 234, -1,
      238, 237, 252, -1,
      252, 253, 238, -1,
      238, 253, 254, -1,
      238, 254, 234, -1,
      234, 254, 255, -1,
      234, 255, 251, -1,
      22, 17, 240, -1,
      240, 17, 252, -1,
      240, 252, 239, -1,
      239, 252, 237, -1,
      17, 16, 36, -1,
      17, 36, 252, -1,
      252, 36, 33, -1,
      252, 33, 253, -1,
      253, 33, 32, -1,
      253, 32, 254, -1,
      254, 32, 45, -1,
      254, 45, 255, -1,
      255, 45, 46, -1,
      255, 46, 251, -1,
      251, 46, 250, -1,
      250, 46, 44, -1,
      250, 44, 249, -1,
      249, 44, 43, -1,
      249, 43, 248, -1,
      248, 43, 34, -1,
      248, 34, 247, -1,
      34, 35, 247, -1,
      247, 35, 9, -1,
      247, 9, 8, -1,
    ]
  }
}
