#VRML V2.0 utf8

Shape {
  appearance Appearance {
    material Material {
      diffuseColor 1.0000 1.0000 1.0000
      specularColor 0.5020 0.5020 0.5020
      ambientIntensity 0.2
      transparency 0.0000
      shininess 0.5
    }
  }
  geometry IndexedFaceSet {
    ccw TRUE
    solid FALSE
    coord DEF co Coordinate {
      point [
        0.231385 0.132971 0.217222,
        0.231385 -0.132971 0.217222,
        0.236220 0.137807 0.078740,
        0.236220 -0.137807 0.078740,
        -0.211711 0.152644 0.217222,
        0.211711 0.152644 0.217222,
        -0.216547 0.157480 0.078740,
        0.216547 0.157480 0.078740,
        -0.236220 0.137807 0.078740,
        -0.236220 -0.137807 0.078740,
        -0.231385 0.132971 0.217222,
        -0.231385 -0.132971 0.217222,
        0.211711 -0.152644 0.217222,
        -0.211711 -0.152644 0.217222,
        0.216547 -0.157480 0.078740,
        -0.216547 -0.157480 0.078740,
        0.211711 -0.132971 0.236220,
        0.211711 0.132971 0.236220,
        -0.211711 -0.132971 0.236220,
        -0.211711 0.132971 0.236220,
        -0.226386 0.154845 0.078740,
        -0.224078 0.155983 0.078740,
        -0.234723 0.145338 0.078740,
        0.221641 0.156810 0.078740,
        0.234723 0.145338 0.078740,
        0.235550 0.142900 0.078740,
        0.226386 -0.154845 0.078740,
        0.224078 -0.155983 0.078740,
        0.234723 -0.145338 0.078740,
        0.221641 -0.156810 0.078740,
        -0.221641 0.156810 0.078740,
        -0.235550 0.142900 0.078740,
        -0.221641 -0.156810 0.078740,
        -0.234723 -0.145338 0.078740,
        -0.235550 -0.142900 0.078740,
        -0.224078 -0.155983 0.078740,
        -0.226386 -0.154845 0.078740,
        -0.233585 -0.147646 0.078740,
        0.235550 -0.142900 0.078740,
        0.224078 0.155983 0.078740,
        0.226386 0.154845 0.078740,
        0.233585 0.147646 0.078740,
        0.228525 0.153416 0.078740,
        0.232156 0.149785 0.078740,
        0.230460 0.151720 0.078740,
        -0.233585 0.147646 0.078740,
        -0.232156 0.149785 0.078740,
        -0.228525 0.153416 0.078740,
        -0.230460 0.151720 0.078740,
        -0.232156 -0.149785 0.078740,
        -0.228525 -0.153416 0.078740,
        -0.230460 -0.151720 0.078740,
        0.233585 -0.147646 0.078740,
        0.232156 -0.149785 0.078740,
        0.228525 -0.153416 0.078740,
        0.230460 -0.151720 0.078740,
        -0.230709 0.138059 0.217376,
        -0.228741 0.142801 0.217473,
        -0.225614 0.146874 0.217506,
        -0.221541 0.150001 0.217473,
        -0.216800 0.151969 0.217376,
        0.211711 0.151872 0.222036,
        -0.211711 0.151872 0.222036,
        0.211711 0.151812 0.222174,
        -0.211711 0.151812 0.222174,
        0.211711 0.149848 0.226669,
        -0.211711 0.149848 0.226669,
        0.211711 0.149774 0.226763,
        -0.211711 0.149774 0.226763,
        0.211711 0.146711 0.230633,
        -0.211711 0.146711 0.230633,
        0.211711 0.146639 0.230687,
        -0.211711 0.146639 0.230687,
        0.211711 0.142668 0.233667,
        -0.211711 0.142668 0.233667,
        0.211711 0.142612 0.233689,
        -0.211711 0.142612 0.233689,
        0.211711 0.137985 0.235571,
        -0.211711 0.137985 0.235571,
        0.211711 0.137955 0.235575,
        -0.211711 0.137955 0.235575,
        0.216800 0.151969 0.217376,
        0.221541 0.150001 0.217473,
        0.225614 0.146874 0.217506,
        0.228741 0.142801 0.217473,
        0.230709 0.138059 0.217376,
        -0.228514 0.132971 0.226763,
        -0.225451 0.132971 0.230633,
        -0.224983 0.136528 0.230633,
        -0.221077 0.135481 0.233667,
        -0.216554 0.134269 0.235571,
        -0.216053 0.135478 0.235571,
        -0.214218 0.137313 0.235571,
        -0.215257 0.136517 0.235571,
        -0.213009 0.137814 0.235571,
        -0.216695 0.132971 0.235575,
        -0.229969 0.137863 0.222036,
        -0.228080 0.142422 0.222036,
        -0.225076 0.146336 0.222036,
        -0.221162 0.149340 0.222036,
        -0.216604 0.151228 0.222036,
        -0.225379 0.132971 0.230687,
        -0.221408 0.132971 0.233667,
        -0.221352 0.132971 0.233689,
        -0.216725 0.132971 0.235571,
        -0.220109 0.137819 0.233667,
        -0.218568 0.139828 0.233667,
        -0.216559 0.141369 0.233667,
        -0.214221 0.142337 0.233667,
        -0.223610 0.139841 0.230633,
        -0.221427 0.142687 0.230633,
        -0.218581 0.144870 0.230633,
        -0.215268 0.146243 0.230633,
        -0.230552 0.132971 0.222174,
        -0.228588 0.132971 0.226669,
        -0.228013 0.137339 0.226669,
        -0.226327 0.141410 0.226669,
        -0.223645 0.144905 0.226669,
        -0.220150 0.147587 0.226669,
        -0.216080 0.149273 0.226669,
        -0.230612 0.132971 0.222036,
        0.215268 0.146243 0.230633,
        0.214221 0.142337 0.233667,
        0.213009 0.137814 0.235571,
        0.214218 0.137313 0.235571,
        0.216053 0.135478 0.235571,
        0.215257 0.136517 0.235571,
        0.216554 0.134269 0.235571,
        0.216604 0.151228 0.222036,
        0.221162 0.149340 0.222036,
        0.225076 0.146336 0.222036,
        0.228080 0.142422 0.222036,
        0.229969 0.137863 0.222036,
        0.230612 0.132971 0.222036,
        0.216695 0.132971 0.235575,
        0.216559 0.141369 0.233667,
        0.218568 0.139828 0.233667,
        0.220109 0.137819 0.233667,
        0.221077 0.135481 0.233667,
        0.216725 0.132971 0.235571,
        0.221352 0.132971 0.233689,
        0.221408 0.132971 0.233667,
        0.225379 0.132971 0.230687,
        0.218581 0.144870 0.230633,
        0.221427 0.142687 0.230633,
        0.223610 0.139841 0.230633,
        0.224983 0.136528 0.230633,
        0.216080 0.149273 0.226669,
        0.220150 0.147587 0.226669,
        0.223645 0.144905 0.226669,
        0.226327 0.141410 0.226669,
        0.228013 0.137339 0.226669,
        0.225451 0.132971 0.230633,
        0.228514 0.132971 0.226763,
        0.228588 0.132971 0.226669,
        0.230552 0.132971 0.222174,
        -0.216800 -0.151969 0.217376,
        -0.221541 -0.150001 0.217473,
        -0.225614 -0.146874 0.217506,
        -0.228741 -0.142801 0.217473,
        -0.230709 -0.138059 0.217376,
        -0.230612 -0.132971 0.222036,
        -0.230552 -0.132971 0.222174,
        -0.228588 -0.132971 0.226669,
        -0.228514 -0.132971 0.226763,
        -0.225451 -0.132971 0.230633,
        -0.225379 -0.132971 0.230687,
        -0.221408 -0.132971 0.233667,
        -0.221352 -0.132971 0.233689,
        -0.216725 -0.132971 0.235571,
        -0.216695 -0.132971 0.235575,
        0.230612 -0.132971 0.222036,
        0.230552 -0.132971 0.222174,
        0.228588 -0.132971 0.226669,
        0.228514 -0.132971 0.226763,
        0.225451 -0.132971 0.230633,
        0.225379 -0.132971 0.230687,
        0.221408 -0.132971 0.233667,
        0.221352 -0.132971 0.233689,
        0.216725 -0.132971 0.235571,
        0.216695 -0.132971 0.235575,
        0.230805 -0.137337 0.217355,
        0.230709 -0.138059 0.217376,
        0.229302 -0.141451 0.217446,
        0.228741 -0.142801 0.217473,
        0.226953 -0.145130 0.217492,
        0.225614 -0.146874 0.217506,
        0.223870 -0.148213 0.217492,
        0.221541 -0.150001 0.217473,
        0.220191 -0.150561 0.217446,
        0.216077 -0.152065 0.217355,
        0.216800 -0.151969 0.217376,
        -0.211711 -0.149774 0.226763,
        -0.211711 -0.146711 0.230633,
        -0.215268 -0.146243 0.230633,
        -0.214221 -0.142337 0.233667,
        -0.213009 -0.137814 0.235571,
        -0.214218 -0.137313 0.235571,
        -0.216053 -0.135478 0.235571,
        -0.215257 -0.136517 0.235571,
        -0.216554 -0.134269 0.235571,
        -0.211711 -0.137955 0.235575,
        -0.216604 -0.151228 0.222036,
        -0.221162 -0.149340 0.222036,
        -0.225076 -0.146336 0.222036,
        -0.228080 -0.142422 0.222036,
        -0.229969 -0.137863 0.222036,
        -0.211711 -0.146639 0.230687,
        -0.211711 -0.142668 0.233667,
        -0.211711 -0.142612 0.233689,
        -0.211711 -0.137985 0.235571,
        -0.216559 -0.141369 0.233667,
        -0.218568 -0.139828 0.233667,
        -0.220109 -0.137819 0.233667,
        -0.221077 -0.135481 0.233667,
        -0.218581 -0.144870 0.230633,
        -0.221427 -0.142687 0.230633,
        -0.223610 -0.139841 0.230633,
        -0.224983 -0.136528 0.230633,
        -0.211711 -0.151812 0.222174,
        -0.211711 -0.149848 0.226669,
        -0.216080 -0.149273 0.226669,
        -0.220150 -0.147587 0.226669,
        -0.223645 -0.144905 0.226669,
        -0.226327 -0.141410 0.226669,
        -0.228013 -0.137339 0.226669,
        -0.211711 -0.151872 0.222036,
        0.228165 -0.136727 0.226669,
        0.225107 -0.136029 0.230633,
        0.221165 -0.135129 0.233667,
        0.216599 -0.134087 0.235571,
        0.216228 -0.135146 0.235571,
        0.213887 -0.137488 0.235571,
        0.214837 -0.136891 0.235571,
        0.212827 -0.137859 0.235571,
        0.230139 -0.137177 0.222036,
        0.228741 -0.141172 0.222036,
        0.226489 -0.144756 0.222036,
        0.223496 -0.147749 0.222036,
        0.219912 -0.150000 0.222036,
        0.215917 -0.151398 0.222036,
        0.211711 -0.151872 0.222036,
        0.211711 -0.137955 0.235575,
        0.219292 -0.139017 0.233667,
        0.217757 -0.140552 0.233667,
        0.215919 -0.141707 0.233667,
        0.213869 -0.142424 0.233667,
        0.220448 -0.137178 0.233667,
        0.215631 -0.136097 0.235571,
        0.211711 -0.137985 0.235571,
        0.211711 -0.142612 0.233689,
        0.211711 -0.142668 0.233667,
        0.211711 -0.146639 0.230687,
        0.224090 -0.138933 0.230633,
        0.222454 -0.141538 0.230633,
        0.220278 -0.143713 0.230633,
        0.217673 -0.145350 0.230633,
        0.214769 -0.146367 0.230633,
        0.226917 -0.140294 0.226669,
        0.224906 -0.143494 0.226669,
        0.222234 -0.146166 0.226669,
        0.219034 -0.148177 0.226669,
        0.215467 -0.149425 0.226669,
        0.211711 -0.146711 0.230633,
        0.211711 -0.149774 0.226763,
        0.211711 -0.149848 0.226669,
        0.211711 -0.151812 0.222174,
        -0.010007 -0.010435 0.000000,
        -0.010007 -0.012595 0.000000,
        -0.011928 -0.012715 0.000000,
        0.000555 -0.012595 0.000000,
        -0.009528 0.004929 0.000000,
        -0.002085 0.004929 0.000000,
        -0.002085 -0.001552 0.000000,
        0.004396 -0.011575 0.000000,
        0.004396 -0.009415 0.000000,
        0.000555 0.007090 0.000000,
        -0.002085 -0.003713 0.000000,
        -0.002085 -0.010435 0.000000,
        -0.009047 -0.003713 0.000000,
        -0.009047 -0.001552 0.000000,
        0.014146 -0.011927 0.000000,
        0.020720 -0.012595 0.000000,
        0.012238 -0.012584 0.000000,
        0.010970 -0.012715 0.000000,
        -0.009528 0.007090 0.000000,
        -0.011928 0.157480 0.000000,
        0.018001 0.001905 0.000000,
        0.016847 0.003745 0.000000,
        0.028162 0.007090 0.000000,
        0.010944 0.004952 0.000000,
        0.012418 0.004420 0.000000,
        0.004749 -0.009610 0.000000,
        0.013780 0.003508 0.000000,
        0.014969 0.002196 0.000000,
        0.016399 -0.002963 0.000000,
        0.016200 -0.005094 0.000000,
        0.015665 -0.006787 0.000000,
        0.011285 -0.010469 0.000000,
        0.009448 -0.010675 0.000000,
        0.012719 -0.009941 0.000000,
        0.013927 -0.009126 0.000000,
        0.014851 -0.008152 0.000000,
        0.006835 -0.010385 0.000000,
        0.015781 0.000676 0.000000,
        0.016305 -0.001431 0.000000,
        0.015070 0.005455 0.000000,
        0.030803 0.007090 0.000000,
        0.314961 0.157480 0.000000,
        0.030803 -0.012595 0.000000,
        0.314961 -0.012715 0.000000,
        0.015730 -0.010916 0.000000,
        0.017208 -0.009359 0.000000,
        0.020720 -0.010435 0.000000,
        0.018257 -0.007487 0.000000,
        0.028162 -0.010435 0.000000,
        0.018850 -0.005404 0.000000,
        0.019040 -0.003124 0.000000,
        0.018757 -0.000326 0.000000,
        0.013200 0.006531 0.000000,
        0.011006 0.007169 0.000000,
        0.009028 0.007330 0.000000,
        0.006672 0.007167 0.000000,
        0.004396 0.006550 0.000000,
        0.004396 0.003909 0.000000,
        0.006613 0.004858 0.000000,
        0.009006 0.005169 0.000000,
        0.009813 -0.012835 0.000000,
        0.314961 -0.157480 0.000000,
        0.009274 -0.012826 0.000000,
        -0.011928 -0.157480 0.000000,
        0.008483 -0.012715 0.000000,
        -0.314961 -0.157480 0.000000,
        -0.314961 -0.012715 0.000000,
        0.006494 -0.012437 0.000000,
        -0.034014 -0.012595 0.000000,
        -0.031133 -0.012595 0.000000,
        -0.028710 -0.007200 0.000000,
        -0.027581 -0.008961 0.000000,
        -0.025961 -0.010512 0.000000,
        -0.023905 -0.011707 0.000000,
        -0.038575 0.007090 0.000000,
        -0.314961 0.157480 0.000000,
        -0.041216 0.007090 0.000000,
        -0.048898 -0.012595 0.000000,
        -0.046017 -0.012595 0.000000,
        -0.044025 -0.007074 0.000000,
        -0.035893 -0.007074 0.000000,
        -0.013848 0.007090 0.000000,
        -0.019404 0.007090 0.000000,
        -0.026714 0.004523 0.000000,
        -0.028106 0.002980 0.000000,
        -0.029021 0.001287 0.000000,
        -0.022248 0.006786 0.000000,
        -0.024551 0.005977 0.000000,
        -0.026693 0.004541 0.000000,
        -0.021637 -0.012383 0.000000,
        -0.019201 -0.012595 0.000000,
        -0.013848 -0.012595 0.000000,
        -0.029550 -0.000653 0.000000,
        -0.029693 -0.002505 0.000000,
        -0.029417 -0.005140 0.000000,
        0.314961 0.157480 0.078740,
        0.314961 -0.157480 0.078740,
        -0.314961 0.157480 0.078740,
        -0.314961 -0.157480 0.078740,
        0.056976 0.053528 0.078740,
        -0.056976 0.053528 0.078740,
        -0.056976 -0.053528 0.078740,
        0.056976 -0.053528 0.078740,
      ]
    }
    coordIndex [
      0, 1, 2, -1,
      2, 1, 3, -1,
      4, 5, 6, -1,
      6, 5, 7, -1,
      8, 9, 10, -1,
      10, 9, 11, -1,
      12, 13, 14, -1,
      14, 13, 15, -1,
      16, 17, 18, -1,
      18, 17, 19, -1,
      6, 7, 2, -1,
      14, 15, 9, -1,
      20, 21, 22, -1,
      23, 24, 7, -1,
      7, 24, 25, -1,
      7, 25, 2, -1,
      26, 27, 28, -1,
      29, 14, 3, -1,
      3, 14, 9, -1,
      3, 9, 2, -1,
      2, 9, 8, -1,
      2, 8, 6, -1,
      6, 8, 30, -1,
      30, 8, 21, -1,
      21, 8, 31, -1,
      21, 31, 22, -1,
      32, 33, 15, -1,
      15, 33, 34, -1,
      15, 34, 9, -1,
      32, 35, 33, -1,
      33, 35, 36, -1,
      33, 36, 37, -1,
      29, 3, 27, -1,
      27, 3, 38, -1,
      27, 38, 28, -1,
      23, 39, 24, -1,
      24, 39, 40, -1,
      24, 40, 41, -1,
      41, 40, 42, -1,
      41, 42, 43, -1,
      43, 42, 44, -1,
      22, 45, 20, -1,
      20, 45, 46, -1,
      20, 46, 47, -1,
      47, 46, 48, -1,
      37, 36, 49, -1,
      49, 36, 50, -1,
      49, 50, 51, -1,
      28, 52, 26, -1,
      26, 52, 53, -1,
      26, 53, 54, -1,
      54, 53, 55, -1,
      10, 56, 8, -1,
      8, 56, 31, -1,
      31, 56, 22, -1,
      22, 56, 57, -1,
      22, 57, 45, -1,
      45, 57, 46, -1,
      46, 57, 58, -1,
      46, 58, 48, -1,
      48, 58, 47, -1,
      47, 58, 59, -1,
      47, 59, 20, -1,
      20, 59, 21, -1,
      21, 59, 60, -1,
      21, 60, 30, -1,
      30, 60, 4, -1,
      30, 4, 6, -1,
      5, 4, 61, -1,
      61, 4, 62, -1,
      61, 62, 63, -1,
      63, 62, 64, -1,
      63, 64, 65, -1,
      65, 64, 66, -1,
      65, 66, 67, -1,
      67, 66, 68, -1,
      67, 68, 69, -1,
      69, 68, 70, -1,
      69, 70, 71, -1,
      71, 70, 72, -1,
      71, 72, 73, -1,
      73, 72, 74, -1,
      73, 74, 75, -1,
      75, 74, 76, -1,
      75, 76, 77, -1,
      77, 76, 78, -1,
      77, 78, 79, -1,
      78, 80, 79, -1,
      79, 80, 19, -1,
      79, 19, 17, -1,
      5, 81, 7, -1,
      7, 81, 23, -1,
      23, 81, 39, -1,
      39, 81, 82, -1,
      39, 82, 40, -1,
      40, 82, 42, -1,
      42, 82, 83, -1,
      42, 83, 44, -1,
      44, 83, 43, -1,
      43, 83, 84, -1,
      43, 84, 41, -1,
      41, 84, 24, -1,
      24, 84, 85, -1,
      24, 85, 25, -1,
      25, 85, 0, -1,
      25, 0, 2, -1,
      86, 87, 88, -1,
      89, 90, 91, -1,
      19, 92, 93, -1,
      94, 92, 19, -1,
      91, 90, 19, -1,
      95, 19, 90, -1,
      56, 96, 97, -1,
      56, 97, 57, -1,
      57, 97, 98, -1,
      57, 98, 58, -1,
      58, 98, 99, -1,
      58, 99, 59, -1,
      59, 99, 100, -1,
      59, 100, 60, -1,
      60, 100, 62, -1,
      60, 62, 4, -1,
      80, 94, 19, -1,
      101, 102, 89, -1,
      89, 102, 103, -1,
      89, 103, 90, -1,
      90, 103, 104, -1,
      90, 104, 95, -1,
      105, 93, 106, -1,
      106, 93, 92, -1,
      106, 92, 107, -1,
      107, 92, 94, -1,
      107, 94, 108, -1,
      80, 78, 94, -1,
      94, 78, 76, -1,
      94, 76, 108, -1,
      108, 76, 74, -1,
      108, 74, 72, -1,
      88, 105, 109, -1,
      109, 105, 106, -1,
      109, 106, 110, -1,
      110, 106, 107, -1,
      110, 107, 111, -1,
      111, 107, 108, -1,
      111, 108, 112, -1,
      112, 108, 72, -1,
      113, 114, 115, -1,
      115, 114, 86, -1,
      86, 88, 115, -1,
      115, 88, 109, -1,
      115, 109, 116, -1,
      116, 109, 110, -1,
      116, 110, 117, -1,
      117, 110, 111, -1,
      117, 111, 118, -1,
      118, 111, 112, -1,
      118, 112, 119, -1,
      87, 101, 88, -1,
      88, 101, 89, -1,
      88, 89, 105, -1,
      105, 89, 91, -1,
      105, 91, 93, -1,
      93, 91, 19, -1,
      56, 10, 96, -1,
      96, 10, 120, -1,
      96, 120, 113, -1,
      72, 70, 112, -1,
      112, 70, 68, -1,
      112, 68, 119, -1,
      119, 68, 66, -1,
      119, 66, 64, -1,
      113, 115, 96, -1,
      96, 115, 116, -1,
      96, 116, 97, -1,
      97, 116, 117, -1,
      97, 117, 98, -1,
      98, 117, 118, -1,
      98, 118, 99, -1,
      99, 118, 119, -1,
      99, 119, 100, -1,
      100, 119, 64, -1,
      100, 64, 62, -1,
      67, 69, 121, -1,
      122, 123, 124, -1,
      17, 125, 126, -1,
      127, 125, 17, -1,
      124, 123, 17, -1,
      79, 17, 123, -1,
      81, 128, 129, -1,
      81, 129, 82, -1,
      82, 129, 130, -1,
      82, 130, 83, -1,
      83, 130, 131, -1,
      83, 131, 84, -1,
      84, 131, 132, -1,
      84, 132, 85, -1,
      85, 132, 133, -1,
      85, 133, 0, -1,
      134, 127, 17, -1,
      71, 73, 122, -1,
      122, 73, 75, -1,
      122, 75, 123, -1,
      123, 75, 77, -1,
      123, 77, 79, -1,
      135, 126, 136, -1,
      136, 126, 125, -1,
      136, 125, 137, -1,
      137, 125, 127, -1,
      137, 127, 138, -1,
      134, 139, 127, -1,
      127, 139, 140, -1,
      127, 140, 138, -1,
      138, 140, 141, -1,
      138, 141, 142, -1,
      121, 135, 143, -1,
      143, 135, 136, -1,
      143, 136, 144, -1,
      144, 136, 137, -1,
      144, 137, 145, -1,
      145, 137, 138, -1,
      145, 138, 146, -1,
      146, 138, 142, -1,
      63, 65, 147, -1,
      147, 65, 67, -1,
      67, 121, 147, -1,
      147, 121, 143, -1,
      147, 143, 148, -1,
      148, 143, 144, -1,
      148, 144, 149, -1,
      149, 144, 145, -1,
      149, 145, 150, -1,
      150, 145, 146, -1,
      150, 146, 151, -1,
      69, 71, 121, -1,
      121, 71, 122, -1,
      121, 122, 135, -1,
      135, 122, 124, -1,
      135, 124, 126, -1,
      126, 124, 17, -1,
      81, 5, 128, -1,
      128, 5, 61, -1,
      128, 61, 63, -1,
      142, 152, 146, -1,
      146, 152, 153, -1,
      146, 153, 151, -1,
      151, 153, 154, -1,
      151, 154, 155, -1,
      63, 147, 128, -1,
      128, 147, 148, -1,
      128, 148, 129, -1,
      129, 148, 149, -1,
      129, 149, 130, -1,
      130, 149, 150, -1,
      130, 150, 131, -1,
      131, 150, 151, -1,
      131, 151, 132, -1,
      132, 151, 155, -1,
      132, 155, 133, -1,
      13, 156, 15, -1,
      15, 156, 32, -1,
      32, 156, 35, -1,
      35, 156, 157, -1,
      35, 157, 36, -1,
      36, 157, 50, -1,
      50, 157, 158, -1,
      50, 158, 51, -1,
      51, 158, 49, -1,
      49, 158, 159, -1,
      49, 159, 37, -1,
      37, 159, 33, -1,
      33, 159, 160, -1,
      33, 160, 34, -1,
      34, 160, 11, -1,
      34, 11, 9, -1,
      10, 11, 120, -1,
      120, 11, 161, -1,
      120, 161, 113, -1,
      113, 161, 162, -1,
      113, 162, 114, -1,
      114, 162, 163, -1,
      114, 163, 86, -1,
      86, 163, 164, -1,
      86, 164, 87, -1,
      87, 164, 165, -1,
      87, 165, 101, -1,
      101, 165, 166, -1,
      101, 166, 102, -1,
      102, 166, 167, -1,
      102, 167, 103, -1,
      103, 167, 168, -1,
      103, 168, 104, -1,
      104, 168, 169, -1,
      104, 169, 95, -1,
      169, 170, 95, -1,
      95, 170, 18, -1,
      95, 18, 19, -1,
      1, 0, 171, -1,
      171, 0, 133, -1,
      171, 133, 172, -1,
      172, 133, 155, -1,
      172, 155, 173, -1,
      173, 155, 154, -1,
      173, 154, 174, -1,
      174, 154, 153, -1,
      174, 153, 175, -1,
      175, 153, 152, -1,
      175, 152, 176, -1,
      176, 152, 142, -1,
      176, 142, 177, -1,
      177, 142, 141, -1,
      177, 141, 178, -1,
      178, 141, 140, -1,
      178, 140, 179, -1,
      179, 140, 139, -1,
      179, 139, 180, -1,
      139, 134, 180, -1,
      180, 134, 17, -1,
      180, 17, 16, -1,
      3, 1, 181, -1,
      3, 181, 38, -1,
      38, 181, 182, -1,
      38, 182, 28, -1,
      28, 182, 183, -1,
      28, 183, 52, -1,
      52, 183, 184, -1,
      52, 184, 53, -1,
      53, 184, 185, -1,
      53, 185, 55, -1,
      55, 185, 186, -1,
      55, 186, 54, -1,
      54, 186, 187, -1,
      54, 187, 26, -1,
      26, 187, 188, -1,
      26, 188, 27, -1,
      27, 188, 189, -1,
      27, 189, 29, -1,
      12, 14, 190, -1,
      190, 14, 29, -1,
      190, 29, 191, -1,
      191, 29, 189, -1,
      192, 193, 194, -1,
      195, 196, 197, -1,
      18, 198, 199, -1,
      200, 198, 18, -1,
      197, 196, 18, -1,
      201, 18, 196, -1,
      156, 202, 203, -1,
      156, 203, 157, -1,
      157, 203, 204, -1,
      157, 204, 158, -1,
      158, 204, 205, -1,
      158, 205, 159, -1,
      159, 205, 206, -1,
      159, 206, 160, -1,
      160, 206, 161, -1,
      160, 161, 11, -1,
      170, 200, 18, -1,
      207, 208, 195, -1,
      195, 208, 209, -1,
      195, 209, 196, -1,
      196, 209, 210, -1,
      196, 210, 201, -1,
      211, 199, 212, -1,
      212, 199, 198, -1,
      212, 198, 213, -1,
      213, 198, 200, -1,
      213, 200, 214, -1,
      170, 169, 200, -1,
      200, 169, 168, -1,
      200, 168, 214, -1,
      214, 168, 167, -1,
      214, 167, 166, -1,
      194, 211, 215, -1,
      215, 211, 212, -1,
      215, 212, 216, -1,
      216, 212, 213, -1,
      216, 213, 217, -1,
      217, 213, 214, -1,
      217, 214, 218, -1,
      218, 214, 166, -1,
      219, 220, 221, -1,
      221, 220, 192, -1,
      192, 194, 221, -1,
      221, 194, 215, -1,
      221, 215, 222, -1,
      222, 215, 216, -1,
      222, 216, 223, -1,
      223, 216, 217, -1,
      223, 217, 224, -1,
      224, 217, 218, -1,
      224, 218, 225, -1,
      193, 207, 194, -1,
      194, 207, 195, -1,
      194, 195, 211, -1,
      211, 195, 197, -1,
      211, 197, 199, -1,
      199, 197, 18, -1,
      156, 13, 202, -1,
      202, 13, 226, -1,
      202, 226, 219, -1,
      166, 165, 218, -1,
      218, 165, 164, -1,
      218, 164, 225, -1,
      225, 164, 163, -1,
      225, 163, 162, -1,
      219, 221, 202, -1,
      202, 221, 222, -1,
      202, 222, 203, -1,
      203, 222, 223, -1,
      203, 223, 204, -1,
      204, 223, 224, -1,
      204, 224, 205, -1,
      205, 224, 225, -1,
      205, 225, 206, -1,
      206, 225, 162, -1,
      206, 162, 161, -1,
      172, 173, 227, -1,
      174, 175, 228, -1,
      229, 230, 231, -1,
      16, 232, 233, -1,
      234, 232, 16, -1,
      231, 230, 16, -1,
      180, 16, 230, -1,
      181, 235, 182, -1,
      182, 235, 236, -1,
      182, 236, 183, -1,
      183, 236, 184, -1,
      184, 236, 237, -1,
      184, 237, 185, -1,
      185, 237, 186, -1,
      186, 237, 238, -1,
      186, 238, 187, -1,
      187, 238, 188, -1,
      188, 238, 239, -1,
      188, 239, 189, -1,
      189, 239, 191, -1,
      191, 239, 240, -1,
      191, 240, 190, -1,
      190, 240, 241, -1,
      190, 241, 12, -1,
      242, 234, 16, -1,
      176, 177, 229, -1,
      229, 177, 178, -1,
      229, 178, 230, -1,
      230, 178, 179, -1,
      230, 179, 180, -1,
      243, 233, 244, -1,
      244, 233, 232, -1,
      244, 232, 245, -1,
      245, 232, 234, -1,
      245, 234, 246, -1,
      175, 176, 228, -1,
      228, 176, 229, -1,
      228, 229, 247, -1,
      247, 229, 231, -1,
      247, 231, 248, -1,
      248, 231, 16, -1,
      242, 249, 234, -1,
      234, 249, 250, -1,
      234, 250, 246, -1,
      246, 250, 251, -1,
      246, 251, 252, -1,
      253, 243, 254, -1,
      254, 243, 244, -1,
      254, 244, 255, -1,
      255, 244, 245, -1,
      255, 245, 256, -1,
      256, 245, 246, -1,
      256, 246, 257, -1,
      257, 246, 252, -1,
      227, 253, 258, -1,
      258, 253, 254, -1,
      258, 254, 259, -1,
      259, 254, 255, -1,
      259, 255, 260, -1,
      260, 255, 256, -1,
      260, 256, 261, -1,
      261, 256, 257, -1,
      261, 257, 262, -1,
      173, 174, 227, -1,
      227, 174, 228, -1,
      227, 228, 253, -1,
      253, 228, 247, -1,
      253, 247, 243, -1,
      243, 247, 248, -1,
      243, 248, 233, -1,
      233, 248, 16, -1,
      181, 1, 235, -1,
      235, 1, 171, -1,
      235, 171, 172, -1,
      252, 263, 257, -1,
      257, 263, 264, -1,
      257, 264, 262, -1,
      262, 264, 265, -1,
      262, 265, 266, -1,
      172, 227, 235, -1,
      235, 227, 258, -1,
      235, 258, 236, -1,
      236, 258, 259, -1,
      236, 259, 237, -1,
      237, 259, 260, -1,
      237, 260, 238, -1,
      238, 260, 261, -1,
      238, 261, 239, -1,
      239, 261, 262, -1,
      239, 262, 240, -1,
      240, 262, 266, -1,
      240, 266, 241, -1,
      13, 12, 226, -1,
      226, 12, 241, -1,
      226, 241, 219, -1,
      219, 241, 266, -1,
      219, 266, 220, -1,
      220, 266, 265, -1,
      220, 265, 192, -1,
      192, 265, 264, -1,
      192, 264, 193, -1,
      193, 264, 263, -1,
      193, 263, 207, -1,
      207, 263, 252, -1,
      207, 252, 208, -1,
      208, 252, 251, -1,
      208, 251, 209, -1,
      209, 251, 250, -1,
      209, 250, 210, -1,
      210, 250, 249, -1,
      210, 249, 201, -1,
      249, 242, 201, -1,
      201, 242, 16, -1,
      201, 16, 18, -1,
      267, 268, 269, -1,
      269, 268, 270, -1,
      271, 272, 273, -1,
      274, 270, 275, -1,
      275, 270, 276, -1,
      277, 278, 279, -1,
      279, 278, 267, -1,
      279, 267, 280, -1,
      281, 282, 283, -1,
      283, 282, 284, -1,
      273, 280, 271, -1,
      271, 280, 267, -1,
      271, 267, 285, -1,
      285, 267, 286, -1,
      285, 286, 276, -1,
      287, 288, 289, -1,
      290, 291, 292, -1,
      292, 291, 293, -1,
      292, 293, 294, -1,
      295, 296, 292, -1,
      292, 296, 297, -1,
      298, 299, 300, -1,
      300, 299, 301, -1,
      297, 302, 292, -1,
      292, 302, 301, -1,
      292, 301, 303, -1,
      303, 301, 299, -1,
      294, 304, 292, -1,
      292, 304, 305, -1,
      292, 305, 295, -1,
      288, 306, 289, -1,
      289, 306, 286, -1,
      289, 286, 307, -1,
      307, 286, 308, -1,
      307, 308, 309, -1,
      309, 308, 310, -1,
      281, 311, 282, -1,
      282, 311, 312, -1,
      282, 312, 313, -1,
      313, 312, 314, -1,
      313, 314, 315, -1,
      314, 316, 315, -1,
      315, 316, 317, -1,
      315, 317, 289, -1,
      289, 317, 318, -1,
      289, 318, 287, -1,
      306, 319, 286, -1,
      286, 319, 320, -1,
      286, 320, 321, -1,
      321, 322, 286, -1,
      286, 322, 323, -1,
      286, 323, 276, -1,
      276, 323, 324, -1,
      276, 324, 275, -1,
      275, 324, 325, -1,
      275, 325, 292, -1,
      292, 325, 326, -1,
      292, 326, 290, -1,
      282, 309, 284, -1,
      284, 309, 310, -1,
      284, 310, 327, -1,
      327, 310, 328, -1,
      327, 328, 329, -1,
      329, 328, 330, -1,
      329, 330, 331, -1,
      332, 333, 330, -1,
      330, 333, 269, -1,
      330, 269, 331, -1,
      331, 269, 270, -1,
      331, 270, 334, -1,
      334, 270, 274, -1,
      335, 336, 269, -1,
      337, 338, 336, -1,
      336, 338, 339, -1,
      336, 339, 340, -1,
      286, 341, 342, -1,
      342, 341, 343, -1,
      342, 343, 333, -1,
      333, 343, 344, -1,
      333, 344, 269, -1,
      269, 344, 345, -1,
      269, 345, 335, -1,
      335, 345, 346, -1,
      335, 346, 347, -1,
      267, 269, 286, -1,
      286, 269, 348, -1,
      286, 348, 349, -1,
      350, 351, 341, -1,
      341, 351, 352, -1,
      349, 353, 286, -1,
      286, 353, 354, -1,
      286, 354, 341, -1,
      341, 354, 355, -1,
      341, 355, 350, -1,
      340, 356, 336, -1,
      336, 356, 357, -1,
      336, 357, 269, -1,
      269, 357, 358, -1,
      269, 358, 348, -1,
      352, 359, 341, -1,
      341, 359, 360, -1,
      341, 360, 336, -1,
      336, 360, 361, -1,
      336, 361, 337, -1,
      308, 362, 310, -1,
      310, 362, 363, -1,
      310, 363, 328, -1,
      342, 364, 286, -1,
      286, 364, 362, -1,
      286, 362, 308, -1,
      364, 342, 365, -1,
      365, 342, 333, -1,
      365, 333, 332, -1,
      328, 363, 330, -1,
      330, 363, 365, -1,
      330, 365, 332, -1,
      366, 362, 367, -1,
      367, 362, 364, -1,
      367, 364, 368, -1,
      368, 364, 365, -1,
      368, 365, 369, -1,
      369, 365, 363, -1,
      369, 363, 366, -1,
      366, 363, 362, -1,
    ]
  }
}

Shape {
  appearance Appearance {
    material Material {
      diffuseColor 0.0000 0.0000 0.0000
      specularColor 0.0000 0.0000 0.0000
      ambientIntensity 0.2
      transparency 0.0000
      shininess 0.5
    }
  }
  geometry IndexedFaceSet {
    ccw TRUE
    solid FALSE
    coord DEF co Coordinate {
      point [
        -0.010007 -0.010435 0.000000,
        -0.010007 -0.012595 0.000000,
        0.000555 -0.012595 0.000000,
        -0.009528 0.004929 0.000000,
        -0.002085 0.004929 0.000000,
        -0.002085 -0.001552 0.000000,
        0.004396 -0.011575 0.000000,
        0.004396 -0.009415 0.000000,
        0.000555 0.007090 0.000000,
        -0.002085 -0.003713 0.000000,
        -0.002085 -0.010435 0.000000,
        -0.009047 -0.003713 0.000000,
        -0.009047 -0.001552 0.000000,
        0.014146 -0.011927 0.000000,
        0.020720 -0.012595 0.000000,
        0.012238 -0.012584 0.000000,
        0.010970 -0.012715 0.000000,
        -0.009528 0.007090 0.000000,
        0.018001 0.001905 0.000000,
        0.016847 0.003745 0.000000,
        0.028162 0.007090 0.000000,
        0.010944 0.004952 0.000000,
        0.012418 0.004420 0.000000,
        0.004749 -0.009610 0.000000,
        0.013780 0.003508 0.000000,
        0.014969 0.002196 0.000000,
        0.016399 -0.002963 0.000000,
        0.016200 -0.005094 0.000000,
        0.015665 -0.006787 0.000000,
        0.011285 -0.010469 0.000000,
        0.009448 -0.010675 0.000000,
        0.012719 -0.009941 0.000000,
        0.013927 -0.009126 0.000000,
        0.014851 -0.008152 0.000000,
        0.006835 -0.010385 0.000000,
        0.015781 0.000676 0.000000,
        0.016305 -0.001431 0.000000,
        0.015070 0.005455 0.000000,
        0.030803 0.007090 0.000000,
        0.030803 -0.012595 0.000000,
        0.015730 -0.010916 0.000000,
        0.017208 -0.009359 0.000000,
        0.020720 -0.010435 0.000000,
        0.018257 -0.007487 0.000000,
        0.028162 -0.010435 0.000000,
        0.018850 -0.005404 0.000000,
        0.019040 -0.003124 0.000000,
        0.018757 -0.000326 0.000000,
        0.013200 0.006531 0.000000,
        0.011006 0.007169 0.000000,
        0.009028 0.007330 0.000000,
        0.006672 0.007167 0.000000,
        0.004396 0.006550 0.000000,
        0.004396 0.003909 0.000000,
        0.006613 0.004858 0.000000,
        0.009006 0.005169 0.000000,
        0.009813 -0.012835 0.000000,
        0.009274 -0.012826 0.000000,
        0.008483 -0.012715 0.000000,
        0.006494 -0.012437 0.000000,
        -0.034014 -0.012595 0.000000,
        -0.031133 -0.012595 0.000000,
        -0.028710 -0.007200 0.000000,
        -0.027581 -0.008961 0.000000,
        -0.025961 -0.010512 0.000000,
        -0.023905 -0.011707 0.000000,
        -0.038575 0.007090 0.000000,
        -0.041216 0.007090 0.000000,
        -0.048898 -0.012595 0.000000,
        -0.046017 -0.012595 0.000000,
        -0.044025 -0.007074 0.000000,
        -0.035893 -0.007074 0.000000,
        -0.013848 0.007090 0.000000,
        -0.019404 0.007090 0.000000,
        -0.026714 0.004523 0.000000,
        -0.028106 0.002980 0.000000,
        -0.029021 0.001287 0.000000,
        -0.022248 0.006786 0.000000,
        -0.024551 0.005977 0.000000,
        -0.026693 0.004541 0.000000,
        -0.021637 -0.012383 0.000000,
        -0.019201 -0.012595 0.000000,
        -0.013848 -0.012595 0.000000,
        -0.029550 -0.000653 0.000000,
        -0.029693 -0.002505 0.000000,
        -0.029417 -0.005140 0.000000,
        -0.041216 0.007090 0.000394,
        -0.048898 -0.012595 0.000394,
        -0.046017 -0.012595 0.000394,
        -0.044025 -0.007074 0.000394,
        -0.035893 -0.007074 0.000394,
        -0.034014 -0.012595 0.000394,
        -0.031133 -0.012595 0.000394,
        -0.038575 0.007090 0.000394,
        -0.036557 -0.004913 0.000394,
        -0.043140 -0.004913 0.000394,
        -0.039494 0.003309 0.000394,
        -0.039683 0.003991 0.000394,
        -0.039809 0.004689 0.000394,
        -0.039873 0.004689 0.000394,
        -0.040001 0.003994 0.000394,
        -0.040177 0.003309 0.000394,
        -0.036557 -0.004913 0.000000,
        -0.043140 -0.004913 0.000000,
        -0.039494 0.003309 0.000000,
        -0.039683 0.003991 -0.000000,
        -0.039809 0.004689 0.000000,
        -0.039873 0.004689 0.000000,
        -0.040001 0.003994 0.000000,
        -0.040177 0.003309 0.000000,
        -0.019201 -0.012595 0.000394,
        -0.013848 -0.012595 0.000394,
        -0.013848 0.007090 0.000394,
        -0.019404 0.007090 0.000394,
        -0.029693 -0.002505 0.000394,
        -0.029550 -0.000653 0.000394,
        -0.029021 0.001287 0.000394,
        -0.028106 0.002980 0.000394,
        -0.026714 0.004523 0.000394,
        -0.026693 0.004541 0.000394,
        -0.024551 0.005977 0.000394,
        -0.022248 0.006786 0.000394,
        -0.021637 -0.012383 0.000394,
        -0.023905 -0.011707 0.000394,
        -0.025961 -0.010512 0.000394,
        -0.027581 -0.008961 0.000394,
        -0.028710 -0.007200 0.000394,
        -0.029417 -0.005140 0.000394,
        -0.025741 0.002169 0.000394,
        -0.024785 0.003184 0.000394,
        -0.023347 0.004113 0.000394,
        -0.021722 0.004681 0.000394,
        -0.019393 0.004929 0.000394,
        -0.016489 0.004929 0.000394,
        -0.016489 -0.010435 0.000394,
        -0.019284 -0.010435 0.000394,
        -0.021361 -0.010241 0.000394,
        -0.023017 -0.009724 0.000394,
        -0.024359 -0.008927 0.000394,
        -0.025464 -0.007837 0.000394,
        -0.026294 -0.006480 0.000394,
        -0.026871 -0.004629 0.000394,
        -0.027052 -0.002561 0.000394,
        -0.026885 -0.000602 0.000394,
        -0.026425 0.000955 0.000394,
        -0.019393 0.004929 0.000000,
        -0.016489 0.004929 0.000000,
        -0.021722 0.004681 0.000000,
        -0.023347 0.004113 0.000000,
        -0.024785 0.003184 0.000000,
        -0.025741 0.002169 -0.000000,
        -0.026425 0.000955 -0.000000,
        -0.026885 -0.000602 0.000000,
        -0.027052 -0.002561 0.000000,
        -0.026871 -0.004629 0.000000,
        -0.026294 -0.006480 0.000000,
        -0.025464 -0.007837 0.000000,
        -0.024359 -0.008927 0.000000,
        -0.023017 -0.009724 0.000000,
        -0.021361 -0.010241 0.000000,
        -0.019284 -0.010435 0.000000,
        -0.016489 -0.010435 0.000000,
        -0.010007 -0.010435 0.000394,
        -0.010007 -0.012595 0.000394,
        0.000555 -0.012595 0.000394,
        0.000555 0.007090 0.000394,
        -0.009528 0.007090 0.000394,
        -0.009528 0.004929 0.000394,
        -0.002085 0.004929 0.000394,
        -0.002085 -0.001552 0.000394,
        -0.009047 -0.001552 0.000394,
        -0.009047 -0.003713 0.000394,
        -0.002085 -0.003713 0.000394,
        -0.002085 -0.010435 0.000394,
        0.004396 -0.009415 0.000394,
        0.004396 -0.011575 0.000394,
        0.006494 -0.012437 0.000394,
        0.009813 -0.012835 0.000394,
        0.009274 -0.012826 0.000394,
        0.019040 -0.003124 0.000394,
        0.018850 -0.005404 0.000394,
        0.018257 -0.007487 0.000394,
        0.017208 -0.009359 0.000394,
        0.015730 -0.010916 0.000394,
        0.014146 -0.011927 0.000394,
        0.012238 -0.012584 0.000394,
        0.009028 0.007330 0.000394,
        0.011006 0.007169 0.000394,
        0.013200 0.006531 0.000394,
        0.015070 0.005455 0.000394,
        0.016847 0.003745 0.000394,
        0.018001 0.001905 0.000394,
        0.018757 -0.000326 0.000394,
        0.004396 0.006550 0.000394,
        0.006672 0.007167 0.000394,
        0.004396 0.003909 0.000394,
        0.009006 0.005169 0.000394,
        0.006613 0.004858 0.000394,
        0.016399 -0.002963 0.000394,
        0.016305 -0.001431 0.000394,
        0.015781 0.000676 0.000394,
        0.014969 0.002196 0.000394,
        0.013780 0.003508 0.000394,
        0.012418 0.004420 0.000394,
        0.010944 0.004952 0.000394,
        0.009448 -0.010675 0.000394,
        0.011285 -0.010469 0.000394,
        0.012719 -0.009941 0.000394,
        0.013927 -0.009126 0.000394,
        0.014851 -0.008152 0.000394,
        0.015665 -0.006787 0.000394,
        0.016200 -0.005094 0.000394,
        0.004749 -0.009610 0.000394,
        0.006835 -0.010385 0.000394,
        0.020720 -0.010435 0.000394,
        0.020720 -0.012595 0.000394,
        0.030803 -0.012595 0.000394,
        0.030803 0.007090 0.000394,
        0.028162 0.007090 0.000394,
        0.028162 -0.010435 0.000394,
      ]
    }
    coordIndex [
      86, 87, 67, -1,
      67, 87, 68, -1,
      87, 88, 68, -1,
      68, 88, 69, -1,
      88, 89, 69, -1,
      69, 89, 70, -1,
      89, 90, 70, -1,
      70, 90, 71, -1,
      90, 91, 71, -1,
      71, 91, 60, -1,
      91, 92, 60, -1,
      60, 92, 61, -1,
      92, 93, 61, -1,
      61, 93, 66, -1,
      93, 86, 66, -1,
      66, 86, 67, -1,
      94, 90, 95, -1,
      95, 90, 89, -1,
      96, 93, 94, -1,
      94, 93, 92, -1,
      94, 92, 90, -1,
      90, 92, 91, -1,
      96, 97, 93, -1,
      93, 97, 98, -1,
      93, 98, 86, -1,
      86, 98, 99, -1,
      86, 99, 100, -1,
      100, 101, 86, -1,
      86, 101, 95, -1,
      86, 95, 87, -1,
      87, 95, 89, -1,
      87, 89, 88, -1,
      94, 95, 102, -1,
      102, 95, 103, -1,
      96, 94, 104, -1,
      104, 94, 102, -1,
      96, 104, 105, -1,
      96, 105, 97, -1,
      97, 105, 106, -1,
      97, 106, 98, -1,
      99, 98, 107, -1,
      107, 98, 106, -1,
      99, 107, 108, -1,
      99, 108, 100, -1,
      100, 108, 109, -1,
      100, 109, 101, -1,
      95, 101, 103, -1,
      103, 101, 109, -1,
      110, 111, 81, -1,
      81, 111, 82, -1,
      111, 112, 82, -1,
      82, 112, 72, -1,
      112, 113, 72, -1,
      72, 113, 73, -1,
      114, 84, 83, -1,
      114, 83, 115, -1,
      115, 83, 76, -1,
      115, 76, 116, -1,
      116, 76, 75, -1,
      116, 75, 117, -1,
      117, 75, 74, -1,
      117, 74, 118, -1,
      118, 74, 79, -1,
      118, 79, 119, -1,
      119, 79, 78, -1,
      119, 78, 120, -1,
      120, 78, 77, -1,
      120, 77, 121, -1,
      121, 77, 73, -1,
      121, 73, 113, -1,
      110, 81, 80, -1,
      110, 80, 122, -1,
      122, 80, 65, -1,
      122, 65, 123, -1,
      123, 65, 64, -1,
      123, 64, 124, -1,
      124, 64, 63, -1,
      124, 63, 125, -1,
      125, 63, 62, -1,
      125, 62, 126, -1,
      126, 62, 85, -1,
      126, 85, 127, -1,
      127, 85, 84, -1,
      127, 84, 114, -1,
      116, 117, 128, -1,
      128, 117, 118, -1,
      128, 118, 129, -1,
      129, 118, 119, -1,
      129, 119, 130, -1,
      130, 119, 120, -1,
      130, 120, 131, -1,
      131, 120, 121, -1,
      131, 121, 132, -1,
      132, 121, 113, -1,
      132, 113, 133, -1,
      133, 113, 112, -1,
      133, 112, 134, -1,
      134, 112, 111, -1,
      134, 111, 135, -1,
      135, 111, 110, -1,
      135, 110, 136, -1,
      136, 110, 122, -1,
      136, 122, 137, -1,
      137, 122, 123, -1,
      137, 123, 138, -1,
      138, 123, 124, -1,
      138, 124, 139, -1,
      139, 124, 125, -1,
      139, 125, 140, -1,
      140, 125, 126, -1,
      140, 126, 141, -1,
      141, 126, 127, -1,
      141, 127, 142, -1,
      142, 127, 114, -1,
      142, 114, 143, -1,
      143, 114, 115, -1,
      143, 115, 144, -1,
      144, 115, 116, -1,
      144, 116, 128, -1,
      132, 133, 145, -1,
      145, 133, 146, -1,
      132, 145, 147, -1,
      132, 147, 131, -1,
      131, 147, 148, -1,
      131, 148, 130, -1,
      130, 148, 149, -1,
      130, 149, 129, -1,
      129, 149, 150, -1,
      129, 150, 128, -1,
      128, 150, 151, -1,
      128, 151, 144, -1,
      144, 151, 152, -1,
      144, 152, 143, -1,
      143, 152, 153, -1,
      143, 153, 142, -1,
      142, 153, 154, -1,
      142, 154, 141, -1,
      141, 154, 155, -1,
      141, 155, 140, -1,
      140, 155, 156, -1,
      140, 156, 139, -1,
      139, 156, 157, -1,
      139, 157, 138, -1,
      138, 157, 158, -1,
      138, 158, 137, -1,
      137, 158, 159, -1,
      137, 159, 136, -1,
      136, 159, 160, -1,
      136, 160, 135, -1,
      134, 135, 161, -1,
      161, 135, 160, -1,
      133, 134, 146, -1,
      146, 134, 161, -1,
      162, 163, 0, -1,
      0, 163, 1, -1,
      163, 164, 1, -1,
      1, 164, 2, -1,
      164, 165, 2, -1,
      2, 165, 8, -1,
      165, 166, 8, -1,
      8, 166, 17, -1,
      166, 167, 17, -1,
      17, 167, 3, -1,
      167, 168, 3, -1,
      3, 168, 4, -1,
      168, 169, 4, -1,
      4, 169, 5, -1,
      169, 170, 5, -1,
      5, 170, 12, -1,
      170, 171, 12, -1,
      12, 171, 11, -1,
      171, 172, 11, -1,
      11, 172, 9, -1,
      172, 173, 9, -1,
      9, 173, 10, -1,
      173, 162, 10, -1,
      10, 162, 0, -1,
      164, 163, 162, -1,
      162, 173, 164, -1,
      164, 173, 172, -1,
      164, 172, 165, -1,
      167, 166, 168, -1,
      168, 166, 165, -1,
      168, 165, 169, -1,
      169, 165, 172, -1,
      169, 172, 170, -1,
      170, 172, 171, -1,
      174, 175, 7, -1,
      7, 175, 6, -1,
      6, 175, 176, -1,
      177, 56, 57, -1,
      177, 57, 178, -1,
      178, 57, 58, -1,
      178, 58, 176, -1,
      176, 58, 59, -1,
      176, 59, 6, -1,
      179, 46, 45, -1,
      179, 45, 180, -1,
      180, 45, 43, -1,
      180, 43, 181, -1,
      181, 43, 41, -1,
      181, 41, 182, -1,
      182, 41, 40, -1,
      182, 40, 183, -1,
      183, 40, 13, -1,
      183, 13, 184, -1,
      184, 13, 15, -1,
      184, 15, 185, -1,
      185, 15, 177, -1,
      177, 15, 16, -1,
      177, 16, 56, -1,
      186, 50, 49, -1,
      186, 49, 187, -1,
      187, 49, 48, -1,
      187, 48, 188, -1,
      188, 48, 37, -1,
      188, 37, 189, -1,
      189, 37, 19, -1,
      189, 19, 190, -1,
      190, 19, 18, -1,
      190, 18, 191, -1,
      191, 18, 47, -1,
      191, 47, 192, -1,
      192, 47, 46, -1,
      192, 46, 179, -1,
      193, 52, 51, -1,
      193, 51, 194, -1,
      194, 51, 50, -1,
      194, 50, 186, -1,
      193, 195, 52, -1,
      52, 195, 53, -1,
      196, 55, 54, -1,
      196, 54, 197, -1,
      197, 54, 53, -1,
      197, 53, 195, -1,
      198, 26, 36, -1,
      198, 36, 199, -1,
      199, 36, 35, -1,
      199, 35, 200, -1,
      200, 35, 25, -1,
      200, 25, 201, -1,
      201, 25, 24, -1,
      201, 24, 202, -1,
      202, 24, 22, -1,
      202, 22, 203, -1,
      203, 22, 21, -1,
      203, 21, 204, -1,
      204, 21, 55, -1,
      204, 55, 196, -1,
      205, 30, 29, -1,
      205, 29, 206, -1,
      206, 29, 31, -1,
      206, 31, 207, -1,
      207, 31, 32, -1,
      207, 32, 208, -1,
      208, 32, 33, -1,
      208, 33, 209, -1,
      209, 33, 28, -1,
      209, 28, 210, -1,
      210, 28, 27, -1,
      210, 27, 211, -1,
      211, 27, 26, -1,
      211, 26, 198, -1,
      174, 7, 23, -1,
      174, 23, 212, -1,
      212, 23, 34, -1,
      212, 34, 213, -1,
      213, 34, 30, -1,
      213, 30, 205, -1,
      206, 177, 205, -1,
      205, 177, 178, -1,
      205, 178, 213, -1,
      213, 178, 176, -1,
      213, 176, 212, -1,
      212, 176, 175, -1,
      212, 175, 174, -1,
      195, 193, 197, -1,
      197, 193, 194, -1,
      197, 194, 196, -1,
      196, 194, 186, -1,
      196, 186, 204, -1,
      204, 186, 187, -1,
      204, 187, 203, -1,
      203, 187, 188, -1,
      203, 188, 202, -1,
      202, 188, 189, -1,
      202, 189, 201, -1,
      201, 189, 190, -1,
      201, 190, 200, -1,
      200, 190, 191, -1,
      200, 191, 199, -1,
      199, 191, 192, -1,
      199, 192, 198, -1,
      198, 192, 179, -1,
      198, 179, 211, -1,
      211, 179, 180, -1,
      211, 180, 210, -1,
      210, 180, 181, -1,
      210, 181, 209, -1,
      209, 181, 182, -1,
      209, 182, 208, -1,
      208, 182, 183, -1,
      208, 183, 207, -1,
      207, 183, 184, -1,
      207, 184, 206, -1,
      206, 184, 185, -1,
      206, 185, 177, -1,
      214, 215, 42, -1,
      42, 215, 14, -1,
      215, 216, 14, -1,
      14, 216, 39, -1,
      216, 217, 39, -1,
      39, 217, 38, -1,
      217, 218, 38, -1,
      38, 218, 20, -1,
      218, 219, 20, -1,
      20, 219, 44, -1,
      219, 214, 44, -1,
      44, 214, 42, -1,
      218, 217, 219, -1,
      219, 217, 216, -1,
      219, 216, 214, -1,
      214, 216, 215, -1,
    ]
  }
}

Shape {
  appearance Appearance {
    material Material {
      diffuseColor 1.0000 1.0000 1.0000
      specularColor 0.5020 0.5020 0.5020
      ambientIntensity 0.2
      transparency 0.0000
      shininess 0.5
    }
  }
  geometry IndexedFaceSet {
    ccw TRUE
    solid FALSE
    coord DEF co Coordinate {
      point [
        -0.036557 -0.004913 0.000000,
        -0.043140 -0.004913 0.000000,
        -0.039494 0.003309 0.000000,
        -0.039683 0.003991 -0.000000,
        -0.039809 0.004689 0.000000,
        -0.039873 0.004689 0.000000,
        -0.040001 0.003994 0.000000,
        -0.040177 0.003309 0.000000,
        -0.019393 0.004929 0.000000,
        -0.016489 0.004929 0.000000,
        -0.021722 0.004681 0.000000,
        -0.023347 0.004113 0.000000,
        -0.024785 0.003184 0.000000,
        -0.025741 0.002169 -0.000000,
        -0.026425 0.000955 -0.000000,
        -0.026885 -0.000602 0.000000,
        -0.027052 -0.002561 0.000000,
        -0.026871 -0.004629 0.000000,
        -0.026294 -0.006480 0.000000,
        -0.025464 -0.007837 0.000000,
        -0.024359 -0.008927 0.000000,
        -0.023017 -0.009724 0.000000,
        -0.021361 -0.010241 0.000000,
        -0.019284 -0.010435 0.000000,
        -0.016489 -0.010435 0.000000,
      ]
    }
    coordIndex [
      0, 1, 2, -1,
      2, 1, 7, -1,
      2, 7, 3, -1,
      3, 7, 6, -1,
      3, 6, 4, -1,
      4, 6, 5, -1,
      9, 24, 8, -1,
      8, 24, 23, -1,
      8, 23, 22, -1,
      16, 15, 8, -1,
      8, 15, 14, -1,
      8, 14, 10, -1,
      22, 21, 8, -1,
      8, 21, 20, -1,
      8, 20, 19, -1,
      19, 18, 8, -1,
      8, 18, 17, -1,
      8, 17, 16, -1,
      13, 12, 14, -1,
      14, 12, 11, -1,
      14, 11, 10, -1,
    ]
  }
}

Shape {
  appearance Appearance {
    material Material {
      diffuseColor 0.2510 0.2510 0.2510
      specularColor 0.1255 0.1255 0.1255
      ambientIntensity 0.2
      transparency 0.0000
      shininess 0.5
    }
  }
  geometry IndexedFaceSet {
    ccw TRUE
    solid FALSE
    coord DEF co Coordinate {
      point [
        0.056976 0.053528 0.078740,
        -0.056976 0.053528 0.078740,
        -0.056976 -0.053528 0.078740,
        0.056976 -0.053528 0.078740,
        0.056976 0.053528 0.196850,
        0.056976 -0.053528 0.196850,
        -0.056976 0.053528 0.196850,
        -0.056976 -0.053528 0.196850,
      ]
    }
    coordIndex [
      4, 5, 0, -1,
      0, 5, 3, -1,
      6, 4, 1, -1,
      1, 4, 0, -1,
      7, 6, 2, -1,
      2, 6, 1, -1,
      5, 7, 3, -1,
      3, 7, 2, -1,
      6, 7, 4, -1,
      4, 7, 5, -1,
    ]
  }
}

Shape {
  appearance Appearance {
    material Material {
      diffuseColor 1.0000 1.0000 0.0000
      specularColor 0.5020 0.5020 0.0000
      ambientIntensity 0.2
      transparency 0.0000
      shininess 0.5
    }
  }
  geometry IndexedFaceSet {
    ccw TRUE
    solid FALSE
    coord DEF co Coordinate {
      point [
        -0.314961 -0.157480 0.000000,
        -0.314961 0.157480 0.000000,
        -0.196850 -0.137795 -0.003937,
        -0.196850 -0.059055 -0.003937,
        -0.196850 -0.137795 -0.000000,
        -0.196850 -0.059055 0.000000,
        -0.196850 0.137795 -0.000000,
        -0.196850 0.059055 -0.000000,
        -0.196850 0.137795 -0.003937,
        -0.196850 0.059055 -0.003937,
        -0.275591 0.101470 0.078740,
        -0.275591 0.157480 0.078740,
        -0.275591 0.101470 0.082677,
        -0.275591 0.157480 0.082677,
        -0.255906 0.137795 0.000000,
        -0.255906 0.157480 0.000000,
        -0.255906 -0.137795 0.000000,
        -0.137795 -0.059055 -0.000000,
        -0.137795 0.059055 -0.000000,
        -0.255906 -0.157480 0.000000,
      ]
    }
    coordIndex [
      2, 3, 4, -1,
      4, 3, 5, -1,
      6, 7, 8, -1,
      8, 7, 9, -1,
      10, 11, 12, -1,
      12, 11, 13, -1,
      14, 15, 1, -1,
      16, 4, 5, -1,
      17, 18, 5, -1,
      5, 18, 7, -1,
      7, 6, 14, -1,
      7, 14, 5, -1,
      5, 14, 1, -1,
      5, 1, 16, -1,
      16, 1, 0, -1,
      16, 0, 19, -1,
    ]
  }
}

Shape {
  appearance Appearance {
    material Material {
      diffuseColor 0.7529 0.7529 0.7529
      specularColor 0.3765 0.3765 0.3765
      ambientIntensity 0.2
      transparency 0.0000
      shininess 0.5
    }
  }
  geometry IndexedFaceSet {
    ccw TRUE
    solid FALSE
    coord DEF co Coordinate {
      point [
        -0.314961 -0.157480 0.000000,
        -0.314961 0.157480 0.000000,
        -0.314961 0.157480 0.078740,
        -0.314961 -0.157480 0.078740,
      ]
    }
    coordIndex [
      1, 2, 0, -1,
      0, 2, 3, -1,
    ]
  }
}

Shape {
  appearance Appearance {
    material Material {
      diffuseColor 1.0000 1.0000 0.0000
      specularColor 0.5020 0.5020 0.0000
      ambientIntensity 0.2
      transparency 0.0000
      shininess 0.5
    }
  }
  geometry IndexedFaceSet {
    ccw TRUE
    solid FALSE
    coord DEF co Coordinate {
      point [
        0.314961 0.157480 0.000000,
        0.314961 -0.157480 0.000000,
        -0.314961 -0.157480 0.000000,
        -0.314961 0.157480 0.000000,
        0.314961 0.157480 0.078740,
        0.314961 -0.157480 0.078740,
        -0.314961 0.157480 0.078740,
        -0.314961 -0.157480 0.078740,
        -0.196850 -0.137795 -0.003937,
        -0.196850 -0.059055 -0.003937,
        -0.196850 -0.137795 -0.000000,
        -0.196850 -0.059055 0.000000,
        -0.196850 0.137795 -0.000000,
        -0.196850 0.059055 -0.000000,
        -0.196850 0.137795 -0.003937,
        -0.196850 0.059055 -0.003937,
        -0.275591 0.101470 0.078740,
        -0.275591 0.157480 0.078740,
        -0.275591 0.101470 0.082677,
        -0.275591 0.157480 0.082677,
        -0.255906 0.137795 0.000000,
        -0.255906 0.157480 0.000000,
        -0.255906 -0.137795 0.000000,
        -0.137795 -0.059055 -0.000000,
        -0.137795 0.059055 -0.000000,
        -0.255906 -0.157480 0.000000,
        -0.302642 0.000000 0.078740,
        -0.302015 -0.004763 0.078740,
        -0.300177 -0.009201 0.078740,
        -0.297252 -0.013012 0.078740,
        -0.274730 0.093285 0.078740,
        -0.284241 0.018402 0.078740,
        -0.297252 0.013012 0.078740,
        -0.293441 0.015936 0.078740,
        -0.289003 0.017774 0.078740,
        -0.300177 0.009201 0.078740,
        -0.302015 0.004763 0.078740,
        -0.272187 -0.085457 0.078740,
        -0.274730 -0.093285 0.078740,
        -0.284241 -0.018402 0.078740,
        -0.293441 -0.015936 0.078740,
        -0.289003 -0.017774 0.078740,
        -0.275591 -0.157480 0.078740,
        -0.275591 -0.101470 0.078740,
        -0.271229 -0.013012 0.078740,
        -0.268304 -0.009201 0.078740,
        -0.236220 -0.056010 0.078740,
        -0.266466 -0.004763 0.078740,
        -0.236220 0.056010 0.078740,
        -0.265839 0.000000 0.078740,
        -0.266466 0.004763 0.078740,
        -0.275040 -0.015936 0.078740,
        -0.255906 -0.067375 0.078740,
        -0.279478 -0.017774 0.078740,
        -0.262564 -0.072213 0.078740,
        -0.268072 -0.078330 0.078740,
        -0.268304 0.009201 0.078740,
        -0.271229 0.013012 0.078740,
        -0.255906 0.067375 0.078740,
        -0.275040 0.015936 0.078740,
        -0.262564 0.072213 0.078740,
        -0.279478 0.017774 0.078740,
        -0.268072 0.078330 0.078740,
        -0.272187 0.085457 0.078740,
        -0.275591 -0.101470 0.082677,
        -0.275591 -0.157480 0.082677,
        -0.236220 0.056010 0.082677,
        -0.265839 0.000000 0.082677,
        -0.236220 -0.056010 0.082677,
        -0.266466 -0.004763 0.082677,
        -0.289003 -0.017774 0.082677,
        -0.293441 -0.015936 0.082677,
        -0.318898 -0.157480 0.082677,
        -0.302015 -0.004763 0.082677,
        -0.302642 0.000000 0.082677,
        -0.300177 0.009201 0.082677,
        -0.297252 0.013012 0.082677,
        -0.318898 0.157480 0.082677,
        -0.302015 0.004763 0.082677,
        -0.297252 -0.013012 0.082677,
        -0.300177 -0.009201 0.082677,
        -0.272187 0.085457 0.082677,
        -0.274730 0.093285 0.082677,
        -0.284241 0.018402 0.082677,
        -0.271229 0.013012 0.082677,
        -0.268304 0.009201 0.082677,
        -0.266466 0.004763 0.082677,
        -0.293441 0.015936 0.082677,
        -0.289003 0.017774 0.082677,
        -0.274730 -0.093285 0.082677,
        -0.284241 -0.018402 0.082677,
        -0.275040 0.015936 0.082677,
        -0.255906 0.067375 0.082677,
        -0.279478 0.017774 0.082677,
        -0.262564 0.072213 0.082677,
        -0.268072 0.078330 0.082677,
        -0.268304 -0.009201 0.082677,
        -0.271229 -0.013012 0.082677,
        -0.255906 -0.067375 0.082677,
        -0.275040 -0.015936 0.082677,
        -0.262564 -0.072213 0.082677,
        -0.279478 -0.017774 0.082677,
        -0.268072 -0.078330 0.082677,
        -0.272187 -0.085457 0.082677,
        -0.318898 0.157480 -0.003937,
        -0.318898 -0.157480 -0.003937,
        -0.255906 -0.137795 -0.003937,
        -0.255906 -0.157480 -0.003937,
        -0.255906 0.137795 -0.003937,
        -0.137795 0.059055 -0.003937,
        -0.137795 -0.059055 -0.003937,
        -0.255906 0.157480 -0.003937,
        0.275591 -0.032912 0.082677,
        0.275591 0.157480 0.082677,
        0.275591 -0.032912 0.078740,
        0.275591 0.157480 0.078740,
        0.255906 0.137795 0.000000,
        0.255906 0.157480 0.000000,
        0.255906 -0.157480 0.000000,
        0.255906 -0.137795 0.000000,
        0.196850 -0.137795 -0.000000,
        0.196850 0.137795 -0.000000,
        0.275591 -0.085800 0.078740,
        0.275591 -0.157480 0.078740,
        0.200580 -0.032912 0.078740,
        0.200580 -0.085800 0.078740,
        0.275591 -0.085800 0.082677,
        0.275591 -0.157480 0.082677,
        0.318898 0.157480 0.082677,
        0.318898 -0.157480 0.082677,
        0.200580 -0.085800 0.082677,
        0.200580 -0.032912 0.082677,
        0.318898 0.157480 -0.003937,
        0.318898 -0.157480 -0.003937,
        0.255906 -0.137795 -0.003937,
        0.255906 -0.157480 -0.003937,
        0.255906 0.157480 -0.003937,
        0.255906 0.137795 -0.003937,
        0.196850 0.137795 -0.003937,
        0.196850 -0.137795 -0.003937,
      ]
    }
    coordIndex [
      26, 7, 6, -1,
      26, 27, 7, -1,
      7, 27, 28, -1,
      7, 28, 29, -1,
      16, 30, 31, -1,
      32, 6, 33, -1,
      33, 6, 34, -1,
      32, 35, 6, -1,
      6, 35, 36, -1,
      6, 36, 26, -1,
      37, 38, 39, -1,
      34, 6, 31, -1,
      31, 6, 17, -1,
      31, 17, 16, -1,
      29, 40, 7, -1,
      7, 40, 41, -1,
      7, 41, 42, -1,
      42, 41, 39, -1,
      42, 39, 43, -1,
      43, 39, 38, -1,
      44, 45, 46, -1,
      46, 45, 47, -1,
      46, 47, 48, -1,
      48, 47, 49, -1,
      48, 49, 50, -1,
      44, 46, 51, -1,
      51, 46, 52, -1,
      51, 52, 53, -1,
      53, 52, 54, -1,
      53, 54, 39, -1,
      39, 54, 55, -1,
      39, 55, 37, -1,
      50, 56, 48, -1,
      48, 56, 57, -1,
      48, 57, 58, -1,
      58, 57, 59, -1,
      58, 59, 60, -1,
      60, 59, 61, -1,
      60, 61, 62, -1,
      62, 61, 31, -1,
      62, 31, 63, -1,
      63, 31, 30, -1,
      64, 65, 43, -1,
      43, 65, 42, -1,
      66, 67, 68, -1,
      68, 67, 69, -1,
      70, 71, 72, -1,
      72, 73, 74, -1,
      75, 76, 77, -1,
      72, 74, 77, -1,
      77, 74, 78, -1,
      77, 78, 75, -1,
      71, 79, 72, -1,
      72, 79, 80, -1,
      72, 80, 73, -1,
      81, 82, 83, -1,
      84, 85, 66, -1,
      66, 85, 86, -1,
      66, 86, 67, -1,
      76, 87, 77, -1,
      77, 87, 88, -1,
      77, 88, 19, -1,
      19, 88, 83, -1,
      19, 83, 18, -1,
      18, 83, 82, -1,
      64, 89, 90, -1,
      70, 72, 90, -1,
      90, 72, 65, -1,
      90, 65, 64, -1,
      84, 66, 91, -1,
      91, 66, 92, -1,
      91, 92, 93, -1,
      93, 92, 94, -1,
      93, 94, 83, -1,
      83, 94, 95, -1,
      83, 95, 81, -1,
      69, 96, 68, -1,
      68, 96, 97, -1,
      68, 97, 98, -1,
      98, 97, 99, -1,
      98, 99, 100, -1,
      100, 99, 101, -1,
      100, 101, 102, -1,
      102, 101, 90, -1,
      102, 90, 103, -1,
      103, 90, 89, -1,
      77, 104, 72, -1,
      72, 104, 105, -1,
      9, 8, 106, -1,
      107, 105, 106, -1,
      106, 105, 104, -1,
      108, 14, 15, -1,
      15, 109, 110, -1,
      110, 9, 15, -1,
      15, 9, 106, -1,
      15, 106, 108, -1,
      108, 106, 104, -1,
      108, 104, 111, -1,
      21, 111, 3, -1,
      3, 111, 104, -1,
      3, 104, 6, -1,
      6, 104, 77, -1,
      6, 77, 17, -1,
      17, 77, 19, -1,
      42, 65, 7, -1,
      7, 65, 72, -1,
      7, 72, 2, -1,
      2, 72, 105, -1,
      2, 105, 25, -1,
      25, 105, 107, -1,
      92, 66, 58, -1,
      58, 66, 48, -1,
      46, 48, 68, -1,
      68, 48, 66, -1,
      52, 46, 98, -1,
      98, 46, 68, -1,
      16, 18, 30, -1,
      30, 18, 82, -1,
      30, 82, 63, -1,
      63, 82, 81, -1,
      63, 81, 62, -1,
      62, 81, 95, -1,
      62, 95, 60, -1,
      60, 95, 94, -1,
      60, 94, 58, -1,
      58, 94, 92, -1,
      52, 98, 54, -1,
      54, 98, 100, -1,
      54, 100, 55, -1,
      55, 100, 102, -1,
      55, 102, 37, -1,
      37, 102, 103, -1,
      37, 103, 38, -1,
      38, 103, 89, -1,
      38, 89, 43, -1,
      43, 89, 64, -1,
      49, 67, 50, -1,
      50, 67, 86, -1,
      50, 86, 56, -1,
      56, 86, 85, -1,
      56, 85, 57, -1,
      57, 85, 84, -1,
      57, 84, 59, -1,
      59, 84, 91, -1,
      59, 91, 61, -1,
      61, 91, 93, -1,
      61, 93, 31, -1,
      31, 93, 83, -1,
      31, 83, 34, -1,
      34, 83, 88, -1,
      34, 88, 33, -1,
      33, 88, 87, -1,
      33, 87, 32, -1,
      32, 87, 76, -1,
      32, 76, 35, -1,
      35, 76, 75, -1,
      35, 75, 36, -1,
      36, 75, 78, -1,
      36, 78, 26, -1,
      26, 78, 74, -1,
      26, 74, 27, -1,
      27, 74, 73, -1,
      27, 73, 28, -1,
      28, 73, 80, -1,
      28, 80, 29, -1,
      29, 80, 79, -1,
      29, 79, 40, -1,
      40, 79, 71, -1,
      40, 71, 41, -1,
      41, 71, 70, -1,
      41, 70, 39, -1,
      39, 70, 90, -1,
      39, 90, 53, -1,
      53, 90, 101, -1,
      53, 101, 51, -1,
      51, 101, 99, -1,
      51, 99, 44, -1,
      44, 99, 97, -1,
      44, 97, 45, -1,
      45, 97, 96, -1,
      45, 96, 47, -1,
      47, 96, 69, -1,
      47, 69, 49, -1,
      49, 69, 67, -1,
      9, 110, 11, -1,
      11, 110, 23, -1,
      13, 24, 15, -1,
      15, 24, 109, -1,
      110, 109, 23, -1,
      23, 109, 24, -1,
      10, 22, 8, -1,
      8, 22, 106, -1,
      22, 25, 106, -1,
      106, 25, 107, -1,
      21, 20, 111, -1,
      111, 20, 108, -1,
      20, 12, 108, -1,
      108, 12, 14, -1,
      112, 113, 114, -1,
      114, 113, 115, -1,
      1, 0, 116, -1,
      116, 0, 117, -1,
      118, 1, 119, -1,
      119, 1, 116, -1,
      119, 116, 120, -1,
      120, 116, 121, -1,
      4, 0, 5, -1,
      5, 0, 1, -1,
      4, 5, 122, -1,
      122, 5, 123, -1,
      115, 4, 114, -1,
      114, 4, 122, -1,
      114, 122, 124, -1,
      124, 122, 125, -1,
      122, 123, 126, -1,
      126, 123, 127, -1,
      128, 113, 129, -1,
      129, 113, 112, -1,
      127, 129, 126, -1,
      126, 129, 112, -1,
      126, 112, 130, -1,
      130, 112, 131, -1,
      132, 128, 133, -1,
      133, 128, 129, -1,
      132, 133, 134, -1,
      134, 133, 135, -1,
      136, 132, 137, -1,
      137, 132, 134, -1,
      137, 134, 138, -1,
      138, 134, 139, -1,
      120, 121, 139, -1,
      139, 121, 138, -1,
      115, 113, 4, -1,
      4, 113, 128, -1,
      4, 128, 0, -1,
      0, 128, 132, -1,
      0, 132, 117, -1,
      117, 132, 136, -1,
      118, 135, 1, -1,
      1, 135, 133, -1,
      1, 133, 5, -1,
      5, 133, 129, -1,
      5, 129, 123, -1,
      123, 129, 127, -1,
      131, 112, 124, -1,
      124, 112, 114, -1,
      130, 131, 125, -1,
      125, 131, 124, -1,
      126, 130, 122, -1,
      122, 130, 125, -1,
      118, 119, 135, -1,
      135, 119, 134, -1,
      119, 120, 134, -1,
      134, 120, 139, -1,
      121, 116, 138, -1,
      138, 116, 137, -1,
      116, 117, 137, -1,
      137, 117, 136, -1,
    ]
  }
}
