#VRML V2.0 utf8

Shape {
  appearance Appearance {
    material Material {
      diffuseColor 0.5020 0.5020 0.5020
      specularColor 0.2510 0.2510 0.2510
      ambientIntensity 0.2
      transparency 0.0000
      shininess 0.5
    }
  }
  geometry IndexedFaceSet {
    ccw TRUE
    solid FALSE
    coord DEF co Coordinate {
      point [
        -0.268986 -2.224409 0.000000,
        -0.664909 -2.224409 0.000000,
        -0.664909 -1.899606 0.000000,
        1.968504 -0.094333 0.000000,
        1.742126 -0.094333 0.000000,
        1.742126 0.104918 0.000000,
        -1.815457 -2.219474 0.000000,
        -1.855315 -2.205527 0.000000,
        -1.855315 -1.899606 0.000000,
        -1.855315 2.205527 0.000000,
        -1.742126 1.574803 0.000000,
        -1.855315 0.104918 0.000000,
        -1.742126 0.104918 0.000000,
        -1.742126 -0.094333 0.000000,
        -1.815457 2.219474 0.000000,
        -1.771654 2.224409 0.000000,
        -0.875984 1.574803 0.000000,
        -0.664909 2.224409 0.000000,
        -0.875984 0.104918 0.000000,
        1.815457 -2.219474 0.000000,
        1.771654 -2.224409 0.000000,
        1.968504 -2.027559 0.000000,
        0.609578 -2.224409 0.000000,
        0.609578 -1.899606 0.000000,
        1.968504 -1.899606 0.000000,
        1.949009 -2.112969 0.000000,
        1.925557 -2.150293 0.000000,
        1.963569 -2.071363 0.000000,
        1.894388 -2.181463 0.000000,
        1.857064 -2.204915 0.000000,
        0.609578 2.224409 0.000000,
        1.771654 2.224409 0.000000,
        1.742126 1.574803 0.000000,
        1.815457 2.219474 0.000000,
        1.963569 2.071363 0.000000,
        1.857064 2.204915 0.000000,
        1.949009 2.112969 0.000000,
        1.894388 2.181463 0.000000,
        1.925557 2.150293 0.000000,
        -1.963569 2.071363 0.000000,
        -1.949009 2.112969 0.000000,
        -1.925557 2.150293 0.000000,
        -1.857064 -2.204915 0.000000,
        -1.894388 -2.181463 0.000000,
        -1.925557 -2.150293 0.000000,
        -1.949009 -2.112969 0.000000,
        -1.963569 -2.071363 0.000000,
        -1.968504 -2.027559 0.000000,
        -1.771654 -2.224409 0.000000,
        1.742126 -1.574803 0.000000,
        0.875984 -1.574803 0.000000,
        0.875984 -0.094333 0.000000,
        0.875984 1.574803 0.000000,
        0.875984 0.104918 0.000000,
        0.609578 0.104918 0.000000,
        0.609578 -0.094333 0.000000,
        1.968504 2.027559 0.000000,
        1.968504 0.104918 0.000000,
        0.059898 0.104918 0.000000,
        0.079103 -0.061324 0.000000,
        0.059898 -0.094333 0.000000,
        0.079103 -0.082930 0.000000,
        0.100086 -0.091546 0.000000,
        0.108032 0.104918 0.000000,
        0.101862 0.104493 0.000000,
        0.079103 0.098317 0.000000,
        0.079103 0.071910 0.000000,
        0.101276 0.081404 0.000000,
        0.082631 -0.063279 0.000000,
        0.125202 0.084513 0.000000,
        0.144586 0.082336 0.000000,
        0.159320 0.077019 0.000000,
        0.172945 0.067904 0.000000,
        0.184832 0.054780 0.000000,
        0.199134 0.003192 0.000000,
        0.197141 -0.018118 0.000000,
        0.191793 -0.035050 0.000000,
        0.147989 -0.071868 0.000000,
        0.129628 -0.073928 0.000000,
        0.162332 -0.066588 0.000000,
        0.174414 -0.058445 0.000000,
        0.183651 -0.048700 0.000000,
        0.103498 -0.071027 0.000000,
        0.192948 0.039581 0.000000,
        0.198195 0.018508 0.000000,
        0.125428 0.106119 0.000000,
        0.059898 2.224409 0.000000,
        0.140130 0.104918 0.000000,
        0.233943 2.224409 0.000000,
        0.215152 0.051870 0.000000,
        0.203614 0.070274 0.000000,
        0.233943 0.104918 0.000000,
        0.176606 -0.086450 0.000000,
        0.192440 -0.076339 0.000000,
        0.233943 -0.094333 0.000000,
        0.207226 -0.060772 0.000000,
        0.217713 -0.042055 0.000000,
        0.185842 0.087367 0.000000,
        0.167144 0.098129 0.000000,
        0.145199 0.104504 0.000000,
        0.223637 -0.021219 0.000000,
        0.225541 0.001579 0.000000,
        0.222709 0.029565 0.000000,
        0.119978 -0.094333 0.000000,
        0.127884 -0.095441 0.000000,
        0.059898 -1.899606 0.000000,
        0.233943 -1.899606 0.000000,
        0.133267 -0.095533 0.000000,
        0.144843 -0.094333 0.000000,
        0.157526 -0.093018 0.000000,
        -0.268986 -1.899606 0.000000,
        -0.084139 -2.224409 0.000000,
        -0.084139 -1.899606 0.000000,
        0.059898 -2.224409 0.000000,
        0.233943 -2.224409 0.000000,
        -0.268986 -0.094333 0.000000,
        -0.084139 -0.094333 0.000000,
        -1.968504 0.104918 0.000000,
        -1.855315 -0.094333 0.000000,
        -1.968504 -0.094333 0.000000,
        -1.968504 -1.899606 0.000000,
        0.242345 -0.071527 0.000000,
        0.242345 -0.093133 0.000000,
        0.343170 -0.093133 0.000000,
        0.316764 -0.071527 0.000000,
        0.316764 0.103718 0.000000,
        0.343170 0.103718 0.000000,
        -0.060133 0.103718 0.000000,
        -0.084139 0.104918 0.000000,
        -0.060133 0.082112 0.000000,
        -0.064934 -0.071527 0.000000,
        -0.064934 -0.093133 0.000000,
        0.040693 -0.093133 0.000000,
        0.040693 0.103718 0.000000,
        0.014287 -0.004310 0.000000,
        0.014287 -0.071527 0.000000,
        -0.055331 -0.004310 0.000000,
        -0.055331 0.017296 0.000000,
        0.014287 0.017296 0.000000,
        0.014287 0.082112 0.000000,
        -0.251955 -0.039180 0.000000,
        -0.240666 -0.056787 0.000000,
        -0.224463 -0.072301 0.000000,
        -0.203909 -0.084246 0.000000,
        -0.158895 0.103718 0.000000,
        -0.268986 0.104918 0.000000,
        -0.187335 0.100678 0.000000,
        -0.210367 0.092591 0.000000,
        -0.231792 0.078232 0.000000,
        -0.231998 0.078051 0.000000,
        -0.245918 0.062615 0.000000,
        -0.255067 0.045686 0.000000,
        -0.181227 -0.091006 0.000000,
        -0.156870 -0.093133 0.000000,
        -0.103344 -0.093133 0.000000,
        -0.103344 0.103718 0.000000,
        -0.260354 0.026291 0.000000,
        -0.261784 0.007769 0.000000,
        -0.259022 -0.018576 0.000000,
        -0.453833 -0.093133 0.000000,
        -0.664909 -0.094333 0.000000,
        -0.377014 0.103718 0.000000,
        -0.664909 0.104918 0.000000,
        -0.425026 -0.093133 0.000000,
        -0.405108 -0.037919 0.000000,
        -0.323788 -0.037919 0.000000,
        -0.304995 -0.093133 0.000000,
        -0.276188 -0.093133 0.000000,
        -0.350607 0.103718 0.000000,
        -1.894388 2.181463 0.000000,
        -1.857064 2.204915 0.000000,
        -1.968504 2.027559 0.000000,
        -1.742126 -1.574803 0.000000,
        -0.875984 -1.574803 0.000000,
        -0.875984 -0.094333 0.000000,
        -0.268986 2.224409 0.000000,
        -0.084139 2.224409 0.000000,
        1.963569 2.071363 3.897638,
        1.949009 2.112969 3.897638,
        1.374039 1.547102 3.897638,
        -0.754923 0.388144 3.897638,
        -1.062352 0.150483 3.897638,
        -0.762125 0.128427 3.897638,
        -0.920565 0.596997 3.897638,
        -1.771654 2.224409 3.897638,
        -1.815457 2.219474 3.897638,
        -0.810293 0.502131 3.897638,
        -0.754923 0.416163 3.897638,
        -0.555979 2.224409 3.897638,
        -1.256988 -0.161453 3.897638,
        -1.292927 -0.137163 3.897638,
        -1.968504 -0.281628 3.897638,
        -1.352676 0.388144 3.897638,
        -1.968504 2.027559 3.897638,
        -1.352676 0.460162 3.897638,
        -1.295061 0.035816 3.897638,
        -1.057400 0.049882 3.897638,
        -1.287104 0.098577 3.897638,
        -1.058508 0.100251 3.897638,
        -1.264454 0.157685 3.897638,
        -0.848547 0.596997 3.897638,
        -0.555979 -0.281628 3.897638,
        -0.762125 -0.151994 3.897638,
        -0.826941 -0.151994 3.897638,
        -1.084293 -0.056876 3.897638,
        -1.076561 -0.044009 3.897638,
        -0.997655 -0.034865 3.897638,
        -1.011249 -0.080945 3.897638,
        -0.917900 0.587280 3.897638,
        -0.888291 0.515950 3.897638,
        -0.851022 0.460162 3.897638,
        -1.063902 -0.009769 3.897638,
        -1.057472 0.044427 3.897638,
        -1.857064 2.204915 3.897638,
        -1.894388 2.181463 3.897638,
        -1.925557 2.150293 3.897638,
        -1.322709 -0.103459 3.897638,
        -1.343676 -0.063612 3.897638,
        -1.357726 -0.005638 3.897638,
        -1.336809 0.157685 3.897638,
        -1.344617 0.140940 3.897638,
        -1.291307 -0.003273 3.897638,
        -1.196186 -0.099857 3.897638,
        -1.173643 -0.101582 3.897638,
        -1.143344 -0.098119 3.897638,
        -1.949009 2.112969 3.897638,
        -1.963569 2.071363 3.897638,
        -1.120753 -0.089716 3.897638,
        -1.100488 -0.075546 3.897638,
        -0.992584 0.023775 3.897638,
        -0.826941 0.065974 3.897638,
        -0.994834 0.078464 3.897638,
        -1.034242 -0.120582 3.897638,
        -1.059802 -0.146592 3.897638,
        -1.088726 -0.164611 3.897638,
        -1.359878 0.032665 3.897638,
        -1.355643 0.096662 3.897638,
        -1.281102 -0.034275 3.897638,
        -1.264511 -0.060629 3.897638,
        -1.221610 -0.092779 3.897638,
        -1.245585 -0.079024 3.897638,
        -1.122596 -0.176040 3.897638,
        -1.168804 -0.180802 3.897638,
        -1.218589 -0.175331 3.897638,
        0.806062 -0.274426 3.897638,
        0.647622 -0.274426 3.897638,
        1.290745 -0.281628 3.897638,
        0.816819 -0.246828 3.897638,
        0.692917 -0.178919 3.897638,
        0.718632 -0.070755 3.897638,
        0.723241 0.002170 3.897638,
        0.714517 0.097906 3.897638,
        0.687980 0.186100 3.897638,
        1.925557 2.150293 3.897638,
        1.894388 2.181463 3.897638,
        1.857064 2.204915 3.897638,
        -0.279919 0.352170 3.897638,
        -0.215350 0.435469 3.897638,
        -0.130562 0.506707 3.897638,
        1.290745 1.547102 3.897638,
        0.794307 0.277094 3.897638,
        0.833356 0.168752 3.897638,
        0.638551 0.270105 3.897638,
        0.580364 0.332168 3.897638,
        0.498270 0.388234 3.897638,
        -0.151783 -0.274426 3.897638,
        -0.281416 -0.274426 3.897638,
        -0.325871 -0.173361 3.897638,
        -0.349739 -0.064682 3.897638,
        0.850959 0.056374 3.897638,
        0.852874 0.003520 3.897638,
        0.843118 -0.137871 3.897638,
        -0.357035 0.050557 3.897638,
        -0.349435 0.156426 3.897638,
        -0.322845 0.261844 3.897638,
        0.555246 0.527693 3.897638,
        0.651242 0.461424 3.897638,
        0.731704 0.377356 3.897638,
        0.405925 0.424391 3.897638,
        0.305695 0.442492 3.897638,
        0.235316 0.445758 3.897638,
        0.136966 0.438929 3.897638,
        0.039140 0.415091 3.897638,
        -0.044866 0.374654 3.897638,
        0.225639 0.604199 3.897638,
        0.339523 0.596748 3.897638,
        0.453327 0.571322 3.897638,
        -0.032381 0.558677 3.897638,
        0.075000 0.590187 3.897638,
        0.190033 0.603389 3.897638,
        -0.120078 0.313295 3.897638,
        -0.177916 0.235158 3.897638,
        -0.212578 0.148749 3.897638,
        1.771654 2.224409 3.897638,
        1.815457 2.219474 3.897638,
        -0.226506 0.056202 3.897638,
        -0.227402 0.028727 3.897638,
        -0.218161 -0.087757 3.897638,
        1.925557 -2.150293 3.897638,
        1.949009 -2.112969 3.897638,
        1.374039 -1.547102 3.897638,
        1.963569 -2.071363 3.897638,
        1.968504 -2.027559 3.897638,
        1.374039 -0.281628 3.897638,
        1.968504 -0.281628 3.897638,
        1.968504 2.027559 3.897638,
        -0.189911 -0.194169 3.897638,
        1.290745 -1.547102 3.897638,
        -0.555979 -2.224409 3.897638,
        1.771654 -2.224409 3.897638,
        1.815457 -2.219474 3.897638,
        1.857064 -2.204915 3.897638,
        1.894388 -2.181463 3.897638,
        -1.014189 -0.346444 3.897638,
        -1.250050 -0.288830 3.897638,
        -1.079006 -0.346444 3.897638,
        -1.278072 -0.337310 3.897638,
        -1.079006 -0.395394 3.897638,
        -1.968504 -2.027559 3.897638,
        -1.295220 -0.593815 3.897638,
        -1.322838 -0.561859 3.897638,
        -1.337159 -0.303646 3.897638,
        -1.329270 -0.288830 3.897638,
        -0.864751 -0.310435 3.897638,
        -0.799934 -0.310435 3.897638,
        -0.772755 -0.356045 3.897638,
        -0.758352 -0.404566 3.897638,
        -1.292203 -0.387237 3.897638,
        -1.295061 -0.424315 3.897638,
        -1.083066 -0.451250 3.897638,
        -1.291593 -0.463242 3.897638,
        -0.842023 -0.343215 3.897638,
        -1.014189 -0.392919 3.897638,
        -0.825032 -0.384803 3.897638,
        -1.010492 -0.441324 3.897638,
        -0.915733 -0.533629 3.897638,
        -0.913138 -0.533693 3.897638,
        -1.342964 -0.523501 3.897638,
        -1.357106 -0.467638 3.897638,
        -0.811865 -0.584808 3.897638,
        -0.835778 -0.600148 3.897638,
        -1.359878 -0.424315 3.897638,
        -1.353511 -0.354446 3.897638,
        -0.788995 -0.561078 3.897638,
        -1.187934 -0.555298 3.897638,
        -1.161270 -0.552581 3.897638,
        -1.141089 -0.545704 3.897638,
        -1.963569 -2.071363 3.897638,
        -1.228973 -0.629112 3.897638,
        -1.262765 -0.616413 3.897638,
        -1.282250 -0.493507 3.897638,
        -1.270101 -0.514759 3.897638,
        -1.253984 -0.532329 3.897638,
        -1.001689 -0.474530 3.897638,
        -0.989087 -0.498163 3.897638,
        -0.975954 -0.512819 3.897638,
        -0.960865 -0.523202 3.897638,
        -0.942517 -0.530144 3.897638,
        -0.835028 -0.495545 3.897638,
        -0.826020 -0.474717 3.897638,
        -0.888835 -0.531580 3.897638,
        -0.820150 -0.440502 3.897638,
        -0.819739 -0.426228 3.897638,
        -1.041759 -0.492282 3.897638,
        -1.043222 -0.492282 3.897638,
        -1.037882 -0.505336 3.897638,
        -1.052190 -0.535911 3.897638,
        -1.018344 -0.548235 3.897638,
        -1.067110 -0.569222 3.897638,
        -0.998853 -0.573439 3.897638,
        -0.988181 -0.583136 3.897638,
        -0.863635 -0.609765 3.897638,
        -0.894796 -0.612913 3.897638,
        -0.932278 -0.609173 3.897638,
        -1.123303 -0.534285 3.897638,
        -1.108525 -0.518579 3.897638,
        -1.094900 -0.494280 3.897638,
        -0.842498 -0.506180 3.897638,
        -0.869798 -0.525961 3.897638,
        -0.854975 -0.517730 3.897638,
        -0.754923 -0.445807 3.897638,
        -0.759425 -0.493423 3.897638,
        -0.771367 -0.531442 3.897638,
        -1.113428 -0.616197 3.897638,
        -1.089103 -0.597239 3.897638,
        -0.962809 -0.599033 3.897638,
        -1.949009 -2.112969 3.897638,
        -1.925557 -2.150293 3.897638,
        -1.894388 -2.181463 3.897638,
        -1.236647 -0.544236 3.897638,
        -1.215860 -0.551991 3.897638,
        -1.139837 -0.628072 3.897638,
        -1.169354 -0.633955 3.897638,
        -1.771654 -2.224409 3.897638,
        -1.183320 -0.634518 3.897638,
        -1.857064 -2.204915 3.897638,
        -1.815457 -2.219474 3.897638,
      ]
    }
    coordIndex [
      0, 1, 2, -1,
      3, 4, 5, -1,
      6, 7, 8, -1,
      9, 10, 11, -1,
      11, 10, 12, -1,
      11, 12, 13, -1,
      9, 14, 10, -1,
      10, 14, 15, -1,
      10, 15, 16, -1,
      16, 15, 17, -1,
      16, 17, 18, -1,
      19, 20, 21, -1,
      22, 23, 20, -1,
      20, 23, 24, -1,
      20, 24, 21, -1,
      25, 26, 27, -1,
      27, 26, 28, -1,
      27, 28, 21, -1,
      21, 28, 29, -1,
      21, 29, 19, -1,
      30, 31, 32, -1,
      31, 33, 34, -1,
      34, 33, 35, -1,
      34, 35, 36, -1,
      36, 35, 37, -1,
      36, 37, 38, -1,
      39, 40, 41, -1,
      7, 42, 8, -1,
      8, 42, 43, -1,
      8, 43, 44, -1,
      44, 45, 8, -1,
      8, 45, 46, -1,
      8, 46, 47, -1,
      2, 1, 8, -1,
      8, 1, 48, -1,
      8, 48, 6, -1,
      4, 3, 49, -1,
      49, 3, 24, -1,
      49, 24, 50, -1,
      50, 24, 23, -1,
      50, 23, 51, -1,
      52, 53, 54, -1,
      54, 53, 51, -1,
      54, 51, 55, -1,
      55, 51, 23, -1,
      31, 34, 32, -1,
      32, 34, 56, -1,
      32, 56, 5, -1,
      5, 56, 57, -1,
      5, 57, 3, -1,
      58, 59, 60, -1,
      60, 59, 61, -1,
      60, 61, 62, -1,
      58, 63, 64, -1,
      64, 65, 58, -1,
      58, 65, 66, -1,
      58, 66, 59, -1,
      59, 66, 67, -1,
      59, 67, 68, -1,
      68, 67, 69, -1,
      68, 69, 70, -1,
      70, 71, 68, -1,
      68, 71, 72, -1,
      68, 72, 73, -1,
      74, 75, 68, -1,
      68, 75, 76, -1,
      77, 78, 79, -1,
      79, 78, 80, -1,
      76, 81, 68, -1,
      68, 81, 80, -1,
      68, 80, 82, -1,
      82, 80, 78, -1,
      73, 83, 68, -1,
      68, 83, 84, -1,
      68, 84, 74, -1,
      85, 86, 87, -1,
      87, 86, 88, -1,
      89, 90, 91, -1,
      92, 93, 94, -1,
      94, 93, 95, -1,
      94, 95, 96, -1,
      90, 97, 91, -1,
      91, 97, 98, -1,
      91, 98, 99, -1,
      96, 100, 94, -1,
      94, 100, 101, -1,
      94, 101, 91, -1,
      91, 101, 102, -1,
      91, 102, 89, -1,
      103, 104, 105, -1,
      105, 104, 106, -1,
      104, 107, 106, -1,
      106, 107, 108, -1,
      106, 108, 94, -1,
      94, 108, 109, -1,
      94, 109, 92, -1,
      0, 110, 111, -1,
      111, 110, 112, -1,
      111, 112, 113, -1,
      113, 112, 105, -1,
      113, 105, 114, -1,
      114, 105, 106, -1,
      110, 115, 112, -1,
      112, 115, 116, -1,
      112, 116, 105, -1,
      105, 116, 60, -1,
      105, 60, 103, -1,
      103, 60, 62, -1,
      117, 118, 119, -1,
      119, 118, 8, -1,
      119, 8, 120, -1,
      120, 8, 47, -1,
      91, 121, 94, -1,
      94, 121, 122, -1,
      94, 122, 123, -1,
      124, 121, 125, -1,
      125, 121, 91, -1,
      125, 91, 126, -1,
      126, 91, 54, -1,
      126, 54, 123, -1,
      123, 54, 55, -1,
      123, 55, 94, -1,
      94, 55, 23, -1,
      94, 23, 106, -1,
      106, 23, 22, -1,
      106, 22, 114, -1,
      127, 128, 58, -1,
      127, 129, 128, -1,
      128, 129, 130, -1,
      128, 130, 116, -1,
      116, 130, 131, -1,
      116, 131, 60, -1,
      60, 131, 132, -1,
      60, 132, 58, -1,
      58, 132, 133, -1,
      58, 133, 127, -1,
      134, 135, 136, -1,
      136, 135, 130, -1,
      136, 130, 137, -1,
      137, 130, 129, -1,
      137, 129, 138, -1,
      138, 129, 139, -1,
      140, 141, 115, -1,
      115, 141, 142, -1,
      115, 142, 143, -1,
      144, 145, 128, -1,
      144, 146, 145, -1,
      145, 146, 147, -1,
      145, 147, 148, -1,
      148, 149, 145, -1,
      145, 149, 150, -1,
      145, 150, 151, -1,
      143, 152, 115, -1,
      115, 152, 153, -1,
      115, 153, 116, -1,
      116, 153, 154, -1,
      116, 154, 128, -1,
      128, 154, 155, -1,
      128, 155, 144, -1,
      151, 156, 145, -1,
      145, 156, 157, -1,
      145, 157, 115, -1,
      115, 157, 158, -1,
      115, 158, 140, -1,
      159, 160, 161, -1,
      161, 160, 162, -1,
      161, 162, 145, -1,
      0, 2, 110, -1,
      110, 2, 160, -1,
      110, 160, 115, -1,
      115, 160, 159, -1,
      115, 159, 163, -1,
      164, 165, 163, -1,
      163, 165, 166, -1,
      163, 166, 115, -1,
      115, 166, 167, -1,
      115, 167, 145, -1,
      145, 167, 168, -1,
      145, 168, 161, -1,
      41, 169, 39, -1,
      39, 169, 170, -1,
      39, 170, 171, -1,
      171, 170, 9, -1,
      171, 9, 117, -1,
      117, 9, 11, -1,
      117, 11, 118, -1,
      118, 11, 13, -1,
      118, 13, 8, -1,
      8, 13, 172, -1,
      8, 172, 2, -1,
      2, 172, 173, -1,
      2, 173, 160, -1,
      99, 87, 91, -1,
      91, 87, 88, -1,
      91, 88, 54, -1,
      54, 88, 30, -1,
      54, 30, 52, -1,
      52, 30, 32, -1,
      173, 174, 160, -1,
      160, 174, 18, -1,
      160, 18, 162, -1,
      162, 18, 17, -1,
      162, 17, 145, -1,
      145, 17, 175, -1,
      145, 175, 128, -1,
      128, 175, 176, -1,
      128, 176, 58, -1,
      58, 176, 86, -1,
      58, 86, 63, -1,
      63, 86, 85, -1,
      177, 178, 179, -1,
      180, 181, 182, -1,
      183, 184, 185, -1,
      186, 187, 188, -1,
      189, 190, 191, -1,
      191, 192, 193, -1,
      193, 192, 194, -1,
      195, 196, 197, -1,
      197, 196, 198, -1,
      197, 198, 199, -1,
      184, 183, 188, -1,
      188, 183, 200, -1,
      188, 200, 186, -1,
      187, 180, 188, -1,
      188, 180, 182, -1,
      188, 182, 201, -1,
      201, 182, 202, -1,
      201, 202, 203, -1,
      195, 204, 205, -1,
      206, 207, 203, -1,
      183, 193, 208, -1,
      208, 193, 194, -1,
      208, 194, 209, -1,
      209, 194, 210, -1,
      205, 211, 195, -1,
      195, 211, 212, -1,
      195, 212, 196, -1,
      185, 213, 183, -1,
      183, 213, 214, -1,
      183, 214, 215, -1,
      190, 216, 191, -1,
      191, 216, 217, -1,
      191, 217, 218, -1,
      198, 181, 199, -1,
      199, 181, 180, -1,
      199, 180, 219, -1,
      219, 180, 192, -1,
      219, 192, 220, -1,
      220, 192, 191, -1,
      221, 222, 195, -1,
      195, 222, 223, -1,
      195, 223, 224, -1,
      215, 225, 183, -1,
      183, 225, 226, -1,
      183, 226, 193, -1,
      224, 227, 195, -1,
      195, 227, 228, -1,
      195, 228, 204, -1,
      206, 203, 229, -1,
      229, 203, 230, -1,
      229, 230, 231, -1,
      207, 232, 203, -1,
      203, 232, 233, -1,
      203, 233, 234, -1,
      218, 235, 191, -1,
      191, 235, 236, -1,
      191, 236, 220, -1,
      221, 237, 222, -1,
      222, 237, 238, -1,
      222, 238, 239, -1,
      239, 238, 240, -1,
      241, 242, 191, -1,
      191, 242, 243, -1,
      191, 243, 189, -1,
      244, 245, 246, -1,
      244, 246, 247, -1,
      245, 248, 249, -1,
      249, 250, 245, -1,
      245, 250, 251, -1,
      245, 251, 252, -1,
      178, 253, 179, -1,
      179, 253, 254, -1,
      179, 254, 255, -1,
      256, 257, 188, -1,
      188, 257, 258, -1,
      259, 260, 261, -1,
      252, 262, 245, -1,
      245, 262, 263, -1,
      245, 263, 264, -1,
      265, 266, 201, -1,
      201, 266, 267, -1,
      201, 267, 268, -1,
      261, 269, 259, -1,
      259, 269, 270, -1,
      259, 270, 246, -1,
      246, 270, 271, -1,
      246, 271, 247, -1,
      268, 272, 201, -1,
      201, 272, 273, -1,
      201, 273, 188, -1,
      188, 273, 274, -1,
      188, 274, 256, -1,
      275, 276, 259, -1,
      259, 276, 277, -1,
      259, 277, 260, -1,
      264, 278, 245, -1,
      245, 278, 279, -1,
      245, 279, 280, -1,
      280, 281, 245, -1,
      245, 281, 282, -1,
      245, 282, 283, -1,
      284, 285, 259, -1,
      259, 285, 286, -1,
      259, 286, 275, -1,
      258, 287, 188, -1,
      188, 287, 288, -1,
      188, 288, 289, -1,
      283, 290, 245, -1,
      245, 290, 291, -1,
      245, 291, 292, -1,
      289, 284, 188, -1,
      188, 284, 259, -1,
      188, 259, 293, -1,
      293, 259, 179, -1,
      293, 179, 294, -1,
      294, 179, 255, -1,
      292, 295, 245, -1,
      245, 295, 296, -1,
      245, 296, 297, -1,
      298, 299, 300, -1,
      299, 301, 300, -1,
      300, 301, 302, -1,
      300, 302, 303, -1,
      303, 302, 304, -1,
      303, 304, 179, -1,
      179, 304, 305, -1,
      179, 305, 177, -1,
      297, 306, 245, -1,
      245, 306, 265, -1,
      245, 265, 246, -1,
      246, 265, 201, -1,
      246, 201, 307, -1,
      307, 201, 308, -1,
      307, 308, 300, -1,
      300, 308, 309, -1,
      300, 309, 310, -1,
      310, 311, 300, -1,
      300, 311, 312, -1,
      300, 312, 298, -1,
      313, 314, 315, -1,
      315, 314, 316, -1,
      315, 316, 317, -1,
      318, 319, 320, -1,
      321, 322, 191, -1,
      191, 322, 314, -1,
      323, 324, 201, -1,
      201, 324, 325, -1,
      201, 325, 326, -1,
      316, 327, 317, -1,
      317, 327, 328, -1,
      317, 328, 329, -1,
      329, 328, 330, -1,
      234, 241, 203, -1,
      203, 241, 191, -1,
      203, 191, 201, -1,
      201, 191, 314, -1,
      201, 314, 323, -1,
      323, 314, 313, -1,
      323, 313, 331, -1,
      331, 313, 332, -1,
      331, 332, 333, -1,
      333, 332, 334, -1,
      333, 335, 336, -1,
      318, 320, 191, -1,
      191, 320, 337, -1,
      191, 337, 338, -1,
      339, 340, 308, -1,
      338, 341, 191, -1,
      191, 341, 342, -1,
      191, 342, 321, -1,
      339, 308, 343, -1,
      344, 345, 329, -1,
      329, 345, 346, -1,
      347, 348, 318, -1,
      318, 348, 349, -1,
      318, 349, 319, -1,
      330, 350, 329, -1,
      329, 350, 351, -1,
      329, 351, 352, -1,
      334, 353, 333, -1,
      333, 353, 354, -1,
      333, 354, 355, -1,
      355, 356, 333, -1,
      333, 356, 357, -1,
      333, 357, 335, -1,
      358, 359, 360, -1,
      360, 359, 361, -1,
      360, 361, 336, -1,
      336, 361, 362, -1,
      336, 362, 333, -1,
      363, 364, 365, -1,
      365, 364, 366, -1,
      365, 366, 367, -1,
      367, 366, 368, -1,
      367, 368, 369, -1,
      369, 368, 370, -1,
      340, 371, 308, -1,
      308, 371, 372, -1,
      308, 372, 373, -1,
      374, 375, 346, -1,
      346, 375, 376, -1,
      346, 376, 329, -1,
      358, 360, 377, -1,
      377, 360, 378, -1,
      377, 378, 379, -1,
      326, 380, 201, -1,
      201, 380, 381, -1,
      201, 381, 308, -1,
      308, 381, 382, -1,
      308, 382, 343, -1,
      383, 308, 384, -1,
      384, 308, 373, -1,
      384, 373, 368, -1,
      368, 373, 385, -1,
      368, 385, 370, -1,
      347, 386, 348, -1,
      348, 386, 387, -1,
      348, 387, 388, -1,
      352, 389, 329, -1,
      329, 389, 390, -1,
      329, 390, 344, -1,
      383, 391, 308, -1,
      308, 391, 392, -1,
      308, 392, 393, -1,
      393, 392, 394, -1,
      393, 394, 348, -1,
      388, 395, 348, -1,
      348, 395, 396, -1,
      348, 396, 393, -1,
      42, 388, 43, -1,
      43, 388, 387, -1,
      43, 387, 44, -1,
      44, 387, 386, -1,
      44, 386, 45, -1,
      45, 386, 347, -1,
      45, 347, 46, -1,
      46, 347, 318, -1,
      46, 318, 47, -1,
      7, 396, 42, -1,
      42, 396, 395, -1,
      42, 395, 388, -1,
      7, 6, 396, -1,
      396, 6, 48, -1,
      396, 48, 393, -1,
      48, 1, 393, -1,
      393, 1, 308, -1,
      1, 0, 308, -1,
      308, 0, 111, -1,
      308, 111, 113, -1,
      20, 309, 22, -1,
      22, 309, 308, -1,
      22, 308, 114, -1,
      114, 308, 113, -1,
      309, 20, 19, -1,
      309, 19, 310, -1,
      310, 19, 29, -1,
      310, 29, 311, -1,
      311, 29, 28, -1,
      311, 28, 312, -1,
      312, 28, 26, -1,
      312, 26, 298, -1,
      298, 26, 25, -1,
      298, 25, 299, -1,
      299, 25, 27, -1,
      299, 27, 301, -1,
      301, 27, 21, -1,
      301, 21, 302, -1,
      302, 21, 24, -1,
      302, 24, 304, -1,
      56, 305, 57, -1,
      57, 305, 304, -1,
      57, 304, 3, -1,
      3, 304, 24, -1,
      305, 56, 34, -1,
      305, 34, 177, -1,
      177, 34, 36, -1,
      177, 36, 178, -1,
      178, 36, 38, -1,
      178, 38, 253, -1,
      253, 38, 37, -1,
      253, 37, 254, -1,
      254, 37, 35, -1,
      254, 35, 255, -1,
      255, 35, 33, -1,
      255, 33, 294, -1,
      294, 33, 31, -1,
      294, 31, 293, -1,
      293, 31, 30, -1,
      293, 30, 188, -1,
      30, 88, 188, -1,
      188, 88, 86, -1,
      188, 86, 176, -1,
      15, 184, 17, -1,
      17, 184, 188, -1,
      17, 188, 175, -1,
      175, 188, 176, -1,
      184, 15, 14, -1,
      184, 14, 185, -1,
      185, 14, 9, -1,
      185, 9, 213, -1,
      9, 170, 213, -1,
      213, 170, 169, -1,
      213, 169, 214, -1,
      214, 169, 41, -1,
      214, 41, 215, -1,
      215, 41, 40, -1,
      215, 40, 225, -1,
      225, 40, 39, -1,
      225, 39, 226, -1,
      226, 39, 171, -1,
      226, 171, 193, -1,
      171, 117, 193, -1,
      193, 117, 191, -1,
      47, 318, 120, -1,
      120, 318, 191, -1,
      120, 191, 119, -1,
      119, 191, 117, -1,
    ]
  }
}

Shape {
  appearance Appearance {
    material Material {
      diffuseColor 1.0000 1.0000 1.0000
      specularColor 0.5020 0.5020 0.5020
      ambientIntensity 0.2
      transparency 0.0000
      shininess 0.5
    }
  }
  geometry IndexedFaceSet {
    ccw TRUE
    solid FALSE
    coord DEF co Coordinate {
      point [
        1.742126 -0.094333 0.000000,
        1.742126 0.104918 0.000000,
        -1.742126 1.574803 0.000000,
        -1.742126 0.104918 0.000000,
        -1.742126 -0.094333 0.000000,
        -0.875984 1.574803 0.000000,
        -0.875984 0.104918 0.000000,
        1.742126 1.574803 0.000000,
        1.742126 -1.574803 0.000000,
        0.875984 -1.574803 0.000000,
        0.875984 -0.094333 0.000000,
        0.875984 1.574803 0.000000,
        0.875984 0.104918 0.000000,
        -1.742126 -1.574803 0.000000,
        -0.875984 -1.574803 0.000000,
        -0.875984 -0.094333 0.000000,
        -0.915354 1.535433 -0.039370,
        -0.915354 -1.535433 -0.039370,
        -1.702756 1.535433 -0.039370,
        -1.702756 -1.535433 -0.039370,
        1.702756 1.535433 -0.039370,
        1.702756 -1.535433 -0.039370,
        0.915354 1.535433 -0.039370,
        0.915354 -1.535433 -0.039370,
        1.730595 -1.563272 -0.027839,
        0.895669 -1.555118 -0.034096,
        1.722441 -1.555118 -0.034096,
        0.905165 -1.545623 -0.038029,
        1.712946 -1.545623 -0.038029,
        1.741789 -1.574466 -0.005139,
        0.876321 -1.574466 -0.005139,
        1.740785 -1.573462 -0.010190,
        0.877326 -1.573462 -0.010190,
        1.739129 -1.571806 -0.015066,
        0.878981 -1.571806 -0.015066,
        1.736851 -1.569529 -0.019685,
        0.881259 -1.569529 -0.019685,
        1.733990 -1.566668 -0.023967,
        0.884120 -1.566668 -0.023967,
        0.887515 -1.563272 -0.027839,
        0.895669 1.555118 -0.034096,
        0.905165 1.545623 -0.038029,
        0.877326 1.573462 -0.010190,
        0.878981 1.571806 -0.015066,
        0.881259 1.569529 -0.019685,
        0.884120 1.566668 -0.023967,
        0.887515 1.563272 -0.027839,
        0.876321 1.574466 -0.005139,
        1.741789 1.574466 -0.005139,
        1.740785 1.573462 -0.010190,
        1.739129 1.571806 -0.015066,
        1.736851 1.569529 -0.019685,
        1.733990 1.566668 -0.023967,
        1.730595 1.563272 -0.027839,
        1.722441 1.555118 -0.034096,
        1.712946 1.545623 -0.038029,
        -1.733990 -1.566668 -0.023967,
        -1.730595 -1.563272 -0.027839,
        -0.887515 -1.563272 -0.027839,
        -1.722441 -1.555118 -0.034096,
        -0.895669 -1.555118 -0.034096,
        -1.712946 -1.545623 -0.038029,
        -0.905165 -1.545623 -0.038029,
        -0.884120 -1.566668 -0.023967,
        -0.881259 -1.569529 -0.019685,
        -1.736851 -1.569529 -0.019685,
        -0.878981 -1.571806 -0.015066,
        -1.739129 -1.571806 -0.015066,
        -0.877326 -1.573462 -0.010190,
        -1.740785 -1.573462 -0.010190,
        -0.876321 -1.574466 -0.005139,
        -1.741789 -1.574466 -0.005139,
        -1.722441 1.555118 -0.034096,
        -1.712946 1.545623 -0.038029,
        -1.740785 1.573462 -0.010190,
        -1.739129 1.571806 -0.015066,
        -1.736851 1.569529 -0.019685,
        -1.733990 1.566668 -0.023967,
        -1.730595 1.563272 -0.027839,
        -1.741789 1.574466 -0.005139,
        -0.876321 1.574466 -0.005139,
        -0.877326 1.573462 -0.010190,
        -0.878981 1.571806 -0.015066,
        -0.881259 1.569529 -0.019685,
        -0.884120 1.566668 -0.023967,
        -0.887515 1.563272 -0.027839,
        -0.895669 1.555118 -0.034096,
        -0.905165 1.545623 -0.038029,
      ]
    }
    coordIndex [
      16, 17, 18, -1,
      18, 17, 19, -1,
      20, 21, 22, -1,
      22, 21, 23, -1,
      24, 25, 26, -1,
      26, 25, 27, -1,
      26, 27, 28, -1,
      28, 27, 23, -1,
      28, 23, 21, -1,
      8, 9, 29, -1,
      29, 9, 30, -1,
      29, 30, 31, -1,
      31, 30, 32, -1,
      31, 32, 33, -1,
      33, 32, 34, -1,
      33, 34, 35, -1,
      35, 34, 36, -1,
      35, 36, 37, -1,
      37, 36, 38, -1,
      37, 38, 24, -1,
      24, 38, 39, -1,
      24, 39, 25, -1,
      39, 40, 25, -1,
      25, 40, 41, -1,
      25, 41, 27, -1,
      27, 41, 22, -1,
      27, 22, 23, -1,
      32, 42, 34, -1,
      34, 42, 43, -1,
      34, 43, 36, -1,
      36, 43, 44, -1,
      36, 44, 38, -1,
      38, 44, 45, -1,
      38, 45, 39, -1,
      39, 45, 46, -1,
      39, 46, 40, -1,
      30, 9, 10, -1,
      11, 47, 12, -1,
      12, 47, 42, -1,
      12, 42, 10, -1,
      10, 42, 32, -1,
      10, 32, 30, -1,
      7, 1, 48, -1,
      48, 1, 49, -1,
      31, 0, 29, -1,
      29, 0, 8, -1,
      1, 0, 49, -1,
      49, 0, 31, -1,
      49, 31, 50, -1,
      50, 31, 33, -1,
      50, 33, 51, -1,
      33, 35, 51, -1,
      51, 35, 37, -1,
      51, 37, 52, -1,
      52, 37, 53, -1,
      37, 24, 53, -1,
      53, 24, 26, -1,
      53, 26, 54, -1,
      54, 26, 28, -1,
      54, 28, 55, -1,
      55, 28, 21, -1,
      55, 21, 20, -1,
      20, 22, 41, -1,
      20, 41, 55, -1,
      55, 41, 40, -1,
      55, 40, 54, -1,
      54, 40, 46, -1,
      54, 46, 53, -1,
      53, 46, 52, -1,
      52, 46, 45, -1,
      52, 45, 51, -1,
      42, 50, 43, -1,
      43, 50, 51, -1,
      43, 51, 44, -1,
      44, 51, 45, -1,
      11, 7, 47, -1,
      47, 7, 48, -1,
      47, 48, 42, -1,
      42, 48, 49, -1,
      42, 49, 50, -1,
      56, 57, 58, -1,
      58, 57, 59, -1,
      58, 59, 60, -1,
      60, 59, 61, -1,
      60, 61, 62, -1,
      62, 61, 19, -1,
      62, 19, 17, -1,
      58, 63, 56, -1,
      56, 63, 64, -1,
      56, 64, 65, -1,
      65, 64, 66, -1,
      65, 66, 67, -1,
      67, 66, 68, -1,
      67, 68, 69, -1,
      69, 68, 70, -1,
      69, 70, 71, -1,
      71, 70, 14, -1,
      71, 14, 13, -1,
      57, 72, 59, -1,
      59, 72, 73, -1,
      59, 73, 61, -1,
      61, 73, 18, -1,
      61, 18, 19, -1,
      69, 74, 67, -1,
      67, 74, 75, -1,
      67, 75, 65, -1,
      65, 75, 76, -1,
      65, 76, 56, -1,
      56, 76, 77, -1,
      56, 77, 57, -1,
      57, 77, 78, -1,
      57, 78, 72, -1,
      71, 13, 4, -1,
      2, 79, 3, -1,
      3, 79, 74, -1,
      3, 74, 4, -1,
      4, 74, 69, -1,
      4, 69, 71, -1,
      5, 6, 80, -1,
      80, 6, 81, -1,
      68, 15, 70, -1,
      70, 15, 14, -1,
      6, 15, 81, -1,
      81, 15, 68, -1,
      81, 68, 82, -1,
      82, 68, 66, -1,
      82, 66, 83, -1,
      66, 64, 83, -1,
      83, 64, 63, -1,
      83, 63, 84, -1,
      84, 63, 85, -1,
      63, 58, 85, -1,
      85, 58, 60, -1,
      85, 60, 86, -1,
      86, 60, 62, -1,
      86, 62, 87, -1,
      87, 62, 17, -1,
      87, 17, 16, -1,
      78, 86, 72, -1,
      72, 86, 87, -1,
      72, 87, 73, -1,
      73, 87, 16, -1,
      73, 16, 18, -1,
      2, 5, 79, -1,
      79, 5, 80, -1,
      79, 80, 74, -1,
      74, 80, 81, -1,
      74, 81, 75, -1,
      75, 81, 82, -1,
      75, 82, 76, -1,
      76, 82, 83, -1,
      76, 83, 77, -1,
      77, 83, 84, -1,
      77, 84, 78, -1,
      78, 84, 85, -1,
      78, 85, 86, -1,
    ]
  }
}

Shape {
  appearance Appearance {
    material Material {
      diffuseColor 0.7529 0.7529 0.7529
      specularColor 0.3765 0.3765 0.3765
      ambientIntensity 0.2
      transparency 0.0000
      shininess 0.5
    }
  }
  geometry IndexedFaceSet {
    ccw TRUE
    solid FALSE
    coord DEF co Coordinate {
      point [
        1.374039 1.547102 3.897638,
        -0.754923 0.388144 3.897638,
        -1.062352 0.150483 3.897638,
        -0.762125 0.128427 3.897638,
        -0.920565 0.596997 3.897638,
        -0.810293 0.502131 3.897638,
        -0.754923 0.416163 3.897638,
        -1.256988 -0.161453 3.897638,
        -1.292927 -0.137163 3.897638,
        -1.352676 0.388144 3.897638,
        -1.352676 0.460162 3.897638,
        -1.295061 0.035816 3.897638,
        -1.057400 0.049882 3.897638,
        -1.287104 0.098577 3.897638,
        -1.058508 0.100251 3.897638,
        -1.264454 0.157685 3.897638,
        -0.848547 0.596997 3.897638,
        -0.762125 -0.151994 3.897638,
        -0.826941 -0.151994 3.897638,
        -1.084293 -0.056876 3.897638,
        -1.076561 -0.044009 3.897638,
        -0.997655 -0.034865 3.897638,
        -1.011249 -0.080945 3.897638,
        -0.917900 0.587280 3.897638,
        -0.888291 0.515950 3.897638,
        -0.851022 0.460162 3.897638,
        -1.063902 -0.009769 3.897638,
        -1.057472 0.044427 3.897638,
        -1.322709 -0.103459 3.897638,
        -1.343676 -0.063612 3.897638,
        -1.357726 -0.005638 3.897638,
        -1.336809 0.157685 3.897638,
        -1.344617 0.140940 3.897638,
        -1.291307 -0.003273 3.897638,
        -1.196186 -0.099857 3.897638,
        -1.173643 -0.101582 3.897638,
        -1.143344 -0.098119 3.897638,
        -1.120753 -0.089716 3.897638,
        -1.100488 -0.075546 3.897638,
        -0.992584 0.023775 3.897638,
        -0.826941 0.065974 3.897638,
        -0.994834 0.078464 3.897638,
        -1.034242 -0.120582 3.897638,
        -1.059802 -0.146592 3.897638,
        -1.088726 -0.164611 3.897638,
        -1.359878 0.032665 3.897638,
        -1.355643 0.096662 3.897638,
        -1.281102 -0.034275 3.897638,
        -1.264511 -0.060629 3.897638,
        -1.221610 -0.092779 3.897638,
        -1.245585 -0.079024 3.897638,
        -1.122596 -0.176040 3.897638,
        -1.168804 -0.180802 3.897638,
        -1.218589 -0.175331 3.897638,
        0.806062 -0.274426 3.897638,
        0.647622 -0.274426 3.897638,
        1.290745 -0.281628 3.897638,
        0.816819 -0.246828 3.897638,
        0.692917 -0.178919 3.897638,
        0.718632 -0.070755 3.897638,
        0.723241 0.002170 3.897638,
        0.714517 0.097906 3.897638,
        0.687980 0.186100 3.897638,
        -0.279919 0.352170 3.897638,
        -0.215350 0.435469 3.897638,
        -0.130562 0.506707 3.897638,
        1.290745 1.547102 3.897638,
        0.794307 0.277094 3.897638,
        0.833356 0.168752 3.897638,
        0.638551 0.270105 3.897638,
        0.580364 0.332168 3.897638,
        0.498270 0.388234 3.897638,
        -0.151783 -0.274426 3.897638,
        -0.281416 -0.274426 3.897638,
        -0.325871 -0.173361 3.897638,
        -0.349739 -0.064682 3.897638,
        0.850959 0.056374 3.897638,
        0.852874 0.003520 3.897638,
        0.843118 -0.137871 3.897638,
        -0.357035 0.050557 3.897638,
        -0.349435 0.156426 3.897638,
        -0.322845 0.261844 3.897638,
        0.555246 0.527693 3.897638,
        0.651242 0.461424 3.897638,
        0.731704 0.377356 3.897638,
        0.405925 0.424391 3.897638,
        0.305695 0.442492 3.897638,
        0.235316 0.445758 3.897638,
        0.136966 0.438929 3.897638,
        0.039140 0.415091 3.897638,
        -0.044866 0.374654 3.897638,
        0.225639 0.604199 3.897638,
        0.339523 0.596748 3.897638,
        0.453327 0.571322 3.897638,
        -0.032381 0.558677 3.897638,
        0.075000 0.590187 3.897638,
        0.190033 0.603389 3.897638,
        -0.120078 0.313295 3.897638,
        -0.177916 0.235158 3.897638,
        -0.212578 0.148749 3.897638,
        -0.226506 0.056202 3.897638,
        -0.227402 0.028727 3.897638,
        -0.218161 -0.087757 3.897638,
        1.374039 -1.547102 3.897638,
        1.374039 -0.281628 3.897638,
        -0.189911 -0.194169 3.897638,
        1.290745 -1.547102 3.897638,
        -1.014189 -0.346444 3.897638,
        -1.250050 -0.288830 3.897638,
        -1.079006 -0.346444 3.897638,
        -1.278072 -0.337310 3.897638,
        -1.079006 -0.395394 3.897638,
        -1.295220 -0.593815 3.897638,
        -1.322838 -0.561859 3.897638,
        -1.337159 -0.303646 3.897638,
        -1.329270 -0.288830 3.897638,
        -0.864751 -0.310435 3.897638,
        -0.799934 -0.310435 3.897638,
        -0.772755 -0.356045 3.897638,
        -0.758352 -0.404566 3.897638,
        -1.292203 -0.387237 3.897638,
        -1.295061 -0.424315 3.897638,
        -1.083066 -0.451250 3.897638,
        -1.291593 -0.463242 3.897638,
        -0.842023 -0.343215 3.897638,
        -1.014189 -0.392919 3.897638,
        -0.825032 -0.384803 3.897638,
        -1.010492 -0.441324 3.897638,
        -0.915733 -0.533629 3.897638,
        -0.913138 -0.533693 3.897638,
        -1.342964 -0.523501 3.897638,
        -1.357106 -0.467638 3.897638,
        -0.811865 -0.584808 3.897638,
        -0.835778 -0.600148 3.897638,
        -1.359878 -0.424315 3.897638,
        -1.353511 -0.354446 3.897638,
        -0.788995 -0.561078 3.897638,
        -1.187934 -0.555298 3.897638,
        -1.161270 -0.552581 3.897638,
        -1.141089 -0.545704 3.897638,
        -1.228973 -0.629112 3.897638,
        -1.262765 -0.616413 3.897638,
        -1.282250 -0.493507 3.897638,
        -1.270101 -0.514759 3.897638,
        -1.253984 -0.532329 3.897638,
        -1.001689 -0.474530 3.897638,
        -0.989087 -0.498163 3.897638,
        -0.975954 -0.512819 3.897638,
        -0.960865 -0.523202 3.897638,
        -0.942517 -0.530144 3.897638,
        -0.835028 -0.495545 3.897638,
        -0.826020 -0.474717 3.897638,
        -0.888835 -0.531580 3.897638,
        -0.820150 -0.440502 3.897638,
        -0.819739 -0.426228 3.897638,
        -1.041759 -0.492282 3.897638,
        -1.043222 -0.492282 3.897638,
        -1.037882 -0.505336 3.897638,
        -1.052190 -0.535911 3.897638,
        -1.018344 -0.548235 3.897638,
        -1.067110 -0.569222 3.897638,
        -0.998853 -0.573439 3.897638,
        -0.988181 -0.583136 3.897638,
        -0.863635 -0.609765 3.897638,
        -0.894796 -0.612913 3.897638,
        -0.932278 -0.609173 3.897638,
        -1.123303 -0.534285 3.897638,
        -1.108525 -0.518579 3.897638,
        -1.094900 -0.494280 3.897638,
        -0.842498 -0.506180 3.897638,
        -0.869798 -0.525961 3.897638,
        -0.854975 -0.517730 3.897638,
        -0.754923 -0.445807 3.897638,
        -0.759425 -0.493423 3.897638,
        -0.771367 -0.531442 3.897638,
        -1.113428 -0.616197 3.897638,
        -1.089103 -0.597239 3.897638,
        -0.962809 -0.599033 3.897638,
        -1.236647 -0.544236 3.897638,
        -1.215860 -0.551991 3.897638,
        -1.139837 -0.628072 3.897638,
        -1.169354 -0.633955 3.897638,
        -1.183320 -0.634518 3.897638,
        -0.151783 -0.274426 3.897244,
        -0.281416 -0.274426 3.897244,
        -0.357035 0.050557 3.897244,
        -0.349739 -0.064682 3.897244,
        -0.325871 -0.173361 3.897244,
        0.225639 0.604199 3.897244,
        0.190033 0.603389 3.897244,
        0.075000 0.590187 3.897244,
        -0.032381 0.558677 3.897244,
        -0.130562 0.506707 3.897244,
        -0.215350 0.435469 3.897244,
        -0.279919 0.352170 3.897244,
        -0.322845 0.261844 3.897244,
        -0.349435 0.156426 3.897244,
        0.852874 0.003520 3.897244,
        0.850959 0.056374 3.897244,
        0.833356 0.168752 3.897244,
        0.794307 0.277094 3.897244,
        0.731704 0.377356 3.897244,
        0.651242 0.461424 3.897244,
        0.555246 0.527693 3.897244,
        0.453327 0.571322 3.897244,
        0.339523 0.596748 3.897244,
        0.806062 -0.274426 3.897244,
        0.816819 -0.246828 3.897244,
        0.843118 -0.137871 3.897244,
        0.647622 -0.274426 3.897244,
        0.723241 0.002170 3.897244,
        0.718632 -0.070755 3.897244,
        0.692917 -0.178919 3.897244,
        0.235316 0.445758 3.897244,
        0.305695 0.442492 3.897244,
        0.405925 0.424391 3.897244,
        0.498270 0.388234 3.897244,
        0.580364 0.332168 3.897244,
        0.638551 0.270105 3.897244,
        0.687980 0.186100 3.897244,
        0.714517 0.097906 3.897244,
        -0.227402 0.028727 3.897244,
        -0.226506 0.056202 3.897244,
        -0.212578 0.148749 3.897244,
        -0.177916 0.235158 3.897244,
        -0.120078 0.313295 3.897244,
        -0.044866 0.374654 3.897244,
        0.039140 0.415091 3.897244,
        0.136966 0.438929 3.897244,
        -0.189911 -0.194169 3.897244,
        -0.218161 -0.087757 3.897244,
        1.290745 -1.547102 3.897244,
        1.290745 1.547102 3.897244,
        1.374039 1.547102 3.897244,
        1.374039 -1.547102 3.897244,
        -1.329270 -0.288830 3.897244,
        -1.250050 -0.288830 3.897244,
        -1.295061 -0.424315 3.897244,
        -1.292203 -0.387237 3.897244,
        -1.278072 -0.337310 3.897244,
        -1.187934 -0.555298 3.897244,
        -1.215860 -0.551991 3.897244,
        -1.236647 -0.544236 3.897244,
        -1.253984 -0.532329 3.897244,
        -1.270101 -0.514759 3.897244,
        -1.282250 -0.493507 3.897244,
        -1.291593 -0.463242 3.897244,
        -1.079006 -0.395394 3.897244,
        -1.083066 -0.451250 3.897244,
        -1.094900 -0.494280 3.897244,
        -1.108525 -0.518579 3.897244,
        -1.123303 -0.534285 3.897244,
        -1.141089 -0.545704 3.897244,
        -1.161270 -0.552581 3.897244,
        -1.079006 -0.346444 3.897244,
        -1.014189 -0.346444 3.897244,
        -1.014189 -0.392919 3.897244,
        -0.913138 -0.533693 3.897244,
        -0.915733 -0.533629 3.897244,
        -0.942517 -0.530144 3.897244,
        -0.960865 -0.523202 3.897244,
        -0.975954 -0.512819 3.897244,
        -0.989087 -0.498163 3.897244,
        -1.001689 -0.474530 3.897244,
        -1.010492 -0.441324 3.897244,
        -0.819739 -0.426228 3.897244,
        -0.820150 -0.440502 3.897244,
        -0.826020 -0.474717 3.897244,
        -0.835028 -0.495545 3.897244,
        -0.842498 -0.506180 3.897244,
        -0.854975 -0.517730 3.897244,
        -0.869798 -0.525961 3.897244,
        -0.888835 -0.531580 3.897244,
        -0.864751 -0.310435 3.897244,
        -0.842023 -0.343215 3.897244,
        -0.825032 -0.384803 3.897244,
        -0.799934 -0.310435 3.897244,
        -0.754923 -0.445807 3.897244,
        -0.758352 -0.404566 3.897244,
        -0.772755 -0.356045 3.897244,
        -0.894796 -0.612913 3.897244,
        -0.863635 -0.609765 3.897244,
        -0.835778 -0.600148 3.897244,
        -0.811865 -0.584808 3.897244,
        -0.788995 -0.561078 3.897244,
        -0.771367 -0.531442 3.897244,
        -0.759425 -0.493423 3.897244,
        -1.041759 -0.492282 3.897244,
        -1.037882 -0.505336 3.897244,
        -1.018344 -0.548235 3.897244,
        -0.998853 -0.573439 3.897244,
        -0.988181 -0.583136 3.897244,
        -0.962809 -0.599033 3.897244,
        -0.932278 -0.609173 3.897244,
        -1.043222 -0.492282 3.897244,
        -1.183320 -0.634518 3.897244,
        -1.169354 -0.633955 3.897244,
        -1.139837 -0.628072 3.897244,
        -1.113428 -0.616197 3.897244,
        -1.089103 -0.597239 3.897244,
        -1.067110 -0.569222 3.897244,
        -1.052190 -0.535911 3.897244,
        -1.359878 -0.424315 3.897244,
        -1.357106 -0.467638 3.897244,
        -1.342964 -0.523501 3.897244,
        -1.322838 -0.561859 3.897244,
        -1.295220 -0.593815 3.897244,
        -1.262765 -0.616413 3.897244,
        -1.228973 -0.629112 3.897244,
        -1.337159 -0.303646 3.897244,
        -1.353511 -0.354446 3.897244,
        -1.168804 -0.180802 3.897244,
        -1.122596 -0.176040 3.897244,
        -1.088726 -0.164611 3.897244,
        -1.059802 -0.146592 3.897244,
        -1.034242 -0.120582 3.897244,
        -1.011249 -0.080945 3.897244,
        -0.997655 -0.034865 3.897244,
        -0.992584 0.023775 3.897244,
        -1.359878 0.032665 3.897244,
        -1.357726 -0.005638 3.897244,
        -1.343676 -0.063612 3.897244,
        -1.322709 -0.103459 3.897244,
        -1.292927 -0.137163 3.897244,
        -1.256988 -0.161453 3.897244,
        -1.218589 -0.175331 3.897244,
        -1.336809 0.157685 3.897244,
        -1.344617 0.140940 3.897244,
        -1.355643 0.096662 3.897244,
        -1.264454 0.157685 3.897244,
        -1.295061 0.035816 3.897244,
        -1.287104 0.098577 3.897244,
        -1.173643 -0.101582 3.897244,
        -1.196186 -0.099857 3.897244,
        -1.221610 -0.092779 3.897244,
        -1.245585 -0.079024 3.897244,
        -1.264511 -0.060629 3.897244,
        -1.281102 -0.034275 3.897244,
        -1.291307 -0.003273 3.897244,
        -1.057400 0.049882 3.897244,
        -1.057472 0.044427 3.897244,
        -1.063902 -0.009769 3.897244,
        -1.076561 -0.044009 3.897244,
        -1.084293 -0.056876 3.897244,
        -1.100488 -0.075546 3.897244,
        -1.120753 -0.089716 3.897244,
        -1.143344 -0.098119 3.897244,
        -1.062352 0.150483 3.897244,
        -1.058508 0.100251 3.897244,
        -0.762125 0.128427 3.897244,
        -0.762125 -0.151994 3.897244,
        -0.826941 -0.151994 3.897244,
        -0.826941 0.065974 3.897244,
        -0.994834 0.078464 3.897244,
        -1.352676 0.388144 3.897244,
        -1.352676 0.460162 3.897244,
        -0.851022 0.460162 3.897244,
        -0.920565 0.596997 3.897244,
        -0.917900 0.587280 3.897244,
        -0.888291 0.515950 3.897244,
        -0.848547 0.596997 3.897244,
        -0.754923 0.416163 3.897244,
        -0.810293 0.502131 3.897244,
        -0.754923 0.388144 3.897244,
      ]
    }
    coordIndex [
      183, 184, 72, -1,
      72, 184, 73, -1,
      185, 79, 75, -1,
      185, 75, 186, -1,
      186, 75, 74, -1,
      186, 74, 187, -1,
      187, 74, 73, -1,
      187, 73, 184, -1,
      188, 91, 96, -1,
      188, 96, 189, -1,
      189, 96, 95, -1,
      189, 95, 190, -1,
      190, 95, 94, -1,
      190, 94, 191, -1,
      191, 94, 65, -1,
      191, 65, 192, -1,
      192, 65, 64, -1,
      192, 64, 193, -1,
      193, 64, 63, -1,
      193, 63, 194, -1,
      194, 63, 81, -1,
      194, 81, 195, -1,
      195, 81, 80, -1,
      195, 80, 196, -1,
      196, 80, 79, -1,
      196, 79, 185, -1,
      197, 77, 76, -1,
      197, 76, 198, -1,
      198, 76, 68, -1,
      198, 68, 199, -1,
      199, 68, 67, -1,
      199, 67, 200, -1,
      200, 67, 84, -1,
      200, 84, 201, -1,
      201, 84, 83, -1,
      201, 83, 202, -1,
      202, 83, 82, -1,
      202, 82, 203, -1,
      203, 82, 93, -1,
      203, 93, 204, -1,
      204, 93, 92, -1,
      204, 92, 205, -1,
      205, 92, 91, -1,
      205, 91, 188, -1,
      206, 54, 57, -1,
      206, 57, 207, -1,
      207, 57, 78, -1,
      207, 78, 208, -1,
      208, 78, 77, -1,
      208, 77, 197, -1,
      206, 209, 54, -1,
      54, 209, 55, -1,
      210, 60, 59, -1,
      210, 59, 211, -1,
      211, 59, 58, -1,
      211, 58, 212, -1,
      212, 58, 55, -1,
      212, 55, 209, -1,
      213, 87, 86, -1,
      213, 86, 214, -1,
      214, 86, 85, -1,
      214, 85, 215, -1,
      215, 85, 71, -1,
      215, 71, 216, -1,
      216, 71, 70, -1,
      216, 70, 217, -1,
      217, 70, 69, -1,
      217, 69, 218, -1,
      218, 69, 62, -1,
      218, 62, 219, -1,
      219, 62, 61, -1,
      219, 61, 220, -1,
      220, 61, 60, -1,
      220, 60, 210, -1,
      221, 101, 100, -1,
      221, 100, 222, -1,
      222, 100, 99, -1,
      222, 99, 223, -1,
      223, 99, 98, -1,
      223, 98, 224, -1,
      224, 98, 97, -1,
      224, 97, 225, -1,
      225, 97, 90, -1,
      225, 90, 226, -1,
      226, 90, 89, -1,
      226, 89, 227, -1,
      227, 89, 88, -1,
      227, 88, 228, -1,
      228, 88, 87, -1,
      228, 87, 213, -1,
      183, 72, 105, -1,
      183, 105, 229, -1,
      229, 105, 102, -1,
      229, 102, 230, -1,
      230, 102, 101, -1,
      230, 101, 221, -1,
      185, 186, 230, -1,
      230, 186, 187, -1,
      230, 187, 229, -1,
      229, 187, 184, -1,
      229, 184, 183, -1,
      225, 194, 224, -1,
      224, 194, 195, -1,
      224, 195, 223, -1,
      223, 195, 196, -1,
      223, 196, 222, -1,
      222, 196, 185, -1,
      222, 185, 221, -1,
      221, 185, 230, -1,
      209, 206, 212, -1,
      212, 206, 207, -1,
      212, 207, 211, -1,
      211, 207, 208, -1,
      211, 208, 210, -1,
      208, 197, 210, -1,
      210, 197, 198, -1,
      210, 198, 220, -1,
      220, 198, 199, -1,
      220, 199, 219, -1,
      219, 199, 200, -1,
      219, 200, 218, -1,
      218, 200, 201, -1,
      218, 201, 217, -1,
      217, 201, 202, -1,
      217, 202, 216, -1,
      216, 202, 203, -1,
      216, 203, 215, -1,
      215, 203, 204, -1,
      215, 204, 214, -1,
      214, 204, 205, -1,
      214, 205, 213, -1,
      205, 188, 213, -1,
      213, 188, 189, -1,
      213, 189, 228, -1,
      228, 189, 190, -1,
      228, 190, 227, -1,
      227, 190, 191, -1,
      227, 191, 226, -1,
      226, 191, 192, -1,
      226, 192, 225, -1,
      225, 192, 193, -1,
      225, 193, 194, -1,
      106, 231, 56, -1,
      56, 231, 232, -1,
      56, 232, 66, -1,
      232, 233, 66, -1,
      66, 233, 0, -1,
      0, 233, 104, -1,
      104, 233, 234, -1,
      104, 234, 103, -1,
      234, 231, 103, -1,
      103, 231, 106, -1,
      234, 233, 231, -1,
      231, 233, 232, -1,
      235, 236, 115, -1,
      115, 236, 108, -1,
      237, 121, 120, -1,
      237, 120, 238, -1,
      238, 120, 110, -1,
      238, 110, 239, -1,
      239, 110, 108, -1,
      239, 108, 236, -1,
      240, 137, 179, -1,
      240, 179, 241, -1,
      241, 179, 178, -1,
      241, 178, 242, -1,
      242, 178, 144, -1,
      242, 144, 243, -1,
      243, 144, 143, -1,
      243, 143, 244, -1,
      244, 143, 142, -1,
      244, 142, 245, -1,
      245, 142, 123, -1,
      245, 123, 246, -1,
      246, 123, 121, -1,
      246, 121, 237, -1,
      247, 111, 122, -1,
      247, 122, 248, -1,
      248, 122, 168, -1,
      248, 168, 249, -1,
      249, 168, 167, -1,
      249, 167, 250, -1,
      250, 167, 166, -1,
      250, 166, 251, -1,
      251, 166, 139, -1,
      251, 139, 252, -1,
      252, 139, 138, -1,
      252, 138, 253, -1,
      253, 138, 137, -1,
      253, 137, 240, -1,
      247, 254, 111, -1,
      111, 254, 109, -1,
      254, 255, 109, -1,
      109, 255, 107, -1,
      255, 256, 107, -1,
      107, 256, 125, -1,
      257, 129, 128, -1,
      257, 128, 258, -1,
      258, 128, 149, -1,
      258, 149, 259, -1,
      259, 149, 148, -1,
      259, 148, 260, -1,
      260, 148, 147, -1,
      260, 147, 261, -1,
      261, 147, 146, -1,
      261, 146, 262, -1,
      262, 146, 145, -1,
      262, 145, 263, -1,
      263, 145, 127, -1,
      263, 127, 264, -1,
      264, 127, 125, -1,
      264, 125, 256, -1,
      265, 154, 153, -1,
      265, 153, 266, -1,
      266, 153, 151, -1,
      266, 151, 267, -1,
      267, 151, 150, -1,
      267, 150, 268, -1,
      268, 150, 169, -1,
      268, 169, 269, -1,
      269, 169, 171, -1,
      269, 171, 270, -1,
      270, 171, 170, -1,
      270, 170, 271, -1,
      271, 170, 152, -1,
      271, 152, 272, -1,
      272, 152, 129, -1,
      272, 129, 257, -1,
      273, 116, 124, -1,
      273, 124, 274, -1,
      274, 124, 126, -1,
      274, 126, 275, -1,
      275, 126, 154, -1,
      275, 154, 265, -1,
      273, 276, 116, -1,
      116, 276, 117, -1,
      277, 172, 119, -1,
      277, 119, 278, -1,
      278, 119, 118, -1,
      278, 118, 279, -1,
      279, 118, 117, -1,
      279, 117, 276, -1,
      280, 164, 163, -1,
      280, 163, 281, -1,
      281, 163, 133, -1,
      281, 133, 282, -1,
      282, 133, 132, -1,
      282, 132, 283, -1,
      283, 132, 136, -1,
      283, 136, 284, -1,
      284, 136, 174, -1,
      284, 174, 285, -1,
      285, 174, 173, -1,
      285, 173, 286, -1,
      286, 173, 172, -1,
      286, 172, 277, -1,
      287, 155, 157, -1,
      287, 157, 288, -1,
      288, 157, 159, -1,
      288, 159, 289, -1,
      289, 159, 161, -1,
      289, 161, 290, -1,
      290, 161, 162, -1,
      290, 162, 291, -1,
      291, 162, 177, -1,
      291, 177, 292, -1,
      292, 177, 165, -1,
      292, 165, 293, -1,
      293, 165, 164, -1,
      293, 164, 280, -1,
      287, 294, 155, -1,
      155, 294, 156, -1,
      295, 182, 181, -1,
      295, 181, 296, -1,
      296, 181, 180, -1,
      296, 180, 297, -1,
      297, 180, 175, -1,
      297, 175, 298, -1,
      298, 175, 176, -1,
      298, 176, 299, -1,
      299, 176, 160, -1,
      299, 160, 300, -1,
      300, 160, 158, -1,
      300, 158, 301, -1,
      301, 158, 156, -1,
      301, 156, 294, -1,
      302, 134, 131, -1,
      302, 131, 303, -1,
      303, 131, 130, -1,
      303, 130, 304, -1,
      304, 130, 113, -1,
      304, 113, 305, -1,
      305, 113, 112, -1,
      305, 112, 306, -1,
      306, 112, 141, -1,
      306, 141, 307, -1,
      307, 141, 140, -1,
      307, 140, 308, -1,
      308, 140, 182, -1,
      308, 182, 295, -1,
      235, 115, 114, -1,
      235, 114, 309, -1,
      309, 114, 135, -1,
      309, 135, 310, -1,
      310, 135, 134, -1,
      310, 134, 302, -1,
      255, 254, 256, -1,
      256, 254, 247, -1,
      256, 247, 264, -1,
      264, 247, 248, -1,
      236, 235, 239, -1,
      239, 235, 309, -1,
      239, 309, 238, -1,
      238, 309, 310, -1,
      238, 310, 237, -1,
      237, 310, 302, -1,
      237, 302, 246, -1,
      246, 302, 303, -1,
      246, 303, 245, -1,
      245, 303, 304, -1,
      245, 304, 244, -1,
      244, 304, 305, -1,
      244, 305, 243, -1,
      243, 305, 306, -1,
      243, 306, 242, -1,
      242, 306, 307, -1,
      242, 307, 241, -1,
      241, 307, 308, -1,
      241, 308, 240, -1,
      308, 295, 240, -1,
      240, 295, 296, -1,
      240, 296, 253, -1,
      253, 296, 297, -1,
      253, 297, 252, -1,
      252, 297, 298, -1,
      252, 298, 251, -1,
      251, 298, 299, -1,
      251, 299, 250, -1,
      250, 299, 300, -1,
      250, 300, 249, -1,
      249, 300, 301, -1,
      249, 301, 248, -1,
      248, 301, 294, -1,
      248, 294, 264, -1,
      264, 294, 287, -1,
      264, 287, 263, -1,
      263, 287, 288, -1,
      263, 288, 262, -1,
      262, 288, 289, -1,
      262, 289, 261, -1,
      261, 289, 290, -1,
      261, 290, 260, -1,
      260, 290, 291, -1,
      260, 291, 259, -1,
      259, 291, 292, -1,
      259, 292, 258, -1,
      258, 292, 293, -1,
      258, 293, 257, -1,
      257, 293, 280, -1,
      257, 280, 272, -1,
      272, 280, 281, -1,
      272, 281, 271, -1,
      271, 281, 282, -1,
      271, 282, 270, -1,
      270, 282, 283, -1,
      270, 283, 269, -1,
      269, 283, 284, -1,
      269, 284, 268, -1,
      268, 284, 285, -1,
      268, 285, 267, -1,
      267, 285, 286, -1,
      267, 286, 266, -1,
      266, 286, 277, -1,
      266, 277, 265, -1,
      265, 277, 278, -1,
      265, 278, 275, -1,
      275, 278, 279, -1,
      275, 279, 274, -1,
      274, 279, 276, -1,
      274, 276, 273, -1,
      311, 52, 51, -1,
      311, 51, 312, -1,
      312, 51, 44, -1,
      312, 44, 313, -1,
      313, 44, 43, -1,
      313, 43, 314, -1,
      314, 43, 42, -1,
      314, 42, 315, -1,
      315, 42, 22, -1,
      315, 22, 316, -1,
      316, 22, 21, -1,
      316, 21, 317, -1,
      317, 21, 39, -1,
      317, 39, 318, -1,
      319, 45, 30, -1,
      319, 30, 320, -1,
      320, 30, 29, -1,
      320, 29, 321, -1,
      321, 29, 28, -1,
      321, 28, 322, -1,
      322, 28, 8, -1,
      322, 8, 323, -1,
      323, 8, 7, -1,
      323, 7, 324, -1,
      324, 7, 53, -1,
      324, 53, 325, -1,
      325, 53, 52, -1,
      325, 52, 311, -1,
      326, 31, 32, -1,
      326, 32, 327, -1,
      327, 32, 46, -1,
      327, 46, 328, -1,
      328, 46, 45, -1,
      328, 45, 319, -1,
      326, 329, 31, -1,
      31, 329, 15, -1,
      330, 11, 13, -1,
      330, 13, 331, -1,
      331, 13, 15, -1,
      331, 15, 329, -1,
      332, 35, 34, -1,
      332, 34, 333, -1,
      333, 34, 49, -1,
      333, 49, 334, -1,
      334, 49, 50, -1,
      334, 50, 335, -1,
      335, 50, 48, -1,
      335, 48, 336, -1,
      336, 48, 47, -1,
      336, 47, 337, -1,
      337, 47, 33, -1,
      337, 33, 338, -1,
      338, 33, 11, -1,
      338, 11, 330, -1,
      339, 12, 27, -1,
      339, 27, 340, -1,
      340, 27, 26, -1,
      340, 26, 341, -1,
      341, 26, 20, -1,
      341, 20, 342, -1,
      342, 20, 19, -1,
      342, 19, 343, -1,
      343, 19, 38, -1,
      343, 38, 344, -1,
      344, 38, 37, -1,
      344, 37, 345, -1,
      345, 37, 36, -1,
      345, 36, 346, -1,
      346, 36, 35, -1,
      346, 35, 332, -1,
      347, 2, 14, -1,
      347, 14, 348, -1,
      348, 14, 12, -1,
      348, 12, 339, -1,
      347, 349, 2, -1,
      2, 349, 3, -1,
      349, 350, 3, -1,
      3, 350, 17, -1,
      350, 351, 17, -1,
      17, 351, 18, -1,
      351, 352, 18, -1,
      18, 352, 40, -1,
      352, 353, 40, -1,
      40, 353, 41, -1,
      353, 318, 41, -1,
      41, 318, 39, -1,
      351, 350, 352, -1,
      352, 350, 349, -1,
      352, 349, 353, -1,
      349, 347, 353, -1,
      353, 347, 348, -1,
      353, 348, 318, -1,
      348, 339, 318, -1,
      318, 339, 340, -1,
      318, 340, 317, -1,
      317, 340, 341, -1,
      317, 341, 316, -1,
      316, 341, 342, -1,
      316, 342, 315, -1,
      315, 342, 343, -1,
      315, 343, 314, -1,
      314, 343, 344, -1,
      314, 344, 313, -1,
      313, 344, 345, -1,
      313, 345, 312, -1,
      312, 345, 346, -1,
      312, 346, 311, -1,
      311, 346, 332, -1,
      311, 332, 325, -1,
      325, 332, 333, -1,
      325, 333, 324, -1,
      324, 333, 334, -1,
      324, 334, 323, -1,
      323, 334, 335, -1,
      323, 335, 322, -1,
      322, 335, 336, -1,
      322, 336, 321, -1,
      321, 336, 337, -1,
      321, 337, 320, -1,
      320, 337, 338, -1,
      320, 338, 319, -1,
      319, 338, 330, -1,
      319, 330, 328, -1,
      328, 330, 331, -1,
      328, 331, 327, -1,
      327, 331, 329, -1,
      327, 329, 326, -1,
      354, 355, 9, -1,
      9, 355, 10, -1,
      355, 356, 10, -1,
      10, 356, 25, -1,
      357, 4, 23, -1,
      357, 23, 358, -1,
      358, 23, 24, -1,
      358, 24, 359, -1,
      359, 24, 25, -1,
      359, 25, 356, -1,
      357, 360, 4, -1,
      4, 360, 16, -1,
      361, 6, 5, -1,
      361, 5, 362, -1,
      362, 5, 16, -1,
      362, 16, 360, -1,
      361, 363, 6, -1,
      6, 363, 1, -1,
      363, 354, 1, -1,
      1, 354, 9, -1,
      355, 354, 356, -1,
      356, 354, 363, -1,
      363, 361, 356, -1,
      356, 361, 362, -1,
      356, 362, 359, -1,
      359, 362, 360, -1,
      359, 360, 358, -1,
      358, 360, 357, -1,
    ]
  }
}

Shape {
  appearance Appearance {
    material Material {
      diffuseColor 0.0000 0.0000 0.0000
      specularColor 0.0000 0.0000 0.0000
      ambientIntensity 0.2
      transparency 0.0000
      shininess 0.5
    }
  }
  geometry IndexedFaceSet {
    ccw TRUE
    solid FALSE
    coord DEF co Coordinate {
      point [
        0.079103 -0.061324 0.000000,
        0.079103 -0.082930 0.000000,
        0.100086 -0.091546 0.000000,
        0.108032 0.104918 0.000000,
        0.101862 0.104493 0.000000,
        0.079103 0.098317 0.000000,
        0.079103 0.071910 0.000000,
        0.101276 0.081404 0.000000,
        0.082631 -0.063279 0.000000,
        0.125202 0.084513 0.000000,
        0.144586 0.082336 0.000000,
        0.159320 0.077019 0.000000,
        0.172945 0.067904 0.000000,
        0.184832 0.054780 0.000000,
        0.199134 0.003192 0.000000,
        0.197141 -0.018118 0.000000,
        0.191793 -0.035050 0.000000,
        0.147989 -0.071868 0.000000,
        0.129628 -0.073928 0.000000,
        0.162332 -0.066588 0.000000,
        0.174414 -0.058445 0.000000,
        0.183651 -0.048700 0.000000,
        0.103498 -0.071027 0.000000,
        0.192948 0.039581 0.000000,
        0.198195 0.018508 0.000000,
        0.125428 0.106119 0.000000,
        0.140130 0.104918 0.000000,
        0.215152 0.051870 0.000000,
        0.203614 0.070274 0.000000,
        0.176606 -0.086450 0.000000,
        0.192440 -0.076339 0.000000,
        0.207226 -0.060772 0.000000,
        0.217713 -0.042055 0.000000,
        0.185842 0.087367 0.000000,
        0.167144 0.098129 0.000000,
        0.145199 0.104504 0.000000,
        0.223637 -0.021219 0.000000,
        0.225541 0.001579 0.000000,
        0.222709 0.029565 0.000000,
        0.119978 -0.094333 0.000000,
        0.127884 -0.095441 0.000000,
        0.133267 -0.095533 0.000000,
        0.144843 -0.094333 0.000000,
        0.157526 -0.093018 0.000000,
        0.242345 -0.071527 0.000000,
        0.242345 -0.093133 0.000000,
        0.343170 -0.093133 0.000000,
        0.316764 -0.071527 0.000000,
        0.316764 0.103718 0.000000,
        0.343170 0.103718 0.000000,
        -0.060133 0.103718 0.000000,
        -0.060133 0.082112 0.000000,
        -0.064934 -0.071527 0.000000,
        -0.064934 -0.093133 0.000000,
        0.040693 -0.093133 0.000000,
        0.040693 0.103718 0.000000,
        0.014287 -0.004310 0.000000,
        0.014287 -0.071527 0.000000,
        -0.055331 -0.004310 0.000000,
        -0.055331 0.017296 0.000000,
        0.014287 0.017296 0.000000,
        0.014287 0.082112 0.000000,
        -0.251955 -0.039180 0.000000,
        -0.240666 -0.056787 0.000000,
        -0.224463 -0.072301 0.000000,
        -0.203909 -0.084246 0.000000,
        -0.158895 0.103718 0.000000,
        -0.187335 0.100678 0.000000,
        -0.210367 0.092591 0.000000,
        -0.231792 0.078232 0.000000,
        -0.231998 0.078051 0.000000,
        -0.245918 0.062615 0.000000,
        -0.255067 0.045686 0.000000,
        -0.181227 -0.091006 0.000000,
        -0.156870 -0.093133 0.000000,
        -0.103344 -0.093133 0.000000,
        -0.103344 0.103718 0.000000,
        -0.260354 0.026291 0.000000,
        -0.261784 0.007769 0.000000,
        -0.259022 -0.018576 0.000000,
        -0.453833 -0.093133 0.000000,
        -0.377014 0.103718 0.000000,
        -0.425026 -0.093133 0.000000,
        -0.405108 -0.037919 0.000000,
        -0.323788 -0.037919 0.000000,
        -0.304995 -0.093133 0.000000,
        -0.276188 -0.093133 0.000000,
        -0.350607 0.103718 0.000000,
        -0.377014 0.103718 0.000394,
        -0.453833 -0.093133 0.000394,
        -0.425026 -0.093133 0.000394,
        -0.405108 -0.037919 0.000394,
        -0.323788 -0.037919 0.000394,
        -0.304995 -0.093133 0.000394,
        -0.276188 -0.093133 0.000394,
        -0.350607 0.103718 0.000394,
        -0.330427 -0.016313 0.000394,
        -0.396256 -0.016313 0.000394,
        -0.359797 0.065908 0.000394,
        -0.361691 0.072735 0.000394,
        -0.362948 0.079712 0.000394,
        -0.363585 0.079712 0.000394,
        -0.364870 0.072756 0.000394,
        -0.366624 0.065908 0.000394,
        -0.330427 -0.016313 0.000000,
        -0.396256 -0.016313 0.000000,
        -0.359797 0.065908 0.000000,
        -0.361691 0.072735 0.000000,
        -0.362948 0.079712 0.000000,
        -0.363585 0.079712 0.000000,
        -0.364870 0.072756 0.000000,
        -0.366624 0.065908 0.000000,
        -0.156870 -0.093133 0.000394,
        -0.103344 -0.093133 0.000394,
        -0.103344 0.103718 0.000394,
        -0.158895 0.103718 0.000394,
        -0.261784 0.007769 0.000394,
        -0.260354 0.026291 0.000394,
        -0.255067 0.045686 0.000394,
        -0.245918 0.062615 0.000394,
        -0.231998 0.078051 0.000394,
        -0.231792 0.078232 0.000394,
        -0.210367 0.092591 0.000394,
        -0.187335 0.100678 0.000394,
        -0.181227 -0.091006 0.000394,
        -0.203909 -0.084246 0.000394,
        -0.224463 -0.072301 0.000394,
        -0.240666 -0.056787 0.000394,
        -0.251955 -0.039180 0.000394,
        -0.259022 -0.018576 0.000394,
        -0.222271 0.054508 0.000394,
        -0.212709 0.064660 0.000394,
        -0.198331 0.073950 0.000394,
        -0.182082 0.079636 0.000394,
        -0.158783 0.082112 0.000394,
        -0.129750 0.082112 0.000394,
        -0.129750 -0.071527 0.000394,
        -0.157695 -0.071527 0.000394,
        -0.178463 -0.069594 0.000394,
        -0.195028 -0.064423 0.000394,
        -0.208453 -0.056451 0.000394,
        -0.219494 -0.045546 0.000394,
        -0.227796 -0.031974 0.000394,
        -0.233570 -0.013470 0.000394,
        -0.235378 0.007206 0.000394,
        -0.233705 0.026797 0.000394,
        -0.229110 0.042367 0.000394,
        -0.158783 0.082112 0.000000,
        -0.129750 0.082112 0.000000,
        -0.182082 0.079636 0.000000,
        -0.198331 0.073950 -0.000000,
        -0.212709 0.064660 0.000000,
        -0.222271 0.054508 0.000000,
        -0.229110 0.042367 0.000000,
        -0.233705 0.026797 -0.000000,
        -0.235378 0.007206 0.000000,
        -0.233570 -0.013470 -0.000000,
        -0.227796 -0.031974 -0.000000,
        -0.219494 -0.045546 -0.000000,
        -0.208453 -0.056451 -0.000000,
        -0.195028 -0.064423 0.000000,
        -0.178463 -0.069594 0.000000,
        -0.157695 -0.071527 -0.000000,
        -0.129750 -0.071527 0.000000,
        -0.064934 -0.071527 0.000394,
        -0.064934 -0.093133 0.000394,
        0.040693 -0.093133 0.000394,
        0.040693 0.103718 0.000394,
        -0.060133 0.103718 0.000394,
        -0.060133 0.082112 0.000394,
        0.014287 0.082112 0.000394,
        0.014287 0.017296 0.000394,
        -0.055331 0.017296 0.000394,
        -0.055331 -0.004310 0.000394,
        0.014287 -0.004310 0.000394,
        0.014287 -0.071527 0.000394,
        0.079103 -0.061324 0.000394,
        0.079103 -0.082930 0.000394,
        0.100086 -0.091546 0.000394,
        0.133267 -0.095533 0.000394,
        0.127884 -0.095441 0.000394,
        0.157526 -0.093018 0.000394,
        0.176606 -0.086450 0.000394,
        0.192440 -0.076339 0.000394,
        0.207226 -0.060772 0.000394,
        0.217713 -0.042055 0.000394,
        0.223637 -0.021219 0.000394,
        0.225541 0.001579 0.000394,
        0.145199 0.104504 0.000394,
        0.125428 0.106119 0.000394,
        0.167144 0.098129 0.000394,
        0.185842 0.087367 0.000394,
        0.203614 0.070274 0.000394,
        0.215152 0.051870 0.000394,
        0.222709 0.029565 0.000394,
        0.101862 0.104493 0.000394,
        0.079103 0.098317 0.000394,
        0.079103 0.071910 0.000394,
        0.125202 0.084513 0.000394,
        0.101276 0.081404 0.000394,
        0.199134 0.003192 0.000394,
        0.198195 0.018508 0.000394,
        0.192948 0.039581 0.000394,
        0.184832 0.054780 0.000394,
        0.172945 0.067904 0.000394,
        0.159320 0.077019 0.000394,
        0.144586 0.082336 0.000394,
        0.129628 -0.073928 0.000394,
        0.147989 -0.071868 0.000394,
        0.162332 -0.066588 0.000394,
        0.174414 -0.058445 0.000394,
        0.183651 -0.048700 0.000394,
        0.191793 -0.035050 0.000394,
        0.197141 -0.018118 0.000394,
        0.082631 -0.063279 0.000394,
        0.103498 -0.071027 0.000394,
        0.242345 -0.071527 0.000394,
        0.242345 -0.093133 0.000394,
        0.343170 -0.093133 0.000394,
        0.343170 0.103718 0.000394,
        0.316764 0.103718 0.000394,
        0.316764 -0.071527 0.000394,
      ]
    }
    coordIndex [
      88, 89, 81, -1,
      81, 89, 80, -1,
      89, 90, 80, -1,
      80, 90, 82, -1,
      90, 91, 82, -1,
      82, 91, 83, -1,
      91, 92, 83, -1,
      83, 92, 84, -1,
      92, 93, 84, -1,
      84, 93, 85, -1,
      93, 94, 85, -1,
      85, 94, 86, -1,
      94, 95, 86, -1,
      86, 95, 87, -1,
      95, 88, 87, -1,
      87, 88, 81, -1,
      96, 92, 97, -1,
      97, 92, 91, -1,
      98, 95, 96, -1,
      96, 95, 94, -1,
      96, 94, 92, -1,
      92, 94, 93, -1,
      98, 99, 95, -1,
      95, 99, 100, -1,
      95, 100, 88, -1,
      88, 100, 101, -1,
      88, 101, 102, -1,
      102, 103, 88, -1,
      88, 103, 97, -1,
      88, 97, 89, -1,
      89, 97, 91, -1,
      89, 91, 90, -1,
      96, 97, 104, -1,
      104, 97, 105, -1,
      98, 96, 106, -1,
      106, 96, 104, -1,
      98, 106, 107, -1,
      98, 107, 99, -1,
      99, 107, 108, -1,
      99, 108, 100, -1,
      101, 100, 109, -1,
      109, 100, 108, -1,
      101, 109, 110, -1,
      101, 110, 102, -1,
      102, 110, 111, -1,
      102, 111, 103, -1,
      97, 103, 105, -1,
      105, 103, 111, -1,
      112, 113, 74, -1,
      74, 113, 75, -1,
      113, 114, 75, -1,
      75, 114, 76, -1,
      114, 115, 76, -1,
      76, 115, 66, -1,
      116, 78, 77, -1,
      116, 77, 117, -1,
      117, 77, 72, -1,
      117, 72, 118, -1,
      118, 72, 71, -1,
      118, 71, 119, -1,
      119, 71, 70, -1,
      119, 70, 120, -1,
      120, 70, 69, -1,
      120, 69, 121, -1,
      121, 69, 68, -1,
      121, 68, 122, -1,
      122, 68, 67, -1,
      122, 67, 123, -1,
      123, 67, 66, -1,
      123, 66, 115, -1,
      112, 74, 73, -1,
      112, 73, 124, -1,
      124, 73, 65, -1,
      124, 65, 125, -1,
      125, 65, 64, -1,
      125, 64, 126, -1,
      126, 64, 63, -1,
      126, 63, 127, -1,
      127, 63, 62, -1,
      127, 62, 128, -1,
      128, 62, 79, -1,
      128, 79, 129, -1,
      129, 79, 78, -1,
      129, 78, 116, -1,
      118, 119, 130, -1,
      130, 119, 120, -1,
      130, 120, 131, -1,
      131, 120, 121, -1,
      131, 121, 132, -1,
      132, 121, 122, -1,
      132, 122, 133, -1,
      133, 122, 123, -1,
      133, 123, 134, -1,
      134, 123, 115, -1,
      134, 115, 135, -1,
      135, 115, 114, -1,
      135, 114, 136, -1,
      136, 114, 113, -1,
      136, 113, 137, -1,
      137, 113, 112, -1,
      137, 112, 138, -1,
      138, 112, 124, -1,
      138, 124, 139, -1,
      139, 124, 125, -1,
      139, 125, 140, -1,
      140, 125, 126, -1,
      140, 126, 141, -1,
      141, 126, 127, -1,
      141, 127, 142, -1,
      142, 127, 128, -1,
      142, 128, 143, -1,
      143, 128, 129, -1,
      143, 129, 144, -1,
      144, 129, 116, -1,
      144, 116, 145, -1,
      145, 116, 117, -1,
      145, 117, 146, -1,
      146, 117, 118, -1,
      146, 118, 130, -1,
      134, 135, 147, -1,
      147, 135, 148, -1,
      134, 147, 149, -1,
      134, 149, 133, -1,
      133, 149, 150, -1,
      133, 150, 132, -1,
      132, 150, 151, -1,
      132, 151, 131, -1,
      131, 151, 152, -1,
      131, 152, 130, -1,
      130, 152, 153, -1,
      130, 153, 146, -1,
      146, 153, 154, -1,
      146, 154, 145, -1,
      145, 154, 155, -1,
      145, 155, 144, -1,
      144, 155, 156, -1,
      144, 156, 143, -1,
      143, 156, 157, -1,
      143, 157, 142, -1,
      142, 157, 158, -1,
      142, 158, 141, -1,
      141, 158, 159, -1,
      141, 159, 140, -1,
      140, 159, 160, -1,
      140, 160, 139, -1,
      139, 160, 161, -1,
      139, 161, 138, -1,
      138, 161, 162, -1,
      138, 162, 137, -1,
      136, 137, 163, -1,
      163, 137, 162, -1,
      135, 136, 148, -1,
      148, 136, 163, -1,
      164, 165, 52, -1,
      52, 165, 53, -1,
      165, 166, 53, -1,
      53, 166, 54, -1,
      166, 167, 54, -1,
      54, 167, 55, -1,
      167, 168, 55, -1,
      55, 168, 50, -1,
      168, 169, 50, -1,
      50, 169, 51, -1,
      169, 170, 51, -1,
      51, 170, 61, -1,
      170, 171, 61, -1,
      61, 171, 60, -1,
      171, 172, 60, -1,
      60, 172, 59, -1,
      172, 173, 59, -1,
      59, 173, 58, -1,
      173, 174, 58, -1,
      58, 174, 56, -1,
      174, 175, 56, -1,
      56, 175, 57, -1,
      175, 164, 57, -1,
      57, 164, 52, -1,
      166, 165, 164, -1,
      164, 175, 166, -1,
      166, 175, 174, -1,
      166, 174, 167, -1,
      169, 168, 170, -1,
      170, 168, 167, -1,
      170, 167, 171, -1,
      171, 167, 174, -1,
      171, 174, 172, -1,
      172, 174, 173, -1,
      176, 177, 0, -1,
      0, 177, 1, -1,
      1, 177, 178, -1,
      179, 41, 40, -1,
      179, 40, 180, -1,
      180, 40, 39, -1,
      180, 39, 178, -1,
      178, 39, 2, -1,
      178, 2, 1, -1,
      41, 179, 42, -1,
      42, 179, 181, -1,
      42, 181, 43, -1,
      43, 181, 182, -1,
      43, 182, 29, -1,
      29, 182, 183, -1,
      29, 183, 30, -1,
      30, 183, 184, -1,
      30, 184, 31, -1,
      31, 184, 185, -1,
      31, 185, 32, -1,
      32, 185, 186, -1,
      32, 186, 36, -1,
      36, 186, 187, -1,
      36, 187, 37, -1,
      188, 189, 26, -1,
      26, 189, 25, -1,
      26, 35, 188, -1,
      188, 35, 34, -1,
      188, 34, 190, -1,
      190, 34, 33, -1,
      190, 33, 191, -1,
      191, 33, 28, -1,
      191, 28, 192, -1,
      192, 28, 27, -1,
      192, 27, 193, -1,
      193, 27, 38, -1,
      193, 38, 194, -1,
      194, 38, 37, -1,
      194, 37, 187, -1,
      25, 189, 3, -1,
      3, 189, 195, -1,
      3, 195, 4, -1,
      4, 195, 196, -1,
      4, 196, 5, -1,
      196, 197, 5, -1,
      5, 197, 6, -1,
      198, 9, 7, -1,
      198, 7, 199, -1,
      199, 7, 6, -1,
      199, 6, 197, -1,
      200, 14, 24, -1,
      200, 24, 201, -1,
      201, 24, 23, -1,
      201, 23, 202, -1,
      202, 23, 13, -1,
      202, 13, 203, -1,
      203, 13, 12, -1,
      203, 12, 204, -1,
      204, 12, 11, -1,
      204, 11, 205, -1,
      205, 11, 10, -1,
      205, 10, 206, -1,
      206, 10, 9, -1,
      206, 9, 198, -1,
      207, 18, 17, -1,
      207, 17, 208, -1,
      208, 17, 19, -1,
      208, 19, 209, -1,
      209, 19, 20, -1,
      209, 20, 210, -1,
      210, 20, 21, -1,
      210, 21, 211, -1,
      211, 21, 16, -1,
      211, 16, 212, -1,
      212, 16, 15, -1,
      212, 15, 213, -1,
      213, 15, 14, -1,
      213, 14, 200, -1,
      176, 0, 8, -1,
      176, 8, 214, -1,
      214, 8, 22, -1,
      214, 22, 215, -1,
      215, 22, 18, -1,
      215, 18, 207, -1,
      208, 179, 207, -1,
      207, 179, 180, -1,
      207, 180, 215, -1,
      215, 180, 178, -1,
      215, 178, 214, -1,
      214, 178, 177, -1,
      214, 177, 176, -1,
      197, 196, 199, -1,
      199, 196, 195, -1,
      199, 195, 198, -1,
      198, 195, 189, -1,
      198, 189, 206, -1,
      206, 189, 188, -1,
      206, 188, 205, -1,
      205, 188, 190, -1,
      205, 190, 204, -1,
      204, 190, 191, -1,
      204, 191, 203, -1,
      203, 191, 192, -1,
      203, 192, 202, -1,
      202, 192, 193, -1,
      202, 193, 201, -1,
      201, 193, 194, -1,
      201, 194, 200, -1,
      200, 194, 187, -1,
      200, 187, 213, -1,
      213, 187, 186, -1,
      213, 186, 212, -1,
      212, 186, 185, -1,
      212, 185, 211, -1,
      211, 185, 184, -1,
      211, 184, 210, -1,
      210, 184, 183, -1,
      210, 183, 209, -1,
      209, 183, 182, -1,
      209, 182, 208, -1,
      208, 182, 181, -1,
      208, 181, 179, -1,
      216, 217, 44, -1,
      44, 217, 45, -1,
      217, 218, 45, -1,
      45, 218, 46, -1,
      218, 219, 46, -1,
      46, 219, 49, -1,
      219, 220, 49, -1,
      49, 220, 48, -1,
      220, 221, 48, -1,
      48, 221, 47, -1,
      221, 216, 47, -1,
      47, 216, 44, -1,
      220, 219, 221, -1,
      221, 219, 218, -1,
      221, 218, 216, -1,
      216, 218, 217, -1,
    ]
  }
}

Shape {
  appearance Appearance {
    material Material {
      diffuseColor 0.5020 0.5020 0.5020
      specularColor 0.2510 0.2510 0.2510
      ambientIntensity 0.2
      transparency 0.0000
      shininess 0.5
    }
  }
  geometry IndexedFaceSet {
    ccw TRUE
    solid FALSE
    coord DEF co Coordinate {
      point [
        -0.330427 -0.016313 0.000000,
        -0.396256 -0.016313 0.000000,
        -0.359797 0.065908 0.000000,
        -0.361691 0.072735 0.000000,
        -0.362948 0.079712 0.000000,
        -0.363585 0.079712 0.000000,
        -0.364870 0.072756 0.000000,
        -0.366624 0.065908 0.000000,
        -0.158783 0.082112 0.000000,
        -0.129750 0.082112 0.000000,
        -0.182082 0.079636 0.000000,
        -0.198331 0.073950 -0.000000,
        -0.212709 0.064660 0.000000,
        -0.222271 0.054508 0.000000,
        -0.229110 0.042367 0.000000,
        -0.233705 0.026797 -0.000000,
        -0.235378 0.007206 0.000000,
        -0.233570 -0.013470 -0.000000,
        -0.227796 -0.031974 -0.000000,
        -0.219494 -0.045546 -0.000000,
        -0.208453 -0.056451 -0.000000,
        -0.195028 -0.064423 0.000000,
        -0.178463 -0.069594 0.000000,
        -0.157695 -0.071527 -0.000000,
        -0.129750 -0.071527 0.000000,
      ]
    }
    coordIndex [
      0, 1, 2, -1,
      2, 1, 7, -1,
      2, 7, 3, -1,
      3, 7, 6, -1,
      3, 6, 4, -1,
      4, 6, 5, -1,
      9, 24, 8, -1,
      8, 24, 23, -1,
      8, 23, 22, -1,
      16, 15, 8, -1,
      8, 15, 14, -1,
      8, 14, 10, -1,
      22, 21, 8, -1,
      8, 21, 20, -1,
      8, 20, 19, -1,
      19, 18, 8, -1,
      8, 18, 17, -1,
      8, 17, 16, -1,
      13, 12, 14, -1,
      14, 12, 11, -1,
      14, 11, 10, -1,
    ]
  }
}
