%TF.GenerationSoftware,KiCad,Pcbnew,9.0.7*%
%TF.CreationDate,2026-03-05T23:57:50+01:00*%
%TF.ProjectId,svea_powerboard_rev3,73766561-5f70-46f7-9765-72626f617264,rev?*%
%TF.SameCoordinates,Original*%
%TF.FileFunction,Soldermask,Bot*%
%TF.FilePolarity,Negative*%
%FSLAX46Y46*%
G04 Gerber Fmt 4.6, Leading zero omitted, Abs format (unit mm)*
G04 Created by KiCad (PCBNEW 9.0.7) date 2026-03-05 23:57:50*
%MOMM*%
%LPD*%
G01*
G04 APERTURE LIST*
G04 Aperture macros list*
%AMRoundRect*
0 Rectangle with rounded corners*
0 $1 Rounding radius*
0 $2 $3 $4 $5 $6 $7 $8 $9 X,Y pos of 4 corners*
0 Add a 4 corners polygon primitive as box body*
4,1,4,$2,$3,$4,$5,$6,$7,$8,$9,$2,$3,0*
0 Add four circle primitives for the rounded corners*
1,1,$1+$1,$2,$3*
1,1,$1+$1,$4,$5*
1,1,$1+$1,$6,$7*
1,1,$1+$1,$8,$9*
0 Add four rect primitives between the rounded corners*
20,1,$1+$1,$2,$3,$4,$5,0*
20,1,$1+$1,$4,$5,$6,$7,0*
20,1,$1+$1,$6,$7,$8,$9,0*
20,1,$1+$1,$8,$9,$2,$3,0*%
%AMHorizOval*
0 Thick line with rounded ends*
0 $1 width*
0 $2 $3 position (X,Y) of the first rounded end (center of the circle)*
0 $4 $5 position (X,Y) of the second rounded end (center of the circle)*
0 Add line between two ends*
20,1,$1,$2,$3,$4,$5,0*
0 Add two circle primitives to create the rounded ends*
1,1,$1,$2,$3*
1,1,$1,$4,$5*%
%AMFreePoly0*
4,1,6,1.000000,0.000000,0.500000,-0.750000,-0.500000,-0.750000,-0.500000,0.750000,0.500000,0.750000,1.000000,0.000000,1.000000,0.000000,$1*%
%AMFreePoly1*
4,1,6,0.500000,-0.750000,-0.650000,-0.750000,-0.150000,0.000000,-0.650000,0.750000,0.500000,0.750000,0.500000,-0.750000,0.500000,-0.750000,$1*%
%AMFreePoly2*
4,1,17,2.675000,1.605000,1.875000,1.605000,1.875000,0.935000,2.675000,0.935000,2.675000,0.335000,1.875000,0.335000,1.875000,-0.335000,2.675000,-0.335000,2.675000,-0.935000,1.875000,-0.935000,1.875000,-1.605000,2.675000,-1.605000,2.675000,-2.205000,-1.875000,-2.205000,-1.875000,2.205000,2.675000,2.205000,2.675000,1.605000,2.675000,1.605000,$1*%
G04 Aperture macros list end*
%ADD10RoundRect,0.135000X-0.135000X-0.185000X0.135000X-0.185000X0.135000X0.185000X-0.135000X0.185000X0*%
%ADD11FreePoly0,270.000000*%
%ADD12FreePoly1,270.000000*%
%ADD13RoundRect,0.150000X-0.587500X-0.150000X0.587500X-0.150000X0.587500X0.150000X-0.587500X0.150000X0*%
%ADD14O,3.800000X3.800000*%
%ADD15O,2.200000X1.200000*%
%ADD16O,1.200000X2.200000*%
%ADD17R,3.500000X2.500000*%
%ADD18RoundRect,0.200000X-0.275000X0.200000X-0.275000X-0.200000X0.275000X-0.200000X0.275000X0.200000X0*%
%ADD19R,1.000000X1.000000*%
%ADD20O,1.000000X1.000000*%
%ADD21O,4.600000X2.000000*%
%ADD22O,2.000000X4.600000*%
%ADD23O,2.300000X2.300000*%
%ADD24O,1.000000X1.700000*%
%ADD25O,0.650013X0.650013*%
%ADD26O,0.900000X2.400000*%
%ADD27O,0.900000X1.700000*%
%ADD28R,1.600000X1.600000*%
%ADD29O,1.600000X1.600000*%
%ADD30R,1.700000X1.700000*%
%ADD31C,1.700000*%
%ADD32O,2.600000X2.600000*%
%ADD33C,1.600000*%
%ADD34C,3.500000*%
%ADD35O,1.100000X2.500000*%
%ADD36HorizOval,2.200000X0.000000X0.000000X0.000000X0.000000X0*%
%ADD37C,7.000000*%
%ADD38RoundRect,0.112500X0.112500X-0.187500X0.112500X0.187500X-0.112500X0.187500X-0.112500X-0.187500X0*%
%ADD39RoundRect,0.250000X-0.250000X-0.475000X0.250000X-0.475000X0.250000X0.475000X-0.250000X0.475000X0*%
%ADD40RoundRect,0.225000X-0.250000X0.225000X-0.250000X-0.225000X0.250000X-0.225000X0.250000X0.225000X0*%
%ADD41RoundRect,0.225000X0.250000X-0.225000X0.250000X0.225000X-0.250000X0.225000X-0.250000X-0.225000X0*%
%ADD42RoundRect,0.200000X-0.200000X-0.275000X0.200000X-0.275000X0.200000X0.275000X-0.200000X0.275000X0*%
%ADD43RoundRect,0.225000X-0.225000X-0.250000X0.225000X-0.250000X0.225000X0.250000X-0.225000X0.250000X0*%
%ADD44RoundRect,0.225000X0.375000X-0.225000X0.375000X0.225000X-0.375000X0.225000X-0.375000X-0.225000X0*%
%ADD45R,1.485014X1.727991*%
%ADD46R,0.300000X0.800000*%
%ADD47R,1.296012X1.529997*%
%ADD48RoundRect,0.250000X-0.900000X1.000000X-0.900000X-1.000000X0.900000X-1.000000X0.900000X1.000000X0*%
%ADD49RoundRect,0.225000X-0.225000X-0.375000X0.225000X-0.375000X0.225000X0.375000X-0.225000X0.375000X0*%
%ADD50FreePoly2,0.000000*%
%ADD51RoundRect,0.125000X-0.300000X-0.125000X0.300000X-0.125000X0.300000X0.125000X-0.300000X0.125000X0*%
%ADD52RoundRect,0.250000X1.100000X-0.325000X1.100000X0.325000X-1.100000X0.325000X-1.100000X-0.325000X0*%
%ADD53RoundRect,0.200000X0.200000X0.275000X-0.200000X0.275000X-0.200000X-0.275000X0.200000X-0.275000X0*%
%ADD54RoundRect,0.140000X-0.170000X0.140000X-0.170000X-0.140000X0.170000X-0.140000X0.170000X0.140000X0*%
%ADD55RoundRect,0.150000X0.587500X0.150000X-0.587500X0.150000X-0.587500X-0.150000X0.587500X-0.150000X0*%
%ADD56RoundRect,0.140000X0.140000X0.170000X-0.140000X0.170000X-0.140000X-0.170000X0.140000X-0.170000X0*%
%ADD57RoundRect,0.250000X-0.325000X-1.100000X0.325000X-1.100000X0.325000X1.100000X-0.325000X1.100000X0*%
%ADD58RoundRect,0.135000X-0.185000X0.135000X-0.185000X-0.135000X0.185000X-0.135000X0.185000X0.135000X0*%
%ADD59RoundRect,0.140000X0.170000X-0.140000X0.170000X0.140000X-0.170000X0.140000X-0.170000X-0.140000X0*%
%ADD60RoundRect,0.225000X0.225000X0.250000X-0.225000X0.250000X-0.225000X-0.250000X0.225000X-0.250000X0*%
%ADD61R,0.532000X1.072000*%
%ADD62RoundRect,0.250000X-1.425000X0.362500X-1.425000X-0.362500X1.425000X-0.362500X1.425000X0.362500X0*%
%ADD63RoundRect,0.250000X0.362500X1.425000X-0.362500X1.425000X-0.362500X-1.425000X0.362500X-1.425000X0*%
%ADD64RoundRect,0.135000X0.135000X0.185000X-0.135000X0.185000X-0.135000X-0.185000X0.135000X-0.185000X0*%
%ADD65RoundRect,0.250000X0.325000X0.650000X-0.325000X0.650000X-0.325000X-0.650000X0.325000X-0.650000X0*%
%ADD66RoundRect,0.225000X-0.375000X0.225000X-0.375000X-0.225000X0.375000X-0.225000X0.375000X0.225000X0*%
%ADD67FreePoly0,180.000000*%
%ADD68FreePoly1,180.000000*%
%ADD69RoundRect,0.200000X0.275000X-0.200000X0.275000X0.200000X-0.275000X0.200000X-0.275000X-0.200000X0*%
%ADD70R,1.500000X1.000000*%
%ADD71R,1.200000X1.400000*%
%ADD72RoundRect,0.135000X0.185000X-0.135000X0.185000X0.135000X-0.185000X0.135000X-0.185000X-0.135000X0*%
%ADD73RoundRect,0.087500X0.425000X0.087500X-0.425000X0.087500X-0.425000X-0.087500X0.425000X-0.087500X0*%
%ADD74RoundRect,0.087500X0.087500X0.425000X-0.087500X0.425000X-0.087500X-0.425000X0.087500X-0.425000X0*%
%ADD75R,2.100000X2.100000*%
%ADD76FreePoly0,90.000000*%
%ADD77FreePoly1,90.000000*%
%ADD78R,5.200000X3.500000*%
%ADD79FreePoly2,270.000000*%
%ADD80RoundRect,0.125000X-0.125000X0.300000X-0.125000X-0.300000X0.125000X-0.300000X0.125000X0.300000X0*%
%ADD81RoundRect,0.375000X0.625000X0.375000X-0.625000X0.375000X-0.625000X-0.375000X0.625000X-0.375000X0*%
%ADD82RoundRect,0.500000X0.500000X1.400000X-0.500000X1.400000X-0.500000X-1.400000X0.500000X-1.400000X0*%
%ADD83R,1.400000X0.900000*%
%ADD84R,1.200000X0.250013*%
%ADD85R,3.300000X1.000000*%
%ADD86RoundRect,0.150000X0.512500X0.150000X-0.512500X0.150000X-0.512500X-0.150000X0.512500X-0.150000X0*%
%ADD87R,3.456007X1.282525*%
%ADD88R,1.050013X0.400000*%
%ADD89O,1.050013X0.400000*%
%ADD90O,0.200000X0.600000*%
%ADD91RoundRect,0.250000X0.650000X-0.325000X0.650000X0.325000X-0.650000X0.325000X-0.650000X-0.325000X0*%
%ADD92RoundRect,0.125000X0.125000X-0.487500X0.125000X0.487500X-0.125000X0.487500X-0.125000X-0.487500X0*%
%ADD93RoundRect,0.075000X0.650000X0.075000X-0.650000X0.075000X-0.650000X-0.075000X0.650000X-0.075000X0*%
%ADD94R,1.410008X1.350013*%
%ADD95RoundRect,0.250000X0.250000X0.475000X-0.250000X0.475000X-0.250000X-0.475000X0.250000X-0.475000X0*%
%ADD96O,1.524003X1.524003*%
%ADD97O,2.500000X2.500000*%
%ADD98R,0.200000X0.565000*%
%ADD99R,0.400000X0.565000*%
%ADD100R,0.800000X0.300000*%
%ADD101R,0.600000X1.000000*%
%ADD102RoundRect,0.250000X0.375000X0.625000X-0.375000X0.625000X-0.375000X-0.625000X0.375000X-0.625000X0*%
%ADD103RoundRect,0.250000X0.475000X-0.250000X0.475000X0.250000X-0.475000X0.250000X-0.475000X-0.250000X0*%
%ADD104R,1.000000X1.200000*%
%ADD105R,0.800000X0.500000*%
%ADD106R,0.800000X0.400000*%
%ADD107RoundRect,0.150000X-0.150000X0.587500X-0.150000X-0.587500X0.150000X-0.587500X0.150000X0.587500X0*%
%ADD108RoundRect,0.062500X0.062500X-0.375000X0.062500X0.375000X-0.062500X0.375000X-0.062500X-0.375000X0*%
%ADD109RoundRect,0.062500X0.375000X-0.062500X0.375000X0.062500X-0.375000X0.062500X-0.375000X-0.062500X0*%
%ADD110R,3.600000X3.600000*%
%ADD111RoundRect,0.250000X-0.375000X-0.625000X0.375000X-0.625000X0.375000X0.625000X-0.375000X0.625000X0*%
%ADD112RoundRect,0.250000X-1.100000X0.325000X-1.100000X-0.325000X1.100000X-0.325000X1.100000X0.325000X0*%
%ADD113R,0.665000X0.280000*%
%ADD114R,0.280000X0.665000*%
%ADD115R,1.750000X1.750000*%
%ADD116RoundRect,0.075000X0.075000X-0.662500X0.075000X0.662500X-0.075000X0.662500X-0.075000X-0.662500X0*%
%ADD117RoundRect,0.075000X0.662500X-0.075000X0.662500X0.075000X-0.662500X0.075000X-0.662500X-0.075000X0*%
%ADD118R,0.280000X0.500000*%
%ADD119R,0.500000X0.280000*%
%ADD120R,1.635001X2.700000*%
%ADD121R,1.000000X1.500000*%
%ADD122RoundRect,0.375000X0.375000X-0.625000X0.375000X0.625000X-0.375000X0.625000X-0.375000X-0.625000X0*%
%ADD123RoundRect,0.500000X1.400000X-0.500000X1.400000X0.500000X-1.400000X0.500000X-1.400000X-0.500000X0*%
%ADD124RoundRect,0.250000X0.325000X1.100000X-0.325000X1.100000X-0.325000X-1.100000X0.325000X-1.100000X0*%
%ADD125RoundRect,0.150000X0.150000X-0.587500X0.150000X0.587500X-0.150000X0.587500X-0.150000X-0.587500X0*%
%ADD126RoundRect,0.075000X-0.650000X-0.075000X0.650000X-0.075000X0.650000X0.075000X-0.650000X0.075000X0*%
%ADD127RoundRect,0.100000X-0.350000X-0.100000X0.350000X-0.100000X0.350000X0.100000X-0.350000X0.100000X0*%
%ADD128RoundRect,0.250000X0.300000X-0.300000X0.300000X0.300000X-0.300000X0.300000X-0.300000X-0.300000X0*%
%ADD129R,5.200000X3.499873*%
%ADD130RoundRect,0.140000X-0.140000X-0.170000X0.140000X-0.170000X0.140000X0.170000X-0.140000X0.170000X0*%
%ADD131RoundRect,0.250000X-0.650000X0.325000X-0.650000X-0.325000X0.650000X-0.325000X0.650000X0.325000X0*%
%ADD132R,0.300000X0.700000*%
G04 APERTURE END LIST*
%TO.C,JP2005*%
G36*
X109714600Y-78251600D02*
G01*
X111214600Y-78251600D01*
X111214600Y-80701600D01*
X109714600Y-80701600D01*
X109714600Y-78251600D01*
G37*
%TO.C,JP1402*%
G36*
X89925000Y-52000000D02*
G01*
X87475000Y-52000000D01*
X87475000Y-53500000D01*
X89925000Y-53500000D01*
X89925000Y-52000000D01*
G37*
%TO.C,JP2003*%
G36*
X118150000Y-72250000D02*
G01*
X119650000Y-72250000D01*
X119650000Y-72550000D01*
X118150000Y-72550000D01*
X118150000Y-72250000D01*
G37*
%TO.C,JP2001*%
G36*
X117150000Y-73625000D02*
G01*
X115650000Y-73625000D01*
X115650000Y-71175000D01*
X117150000Y-71175000D01*
X117150000Y-73625000D01*
G37*
%TO.C,JP2102*%
G36*
X30100000Y-51750000D02*
G01*
X27650000Y-51750000D01*
X27650000Y-53250000D01*
X30100000Y-53250000D01*
X30100000Y-51750000D01*
G37*
%TO.C,JP1702*%
G36*
X37533200Y-82030000D02*
G01*
X37833200Y-82030000D01*
X37833200Y-80530000D01*
X37533200Y-80530000D01*
X37533200Y-82030000D01*
G37*
%TO.C,JP1701*%
G36*
X48018000Y-78884400D02*
G01*
X49518000Y-78884400D01*
X49518000Y-79184400D01*
X48018000Y-79184400D01*
X48018000Y-78884400D01*
G37*
%TO.C,JP2004*%
G36*
X112675000Y-72825000D02*
G01*
X114175000Y-72825000D01*
X114175000Y-73125000D01*
X112675000Y-73125000D01*
X112675000Y-72825000D01*
G37*
%TO.C,JP2002*%
G36*
X110175000Y-71750000D02*
G01*
X111675000Y-71750000D01*
X111675000Y-74200000D01*
X110175000Y-74200000D01*
X110175000Y-71750000D01*
G37*
%TD*%
D10*
%TO.C,R2011*%
X109599000Y-81661000D03*
X110619000Y-81661000D03*
%TD*%
D11*
%TO.C,JP2005*%
X110464600Y-78751600D03*
D12*
X110464600Y-80201600D03*
%TD*%
D13*
%TO.C,Q601*%
X105287500Y-62651000D03*
X105287500Y-60751000D03*
X107162500Y-61701000D03*
%TD*%
D14*
%TO.C,CN103*%
X37544000Y-42461949D03*
X37544000Y-35262051D03*
D15*
X31544000Y-32111936D03*
X31544000Y-45612064D03*
%TD*%
D14*
%TO.C,CN104*%
X68090549Y-72755500D03*
X60890651Y-72755500D03*
D16*
X57740536Y-78755500D03*
X71240664Y-78755500D03*
%TD*%
D17*
%TO.C,R3509*%
X42226850Y-46177200D03*
X57188750Y-46177200D03*
%TD*%
D18*
%TO.C,R13*%
X136823200Y-24088600D03*
X136823200Y-25738600D03*
%TD*%
D19*
%TO.C,U83*%
X115315991Y-21767801D03*
D20*
X115315991Y-20497799D03*
X116585994Y-21767801D03*
X116585994Y-20497799D03*
X117855996Y-21767801D03*
X117855996Y-20497799D03*
X119125999Y-21767801D03*
X119125999Y-20497799D03*
X120396001Y-21767801D03*
X120396001Y-20497799D03*
X121666004Y-21767801D03*
X121666004Y-20497799D03*
X122936006Y-21767801D03*
X122936006Y-20497799D03*
X124206009Y-21767801D03*
X124206009Y-20497799D03*
%TD*%
D21*
%TO.C,DC1*%
X117357438Y-75375000D03*
X117357438Y-81575000D03*
D22*
X122057438Y-78375000D03*
%TD*%
D23*
%TO.C,CN101*%
X79480010Y-30530816D03*
X79480010Y-22910800D03*
X74400000Y-30530816D03*
X74400000Y-22910800D03*
X69319990Y-30530816D03*
X69319990Y-22910800D03*
X64239980Y-30530816D03*
X64239980Y-22910800D03*
%TD*%
D24*
%TO.C,USB1*%
X139079714Y-24644806D03*
X139079714Y-20844705D03*
X130439886Y-24644806D03*
X130439886Y-20844705D03*
%TD*%
D25*
%TO.C,USB2002*%
X100075269Y-81009482D03*
X100925409Y-81009482D03*
X101775294Y-81009482D03*
X102625434Y-81009482D03*
X103475320Y-81009482D03*
X104325460Y-81009482D03*
X105175345Y-81009482D03*
X106025485Y-81009482D03*
X106025485Y-82359240D03*
X105175345Y-82359240D03*
X104325460Y-82359240D03*
X103475320Y-82359240D03*
X102625434Y-82359240D03*
X101775294Y-82359240D03*
X100925409Y-82359240D03*
X100075269Y-82359240D03*
D26*
X107375244Y-81989416D03*
D27*
X107375244Y-85369400D03*
X98725256Y-85369400D03*
D26*
X98725256Y-81989416D03*
%TD*%
D28*
%TO.C,CN2301*%
X139470500Y-41069936D03*
D29*
X139470500Y-38570064D03*
X139470500Y-36069936D03*
X139470500Y-33570064D03*
%TD*%
D30*
%TO.C,J103*%
X126765000Y-45925000D03*
D31*
X124225000Y-45925000D03*
X121685000Y-45925000D03*
%TD*%
D32*
%TO.C,U401*%
X103733596Y-29686400D03*
X107696004Y-29686400D03*
%TD*%
D30*
%TO.C,J101*%
X136780000Y-28600000D03*
D31*
X134240000Y-28600000D03*
X131700000Y-28600000D03*
%TD*%
D32*
%TO.C,U42*%
X94483591Y-29686400D03*
X98445999Y-29686400D03*
%TD*%
D28*
%TO.C,CN102*%
X76141189Y-80050500D03*
D29*
X78641061Y-80050500D03*
X81141189Y-80050500D03*
X83641061Y-80050500D03*
%TD*%
D28*
%TO.C,H4*%
X31440000Y-60180000D03*
D33*
X33980000Y-60180000D03*
X36520000Y-60180000D03*
X31440000Y-62720000D03*
X33980000Y-62720000D03*
X36520000Y-62720000D03*
X31440000Y-65260000D03*
X33980000Y-65260000D03*
X36520000Y-65260000D03*
X31440000Y-67800000D03*
X33980000Y-67800000D03*
X36520000Y-67800000D03*
%TD*%
D34*
%TO.C,F1*%
X53150000Y-86250000D03*
X53150000Y-81250000D03*
X53150000Y-77050000D03*
X53150000Y-72050000D03*
%TD*%
D35*
%TO.C,L602*%
X139309987Y-62080000D03*
X144609987Y-52880000D03*
%TD*%
D21*
%TO.C,DC2*%
X128875500Y-75350000D03*
X128875500Y-81550000D03*
D22*
X133575500Y-78350000D03*
%TD*%
D36*
%TO.C,C104*%
X58988808Y-51592818D03*
X65786000Y-54762400D03*
%TD*%
D32*
%TO.C,U501*%
X85233586Y-29686400D03*
X89195994Y-29686400D03*
%TD*%
D28*
%TO.C,H3*%
X31440000Y-49000000D03*
D33*
X33980000Y-49000000D03*
X36520000Y-49000000D03*
X31440000Y-51540000D03*
X33980000Y-51540000D03*
X36520000Y-51540000D03*
X31440000Y-54080000D03*
X33980000Y-54080000D03*
X36520000Y-54080000D03*
X31440000Y-56620000D03*
X33980000Y-56620000D03*
X36520000Y-56620000D03*
%TD*%
D37*
%TO.C,H1*%
X23918491Y-25551825D03*
X23918491Y-83551825D03*
X145418491Y-25551825D03*
X145418491Y-83551825D03*
%TD*%
D38*
%TO.C,D29*%
X54330000Y-61350000D03*
X54330000Y-59250000D03*
%TD*%
D39*
%TO.C,C3*%
X72379800Y-25730200D03*
X74279800Y-25730200D03*
%TD*%
D40*
%TO.C,C114*%
X76657200Y-63029800D03*
X76657200Y-64579800D03*
%TD*%
%TO.C,C112*%
X122021600Y-36677600D03*
X122021600Y-38227600D03*
%TD*%
D41*
%TO.C,C14*%
X141650000Y-33425000D03*
X141650000Y-31875000D03*
%TD*%
D42*
%TO.C,R106*%
X22100000Y-35300000D03*
X23750000Y-35300000D03*
%TD*%
D43*
%TO.C,C105*%
X115150600Y-39471600D03*
X116700600Y-39471600D03*
%TD*%
D18*
%TO.C,R147*%
X137100000Y-34321500D03*
X137100000Y-35971500D03*
%TD*%
D44*
%TO.C,D24*%
X47545330Y-68575000D03*
X47545330Y-65275000D03*
%TD*%
D43*
%TO.C,C80*%
X29900000Y-43625000D03*
X31450000Y-43625000D03*
%TD*%
D44*
%TO.C,D28*%
X57000000Y-57000000D03*
X57000000Y-53700000D03*
%TD*%
D45*
%TO.C,C11*%
X29292583Y-55250000D03*
X26107417Y-55250000D03*
%TD*%
D46*
%TO.C,U3403*%
X58725064Y-23242132D03*
X58225064Y-23242132D03*
X57725064Y-23242132D03*
X57225064Y-23242132D03*
X56725064Y-23242132D03*
X56225064Y-23242132D03*
X55725064Y-23242132D03*
X55225064Y-23242132D03*
X55225064Y-21442132D03*
X55725064Y-21442132D03*
X56225064Y-21442132D03*
X56725064Y-21442132D03*
X57225064Y-21442132D03*
X57725064Y-21442132D03*
X58225064Y-21442132D03*
X58725064Y-21442132D03*
%TD*%
D47*
%TO.C,C2601*%
X134398800Y-41815399D03*
X134398800Y-38755201D03*
%TD*%
D48*
%TO.C,D101*%
X124450000Y-68600000D03*
X124450000Y-72900000D03*
%TD*%
D40*
%TO.C,C141*%
X61875000Y-24320200D03*
X61875000Y-25870200D03*
%TD*%
D49*
%TO.C,D27*%
X56212500Y-59450000D03*
X59512500Y-59450000D03*
%TD*%
D50*
%TO.C,U901*%
X78555000Y-44125000D03*
D51*
X75005000Y-46030000D03*
X75005000Y-44760000D03*
X75005000Y-43490000D03*
X75005000Y-42220000D03*
%TD*%
D52*
%TO.C,C21*%
X116078000Y-54342600D03*
X116078000Y-51392600D03*
%TD*%
D53*
%TO.C,R17*%
X147825000Y-35800000D03*
X146175000Y-35800000D03*
%TD*%
D54*
%TO.C,C3603*%
X77825600Y-85526400D03*
X77825600Y-86486400D03*
%TD*%
D55*
%TO.C,Q16*%
X52337500Y-59450000D03*
X52337500Y-61350000D03*
X50462500Y-60400000D03*
%TD*%
D40*
%TO.C,C119*%
X90576400Y-66375000D03*
X90576400Y-67925000D03*
%TD*%
D56*
%TO.C,C1406*%
X92060000Y-53520000D03*
X91100000Y-53520000D03*
%TD*%
D57*
%TO.C,C66*%
X38702600Y-75682800D03*
X41652600Y-75682800D03*
%TD*%
D58*
%TO.C,R2001*%
X106172000Y-72157400D03*
X106172000Y-73177400D03*
%TD*%
D59*
%TO.C,C1003*%
X97650000Y-44075000D03*
X97650000Y-43115000D03*
%TD*%
D60*
%TO.C,C502*%
X87907200Y-25603200D03*
X86357200Y-25603200D03*
%TD*%
D54*
%TO.C,C1001*%
X104162875Y-43065000D03*
X104162875Y-44025000D03*
%TD*%
D61*
%TO.C,U44*%
X90130000Y-54802000D03*
X91080000Y-54802000D03*
X92030000Y-54802000D03*
X92030000Y-57100000D03*
X91080000Y-57100000D03*
X90130000Y-57100000D03*
%TD*%
D42*
%TO.C,R215*%
X75675000Y-61500000D03*
X77325000Y-61500000D03*
%TD*%
D62*
%TO.C,R9*%
X80175000Y-33837500D03*
X80175000Y-39762500D03*
%TD*%
D41*
%TO.C,C23*%
X121793000Y-53607000D03*
X121793000Y-52057000D03*
%TD*%
D63*
%TO.C,R402*%
X108423300Y-33274000D03*
X102498300Y-33274000D03*
%TD*%
D60*
%TO.C,C404*%
X106271400Y-25298400D03*
X104721400Y-25298400D03*
%TD*%
D63*
%TO.C,R104*%
X99822000Y-33324800D03*
X93897000Y-33324800D03*
%TD*%
D58*
%TO.C,R100*%
X100329875Y-39173000D03*
X100329875Y-40193000D03*
%TD*%
D40*
%TO.C,C1802*%
X112975000Y-64700000D03*
X112975000Y-66250000D03*
%TD*%
D64*
%TO.C,R2008*%
X109706600Y-75996800D03*
X108686600Y-75996800D03*
%TD*%
D42*
%TO.C,R185*%
X73530900Y-64566800D03*
X75180900Y-64566800D03*
%TD*%
D65*
%TO.C,C703*%
X112205000Y-46120000D03*
X109255000Y-46120000D03*
%TD*%
D58*
%TO.C,R3612*%
X78765400Y-83616800D03*
X78765400Y-84636800D03*
%TD*%
D66*
%TO.C,D30*%
X51800000Y-62950000D03*
X51800000Y-66250000D03*
%TD*%
D18*
%TO.C,R212*%
X79600000Y-58225000D03*
X79600000Y-59875000D03*
%TD*%
D62*
%TO.C,R86*%
X142113000Y-61553500D03*
X142113000Y-67478500D03*
%TD*%
D10*
%TO.C,R101*%
X95719875Y-42975000D03*
X96739875Y-42975000D03*
%TD*%
D53*
%TO.C,R105*%
X123700000Y-26850000D03*
X122050000Y-26850000D03*
%TD*%
D60*
%TO.C,C47*%
X97107000Y-25476200D03*
X95557000Y-25476200D03*
%TD*%
D67*
%TO.C,JP1402*%
X89425000Y-52750000D03*
D68*
X87975000Y-52750000D03*
%TD*%
D42*
%TO.C,R197*%
X92050000Y-64580000D03*
X93700000Y-64580000D03*
%TD*%
D69*
%TO.C,R200*%
X57750000Y-64503500D03*
X57750000Y-62853500D03*
%TD*%
D57*
%TO.C,C65*%
X44352600Y-75682800D03*
X47302600Y-75682800D03*
%TD*%
D58*
%TO.C,R74*%
X111525000Y-87565000D03*
X111525000Y-88585000D03*
%TD*%
D70*
%TO.C,JP2003*%
X118900000Y-71750000D03*
X118900000Y-73050000D03*
%TD*%
D41*
%TO.C,C124*%
X59250000Y-62900000D03*
X59250000Y-61350000D03*
%TD*%
D71*
%TO.C,D402*%
X104037800Y-23317200D03*
X107137800Y-23317200D03*
%TD*%
D57*
%TO.C,C1702*%
X44217399Y-87500000D03*
X47167399Y-87500000D03*
%TD*%
D72*
%TO.C,R1701*%
X37500000Y-84010000D03*
X37500000Y-82990000D03*
%TD*%
D58*
%TO.C,R243*%
X60604400Y-24224500D03*
X60604400Y-25244500D03*
%TD*%
D42*
%TO.C,R145*%
X29775000Y-35350000D03*
X31425000Y-35350000D03*
%TD*%
D64*
%TO.C,R1702*%
X38910000Y-79500000D03*
X37890000Y-79500000D03*
%TD*%
D69*
%TO.C,R211*%
X63250000Y-63200000D03*
X63250000Y-61550000D03*
%TD*%
D66*
%TO.C,D31*%
X61200000Y-62750000D03*
X61200000Y-66050000D03*
%TD*%
D58*
%TO.C,R3610*%
X78765400Y-85496400D03*
X78765400Y-86516400D03*
%TD*%
D10*
%TO.C,R1704*%
X48280000Y-84950000D03*
X49300000Y-84950000D03*
%TD*%
D58*
%TO.C,R3609*%
X75946000Y-85493800D03*
X75946000Y-86513800D03*
%TD*%
D41*
%TO.C,C75*%
X109780000Y-59015000D03*
X109780000Y-57465000D03*
%TD*%
D72*
%TO.C,R3507*%
X86258400Y-58472800D03*
X86258400Y-57452800D03*
%TD*%
D48*
%TO.C,D102*%
X137464800Y-73999200D03*
X137464800Y-78299200D03*
%TD*%
D10*
%TO.C,R610*%
X104640000Y-63950000D03*
X105660000Y-63950000D03*
%TD*%
D73*
%TO.C,CUR_1*%
X102748875Y-43350000D03*
X102748875Y-44000000D03*
X102748875Y-44650000D03*
X102748875Y-45300000D03*
D74*
X101861375Y-46187500D03*
X101211375Y-46187500D03*
X100561375Y-46187500D03*
X99911375Y-46187500D03*
D73*
X99023875Y-45300000D03*
X99023875Y-44650000D03*
X99023875Y-44000000D03*
X99023875Y-43350000D03*
D74*
X99911375Y-42462500D03*
X100561375Y-42462500D03*
X101211375Y-42462500D03*
X101861375Y-42462500D03*
D75*
X100886375Y-44325000D03*
%TD*%
D63*
%TO.C,R501*%
X91121000Y-36100000D03*
X85196000Y-36100000D03*
%TD*%
D10*
%TO.C,R1908*%
X107190000Y-57600000D03*
X108210000Y-57600000D03*
%TD*%
D58*
%TO.C,R609*%
X109125000Y-87640000D03*
X109125000Y-88660000D03*
%TD*%
D69*
%TO.C,R210*%
X61976000Y-69088000D03*
X61976000Y-67438000D03*
%TD*%
D43*
%TO.C,C127*%
X27735000Y-65379600D03*
X29285000Y-65379600D03*
%TD*%
D66*
%TO.C,D25*%
X63855600Y-65024000D03*
X63855600Y-68324000D03*
%TD*%
D42*
%TO.C,R187*%
X73530900Y-63042800D03*
X75180900Y-63042800D03*
%TD*%
D72*
%TO.C,R188*%
X34440000Y-23116000D03*
X34440000Y-22096000D03*
%TD*%
D56*
%TO.C,C1002*%
X101359875Y-41100000D03*
X100399875Y-41100000D03*
%TD*%
D58*
%TO.C,R1703*%
X38735000Y-82990000D03*
X38735000Y-84010000D03*
%TD*%
D76*
%TO.C,JP2001*%
X116400000Y-73125000D03*
D77*
X116400000Y-71675000D03*
%TD*%
D78*
%TO.C,R189*%
X70710000Y-35200000D03*
X70710000Y-42820000D03*
%TD*%
D10*
%TO.C,R113*%
X119378000Y-41706800D03*
X120398000Y-41706800D03*
%TD*%
D79*
%TO.C,U701*%
X110210600Y-51892200D03*
D80*
X108305600Y-48342200D03*
X109575600Y-48342200D03*
X110845600Y-48342200D03*
X112115600Y-48342200D03*
%TD*%
D71*
%TO.C,D501*%
X85826000Y-32512000D03*
X88926000Y-32512000D03*
%TD*%
D81*
%TO.C,U2601*%
X131699400Y-38936300D03*
X131699400Y-41236300D03*
X131699400Y-43536300D03*
D82*
X125399400Y-41236300D03*
%TD*%
D44*
%TO.C,D23*%
X54250000Y-66400000D03*
X54250000Y-63100000D03*
%TD*%
D41*
%TO.C,C120*%
X92050000Y-69215600D03*
X92050000Y-67665600D03*
%TD*%
D83*
%TO.C,U55*%
X45777536Y-78557730D03*
D84*
X45877613Y-79532838D03*
X45877613Y-80182825D03*
X45877613Y-80832813D03*
X45877613Y-81482800D03*
X45877613Y-82132787D03*
X45877613Y-82782775D03*
X45877613Y-83432762D03*
D83*
X45777536Y-84407870D03*
X40277664Y-84407870D03*
D84*
X40177587Y-83432762D03*
X40177587Y-82782775D03*
X40177587Y-82132787D03*
X40177587Y-81482800D03*
X40177587Y-80832813D03*
X40177587Y-80182825D03*
X40177587Y-79532838D03*
D83*
X40277664Y-78557730D03*
D85*
X43027727Y-79232864D03*
X43027727Y-80732736D03*
X43027727Y-82232864D03*
X43027727Y-83732736D03*
%TD*%
D43*
%TO.C,C89*%
X53220000Y-35200000D03*
X54770000Y-35200000D03*
%TD*%
D41*
%TO.C,C802*%
X110300000Y-68655000D03*
X110300000Y-67105000D03*
%TD*%
D57*
%TO.C,C1604*%
X26592000Y-77216000D03*
X29542000Y-77216000D03*
%TD*%
D72*
%TO.C,R1903*%
X111300000Y-58210000D03*
X111300000Y-57190000D03*
%TD*%
D41*
%TO.C,C39*%
X106390000Y-47230000D03*
X106390000Y-45680000D03*
%TD*%
D86*
%TO.C,U3601*%
X83103472Y-83894104D03*
X83103472Y-84844104D03*
X83103472Y-85794104D03*
X80828472Y-85794104D03*
X80828472Y-84844104D03*
X80828472Y-83894104D03*
%TD*%
D10*
%TO.C,R3504*%
X92230000Y-63020000D03*
X93250000Y-63020000D03*
%TD*%
D53*
%TO.C,R201*%
X45716530Y-69189990D03*
X44066530Y-69189990D03*
%TD*%
D87*
%TO.C,R16*%
X34137600Y-75811894D03*
X34137600Y-69679306D03*
%TD*%
D41*
%TO.C,C901*%
X74955700Y-49289000D03*
X74955700Y-47739000D03*
%TD*%
D52*
%TO.C,C20*%
X119380000Y-54332400D03*
X119380000Y-51382400D03*
%TD*%
D45*
%TO.C,C2101*%
X29392583Y-50100000D03*
X26207417Y-50100000D03*
%TD*%
D43*
%TO.C,C78*%
X30675000Y-36850000D03*
X32225000Y-36850000D03*
%TD*%
D67*
%TO.C,JP2102*%
X29600000Y-52500000D03*
D68*
X28150000Y-52500000D03*
%TD*%
D88*
%TO.C,U102*%
X118654069Y-39816280D03*
D89*
X118654069Y-39116254D03*
D90*
X118578884Y-38316153D03*
X119079012Y-38316153D03*
X119578884Y-38316153D03*
X120079012Y-38316153D03*
D89*
X120004081Y-39116254D03*
X120004081Y-39816280D03*
D90*
X120079012Y-40616127D03*
X119578884Y-40616127D03*
X119079012Y-40616127D03*
X118578884Y-40616127D03*
%TD*%
D91*
%TO.C,C903*%
X72745900Y-48650000D03*
X72745900Y-45700000D03*
%TD*%
D60*
%TO.C,C90*%
X54775000Y-36700000D03*
X53225000Y-36700000D03*
%TD*%
D40*
%TO.C,C702*%
X105079800Y-50825000D03*
X105079800Y-52375000D03*
%TD*%
D91*
%TO.C,C1803*%
X104500000Y-70315000D03*
X104500000Y-67365000D03*
%TD*%
D92*
%TO.C,D9*%
X135460200Y-26767000D03*
X134160200Y-26767000D03*
X134810200Y-24892000D03*
%TD*%
D40*
%TO.C,C801*%
X118775000Y-66150000D03*
X118775000Y-67700000D03*
%TD*%
D10*
%TO.C,R186*%
X33930000Y-20701000D03*
X34950000Y-20701000D03*
%TD*%
D93*
%TO.C,U72*%
X58025000Y-38233600D03*
X58025000Y-38733600D03*
X58025000Y-39233600D03*
X58025000Y-39733600D03*
X58025000Y-40233600D03*
X53625000Y-40233600D03*
X53625000Y-39733600D03*
X53625000Y-39233600D03*
X53625000Y-38733600D03*
X53625000Y-38233600D03*
%TD*%
D58*
%TO.C,R242*%
X61675000Y-28640500D03*
X61675000Y-29660500D03*
%TD*%
D72*
%TO.C,R268*%
X60200000Y-23050000D03*
X60200000Y-22030000D03*
%TD*%
D18*
%TO.C,R14*%
X132835400Y-24088600D03*
X132835400Y-25738600D03*
%TD*%
D49*
%TO.C,D26*%
X42371730Y-65825590D03*
X45671730Y-65825590D03*
%TD*%
D94*
%TO.C,C2602*%
X131657600Y-45770800D03*
X129657600Y-45770800D03*
%TD*%
D60*
%TO.C,C101*%
X118224600Y-41960800D03*
X116674600Y-41960800D03*
%TD*%
%TO.C,C126*%
X29285000Y-66929000D03*
X27735000Y-66929000D03*
%TD*%
D18*
%TO.C,R205*%
X59000000Y-55175000D03*
X59000000Y-56825000D03*
%TD*%
D53*
%TO.C,R2010*%
X118045000Y-70010000D03*
X116395000Y-70010000D03*
%TD*%
D64*
%TO.C,R96*%
X106097875Y-43025000D03*
X105077875Y-43025000D03*
%TD*%
%TO.C,R2704*%
X118924800Y-32969200D03*
X117904800Y-32969200D03*
%TD*%
D41*
%TO.C,C1801*%
X102510000Y-69205000D03*
X102510000Y-67655000D03*
%TD*%
%TO.C,C116*%
X78105000Y-59830000D03*
X78105000Y-58280000D03*
%TD*%
D53*
%TO.C,R204*%
X57775000Y-61400000D03*
X56125000Y-61400000D03*
%TD*%
D60*
%TO.C,C131*%
X123650000Y-23825000D03*
X122100000Y-23825000D03*
%TD*%
D39*
%TO.C,C5*%
X64600000Y-33275000D03*
X66500000Y-33275000D03*
%TD*%
D46*
%TO.C,U3401*%
X58725064Y-32599200D03*
X58225064Y-32599200D03*
X57725064Y-32599200D03*
X57225064Y-32599200D03*
X56725064Y-32599200D03*
X56225064Y-32599200D03*
X55725064Y-32599200D03*
X55225064Y-32599200D03*
X55225064Y-30799200D03*
X55725064Y-30799200D03*
X56225064Y-30799200D03*
X56725064Y-30799200D03*
X57225064Y-30799200D03*
X57725064Y-30799200D03*
X58225064Y-30799200D03*
X58725064Y-30799200D03*
%TD*%
D45*
%TO.C,C10*%
X29342583Y-58300000D03*
X26157417Y-58300000D03*
%TD*%
D72*
%TO.C,R241*%
X60625000Y-29633000D03*
X60625000Y-28613000D03*
%TD*%
D42*
%TO.C,R202*%
X44066530Y-67716790D03*
X45716530Y-67716790D03*
%TD*%
D60*
%TO.C,C701*%
X112155000Y-44080000D03*
X110605000Y-44080000D03*
%TD*%
D43*
%TO.C,C79*%
X30675000Y-38400000D03*
X32225000Y-38400000D03*
%TD*%
D40*
%TO.C,C96*%
X120100000Y-31325000D03*
X120100000Y-32875000D03*
%TD*%
D58*
%TO.C,R2705*%
X125628400Y-33515050D03*
X125628400Y-34535050D03*
%TD*%
D60*
%TO.C,C76*%
X106312000Y-78740000D03*
X104762000Y-78740000D03*
%TD*%
D40*
%TO.C,C142*%
X62000000Y-21350000D03*
X62000000Y-22900000D03*
%TD*%
D43*
%TO.C,C110*%
X115150600Y-37896800D03*
X116700600Y-37896800D03*
%TD*%
D95*
%TO.C,C46*%
X97282000Y-27279600D03*
X95382000Y-27279600D03*
%TD*%
D40*
%TO.C,C122*%
X64550000Y-80410000D03*
X64550000Y-81960000D03*
%TD*%
D41*
%TO.C,C1701*%
X48666400Y-83027700D03*
X48666400Y-81477700D03*
%TD*%
D60*
%TO.C,C902*%
X83260300Y-47701200D03*
X81710300Y-47701200D03*
%TD*%
D96*
%TO.C,SW2*%
X89958124Y-85170000D03*
X94458252Y-85170000D03*
D97*
X88708188Y-82669746D03*
X95708188Y-82669746D03*
%TD*%
D60*
%TO.C,C133*%
X123711000Y-19278600D03*
X122161000Y-19278600D03*
%TD*%
D98*
%TO.C,D16*%
X103327200Y-79470200D03*
X102827200Y-79470200D03*
D99*
X102327200Y-79470200D03*
D98*
X101827200Y-79470200D03*
X101327200Y-79470200D03*
X101327200Y-78670200D03*
X101827200Y-78670200D03*
D99*
X102327200Y-78670200D03*
D98*
X102827200Y-78670200D03*
X103327200Y-78670200D03*
%TD*%
D53*
%TO.C,R2009*%
X113036800Y-70600000D03*
X111386800Y-70600000D03*
%TD*%
D54*
%TO.C,C3602*%
X76911200Y-85526400D03*
X76911200Y-86486400D03*
%TD*%
D100*
%TO.C,U3402*%
X51322400Y-28775600D03*
X51322400Y-28275600D03*
X51322400Y-27775600D03*
X51322400Y-27275600D03*
X51322400Y-26775600D03*
X51322400Y-26275600D03*
X51322400Y-25775600D03*
X51322400Y-25275600D03*
X53122400Y-25275600D03*
X53122400Y-25775600D03*
X53122400Y-26275600D03*
X53122400Y-26775600D03*
X53122400Y-27275600D03*
X53122400Y-27775600D03*
X53122400Y-28275600D03*
X53122400Y-28775600D03*
%TD*%
D101*
%TO.C,U67*%
X31625000Y-42125000D03*
X30675000Y-42125000D03*
X29725000Y-42125000D03*
X29725000Y-39925000D03*
X31625000Y-39925000D03*
%TD*%
D42*
%TO.C,R203*%
X53155000Y-57750000D03*
X54805000Y-57750000D03*
%TD*%
D58*
%TO.C,R21*%
X103850000Y-86740000D03*
X103850000Y-87760000D03*
%TD*%
D102*
%TO.C,U101*%
X131702000Y-72644000D03*
X128902000Y-72644000D03*
%TD*%
D103*
%TO.C,C40*%
X104604875Y-47800000D03*
X104604875Y-45900000D03*
%TD*%
D54*
%TO.C,C3504*%
X89357200Y-67693600D03*
X89357200Y-68653600D03*
%TD*%
D72*
%TO.C,R1705*%
X47300000Y-84985000D03*
X47300000Y-83965000D03*
%TD*%
D55*
%TO.C,Q17*%
X60007100Y-67553800D03*
X60007100Y-69453800D03*
X58132100Y-68503800D03*
%TD*%
D72*
%TO.C,R3603*%
X69089000Y-82221800D03*
X69089000Y-81201800D03*
%TD*%
D104*
%TO.C,D3*%
X68425000Y-20350000D03*
X65325000Y-20350000D03*
%TD*%
D105*
%TO.C,RN1*%
X96950000Y-45260000D03*
D106*
X96950000Y-46060000D03*
X96950000Y-46860000D03*
D105*
X96950000Y-47660000D03*
X95150000Y-47660000D03*
D106*
X95150000Y-46860000D03*
X95150000Y-46060000D03*
D105*
X95150000Y-45260000D03*
%TD*%
D43*
%TO.C,C4*%
X72329800Y-27605200D03*
X73879800Y-27605200D03*
%TD*%
D107*
%TO.C,Q12*%
X122494000Y-34091400D03*
X124394000Y-34091400D03*
X123444000Y-35966400D03*
%TD*%
D108*
%TO.C,U3404*%
X58740064Y-29464917D03*
X58240064Y-29464917D03*
X57740064Y-29464917D03*
X57240064Y-29464917D03*
X56740064Y-29464917D03*
X56240064Y-29464917D03*
X55740064Y-29464917D03*
X55240064Y-29464917D03*
D109*
X54552564Y-28777417D03*
X54552564Y-28277417D03*
X54552564Y-27777417D03*
X54552564Y-27277417D03*
X54552564Y-26777417D03*
X54552564Y-26277417D03*
X54552564Y-25777417D03*
X54552564Y-25277417D03*
D108*
X55240064Y-24589917D03*
X55740064Y-24589917D03*
X56240064Y-24589917D03*
X56740064Y-24589917D03*
X57240064Y-24589917D03*
X57740064Y-24589917D03*
X58240064Y-24589917D03*
X58740064Y-24589917D03*
D109*
X59427564Y-25277417D03*
X59427564Y-25777417D03*
X59427564Y-26277417D03*
X59427564Y-26777417D03*
X59427564Y-27277417D03*
X59427564Y-27777417D03*
X59427564Y-28277417D03*
X59427564Y-28777417D03*
D110*
X56990064Y-27027417D03*
%TD*%
D111*
%TO.C,F3602*%
X70936200Y-84607400D03*
X73736200Y-84607400D03*
%TD*%
D58*
%TO.C,R1907*%
X114225000Y-55815000D03*
X114225000Y-56835000D03*
%TD*%
D112*
%TO.C,C704*%
X102692200Y-50292399D03*
X102692200Y-53242399D03*
%TD*%
D113*
%TO.C,U65*%
X104271400Y-76352400D03*
X104271400Y-75852400D03*
X104271400Y-75352400D03*
X104271400Y-74852400D03*
D114*
X104928900Y-74194900D03*
X105428900Y-74194900D03*
X105928900Y-74194900D03*
X106428900Y-74194900D03*
D113*
X107086400Y-74852400D03*
X107086400Y-75352400D03*
X107086400Y-75852400D03*
X107086400Y-76352400D03*
D114*
X106428900Y-77009900D03*
X105928900Y-77009900D03*
X105428900Y-77009900D03*
X104928900Y-77009900D03*
D115*
X105678900Y-75602400D03*
%TD*%
D111*
%TO.C,F3601*%
X70941200Y-86875400D03*
X73741200Y-86875400D03*
%TD*%
D95*
%TO.C,C501*%
X88082200Y-27355800D03*
X86182200Y-27355800D03*
%TD*%
D40*
%TO.C,C15*%
X143125000Y-31850000D03*
X143125000Y-33400000D03*
%TD*%
D116*
%TO.C,U80*%
X86990000Y-68222500D03*
X86490000Y-68222500D03*
X85990000Y-68222500D03*
X85490000Y-68222500D03*
X84990000Y-68222500D03*
X84490000Y-68222500D03*
X83990000Y-68222500D03*
X83490000Y-68222500D03*
X82990000Y-68222500D03*
X82490000Y-68222500D03*
X81990000Y-68222500D03*
X81490000Y-68222500D03*
D117*
X80077500Y-66810000D03*
X80077500Y-66310000D03*
X80077500Y-65810000D03*
X80077500Y-65310000D03*
X80077500Y-64810000D03*
X80077500Y-64310000D03*
X80077500Y-63810000D03*
X80077500Y-63310000D03*
X80077500Y-62810000D03*
X80077500Y-62310000D03*
X80077500Y-61810000D03*
X80077500Y-61310000D03*
D116*
X81490000Y-59897500D03*
X81990000Y-59897500D03*
X82490000Y-59897500D03*
X82990000Y-59897500D03*
X83490000Y-59897500D03*
X83990000Y-59897500D03*
X84490000Y-59897500D03*
X84990000Y-59897500D03*
X85490000Y-59897500D03*
X85990000Y-59897500D03*
X86490000Y-59897500D03*
X86990000Y-59897500D03*
D117*
X88402500Y-61310000D03*
X88402500Y-61810000D03*
X88402500Y-62310000D03*
X88402500Y-62810000D03*
X88402500Y-63310000D03*
X88402500Y-63810000D03*
X88402500Y-64310000D03*
X88402500Y-64810000D03*
X88402500Y-65310000D03*
X88402500Y-65810000D03*
X88402500Y-66310000D03*
X88402500Y-66810000D03*
%TD*%
D118*
%TO.C,U1*%
X146200000Y-34150000D03*
X145700000Y-34150000D03*
X145200000Y-34150000D03*
X144700000Y-34150000D03*
D119*
X144525000Y-33475000D03*
X144525000Y-32975000D03*
X144525000Y-32475000D03*
D118*
X144700000Y-31800000D03*
X145200000Y-31800000D03*
X145700000Y-31800000D03*
X146200000Y-31800000D03*
D119*
X146375000Y-32475000D03*
X146375000Y-32975000D03*
X146375000Y-33475000D03*
%TD*%
D62*
%TO.C,R87*%
X146150000Y-61537500D03*
X146150000Y-67462500D03*
%TD*%
D18*
%TO.C,R208*%
X51750000Y-55625000D03*
X51750000Y-57275000D03*
%TD*%
%TO.C,R20*%
X98200000Y-87275000D03*
X98200000Y-88925000D03*
%TD*%
D55*
%TO.C,Q3*%
X102200000Y-86450000D03*
X102200000Y-88350000D03*
X100325000Y-87400000D03*
%TD*%
D52*
%TO.C,C804*%
X107930000Y-69420000D03*
X107930000Y-66470000D03*
%TD*%
D43*
%TO.C,C6*%
X65810800Y-29210000D03*
X67360800Y-29210000D03*
%TD*%
D58*
%TO.C,R98*%
X102254875Y-47548000D03*
X102254875Y-48568000D03*
%TD*%
D63*
%TO.C,R3*%
X69713700Y-26492200D03*
X63788700Y-26492200D03*
%TD*%
D120*
%TO.C,C2702*%
X120186199Y-35509200D03*
X117151401Y-35509200D03*
%TD*%
D121*
%TO.C,JP1702*%
X37033200Y-81280000D03*
X38333200Y-81280000D03*
%TD*%
D10*
%TO.C,R3505*%
X92600000Y-62050000D03*
X93620000Y-62050000D03*
%TD*%
D58*
%TO.C,R3611*%
X75946000Y-83640200D03*
X75946000Y-84660200D03*
%TD*%
D40*
%TO.C,C123*%
X64550000Y-77410000D03*
X64550000Y-78960000D03*
%TD*%
D122*
%TO.C,Q15*%
X45580000Y-63310000D03*
X43280000Y-63310000D03*
X40980000Y-63310000D03*
D123*
X43280000Y-57010000D03*
%TD*%
D53*
%TO.C,R199*%
X55350000Y-67900000D03*
X53700000Y-67900000D03*
%TD*%
D124*
%TO.C,C1703*%
X41567399Y-87500000D03*
X38617399Y-87500000D03*
%TD*%
D69*
%TO.C,R15*%
X28225000Y-43725000D03*
X28225000Y-42075000D03*
%TD*%
D59*
%TO.C,C115*%
X78232000Y-64284800D03*
X78232000Y-63324800D03*
%TD*%
D70*
%TO.C,JP1701*%
X48768000Y-78384400D03*
X48768000Y-79684400D03*
%TD*%
D40*
%TO.C,C128*%
X60875000Y-45975000D03*
X60875000Y-47525000D03*
%TD*%
D41*
%TO.C,C129*%
X62750000Y-47525000D03*
X62750000Y-45975000D03*
%TD*%
D125*
%TO.C,Q3603*%
X69088000Y-79730600D03*
X67188000Y-79730600D03*
X68138000Y-77855600D03*
%TD*%
D41*
%TO.C,C125*%
X60600000Y-56775000D03*
X60600000Y-55225000D03*
%TD*%
D64*
%TO.C,R181*%
X33201000Y-22352000D03*
X32181000Y-22352000D03*
%TD*%
D55*
%TO.C,Q3602*%
X93975400Y-76672400D03*
X93975400Y-78572400D03*
X92100400Y-77622400D03*
%TD*%
D126*
%TO.C,U81*%
X24912600Y-70427600D03*
X24912600Y-69927600D03*
X24912600Y-69427600D03*
X24912600Y-68927600D03*
X24912600Y-68427600D03*
X29312600Y-68427600D03*
X29312600Y-68927600D03*
X29312600Y-69427600D03*
X29312600Y-69927600D03*
X29312600Y-70427600D03*
%TD*%
D60*
%TO.C,C1407*%
X92620000Y-52300000D03*
X91070000Y-52300000D03*
%TD*%
D42*
%TO.C,R196*%
X92020000Y-66070000D03*
X93670000Y-66070000D03*
%TD*%
D70*
%TO.C,JP2004*%
X113425000Y-72325000D03*
X113425000Y-73625000D03*
%TD*%
D10*
%TO.C,R2703*%
X117598000Y-31750000D03*
X118618000Y-31750000D03*
%TD*%
D127*
%TO.C,U601*%
X95300000Y-65700000D03*
X95300000Y-65050000D03*
X95300000Y-64400000D03*
X97500000Y-64400000D03*
X97500000Y-65050000D03*
X97500000Y-65700000D03*
%TD*%
D64*
%TO.C,R3602*%
X93677200Y-79933800D03*
X92657200Y-79933800D03*
%TD*%
D104*
%TO.C,D8*%
X133339800Y-21457000D03*
X136439800Y-21457000D03*
%TD*%
D11*
%TO.C,JP2002*%
X110925000Y-72250000D03*
D12*
X110925000Y-73700000D03*
%TD*%
D64*
%TO.C,R3508*%
X81810000Y-58150000D03*
X80790000Y-58150000D03*
%TD*%
D128*
%TO.C,D601*%
X103075000Y-63425000D03*
X103075000Y-60625000D03*
%TD*%
D58*
%TO.C,R2002*%
X99771200Y-77290200D03*
X99771200Y-78310200D03*
%TD*%
D95*
%TO.C,C403*%
X106446400Y-27051000D03*
X104546400Y-27051000D03*
%TD*%
D129*
%TO.C,R207*%
X68503800Y-67665616D03*
X68503800Y-60045600D03*
%TD*%
D112*
%TO.C,C1804*%
X115625000Y-65142399D03*
X115625000Y-68092399D03*
%TD*%
D64*
%TO.C,R1901*%
X111380000Y-56210000D03*
X110360000Y-56210000D03*
%TD*%
D45*
%TO.C,C12*%
X29392583Y-62800000D03*
X26207417Y-62800000D03*
%TD*%
D18*
%TO.C,R168*%
X131900000Y-30775000D03*
X131900000Y-32425000D03*
%TD*%
D40*
%TO.C,C111*%
X121564400Y-40169800D03*
X121564400Y-41719800D03*
%TD*%
D53*
%TO.C,R118*%
X123700000Y-25300000D03*
X122050000Y-25300000D03*
%TD*%
D10*
%TO.C,R102*%
X95719875Y-44079800D03*
X96739875Y-44079800D03*
%TD*%
D130*
%TO.C,C3604*%
X81564600Y-82600800D03*
X82524600Y-82600800D03*
%TD*%
D131*
%TO.C,C803*%
X120975000Y-66015000D03*
X120975000Y-68965000D03*
%TD*%
D132*
%TO.C,U3201*%
X29537400Y-26619200D03*
X30037528Y-26619200D03*
X30537400Y-26619200D03*
X31037528Y-26619200D03*
X31537400Y-26619200D03*
X32037528Y-26619200D03*
X32537400Y-26619200D03*
X33037528Y-26619200D03*
X33037528Y-28284936D03*
X32537400Y-28284936D03*
X32037528Y-28284936D03*
X31537400Y-28284936D03*
X31037528Y-28284936D03*
X30537400Y-28284936D03*
X30037528Y-28284936D03*
X29537400Y-28284936D03*
%TD*%
D72*
%TO.C,R3506*%
X85293200Y-58472800D03*
X85293200Y-57452800D03*
%TD*%
D18*
%TO.C,R209*%
X49700000Y-62796500D03*
X49700000Y-64446500D03*
%TD*%
D124*
%TO.C,C904*%
X84583800Y-50038000D03*
X81633800Y-50038000D03*
%TD*%
D58*
%TO.C,R99*%
X101404875Y-39173000D03*
X101404875Y-40193000D03*
%TD*%
D64*
%TO.C,R97*%
X106097875Y-44100000D03*
X105077875Y-44100000D03*
%TD*%
D18*
%TO.C,R198*%
X56134000Y-64796400D03*
X56134000Y-66446400D03*
%TD*%
D49*
%TO.C,D3601*%
X70486000Y-82245200D03*
X73786000Y-82245200D03*
%TD*%
D10*
%TO.C,R2006*%
X107516200Y-78460600D03*
X108536200Y-78460600D03*
%TD*%
M02*
