v 7.989422 0.411256 10.717577
v 7.989422 0.411256 6.777304
v 7.938667 0.988719 5.437163
newmtl 1
Ka 0.7529411764705882 0.7529411764705882 0.7529411764705882
Kd 0.7529411764705882 0.7529411764705882 0.7529411764705882
Ks 0.3764705882352941 0.3764705882352941 0.3764705882352941
d 0.0
endmtl
v 7.93936 -4.2E-5 5.437163
v 7.980982 -0.551304 6.777304
v 7.940044 -0.977596 5.437163
v 7.461744 -2.884852 24.07522
v 7.461744 -2.884852 5.437163
v 7.727407 -2.070552 24.07522
v 7.66959 -2.056053 5.437163
v 7.872468 -0.968699 24.07522
v 7.980982 -0.551304 10.717577
v 7.989422 0.411256 19.47374
v 7.871006 0.979812 24.07522
v 7.989422 0.411256 22.71352
v 8.0 0.0 24.07522
v 7.980982 -0.551304 22.71352
v 7.980982 -0.551304 19.47374
v 7.727407 2.070552 24.07522
v 7.669443 2.05593 5.437163
v 7.457695 2.895304 24.07522
v 7.457695 2.895304 5.437163
v 0.776199 2.032722 0.2
v 1.292481 2.032722 0.2
v 0.99936 1.961501 0.2
v 1.170391 1.781209 0.2
v 1.234789 1.525711 0.2
v 1.292481 1.007081 0.2
v 1.204327 1.335584 0.2
v 0.922026 1.034924 0.2
v 1.019345 1.088102 0.2
v 1.076292 1.135399 0.2
v 1.107986 1.16914 0.2
v 0.766938 1.007081 0.2
v 1.292481 0.69713 0.2
v 0.695526 0.99426 0.2
v 0.645401 0.996093 0.2
v 0.157866 0.69713 0.2
v 0.569277 1.007081 0.2
v 0.157866 2.032722 0.2
v 0.635832 2.032722 0.2
v 0.452697 1.994166 0.2
v 0.26043 1.203996 0.2
v 0.452221 1.046188 0.2
v 0.157866 1.007081 0.2
v 0.566005 1.007553 0.2
v 0.350279 1.930843 0.2
v 0.291902 1.875607 0.2
v 0.26043 1.836408 0.2
v 0.924026 1.888151 0.2
v 1.078922 1.748492 0.2
v 0.702337 1.942978 0.2
v 1.143435 1.559204 0.2
v 1.145046 1.5189 0.2
v 1.09325 1.312823 0.2
v 0.955374 1.168337 0.2
v 0.759107 1.100104 0.2
v 0.338956 1.263491 0.2
v 0.338956 1.776312 0.2
v 0.498515 1.139194 0.2
v 0.501055 1.9018 0.2
v 0.696127 1.096824 0.2
v 0.595425 1.932289 0.2
v 0.660971 1.941397 0.2
v 1.292481 5.43939 0.2
v 0.74095 2.043971 0.2
v 0.157866 5.619095 0.2
v 0.696728 2.045542 0.2
v -3.75 -0.4 0.2
v -3.55 -0.34641 0.2
v -2.967862 -4.74433 0.2
v -3.40359 -0.2 0.2
v -3.35 0.0 0.2
v -3.40359 0.2 0.2
v -2.967862 0.69713 0.2
v -3.55 0.34641 0.2
v -3.75 0.4 0.2
v -3.317518 -4.566172 0.2
v -4.566172 -3.317518 0.2
v -3.95 -0.34641 0.2
v -5.367857 -1.744123 0.2
v -4.09641 -0.2 0.2
v -4.15 0.0 0.2
v -5.644099 -0.0 0.2
v -4.09641 0.2 0.2
v -5.533684 0.69713 0.2
v -3.95 0.34641 0.2
v -1.744123 -5.367857 0.2
v -1.572903 0.69713 0.2
v -1.572903 -5.394975 0.2
v -0.598544 0.69713 0.2
v 1.744123 -5.367857 0.2
v 1.292481 -5.43939 0.2
v 0.157866 -5.619095 0.2
v 0.0 -5.644099 0.2
v -0.598544 -5.549299 0.2
v 3.75 -0.4 0.2
v 3.95 -0.34641 0.2
v 4.897049 -2.668134 0.2
v 4.09641 -0.2 0.2
v 4.15 0.0 0.2
v 4.897049 0.69713 0.2
v 4.09641 0.2 0.2
v 3.95 0.34641 0.2
v 3.75 0.4 0.2
v 3.55 0.34641 0.2
v 2.587266 0.69713 0.2
v 2.587266 -4.938254 0.2
v 3.55 -0.34641 0.2
v 3.317518 -4.566172 0.2
v 4.566172 -3.317518 0.2
v 3.40359 0.2 0.2
v 3.35 0.0 0.2
v 3.40359 -0.2 0.2
v 5.367857 -1.744123 0.2
v 5.644099 0.0 0.2
v 5.533684 0.69713 0.2
v 4.897049 1.007081 0.2
v 5.484593 1.007081 0.2
v 4.566172 3.317518 0.2
v 4.897049 2.668134 0.2
v 4.897049 2.032722 0.2
v 5.220808 2.032722 0.2
v 5.367857 1.744123 0.2
v 2.587266 2.032722 0.2
v 2.587266 4.938254 0.2
v 3.317518 4.566172 0.2
v 1.744123 5.367857 0.2
v -0.0 5.644099 0.2
v -0.598544 2.032722 0.2
v -0.598544 5.549299 0.2
v -1.572903 2.032722 0.2
v -1.572903 5.394975 0.2
v -4.566172 3.317518 0.2
v -3.317518 4.566172 0.2
v -2.967862 2.032722 0.2
v -2.967862 4.74433 0.2
v -1.744123 5.367857 0.2
v -2.967862 1.007081 0.2
v -5.367857 1.744123 0.2
v -5.220808 2.032722 0.2
v -5.484593 1.007081 0.2
v -1.572903 1.007081 0.2
v -2.488168 1.019901 0.2
v -2.585724 1.019901 0.2
v -2.124185 2.019901 0.2
v -2.340331 1.340414 0.2
v -1.887006 1.340414 0.2
v -1.734962 1.019901 0.2
v -1.637006 1.019901 0.2
v -2.111365 2.019901 0.2
v -1.207519 1.983844 0.2
v -1.387735 1.862593 0.2
v -1.307521 1.089875 0.2
v -1.106197 1.025429 0.2
v -0.998184 1.019901 0.2
v -0.598544 1.007081 0.2
v -1.490018 1.664607 0.2
v -1.508801 1.507281 0.2
v -1.452391 1.255747 0.2
v -0.688288 1.019901 0.2
v -0.688288 2.019901 0.2
v -0.890211 2.019901 0.2
v -1.050399 2.013784 0.2
v -0.508801 1.122465 0.2
v -0.508801 1.019901 0.2
v 0.055302 1.019901 0.2
v -0.508801 1.917337 0.2
v 0.055302 2.019901 0.2
v -0.508801 2.019901 0.2
v -0.508801 1.507081 0.2
v -0.034442 1.507081 0.2
v -0.034442 1.122465 0.2
v -0.508801 1.609645 0.2
v -0.034442 1.609645 0.2
v -0.034442 1.917337 0.2
v 1.734789 2.019901 0.2
v 1.824533 2.019901 0.2
v 1.824533 1.019901 0.2
v 2.587266 1.007081 0.2
v 1.350174 1.019901 0.2
v 1.350174 1.122465 0.2
v 1.734789 1.122465 0.2
v -7.93156 1.04421 0.64716
v -7.93156 1.04421 0.6
v -8.0 0.0 0.64716
newmtl 2
Ka 0.20392156862745098 0.20392156862745098 0.20392156862745098
Kd 0.20392156862745098 0.20392156862745098 0.20392156862745098
Ks 0.10196078431372549 0.10196078431372549 0.10196078431372549
d 0.0
endmtl
v -8.0 0.0 0.6
v -7.93156 -1.04421 0.64716
v -7.93156 -1.04421 0.6
v -7.727407 -2.070552 0.64716
v -7.727407 -2.070552 0.6
v -7.391037 -3.061468 0.64716
v -7.391037 -3.061468 0.6
v -6.928203 -4.0 0.64716
v -6.928203 -4.0 0.6
v -6.346827 -4.870091 0.64716
v -6.346827 -4.870091 0.6
v -5.656854 -5.656854 0.64716
v -5.656854 -5.656854 0.6
v -4.870091 -6.346827 0.64716
v -4.870091 -6.346827 0.6
v -4.0 -6.928203 0.64716
v -4.0 -6.928203 0.6
v -3.061468 -7.391037 0.64716
v -3.061468 -7.391037 0.6
v -2.070552 -7.727407 0.64716
v -2.070552 -7.727407 0.6
v -1.04421 -7.93156 0.64716
v -1.04421 -7.93156 0.6
v 0.0 -8.0 0.64716
v 0.0 -8.0 0.6
v 1.04421 -7.93156 0.64716
v 1.04421 -7.93156 0.6
v 2.070552 -7.727407 0.64716
v 2.070552 -7.727407 0.6
v 3.061468 -7.391037 0.64716
v 3.061468 -7.391037 0.6
v 4.0 -6.928203 0.64716
v 4.0 -6.928203 0.6
v 4.870091 -6.346827 0.64716
v 4.870091 -6.346827 0.6
v 5.656854 -5.656854 0.64716
v 5.656854 -5.656854 0.6
v 6.346827 -4.870091 0.64716
v 6.346827 -4.870091 0.6
v 6.928203 -4.0 0.64716
v 6.928203 -4.0 0.6
v 7.391037 -3.061468 0.64716
v 7.391037 -3.061468 0.6
v 7.727407 -2.070552 0.64716
v 7.727407 -2.070552 0.6
v 7.93156 -1.04421 0.64716
v 7.93156 -1.04421 0.6
v 8.0 0.0 0.64716
v 8.0 0.0 0.6
v 7.93156 1.04421 0.64716
v 7.93156 1.04421 0.6
v 7.727407 2.070552 0.64716
v 7.727407 2.070552 0.6
v 7.391037 3.061468 0.64716
v 7.391037 3.061468 0.6
v 6.928203 4.0 0.64716
v 6.928203 4.0 0.6
v 6.346827 4.870091 0.64716
v 6.346827 4.870091 0.6
v 5.656854 5.656854 0.64716
v 5.656854 5.656854 0.6
v 4.870091 6.346827 0.64716
v 4.870091 6.346827 0.6
v 4.0 6.928203 0.64716
v 4.0 6.928203 0.6
v 3.061468 7.391037 0.64716
v 3.061468 7.391037 0.6
v 2.070552 7.727407 0.64716
v 2.070552 7.727407 0.6
v 1.04421 7.93156 0.64716
v 1.04421 7.93156 0.6
v -0.0 8.0 0.64716
v -0.0 8.0 0.6
v -1.04421 7.93156 0.64716
v -1.04421 7.93156 0.6
v -2.070552 7.727407 0.64716
v -2.070552 7.727407 0.6
v -3.061468 7.391037 0.64716
v -3.061468 7.391037 0.6
v -4.0 6.928203 0.64716
v -4.0 6.928203 0.6
v -4.870091 6.346827 0.64716
v -4.870091 6.346827 0.6
v -5.656854 5.656854 0.64716
v -5.656854 5.656854 0.6
v -6.346827 4.870091 0.64716
v -6.346827 4.870091 0.6
v -6.928203 4.0 0.64716
v -6.928203 4.0 0.6
v -7.391037 3.061468 0.64716
v -7.391037 3.061468 0.6
v -7.727407 2.070552 0.64716
v -7.727407 2.070552 0.6
v -7.147851 -1.915261 0.0
v -7.336692 -0.965894 0.0
v -5.367857 -1.744123 0.0
v -5.644099 0.0 0.0
v -4.566172 -3.317518 0.0
v -6.408588 -3.7 0.0
v -6.836709 -2.831857 0.0
v -3.317518 -4.566172 0.0
v -5.23259 -5.23259 0.0
v -5.870815 -4.504835 0.0
v -1.915261 -7.147851 0.0
v -2.831857 -6.836709 0.0
v -1.744123 -5.367857 0.0
v -3.7 -6.408588 0.0
v -4.504835 -5.870815 0.0
v -0.965894 -7.336692 0.0
v 0.0 -5.644099 0.0
v 0.0 -7.4 0.0
v -0.0 5.644099 0.0
v -0.0 7.4 0.0
v 0.965894 7.336692 0.0
v -6.836709 2.831857 0.0
v -6.408588 3.7 0.0
v -5.367857 1.744123 0.0
v -4.566172 3.317518 0.0
v -7.4 0.0 0.0
v -7.336692 0.965894 0.0
v -7.147851 1.915261 0.0
v 4.566172 -3.317518 0.0
v 5.870815 -4.504835 0.0
v 5.23259 -5.23259 0.0
v 3.317518 4.566172 0.0
v 4.504835 5.870815 0.0
v 5.23259 5.23259 0.0
v 1.744123 5.367857 0.0
v -0.965894 7.336692 0.0
v -1.744123 5.367857 0.0
v -1.915261 7.147851 0.0
v 0.965894 -7.336692 0.0
v 1.744123 -5.367857 0.0
v 1.915261 -7.147851 0.0
v 3.317518 -4.566172 0.0
v 6.408588 -3.7 0.0
v 5.367857 -1.744123 0.0
v 6.836709 -2.831857 0.0
v 7.147851 1.915261 0.0
v 7.336692 0.965894 0.0
v 5.367857 1.744123 0.0
v 5.644099 0.0 0.0
v 4.566172 3.317518 0.0
v 1.915261 7.147851 0.0
v 2.831857 6.836709 0.0
v 3.7 6.408588 0.0
v -5.870815 4.504835 0.0
v -5.23259 5.23259 0.0
v -3.317518 4.566172 0.0
v 7.4 0.0 0.0
v 7.336692 -0.965894 0.0
v 7.147851 -1.915261 0.0
v 5.870815 4.504835 0.0
v 6.408588 3.7 0.0
v 6.836709 2.831857 0.0
v 4.504835 -5.870815 0.0
v 3.7 -6.408588 0.0
v 2.831857 -6.836709 0.0
v -4.504835 5.870815 0.0
v -3.7 6.408588 0.0
v -2.831857 6.836709 0.0
v -6.705454 0.88279 2.624725
v -7.826157 1.030333 0.988147
v -6.763316 0.0 2.624725
v -7.893688 0.0 0.988147
v -6.705454 -0.88279 2.624725
v -7.826157 -1.030333 0.988147
v -6.532861 -1.750475 2.624725
v -7.624717 -2.043037 0.988147
v -6.248489 -2.588209 2.624725
v -7.292817 -3.020784 0.988147
v -5.857203 -3.381658 2.624725
v -6.836134 -3.946844 0.988147
v -5.365699 -4.117246 2.624725
v -6.262484 -4.805373 0.988147
v -4.782386 -4.782386 2.624725
v -5.58168 -5.58168 0.988147
v -4.117246 -5.365699 2.624725
v -4.805373 -6.262484 0.988147
v -3.381658 -5.857203 2.624725
v -3.946844 -6.836134 0.988147
v -2.588209 -6.248489 2.624725
v -3.020784 -7.292817 0.988147
v -1.750475 -6.532861 2.624725
v -2.043037 -7.624717 0.988147
v -0.88279 -6.705454 2.624725
v -1.030333 -7.826157 0.988147
v 0.0 -6.763316 2.624725
v 0.0 -7.893688 0.988147
v 0.88279 -6.705454 2.624725
v 1.030333 -7.826157 0.988147
v 1.750475 -6.532861 2.624725
v 2.043037 -7.624717 0.988147
v 2.588209 -6.248489 2.624725
v 3.020784 -7.292817 0.988147
v 3.381658 -5.857203 2.624725
v 3.946844 -6.836134 0.988147
v 4.117246 -5.365699 2.624725
v 4.805373 -6.262484 0.988147
v 4.782386 -4.782386 2.624725
v 5.58168 -5.58168 0.988147
v 5.365699 -4.117246 2.624725
v 6.262484 -4.805373 0.988147
v 5.857203 -3.381658 2.624725
v 6.836134 -3.946844 0.988147
v 6.248489 -2.588209 2.624725
v 7.292817 -3.020784 0.988147
v 6.532861 -1.750475 2.624725
v 7.624717 -2.043037 0.988147
v 6.705454 -0.88279 2.624725
v 7.826157 -1.030333 0.988147
v 6.763316 0.0 2.624725
v 7.893688 0.0 0.988147
v 6.705454 0.88279 2.624725
v 7.826157 1.030333 0.988147
v 6.532861 1.750475 2.624725
v 7.624717 2.043037 0.988147
v 6.248489 2.588209 2.624725
v 7.292817 3.020784 0.988147
v 5.857203 3.381658 2.624725
v 6.836134 3.946844 0.988147
v 5.365699 4.117246 2.624725
v 6.262484 4.805373 0.988147
v 4.782386 4.782386 2.624725
v 5.58168 5.58168 0.988147
v 4.117246 5.365699 2.624725
v 4.805373 6.262484 0.988147
v 3.381658 5.857203 2.624725
v 3.946844 6.836134 0.988147
v 2.588209 6.248489 2.624725
v 3.020784 7.292817 0.988147
v 1.750475 6.532861 2.624725
v 2.043037 7.624717 0.988147
v 0.88279 6.705454 2.624725
v 1.030333 7.826157 0.988147
v -0.0 6.763316 2.624725
v -0.0 7.893688 0.988147
v -0.88279 6.705454 2.624725
v -1.030333 7.826157 0.988147
v -1.750475 6.532861 2.624725
v -2.043037 7.624717 0.988147
v -2.588209 6.248489 2.624725
v -3.020784 7.292817 0.988147
v -3.381658 5.857203 2.624725
v -3.946844 6.836134 0.988147
v -4.117246 5.365699 2.624725
v -4.805373 6.262484 0.988147
v -4.782386 4.782386 2.624725
v -5.58168 5.58168 0.988147
v -5.365699 4.117246 2.624725
v -6.262484 4.805373 0.988147
v -5.857203 3.381658 2.624725
v -6.836134 3.946844 0.988147
v -6.248489 2.588209 2.624725
v -7.292817 3.020784 0.988147
v -6.532861 1.750475 2.624725
v -7.624717 2.043037 0.988147
v 6.666324 -0.0 2.860371
v 6.609292 0.87013 2.860371
v 6.439174 1.725371 2.860371
v 6.15888 2.551092 2.860371
v 5.773205 3.333162 2.860371
v 5.28875 4.0582 2.860371
v 4.713803 4.713803 2.860371
v 4.0582 5.28875 2.860371
v 3.333162 5.773205 2.860371
v 2.551092 6.15888 2.860371
v 1.725371 6.439174 2.860371
v 0.87013 6.609292 2.860371
v 0.0 6.666324 2.860371
v -0.87013 6.609292 2.860371
v -1.725371 6.439174 2.860371
v -2.551092 6.15888 2.860371
v -3.333162 5.773205 2.860371
v -4.0582 5.28875 2.860371
v -4.713803 4.713803 2.860371
v -5.28875 4.0582 2.860371
v -5.773205 3.333162 2.860371
v -6.15888 2.551092 2.860371
v -6.439174 1.725371 2.860371
v -6.609292 0.87013 2.860371
v -6.666324 0.0 2.860371
v -6.609292 -0.87013 2.860371
v -6.439174 -1.725371 2.860371
v -6.15888 -2.551092 2.860371
v -5.773205 -3.333162 2.860371
v -5.28875 -4.0582 2.860371
v -4.713803 -4.713803 2.860371
v -4.0582 -5.28875 2.860371
v -3.333162 -5.773205 2.860371
v -2.551092 -6.15888 2.860371
v -1.725371 -6.439174 2.860371
v -0.87013 -6.609292 2.860371
v -0.0 -6.666324 2.860371
v 0.87013 -6.609292 2.860371
v 1.725371 -6.439174 2.860371
v 2.551092 -6.15888 2.860371
v 3.333162 -5.773205 2.860371
v 4.0582 -5.28875 2.860371
v 4.713803 -4.713803 2.860371
v 5.28875 -4.0582 2.860371
v 5.773205 -3.333162 2.860371
v 6.15888 -2.551092 2.860371
v 6.439174 -1.725371 2.860371
v 6.609292 -0.87013 2.860371
v 6.675878 -0.0 3.115017
v 6.618764 0.871377 3.115017
v 6.448402 1.727844 3.115017
v 6.167706 2.554748 3.115017
v 5.78148 3.337939 3.115017
v 5.296329 4.064016 3.115017
v 4.720559 4.720559 3.115017
v 4.064016 5.296329 3.115017
v 3.337939 5.78148 3.115017
v 2.554748 6.167706 3.115017
v 1.727844 6.448402 3.115017
v 0.871377 6.618764 3.115017
v 0.0 6.675878 3.115017
v -0.871377 6.618764 3.115017
v -1.727844 6.448402 3.115017
v -2.554748 6.167706 3.115017
v -3.337939 5.78148 3.115017
v -4.064016 5.296329 3.115017
v -4.720559 4.720559 3.115017
v -5.296329 4.064016 3.115017
v -5.78148 3.337939 3.115017
v -6.167706 2.554748 3.115017
v -6.448402 1.727844 3.115017
v -6.618764 0.871377 3.115017
v -6.675878 0.0 3.115017
v -6.618764 -0.871377 3.115017
v -6.448402 -1.727844 3.115017
v -6.167706 -2.554748 3.115017
v -5.78148 -3.337939 3.115017
v -5.296329 -4.064016 3.115017
v -4.720559 -4.720559 3.115017
v -4.064016 -5.296329 3.115017
v -3.337939 -5.78148 3.115017
v -2.554748 -6.167706 3.115017
v -1.727844 -6.448402 3.115017
v -0.871377 -6.618764 3.115017
v -0.0 -6.675878 3.115017
v 0.871377 -6.618764 3.115017
v 1.727844 -6.448402 3.115017
v 2.554748 -6.167706 3.115017
v 3.337939 -5.78148 3.115017
v 4.064016 -5.296329 3.115017
v 4.720559 -4.720559 3.115017
v 5.296329 -4.064016 3.115017
v 5.78148 -3.337939 3.115017
v 6.167706 -2.554748 3.115017
v 6.448402 -1.727844 3.115017
v 6.618764 -0.871377 3.115017
v 6.790254 -0.0 3.342733
v 6.732162 0.886306 3.342733
v 6.558882 1.757447 3.342733
v 6.273377 2.598518 3.342733
v 5.880533 3.395127 3.342733
v 5.387071 4.133645 3.342733
v 4.801435 4.801435 3.342733
v 4.133645 5.387071 3.342733
v 3.395127 5.880533 3.342733
v 2.598518 6.273377 3.342733
v 1.757447 6.558882 3.342733
v 0.886306 6.732162 3.342733
v 0.0 6.790254 3.342733
v -0.886306 6.732162 3.342733
v -1.757447 6.558882 3.342733
v -2.598518 6.273377 3.342733
v -3.395127 5.880533 3.342733
v -4.133645 5.387071 3.342733
v -4.801435 4.801435 3.342733
v -5.387071 4.133645 3.342733
v -5.880533 3.395127 3.342733
v -6.273377 2.598518 3.342733
v -6.558882 1.757447 3.342733
v -6.732162 0.886306 3.342733
v -6.790254 0.0 3.342733
v -6.732162 -0.886306 3.342733
v -6.558882 -1.757447 3.342733
v -6.273377 -2.598518 3.342733
v -5.880533 -3.395127 3.342733
v -5.387071 -4.133645 3.342733
v -4.801435 -4.801435 3.342733
v -4.133645 -5.387071 3.342733
v -3.395127 -5.880533 3.342733
v -2.598518 -6.273377 3.342733
v -1.757447 -6.558882 3.342733
v -0.886306 -6.732162 3.342733
v -0.0 -6.790254 3.342733
v 0.886306 -6.732162 3.342733
v 1.757447 -6.558882 3.342733
v 2.598518 -6.273377 3.342733
v 3.395127 -5.880533 3.342733
v 4.133645 -5.387071 3.342733
v 4.801435 -4.801435 3.342733
v 5.387071 -4.133645 3.342733
v 5.880533 -3.395127 3.342733
v 6.273377 -2.598518 3.342733
v 6.558882 -1.757447 3.342733
v 6.732162 -0.886306 3.342733
v 7.799448 1.026817 4.675426
v 7.86675 0.0 4.675426
v 7.799448 -1.026817 4.675426
v 7.598696 -2.036065 4.675426
v 7.267929 -3.010475 4.675426
v 6.812805 -3.933375 4.675426
v 6.241112 -4.788974 4.675426
v 5.562632 -5.562632 4.675426
v 4.788974 -6.241112 4.675426
v 3.933375 -6.812805 4.675426
v 3.010475 -7.267929 4.675426
v 2.036065 -7.598696 4.675426
v 1.026817 -7.799448 4.675426
v -0.0 -7.86675 4.675426
v -1.026817 -7.799448 4.675426
v -2.036065 -7.598696 4.675426
v -3.010475 -7.267929 4.675426
v -3.933375 -6.812805 4.675426
v -4.788974 -6.241112 4.675426
v -5.562632 -5.562632 4.675426
v -6.241112 -4.788974 4.675426
v -6.812805 -3.933375 4.675426
v -7.267929 -3.010475 4.675426
v -7.598696 -2.036065 4.675426
v -7.799448 -1.026817 4.675426
v -7.86675 0.0 4.675426
v -7.799448 1.026817 4.675426
v -7.598696 2.036065 4.675426
v -7.267929 3.010475 4.675426
v -6.812805 3.933375 4.675426
v -6.241112 4.788974 4.675426
v -5.562632 5.562632 4.675426
v -4.788974 6.241112 4.675426
v -3.933375 6.812805 4.675426
v -3.010475 7.267929 4.675426
v -2.036065 7.598696 4.675426
v -1.026817 7.799448 4.675426
v 0.0 7.86675 4.675426
v 1.026817 7.799448 4.675426
v 2.036065 7.598696 4.675426
v 3.010475 7.267929 4.675426
v 3.933375 6.812805 4.675426
v 4.788974 6.241112 4.675426
v 5.562632 5.562632 4.675426
v 6.241112 4.788974 4.675426
v 6.812805 3.933375 4.675426
v 7.267929 3.010475 4.675426
v 7.598696 2.036065 4.675426
v 7.336692 -0.965894 25.0
v 4.783389 0.0 25.0
v 7.147851 -1.915261 25.0
v 4.524212 -1.553164 25.0
v 5.23259 -5.23259 25.0
v 5.870815 -4.504835 25.0
v 3.774766 -2.938018 25.0
v 6.408588 -3.7 25.0
v 6.836709 -2.831857 25.0
v 4.504835 -5.870815 25.0
v 2.616266 -4.004493 25.0
v 3.7 -6.408588 25.0
v -1.915261 7.147851 25.0
v -1.921466 4.3805 25.0
v -0.395009 4.767051 25.0
v 1.915261 7.147851 25.0
v 1.174253 4.637019 25.0
v 2.831857 6.836709 25.0
v 2.616266 4.004493 25.0
v 2.831857 -6.836709 25.0
v 1.174253 -4.637019 25.0
v 1.915261 -7.147851 25.0
v 0.965894 -7.336692 25.0
v -0.395009 -4.767051 25.0
v 0.0 -7.4 25.0
v 0.965894 7.336692 25.0
v -0.0 7.4 25.0
v -0.965894 7.336692 25.0
v -3.7 -6.408588 25.0
v -2.831857 -6.836709 25.0
v -1.921466 -4.3805 25.0
v -1.915261 -7.147851 25.0
v -0.965894 -7.336692 25.0
v -7.4 0.0 25.0
v -4.71815 -0.78732 25.0
v -4.71815 0.78732 25.0
v 5.870815 4.504835 25.0
v 3.774766 2.938018 25.0
v 6.408588 3.7 25.0
v 4.524212 1.553164 25.0
v 6.836709 2.831857 25.0
v -4.504835 -5.870815 25.0
v -3.239701 -3.519254 25.0
v -5.23259 -5.23259 25.0
v -5.870815 -4.504835 25.0
v -4.206865 -2.276642 25.0
v -6.408588 -3.7 25.0
v 5.23259 5.23259 25.0
v 4.504835 5.870815 25.0
v 3.7 6.408588 25.0
v 7.4 -0.0 25.0
v 7.336692 0.965894 25.0
v 7.147851 1.915261 25.0
v -7.336692 -0.965894 25.0
v -7.147851 -1.915261 25.0
v -6.836709 -2.831857 25.0
v -6.408588 3.7 25.0
v -6.836709 2.831857 25.0
v -4.206865 2.276642 25.0
v -7.147851 1.915261 25.0
v -7.336692 0.965894 25.0
v -5.870815 4.504835 25.0
v -3.239701 3.519254 25.0
v -5.23259 5.23259 25.0
v -2.831857 6.836709 25.0
v -3.7 6.408588 25.0
v -4.504835 5.870815 25.0
v 6.928203 -4.0 5.052447
v 7.391037 -3.061468 5.052447
v 6.928203 4.0 5.052447
v 7.727407 -2.070552 5.052447
v 7.93156 -1.04421 5.052447
v 8.0 0.0 5.052447
v 7.93156 1.04421 5.052447
v 7.727407 2.070552 5.052447
v 7.391037 3.061468 5.052447
v 6.928203 -4.0 24.4
v 6.346827 -4.870091 5.052447
v 6.346827 -4.870091 24.4
v 5.656854 -5.656854 5.052447
v 5.656854 -5.656854 24.4
v 4.870091 -6.346827 5.052447
v 4.870091 -6.346827 24.4
v 4.0 -6.928203 5.052447
v 4.0 -6.928203 24.4
v 3.061468 -7.391037 5.052447
v 3.061468 -7.391037 24.4
v 2.070552 -7.727407 5.052447
v 2.070552 -7.727407 24.4
v 1.04421 -7.93156 5.052447
v 1.04421 -7.93156 24.4
v 0.0 -8.0 5.052447
v 0.0 -8.0 24.4
v -1.04421 -7.93156 5.052447
v -1.04421 -7.93156 24.4
v -2.070552 -7.727407 5.052447
v -2.070552 -7.727407 24.4
v -3.061468 -7.391037 5.052447
v -3.061468 -7.391037 24.4
v -4.0 -6.928203 5.052447
v -4.0 -6.928203 24.4
v -4.870091 -6.346827 5.052447
v -4.870091 -6.346827 24.4
v -5.656854 -5.656854 5.052447
v -5.656854 -5.656854 24.4
v -6.346827 -4.870091 5.052447
v -6.346827 -4.870091 24.4
v -6.928203 -4.0 5.052447
v -6.928203 -4.0 24.4
v -7.391037 -3.061468 5.052447
v -7.391037 -3.061468 24.4
v -7.727407 -2.070552 5.052447
v -7.727407 -2.070552 24.4
v -7.93156 -1.04421 5.052447
v -7.93156 -1.04421 24.4
v -8.0 0.0 5.052447
v -8.0 0.0 24.4
v -7.93156 1.04421 5.052447
v -7.93156 1.04421 24.4
v -7.727407 2.070552 5.052447
v -7.727407 2.070552 24.4
v -7.391037 3.061468 5.052447
v -7.391037 3.061468 24.4
v -6.928203 4.0 5.052447
v -6.928203 4.0 24.4
v -6.346827 4.870091 5.052447
v -6.346827 4.870091 24.4
v -5.656854 5.656854 5.052447
v -5.656854 5.656854 24.4
v -4.870091 6.346827 5.052447
v -4.870091 6.346827 24.4
v -4.0 6.928203 5.052447
v -4.0 6.928203 24.4
v -3.061468 7.391037 5.052447
v -3.061468 7.391037 24.4
v -2.070552 7.727407 5.052447
v -2.070552 7.727407 24.4
v -1.04421 7.93156 5.052447
v -1.04421 7.93156 24.4
v -0.0 8.0 5.052447
v -0.0 8.0 24.4
v 1.04421 7.93156 5.052447
v 1.04421 7.93156 24.4
v 2.070552 7.727407 5.052447
v 2.070552 7.727407 24.4
v 3.061468 7.391037 5.052447
v 3.061468 7.391037 24.4
v 4.0 6.928203 5.052447
v 4.0 6.928203 24.4
v 4.870091 6.346827 5.052447
v 4.870091 6.346827 24.4
v 5.656854 5.656854 5.052447
v 5.656854 5.656854 24.4
v 6.346827 4.870091 5.052447
v 6.346827 4.870091 24.4
v 6.928203 4.0 24.4
v 7.391037 3.061468 24.4
v 7.727407 2.070552 24.4
v 7.93156 1.04421 24.4
v 8.0 0.0 24.4
v 7.93156 -1.04421 24.4
v 7.727407 -2.070552 24.4
v 7.391037 -3.061468 24.4
v -3.95 -0.34641 -5.0
v -4.09641 -0.2 -5.0
v -3.75 0.0 -5.0
newmtl 3
Ka 0.796078431372549 0.8235294117647058 0.9372549019607843
Kd 0.796078431372549 0.8235294117647058 0.9372549019607843
Ks 0.396078431372549 0.4117647058823529 0.4666666666666667
d 0.0
endmtl
v -4.15 0.0 -5.0
v -4.09641 0.2 -5.0
v -3.40359 -0.2 -5.0
v -3.55 -0.34641 -5.0
v -3.75 -0.4 -5.0
v -3.55 0.34641 -5.0
v -3.40359 0.2 -5.0
v -3.35 0.0 -5.0
v -3.95 0.34641 -5.0
v -3.75 0.4 -5.0
v 3.95 0.34641 -5.0
v 4.09641 0.2 -5.0
v 3.75 0.0 -5.0
v 4.15 0.0 -5.0
v 4.09641 -0.2 -5.0
v 3.40359 0.2 -5.0
v 3.55 0.34641 -5.0
v 3.75 0.4 -5.0
v 3.55 -0.34641 -5.0
v 3.40359 -0.2 -5.0
v 3.35 0.0 -5.0
v 3.95 -0.34641 -5.0
v 3.75 -0.4 -5.0
v 7.634126 1.005052 24.919617
v 7.437629 1.992907 24.919617
v 7.113873 2.946662 24.919617
v 6.668396 3.85 24.919617
v 6.108821 4.687463 24.919617
v 5.444722 5.444722 24.919617
v 4.687463 6.108821 24.919617
v 3.85 6.668396 24.919617
v 2.946662 7.113873 24.919617
v 1.992907 7.437629 24.919617
v 1.005052 7.634126 24.919617
v -0.0 7.7 24.919617
v -1.005052 7.634126 24.919617
v -1.992907 7.437629 24.919617
v -2.946662 7.113873 24.919617
v -3.85 6.668396 24.919617
v -4.687463 6.108821 24.919617
v -5.444722 5.444722 24.919617
v -6.108821 4.687463 24.919617
v -6.668396 3.85 24.919617
v -7.113873 2.946662 24.919617
v -7.437629 1.992907 24.919617
v -7.634126 1.005052 24.919617
v -7.7 0.0 24.919617
v -7.634126 -1.005052 24.919617
v -7.437629 -1.992907 24.919617
v -7.113873 -2.946662 24.919617
v -6.668396 -3.85 24.919617
v -6.108821 -4.687463 24.919617
v -5.444722 -5.444722 24.919617
v -4.687463 -6.108821 24.919617
v -3.85 -6.668396 24.919617
v -2.946662 -7.113873 24.919617
v -1.992907 -7.437629 24.919617
v -1.005052 -7.634126 24.919617
v 0.0 -7.7 24.919617
v 1.005052 -7.634126 24.919617
v 1.992907 -7.437629 24.919617
v 2.946662 -7.113873 24.919617
v 3.85 -6.668396 24.919617
v 4.687463 -6.108821 24.919617
v 5.444722 -5.444722 24.919617
v 6.108821 -4.687463 24.919617
v 6.668396 -3.85 24.919617
v 7.113873 -2.946662 24.919617
v 7.437629 -1.992907 24.919617
v 7.634126 -1.005052 24.919617
v 7.7 0.0 24.919617
v 7.851861 1.033717 24.700001
v 7.649761 2.049747 24.700001
v 7.316771 3.030705 24.700001
v 6.858588 3.959808 24.700001
v 6.283053 4.821156 24.700001
v 5.600014 5.600014 24.700001
v 4.821156 6.283053 24.700001
v 3.959808 6.858588 24.700001
v 3.030705 7.316771 24.700001
v 2.049747 7.649761 24.700001
v 1.033717 7.851861 24.700001
v -0.0 7.919615 24.700001
v -1.033717 7.851861 24.700001
v -2.049747 7.649761 24.700001
v -3.030705 7.316771 24.700001
v -3.959808 6.858588 24.700001
v -4.821156 6.283053 24.700001
v -5.600014 5.600014 24.700001
v -6.283053 4.821156 24.700001
v -6.858588 3.959808 24.700001
v -7.316771 3.030705 24.700001
v -7.649761 2.049747 24.700001
v -7.851861 1.033717 24.700001
v -7.919615 0.0 24.700001
v -7.851861 -1.033717 24.700001
v -7.649761 -2.049747 24.700001
v -7.316771 -3.030705 24.700001
v -6.858588 -3.959808 24.700001
v -6.283053 -4.821156 24.700001
v -5.600014 -5.600014 24.700001
v -4.821156 -6.283053 24.700001
v -3.959808 -6.858588 24.700001
v -3.030705 -7.316771 24.700001
v -2.049747 -7.649761 24.700001
v -1.033717 -7.851861 24.700001
v 0.0 -7.919615 24.700001
v 1.033717 -7.851861 24.700001
v 2.049747 -7.649761 24.700001
v 3.030705 -7.316771 24.700001
v 3.959808 -6.858588 24.700001
v 4.821156 -6.283053 24.700001
v 5.600014 -5.600014 24.700001
v 6.283053 -4.821156 24.700001
v 6.858588 -3.959808 24.700001
v 7.316771 -3.030705 24.700001
v 7.649761 -2.049747 24.700001
v 7.851861 -1.033717 24.700001
v 7.919615 0.0 24.700001
v 7.851861 1.033717 0.3
v 7.649761 2.049747 0.3
v 7.316771 3.030705 0.3
v 6.858588 3.959808 0.3
v 6.283053 4.821156 0.3
v 5.600014 5.600014 0.3
v 4.821156 6.283053 0.3
v 3.959808 6.858588 0.3
v 3.030705 7.316771 0.3
v 2.049747 7.649761 0.3
v 1.033717 7.851861 0.3
v -0.0 7.919615 0.3
v -1.033717 7.851861 0.3
v -2.049747 7.649761 0.3
v -3.030705 7.316771 0.3
v -3.959808 6.858588 0.3
v -4.821156 6.283053 0.3
v -5.600014 5.600014 0.3
v -6.283053 4.821156 0.3
v -6.858588 3.959808 0.3
v -7.316771 3.030705 0.3
v -7.649761 2.049747 0.3
v -7.851861 1.033717 0.3
v -7.919615 0.0 0.3
v -7.851861 -1.033717 0.3
v -7.649761 -2.049747 0.3
v -7.316771 -3.030705 0.3
v -6.858588 -3.959808 0.3
v -6.283053 -4.821156 0.3
v -5.600014 -5.600014 0.3
v -4.821156 -6.283053 0.3
v -3.959808 -6.858588 0.3
v -3.030705 -7.316771 0.3
v -2.049747 -7.649761 0.3
v -1.033717 -7.851861 0.3
v 0.0 -7.919615 0.3
v 1.033717 -7.851861 0.3
v 2.049747 -7.649761 0.3
v 3.030705 -7.316771 0.3
v 3.959808 -6.858588 0.3
v 4.821156 -6.283053 0.3
v 5.600014 -5.600014 0.3
v 6.283053 -4.821156 0.3
v 6.858588 -3.959808 0.3
v 7.316771 -3.030705 0.3
v 7.649761 -2.049747 0.3
v 7.851861 -1.033717 0.3
v 7.919615 0.0 0.3
v 7.634126 1.005052 0.080385
v 7.437629 1.992907 0.080385
v 7.113873 2.946662 0.080385
v 6.668396 3.85 0.080385
v 6.108821 4.687463 0.080385
v 5.444722 5.444722 0.080385
v 4.687463 6.108821 0.080385
v 3.85 6.668396 0.080385
v 2.946662 7.113873 0.080385
v 1.992907 7.437629 0.080385
v 1.005052 7.634126 0.080385
v -0.0 7.7 0.080385
v -1.005052 7.634126 0.080385
v -1.992907 7.437629 0.080385
v -2.946662 7.113873 0.080385
v -3.85 6.668396 0.080385
v -4.687463 6.108821 0.080385
v -5.444722 5.444722 0.080385
v -6.108821 4.687463 0.080385
v -6.668396 3.85 0.080385
v -7.113873 2.946662 0.080385
v -7.437629 1.992907 0.080385
v -7.634126 1.005052 0.080385
v -7.7 0.0 0.080385
v -7.634126 -1.005052 0.080385
v -7.437629 -1.992907 0.080385
v -7.113873 -2.946662 0.080385
v -6.668396 -3.85 0.080385
v -6.108821 -4.687463 0.080385
v -5.444722 -5.444722 0.080385
v -4.687463 -6.108821 0.080385
v -3.85 -6.668396 0.080385
v -2.946662 -7.113873 0.080385
v -1.992907 -7.437629 0.080385
v -1.005052 -7.634126 0.080385
v 0.0 -7.7 0.080385
v 1.005052 -7.634126 0.080385
v 1.992907 -7.437629 0.080385
v 2.946662 -7.113873 0.080385
v 3.85 -6.668396 0.080385
v 4.687463 -6.108821 0.080385
v 5.444722 -5.444722 0.080385
v 6.108821 -4.687463 0.080385
v 6.668396 -3.85 0.080385
v 7.113873 -2.946662 0.080385
v 7.437629 -1.992907 0.080385
v 7.634126 -1.005052 0.080385
v 7.7 0.0 0.080385
v -7.89756 1.039733 4.852509
v -7.694283 2.061677 4.852509
v -7.359354 3.048344 4.852509
v -6.898505 3.982854 4.852509
v -6.319621 4.849216 4.852509
v -5.632606 5.632606 4.852509
v -4.849216 6.319621 4.852509
v -3.982854 6.898505 4.852509
v -3.048344 7.359354 4.852509
v -2.061677 7.694283 4.852509
v -1.039733 7.89756 4.852509
v -0.0 7.965707 4.852509
v 1.039733 7.89756 4.852509
v 2.061677 7.694283 4.852509
v 3.048344 7.359354 4.852509
v 3.982854 6.898505 4.852509
v 4.849216 6.319621 4.852509
v 5.632606 5.632606 4.852509
v 6.319621 4.849216 4.852509
v 6.898505 3.982854 4.852509
v 7.359354 3.048344 4.852509
v 7.694283 2.061677 4.852509
v 7.89756 1.039733 4.852509
v 7.965707 0.0 4.852509
v 7.89756 -1.039733 4.852509
v 7.694283 -2.061677 4.852509
v 7.359354 -3.048344 4.852509
v 6.898505 -3.982854 4.852509
v 6.319621 -4.849216 4.852509
v 5.632606 -5.632606 4.852509
v 4.849216 -6.319621 4.852509
v 3.982854 -6.898505 4.852509
v 3.048344 -7.359354 4.852509
v 2.061677 -7.694283 4.852509
v 1.039733 -7.89756 4.852509
v 0.0 -7.965707 4.852509
v -1.039733 -7.89756 4.852509
v -2.061677 -7.694283 4.852509
v -3.048344 -7.359354 4.852509
v -3.982854 -6.898505 4.852509
v -4.849216 -6.319621 4.852509
v -5.632606 -5.632606 4.852509
v -6.319621 -4.849216 4.852509
v -6.898505 -3.982854 4.852509
v -7.359354 -3.048344 4.852509
v -7.694283 -2.061677 4.852509
v -7.89756 -1.039733 4.852509
v -7.965707 0.0 4.852509
v -7.904598 1.04066 0.825748
v -7.701139 2.063514 0.825748
v -7.365912 3.051061 0.825748
v -6.904652 3.986403 0.825748
v -6.325252 4.853537 0.825748
v -5.637625 5.637625 0.825748
v -4.853537 6.325252 0.825748
v -3.986403 6.904652 0.825748
v -3.051061 7.365912 0.825748
v -2.063514 7.701139 0.825748
v -1.04066 7.904598 0.825748
v -0.0 7.972806 0.825748
v 1.04066 7.904598 0.825748
v 2.063514 7.701139 0.825748
v 3.051061 7.365912 0.825748
v 3.986403 6.904652 0.825748
v 4.853537 6.325252 0.825748
v 5.637625 5.637625 0.825748
v 6.325252 4.853537 0.825748
v 6.904652 3.986403 0.825748
v 7.365912 3.051061 0.825748
v 7.701139 2.063514 0.825748
v 7.904598 1.04066 0.825748
v 7.972806 0.0 0.825748
v 7.904598 -1.04066 0.825748
v 7.701139 -2.063514 0.825748
v 7.365912 -3.051061 0.825748
v 6.904652 -3.986403 0.825748
v 6.325252 -4.853537 0.825748
v 5.637625 -5.637625 0.825748
v 4.853537 -6.325252 0.825748
v 3.986403 -6.904652 0.825748
v 3.051061 -7.365912 0.825748
v 2.063514 -7.701139 0.825748
v 1.04066 -7.904598 0.825748
v 0.0 -7.972806 0.825748
v -1.04066 -7.904598 0.825748
v -2.063514 -7.701139 0.825748
v -3.051061 -7.365912 0.825748
v -3.986403 -6.904652 0.825748
v -4.853537 -6.325252 0.825748
v -5.637625 -5.637625 0.825748
v -6.325252 -4.853537 0.825748
v -6.904652 -3.986403 0.825748
v -7.365912 -3.051061 0.825748
v -7.701139 -2.063514 0.825748
v -7.904598 -1.04066 0.825748
v -7.972806 0.0 0.825748
v -2.111365 2.019901 0.3
v -2.124185 2.019901 0.3
v -2.585724 1.019901 0.3
v -2.488168 1.019901 0.3
v -2.340331 1.340414 0.3
v -1.887006 1.340414 0.3
v -1.734962 1.019901 0.3
v -1.637006 1.019901 0.3
v -2.293055 1.442978 0.3
v -1.935684 1.442978 0.3
v -2.116773 1.824989 0.3
v -2.293055 1.442978 0.2
v -2.116773 1.824989 0.2
v -1.935684 1.442978 0.2
v -0.998184 1.019901 0.3
v -0.688288 1.019901 0.3
v -0.688288 2.019901 0.3
v -0.890211 2.019901 0.3
v -1.207519 1.983844 0.3
v -1.050399 2.013784 0.3
v -1.508801 1.507281 0.3
v -1.490018 1.664607 0.3
v -1.387735 1.862593 0.3
v -1.106197 1.025429 0.3
v -1.307521 1.089875 0.3
v -1.452391 1.255747 0.3
v -1.403224 1.382976 0.3
v -1.321552 1.236591 0.3
v -1.178672 1.147906 0.3
v -1.036659 1.126511 0.3
v -0.892815 1.122465 0.3
v -0.778031 1.122465 0.3
v -0.778031 1.917337 0.3
v -0.848344 1.917337 0.3
v -1.002966 1.912628 0.3
v -1.155636 1.889292 0.3
v -1.266236 1.83599 0.3
v -1.375275 1.707184 0.3
v -1.419057 1.507481 0.3
v -0.778031 1.917337 0.2
v -0.778031 1.122465 0.2
v -0.848344 1.917337 0.2
v -1.002966 1.912628 0.2
v -1.155636 1.889292 0.2
v -1.266236 1.83599 0.2
v -1.375275 1.707184 0.2
v -1.419057 1.507481 0.2
v -1.403224 1.382976 0.2
v -1.321552 1.236591 0.2
v -1.178672 1.147906 0.2
v -1.036659 1.126511 0.2
v -0.892815 1.122465 0.2
v 0.055302 1.019901 0.3
v 0.055302 2.019901 0.3
v -0.508801 2.019901 0.3
v -0.508801 1.917337 0.3
v -0.034442 1.917337 0.3
v -0.034442 1.609645 0.3
v -0.508801 1.609645 0.3
v -0.508801 1.507081 0.3
v -0.034442 1.507081 0.3
v -0.034442 1.122465 0.3
v -0.508801 1.122465 0.3
v -0.508801 1.019901 0.3
v 0.26043 1.836408 0.3
v 0.291902 1.875607 0.3
v 0.350279 1.930843 0.3
v 0.452697 1.994166 0.3
v 0.696728 2.045542 0.3
v 0.338956 1.776312 0.3
v 0.702337 1.942978 0.3
v 0.660971 1.941397 0.3
v 0.595425 1.932289 0.3
v 0.501055 1.9018 0.3
v 1.145046 1.5189 0.3
v 1.143435 1.559204 0.3
v 1.078922 1.748492 0.3
v 0.924026 1.888151 0.3
v 0.696127 1.096824 0.3
v 0.759107 1.100104 0.3
v 0.955374 1.168337 0.3
v 1.09325 1.312823 0.3
v 0.338956 1.263491 0.3
v 0.498515 1.139194 0.3
v 0.26043 1.203996 0.3
v 0.695526 0.99426 0.3
v 0.645401 0.996093 0.3
v 0.566005 1.007553 0.3
v 0.452221 1.046188 0.3
v 1.107986 1.16914 0.3
v 1.076292 1.135399 0.3
v 1.019345 1.088102 0.3
v 0.922026 1.034924 0.3
v 1.234789 1.525711 0.3
v 1.204327 1.335584 0.3
v 0.74095 2.043971 0.3
v 0.99936 1.961501 0.3
v 1.170391 1.781209 0.3
v 1.824533 1.019901 0.3
v 1.824533 2.019901 0.3
v 1.734789 2.019901 0.3
v 1.734789 1.122465 0.3
v 1.350174 1.122465 0.3
v 1.350174 1.019901 0.3
v 7.939488 0.408685 6.777304
v 7.9311 -0.547858 6.777304
v 7.939488 0.408685 10.717577
v 7.9311 -0.547858 10.717577
v 7.939488 0.408685 19.47374
v 7.9311 -0.547858 19.47374
v 7.939488 0.408685 22.71352
v 7.9311 -0.547858 22.71352
v 4.783389 -0.0 24.9
v 4.524212 1.553164 24.9
v 3.774766 2.938018 24.9
v 2.616266 4.004493 24.9
v 1.174253 4.637019 24.9
v -0.395009 4.767051 24.9
v -1.921466 4.3805 24.9
v -3.239701 3.519254 24.9
v -4.206865 2.276642 24.9
v -4.71815 0.78732 24.9
v -4.71815 -0.78732 24.9
v -4.206865 -2.276642 24.9
v -3.239701 -3.519254 24.9
v -1.921466 -4.3805 24.9
v -0.395009 -4.767051 24.9
v 1.174253 -4.637019 24.9
v 2.616266 -4.004493 24.9
v 3.774766 -2.938018 24.9
v 4.524212 -1.553164 24.9
v 0.0 0.0 24.9
usemtl 1
f 1// 2// 3//
f 3// 2// 4//
f 4// 2// 5//
f 4// 5// 6//
f 7// 8// 9//
f 9// 8// 10//
f 9// 10// 11//
f 11// 10// 6//
f 11// 6// 12//
f 12// 6// 5//
f 13// 14// 15//
f 15// 14// 16//
f 15// 16// 17//
f 17// 16// 11//
f 17// 11// 18//
f 18// 11// 12//
f 18// 12// 13//
f 13// 12// 1//
f 13// 1// 14//
f 14// 1// 3//
f 14// 3// 19//
f 19// 3// 20//
f 19// 20// 21//
f 21// 20// 22//
f 23// 24// 25//
f 25// 24// 26//
f 26// 24// 27//
f 27// 24// 28//
f 27// 28// 29//
f 28// 30// 31//
f 31// 32// 28//
f 28// 32// 33//
f 28// 33// 29//
f 30// 28// 34//
f 34// 28// 35//
f 34// 35// 36//
f 36// 35// 37//
f 37// 35// 38//
f 37// 38// 39//
f 40// 41// 42//
f 43// 44// 45//
f 45// 44// 46//
f 45// 46// 39//
f 42// 47// 40//
f 40// 47// 48//
f 40// 48// 49//
f 50// 51// 52//
f 52// 51// 53//
f 52// 53// 54//
f 54// 55// 52//
f 52// 55// 56//
f 52// 56// 57//
f 45// 40// 43//
f 43// 40// 49//
f 43// 49// 58//
f 58// 49// 59//
f 58// 59// 60//
f 60// 59// 61//
f 60// 61// 62//
f 62// 61// 63//
f 62// 63// 57//
f 57// 63// 64//
f 57// 64// 52//
f 65// 66// 67//
f 67// 66// 68//
f 69// 70// 71//
f 71// 70// 72//
f 73// 74// 75//
f 75// 74// 76//
f 75// 76// 77//
f 71// 78// 69//
f 69// 78// 79//
f 69// 79// 80//
f 80// 79// 81//
f 80// 81// 82//
f 82// 81// 83//
f 83// 81// 84//
f 83// 84// 85//
f 85// 84// 86//
f 85// 86// 87//
f 72// 73// 71//
f 71// 73// 75//
f 71// 75// 88//
f 88// 75// 89//
f 88// 89// 90//
f 90// 89// 91//
f 92// 93// 35//
f 35// 93// 94//
f 35// 94// 38//
f 38// 94// 95//
f 38// 95// 91//
f 91// 95// 96//
f 91// 96// 90//
f 97// 98// 99//
f 100// 101// 102//
f 102// 101// 103//
f 102// 103// 104//
f 105// 106// 107//
f 108// 109// 110//
f 110// 109// 97//
f 110// 97// 111//
f 111// 97// 99//
f 106// 112// 107//
f 107// 112// 113//
f 107// 113// 108//
f 108// 113// 114//
f 108// 114// 109//
f 98// 100// 99//
f 99// 100// 102//
f 99// 102// 115//
f 115// 102// 116//
f 116// 102// 117//
f 117// 102// 118//
f 117// 118// 119//
f 120// 121// 122//
f 122// 121// 123//
f 122// 123// 118//
f 118// 123// 124//
f 118// 124// 119//
f 125// 126// 127//
f 126// 125// 128//
f 128// 125// 24//
f 128// 24// 65//
f 65// 24// 23//
f 65// 23// 66//
f 68// 41// 67//
f 67// 41// 40//
f 67// 40// 129//
f 129// 40// 130//
f 129// 130// 131//
f 131// 130// 132//
f 131// 132// 133//
f 134// 135// 136//
f 136// 135// 137//
f 136// 137// 138//
f 139// 140// 136//
f 136// 140// 141//
f 136// 141// 134//
f 142// 75// 86//
f 86// 75// 77//
f 86// 77// 87//
f 143// 139// 144//
f 144// 139// 145//
f 145// 139// 146//
f 146// 139// 136//
f 146// 136// 132//
f 132// 136// 138//
f 132// 138// 133//
f 147// 148// 144//
f 144// 148// 149//
f 144// 149// 143//
f 143// 149// 150//
f 143// 150// 132//
f 132// 150// 151//
f 132// 151// 146//
f 152// 153// 132//
f 154// 155// 143//
f 143// 155// 156//
f 143// 156// 157//
f 153// 158// 132//
f 132// 158// 159//
f 132// 159// 143//
f 143// 159// 160//
f 143// 160// 154//
f 161// 162// 130//
f 130// 162// 163//
f 130// 163// 132//
f 132// 163// 164//
f 132// 164// 152//
f 165// 166// 157//
f 157// 166// 167//
f 157// 167// 45//
f 156// 161// 157//
f 157// 161// 130//
f 157// 130// 168//
f 45// 167// 40//
f 40// 167// 169//
f 40// 169// 130//
f 130// 169// 170//
f 130// 170// 168//
f 171// 172// 173//
f 173// 165// 171//
f 171// 165// 157//
f 171// 157// 174//
f 174// 157// 168//
f 174// 168// 175//
f 175// 168// 176//
f 177// 24// 178//
f 178// 24// 125//
f 178// 125// 179//
f 179// 125// 180//
f 181// 28// 182//
f 182// 28// 24//
f 182// 24// 183//
f 183// 24// 177//
f 39// 38// 45//
f 45// 38// 91//
f 45// 91// 157//
f 157// 91// 89//
f 157// 89// 143//
f 143// 89// 75//
f 143// 75// 139//
f 139// 75// 142//
f 139// 142// 140//
f 181// 179// 28//
f 28// 179// 180//
f 28// 180// 35//
f 35// 180// 107//
f 35// 107// 92//
f 92// 107// 108//
f 127// 120// 125//
f 125// 120// 122//
f 125// 122// 180//
f 180// 122// 118//
f 180// 118// 107//
f 107// 118// 102//
f 107// 102// 105//
f 105// 102// 104//
usemtl 2
f 184// 185// 186//
f 186// 185// 187//
f 186// 187// 188//
f 188// 187// 189//
f 188// 189// 190//
f 190// 189// 191//
f 190// 191// 192//
f 192// 191// 193//
f 192// 193// 194//
f 194// 193// 195//
f 194// 195// 196//
f 196// 195// 197//
f 196// 197// 198//
f 198// 197// 199//
f 198// 199// 200//
f 200// 199// 201//
f 200// 201// 202//
f 202// 201// 203//
f 202// 203// 204//
f 204// 203// 205//
f 204// 205// 206//
f 206// 205// 207//
f 206// 207// 208//
f 208// 207// 209//
f 208// 209// 210//
f 210// 209// 211//
f 210// 211// 212//
f 212// 211// 213//
f 212// 213// 214//
f 214// 213// 215//
f 214// 215// 216//
f 216// 215// 217//
f 216// 217// 218//
f 218// 217// 219//
f 218// 219// 220//
f 220// 219// 221//
f 220// 221// 222//
f 222// 221// 223//
f 222// 223// 224//
f 224// 223// 225//
f 224// 225// 226//
f 226// 225// 227//
f 226// 227// 228//
f 228// 227// 229//
f 228// 229// 230//
f 230// 229// 231//
f 230// 231// 232//
f 232// 231// 233//
f 232// 233// 234//
f 234// 233// 235//
f 234// 235// 236//
f 236// 235// 237//
f 236// 237// 238//
f 238// 237// 239//
f 238// 239// 240//
f 240// 239// 241//
f 240// 241// 242//
f 242// 241// 243//
f 242// 243// 244//
f 244// 243// 245//
f 244// 245// 246//
f 246// 245// 247//
f 246// 247// 248//
f 248// 247// 249//
f 248// 249// 250//
f 250// 249// 251//
f 250// 251// 252//
f 252// 251// 253//
f 252// 253// 254//
f 254// 253// 255//
f 254// 255// 256//
f 256// 255// 257//
f 256// 257// 258//
f 258// 257// 259//
f 258// 259// 260//
f 260// 259// 261//
f 260// 261// 262//
f 262// 261// 263//
f 262// 263// 264//
f 264// 263// 265//
f 264// 265// 266//
f 266// 265// 267//
f 266// 267// 268//
f 268// 267// 269//
f 268// 269// 270//
f 270// 269// 271//
f 270// 271// 272//
f 272// 271// 273//
f 272// 273// 274//
f 274// 273// 275//
f 274// 275// 276//
f 276// 275// 277//
f 276// 277// 278//
f 278// 277// 279//
f 278// 279// 184//
f 184// 279// 185//
f 280// 281// 282//
f 282// 281// 283//
f 284// 285// 282//
f 282// 285// 286//
f 282// 286// 280//
f 287// 288// 284//
f 284// 288// 289//
f 284// 289// 285//
f 290// 291// 292//
f 292// 291// 293//
f 292// 293// 287//
f 287// 293// 294//
f 287// 294// 288//
f 290// 292// 295//
f 295// 292// 296//
f 295// 296// 297//
f 298// 299// 300//
f 301// 302// 303//
f 303// 302// 304//
f 281// 305// 283//
f 283// 305// 306//
f 283// 306// 303//
f 303// 306// 307//
f 303// 307// 301//
f 308// 309// 310//
f 311// 312// 313//
f 298// 300// 314//
f 299// 298// 315//
f 315// 298// 316//
f 315// 316// 317//
f 297// 296// 318//
f 318// 296// 319//
f 318// 319// 320//
f 308// 310// 321//
f 309// 308// 322//
f 322// 308// 323//
f 322// 323// 324//
f 325// 326// 327//
f 327// 326// 328//
f 311// 313// 329//
f 300// 330// 314//
f 314// 330// 331//
f 314// 331// 311//
f 311// 331// 332//
f 311// 332// 312//
f 302// 333// 304//
f 304// 333// 334//
f 304// 334// 335//
f 326// 336// 328//
f 328// 336// 337//
f 328// 337// 323//
f 323// 337// 338//
f 323// 338// 324//
f 313// 339// 329//
f 329// 339// 340//
f 329// 340// 327//
f 327// 340// 341//
f 327// 341// 325//
f 310// 342// 321//
f 321// 342// 343//
f 321// 343// 319//
f 319// 343// 344//
f 319// 344// 320//
f 334// 345// 335//
f 335// 345// 346//
f 335// 346// 316//
f 316// 346// 347//
f 316// 347// 317//
f 348// 349// 350//
f 350// 349// 351//
f 350// 351// 352//
f 352// 351// 353//
f 352// 353// 354//
f 354// 353// 355//
f 354// 355// 356//
f 356// 355// 357//
f 356// 357// 358//
f 358// 357// 359//
f 358// 359// 360//
f 360// 359// 361//
f 360// 361// 362//
f 362// 361// 363//
f 362// 363// 364//
f 364// 363// 365//
f 364// 365// 366//
f 366// 365// 367//
f 366// 367// 368//
f 368// 367// 369//
f 368// 369// 370//
f 370// 369// 371//
f 370// 371// 372//
f 372// 371// 373//
f 372// 373// 374//
f 374// 373// 375//
f 374// 375// 376//
f 376// 375// 377//
f 376// 377// 378//
f 378// 377// 379//
f 378// 379// 380//
f 380// 379// 381//
f 380// 381// 382//
f 382// 381// 383//
f 382// 383// 384//
f 384// 383// 385//
f 384// 385// 386//
f 386// 385// 387//
f 386// 387// 388//
f 388// 387// 389//
f 388// 389// 390//
f 390// 389// 391//
f 390// 391// 392//
f 392// 391// 393//
f 392// 393// 394//
f 394// 393// 395//
f 394// 395// 396//
f 396// 395// 397//
f 396// 397// 398//
f 398// 397// 399//
f 398// 399// 400//
f 400// 399// 401//
f 400// 401// 402//
f 402// 401// 403//
f 402// 403// 404//
f 404// 403// 405//
f 404// 405// 406//
f 406// 405// 407//
f 406// 407// 408//
f 408// 407// 409//
f 408// 409// 410//
f 410// 409// 411//
f 410// 411// 412//
f 412// 411// 413//
f 412// 413// 414//
f 414// 413// 415//
f 414// 415// 416//
f 416// 415// 417//
f 416// 417// 418//
f 418// 417// 419//
f 418// 419// 420//
f 420// 419// 421//
f 420// 421// 422//
f 422// 421// 423//
f 422// 423// 424//
f 424// 423// 425//
f 424// 425// 426//
f 426// 425// 427//
f 426// 427// 428//
f 428// 427// 429//
f 428// 429// 430//
f 430// 429// 431//
f 430// 431// 432//
f 432// 431// 433//
f 432// 433// 434//
f 434// 433// 435//
f 434// 435// 436//
f 436// 435// 437//
f 436// 437// 438//
f 438// 437// 439//
f 438// 439// 440//
f 440// 439// 441//
f 440// 441// 442//
f 442// 441// 443//
f 442// 443// 348//
f 348// 443// 349//
f 444// 398// 445//
f 445// 398// 400//
f 445// 400// 446//
f 446// 400// 402//
f 446// 402// 447//
f 447// 402// 404//
f 447// 404// 448//
f 448// 404// 406//
f 448// 406// 449//
f 449// 406// 408//
f 449// 408// 450//
f 450// 408// 410//
f 450// 410// 451//
f 451// 410// 412//
f 451// 412// 452//
f 452// 412// 414//
f 452// 414// 453//
f 453// 414// 416//
f 453// 416// 454//
f 454// 416// 418//
f 454// 418// 455//
f 455// 418// 420//
f 455// 420// 456//
f 456// 420// 422//
f 456// 422// 457//
f 457// 422// 424//
f 457// 424// 458//
f 458// 424// 426//
f 458// 426// 459//
f 459// 426// 428//
f 459// 428// 460//
f 460// 428// 430//
f 460// 430// 461//
f 461// 430// 432//
f 461// 432// 462//
f 462// 432// 434//
f 462// 434// 463//
f 463// 434// 436//
f 463// 436// 464//
f 464// 436// 438//
f 464// 438// 465//
f 465// 438// 440//
f 465// 440// 466//
f 466// 440// 442//
f 466// 442// 467//
f 467// 442// 348//
f 467// 348// 468//
f 468// 348// 350//
f 468// 350// 469//
f 469// 350// 352//
f 469// 352// 470//
f 470// 352// 354//
f 470// 354// 471//
f 471// 354// 356//
f 471// 356// 472//
f 472// 356// 358//
f 472// 358// 473//
f 473// 358// 360//
f 473// 360// 474//
f 474// 360// 362//
f 474// 362// 475//
f 475// 362// 364//
f 475// 364// 476//
f 476// 364// 366//
f 476// 366// 477//
f 477// 366// 368//
f 477// 368// 478//
f 478// 368// 370//
f 478// 370// 479//
f 479// 370// 372//
f 479// 372// 480//
f 480// 372// 374//
f 480// 374// 481//
f 481// 374// 376//
f 481// 376// 482//
f 482// 376// 378//
f 482// 378// 483//
f 483// 378// 380//
f 483// 380// 484//
f 484// 380// 382//
f 484// 382// 485//
f 485// 382// 384//
f 485// 384// 486//
f 486// 384// 386//
f 486// 386// 487//
f 487// 386// 388//
f 487// 388// 488//
f 488// 388// 390//
f 488// 390// 489//
f 489// 390// 392//
f 489// 392// 490//
f 490// 392// 394//
f 490// 394// 491//
f 491// 394// 396//
f 491// 396// 444//
f 444// 396// 398//
f 492// 444// 493//
f 493// 444// 445//
f 493// 445// 494//
f 494// 445// 446//
f 494// 446// 495//
f 495// 446// 447//
f 495// 447// 496//
f 496// 447// 448//
f 496// 448// 497//
f 497// 448// 449//
f 497// 449// 498//
f 498// 449// 450//
f 498// 450// 499//
f 499// 450// 451//
f 499// 451// 500//
f 500// 451// 452//
f 500// 452// 501//
f 501// 452// 453//
f 501// 453// 502//
f 502// 453// 454//
f 502// 454// 503//
f 503// 454// 455//
f 503// 455// 504//
f 504// 455// 456//
f 504// 456// 505//
f 505// 456// 457//
f 505// 457// 506//
f 506// 457// 458//
f 506// 458// 507//
f 507// 458// 459//
f 507// 459// 508//
f 508// 459// 460//
f 508// 460// 509//
f 509// 460// 461//
f 509// 461// 510//
f 510// 461// 462//
f 510// 462// 511//
f 511// 462// 463//
f 511// 463// 512//
f 512// 463// 464//
f 512// 464// 513//
f 513// 464// 465//
f 513// 465// 514//
f 514// 465// 466//
f 514// 466// 515//
f 515// 466// 467//
f 515// 467// 516//
f 516// 467// 468//
f 516// 468// 517//
f 517// 468// 469//
f 517// 469// 518//
f 518// 469// 470//
f 518// 470// 519//
f 519// 470// 471//
f 519// 471// 520//
f 520// 471// 472//
f 520// 472// 521//
f 521// 472// 473//
f 521// 473// 522//
f 522// 473// 474//
f 522// 474// 523//
f 523// 474// 475//
f 523// 475// 524//
f 524// 475// 476//
f 524// 476// 525//
f 525// 476// 477//
f 525// 477// 526//
f 526// 477// 478//
f 526// 478// 527//
f 527// 478// 479//
f 527// 479// 528//
f 528// 479// 480//
f 528// 480// 529//
f 529// 480// 481//
f 529// 481// 530//
f 530// 481// 482//
f 530// 482// 531//
f 531// 482// 483//
f 531// 483// 532//
f 532// 483// 484//
f 532// 484// 533//
f 533// 484// 485//
f 533// 485// 534//
f 534// 485// 486//
f 534// 486// 535//
f 535// 486// 487//
f 535// 487// 536//
f 536// 487// 488//
f 536// 488// 537//
f 537// 488// 489//
f 537// 489// 538//
f 538// 489// 490//
f 538// 490// 539//
f 539// 490// 491//
f 539// 491// 492//
f 492// 491// 444//
f 540// 492// 541//
f 541// 492// 493//
f 541// 493// 542//
f 542// 493// 494//
f 542// 494// 543//
f 543// 494// 495//
f 543// 495// 544//
f 544// 495// 496//
f 544// 496// 545//
f 545// 496// 497//
f 545// 497// 546//
f 546// 497// 498//
f 546// 498// 547//
f 547// 498// 499//
f 547// 499// 548//
f 548// 499// 500//
f 548// 500// 549//
f 549// 500// 501//
f 549// 501// 550//
f 550// 501// 502//
f 550// 502// 551//
f 551// 502// 503//
f 551// 503// 552//
f 552// 503// 504//
f 552// 504// 553//
f 553// 504// 505//
f 553// 505// 554//
f 554// 505// 506//
f 554// 506// 555//
f 555// 506// 507//
f 555// 507// 556//
f 556// 507// 508//
f 556// 508// 557//
f 557// 508// 509//
f 557// 509// 558//
f 558// 509// 510//
f 558// 510// 559//
f 559// 510// 511//
f 559// 511// 560//
f 560// 511// 512//
f 560// 512// 561//
f 561// 512// 513//
f 561// 513// 562//
f 562// 513// 514//
f 562// 514// 563//
f 563// 514// 515//
f 563// 515// 564//
f 564// 515// 516//
f 564// 516// 565//
f 565// 516// 517//
f 565// 517// 566//
f 566// 517// 518//
f 566// 518// 567//
f 567// 518// 519//
f 567// 519// 568//
f 568// 519// 520//
f 568// 520// 569//
f 569// 520// 521//
f 569// 521// 570//
f 570// 521// 522//
f 570// 522// 571//
f 571// 522// 523//
f 571// 523// 572//
f 572// 523// 524//
f 572// 524// 573//
f 573// 524// 525//
f 573// 525// 574//
f 574// 525// 526//
f 574// 526// 575//
f 575// 526// 527//
f 575// 527// 576//
f 576// 527// 528//
f 576// 528// 577//
f 577// 528// 529//
f 577// 529// 578//
f 578// 529// 530//
f 578// 530// 579//
f 579// 530// 531//
f 579// 531// 580//
f 580// 531// 532//
f 580// 532// 581//
f 581// 532// 533//
f 581// 533// 582//
f 582// 533// 534//
f 582// 534// 583//
f 583// 534// 535//
f 583// 535// 584//
f 584// 535// 536//
f 584// 536// 585//
f 585// 536// 537//
f 585// 537// 586//
f 586// 537// 538//
f 586// 538// 587//
f 587// 538// 539//
f 587// 539// 540//
f 540// 539// 492//
f 541// 588// 540//
f 540// 588// 589//
f 540// 589// 587//
f 587// 589// 590//
f 587// 590// 586//
f 586// 590// 591//
f 586// 591// 585//
f 585// 591// 592//
f 585// 592// 584//
f 584// 592// 593//
f 584// 593// 583//
f 583// 593// 594//
f 583// 594// 582//
f 582// 594// 595//
f 582// 595// 581//
f 581// 595// 596//
f 581// 596// 580//
f 580// 596// 597//
f 580// 597// 579//
f 579// 597// 598//
f 579// 598// 578//
f 578// 598// 599//
f 578// 599// 577//
f 577// 599// 600//
f 577// 600// 576//
f 576// 600// 601//
f 576// 601// 575//
f 575// 601// 602//
f 575// 602// 574//
f 574// 602// 603//
f 574// 603// 573//
f 573// 603// 604//
f 573// 604// 572//
f 572// 604// 605//
f 572// 605// 571//
f 571// 605// 606//
f 571// 606// 570//
f 570// 606// 607//
f 570// 607// 569//
f 569// 607// 608//
f 569// 608// 568//
f 568// 608// 609//
f 568// 609// 567//
f 567// 609// 610//
f 567// 610// 566//
f 566// 610// 611//
f 566// 611// 565//
f 565// 611// 612//
f 565// 612// 564//
f 564// 612// 613//
f 564// 613// 563//
f 563// 613// 614//
f 563// 614// 562//
f 562// 614// 615//
f 562// 615// 561//
f 561// 615// 616//
f 561// 616// 560//
f 560// 616// 617//
f 560// 617// 559//
f 559// 617// 618//
f 559// 618// 558//
f 558// 618// 619//
f 558// 619// 557//
f 557// 619// 620//
f 557// 620// 556//
f 556// 620// 621//
f 556// 621// 555//
f 555// 621// 622//
f 555// 622// 554//
f 554// 622// 623//
f 554// 623// 553//
f 553// 623// 624//
f 553// 624// 552//
f 552// 624// 625//
f 552// 625// 551//
f 551// 625// 626//
f 551// 626// 550//
f 550// 626// 627//
f 550// 627// 549//
f 549// 627// 628//
f 549// 628// 548//
f 548// 628// 629//
f 548// 629// 547//
f 547// 629// 630//
f 547// 630// 546//
f 546// 630// 631//
f 546// 631// 545//
f 545// 631// 632//
f 545// 632// 544//
f 544// 632// 633//
f 544// 633// 543//
f 543// 633// 634//
f 543// 634// 542//
f 542// 634// 635//
f 542// 635// 541//
f 541// 635// 588//
f 636// 637// 638//
f 638// 637// 639//
f 640// 641// 642//
f 642// 641// 643//
f 642// 643// 639//
f 639// 643// 644//
f 639// 644// 638//
f 640// 642// 645//
f 645// 642// 646//
f 645// 646// 647//
f 648// 649// 650//
f 651// 652// 653//
f 653// 652// 654//
f 647// 646// 655//
f 655// 646// 656//
f 655// 656// 657//
f 657// 656// 658//
f 658// 656// 659//
f 658// 659// 660//
f 651// 661// 652//
f 652// 661// 662//
f 652// 662// 650//
f 650// 662// 663//
f 650// 663// 648//
f 664// 665// 666//
f 666// 665// 667//
f 666// 667// 659//
f 659// 667// 668//
f 659// 668// 660//
f 669// 670// 671//
f 672// 673// 674//
f 674// 673// 675//
f 674// 675// 676//
f 664// 666// 677//
f 677// 666// 678//
f 677// 678// 679//
f 679// 678// 680//
f 680// 678// 681//
f 680// 681// 682//
f 672// 683// 673//
f 673// 683// 684//
f 673// 684// 654//
f 654// 684// 685//
f 654// 685// 653//
f 636// 686// 637//
f 637// 686// 687//
f 637// 687// 675//
f 675// 687// 688//
f 675// 688// 676//
f 669// 689// 670//
f 670// 689// 690//
f 670// 690// 681//
f 681// 690// 691//
f 681// 691// 682//
f 692// 693// 694//
f 694// 693// 695//
f 694// 695// 671//
f 671// 695// 696//
f 671// 696// 669//
f 692// 694// 697//
f 697// 694// 698//
f 697// 698// 699//
f 648// 700// 649//
f 649// 700// 701//
f 649// 701// 698//
f 698// 701// 702//
f 698// 702// 699//
f 703// 704// 8//
f 21// 22// 705//
f 8// 704// 10//
f 10// 704// 706//
f 10// 706// 6//
f 6// 706// 707//
f 6// 707// 4//
f 4// 707// 708//
f 4// 708// 3//
f 3// 708// 709//
f 3// 709// 20//
f 20// 709// 710//
f 20// 710// 22//
f 22// 710// 711//
f 22// 711// 705//
f 8// 7// 703//
f 703// 7// 712//
f 703// 712// 713//
f 713// 712// 714//
f 713// 714// 715//
f 715// 714// 716//
f 715// 716// 717//
f 717// 716// 718//
f 717// 718// 719//
f 719// 718// 720//
f 719// 720// 721//
f 721// 720// 722//
f 721// 722// 723//
f 723// 722// 724//
f 723// 724// 725//
f 725// 724// 726//
f 725// 726// 727//
f 727// 726// 728//
f 727// 728// 729//
f 729// 728// 730//
f 729// 730// 731//
f 731// 730// 732//
f 731// 732// 733//
f 733// 732// 734//
f 733// 734// 735//
f 735// 734// 736//
f 735// 736// 737//
f 737// 736// 738//
f 737// 738// 739//
f 739// 738// 740//
f 739// 740// 741//
f 741// 740// 742//
f 741// 742// 743//
f 743// 742// 744//
f 743// 744// 745//
f 745// 744// 746//
f 745// 746// 747//
f 747// 746// 748//
f 747// 748// 749//
f 749// 748// 750//
f 749// 750// 751//
f 751// 750// 752//
f 751// 752// 753//
f 753// 752// 754//
f 753// 754// 755//
f 755// 754// 756//
f 755// 756// 757//
f 757// 756// 758//
f 757// 758// 759//
f 759// 758// 760//
f 759// 760// 761//
f 761// 760// 762//
f 761// 762// 763//
f 763// 762// 764//
f 763// 764// 765//
f 765// 764// 766//
f 765// 766// 767//
f 767// 766// 768//
f 767// 768// 769//
f 769// 768// 770//
f 769// 770// 771//
f 771// 770// 772//
f 771// 772// 773//
f 773// 772// 774//
f 773// 774// 775//
f 775// 774// 776//
f 775// 776// 777//
f 777// 776// 778//
f 777// 778// 779//
f 779// 778// 780//
f 779// 780// 781//
f 781// 780// 782//
f 781// 782// 783//
f 783// 782// 784//
f 783// 784// 785//
f 785// 784// 786//
f 785// 786// 787//
f 787// 786// 788//
f 787// 788// 789//
f 789// 788// 790//
f 789// 790// 705//
f 705// 790// 791//
f 705// 791// 21//
f 21// 791// 792//
f 21// 792// 19//
f 19// 792// 793//
f 19// 793// 14//
f 14// 793// 794//
f 14// 794// 16//
f 16// 794// 795//
f 16// 795// 11//
f 11// 795// 796//
f 11// 796// 9//
f 9// 796// 797//
f 9// 797// 7//
f 7// 797// 798//
f 7// 798// 712//
usemtl 1
f 303// 140// 142//
f 303// 142// 283//
f 335// 135// 304//
f 304// 135// 134//
f 304// 134// 303//
f 303// 134// 141//
f 303// 141// 140//
f 298// 129// 131//
f 298// 131// 316//
f 131// 133// 316//
f 316// 133// 138//
f 316// 138// 335//
f 335// 138// 137//
f 335// 137// 135//
f 314// 128// 65//
f 314// 65// 298//
f 298// 65// 67//
f 298// 67// 129//
f 128// 314// 126//
f 126// 314// 311//
f 126// 311// 127//
f 127// 311// 120//
f 120// 311// 329//
f 120// 329// 121//
f 121// 329// 327//
f 121// 327// 123//
f 116// 117// 328//
f 328// 117// 119//
f 328// 119// 327//
f 327// 119// 124//
f 327// 124// 123//
f 116// 328// 115//
f 115// 328// 323//
f 115// 323// 99//
f 99// 323// 308//
f 99// 308// 111//
f 111// 308// 110//
f 110// 308// 321//
f 110// 321// 108//
f 108// 321// 319//
f 108// 319// 92//
f 296// 95// 94//
f 296// 94// 319//
f 319// 94// 93//
f 319// 93// 92//
f 292// 90// 296//
f 296// 90// 96//
f 296// 96// 95//
f 287// 71// 292//
f 292// 71// 88//
f 292// 88// 90//
f 142// 86// 283//
f 283// 86// 84//
f 283// 84// 282//
f 282// 84// 81//
f 282// 81// 284//
f 284// 81// 79//
f 284// 79// 287//
f 287// 79// 78//
f 287// 78// 71//
usemtl 3
f 799// 800// 801//
f 801// 800// 802//
f 801// 802// 803//
f 804// 805// 801//
f 801// 805// 806//
f 801// 806// 799//
f 807// 808// 801//
f 801// 808// 809//
f 801// 809// 804//
f 803// 810// 801//
f 801// 810// 811//
f 801// 811// 807//
f 73// 808// 74//
f 74// 808// 807//
f 74// 807// 76//
f 76// 807// 811//
f 76// 811// 77//
f 77// 811// 810//
f 77// 810// 87//
f 87// 810// 803//
f 87// 803// 85//
f 85// 803// 802//
f 85// 802// 83//
f 83// 802// 800//
f 83// 800// 82//
f 82// 800// 799//
f 82// 799// 80//
f 80// 799// 806//
f 80// 806// 69//
f 69// 806// 805//
f 69// 805// 70//
f 70// 805// 804//
f 70// 804// 72//
f 72// 804// 809//
f 72// 809// 73//
f 73// 809// 808//
f 812// 813// 814//
f 814// 813// 815//
f 814// 815// 816//
f 817// 818// 814//
f 814// 818// 819//
f 814// 819// 812//
f 820// 821// 814//
f 814// 821// 822//
f 814// 822// 817//
f 816// 823// 814//
f 814// 823// 824//
f 814// 824// 820//
f 101// 813// 103//
f 103// 813// 812//
f 103// 812// 104//
f 104// 812// 819//
f 104// 819// 105//
f 105// 819// 818//
f 105// 818// 106//
f 106// 818// 817//
f 106// 817// 112//
f 112// 817// 822//
f 112// 822// 113//
f 113// 822// 821//
f 113// 821// 114//
f 114// 821// 820//
f 114// 820// 109//
f 109// 820// 824//
f 109// 824// 97//
f 97// 824// 823//
f 97// 823// 98//
f 98// 823// 816//
f 98// 816// 100//
f 100// 816// 815//
f 100// 815// 101//
f 101// 815// 813//
usemtl 2
f 686// 825// 687//
f 687// 825// 826//
f 687// 826// 688//
f 688// 826// 827//
f 688// 827// 676//
f 676// 827// 828//
f 676// 828// 674//
f 674// 828// 829//
f 674// 829// 672//
f 672// 829// 830//
f 672// 830// 683//
f 683// 830// 831//
f 683// 831// 684//
f 684// 831// 832//
f 684// 832// 685//
f 685// 832// 833//
f 685// 833// 653//
f 653// 833// 834//
f 653// 834// 651//
f 651// 834// 835//
f 651// 835// 661//
f 661// 835// 836//
f 661// 836// 662//
f 662// 836// 837//
f 662// 837// 663//
f 663// 837// 838//
f 663// 838// 648//
f 648// 838// 839//
f 648// 839// 700//
f 700// 839// 840//
f 700// 840// 701//
f 701// 840// 841//
f 701// 841// 702//
f 702// 841// 842//
f 702// 842// 699//
f 699// 842// 843//
f 699// 843// 697//
f 697// 843// 844//
f 697// 844// 692//
f 692// 844// 845//
f 692// 845// 693//
f 693// 845// 846//
f 693// 846// 695//
f 695// 846// 847//
f 695// 847// 696//
f 696// 847// 848//
f 696// 848// 669//
f 669// 848// 849//
f 669// 849// 689//
f 689// 849// 850//
f 689// 850// 690//
f 690// 850// 851//
f 690// 851// 691//
f 691// 851// 852//
f 691// 852// 682//
f 682// 852// 853//
f 682// 853// 680//
f 680// 853// 854//
f 680// 854// 679//
f 679// 854// 855//
f 679// 855// 677//
f 677// 855// 856//
f 677// 856// 664//
f 664// 856// 857//
f 664// 857// 665//
f 665// 857// 858//
f 665// 858// 667//
f 667// 858// 859//
f 667// 859// 668//
f 668// 859// 860//
f 668// 860// 660//
f 660// 860// 861//
f 660// 861// 658//
f 658// 861// 862//
f 658// 862// 657//
f 657// 862// 863//
f 657// 863// 655//
f 655// 863// 864//
f 655// 864// 647//
f 647// 864// 865//
f 647// 865// 645//
f 645// 865// 866//
f 645// 866// 640//
f 640// 866// 867//
f 640// 867// 641//
f 641// 867// 868//
f 641// 868// 643//
f 643// 868// 869//
f 643// 869// 644//
f 644// 869// 870//
f 644// 870// 638//
f 638// 870// 871//
f 638// 871// 636//
f 636// 871// 872//
f 636// 872// 686//
f 686// 872// 825//
f 872// 873// 825//
f 825// 873// 874//
f 825// 874// 826//
f 826// 874// 875//
f 826// 875// 827//
f 827// 875// 876//
f 827// 876// 828//
f 828// 876// 877//
f 828// 877// 829//
f 829// 877// 878//
f 829// 878// 830//
f 830// 878// 879//
f 830// 879// 831//
f 831// 879// 880//
f 831// 880// 832//
f 832// 880// 881//
f 832// 881// 833//
f 833// 881// 882//
f 833// 882// 834//
f 834// 882// 883//
f 834// 883// 835//
f 835// 883// 884//
f 835// 884// 836//
f 836// 884// 885//
f 836// 885// 837//
f 837// 885// 886//
f 837// 886// 838//
f 838// 886// 887//
f 838// 887// 839//
f 839// 887// 888//
f 839// 888// 840//
f 840// 888// 889//
f 840// 889// 841//
f 841// 889// 890//
f 841// 890// 842//
f 842// 890// 891//
f 842// 891// 843//
f 843// 891// 892//
f 843// 892// 844//
f 844// 892// 893//
f 844// 893// 845//
f 845// 893// 894//
f 845// 894// 846//
f 846// 894// 895//
f 846// 895// 847//
f 847// 895// 896//
f 847// 896// 848//
f 848// 896// 897//
f 848// 897// 849//
f 849// 897// 898//
f 849// 898// 850//
f 850// 898// 899//
f 850// 899// 851//
f 851// 899// 900//
f 851// 900// 852//
f 852// 900// 901//
f 852// 901// 853//
f 853// 901// 902//
f 853// 902// 854//
f 854// 902// 903//
f 854// 903// 855//
f 855// 903// 904//
f 855// 904// 856//
f 856// 904// 905//
f 856// 905// 857//
f 857// 905// 906//
f 857// 906// 858//
f 858// 906// 907//
f 858// 907// 859//
f 859// 907// 908//
f 859// 908// 860//
f 860// 908// 909//
f 860// 909// 861//
f 861// 909// 910//
f 861// 910// 862//
f 862// 910// 911//
f 862// 911// 863//
f 863// 911// 912//
f 863// 912// 864//
f 864// 912// 913//
f 864// 913// 865//
f 865// 913// 914//
f 865// 914// 866//
f 866// 914// 915//
f 866// 915// 867//
f 867// 915// 916//
f 867// 916// 868//
f 868// 916// 917//
f 868// 917// 869//
f 869// 917// 918//
f 869// 918// 870//
f 870// 918// 919//
f 870// 919// 871//
f 871// 919// 920//
f 871// 920// 872//
f 872// 920// 873//
f 920// 794// 873//
f 873// 794// 793//
f 873// 793// 874//
f 874// 793// 792//
f 874// 792// 875//
f 875// 792// 791//
f 875// 791// 876//
f 876// 791// 790//
f 876// 790// 877//
f 877// 790// 788//
f 877// 788// 878//
f 878// 788// 786//
f 878// 786// 879//
f 879// 786// 784//
f 879// 784// 880//
f 880// 784// 782//
f 880// 782// 881//
f 881// 782// 780//
f 881// 780// 882//
f 882// 780// 778//
f 882// 778// 883//
f 883// 778// 776//
f 883// 776// 884//
f 884// 776// 774//
f 884// 774// 885//
f 885// 774// 772//
f 885// 772// 886//
f 886// 772// 770//
f 886// 770// 887//
f 887// 770// 768//
f 887// 768// 888//
f 888// 768// 766//
f 888// 766// 889//
f 889// 766// 764//
f 889// 764// 890//
f 890// 764// 762//
f 890// 762// 891//
f 891// 762// 760//
f 891// 760// 892//
f 892// 760// 758//
f 892// 758// 893//
f 893// 758// 756//
f 893// 756// 894//
f 894// 756// 754//
f 894// 754// 895//
f 895// 754// 752//
f 895// 752// 896//
f 896// 752// 750//
f 896// 750// 897//
f 897// 750// 748//
f 897// 748// 898//
f 898// 748// 746//
f 898// 746// 899//
f 899// 746// 744//
f 899// 744// 900//
f 900// 744// 742//
f 900// 742// 901//
f 901// 742// 740//
f 901// 740// 902//
f 902// 740// 738//
f 902// 738// 903//
f 903// 738// 736//
f 903// 736// 904//
f 904// 736// 734//
f 904// 734// 905//
f 905// 734// 732//
f 905// 732// 906//
f 906// 732// 730//
f 906// 730// 907//
f 907// 730// 728//
f 907// 728// 908//
f 908// 728// 726//
f 908// 726// 909//
f 909// 726// 724//
f 909// 724// 910//
f 910// 724// 722//
f 910// 722// 911//
f 911// 722// 720//
f 911// 720// 912//
f 912// 720// 718//
f 912// 718// 913//
f 913// 718// 716//
f 913// 716// 914//
f 914// 716// 714//
f 914// 714// 915//
f 915// 714// 712//
f 915// 712// 916//
f 916// 712// 798//
f 916// 798// 917//
f 917// 798// 797//
f 917// 797// 918//
f 918// 797// 796//
f 918// 796// 919//
f 919// 796// 795//
f 919// 795// 920//
f 920// 795// 794//
f 235// 921// 237//
f 237// 921// 922//
f 237// 922// 239//
f 239// 922// 923//
f 239// 923// 241//
f 241// 923// 924//
f 241// 924// 243//
f 243// 924// 925//
f 243// 925// 245//
f 245// 925// 926//
f 245// 926// 247//
f 247// 926// 927//
f 247// 927// 249//
f 249// 927// 928//
f 249// 928// 251//
f 251// 928// 929//
f 251// 929// 253//
f 253// 929// 930//
f 253// 930// 255//
f 255// 930// 931//
f 255// 931// 257//
f 257// 931// 932//
f 257// 932// 259//
f 259// 932// 933//
f 259// 933// 261//
f 261// 933// 934//
f 261// 934// 263//
f 263// 934// 935//
f 263// 935// 265//
f 265// 935// 936//
f 265// 936// 267//
f 267// 936// 937//
f 267// 937// 269//
f 269// 937// 938//
f 269// 938// 271//
f 271// 938// 939//
f 271// 939// 273//
f 273// 939// 940//
f 273// 940// 275//
f 275// 940// 941//
f 275// 941// 277//
f 277// 941// 942//
f 277// 942// 279//
f 279// 942// 943//
f 279// 943// 185//
f 185// 943// 944//
f 185// 944// 187//
f 187// 944// 945//
f 187// 945// 189//
f 189// 945// 946//
f 189// 946// 191//
f 191// 946// 947//
f 191// 947// 193//
f 193// 947// 948//
f 193// 948// 195//
f 195// 948// 949//
f 195// 949// 197//
f 197// 949// 950//
f 197// 950// 199//
f 199// 950// 951//
f 199// 951// 201//
f 201// 951// 952//
f 201// 952// 203//
f 203// 952// 953//
f 203// 953// 205//
f 205// 953// 954//
f 205// 954// 207//
f 207// 954// 955//
f 207// 955// 209//
f 209// 955// 956//
f 209// 956// 211//
f 211// 956// 957//
f 211// 957// 213//
f 213// 957// 958//
f 213// 958// 215//
f 215// 958// 959//
f 215// 959// 217//
f 217// 959// 960//
f 217// 960// 219//
f 219// 960// 961//
f 219// 961// 221//
f 221// 961// 962//
f 221// 962// 223//
f 223// 962// 963//
f 223// 963// 225//
f 225// 963// 964//
f 225// 964// 227//
f 227// 964// 965//
f 227// 965// 229//
f 229// 965// 966//
f 229// 966// 231//
f 231// 966// 967//
f 231// 967// 233//
f 233// 967// 968//
f 233// 968// 235//
f 235// 968// 921//
f 968// 969// 921//
f 921// 969// 970//
f 921// 970// 922//
f 922// 970// 971//
f 922// 971// 923//
f 923// 971// 972//
f 923// 972// 924//
f 924// 972// 973//
f 924// 973// 925//
f 925// 973// 974//
f 925// 974// 926//
f 926// 974// 975//
f 926// 975// 927//
f 927// 975// 976//
f 927// 976// 928//
f 928// 976// 977//
f 928// 977// 929//
f 929// 977// 978//
f 929// 978// 930//
f 930// 978// 979//
f 930// 979// 931//
f 931// 979// 980//
f 931// 980// 932//
f 932// 980// 981//
f 932// 981// 933//
f 933// 981// 982//
f 933// 982// 934//
f 934// 982// 983//
f 934// 983// 935//
f 935// 983// 984//
f 935// 984// 936//
f 936// 984// 985//
f 936// 985// 937//
f 937// 985// 986//
f 937// 986// 938//
f 938// 986// 987//
f 938// 987// 939//
f 939// 987// 988//
f 939// 988// 940//
f 940// 988// 989//
f 940// 989// 941//
f 941// 989// 990//
f 941// 990// 942//
f 942// 990// 991//
f 942// 991// 943//
f 943// 991// 992//
f 943// 992// 944//
f 944// 992// 993//
f 944// 993// 945//
f 945// 993// 994//
f 945// 994// 946//
f 946// 994// 995//
f 946// 995// 947//
f 947// 995// 996//
f 947// 996// 948//
f 948// 996// 997//
f 948// 997// 949//
f 949// 997// 998//
f 949// 998// 950//
f 950// 998// 999//
f 950// 999// 951//
f 951// 999// 1000//
f 951// 1000// 952//
f 952// 1000// 1001//
f 952// 1001// 953//
f 953// 1001// 1002//
f 953// 1002// 954//
f 954// 1002// 1003//
f 954// 1003// 955//
f 955// 1003// 1004//
f 955// 1004// 956//
f 956// 1004// 1005//
f 956// 1005// 957//
f 957// 1005// 1006//
f 957// 1006// 958//
f 958// 1006// 1007//
f 958// 1007// 959//
f 959// 1007// 1008//
f 959// 1008// 960//
f 960// 1008// 1009//
f 960// 1009// 961//
f 961// 1009// 1010//
f 961// 1010// 962//
f 962// 1010// 1011//
f 962// 1011// 963//
f 963// 1011// 1012//
f 963// 1012// 964//
f 964// 1012// 1013//
f 964// 1013// 965//
f 965// 1013// 1014//
f 965// 1014// 966//
f 966// 1014// 1015//
f 966// 1015// 967//
f 967// 1015// 1016//
f 967// 1016// 968//
f 968// 1016// 969//
f 1016// 326// 969//
f 969// 326// 325//
f 969// 325// 970//
f 970// 325// 341//
f 970// 341// 971//
f 971// 341// 340//
f 971// 340// 972//
f 972// 340// 339//
f 972// 339// 973//
f 973// 339// 313//
f 973// 313// 974//
f 974// 313// 312//
f 974// 312// 975//
f 975// 312// 332//
f 975// 332// 976//
f 976// 332// 331//
f 976// 331// 977//
f 977// 331// 330//
f 977// 330// 978//
f 978// 330// 300//
f 978// 300// 979//
f 979// 300// 299//
f 979// 299// 980//
f 980// 299// 315//
f 980// 315// 981//
f 981// 315// 317//
f 981// 317// 982//
f 982// 317// 347//
f 982// 347// 983//
f 983// 347// 346//
f 983// 346// 984//
f 984// 346// 345//
f 984// 345// 985//
f 985// 345// 334//
f 985// 334// 986//
f 986// 334// 333//
f 986// 333// 987//
f 987// 333// 302//
f 987// 302// 988//
f 988// 302// 301//
f 988// 301// 989//
f 989// 301// 307//
f 989// 307// 990//
f 990// 307// 306//
f 990// 306// 991//
f 991// 306// 305//
f 991// 305// 992//
f 992// 305// 281//
f 992// 281// 993//
f 993// 281// 280//
f 993// 280// 994//
f 994// 280// 286//
f 994// 286// 995//
f 995// 286// 285//
f 995// 285// 996//
f 996// 285// 289//
f 996// 289// 997//
f 997// 289// 288//
f 997// 288// 998//
f 998// 288// 294//
f 998// 294// 999//
f 999// 294// 293//
f 999// 293// 1000//
f 1000// 293// 291//
f 1000// 291// 1001//
f 1001// 291// 290//
f 1001// 290// 1002//
f 1002// 290// 295//
f 1002// 295// 1003//
f 1003// 295// 297//
f 1003// 297// 1004//
f 1004// 297// 318//
f 1004// 318// 1005//
f 1005// 318// 320//
f 1005// 320// 1006//
f 1006// 320// 344//
f 1006// 344// 1007//
f 1007// 344// 343//
f 1007// 343// 1008//
f 1008// 343// 342//
f 1008// 342// 1009//
f 1009// 342// 310//
f 1009// 310// 1010//
f 1010// 310// 309//
f 1010// 309// 1011//
f 1011// 309// 322//
f 1011// 322// 1012//
f 1012// 322// 324//
f 1012// 324// 1013//
f 1013// 324// 338//
f 1013// 338// 1014//
f 1014// 338// 337//
f 1014// 337// 1015//
f 1015// 337// 336//
f 1015// 336// 1016//
f 1016// 336// 326//
f 613// 1017// 614//
f 614// 1017// 1018//
f 614// 1018// 615//
f 615// 1018// 1019//
f 615// 1019// 616//
f 616// 1019// 1020//
f 616// 1020// 617//
f 617// 1020// 1021//
f 617// 1021// 618//
f 618// 1021// 1022//
f 618// 1022// 619//
f 619// 1022// 1023//
f 619// 1023// 620//
f 620// 1023// 1024//
f 620// 1024// 621//
f 621// 1024// 1025//
f 621// 1025// 622//
f 622// 1025// 1026//
f 622// 1026// 623//
f 623// 1026// 1027//
f 623// 1027// 624//
f 624// 1027// 1028//
f 624// 1028// 625//
f 625// 1028// 1029//
f 625// 1029// 626//
f 626// 1029// 1030//
f 626// 1030// 627//
f 627// 1030// 1031//
f 627// 1031// 628//
f 628// 1031// 1032//
f 628// 1032// 629//
f 629// 1032// 1033//
f 629// 1033// 630//
f 630// 1033// 1034//
f 630// 1034// 631//
f 631// 1034// 1035//
f 631// 1035// 632//
f 632// 1035// 1036//
f 632// 1036// 633//
f 633// 1036// 1037//
f 633// 1037// 634//
f 634// 1037// 1038//
f 634// 1038// 635//
f 635// 1038// 1039//
f 635// 1039// 588//
f 588// 1039// 1040//
f 588// 1040// 589//
f 589// 1040// 1041//
f 589// 1041// 590//
f 590// 1041// 1042//
f 590// 1042// 591//
f 591// 1042// 1043//
f 591// 1043// 592//
f 592// 1043// 1044//
f 592// 1044// 593//
f 593// 1044// 1045//
f 593// 1045// 594//
f 594// 1045// 1046//
f 594// 1046// 595//
f 595// 1046// 1047//
f 595// 1047// 596//
f 596// 1047// 1048//
f 596// 1048// 597//
f 597// 1048// 1049//
f 597// 1049// 598//
f 598// 1049// 1050//
f 598// 1050// 599//
f 599// 1050// 1051//
f 599// 1051// 600//
f 600// 1051// 1052//
f 600// 1052// 601//
f 601// 1052// 1053//
f 601// 1053// 602//
f 602// 1053// 1054//
f 602// 1054// 603//
f 603// 1054// 1055//
f 603// 1055// 604//
f 604// 1055// 1056//
f 604// 1056// 605//
f 605// 1056// 1057//
f 605// 1057// 606//
f 606// 1057// 1058//
f 606// 1058// 607//
f 607// 1058// 1059//
f 607// 1059// 608//
f 608// 1059// 1060//
f 608// 1060// 609//
f 609// 1060// 1061//
f 609// 1061// 610//
f 610// 1061// 1062//
f 610// 1062// 611//
f 611// 1062// 1063//
f 611// 1063// 612//
f 612// 1063// 1064//
f 612// 1064// 613//
f 613// 1064// 1017//
f 1064// 753// 1017//
f 1017// 753// 755//
f 1017// 755// 1018//
f 1018// 755// 757//
f 1018// 757// 1019//
f 1019// 757// 759//
f 1019// 759// 1020//
f 1020// 759// 761//
f 1020// 761// 1021//
f 1021// 761// 763//
f 1021// 763// 1022//
f 1022// 763// 765//
f 1022// 765// 1023//
f 1023// 765// 767//
f 1023// 767// 1024//
f 1024// 767// 769//
f 1024// 769// 1025//
f 1025// 769// 771//
f 1025// 771// 1026//
f 1026// 771// 773//
f 1026// 773// 1027//
f 1027// 773// 775//
f 1027// 775// 1028//
f 1028// 775// 777//
f 1028// 777// 1029//
f 1029// 777// 779//
f 1029// 779// 1030//
f 1030// 779// 781//
f 1030// 781// 1031//
f 1031// 781// 783//
f 1031// 783// 1032//
f 1032// 783// 785//
f 1032// 785// 1033//
f 1033// 785// 787//
f 1033// 787// 1034//
f 1034// 787// 789//
f 1034// 789// 1035//
f 1035// 789// 705//
f 1035// 705// 1036//
f 1036// 705// 711//
f 1036// 711// 1037//
f 1037// 711// 710//
f 1037// 710// 1038//
f 1038// 710// 709//
f 1038// 709// 1039//
f 1039// 709// 708//
f 1039// 708// 1040//
f 1040// 708// 707//
f 1040// 707// 1041//
f 1041// 707// 706//
f 1041// 706// 1042//
f 1042// 706// 704//
f 1042// 704// 1043//
f 1043// 704// 703//
f 1043// 703// 1044//
f 1044// 703// 713//
f 1044// 713// 1045//
f 1045// 713// 715//
f 1045// 715// 1046//
f 1046// 715// 717//
f 1046// 717// 1047//
f 1047// 717// 719//
f 1047// 719// 1048//
f 1048// 719// 721//
f 1048// 721// 1049//
f 1049// 721// 723//
f 1049// 723// 1050//
f 1050// 723// 725//
f 1050// 725// 1051//
f 1051// 725// 727//
f 1051// 727// 1052//
f 1052// 727// 729//
f 1052// 729// 1053//
f 1053// 729// 731//
f 1053// 731// 1054//
f 1054// 731// 733//
f 1054// 733// 1055//
f 1055// 733// 735//
f 1055// 735// 1056//
f 1056// 735// 737//
f 1056// 737// 1057//
f 1057// 737// 739//
f 1057// 739// 1058//
f 1058// 739// 741//
f 1058// 741// 1059//
f 1059// 741// 743//
f 1059// 743// 1060//
f 1060// 743// 745//
f 1060// 745// 1061//
f 1061// 745// 747//
f 1061// 747// 1062//
f 1062// 747// 749//
f 1062// 749// 1063//
f 1063// 749// 751//
f 1063// 751// 1064//
f 1064// 751// 753//
f 186// 1065// 184//
f 184// 1065// 1066//
f 184// 1066// 278//
f 278// 1066// 1067//
f 278// 1067// 276//
f 276// 1067// 1068//
f 276// 1068// 274//
f 274// 1068// 1069//
f 274// 1069// 272//
f 272// 1069// 1070//
f 272// 1070// 270//
f 270// 1070// 1071//
f 270// 1071// 268//
f 268// 1071// 1072//
f 268// 1072// 266//
f 266// 1072// 1073//
f 266// 1073// 264//
f 264// 1073// 1074//
f 264// 1074// 262//
f 262// 1074// 1075//
f 262// 1075// 260//
f 260// 1075// 1076//
f 260// 1076// 258//
f 258// 1076// 1077//
f 258// 1077// 256//
f 256// 1077// 1078//
f 256// 1078// 254//
f 254// 1078// 1079//
f 254// 1079// 252//
f 252// 1079// 1080//
f 252// 1080// 250//
f 250// 1080// 1081//
f 250// 1081// 248//
f 248// 1081// 1082//
f 248// 1082// 246//
f 246// 1082// 1083//
f 246// 1083// 244//
f 244// 1083// 1084//
f 244// 1084// 242//
f 242// 1084// 1085//
f 242// 1085// 240//
f 240// 1085// 1086//
f 240// 1086// 238//
f 238// 1086// 1087//
f 238// 1087// 236//
f 236// 1087// 1088//
f 236// 1088// 234//
f 234// 1088// 1089//
f 234// 1089// 232//
f 232// 1089// 1090//
f 232// 1090// 230//
f 230// 1090// 1091//
f 230// 1091// 228//
f 228// 1091// 1092//
f 228// 1092// 226//
f 226// 1092// 1093//
f 226// 1093// 224//
f 224// 1093// 1094//
f 224// 1094// 222//
f 222// 1094// 1095//
f 222// 1095// 220//
f 220// 1095// 1096//
f 220// 1096// 218//
f 218// 1096// 1097//
f 218// 1097// 216//
f 216// 1097// 1098//
f 216// 1098// 214//
f 214// 1098// 1099//
f 214// 1099// 212//
f 212// 1099// 1100//
f 212// 1100// 210//
f 210// 1100// 1101//
f 210// 1101// 208//
f 208// 1101// 1102//
f 208// 1102// 206//
f 206// 1102// 1103//
f 206// 1103// 204//
f 204// 1103// 1104//
f 204// 1104// 202//
f 202// 1104// 1105//
f 202// 1105// 200//
f 200// 1105// 1106//
f 200// 1106// 198//
f 198// 1106// 1107//
f 198// 1107// 196//
f 196// 1107// 1108//
f 196// 1108// 194//
f 194// 1108// 1109//
f 194// 1109// 192//
f 192// 1109// 1110//
f 192// 1110// 190//
f 190// 1110// 1111//
f 190// 1111// 188//
f 188// 1111// 1112//
f 188// 1112// 186//
f 186// 1112// 1065//
f 1112// 349// 1065//
f 1065// 349// 443//
f 1065// 443// 1066//
f 1066// 443// 441//
f 1066// 441// 1067//
f 1067// 441// 439//
f 1067// 439// 1068//
f 1068// 439// 437//
f 1068// 437// 1069//
f 1069// 437// 435//
f 1069// 435// 1070//
f 1070// 435// 433//
f 1070// 433// 1071//
f 1071// 433// 431//
f 1071// 431// 1072//
f 1072// 431// 429//
f 1072// 429// 1073//
f 1073// 429// 427//
f 1073// 427// 1074//
f 1074// 427// 425//
f 1074// 425// 1075//
f 1075// 425// 423//
f 1075// 423// 1076//
f 1076// 423// 421//
f 1076// 421// 1077//
f 1077// 421// 419//
f 1077// 419// 1078//
f 1078// 419// 417//
f 1078// 417// 1079//
f 1079// 417// 415//
f 1079// 415// 1080//
f 1080// 415// 413//
f 1080// 413// 1081//
f 1081// 413// 411//
f 1081// 411// 1082//
f 1082// 411// 409//
f 1082// 409// 1083//
f 1083// 409// 407//
f 1083// 407// 1084//
f 1084// 407// 405//
f 1084// 405// 1085//
f 1085// 405// 403//
f 1085// 403// 1086//
f 1086// 403// 401//
f 1086// 401// 1087//
f 1087// 401// 399//
f 1087// 399// 1088//
f 1088// 399// 397//
f 1088// 397// 1089//
f 1089// 397// 395//
f 1089// 395// 1090//
f 1090// 395// 393//
f 1090// 393// 1091//
f 1091// 393// 391//
f 1091// 391// 1092//
f 1092// 391// 389//
f 1092// 389// 1093//
f 1093// 389// 387//
f 1093// 387// 1094//
f 1094// 387// 385//
f 1094// 385// 1095//
f 1095// 385// 383//
f 1095// 383// 1096//
f 1096// 383// 381//
f 1096// 381// 1097//
f 1097// 381// 379//
f 1097// 379// 1098//
f 1098// 379// 377//
f 1098// 377// 1099//
f 1099// 377// 375//
f 1099// 375// 1100//
f 1100// 375// 373//
f 1100// 373// 1101//
f 1101// 373// 371//
f 1101// 371// 1102//
f 1102// 371// 369//
f 1102// 369// 1103//
f 1103// 369// 367//
f 1103// 367// 1104//
f 1104// 367// 365//
f 1104// 365// 1105//
f 1105// 365// 363//
f 1105// 363// 1106//
f 1106// 363// 361//
f 1106// 361// 1107//
f 1107// 361// 359//
f 1107// 359// 1108//
f 1108// 359// 357//
f 1108// 357// 1109//
f 1109// 357// 355//
f 1109// 355// 1110//
f 1110// 355// 353//
f 1110// 353// 1111//
f 1111// 353// 351//
f 1111// 351// 1112//
f 1112// 351// 349//
usemtl 1
f 1113// 1114// 151//
f 151// 1114// 146//
f 1114// 1115// 146//
f 146// 1115// 145//
f 1115// 1116// 145//
f 145// 1116// 144//
f 1116// 1117// 144//
f 144// 1117// 147//
f 1117// 1118// 147//
f 147// 1118// 148//
f 1118// 1119// 148//
f 148// 1119// 149//
f 1119// 1120// 149//
f 149// 1120// 150//
f 1120// 1113// 150//
f 150// 1113// 151//
f 1121// 1115// 1114//
f 1113// 1122// 1114//
f 1114// 1122// 1123//
f 1114// 1123// 1121//
f 1120// 1119// 1118//
f 1116// 1115// 1117//
f 1117// 1115// 1121//
f 1117// 1121// 1118//
f 1118// 1121// 1122//
f 1118// 1122// 1120//
f 1120// 1122// 1113//
f 1121// 1123// 1124//
f 1124// 1123// 1125//
f 1122// 1121// 1126//
f 1126// 1121// 1124//
f 1123// 1122// 1125//
f 1125// 1122// 1126//
f 1127// 1128// 156//
f 156// 1128// 161//
f 1128// 1129// 161//
f 161// 1129// 162//
f 1129// 1130// 162//
f 162// 1130// 163//
f 1131// 152// 164//
f 1131// 164// 1132//
f 1132// 164// 163//
f 1132// 163// 1130//
f 1133// 159// 158//
f 1133// 158// 1134//
f 1134// 158// 153//
f 1134// 153// 1135//
f 1135// 153// 152//
f 1135// 152// 1131//
f 1127// 156// 155//
f 1127// 155// 1136//
f 1136// 155// 154//
f 1136// 154// 1137//
f 1137// 154// 160//
f 1137// 160// 1138//
f 1138// 160// 159//
f 1138// 159// 1133//
f 1139// 1140// 1137//
f 1137// 1140// 1141//
f 1137// 1141// 1136//
f 1136// 1141// 1142//
f 1136// 1142// 1127//
f 1127// 1142// 1143//
f 1127// 1143// 1128//
f 1128// 1143// 1144//
f 1128// 1144// 1129//
f 1129// 1144// 1145//
f 1129// 1145// 1130//
f 1130// 1145// 1146//
f 1130// 1146// 1132//
f 1132// 1146// 1147//
f 1132// 1147// 1131//
f 1131// 1147// 1148//
f 1131// 1148// 1135//
f 1135// 1148// 1149//
f 1135// 1149// 1134//
f 1134// 1149// 1150//
f 1134// 1150// 1133//
f 1133// 1150// 1151//
f 1133// 1151// 1138//
f 1138// 1151// 1139//
f 1138// 1139// 1137//
f 1145// 1144// 1152//
f 1152// 1144// 1153//
f 1146// 1145// 1154//
f 1154// 1145// 1152//
f 1146// 1154// 1155//
f 1146// 1155// 1147//
f 1147// 1155// 1156//
f 1147// 1156// 1148//
f 1148// 1156// 1157//
f 1148// 1157// 1149//
f 1149// 1157// 1158//
f 1149// 1158// 1150//
f 1150// 1158// 1159//
f 1150// 1159// 1151//
f 1151// 1159// 1160//
f 1151// 1160// 1139//
f 1139// 1160// 1161//
f 1139// 1161// 1140//
f 1140// 1161// 1162//
f 1140// 1162// 1141//
f 1141// 1162// 1163//
f 1141// 1163// 1142//
f 1142// 1163// 1164//
f 1142// 1164// 1143//
f 1144// 1143// 1153//
f 1153// 1143// 1164//
f 1165// 1166// 167//
f 167// 1166// 169//
f 1166// 1167// 169//
f 169// 1167// 170//
f 1167// 1168// 170//
f 170// 1168// 168//
f 1168// 1169// 168//
f 168// 1169// 176//
f 1169// 1170// 176//
f 176// 1170// 175//
f 1170// 1171// 175//
f 175// 1171// 174//
f 1171// 1172// 174//
f 174// 1172// 171//
f 1172// 1173// 171//
f 171// 1173// 172//
f 1173// 1174// 172//
f 172// 1174// 173//
f 1174// 1175// 173//
f 173// 1175// 165//
f 1175// 1176// 165//
f 165// 1176// 166//
f 1176// 1165// 166//
f 166// 1165// 167//
f 1165// 1176// 1175//
f 1175// 1174// 1165//
f 1165// 1174// 1173//
f 1165// 1173// 1166//
f 1168// 1167// 1169//
f 1169// 1167// 1166//
f 1169// 1166// 1170//
f 1170// 1166// 1173//
f 1170// 1173// 1171//
f 1171// 1173// 1172//
f 1177// 49// 48//
f 1177// 48// 1178//
f 1178// 48// 47//
f 1178// 47// 1179//
f 1179// 47// 42//
f 1179// 42// 1180//
f 1180// 42// 1181//
f 1181// 42// 41//
f 1181// 41// 68//
f 1177// 1182// 49//
f 49// 1182// 59//
f 1183// 52// 64//
f 1183// 64// 1184//
f 1184// 64// 63//
f 1184// 63// 1185//
f 1185// 63// 61//
f 1185// 61// 1186//
f 1186// 61// 59//
f 1186// 59// 1182//
f 1187// 54// 53//
f 1187// 53// 1188//
f 1188// 53// 51//
f 1188// 51// 1189//
f 1189// 51// 50//
f 1189// 50// 1190//
f 1190// 50// 52//
f 1190// 52// 1183//
f 1191// 62// 57//
f 1191// 57// 1192//
f 1192// 57// 56//
f 1192// 56// 1193//
f 1193// 56// 55//
f 1193// 55// 1194//
f 1194// 55// 54//
f 1194// 54// 1187//
f 1195// 58// 60//
f 1195// 60// 1196//
f 1196// 60// 62//
f 1196// 62// 1191//
f 1195// 1197// 58//
f 58// 1197// 43//
f 1198// 36// 37//
f 1198// 37// 1199//
f 1199// 37// 39//
f 1199// 39// 1200//
f 39// 46// 1200//
f 1200// 46// 44//
f 1200// 44// 1201//
f 1201// 44// 43//
f 1201// 43// 1197//
f 1202// 33// 32//
f 1202// 32// 1203//
f 1203// 32// 31//
f 1203// 31// 1204//
f 1204// 31// 30//
f 1204// 30// 1205//
f 1205// 30// 1198//
f 1198// 30// 34//
f 1198// 34// 36//
f 1206// 27// 29//
f 1206// 29// 1207//
f 1207// 29// 33//
f 1207// 33// 1202//
f 1181// 68// 66//
f 1181// 66// 1208//
f 1208// 66// 23//
f 1208// 23// 1209//
f 23// 25// 1209//
f 1209// 25// 26//
f 1209// 26// 1210//
f 1210// 26// 27//
f 1210// 27// 1206//
f 1197// 1195// 1201//
f 1201// 1195// 1196//
f 1206// 1207// 1194//
f 1194// 1207// 1193//
f 1193// 1207// 1202//
f 1193// 1202// 1203//
f 1182// 1177// 1178//
f 1182// 1178// 1186//
f 1186// 1178// 1179//
f 1186// 1179// 1180//
f 1203// 1204// 1193//
f 1193// 1204// 1205//
f 1193// 1205// 1192//
f 1192// 1205// 1198//
f 1192// 1198// 1191//
f 1191// 1198// 1199//
f 1191// 1199// 1196//
f 1196// 1199// 1200//
f 1196// 1200// 1201//
f 1194// 1187// 1206//
f 1206// 1187// 1188//
f 1206// 1188// 1210//
f 1210// 1188// 1189//
f 1210// 1189// 1209//
f 1209// 1189// 1190//
f 1209// 1190// 1208//
f 1208// 1190// 1183//
f 1208// 1183// 1181//
f 1181// 1183// 1184//
f 1181// 1184// 1180//
f 1180// 1184// 1185//
f 1180// 1185// 1186//
f 1211// 1212// 179//
f 179// 1212// 178//
f 1212// 1213// 178//
f 178// 1213// 177//
f 1213// 1214// 177//
f 177// 1214// 183//
f 1214// 1215// 183//
f 183// 1215// 182//
f 1215// 1216// 182//
f 182// 1216// 181//
f 1216// 1211// 181//
f 181// 1211// 179//
f 1213// 1212// 1214//
f 1214// 1212// 1211//
f 1214// 1211// 1215//
f 1215// 1211// 1216//
f 1124// 1125// 1126//
f 1152// 1153// 1154//
f 1154// 1153// 1164//
f 1154// 1164// 1155//
f 1155// 1164// 1163//
f 1155// 1163// 1156//
f 1162// 1161// 1163//
f 1163// 1161// 1160//
f 1163// 1160// 1159//
f 1159// 1158// 1163//
f 1163// 1158// 1157//
f 1163// 1157// 1156//
f 2// 1217// 5//
f 5// 1217// 1218//
f 1// 1219// 2//
f 2// 1219// 1217//
f 12// 1220// 1//
f 1// 1220// 1219//
f 12// 5// 1220//
f 1220// 5// 1218//
f 1218// 1217// 1220//
f 1220// 1217// 1219//
f 13// 1221// 18//
f 18// 1221// 1222//
f 15// 1223// 13//
f 13// 1223// 1221//
f 17// 1224// 15//
f 15// 1224// 1223//
f 17// 18// 1224//
f 1224// 18// 1222//
f 1222// 1221// 1224//
f 1224// 1221// 1223//
f 1225// 637// 1226//
f 1226// 637// 675//
f 1226// 675// 1227//
f 1227// 675// 673//
f 1227// 673// 1228//
f 1228// 673// 654//
f 1228// 654// 1229//
f 1229// 654// 652//
f 1229// 652// 1230//
f 1230// 652// 650//
f 1230// 650// 1231//
f 1231// 650// 649//
f 1231// 649// 1232//
f 1232// 649// 698//
f 1232// 698// 1233//
f 1233// 698// 694//
f 1233// 694// 1234//
f 1234// 694// 671//
f 1234// 671// 1235//
f 1235// 671// 670//
f 1235// 670// 1236//
f 1236// 670// 681//
f 1236// 681// 1237//
f 1237// 681// 678//
f 1237// 678// 1238//
f 1238// 678// 666//
f 1238// 666// 1239//
f 1239// 666// 659//
f 1239// 659// 1240//
f 1240// 659// 656//
f 1240// 656// 1241//
f 1241// 656// 646//
f 1241// 646// 1242//
f 1242// 646// 642//
f 1242// 642// 1243//
f 1243// 642// 639//
f 1243// 639// 1225//
f 1225// 639// 637//
f 1225// 1226// 1244//
f 1241// 1242// 1244//
f 1244// 1242// 1243//
f 1244// 1243// 1225//
f 1238// 1239// 1244//
f 1244// 1239// 1240//
f 1244// 1240// 1241//
f 1235// 1236// 1244//
f 1244// 1236// 1237//
f 1244// 1237// 1238//
f 1232// 1233// 1244//
f 1244// 1233// 1234//
f 1244// 1234// 1235//
f 1229// 1230// 1244//
f 1244// 1230// 1231//
f 1244// 1231// 1232//
f 1226// 1227// 1244//
f 1244// 1227// 1228//
f 1244// 1228// 1229//
