v 0.428068 0.191216 -0.7
v 0.477302 0.185687 -0.7
v 0.319937 -0.184175 -0.7
newmtl 1
Ka 0.2980392156862745 0.2980392156862745 0.2980392156862745
Kd 0.20784313725490197 0.20784313725490197 0.20784313725490197
Ks 0.01568627450980392 0.01568627450980392 0.01568627450980392
d 0.0
endmtl
v 0.213415 -0.260004 -0.7
v 2.25 -1.787857 -0.7
v -0.054878 -0.260004 -0.7
v -0.103659 -1.787857 -0.7
v -0.103659 0.243045 -0.7
v 0.368784 0.241964 -0.7
v 0.310976 0.226277 -0.7
v 0.213415 0.239996 -0.7
v -0.042683 0.239996 -0.7
v -0.042683 0.185118 -0.7
v -0.054878 -0.205126 -0.7
v 0.367295 0.18332 -0.7
v 0.310976 -0.179211 -0.7
v 0.310976 0.159204 -0.7
v 2.287857 0.243045 -0.7
v 2.287857 -1.75 -0.7
v 0.981707 -0.260004 -0.7
v 0.384456 0.243045 -0.7
v 0.146341 -0.034394 -0.7
v 0.146341 -0.205126 -0.7
v -0.030488 -0.034394 -0.7
v -0.030488 0.020484 -0.7
v 0.146341 0.020484 -0.7
v 0.146341 0.185118 -0.7
v 0.514726 0.172181 -0.7
v 0.549334 0.149029 -0.7
v 0.579527 0.115695 -0.7
v 0.615854 -0.015339 -0.7
v 0.610791 -0.069467 -0.7
v 0.597207 -0.112474 -0.7
v 0.485946 -0.205992 -0.7
v 0.43931 -0.211223 -0.7
v 0.522378 -0.19258 -0.7
v 0.553065 -0.171897 -0.7
v 0.576528 -0.147144 -0.7
v 0.37294 -0.203857 -0.7
v 0.448552 -0.266101 -0.7
v 0.72561 -0.260004 -0.7
v 0.51017 -0.259712 -0.7
v 0.558632 -0.243031 -0.7
v 0.600141 0.07709 -0.7
v 0.613469 0.023564 -0.7
v 0.656519 0.108345 -0.7
v 0.627204 0.155086 -0.7
v 0.914634 0.239996 -0.7
v 0.58205 0.198494 -0.7
v 0.534555 0.22582 -0.7
v 2.282785 -1.768928 -0.7
v 2.276769 -1.776769 -0.7
v 0.598851 -0.217348 -0.7
v 0.636407 -0.17781 -0.7
v 0.72561 -0.205126 -0.7
v 0.663044 -0.130267 -0.7
v 0.914634 -0.205126 -0.7
v 0.478814 0.242002 -0.7
v 0.466022 0.243045 -0.7
v 0.981707 0.239996 -0.7
v 2.286567 -1.759798 -0.7
v 0.310976 -0.234089 -0.7
v 0.364273 -0.255973 -0.7
v 0.43488 -0.265867 -0.7
v 2.259798 -1.786567 -0.7
v 2.268928 -1.782785 -0.7
v 0.678092 -0.077342 -0.7
v 0.682927 -0.019436 -0.7
v 0.675734 0.051649 -0.7
v 0.428639 0.246094 -0.7
v -0.103659 1.787857 -0.7
v 2.287857 1.75 -0.7
v 2.25 1.787857 -0.7
v 2.259798 1.786567 -0.7
v 2.268928 1.782785 -0.7
v 2.276769 1.776769 -0.7
v 2.286567 1.759798 -0.7
v 2.282785 1.768928 -0.7
v -2.259798 1.786567 -0.7
v -2.25 1.787857 -0.7
v -2.287857 1.75 -0.7
v -2.287857 0.243045 -0.7
v -2.282785 1.768928 -0.7
v -2.276769 1.776769 -0.7
v -2.268928 1.782785 -0.7
v -2.286567 1.759798 -0.7
v -0.969512 -0.260004 -0.7
v -0.918921 -0.11976 -0.7
v -0.712367 -0.11976 -0.7
v -0.780488 0.239996 -0.7
v -0.847561 0.239996 -0.7
v -0.529911 -0.122965 -0.7
v -0.501237 -0.167687 -0.7
v -0.591463 -0.260004 -0.7
v -0.460082 -0.207092 -0.7
v -0.407875 -0.237431 -0.7
v -2.25 -1.787857 -0.7
v -0.664634 -0.260004 -0.7
v -0.350262 -0.254603 -0.7
v -0.288396 -0.260004 -0.7
v -0.152439 -0.260004 -0.7
v -1.042683 -0.260004 -0.7
v -2.259798 -1.786567 -0.7
v -0.424277 0.211732 -0.7
v -0.478698 0.175261 -0.7
v -2.268928 -1.782785 -0.7
v -2.276769 -1.776769 -0.7
v -2.282785 -1.768928 -0.7
v -2.287857 -1.75 -0.7
v -2.286567 -1.759798 -0.7
v -0.152439 0.239996 -0.7
v -0.29354 0.239996 -0.7
v -0.365777 0.232275 -0.7
v -0.479221 0.174802 -0.7
v -0.514578 0.135596 -0.7
v -0.537815 0.092595 -0.7
v -0.551244 0.043332 -0.7
v -0.554878 -0.003716 -0.7
v -0.547862 -0.07063 -0.7
v -2.25 -1.95 0.1
v -2.25 -1.95 -0.1
v -2.12 -1.95 0.1
v -2.12 -1.95 -0.1
v -1.69 -1.95 -0.1
v -0.85 -1.95 -0.1
v -1.69 -1.95 0.1
v -0.85 -1.95 0.1
v -0.42 -1.95 -0.1
v 0.42 -1.95 -0.1
v -0.42 -1.95 0.1
v 0.42 -1.95 0.1
v 0.85 -1.95 -0.1
v 1.69 -1.95 -0.1
v 0.85 -1.95 0.1
v 1.69 -1.95 0.1
v -2.25 1.95 -0.1
v -2.25 1.95 0.1
v -2.12 1.95 -0.1
v -2.12 1.95 0.1
v -1.69 1.95 0.1
v -0.85 1.95 0.1
v -1.69 1.95 -0.1
v -0.85 1.95 -0.1
v -0.42 1.95 0.1
v 0.42 1.95 0.1
v -0.42 1.95 -0.1
v 0.42 1.95 -0.1
v 0.85 1.95 0.1
v 1.69 1.95 0.1
v 0.85 1.95 -0.1
v 1.69 1.95 -0.1
v -2.45 -1.75 0.1
v -2.45 -1.75 -0.1
v -2.443185 -1.801764 -0.1
v -2.443185 -1.801764 0.1
v -2.423205 -1.85 -0.1
v -2.423205 -1.85 0.1
v -2.391422 -1.891421 -0.1
v -2.391422 -1.891421 0.1
v -2.35 -1.923205 -0.1
v -2.35 -1.923205 0.1
v -2.301764 -1.943185 -0.1
v -2.301764 -1.943185 0.1
v 2.12 -1.95 -0.1
v 2.25 -1.95 -0.1
v 2.12 -1.95 0.1
v 2.25 -1.95 0.1
v 2.301764 -1.943185 -0.1
v 2.301764 -1.943185 0.1
v 2.35 -1.923205 -0.1
v 2.35 -1.923205 0.1
v 2.391422 -1.891421 -0.1
v 2.391422 -1.891421 0.1
v 2.423205 -1.85 -0.1
v 2.423205 -1.85 0.1
v 2.443185 -1.801764 -0.1
v 2.443185 -1.801764 0.1
v 2.45 -1.75 -0.1
v 2.45 -1.75 0.1
v 2.45 1.75 0.1
v 2.45 1.75 -0.1
v 2.443185 1.801764 -0.1
v 2.443185 1.801764 0.1
v 2.423205 1.85 -0.1
v 2.423205 1.85 0.1
v 2.391422 1.891421 -0.1
v 2.391422 1.891421 0.1
v 2.35 1.923205 -0.1
v 2.35 1.923205 0.1
v 2.301764 1.943185 -0.1
v 2.301764 1.943185 0.1
v 2.25 1.95 -0.1
v 2.25 1.95 0.1
v 2.12 1.95 0.1
v 2.12 1.95 -0.1
v -2.301764 1.943185 -0.1
v -2.301764 1.943185 0.1
v -2.35 1.923205 -0.1
v -2.35 1.923205 0.1
v -2.391422 1.891421 -0.1
v -2.391422 1.891421 0.1
v -2.423205 1.85 -0.1
v -2.423205 1.85 0.1
v -2.443185 1.801764 -0.1
v -2.443185 1.801764 0.1
v -2.45 1.75 -0.1
v -2.45 1.75 0.1
v -2.389101 -1.83821 0.387397
v -2.392093 -1.832069 0.389349
v -2.400139 -1.815558 0.394597
v -2.407256 -1.792133 0.401916
v -2.407749 -1.790508 0.402424
v -2.411349 -1.75 0.414785
v -2.332995 -1.893742 0.369243
v -2.345196 -1.886792 0.371561
v -2.366496 -1.866462 0.378234
v -2.375525 -1.857844 0.381062
v -2.25 -1.917938 0.361124
v -2.281407 -1.914844 0.36217
v -2.293165 -1.911208 0.363395
v -2.313216 -1.905008 0.365484
v 2.25 -1.917938 0.361124
v 2.276313 -1.915773 0.361857
v 2.293181 -1.911168 0.363409
v 2.308047 -1.907109 0.364778
v 2.333169 -1.893997 0.369161
v 2.340066 -1.890398 0.370365
v 2.366895 -1.866845 0.378119
v 2.370888 -1.863339 0.379273
v 2.384305 -1.845875 0.384934
v 2.406889 -1.792067 0.401923
v 2.404749 -1.802192 0.398791
v 2.395864 -1.825425 0.391475
v 2.392116 -1.832056 0.389354
v 2.41013 -1.776734 0.406668
v 2.411349 -1.75 0.414785
v 2.387111 -1.497337 0.612187
v 2.387111 1.75 0.612187
v 2.382439 1.785487 0.612187
v 2.368742 1.818556 0.612187
v 2.346952 1.846952 0.612187
v 2.318556 1.868742 0.612187
v 2.285487 1.882439 0.612187
v 2.25 1.887111 0.612187
v -2.25 1.887111 0.612187
v -2.285487 1.882439 0.612187
v -2.318556 1.868742 0.612187
v -2.346952 1.846952 0.612187
v -2.368742 1.818556 0.612187
v -2.382439 1.785487 0.612187
v -2.387111 1.75 0.612187
v -2.387111 -1.497337 0.612187
v -1.537857 -0.897337 0.7
v 2.287857 -1.497337 0.7
v -1.542968 -0.858514 0.7
v 2.287857 1.75 0.7
v 2.286567 1.759798 0.7
v -1.581791 -0.791271 0.7
v -1.557953 -0.822337 0.7
v 2.282785 1.768928 0.7
v 2.276769 1.776769 0.7
v 2.268928 1.782785 0.7
v -1.542968 -0.93616 0.7
v -1.557953 -0.972337 0.7
v -1.581791 -1.003403 0.7
v -1.612857 -1.027241 0.7
v -1.649034 -1.042226 0.7
v -2.287857 -1.497337 0.7
v -1.687857 -1.047337 0.7
v -1.72668 -1.042226 0.7
v -1.81776 -0.972337 0.7
v -1.832746 -0.93616 0.7
v 2.259798 1.786567 0.7
v 2.25 1.787857 0.7
v -1.612857 -0.767433 0.7
v -1.837857 -0.897337 0.7
v -1.832746 -0.858514 0.7
v -2.287857 1.75 0.7
v -1.81776 -0.822337 0.7
v -1.793923 -0.791271 0.7
v -1.762857 -0.767433 0.7
v -1.72668 -0.752448 0.7
v -2.286567 1.759798 0.7
v -1.687857 -0.747337 0.7
v -1.649034 -0.752448 0.7
v -2.25 1.787857 0.7
v -2.259798 1.786567 0.7
v -2.268928 1.782785 0.7
v -1.762857 -1.027241 0.7
v -1.793923 -1.003403 0.7
v -2.276769 1.776769 0.7
v -2.282785 1.768928 0.7
v -2.25 -1.887111 -0.612187
v -2.285487 -1.882439 -0.612187
v -2.318556 -1.868742 -0.612187
v -2.346952 -1.846952 -0.612187
v -2.368742 -1.818556 -0.612187
v -2.382439 -1.785487 -0.612187
v -2.387111 -1.75 -0.612187
v -2.387111 1.75 -0.612187
v -2.382439 1.785487 -0.612187
v -2.368742 1.818556 -0.612187
v -2.346952 1.846952 -0.612187
v -2.318556 1.868742 -0.612187
v -2.285487 1.882439 -0.612187
v -2.25 1.887111 -0.612187
v 2.25 1.887111 -0.612187
v 2.285487 1.882439 -0.612187
v 2.318556 1.868742 -0.612187
v 2.346952 1.846952 -0.612187
v 2.368742 1.818556 -0.612187
v 2.382439 1.785487 -0.612187
v 2.387111 1.75 -0.612187
v 2.387111 -1.75 -0.612187
v 2.382439 -1.785487 -0.612187
v 2.368742 -1.818556 -0.612187
v 2.346952 -1.846952 -0.612187
v 2.318556 -1.868742 -0.612187
v 2.285487 -1.882439 -0.612187
v 2.25 -1.887111 -0.612187
v 2.287857 -1.558903 0.678801
v -2.287857 -1.558903 0.678801
v 2.312095 -1.811566 0.481399
v -2.312095 -1.811566 0.481399
v -2.311613 -1.827388 0.469038
v -2.309178 -1.837406 0.461211
v -2.305279 -1.846621 0.454011
v 2.25 -1.88025 0.427738
v 2.307699 -1.841402 0.458089
v 2.310699 -1.832038 0.465405
v 2.273648 -1.875572 0.431392
v 2.286473 -1.868422 0.436979
v 2.260753 -1.879312 0.428471
v 2.29848 -1.857019 0.445887
v 2.303522 -1.849773 0.451549
v 2.31223 -1.821956 0.473282
v -2.25 -1.88025 0.427738
v -2.30024 -1.854729 0.447676
v -2.288501 -1.86689 0.438175
v -2.275735 -1.874668 0.432098
v -2.262831 -1.87891 0.428785
v 2.311767 1.75 -0.6971
v 2.309662 1.765986 -0.6971
v 2.33429 1.75 -0.688566
v 2.331417 1.771816 -0.688566
v 2.354119 1.75 -0.674896
v 2.350571 1.776948 -0.674896
v 2.370104 1.75 -0.65688
v 2.366012 1.781085 -0.65688
v 2.381319 1.75 -0.635565
v 2.376844 1.783988 -0.635565
v 2.303491 1.780883 -0.6971
v 2.322997 1.792145 -0.688566
v 2.340169 1.802059 -0.674896
v 2.354013 1.810052 -0.65688
v 2.363725 1.815659 -0.635565
v 2.293676 1.793676 -0.6971
v 2.309602 1.809602 -0.688566
v 2.323623 1.823623 -0.674896
v 2.334927 1.834926 -0.65688
v 2.342856 1.842856 -0.635565
v 2.280883 1.803491 -0.6971
v 2.292145 1.822997 -0.688566
v 2.302059 1.840169 -0.674896
v 2.310052 1.854013 -0.65688
v 2.315659 1.863725 -0.635565
v 2.265986 1.809662 -0.6971
v 2.271816 1.831417 -0.688566
v 2.276948 1.850571 -0.674896
v 2.281085 1.866012 -0.65688
v 2.283988 1.876844 -0.635565
v 2.25 1.811767 -0.6971
v 2.25 1.834289 -0.688566
v 2.25 1.854119 -0.674896
v 2.25 1.870104 -0.65688
v 2.25 1.881319 -0.635565
v -2.25 1.811767 -0.6971
v -2.25 1.834289 -0.688566
v -2.25 1.854119 -0.674896
v -2.25 1.870104 -0.65688
v -2.25 1.881319 -0.635565
v 2.311767 -1.75 -0.6971
v 2.33429 -1.75 -0.688566
v 2.354119 -1.75 -0.674896
v 2.370104 -1.75 -0.65688
v 2.381319 -1.75 -0.635565
v -2.265986 1.809662 -0.6971
v -2.271816 1.831417 -0.688566
v -2.276948 1.850571 -0.674896
v -2.281085 1.866012 -0.65688
v -2.283988 1.876844 -0.635565
v -2.280883 1.803491 -0.6971
v -2.292145 1.822997 -0.688566
v -2.302059 1.840169 -0.674896
v -2.310052 1.854013 -0.65688
v -2.315659 1.863725 -0.635565
v -2.293676 1.793676 -0.6971
v -2.309602 1.809602 -0.688566
v -2.323623 1.823623 -0.674896
v -2.334927 1.834926 -0.65688
v -2.342856 1.842856 -0.635565
v -2.303491 1.780883 -0.6971
v -2.322997 1.792145 -0.688566
v -2.340169 1.802059 -0.674896
v -2.354013 1.810052 -0.65688
v -2.363725 1.815659 -0.635565
v -2.309662 1.765986 -0.6971
v -2.331417 1.771816 -0.688566
v -2.350571 1.776948 -0.674896
v -2.366012 1.781085 -0.65688
v -2.376844 1.783988 -0.635565
v -2.311767 1.75 -0.6971
v -2.33429 1.75 -0.688566
v -2.354119 1.75 -0.674896
v -2.370104 1.75 -0.65688
v -2.381319 1.75 -0.635565
v 2.25 -1.811767 -0.6971
v 2.265986 -1.809662 -0.6971
v 2.25 -1.834289 -0.688566
v 2.271816 -1.831417 -0.688566
v 2.25 -1.854119 -0.674896
v 2.276948 -1.850571 -0.674896
v 2.25 -1.870104 -0.65688
v 2.281085 -1.866012 -0.65688
v 2.25 -1.881319 -0.635565
v 2.283988 -1.876844 -0.635565
v 2.280883 -1.803491 -0.6971
v 2.292145 -1.822997 -0.688566
v 2.302059 -1.840169 -0.674896
v 2.310052 -1.854013 -0.65688
v 2.315659 -1.863725 -0.635565
v 2.293676 -1.793676 -0.6971
v 2.309602 -1.809602 -0.688566
v 2.323623 -1.823623 -0.674896
v 2.334927 -1.834926 -0.65688
v 2.342856 -1.842856 -0.635565
v 2.303491 -1.780883 -0.6971
v 2.322997 -1.792145 -0.688566
v 2.340169 -1.802059 -0.674896
v 2.354013 -1.810052 -0.65688
v 2.363725 -1.815659 -0.635565
v 2.309662 -1.765986 -0.6971
v 2.331417 -1.771816 -0.688566
v 2.350571 -1.776948 -0.674896
v 2.366012 -1.781085 -0.65688
v 2.376844 -1.783988 -0.635565
v -2.311767 -1.75 -0.6971
v -2.33429 -1.75 -0.688566
v -2.354119 -1.75 -0.674896
v -2.370104 -1.75 -0.65688
v -2.381319 -1.75 -0.635565
v -2.25 -1.811767 -0.6971
v -2.25 -1.834289 -0.688566
v -2.25 -1.854119 -0.674896
v -2.25 -1.870104 -0.65688
v -2.25 -1.881319 -0.635565
v -2.309662 -1.765986 -0.6971
v -2.331417 -1.771816 -0.688566
v -2.350571 -1.776948 -0.674896
v -2.366012 -1.781085 -0.65688
v -2.376844 -1.783988 -0.635565
v -2.303491 -1.780883 -0.6971
v -2.322997 -1.792145 -0.688566
v -2.340169 -1.802059 -0.674896
v -2.354013 -1.810052 -0.65688
v -2.363725 -1.815659 -0.635565
v -2.293676 -1.793676 -0.6971
v -2.309602 -1.809602 -0.688566
v -2.323623 -1.823623 -0.674896
v -2.334927 -1.834926 -0.65688
v -2.342856 -1.842856 -0.635565
v -2.280883 -1.803491 -0.6971
v -2.292145 -1.822997 -0.688566
v -2.302059 -1.840169 -0.674896
v -2.310052 -1.854013 -0.65688
v -2.315659 -1.863725 -0.635565
v -2.265986 -1.809662 -0.6971
v -2.271816 -1.831417 -0.688566
v -2.276948 -1.850571 -0.674896
v -2.281085 -1.866012 -0.65688
v -2.283988 -1.876844 -0.635565
v -2.406037 -1.765049 0.433394
v -2.395079 -1.779193 0.450153
v -2.400059 -1.802404 0.419202
v -2.379133 -1.791583 0.464053
v -2.388105 -1.812536 0.434585
v -2.359159 -1.801474 0.47426
v -2.372463 -1.820416 0.447828
v -2.336356 -1.808271 0.48016
v -2.353887 -1.825663 0.458295
v -2.333272 -1.828025 0.465481
v -2.391584 -1.82508 0.41042
v -2.380253 -1.845363 0.402447
v -2.366888 -1.862798 0.395503
v -2.33799 -1.888296 0.38519
v -2.308184 -1.904231 0.378647
v -2.278845 -1.912805 0.375095
v -2.25 -1.915498 0.373975
v -2.379616 -1.832563 0.425083
v -2.368736 -1.85037 0.416529
v -2.3562 -1.86561 0.409125
v -2.329597 -1.887809 0.398199
v -2.302505 -1.901639 0.391305
v -2.275998 -1.90907 0.387573
v -2.25 -1.911402 0.386397
v -2.36473 -1.837696 0.437978
v -2.354961 -1.853051 0.429139
v -2.34379 -1.866192 0.421508
v -2.320218 -1.885342 0.410276
v -2.296294 -1.897283 0.403205
v -2.272916 -1.903703 0.399382
v -2.25 -1.905719 0.398179
v -2.347543 -1.840267 0.448571
v -2.339417 -1.853312 0.439829
v -2.33004 -1.864527 0.432272
v -2.310078 -1.880957 0.421133
v -2.289672 -1.891251 0.414112
v -2.269656 -1.896802 0.410314
v -2.25 -1.898547 0.409118
v -2.328766 -1.840169 0.456424
v -2.322657 -1.851143 0.44822
v -2.315372 -1.860667 0.441085
v -2.29942 -1.874756 0.430507
v -2.282773 -1.883663 0.423807
v -2.266274 -1.888488 0.420173
v -2.25 -1.890008 0.419028
v 2.25 -1.915498 0.373975
v 2.25 -1.911402 0.386397
v 2.25 -1.905719 0.398179
v 2.25 -1.898547 0.409118
v 2.25 -1.890008 0.419028
v -2.377755 -1.517605 0.63698
v -2.379171 -1.515778 0.634815
v -2.381799 -1.512386 0.630796
v -2.370841 -1.52653 0.647555
v -2.362597 -1.532935 0.654741
v -2.360777 -1.53435 0.656327
v -2.330347 -1.550174 0.672845
v -2.334921 -1.548811 0.671662
v -2.34612 -1.543265 0.665939
v -2.354895 -1.53892 0.661455
v -2.312118 -1.555608 0.677562
v -2.315536 -1.554589 0.676678
v -2.323575 -1.552192 0.674598
v -2.301593 -1.557037 0.6781
v -2.381574 -1.497337 0.634887
v -2.381319 1.75 0.635565
v -2.381243 -1.497337 0.635526
v -2.370432 -1.497337 0.656403
v -2.370104 1.75 0.65688
v -2.370053 -1.497337 0.656835
v -2.354444 -1.497337 0.674607
v -2.354119 1.75 0.674896
v -2.354089 -1.497337 0.674853
v -2.334546 -1.497337 0.688432
v -2.33429 1.75 0.688566
v -2.334277 -1.497337 0.688534
v -2.311907 -1.497337 0.697065
v -2.311767 1.75 0.6971
v -2.311764 -1.497337 0.697082
v 2.406037 -1.765049 0.433394
v 2.403124 -1.789807 0.424025
v 2.271774 -1.90977 0.38722
v 2.269193 -1.904308 0.399021
v 2.266464 -1.897326 0.409955
v 2.263634 -1.888944 0.419829
v 2.274162 -1.913614 0.374759
v 2.303401 -1.906064 0.377889
v 2.333177 -1.891456 0.383898
v 2.362403 -1.867656 0.393553
v 2.375482 -1.852184 0.399741
v 2.387119 -1.83394 0.406951
v 2.396591 -1.813016 0.415109
v 2.298177 -1.903229 0.390508
v 2.325205 -1.890554 0.396836
v 2.352036 -1.869847 0.407052
v 2.364234 -1.856339 0.413638
v 2.375288 -1.840352 0.421354
v 2.384569 -1.821925 0.430145
v 2.391381 -1.801347 0.439842
v 2.395079 -1.779193 0.450153
v 2.292475 -1.898656 0.402389
v 2.316336 -1.887712 0.408877
v 2.340091 -1.869846 0.419375
v 2.350942 -1.858198 0.426158
v 2.360832 -1.844413 0.434121
v 2.369222 -1.828519 0.443221
v 2.375512 -1.810751 0.453295
v 2.379133 -1.791583 0.464053
v 2.286407 -1.892437 0.413301
v 2.306775 -1.882996 0.419744
v 2.326921 -1.867655 0.430158
v 2.336051 -1.857699 0.436878
v 2.344311 -1.845965 0.444759
v 2.351242 -1.832502 0.45375
v 2.356344 -1.81753 0.463682
v 2.359159 -1.801474 0.47426
v 2.28009 -1.884692 0.423032
v 2.296743 -1.876516 0.429184
v 2.312913 -1.863336 0.439083
v 2.320065 -1.854859 0.445438
v 2.326368 -1.844949 0.452853
v 2.331437 -1.833692 0.461257
v 2.334877 -1.821331 0.470462
v 2.336356 -1.808271 0.48016
v -2.339916 -1.538853 0.674607
v -2.308115 -1.539402 0.688432
v -2.298246 -1.542855 0.688432
v -2.287857 -1.544026 0.688432
v -2.361556 -1.532552 0.656188
v -2.34785 -1.526228 0.674607
v -2.287857 -1.539971 0.689978
v -2.287857 -1.521387 0.697065
v -2.293208 -1.520784 0.697065
v -2.287857 -1.519236 0.697327
v -2.311304 -1.502689 0.697065
v -2.298292 -1.519006 0.697065
v -2.302852 -1.51614 0.697065
v -2.316967 -1.53384 0.688432
v -2.329373 -1.549397 0.674607
v -2.333375 -1.507726 0.688432
v -2.32436 -1.526447 0.688432
v -2.30666 -1.512332 0.697065
v -2.329922 -1.517595 0.688432
v -2.309525 -1.507772 0.697065
v -2.352774 -1.512154 0.674607
v -2.368362 -1.515712 0.656403
v -2.309662 1.765986 0.6971
v -2.331417 1.771816 0.688566
v -2.350571 1.776948 0.674896
v -2.366012 1.781085 0.65688
v -2.376844 1.783988 0.635565
v -2.303491 1.780883 0.6971
v -2.322997 1.792145 0.688566
v -2.340169 1.802059 0.674896
v -2.354013 1.810052 0.65688
v -2.363725 1.815659 0.635565
v -2.293676 1.793676 0.6971
v -2.309602 1.809602 0.688566
v -2.323623 1.823623 0.674896
v -2.334927 1.834926 0.65688
v -2.342856 1.842856 0.635565
v -2.280883 1.803491 0.6971
v -2.292145 1.822997 0.688566
v -2.302059 1.840169 0.674896
v -2.310052 1.854013 0.65688
v -2.315659 1.863725 0.635565
v -2.265986 1.809662 0.6971
v -2.271816 1.831417 0.688566
v -2.276948 1.850571 0.674896
v -2.281085 1.866012 0.65688
v -2.283988 1.876844 0.635565
v -2.25 1.811767 0.6971
v -2.25 1.834289 0.688566
v -2.25 1.854119 0.674896
v -2.25 1.870104 0.65688
v -2.25 1.881319 0.635565
v 2.375461 -1.520567 0.640489
v 2.379171 -1.515778 0.634815
v 2.381799 -1.512386 0.630796
v 2.357147 -1.53717 0.659492
v 2.360777 -1.53435 0.656327
v 2.370841 -1.52653 0.647555
v 2.334921 -1.548811 0.671662
v 2.338034 -1.547269 0.670071
v 2.354895 -1.53892 0.661455
v 2.323575 -1.552192 0.674598
v 2.32037 -1.553148 0.675427
v 2.303912 -1.556722 0.677981
v 2.312118 -1.555608 0.677562
v 2.287857 -1.544026 0.688432
v 2.287857 -1.539971 0.689978
v 2.287857 -1.521387 0.697065
v 2.287857 -1.519236 0.697327
v 2.25 1.881319 0.635565
v 2.25 1.870104 0.65688
v 2.25 1.854119 0.674896
v 2.25 1.834289 0.688566
v 2.25 1.811767 0.6971
v 2.334277 -1.497337 0.688534
v 2.311907 -1.497337 0.697065
v 2.311088 -1.503562 0.697065
v 2.304863 -1.514343 0.697065
v 2.308685 -1.509362 0.697065
v 2.299882 -1.518165 0.697065
v 2.294081 -1.520568 0.697065
v 2.345523 -1.53063 0.674607
v 2.352175 -1.514571 0.674607
v 2.367619 -1.518709 0.656403
v 2.334941 -1.544421 0.674607
v 2.311201 -1.537771 0.688432
v 2.320871 -1.530351 0.688432
v 2.299941 -1.542435 0.688432
v 2.332955 -1.509421 0.688432
v 2.334546 -1.497337 0.688432
v 2.328291 -1.520682 0.688432
v 2.354444 -1.497337 0.674607
v 2.354089 -1.497337 0.674853
v 2.311764 -1.497337 0.697082
v 2.370053 -1.497337 0.656835
v 2.370432 -1.497337 0.656403
v 2.381243 -1.497337 0.635526
v 2.381574 -1.497337 0.634887
v 2.265986 1.809662 0.6971
v 2.271816 1.831417 0.688566
v 2.276948 1.850571 0.674896
v 2.281085 1.866012 0.65688
v 2.283988 1.876844 0.635565
v 2.280883 1.803491 0.6971
v 2.292145 1.822997 0.688566
v 2.302059 1.840169 0.674896
v 2.310052 1.854013 0.65688
v 2.315659 1.863725 0.635565
v 2.293676 1.793676 0.6971
v 2.309602 1.809602 0.688566
v 2.323623 1.823623 0.674896
v 2.334927 1.834926 0.65688
v 2.342856 1.842856 0.635565
v 2.303491 1.780883 0.6971
v 2.322997 1.792145 0.688566
v 2.340169 1.802059 0.674896
v 2.354013 1.810052 0.65688
v 2.363725 1.815659 0.635565
v 2.309662 1.765986 0.6971
v 2.331417 1.771816 0.688566
v 2.350571 1.776948 0.674896
v 2.366012 1.781085 0.65688
v 2.376844 1.783988 0.635565
v 2.311767 1.75 0.6971
v 2.33429 1.75 0.688566
v 2.354119 1.75 0.674896
v 2.370104 1.75 0.65688
v 2.381319 1.75 0.635565
v -1.537857 -0.897337 0.68
v -1.542968 -0.858514 0.68
newmtl 2
Ka 0.4980392156862745 0.4980392156862745 0.4980392156862745
Kd 0.34901960784313724 0.34901960784313724 0.34901960784313724
Ks 0.023529411764705882 0.023529411764705882 0.023529411764705882
d 0.0
endmtl
v -1.557953 -0.822337 0.68
v -1.581791 -0.791271 0.68
v -1.612857 -0.767433 0.68
v -1.649034 -0.752448 0.68
v -1.687857 -0.747337 0.68
v -1.72668 -0.752448 0.68
v -1.762857 -0.767433 0.68
v -1.793923 -0.791271 0.68
v -1.81776 -0.822337 0.68
v -1.832746 -0.858514 0.68
v -1.837857 -0.897337 0.68
v -1.832746 -0.93616 0.68
v -1.81776 -0.972337 0.68
v -1.793923 -1.003403 0.68
v -1.762857 -1.027241 0.68
v -1.72668 -1.042226 0.68
v -1.687857 -1.047337 0.68
v -1.649034 -1.042226 0.68
v -1.612857 -1.027241 0.68
v -1.581791 -1.003403 0.68
v -1.557953 -0.972337 0.68
v -1.542968 -0.93616 0.68
v -1.687857 -0.897337 0.68
v 2.12 3.0 -0.8
v 2.12 2.6 -0.8
v 1.69 3.0 -0.8
newmtl 3
Ka 0.6666666666666666 0.6666666666666666 0.6666666666666666
Kd 0.6666666666666666 0.6666666666666666 0.6666666666666666
Ks 0.4666666666666667 0.4666666666666667 0.4666666666666667
d 0.0
endmtl
v 1.69 2.6 -0.8
v 2.12 3.0 -0.6
v 1.69 3.0 -0.6
v 2.12 2.6 -0.6
v 1.69 2.6 -0.6
v 2.12 2.587059 -0.598296
v 1.69 2.587059 -0.598296
v 2.12 2.575 -0.593301
v 1.69 2.575 -0.593301
v 2.12 2.564645 -0.585355
v 1.69 2.564645 -0.585355
v 2.12 2.556699 -0.575
v 1.69 2.556699 -0.575
v 2.12 2.551704 -0.562941
v 1.69 2.551704 -0.562941
v 2.12 2.55 -0.55
v 1.69 2.55 -0.55
v 2.12 2.55 -0.15
v 1.69 2.55 -0.15
v 1.69 2.541481 -0.085295
v 2.12 2.541481 -0.085295
v 1.69 2.516506 -0.025
v 2.12 2.516506 -0.025
v 1.69 2.476777 0.026777
v 2.12 2.476777 0.026777
v 1.69 2.425 0.066506
v 2.12 2.425 0.066506
v 1.69 2.364705 0.091481
v 2.12 2.364705 0.091481
v 1.69 2.3 0.1
v 2.12 2.3 0.1
v 2.12 2.3 -0.1
v 1.69 2.3 -0.1
v 2.12 2.312941 -0.101704
v 1.69 2.312941 -0.101704
v 2.12 2.325 -0.106699
v 1.69 2.325 -0.106699
v 2.12 2.335355 -0.114645
v 1.69 2.335355 -0.114645
v 2.12 2.343301 -0.125
v 1.69 2.343301 -0.125
v 2.12 2.348296 -0.137059
v 1.69 2.348296 -0.137059
v 2.12 2.35 -0.15
v 1.69 2.35 -0.15
v 2.12 2.35 -0.55
v 1.69 2.35 -0.55
v 1.69 2.358519 -0.614705
v 2.12 2.358519 -0.614705
v 1.69 2.383494 -0.675
v 2.12 2.383494 -0.675
v 1.69 2.423223 -0.726777
v 2.12 2.423223 -0.726777
v 1.69 2.475 -0.766506
v 2.12 2.475 -0.766506
v 1.69 2.535295 -0.791481
v 2.12 2.535295 -0.791481
v 0.85 3.0 -0.8
v 0.85 2.6 -0.8
v 0.42 3.0 -0.8
v 0.42 2.6 -0.8
v 0.85 3.0 -0.6
v 0.42 3.0 -0.6
v 0.85 2.6 -0.6
v 0.42 2.6 -0.6
v 0.85 2.587059 -0.598296
v 0.42 2.587059 -0.598296
v 0.85 2.575 -0.593301
v 0.42 2.575 -0.593301
v 0.85 2.564645 -0.585355
v 0.42 2.564645 -0.585355
v 0.85 2.556699 -0.575
v 0.42 2.556699 -0.575
v 0.85 2.551704 -0.562941
v 0.42 2.551704 -0.562941
v 0.85 2.55 -0.55
v 0.42 2.55 -0.55
v 0.85 2.55 -0.15
v 0.42 2.55 -0.15
v 0.42 2.541481 -0.085295
v 0.85 2.541481 -0.085295
v 0.42 2.516506 -0.025
v 0.85 2.516506 -0.025
v 0.42 2.476777 0.026777
v 0.85 2.476777 0.026777
v 0.42 2.425 0.066506
v 0.85 2.425 0.066506
v 0.42 2.364705 0.091481
v 0.85 2.364705 0.091481
v 0.42 2.3 0.1
v 0.85 2.3 0.1
v 0.85 2.3 -0.1
v 0.42 2.3 -0.1
v 0.85 2.312941 -0.101704
v 0.42 2.312941 -0.101704
v 0.85 2.325 -0.106699
v 0.42 2.325 -0.106699
v 0.85 2.335355 -0.114645
v 0.42 2.335355 -0.114645
v 0.85 2.343301 -0.125
v 0.42 2.343301 -0.125
v 0.85 2.348296 -0.137059
v 0.42 2.348296 -0.137059
v 0.85 2.35 -0.15
v 0.42 2.35 -0.15
v 0.85 2.35 -0.55
v 0.42 2.35 -0.55
v 0.85 2.535295 -0.791481
v 0.85 2.475 -0.766506
v 0.85 2.423223 -0.726777
v 0.85 2.383494 -0.675
v 0.85 2.358519 -0.614705
v 0.42 2.358519 -0.614705
v 0.42 2.383494 -0.675
v 0.42 2.423223 -0.726777
v 0.42 2.475 -0.766506
v 0.42 2.535295 -0.791481
v -0.42 3.0 -0.8
v -0.42 2.6 -0.8
v -0.85 3.0 -0.8
v -0.85 2.6 -0.8
v -0.42 3.0 -0.6
v -0.85 3.0 -0.6
v -0.42 2.6 -0.6
v -0.85 2.6 -0.6
v -0.42 2.587059 -0.598296
v -0.85 2.587059 -0.598296
v -0.42 2.575 -0.593301
v -0.85 2.575 -0.593301
v -0.42 2.564645 -0.585355
v -0.85 2.564645 -0.585355
v -0.42 2.556699 -0.575
v -0.85 2.556699 -0.575
v -0.42 2.551704 -0.562941
v -0.85 2.551704 -0.562941
v -0.42 2.55 -0.55
v -0.85 2.55 -0.55
v -0.42 2.55 -0.15
v -0.85 2.55 -0.15
v -0.85 2.541481 -0.085295
v -0.42 2.541481 -0.085295
v -0.85 2.516506 -0.025
v -0.42 2.516506 -0.025
v -0.85 2.476777 0.026777
v -0.42 2.476777 0.026777
v -0.85 2.425 0.066506
v -0.42 2.425 0.066506
v -0.85 2.364705 0.091481
v -0.42 2.364705 0.091481
v -0.85 2.3 0.1
v -0.42 2.3 0.1
v -0.42 2.3 -0.1
v -0.85 2.3 -0.1
v -0.42 2.312941 -0.101704
v -0.85 2.312941 -0.101704
v -0.42 2.325 -0.106699
v -0.85 2.325 -0.106699
v -0.42 2.335355 -0.114645
v -0.85 2.335355 -0.114645
v -0.42 2.343301 -0.125
v -0.85 2.343301 -0.125
v -0.42 2.348296 -0.137059
v -0.85 2.348296 -0.137059
v -0.42 2.35 -0.15
v -0.85 2.35 -0.15
v -0.42 2.35 -0.55
v -0.85 2.35 -0.55
v -0.42 2.535295 -0.791481
v -0.42 2.475 -0.766506
v -0.42 2.423223 -0.726777
v -0.42 2.383494 -0.675
v -0.42 2.358519 -0.614705
v -0.85 2.358519 -0.614705
v -0.85 2.383494 -0.675
v -0.85 2.423223 -0.726777
v -0.85 2.475 -0.766506
v -0.85 2.535295 -0.791481
v -1.69 3.0 -0.8
v -1.69 2.6 -0.8
v -2.12 3.0 -0.8
v -2.12 2.6 -0.8
v -1.69 3.0 -0.6
v -2.12 3.0 -0.6
v -1.69 2.6 -0.6
v -2.12 2.6 -0.6
v -1.69 2.587059 -0.598296
v -2.12 2.587059 -0.598296
v -1.69 2.575 -0.593301
v -2.12 2.575 -0.593301
v -1.69 2.564645 -0.585355
v -2.12 2.564645 -0.585355
v -1.69 2.556699 -0.575
v -2.12 2.556699 -0.575
v -1.69 2.551704 -0.562941
v -2.12 2.551704 -0.562941
v -1.69 2.55 -0.55
v -2.12 2.55 -0.55
v -1.69 2.55 -0.15
v -2.12 2.55 -0.15
v -2.12 2.541481 -0.085295
v -1.69 2.541481 -0.085295
v -2.12 2.516506 -0.025
v -1.69 2.516506 -0.025
v -2.12 2.476777 0.026777
v -1.69 2.476777 0.026777
v -2.12 2.425 0.066506
v -1.69 2.425 0.066506
v -2.12 2.364705 0.091481
v -1.69 2.364705 0.091481
v -2.12 2.3 0.1
v -1.69 2.3 0.1
v -1.69 2.3 -0.1
v -2.12 2.3 -0.1
v -1.69 2.312941 -0.101704
v -2.12 2.312941 -0.101704
v -1.69 2.325 -0.106699
v -2.12 2.325 -0.106699
v -1.69 2.335355 -0.114645
v -2.12 2.335355 -0.114645
v -1.69 2.343301 -0.125
v -2.12 2.343301 -0.125
v -1.69 2.348296 -0.137059
v -2.12 2.348296 -0.137059
v -1.69 2.35 -0.15
v -2.12 2.35 -0.15
v -1.69 2.35 -0.55
v -2.12 2.35 -0.55
v -1.69 2.535295 -0.791481
v -1.69 2.475 -0.766506
v -1.69 2.423223 -0.726777
v -1.69 2.383494 -0.675
v -1.69 2.358519 -0.614705
v -2.12 2.358519 -0.614705
v -2.12 2.383494 -0.675
v -2.12 2.423223 -0.726777
v -2.12 2.475 -0.766506
v -2.12 2.535295 -0.791481
v 2.12 -2.6 -0.8
v 2.12 -3.0 -0.8
v 1.69 -2.6 -0.8
v 1.69 -3.0 -0.8
v 2.12 -3.0 -0.6
v 1.69 -3.0 -0.6
v 2.12 -2.6 -0.6
v 1.69 -2.6 -0.6
v 2.12 -2.55 -0.55
v 1.69 -2.55 -0.55
v 2.12 -2.551704 -0.562941
v 1.69 -2.551704 -0.562941
v 2.12 -2.556699 -0.575
v 1.69 -2.556699 -0.575
v 2.12 -2.564645 -0.585355
v 1.69 -2.564645 -0.585355
v 2.12 -2.575 -0.593301
v 1.69 -2.575 -0.593301
v 2.12 -2.587059 -0.598296
v 1.69 -2.587059 -0.598296
v 2.12 -2.55 -0.15
v 1.69 -2.55 -0.15
v 2.12 -2.3 0.1
v 1.69 -2.3 0.1
v 1.69 -2.364705 0.091481
v 2.12 -2.364705 0.091481
v 1.69 -2.425 0.066506
v 2.12 -2.425 0.066506
v 1.69 -2.476777 0.026777
v 2.12 -2.476777 0.026777
v 1.69 -2.516506 -0.025
v 2.12 -2.516506 -0.025
v 1.69 -2.541481 -0.085295
v 2.12 -2.541481 -0.085295
v 2.12 -2.3 -0.1
v 1.69 -2.3 -0.1
v 2.12 -2.35 -0.15
v 1.69 -2.35 -0.15
v 2.12 -2.348296 -0.137059
v 1.69 -2.348296 -0.137059
v 2.12 -2.343301 -0.125
v 1.69 -2.343301 -0.125
v 2.12 -2.335355 -0.114645
v 1.69 -2.335355 -0.114645
v 2.12 -2.325 -0.106699
v 1.69 -2.325 -0.106699
v 2.12 -2.312941 -0.101704
v 1.69 -2.312941 -0.101704
v 2.12 -2.35 -0.55
v 1.69 -2.35 -0.55
v 2.12 -2.535295 -0.791481
v 2.12 -2.475 -0.766506
v 2.12 -2.423223 -0.726777
v 2.12 -2.383494 -0.675
v 2.12 -2.358519 -0.614705
v 1.69 -2.535295 -0.791481
v 1.69 -2.475 -0.766506
v 1.69 -2.423223 -0.726777
v 1.69 -2.383494 -0.675
v 1.69 -2.358519 -0.614705
v 0.85 -2.6 -0.8
v 0.85 -3.0 -0.8
v 0.42 -2.6 -0.8
v 0.42 -3.0 -0.8
v 0.85 -3.0 -0.6
v 0.42 -3.0 -0.6
v 0.85 -2.6 -0.6
v 0.42 -2.6 -0.6
v 0.85 -2.55 -0.55
v 0.42 -2.55 -0.55
v 0.85 -2.551704 -0.562941
v 0.42 -2.551704 -0.562941
v 0.85 -2.556699 -0.575
v 0.42 -2.556699 -0.575
v 0.85 -2.564645 -0.585355
v 0.42 -2.564645 -0.585355
v 0.85 -2.575 -0.593301
v 0.42 -2.575 -0.593301
v 0.85 -2.587059 -0.598296
v 0.42 -2.587059 -0.598296
v 0.85 -2.55 -0.15
v 0.42 -2.55 -0.15
v 0.85 -2.3 0.1
v 0.42 -2.3 0.1
v 0.42 -2.364705 0.091481
v 0.85 -2.364705 0.091481
v 0.42 -2.425 0.066506
v 0.85 -2.425 0.066506
v 0.42 -2.476777 0.026777
v 0.85 -2.476777 0.026777
v 0.42 -2.516506 -0.025
v 0.85 -2.516506 -0.025
v 0.42 -2.541481 -0.085295
v 0.85 -2.541481 -0.085295
v 0.85 -2.3 -0.1
v 0.42 -2.3 -0.1
v 0.85 -2.35 -0.15
v 0.42 -2.35 -0.15
v 0.85 -2.348296 -0.137059
v 0.42 -2.348296 -0.137059
v 0.85 -2.343301 -0.125
v 0.42 -2.343301 -0.125
v 0.85 -2.335355 -0.114645
v 0.42 -2.335355 -0.114645
v 0.85 -2.325 -0.106699
v 0.42 -2.325 -0.106699
v 0.85 -2.312941 -0.101704
v 0.42 -2.312941 -0.101704
v 0.85 -2.35 -0.55
v 0.42 -2.35 -0.55
v 0.85 -2.535295 -0.791481
v 0.85 -2.475 -0.766506
v 0.85 -2.423223 -0.726777
v 0.85 -2.383494 -0.675
v 0.85 -2.358519 -0.614705
v 0.42 -2.535295 -0.791481
v 0.42 -2.475 -0.766506
v 0.42 -2.423223 -0.726777
v 0.42 -2.383494 -0.675
v 0.42 -2.358519 -0.614705
v -0.42 -2.6 -0.8
v -0.42 -3.0 -0.8
v -0.85 -2.6 -0.8
v -0.85 -3.0 -0.8
v -0.42 -3.0 -0.6
v -0.85 -3.0 -0.6
v -0.42 -2.6 -0.6
v -0.85 -2.6 -0.6
v -0.42 -2.55 -0.55
v -0.85 -2.55 -0.55
v -0.42 -2.551704 -0.562941
v -0.85 -2.551704 -0.562941
v -0.42 -2.556699 -0.575
v -0.85 -2.556699 -0.575
v -0.42 -2.564645 -0.585355
v -0.85 -2.564645 -0.585355
v -0.42 -2.575 -0.593301
v -0.85 -2.575 -0.593301
v -0.42 -2.587059 -0.598296
v -0.85 -2.587059 -0.598296
v -0.42 -2.55 -0.15
v -0.85 -2.55 -0.15
v -0.42 -2.3 0.1
v -0.85 -2.3 0.1
v -0.85 -2.364705 0.091481
v -0.42 -2.364705 0.091481
v -0.85 -2.425 0.066506
v -0.42 -2.425 0.066506
v -0.85 -2.476777 0.026777
v -0.42 -2.476777 0.026777
v -0.85 -2.516506 -0.025
v -0.42 -2.516506 -0.025
v -0.85 -2.541481 -0.085295
v -0.42 -2.541481 -0.085295
v -0.42 -2.3 -0.1
v -0.85 -2.3 -0.1
v -0.42 -2.35 -0.15
v -0.85 -2.35 -0.15
v -0.42 -2.348296 -0.137059
v -0.85 -2.348296 -0.137059
v -0.42 -2.343301 -0.125
v -0.85 -2.343301 -0.125
v -0.42 -2.335355 -0.114645
v -0.85 -2.335355 -0.114645
v -0.42 -2.325 -0.106699
v -0.85 -2.325 -0.106699
v -0.42 -2.312941 -0.101704
v -0.85 -2.312941 -0.101704
v -0.42 -2.35 -0.55
v -0.85 -2.35 -0.55
v -0.42 -2.535295 -0.791481
v -0.42 -2.475 -0.766506
v -0.42 -2.423223 -0.726777
v -0.42 -2.383494 -0.675
v -0.42 -2.358519 -0.614705
v -0.85 -2.535295 -0.791481
v -0.85 -2.475 -0.766506
v -0.85 -2.423223 -0.726777
v -0.85 -2.383494 -0.675
v -0.85 -2.358519 -0.614705
v -1.69 -2.6 -0.8
v -1.69 -3.0 -0.8
v -2.12 -2.6 -0.8
v -2.12 -3.0 -0.8
v -1.69 -3.0 -0.6
v -2.12 -3.0 -0.6
v -1.69 -2.6 -0.6
v -2.12 -2.6 -0.6
v -1.69 -2.55 -0.55
v -2.12 -2.55 -0.55
v -1.69 -2.551704 -0.562941
v -2.12 -2.551704 -0.562941
v -1.69 -2.556699 -0.575
v -2.12 -2.556699 -0.575
v -1.69 -2.564645 -0.585355
v -2.12 -2.564645 -0.585355
v -1.69 -2.575 -0.593301
v -2.12 -2.575 -0.593301
v -1.69 -2.587059 -0.598296
v -2.12 -2.587059 -0.598296
v -1.69 -2.55 -0.15
v -2.12 -2.55 -0.15
v -1.69 -2.3 0.1
v -2.12 -2.3 0.1
v -2.12 -2.364705 0.091481
v -1.69 -2.364705 0.091481
v -2.12 -2.425 0.066506
v -1.69 -2.425 0.066506
v -2.12 -2.476777 0.026777
v -1.69 -2.476777 0.026777
v -2.12 -2.516506 -0.025
v -1.69 -2.516506 -0.025
v -2.12 -2.541481 -0.085295
v -1.69 -2.541481 -0.085295
v -1.69 -2.3 -0.1
v -2.12 -2.3 -0.1
v -1.69 -2.35 -0.15
v -2.12 -2.35 -0.15
v -1.69 -2.348296 -0.137059
v -2.12 -2.348296 -0.137059
v -1.69 -2.343301 -0.125
v -2.12 -2.343301 -0.125
v -1.69 -2.335355 -0.114645
v -2.12 -2.335355 -0.114645
v -1.69 -2.325 -0.106699
v -2.12 -2.325 -0.106699
v -1.69 -2.312941 -0.101704
v -2.12 -2.312941 -0.101704
v -1.69 -2.35 -0.55
v -2.12 -2.35 -0.55
v -1.69 -2.535295 -0.791481
v -1.69 -2.475 -0.766506
v -1.69 -2.423223 -0.726777
v -1.69 -2.383494 -0.675
v -1.69 -2.358519 -0.614705
v -2.12 -2.535295 -0.791481
v -2.12 -2.475 -0.766506
v -2.12 -2.423223 -0.726777
v -2.12 -2.383494 -0.675
v -2.12 -2.358519 -0.614705
v -0.847561 0.239996 -0.68
v -1.042683 -0.260004 -0.68
newmtl 4
Ka 1.0 1.0 1.0
Kd 1.0 1.0 1.0
Ks 0.8784313725490196 0.8784313725490196 0.8784313725490196
d 0.0
endmtl
v -0.969512 -0.260004 -0.68
v -0.918921 -0.11976 -0.68
v -0.712367 -0.11976 -0.68
v -0.664634 -0.260004 -0.68
v -0.591463 -0.260004 -0.68
v -0.780488 0.239996 -0.68
v -0.72923 -0.064882 -0.68
v -0.896437 -0.064882 -0.68
v -0.80383 0.14396 -0.68
v -0.808642 0.161301 -0.68
v -0.811833 0.179021 -0.68
v -0.813453 0.179021 -0.68
v -0.816715 0.161354 -0.68
v -0.82117 0.14396 -0.68
v -0.72923 -0.064882 -0.7
v -0.896437 -0.064882 -0.7
v -0.80383 0.14396 -0.7
v -0.808642 0.161301 -0.7
v -0.811833 0.179021 -0.7
v -0.813453 0.179021 -0.7
v -0.816715 0.161354 -0.7
v -0.82117 0.14396 -0.7
v -0.288396 -0.260004 -0.68
v -0.152439 -0.260004 -0.68
v -0.152439 0.239996 -0.68
v -0.29354 0.239996 -0.68
v -0.554878 -0.003716 -0.68
v -0.551244 0.043332 -0.68
v -0.537815 0.092595 -0.68
v -0.514578 0.135596 -0.68
v -0.479221 0.174802 -0.68
v -0.478698 0.175261 -0.68
v -0.424277 0.211732 -0.68
v -0.365777 0.232275 -0.68
v -0.350262 -0.254603 -0.68
v -0.407875 -0.237431 -0.68
v -0.460082 -0.207092 -0.68
v -0.501237 -0.167687 -0.68
v -0.529911 -0.122965 -0.68
v -0.547862 -0.07063 -0.68
v -0.454515 0.115003 -0.68
v -0.430228 0.14079 -0.68
v -0.393706 0.164385 -0.68
v -0.352434 0.178827 -0.68
v -0.293255 0.185118 -0.68
v -0.219512 0.185118 -0.68
v -0.219512 -0.205126 -0.68
v -0.290492 -0.205126 -0.68
v -0.343242 -0.200216 -0.68
v -0.385318 -0.187082 -0.68
v -0.419417 -0.166834 -0.68
v -0.447461 -0.139134 -0.68
v -0.468549 -0.104661 -0.68
v -0.483214 -0.057661 -0.68
v -0.487805 -0.005145 -0.68
v -0.483557 0.044618 -0.68
v -0.471885 0.084165 -0.68
v -0.293255 0.185118 -0.7
v -0.219512 0.185118 -0.7
v -0.352434 0.178827 -0.7
v -0.393706 0.164385 -0.7
v -0.430228 0.14079 -0.7
v -0.454515 0.115003 -0.7
v -0.471885 0.084165 -0.7
v -0.483557 0.044618 -0.7
v -0.487805 -0.005145 -0.7
v -0.483214 -0.057661 -0.7
v -0.468549 -0.104661 -0.7
v -0.447461 -0.139134 -0.7
v -0.419417 -0.166834 -0.7
v -0.385318 -0.187082 -0.7
v -0.343242 -0.200216 -0.7
v -0.290492 -0.205126 -0.7
v -0.219512 -0.205126 -0.7
v -0.054878 -0.205126 -0.68
v -0.054878 -0.260004 -0.68
v 0.213415 -0.260004 -0.68
v 0.213415 0.239996 -0.68
v -0.042683 0.239996 -0.68
v -0.042683 0.185118 -0.68
v 0.146341 0.185118 -0.68
v 0.146341 0.020484 -0.68
v -0.030488 0.020484 -0.68
v -0.030488 -0.034394 -0.68
v 0.146341 -0.034394 -0.68
v 0.146341 -0.205126 -0.68
v 0.310976 -0.179211 -0.68
v 0.310976 -0.234089 -0.68
v 0.448552 -0.266101 -0.68
v 0.43488 -0.265867 -0.68
v 0.364273 -0.255973 -0.68
v 0.682927 -0.019436 -0.68
v 0.678092 -0.077342 -0.68
v 0.663044 -0.130267 -0.68
v 0.636407 -0.17781 -0.68
v 0.598851 -0.217348 -0.68
v 0.558632 -0.243031 -0.68
v 0.51017 -0.259712 -0.68
v 0.428639 0.246094 -0.68
v 0.478814 0.242002 -0.68
v 0.534555 0.22582 -0.68
v 0.58205 0.198494 -0.68
v 0.627204 0.155086 -0.68
v 0.656519 0.108345 -0.68
v 0.675734 0.051649 -0.68
v 0.368784 0.241964 -0.68
v 0.310976 0.226277 -0.68
v 0.310976 0.159204 -0.68
v 0.428068 0.191216 -0.68
v 0.367295 0.18332 -0.68
v 0.615854 -0.015339 -0.68
v 0.613469 0.023564 -0.68
v 0.600141 0.07709 -0.68
v 0.579527 0.115695 -0.68
v 0.549334 0.149029 -0.68
v 0.514726 0.172181 -0.68
v 0.477302 0.185687 -0.68
v 0.43931 -0.211223 -0.68
v 0.485946 -0.205992 -0.68
v 0.522378 -0.19258 -0.68
v 0.553065 -0.171897 -0.68
v 0.576528 -0.147144 -0.68
v 0.597207 -0.112474 -0.68
v 0.610791 -0.069467 -0.68
v 0.319937 -0.184175 -0.68
v 0.37294 -0.203857 -0.68
v 0.72561 -0.205126 -0.68
v 0.72561 -0.260004 -0.68
v 0.981707 -0.260004 -0.68
v 0.981707 0.239996 -0.68
v 0.914634 0.239996 -0.68
v 0.914634 -0.205126 -0.68
usemtl 1
f 1// 2// 3//
f 4// 5// 6//
f 6// 5// 7//
f 6// 7// 8//
f 9// 10// 11//
f 12// 13// 8//
f 8// 13// 14//
f 8// 14// 6//
f 1// 3// 15//
f 15// 3// 16//
f 15// 16// 17//
f 18// 19// 20//
f 12// 8// 11//
f 11// 8// 21//
f 11// 21// 9//
f 22// 23// 24//
f 24// 23// 14//
f 24// 14// 25//
f 25// 14// 13//
f 25// 13// 26//
f 26// 13// 27//
f 10// 17// 11//
f 11// 17// 16//
f 11// 16// 4//
f 2// 28// 3//
f 3// 28// 29//
f 3// 29// 30//
f 31// 32// 3//
f 3// 32// 33//
f 34// 35// 36//
f 36// 35// 37//
f 33// 38// 3//
f 3// 38// 37//
f 3// 37// 39//
f 39// 37// 35//
f 20// 40// 41//
f 41// 40// 42//
f 41// 42// 43//
f 30// 44// 3//
f 3// 44// 45//
f 3// 45// 31//
f 46// 47// 48//
f 48// 47// 49//
f 48// 49// 50//
f 51// 52// 40//
f 43// 53// 41//
f 41// 53// 54//
f 41// 54// 55//
f 55// 54// 56//
f 55// 56// 57//
f 50// 58// 48//
f 48// 58// 59//
f 48// 59// 60//
f 20// 19// 40//
f 40// 19// 61//
f 40// 61// 51//
f 16// 62// 4//
f 4// 62// 63//
f 4// 63// 5//
f 5// 63// 64//
f 5// 64// 65//
f 65// 64// 40//
f 65// 40// 66//
f 66// 40// 52//
f 56// 67// 57//
f 57// 67// 68//
f 57// 68// 48//
f 48// 68// 69//
f 48// 69// 46//
f 59// 70// 71//
f 20// 60// 18//
f 18// 60// 59//
f 18// 59// 72//
f 59// 71// 72//
f 72// 71// 73//
f 72// 73// 74//
f 74// 75// 72//
f 72// 75// 76//
f 72// 76// 77//
f 77// 76// 78//
f 79// 80// 81//
f 81// 80// 71//
f 81// 71// 82//
f 83// 84// 85//
f 79// 81// 85//
f 85// 81// 86//
f 85// 86// 83//
f 87// 88// 89//
f 90// 91// 8//
f 92// 93// 94//
f 94// 93// 95//
f 94// 95// 96//
f 97// 98// 7//
f 7// 98// 94//
f 96// 99// 94//
f 94// 99// 100//
f 94// 100// 7//
f 7// 100// 101//
f 7// 101// 8//
f 89// 98// 87//
f 87// 98// 97//
f 87// 97// 102//
f 102// 97// 103//
f 90// 104// 105//
f 103// 106// 102//
f 102// 106// 107//
f 102// 107// 108//
f 70// 21// 71//
f 71// 21// 8//
f 71// 8// 82//
f 82// 8// 91//
f 82// 91// 109//
f 109// 91// 102//
f 109// 102// 110//
f 110// 102// 108//
f 101// 111// 8//
f 8// 111// 112//
f 8// 112// 90//
f 90// 112// 113//
f 90// 113// 104//
f 105// 114// 90//
f 90// 114// 115//
f 90// 115// 116//
f 116// 117// 90//
f 90// 117// 118//
f 90// 118// 94//
f 94// 118// 119//
f 94// 119// 92//
f 120// 121// 122//
f 122// 121// 123//
f 124// 125// 126//
f 126// 125// 127//
f 128// 129// 130//
f 130// 129// 131//
f 132// 133// 134//
f 134// 133// 135//
f 136// 137// 138//
f 138// 137// 139//
f 140// 141// 142//
f 142// 141// 143//
f 144// 145// 146//
f 146// 145// 147//
f 148// 149// 150//
f 150// 149// 151//
f 152// 153// 154//
f 152// 154// 155//
f 155// 154// 156//
f 155// 156// 157//
f 157// 156// 158//
f 157// 158// 159//
f 159// 158// 160//
f 159// 160// 161//
f 161// 160// 162//
f 161// 162// 163//
f 163// 162// 121//
f 163// 121// 120//
f 164// 165// 166//
f 166// 165// 167//
f 167// 165// 168//
f 167// 168// 169//
f 169// 168// 170//
f 169// 170// 171//
f 171// 170// 172//
f 171// 172// 173//
f 173// 172// 174//
f 173// 174// 175//
f 175// 174// 176//
f 175// 176// 177//
f 177// 176// 178//
f 177// 178// 179//
f 180// 179// 181//
f 181// 179// 178//
f 180// 181// 182//
f 180// 182// 183//
f 183// 182// 184//
f 183// 184// 185//
f 185// 184// 186//
f 185// 186// 187//
f 187// 186// 188//
f 187// 188// 189//
f 189// 188// 190//
f 189// 190// 191//
f 191// 190// 192//
f 191// 192// 193//
f 194// 193// 195//
f 195// 193// 192//
f 137// 136// 196//
f 137// 196// 197//
f 197// 196// 198//
f 197// 198// 199//
f 199// 198// 200//
f 199// 200// 201//
f 201// 200// 202//
f 201// 202// 203//
f 203// 202// 204//
f 203// 204// 205//
f 205// 204// 206//
f 205// 206// 207//
f 152// 207// 153//
f 153// 207// 206//
f 208// 209// 157//
f 157// 209// 155//
f 209// 210// 155//
f 155// 210// 211//
f 155// 211// 152//
f 152// 211// 212//
f 152// 212// 213//
f 159// 161// 214//
f 214// 215// 159//
f 159// 215// 216//
f 159// 216// 157//
f 157// 216// 217//
f 157// 217// 208//
f 163// 120// 218//
f 218// 219// 163//
f 163// 219// 220//
f 163// 220// 161//
f 161// 220// 221//
f 161// 221// 214//
f 120// 122// 218//
f 218// 122// 126//
f 126// 127// 218//
f 218// 127// 130//
f 218// 130// 222//
f 222// 130// 131//
f 222// 131// 134//
f 134// 135// 222//
f 222// 135// 166//
f 222// 166// 167//
f 222// 167// 223//
f 223// 167// 169//
f 223// 169// 224//
f 224// 169// 225//
f 225// 169// 171//
f 225// 171// 226//
f 226// 171// 227//
f 227// 171// 173//
f 227// 173// 228//
f 228// 173// 229//
f 229// 173// 175//
f 229// 175// 230//
f 231// 232// 177//
f 177// 232// 233//
f 177// 233// 175//
f 175// 233// 234//
f 175// 234// 230//
f 231// 177// 235//
f 235// 177// 179//
f 235// 179// 236//
f 236// 179// 237//
f 237// 179// 180//
f 237// 180// 238//
f 238// 180// 183//
f 238// 183// 239//
f 239// 183// 185//
f 239// 185// 240//
f 240// 185// 187//
f 240// 187// 241//
f 241// 187// 189//
f 241// 189// 242//
f 242// 189// 191//
f 242// 191// 243//
f 243// 191// 193//
f 243// 193// 244//
f 193// 194// 244//
f 244// 194// 149//
f 149// 148// 244//
f 244// 148// 145//
f 244// 145// 245//
f 245// 145// 144//
f 245// 144// 141//
f 141// 140// 245//
f 245// 140// 139//
f 245// 139// 137//
f 245// 137// 197//
f 245// 197// 246//
f 246// 197// 199//
f 246// 199// 247//
f 247// 199// 201//
f 247// 201// 248//
f 248// 201// 203//
f 248// 203// 249//
f 249// 203// 205//
f 249// 205// 250//
f 250// 205// 207//
f 250// 207// 251//
f 251// 207// 252//
f 252// 207// 152//
f 252// 152// 213//
f 253// 254// 255//
f 255// 254// 256//
f 257// 258// 256//
f 256// 258// 259//
f 256// 259// 255//
f 257// 260// 258//
f 258// 260// 261//
f 258// 261// 262//
f 253// 263// 254//
f 254// 263// 264//
f 254// 264// 265//
f 265// 266// 254//
f 254// 266// 267//
f 254// 267// 268//
f 268// 267// 269//
f 268// 269// 270//
f 271// 272// 268//
f 262// 273// 258//
f 258// 273// 274//
f 258// 274// 275//
f 272// 276// 268//
f 268// 276// 277//
f 268// 277// 278//
f 278// 277// 279//
f 278// 279// 280//
f 280// 281// 278//
f 278// 281// 282//
f 278// 282// 283//
f 283// 282// 284//
f 275// 274// 285//
f 285// 274// 286//
f 285// 286// 284//
f 284// 286// 287//
f 284// 287// 288//
f 270// 289// 268//
f 268// 289// 290//
f 268// 290// 271//
f 288// 291// 284//
f 284// 291// 292//
f 284// 292// 283//
f 293// 121// 162//
f 293// 162// 294//
f 294// 162// 160//
f 294// 160// 295//
f 295// 160// 158//
f 295// 158// 296//
f 296// 158// 156//
f 296// 156// 297//
f 297// 156// 154//
f 297// 154// 298//
f 298// 154// 153//
f 298// 153// 299//
f 299// 153// 300//
f 300// 153// 206//
f 300// 206// 204//
f 300// 204// 301//
f 301// 204// 202//
f 301// 202// 302//
f 302// 202// 200//
f 302// 200// 303//
f 303// 200// 198//
f 303// 198// 304//
f 304// 198// 196//
f 304// 196// 305//
f 305// 196// 136//
f 305// 136// 306//
f 136// 138// 306//
f 306// 138// 142//
f 306// 142// 143//
f 143// 146// 306//
f 306// 146// 147//
f 306// 147// 307//
f 307// 147// 150//
f 150// 151// 307//
f 307// 151// 195//
f 307// 195// 192//
f 307// 192// 190//
f 307// 190// 308//
f 308// 190// 188//
f 308// 188// 309//
f 309// 188// 186//
f 309// 186// 310//
f 310// 186// 184//
f 310// 184// 311//
f 311// 184// 182//
f 311// 182// 312//
f 312// 182// 181//
f 312// 181// 313//
f 313// 181// 314//
f 314// 181// 178//
f 314// 178// 176//
f 314// 176// 315//
f 315// 176// 174//
f 315// 174// 316//
f 316// 174// 172//
f 316// 172// 317//
f 317// 172// 170//
f 317// 170// 318//
f 318// 170// 168//
f 318// 168// 319//
f 319// 168// 165//
f 319// 165// 320//
f 133// 320// 164//
f 164// 320// 165//
f 133// 132// 320//
f 320// 132// 129//
f 320// 129// 293//
f 293// 129// 128//
f 293// 128// 125//
f 125// 124// 293//
f 293// 124// 123//
f 293// 123// 121//
f 321// 322// 323//
f 323// 322// 324//
f 324// 325// 323//
f 323// 325// 326//
f 323// 326// 327//
f 328// 329// 330//
f 331// 332// 333//
f 333// 332// 334//
f 333// 334// 328//
f 328// 334// 335//
f 328// 335// 329//
f 330// 336// 328//
f 328// 336// 323//
f 328// 323// 337//
f 337// 323// 327//
f 337// 327// 338//
f 338// 339// 337//
f 337// 339// 340//
f 337// 340// 341//
f 72// 77// 342//
f 342// 77// 343//
f 342// 343// 344//
f 344// 343// 345//
f 344// 345// 346//
f 346// 345// 347//
f 346// 347// 348//
f 348// 347// 349//
f 348// 349// 350//
f 350// 349// 351//
f 350// 351// 313//
f 313// 351// 312//
f 77// 78// 343//
f 343// 78// 352//
f 343// 352// 345//
f 345// 352// 353//
f 345// 353// 347//
f 347// 353// 354//
f 347// 354// 349//
f 349// 354// 355//
f 349// 355// 351//
f 351// 355// 356//
f 351// 356// 312//
f 312// 356// 311//
f 78// 76// 352//
f 352// 76// 357//
f 352// 357// 353//
f 353// 357// 358//
f 353// 358// 354//
f 354// 358// 359//
f 354// 359// 355//
f 355// 359// 360//
f 355// 360// 356//
f 356// 360// 361//
f 356// 361// 311//
f 311// 361// 310//
f 76// 75// 357//
f 357// 75// 362//
f 357// 362// 358//
f 358// 362// 363//
f 358// 363// 359//
f 359// 363// 364//
f 359// 364// 360//
f 360// 364// 365//
f 360// 365// 361//
f 361// 365// 366//
f 361// 366// 310//
f 310// 366// 309//
f 75// 74// 362//
f 362// 74// 367//
f 362// 367// 363//
f 363// 367// 368//
f 363// 368// 364//
f 364// 368// 369//
f 364// 369// 365//
f 365// 369// 370//
f 365// 370// 366//
f 366// 370// 371//
f 366// 371// 309//
f 309// 371// 308//
f 74// 73// 367//
f 367// 73// 372//
f 367// 372// 368//
f 368// 372// 373//
f 368// 373// 369//
f 369// 373// 374//
f 369// 374// 370//
f 370// 374// 375//
f 370// 375// 371//
f 371// 375// 376//
f 371// 376// 308//
f 308// 376// 307//
f 73// 80// 377//
f 73// 377// 372//
f 372// 377// 378//
f 372// 378// 373//
f 373// 378// 379//
f 373// 379// 374//
f 374// 379// 380//
f 374// 380// 375//
f 375// 380// 381//
f 375// 381// 376//
f 376// 381// 306//
f 376// 306// 307//
f 19// 72// 342//
f 19// 342// 382//
f 382// 342// 344//
f 382// 344// 383//
f 383// 344// 346//
f 383// 346// 384//
f 384// 346// 348//
f 384// 348// 385//
f 385// 348// 350//
f 385// 350// 386//
f 386// 350// 313//
f 386// 313// 314//
f 80// 79// 377//
f 377// 79// 387//
f 377// 387// 378//
f 378// 387// 388//
f 378// 388// 379//
f 379// 388// 389//
f 379// 389// 380//
f 380// 389// 390//
f 380// 390// 381//
f 381// 390// 391//
f 381// 391// 306//
f 306// 391// 305//
f 79// 85// 387//
f 387// 85// 392//
f 387// 392// 388//
f 388// 392// 393//
f 388// 393// 389//
f 389// 393// 394//
f 389// 394// 390//
f 390// 394// 395//
f 390// 395// 391//
f 391// 395// 396//
f 391// 396// 305//
f 305// 396// 304//
f 85// 84// 392//
f 392// 84// 397//
f 392// 397// 393//
f 393// 397// 398//
f 393// 398// 394//
f 394// 398// 399//
f 394// 399// 395//
f 395// 399// 400//
f 395// 400// 396//
f 396// 400// 401//
f 396// 401// 304//
f 304// 401// 303//
f 84// 83// 397//
f 397// 83// 402//
f 397// 402// 398//
f 398// 402// 403//
f 398// 403// 399//
f 399// 403// 404//
f 399// 404// 400//
f 400// 404// 405//
f 400// 405// 401//
f 401// 405// 406//
f 401// 406// 303//
f 303// 406// 302//
f 83// 86// 402//
f 402// 86// 407//
f 402// 407// 403//
f 403// 407// 408//
f 403// 408// 404//
f 404// 408// 409//
f 404// 409// 405//
f 405// 409// 410//
f 405// 410// 406//
f 406// 410// 411//
f 406// 411// 302//
f 302// 411// 301//
f 86// 81// 407//
f 407// 81// 412//
f 407// 412// 408//
f 408// 412// 413//
f 408// 413// 409//
f 409// 413// 414//
f 409// 414// 410//
f 410// 414// 415//
f 410// 415// 411//
f 411// 415// 416//
f 411// 416// 301//
f 301// 416// 300//
f 5// 65// 417//
f 417// 65// 418//
f 417// 418// 419//
f 419// 418// 420//
f 419// 420// 421//
f 421// 420// 422//
f 421// 422// 423//
f 423// 422// 424//
f 423// 424// 425//
f 425// 424// 426//
f 425// 426// 320//
f 320// 426// 319//
f 65// 66// 418//
f 418// 66// 427//
f 418// 427// 420//
f 420// 427// 428//
f 420// 428// 422//
f 422// 428// 429//
f 422// 429// 424//
f 424// 429// 430//
f 424// 430// 426//
f 426// 430// 431//
f 426// 431// 319//
f 319// 431// 318//
f 66// 52// 427//
f 427// 52// 432//
f 427// 432// 428//
f 428// 432// 433//
f 428// 433// 429//
f 429// 433// 434//
f 429// 434// 430//
f 430// 434// 435//
f 430// 435// 431//
f 431// 435// 436//
f 431// 436// 318//
f 318// 436// 317//
f 52// 51// 432//
f 432// 51// 437//
f 432// 437// 433//
f 433// 437// 438//
f 433// 438// 434//
f 434// 438// 439//
f 434// 439// 435//
f 435// 439// 440//
f 435// 440// 436//
f 436// 440// 441//
f 436// 441// 317//
f 317// 441// 316//
f 51// 61// 437//
f 437// 61// 442//
f 437// 442// 438//
f 438// 442// 443//
f 438// 443// 439//
f 439// 443// 444//
f 439// 444// 440//
f 440// 444// 445//
f 440// 445// 441//
f 441// 445// 446//
f 441// 446// 316//
f 316// 446// 315//
f 61// 19// 442//
f 442// 19// 382//
f 442// 382// 443//
f 443// 382// 383//
f 443// 383// 444//
f 444// 383// 384//
f 444// 384// 445//
f 445// 384// 385//
f 445// 385// 446//
f 446// 385// 386//
f 446// 386// 315//
f 315// 386// 314//
f 81// 109// 447//
f 81// 447// 412//
f 412// 447// 448//
f 412// 448// 413//
f 413// 448// 449//
f 413// 449// 414//
f 414// 449// 450//
f 414// 450// 415//
f 415// 450// 451//
f 415// 451// 416//
f 416// 451// 299//
f 416// 299// 300//
f 97// 5// 417//
f 97// 417// 452//
f 452// 417// 419//
f 452// 419// 453//
f 453// 419// 421//
f 453// 421// 454//
f 454// 421// 423//
f 454// 423// 455//
f 455// 423// 425//
f 455// 425// 456//
f 456// 425// 320//
f 456// 320// 293//
f 109// 110// 447//
f 447// 110// 457//
f 447// 457// 448//
f 448// 457// 458//
f 448// 458// 449//
f 449// 458// 459//
f 449// 459// 450//
f 450// 459// 460//
f 450// 460// 451//
f 451// 460// 461//
f 451// 461// 299//
f 299// 461// 298//
f 110// 108// 457//
f 457// 108// 462//
f 457// 462// 458//
f 458// 462// 463//
f 458// 463// 459//
f 459// 463// 464//
f 459// 464// 460//
f 460// 464// 465//
f 460// 465// 461//
f 461// 465// 466//
f 461// 466// 298//
f 298// 466// 297//
f 108// 107// 462//
f 462// 107// 467//
f 462// 467// 463//
f 463// 467// 468//
f 463// 468// 464//
f 464// 468// 469//
f 464// 469// 465//
f 465// 469// 470//
f 465// 470// 466//
f 466// 470// 471//
f 466// 471// 297//
f 297// 471// 296//
f 107// 106// 467//
f 467// 106// 472//
f 467// 472// 468//
f 468// 472// 473//
f 468// 473// 469//
f 469// 473// 474//
f 469// 474// 470//
f 470// 474// 475//
f 470// 475// 471//
f 471// 475// 476//
f 471// 476// 296//
f 296// 476// 295//
f 106// 103// 472//
f 472// 103// 477//
f 472// 477// 473//
f 473// 477// 478//
f 473// 478// 474//
f 474// 478// 479//
f 474// 479// 475//
f 475// 479// 480//
f 475// 480// 476//
f 476// 480// 481//
f 476// 481// 295//
f 295// 481// 294//
f 103// 97// 477//
f 477// 97// 452//
f 477// 452// 478//
f 478// 452// 453//
f 478// 453// 479//
f 479// 453// 454//
f 479// 454// 480//
f 480// 454// 455//
f 480// 455// 481//
f 481// 455// 456//
f 481// 456// 294//
f 294// 456// 293//
f 482// 213// 212//
f 483// 482// 484//
f 485// 483// 486//
f 487// 485// 488//
f 489// 487// 490//
f 324// 489// 491//
f 482// 212// 484//
f 484// 212// 211//
f 484// 211// 492//
f 211// 210// 492//
f 492// 210// 209//
f 492// 209// 493//
f 209// 208// 493//
f 493// 208// 217//
f 493// 217// 494//
f 494// 217// 216//
f 494// 216// 495//
f 216// 215// 495//
f 495// 215// 214//
f 495// 214// 496//
f 496// 214// 221//
f 496// 221// 497//
f 497// 221// 220//
f 220// 219// 497//
f 497// 219// 218//
f 497// 218// 498//
f 483// 484// 486//
f 486// 484// 492//
f 486// 492// 499//
f 499// 492// 493//
f 499// 493// 500//
f 500// 493// 494//
f 500// 494// 501//
f 501// 494// 495//
f 501// 495// 502//
f 502// 495// 496//
f 502// 496// 503//
f 503// 496// 497//
f 503// 497// 504//
f 504// 497// 498//
f 504// 498// 505//
f 485// 486// 488//
f 488// 486// 499//
f 488// 499// 506//
f 506// 499// 500//
f 506// 500// 507//
f 507// 500// 501//
f 507// 501// 508//
f 508// 501// 502//
f 508// 502// 509//
f 509// 502// 503//
f 509// 503// 510//
f 510// 503// 504//
f 510// 504// 511//
f 511// 504// 505//
f 511// 505// 512//
f 487// 488// 490//
f 490// 488// 506//
f 490// 506// 513//
f 513// 506// 507//
f 513// 507// 514//
f 514// 507// 508//
f 514// 508// 515//
f 515// 508// 509//
f 515// 509// 516//
f 516// 509// 510//
f 516// 510// 517//
f 517// 510// 511//
f 517// 511// 518//
f 518// 511// 512//
f 518// 512// 519//
f 489// 490// 491//
f 491// 490// 513//
f 491// 513// 520//
f 520// 513// 514//
f 520// 514// 521//
f 521// 514// 515//
f 521// 515// 522//
f 522// 515// 516//
f 522// 516// 523//
f 523// 516// 517//
f 523// 517// 524//
f 524// 517// 518//
f 524// 518// 525//
f 525// 518// 519//
f 525// 519// 526//
f 324// 491// 325//
f 325// 491// 520//
f 325// 520// 326//
f 326// 520// 521//
f 326// 521// 327//
f 327// 521// 522//
f 327// 522// 338//
f 338// 522// 523//
f 338// 523// 339//
f 339// 523// 524//
f 339// 524// 340//
f 340// 524// 525//
f 340// 525// 341//
f 341// 525// 526//
f 341// 526// 337//
f 218// 222// 498//
f 498// 222// 527//
f 498// 527// 505//
f 505// 527// 528//
f 505// 528// 512//
f 512// 528// 529//
f 512// 529// 519//
f 519// 529// 530//
f 519// 530// 526//
f 526// 530// 531//
f 526// 531// 337//
f 337// 531// 328//
f 252// 213// 482//
f 532// 533// 482//
f 482// 533// 534//
f 482// 534// 252//
f 532// 482// 535//
f 535// 482// 483//
f 535// 483// 536//
f 536// 483// 485//
f 536// 485// 537//
f 538// 539// 487//
f 487// 539// 540//
f 487// 540// 485//
f 485// 540// 541//
f 485// 541// 537//
f 489// 542// 543//
f 489// 543// 487//
f 487// 543// 544//
f 487// 544// 538//
f 542// 489// 545//
f 545// 489// 324//
f 545// 324// 322//
f 252// 546// 251//
f 251// 546// 547//
f 546// 548// 547//
f 547// 548// 549//
f 547// 549// 550//
f 549// 551// 550//
f 550// 551// 552//
f 550// 552// 553//
f 552// 554// 553//
f 553// 554// 555//
f 553// 555// 556//
f 555// 557// 556//
f 556// 557// 558//
f 556// 558// 559//
f 558// 560// 559//
f 559// 560// 268//
f 559// 268// 278//
f 236// 561// 562//
f 527// 222// 223//
f 529// 528// 563//
f 530// 529// 564//
f 531// 530// 565//
f 328// 531// 566//
f 528// 527// 567//
f 567// 527// 223//
f 567// 223// 568//
f 568// 223// 224//
f 224// 225// 568//
f 568// 225// 226//
f 568// 226// 569//
f 226// 227// 569//
f 569// 227// 228//
f 569// 228// 570//
f 228// 229// 570//
f 570// 229// 230//
f 570// 230// 571//
f 571// 230// 234//
f 571// 234// 572//
f 234// 233// 572//
f 572// 233// 232//
f 572// 232// 573//
f 573// 232// 231//
f 573// 231// 562//
f 562// 231// 235//
f 562// 235// 236//
f 528// 567// 563//
f 563// 567// 568//
f 563// 568// 574//
f 574// 568// 569//
f 574// 569// 575//
f 575// 569// 570//
f 575// 570// 576//
f 576// 570// 571//
f 576// 571// 577//
f 577// 571// 572//
f 577// 572// 578//
f 578// 572// 573//
f 578// 573// 579//
f 579// 573// 562//
f 579// 562// 580//
f 580// 562// 561//
f 580// 561// 581//
f 529// 563// 564//
f 564// 563// 574//
f 564// 574// 582//
f 582// 574// 575//
f 582// 575// 583//
f 583// 575// 576//
f 583// 576// 584//
f 584// 576// 577//
f 584// 577// 585//
f 585// 577// 578//
f 585// 578// 586//
f 586// 578// 579//
f 586// 579// 587//
f 587// 579// 580//
f 587// 580// 588//
f 588// 580// 581//
f 588// 581// 589//
f 530// 564// 565//
f 565// 564// 582//
f 565// 582// 590//
f 590// 582// 583//
f 590// 583// 591//
f 591// 583// 584//
f 591// 584// 592//
f 592// 584// 585//
f 592// 585// 593//
f 593// 585// 586//
f 593// 586// 594//
f 594// 586// 587//
f 594// 587// 595//
f 595// 587// 588//
f 595// 588// 596//
f 596// 588// 589//
f 596// 589// 597//
f 531// 565// 566//
f 566// 565// 590//
f 566// 590// 598//
f 598// 590// 591//
f 598// 591// 599//
f 599// 591// 592//
f 599// 592// 600//
f 600// 592// 593//
f 600// 593// 601//
f 601// 593// 594//
f 601// 594// 602//
f 602// 594// 595//
f 602// 595// 603//
f 603// 595// 596//
f 603// 596// 604//
f 604// 596// 597//
f 604// 597// 605//
f 328// 566// 333//
f 333// 566// 598//
f 333// 598// 331//
f 331// 598// 599//
f 331// 599// 332//
f 332// 599// 600//
f 332// 600// 334//
f 334// 600// 601//
f 334// 601// 335//
f 335// 601// 602//
f 335// 602// 329//
f 329// 602// 603//
f 329// 603// 330//
f 330// 603// 604//
f 330// 604// 336//
f 336// 604// 605//
f 336// 605// 323//
f 541// 540// 606//
f 544// 543// 607//
f 542// 545// 608//
f 608// 545// 322//
f 608// 322// 609//
f 535// 536// 610//
f 610// 536// 537//
f 610// 537// 611//
f 612// 613// 614//
f 614// 613// 615//
f 614// 615// 268//
f 616// 268// 560//
f 543// 542// 607//
f 607// 542// 608//
f 607// 608// 617//
f 617// 618// 607//
f 607// 618// 619//
f 607// 619// 544//
f 544// 619// 620//
f 544// 620// 538//
f 538// 620// 539//
f 560// 558// 616//
f 616// 558// 557//
f 616// 557// 621//
f 540// 539// 606//
f 606// 539// 620//
f 606// 620// 622//
f 622// 620// 619//
f 622// 619// 623//
f 623// 619// 618//
f 623// 618// 268//
f 617// 268// 618//
f 609// 612// 608//
f 608// 612// 614//
f 608// 614// 617//
f 617// 614// 268//
f 537// 541// 611//
f 611// 541// 606//
f 611// 606// 624//
f 624// 606// 622//
f 624// 622// 625//
f 625// 622// 623//
f 625// 623// 268//
f 557// 555// 621//
f 621// 555// 554//
f 621// 554// 626//
f 532// 535// 627//
f 627// 535// 610//
f 627// 610// 626//
f 626// 610// 611//
f 626// 611// 621//
f 621// 611// 624//
f 621// 624// 616//
f 616// 624// 625//
f 616// 625// 268//
f 252// 534// 546//
f 546// 534// 533//
f 546// 533// 548//
f 548// 533// 532//
f 548// 532// 549//
f 549// 532// 627//
f 549// 627// 551//
f 551// 627// 626//
f 551// 626// 552//
f 552// 626// 554//
f 278// 283// 559//
f 559// 283// 628//
f 559// 628// 556//
f 556// 628// 629//
f 556// 629// 553//
f 553// 629// 630//
f 553// 630// 550//
f 550// 630// 631//
f 550// 631// 547//
f 547// 631// 632//
f 547// 632// 251//
f 251// 632// 250//
f 283// 292// 628//
f 628// 292// 633//
f 628// 633// 629//
f 629// 633// 634//
f 629// 634// 630//
f 630// 634// 635//
f 630// 635// 631//
f 631// 635// 636//
f 631// 636// 632//
f 632// 636// 637//
f 632// 637// 250//
f 250// 637// 249//
f 292// 291// 633//
f 633// 291// 638//
f 633// 638// 634//
f 634// 638// 639//
f 634// 639// 635//
f 635// 639// 640//
f 635// 640// 636//
f 636// 640// 641//
f 636// 641// 637//
f 637// 641// 642//
f 637// 642// 249//
f 249// 642// 248//
f 291// 288// 638//
f 638// 288// 643//
f 638// 643// 639//
f 639// 643// 644//
f 639// 644// 640//
f 640// 644// 645//
f 640// 645// 641//
f 641// 645// 646//
f 641// 646// 642//
f 642// 646// 647//
f 642// 647// 248//
f 248// 647// 247//
f 288// 287// 643//
f 643// 287// 648//
f 643// 648// 644//
f 644// 648// 649//
f 644// 649// 645//
f 645// 649// 650//
f 645// 650// 646//
f 646// 650// 651//
f 646// 651// 647//
f 647// 651// 652//
f 647// 652// 247//
f 247// 652// 246//
f 287// 286// 648//
f 648// 286// 653//
f 648// 653// 649//
f 649// 653// 654//
f 649// 654// 650//
f 650// 654// 655//
f 650// 655// 651//
f 651// 655// 656//
f 651// 656// 652//
f 652// 656// 657//
f 652// 657// 246//
f 246// 657// 245//
f 658// 581// 659//
f 659// 581// 561//
f 659// 561// 660//
f 660// 561// 236//
f 660// 236// 237//
f 661// 589// 662//
f 662// 589// 581//
f 662// 581// 663//
f 663// 581// 658//
f 664// 597// 665//
f 665// 597// 589//
f 665// 589// 666//
f 666// 589// 661//
f 664// 667// 597//
f 597// 667// 668//
f 597// 668// 605//
f 321// 323// 669//
f 669// 323// 605//
f 669// 605// 670//
f 670// 605// 668//
f 254// 268// 615//
f 322// 321// 609//
f 609// 321// 671//
f 609// 671// 612//
f 612// 671// 672//
f 612// 672// 613//
f 613// 672// 673//
f 613// 673// 615//
f 615// 673// 674//
f 615// 674// 254//
f 244// 245// 657//
f 244// 657// 675//
f 675// 657// 656//
f 675// 656// 676//
f 676// 656// 655//
f 676// 655// 677//
f 677// 655// 654//
f 677// 654// 678//
f 678// 654// 653//
f 678// 653// 679//
f 679// 653// 286//
f 679// 286// 274//
f 680// 681// 682//
f 254// 683// 684//
f 685// 683// 254//
f 686// 685// 254//
f 687// 661// 688//
f 688// 661// 662//
f 688// 662// 689//
f 689// 662// 663//
f 689// 663// 658//
f 667// 664// 690//
f 690// 664// 665//
f 690// 665// 687//
f 687// 665// 666//
f 687// 666// 661//
f 668// 667// 691//
f 691// 667// 692//
f 668// 691// 670//
f 670// 691// 693//
f 670// 693// 669//
f 669// 693// 671//
f 669// 671// 321//
f 694// 695// 680//
f 254// 674// 686//
f 686// 674// 673//
f 686// 673// 672//
f 680// 682// 694//
f 694// 682// 684//
f 694// 684// 696//
f 696// 684// 683//
f 696// 683// 692//
f 692// 683// 685//
f 692// 685// 691//
f 691// 685// 686//
f 691// 686// 693//
f 693// 686// 672//
f 693// 672// 671//
f 688// 697// 698//
f 667// 690// 692//
f 692// 690// 687//
f 692// 687// 696//
f 696// 687// 688//
f 696// 688// 694//
f 694// 688// 698//
f 694// 698// 695//
f 682// 254// 684//
f 681// 699// 682//
f 682// 699// 254//
f 697// 688// 700//
f 700// 688// 689//
f 700// 689// 701//
f 701// 689// 658//
f 701// 658// 702//
f 702// 658// 659//
f 702// 659// 703//
f 703// 659// 660//
f 703// 660// 237//
f 274// 273// 679//
f 679// 273// 704//
f 679// 704// 678//
f 678// 704// 705//
f 678// 705// 677//
f 677// 705// 706//
f 677// 706// 676//
f 676// 706// 707//
f 676// 707// 675//
f 675// 707// 708//
f 675// 708// 244//
f 244// 708// 243//
f 273// 262// 704//
f 704// 262// 709//
f 704// 709// 705//
f 705// 709// 710//
f 705// 710// 706//
f 706// 710// 711//
f 706// 711// 707//
f 707// 711// 712//
f 707// 712// 708//
f 708// 712// 713//
f 708// 713// 243//
f 243// 713// 242//
f 262// 261// 709//
f 709// 261// 714//
f 709// 714// 710//
f 710// 714// 715//
f 710// 715// 711//
f 711// 715// 716//
f 711// 716// 712//
f 712// 716// 717//
f 712// 717// 713//
f 713// 717// 718//
f 713// 718// 242//
f 242// 718// 241//
f 261// 260// 714//
f 714// 260// 719//
f 714// 719// 715//
f 715// 719// 720//
f 715// 720// 716//
f 716// 720// 721//
f 716// 721// 717//
f 717// 721// 722//
f 717// 722// 718//
f 718// 722// 723//
f 718// 723// 241//
f 241// 723// 240//
f 260// 257// 719//
f 719// 257// 724//
f 719// 724// 720//
f 720// 724// 725//
f 720// 725// 721//
f 721// 725// 726//
f 721// 726// 722//
f 722// 726// 727//
f 722// 727// 723//
f 723// 727// 728//
f 723// 728// 240//
f 240// 728// 239//
f 257// 256// 724//
f 724// 256// 729//
f 724// 729// 725//
f 725// 729// 730//
f 725// 730// 726//
f 726// 730// 731//
f 726// 731// 727//
f 727// 731// 732//
f 727// 732// 728//
f 728// 732// 733//
f 728// 733// 239//
f 239// 733// 238//
f 733// 702// 238//
f 238// 702// 703//
f 238// 703// 237//
f 732// 731// 698//
f 698// 697// 732//
f 732// 697// 700//
f 732// 700// 733//
f 733// 700// 701//
f 733// 701// 702//
f 699// 681// 730//
f 730// 681// 680//
f 730// 680// 731//
f 731// 680// 695//
f 731// 695// 698//
f 730// 729// 699//
f 699// 729// 256//
f 699// 256// 254//
usemtl 2
f 734// 253// 735//
f 735// 253// 255//
f 735// 255// 736//
f 736// 255// 259//
f 736// 259// 737//
f 737// 259// 258//
f 737// 258// 738//
f 738// 258// 275//
f 738// 275// 739//
f 739// 275// 285//
f 739// 285// 740//
f 740// 285// 284//
f 740// 284// 741//
f 741// 284// 282//
f 741// 282// 742//
f 742// 282// 281//
f 742// 281// 743//
f 743// 281// 280//
f 743// 280// 744//
f 744// 280// 279//
f 744// 279// 745//
f 745// 279// 277//
f 745// 277// 746//
f 746// 277// 276//
f 746// 276// 747//
f 747// 276// 272//
f 747// 272// 748//
f 748// 272// 271//
f 748// 271// 749//
f 749// 271// 290//
f 749// 290// 750//
f 750// 290// 289//
f 750// 289// 751//
f 751// 289// 270//
f 751// 270// 752//
f 752// 270// 269//
f 752// 269// 753//
f 753// 269// 267//
f 753// 267// 754//
f 754// 267// 266//
f 754// 266// 755//
f 755// 266// 265//
f 755// 265// 756//
f 756// 265// 264//
f 756// 264// 757//
f 757// 264// 263//
f 757// 263// 734//
f 734// 263// 253//
f 756// 757// 758//
f 758// 757// 734//
f 758// 734// 735//
f 753// 754// 758//
f 758// 754// 755//
f 758// 755// 756//
f 750// 751// 758//
f 758// 751// 752//
f 758// 752// 753//
f 747// 748// 758//
f 758// 748// 749//
f 758// 749// 750//
f 744// 745// 758//
f 758// 745// 746//
f 758// 746// 747//
f 741// 742// 758//
f 758// 742// 743//
f 758// 743// 744//
f 738// 739// 758//
f 758// 739// 740//
f 758// 740// 741//
f 735// 736// 758//
f 758// 736// 737//
f 758// 737// 738//
usemtl 3
f 759// 760// 761//
f 761// 760// 762//
f 763// 759// 764//
f 764// 759// 761//
f 765// 763// 766//
f 766// 763// 764//
f 765// 766// 767//
f 767// 766// 768//
f 767// 768// 769//
f 769// 768// 770//
f 769// 770// 771//
f 771// 770// 772//
f 771// 772// 773//
f 773// 772// 774//
f 773// 774// 775//
f 775// 774// 776//
f 775// 776// 777//
f 777// 776// 778//
f 779// 777// 780//
f 780// 777// 778//
f 779// 780// 781//
f 779// 781// 782//
f 782// 781// 783//
f 782// 783// 784//
f 784// 783// 785//
f 784// 785// 786//
f 786// 785// 787//
f 786// 787// 788//
f 788// 787// 789//
f 788// 789// 790//
f 790// 789// 791//
f 790// 791// 792//
f 194// 792// 149//
f 149// 792// 791//
f 793// 195// 794//
f 794// 195// 151//
f 793// 794// 795//
f 795// 794// 796//
f 795// 796// 797//
f 797// 796// 798//
f 797// 798// 799//
f 799// 798// 800//
f 799// 800// 801//
f 801// 800// 802//
f 801// 802// 803//
f 803// 802// 804//
f 803// 804// 805//
f 805// 804// 806//
f 807// 805// 808//
f 808// 805// 806//
f 807// 808// 809//
f 807// 809// 810//
f 810// 809// 811//
f 810// 811// 812//
f 812// 811// 813//
f 812// 813// 814//
f 814// 813// 815//
f 814// 815// 816//
f 816// 815// 817//
f 816// 817// 818//
f 818// 817// 762//
f 818// 762// 760//
f 759// 763// 760//
f 760// 763// 765//
f 760// 765// 818//
f 818// 765// 767//
f 818// 767// 816//
f 816// 767// 769//
f 816// 769// 814//
f 814// 769// 771//
f 814// 771// 812//
f 812// 771// 773//
f 812// 773// 810//
f 810// 773// 775//
f 810// 775// 807//
f 807// 775// 777//
f 807// 777// 805//
f 805// 777// 779//
f 805// 779// 803//
f 803// 779// 782//
f 803// 782// 801//
f 801// 782// 784//
f 801// 784// 799//
f 799// 784// 786//
f 799// 786// 797//
f 797// 786// 788//
f 797// 788// 795//
f 795// 788// 790//
f 795// 790// 793//
f 793// 790// 792//
f 793// 792// 195//
f 195// 792// 194//
f 151// 149// 794//
f 794// 149// 791//
f 794// 791// 796//
f 796// 791// 789//
f 796// 789// 798//
f 798// 789// 787//
f 798// 787// 800//
f 800// 787// 785//
f 800// 785// 802//
f 802// 785// 783//
f 802// 783// 804//
f 804// 783// 781//
f 804// 781// 806//
f 806// 781// 780//
f 806// 780// 808//
f 808// 780// 778//
f 808// 778// 809//
f 809// 778// 776//
f 809// 776// 811//
f 811// 776// 774//
f 811// 774// 813//
f 813// 774// 772//
f 813// 772// 815//
f 815// 772// 770//
f 815// 770// 817//
f 817// 770// 768//
f 817// 768// 762//
f 762// 768// 766//
f 762// 766// 761//
f 761// 766// 764//
f 819// 820// 821//
f 821// 820// 822//
f 823// 819// 824//
f 824// 819// 821//
f 825// 823// 826//
f 826// 823// 824//
f 825// 826// 827//
f 827// 826// 828//
f 827// 828// 829//
f 829// 828// 830//
f 829// 830// 831//
f 831// 830// 832//
f 831// 832// 833//
f 833// 832// 834//
f 833// 834// 835//
f 835// 834// 836//
f 835// 836// 837//
f 837// 836// 838//
f 839// 837// 840//
f 840// 837// 838//
f 839// 840// 841//
f 839// 841// 842//
f 842// 841// 843//
f 842// 843// 844//
f 844// 843// 845//
f 844// 845// 846//
f 846// 845// 847//
f 846// 847// 848//
f 848// 847// 849//
f 848// 849// 850//
f 850// 849// 851//
f 850// 851// 852//
f 148// 852// 145//
f 145// 852// 851//
f 853// 150// 854//
f 854// 150// 147//
f 853// 854// 855//
f 855// 854// 856//
f 855// 856// 857//
f 857// 856// 858//
f 857// 858// 859//
f 859// 858// 860//
f 859// 860// 861//
f 861// 860// 862//
f 861// 862// 863//
f 863// 862// 864//
f 863// 864// 865//
f 865// 864// 866//
f 867// 865// 868//
f 868// 865// 866//
f 819// 823// 820//
f 820// 823// 825//
f 820// 825// 869//
f 869// 825// 827//
f 869// 827// 870//
f 870// 827// 829//
f 870// 829// 871//
f 871// 829// 831//
f 871// 831// 872//
f 872// 831// 833//
f 872// 833// 873//
f 873// 833// 835//
f 873// 835// 867//
f 867// 835// 837//
f 867// 837// 865//
f 865// 837// 839//
f 865// 839// 863//
f 863// 839// 842//
f 863// 842// 861//
f 861// 842// 844//
f 861// 844// 859//
f 859// 844// 846//
f 859// 846// 857//
f 857// 846// 848//
f 857// 848// 855//
f 855// 848// 850//
f 855// 850// 853//
f 853// 850// 852//
f 853// 852// 150//
f 150// 852// 148//
f 867// 868// 874//
f 867// 874// 873//
f 873// 874// 875//
f 873// 875// 872//
f 872// 875// 876//
f 872// 876// 871//
f 871// 876// 877//
f 871// 877// 870//
f 870// 877// 878//
f 870// 878// 869//
f 869// 878// 822//
f 869// 822// 820//
f 147// 145// 854//
f 854// 145// 851//
f 854// 851// 856//
f 856// 851// 849//
f 856// 849// 858//
f 858// 849// 847//
f 858// 847// 860//
f 860// 847// 845//
f 860// 845// 862//
f 862// 845// 843//
f 862// 843// 864//
f 864// 843// 841//
f 864// 841// 866//
f 866// 841// 840//
f 866// 840// 868//
f 868// 840// 838//
f 868// 838// 874//
f 874// 838// 836//
f 874// 836// 875//
f 875// 836// 834//
f 875// 834// 876//
f 876// 834// 832//
f 876// 832// 877//
f 877// 832// 830//
f 877// 830// 878//
f 878// 830// 828//
f 878// 828// 822//
f 822// 828// 826//
f 822// 826// 821//
f 821// 826// 824//
f 879// 880// 881//
f 881// 880// 882//
f 883// 879// 884//
f 884// 879// 881//
f 885// 883// 886//
f 886// 883// 884//
f 885// 886// 887//
f 887// 886// 888//
f 887// 888// 889//
f 889// 888// 890//
f 889// 890// 891//
f 891// 890// 892//
f 891// 892// 893//
f 893// 892// 894//
f 893// 894// 895//
f 895// 894// 896//
f 895// 896// 897//
f 897// 896// 898//
f 899// 897// 900//
f 900// 897// 898//
f 899// 900// 901//
f 899// 901// 902//
f 902// 901// 903//
f 902// 903// 904//
f 904// 903// 905//
f 904// 905// 906//
f 906// 905// 907//
f 906// 907// 908//
f 908// 907// 909//
f 908// 909// 910//
f 910// 909// 911//
f 910// 911// 912//
f 144// 912// 141//
f 141// 912// 911//
f 913// 146// 914//
f 914// 146// 143//
f 913// 914// 915//
f 915// 914// 916//
f 915// 916// 917//
f 917// 916// 918//
f 917// 918// 919//
f 919// 918// 920//
f 919// 920// 921//
f 921// 920// 922//
f 921// 922// 923//
f 923// 922// 924//
f 923// 924// 925//
f 925// 924// 926//
f 927// 925// 928//
f 928// 925// 926//
f 879// 883// 880//
f 880// 883// 885//
f 880// 885// 929//
f 929// 885// 887//
f 929// 887// 930//
f 930// 887// 889//
f 930// 889// 931//
f 931// 889// 891//
f 931// 891// 932//
f 932// 891// 893//
f 932// 893// 933//
f 933// 893// 895//
f 933// 895// 927//
f 927// 895// 897//
f 927// 897// 925//
f 925// 897// 899//
f 925// 899// 923//
f 923// 899// 902//
f 923// 902// 921//
f 921// 902// 904//
f 921// 904// 919//
f 919// 904// 906//
f 919// 906// 917//
f 917// 906// 908//
f 917// 908// 915//
f 915// 908// 910//
f 915// 910// 913//
f 913// 910// 912//
f 913// 912// 146//
f 146// 912// 144//
f 927// 928// 934//
f 927// 934// 933//
f 933// 934// 935//
f 933// 935// 932//
f 932// 935// 936//
f 932// 936// 931//
f 931// 936// 937//
f 931// 937// 930//
f 930// 937// 938//
f 930// 938// 929//
f 929// 938// 882//
f 929// 882// 880//
f 143// 141// 914//
f 914// 141// 911//
f 914// 911// 916//
f 916// 911// 909//
f 916// 909// 918//
f 918// 909// 907//
f 918// 907// 920//
f 920// 907// 905//
f 920// 905// 922//
f 922// 905// 903//
f 922// 903// 924//
f 924// 903// 901//
f 924// 901// 926//
f 926// 901// 900//
f 926// 900// 928//
f 928// 900// 898//
f 928// 898// 934//
f 934// 898// 896//
f 934// 896// 935//
f 935// 896// 894//
f 935// 894// 936//
f 936// 894// 892//
f 936// 892// 937//
f 937// 892// 890//
f 937// 890// 938//
f 938// 890// 888//
f 938// 888// 882//
f 882// 888// 886//
f 882// 886// 881//
f 881// 886// 884//
f 939// 940// 941//
f 941// 940// 942//
f 943// 939// 944//
f 944// 939// 941//
f 945// 943// 946//
f 946// 943// 944//
f 945// 946// 947//
f 947// 946// 948//
f 947// 948// 949//
f 949// 948// 950//
f 949// 950// 951//
f 951// 950// 952//
f 951// 952// 953//
f 953// 952// 954//
f 953// 954// 955//
f 955// 954// 956//
f 955// 956// 957//
f 957// 956// 958//
f 959// 957// 960//
f 960// 957// 958//
f 959// 960// 961//
f 959// 961// 962//
f 962// 961// 963//
f 962// 963// 964//
f 964// 963// 965//
f 964// 965// 966//
f 966// 965// 967//
f 966// 967// 968//
f 968// 967// 969//
f 968// 969// 970//
f 970// 969// 971//
f 970// 971// 972//
f 140// 972// 139//
f 139// 972// 971//
f 973// 142// 974//
f 974// 142// 138//
f 973// 974// 975//
f 975// 974// 976//
f 975// 976// 977//
f 977// 976// 978//
f 977// 978// 979//
f 979// 978// 980//
f 979// 980// 981//
f 981// 980// 982//
f 981// 982// 983//
f 983// 982// 984//
f 983// 984// 985//
f 985// 984// 986//
f 987// 985// 988//
f 988// 985// 986//
f 939// 943// 940//
f 940// 943// 945//
f 940// 945// 989//
f 989// 945// 947//
f 989// 947// 990//
f 990// 947// 949//
f 990// 949// 991//
f 991// 949// 951//
f 991// 951// 992//
f 992// 951// 953//
f 992// 953// 993//
f 993// 953// 955//
f 993// 955// 987//
f 987// 955// 957//
f 987// 957// 985//
f 985// 957// 959//
f 985// 959// 983//
f 983// 959// 962//
f 983// 962// 981//
f 981// 962// 964//
f 981// 964// 979//
f 979// 964// 966//
f 979// 966// 977//
f 977// 966// 968//
f 977// 968// 975//
f 975// 968// 970//
f 975// 970// 973//
f 973// 970// 972//
f 973// 972// 142//
f 142// 972// 140//
f 987// 988// 994//
f 987// 994// 993//
f 993// 994// 995//
f 993// 995// 992//
f 992// 995// 996//
f 992// 996// 991//
f 991// 996// 997//
f 991// 997// 990//
f 990// 997// 998//
f 990// 998// 989//
f 989// 998// 942//
f 989// 942// 940//
f 138// 139// 974//
f 974// 139// 971//
f 974// 971// 976//
f 976// 971// 969//
f 976// 969// 978//
f 978// 969// 967//
f 978// 967// 980//
f 980// 967// 965//
f 980// 965// 982//
f 982// 965// 963//
f 982// 963// 984//
f 984// 963// 961//
f 984// 961// 986//
f 986// 961// 960//
f 986// 960// 988//
f 988// 960// 958//
f 988// 958// 994//
f 994// 958// 956//
f 994// 956// 995//
f 995// 956// 954//
f 995// 954// 996//
f 996// 954// 952//
f 996// 952// 997//
f 997// 952// 950//
f 997// 950// 998//
f 998// 950// 948//
f 998// 948// 942//
f 942// 948// 946//
f 942// 946// 941//
f 941// 946// 944//
f 999// 1000// 1001//
f 1001// 1000// 1002//
f 1000// 1003// 1002//
f 1002// 1003// 1004//
f 1003// 1005// 1004//
f 1004// 1005// 1006//
f 1007// 1008// 1009//
f 1009// 1008// 1010//
f 1009// 1010// 1011//
f 1011// 1010// 1012//
f 1011// 1012// 1013//
f 1013// 1012// 1014//
f 1013// 1014// 1015//
f 1015// 1014// 1016//
f 1015// 1016// 1017//
f 1017// 1016// 1018//
f 1017// 1018// 1005//
f 1005// 1018// 1006//
f 1007// 1019// 1008//
f 1008// 1019// 1020//
f 1021// 1022// 1023//
f 1021// 1023// 1024//
f 1024// 1023// 1025//
f 1024// 1025// 1026//
f 1026// 1025// 1027//
f 1026// 1027// 1028//
f 1028// 1027// 1029//
f 1028// 1029// 1030//
f 1030// 1029// 1031//
f 1030// 1031// 1032//
f 1032// 1031// 1020//
f 1032// 1020// 1019//
f 1021// 166// 1022//
f 1022// 166// 135//
f 164// 1033// 133//
f 133// 1033// 1034//
f 1035// 1036// 1037//
f 1037// 1036// 1038//
f 1037// 1038// 1039//
f 1039// 1038// 1040//
f 1039// 1040// 1041//
f 1041// 1040// 1042//
f 1041// 1042// 1043//
f 1043// 1042// 1044//
f 1043// 1044// 1045//
f 1045// 1044// 1046//
f 1045// 1046// 1033//
f 1033// 1046// 1034//
f 1035// 1047// 1036//
f 1036// 1047// 1048//
f 1003// 1000// 1005//
f 1005// 1000// 999//
f 1005// 999// 1017//
f 1017// 999// 1049//
f 1017// 1049// 1015//
f 1015// 1049// 1050//
f 1015// 1050// 1013//
f 1013// 1050// 1051//
f 1013// 1051// 1011//
f 1011// 1051// 1052//
f 1011// 1052// 1009//
f 1009// 1052// 1053//
f 1009// 1053// 1007//
f 1007// 1053// 1047//
f 1007// 1047// 1019//
f 1019// 1047// 1035//
f 1019// 1035// 1032//
f 1032// 1035// 1037//
f 1032// 1037// 1030//
f 1030// 1037// 1039//
f 1030// 1039// 1028//
f 1028// 1039// 1041//
f 1028// 1041// 1026//
f 1026// 1041// 1043//
f 1026// 1043// 1024//
f 1024// 1043// 1045//
f 1024// 1045// 1021//
f 1021// 1045// 1033//
f 1021// 1033// 166//
f 166// 1033// 164//
f 999// 1001// 1054//
f 999// 1054// 1049//
f 1049// 1054// 1055//
f 1049// 1055// 1050//
f 1050// 1055// 1056//
f 1050// 1056// 1051//
f 1051// 1056// 1057//
f 1051// 1057// 1052//
f 1052// 1057// 1058//
f 1052// 1058// 1053//
f 1053// 1058// 1048//
f 1053// 1048// 1047//
f 135// 133// 1022//
f 1022// 133// 1034//
f 1022// 1034// 1023//
f 1023// 1034// 1046//
f 1023// 1046// 1025//
f 1025// 1046// 1044//
f 1025// 1044// 1027//
f 1027// 1044// 1042//
f 1027// 1042// 1029//
f 1029// 1042// 1040//
f 1029// 1040// 1031//
f 1031// 1040// 1038//
f 1031// 1038// 1020//
f 1020// 1038// 1036//
f 1020// 1036// 1008//
f 1008// 1036// 1048//
f 1008// 1048// 1010//
f 1010// 1048// 1058//
f 1010// 1058// 1012//
f 1012// 1058// 1057//
f 1012// 1057// 1014//
f 1014// 1057// 1056//
f 1014// 1056// 1016//
f 1016// 1056// 1055//
f 1016// 1055// 1018//
f 1018// 1055// 1054//
f 1018// 1054// 1006//
f 1006// 1054// 1001//
f 1006// 1001// 1004//
f 1004// 1001// 1002//
f 1059// 1060// 1061//
f 1061// 1060// 1062//
f 1060// 1063// 1062//
f 1062// 1063// 1064//
f 1063// 1065// 1064//
f 1064// 1065// 1066//
f 1067// 1068// 1069//
f 1069// 1068// 1070//
f 1069// 1070// 1071//
f 1071// 1070// 1072//
f 1071// 1072// 1073//
f 1073// 1072// 1074//
f 1073// 1074// 1075//
f 1075// 1074// 1076//
f 1075// 1076// 1077//
f 1077// 1076// 1078//
f 1077// 1078// 1065//
f 1065// 1078// 1066//
f 1067// 1079// 1068//
f 1068// 1079// 1080//
f 1081// 1082// 1083//
f 1081// 1083// 1084//
f 1084// 1083// 1085//
f 1084// 1085// 1086//
f 1086// 1085// 1087//
f 1086// 1087// 1088//
f 1088// 1087// 1089//
f 1088// 1089// 1090//
f 1090// 1089// 1091//
f 1090// 1091// 1092//
f 1092// 1091// 1080//
f 1092// 1080// 1079//
f 1081// 134// 1082//
f 1082// 134// 131//
f 132// 1093// 129//
f 129// 1093// 1094//
f 1095// 1096// 1097//
f 1097// 1096// 1098//
f 1097// 1098// 1099//
f 1099// 1098// 1100//
f 1099// 1100// 1101//
f 1101// 1100// 1102//
f 1101// 1102// 1103//
f 1103// 1102// 1104//
f 1103// 1104// 1105//
f 1105// 1104// 1106//
f 1105// 1106// 1093//
f 1093// 1106// 1094//
f 1095// 1107// 1096//
f 1096// 1107// 1108//
f 1063// 1060// 1065//
f 1065// 1060// 1059//
f 1065// 1059// 1077//
f 1077// 1059// 1109//
f 1077// 1109// 1075//
f 1075// 1109// 1110//
f 1075// 1110// 1073//
f 1073// 1110// 1111//
f 1073// 1111// 1071//
f 1071// 1111// 1112//
f 1071// 1112// 1069//
f 1069// 1112// 1113//
f 1069// 1113// 1067//
f 1067// 1113// 1107//
f 1067// 1107// 1079//
f 1079// 1107// 1095//
f 1079// 1095// 1092//
f 1092// 1095// 1097//
f 1092// 1097// 1090//
f 1090// 1097// 1099//
f 1090// 1099// 1088//
f 1088// 1099// 1101//
f 1088// 1101// 1086//
f 1086// 1101// 1103//
f 1086// 1103// 1084//
f 1084// 1103// 1105//
f 1084// 1105// 1081//
f 1081// 1105// 1093//
f 1081// 1093// 134//
f 134// 1093// 132//
f 1059// 1061// 1114//
f 1059// 1114// 1109//
f 1109// 1114// 1115//
f 1109// 1115// 1110//
f 1110// 1115// 1116//
f 1110// 1116// 1111//
f 1111// 1116// 1117//
f 1111// 1117// 1112//
f 1112// 1117// 1118//
f 1112// 1118// 1113//
f 1113// 1118// 1108//
f 1113// 1108// 1107//
f 131// 129// 1082//
f 1082// 129// 1094//
f 1082// 1094// 1083//
f 1083// 1094// 1106//
f 1083// 1106// 1085//
f 1085// 1106// 1104//
f 1085// 1104// 1087//
f 1087// 1104// 1102//
f 1087// 1102// 1089//
f 1089// 1102// 1100//
f 1089// 1100// 1091//
f 1091// 1100// 1098//
f 1091// 1098// 1080//
f 1080// 1098// 1096//
f 1080// 1096// 1068//
f 1068// 1096// 1108//
f 1068// 1108// 1070//
f 1070// 1108// 1118//
f 1070// 1118// 1072//
f 1072// 1118// 1117//
f 1072// 1117// 1074//
f 1074// 1117// 1116//
f 1074// 1116// 1076//
f 1076// 1116// 1115//
f 1076// 1115// 1078//
f 1078// 1115// 1114//
f 1078// 1114// 1066//
f 1066// 1114// 1061//
f 1066// 1061// 1064//
f 1064// 1061// 1062//
f 1119// 1120// 1121//
f 1121// 1120// 1122//
f 1120// 1123// 1122//
f 1122// 1123// 1124//
f 1123// 1125// 1124//
f 1124// 1125// 1126//
f 1127// 1128// 1129//
f 1129// 1128// 1130//
f 1129// 1130// 1131//
f 1131// 1130// 1132//
f 1131// 1132// 1133//
f 1133// 1132// 1134//
f 1133// 1134// 1135//
f 1135// 1134// 1136//
f 1135// 1136// 1137//
f 1137// 1136// 1138//
f 1137// 1138// 1125//
f 1125// 1138// 1126//
f 1127// 1139// 1128//
f 1128// 1139// 1140//
f 1141// 1142// 1143//
f 1141// 1143// 1144//
f 1144// 1143// 1145//
f 1144// 1145// 1146//
f 1146// 1145// 1147//
f 1146// 1147// 1148//
f 1148// 1147// 1149//
f 1148// 1149// 1150//
f 1150// 1149// 1151//
f 1150// 1151// 1152//
f 1152// 1151// 1140//
f 1152// 1140// 1139//
f 1141// 130// 1142//
f 1142// 130// 127//
f 128// 1153// 125//
f 125// 1153// 1154//
f 1155// 1156// 1157//
f 1157// 1156// 1158//
f 1157// 1158// 1159//
f 1159// 1158// 1160//
f 1159// 1160// 1161//
f 1161// 1160// 1162//
f 1161// 1162// 1163//
f 1163// 1162// 1164//
f 1163// 1164// 1165//
f 1165// 1164// 1166//
f 1165// 1166// 1153//
f 1153// 1166// 1154//
f 1155// 1167// 1156//
f 1156// 1167// 1168//
f 1123// 1120// 1125//
f 1125// 1120// 1119//
f 1125// 1119// 1137//
f 1137// 1119// 1169//
f 1137// 1169// 1135//
f 1135// 1169// 1170//
f 1135// 1170// 1133//
f 1133// 1170// 1171//
f 1133// 1171// 1131//
f 1131// 1171// 1172//
f 1131// 1172// 1129//
f 1129// 1172// 1173//
f 1129// 1173// 1127//
f 1127// 1173// 1167//
f 1127// 1167// 1139//
f 1139// 1167// 1155//
f 1139// 1155// 1152//
f 1152// 1155// 1157//
f 1152// 1157// 1150//
f 1150// 1157// 1159//
f 1150// 1159// 1148//
f 1148// 1159// 1161//
f 1148// 1161// 1146//
f 1146// 1161// 1163//
f 1146// 1163// 1144//
f 1144// 1163// 1165//
f 1144// 1165// 1141//
f 1141// 1165// 1153//
f 1141// 1153// 130//
f 130// 1153// 128//
f 1119// 1121// 1174//
f 1119// 1174// 1169//
f 1169// 1174// 1175//
f 1169// 1175// 1170//
f 1170// 1175// 1176//
f 1170// 1176// 1171//
f 1171// 1176// 1177//
f 1171// 1177// 1172//
f 1172// 1177// 1178//
f 1172// 1178// 1173//
f 1173// 1178// 1168//
f 1173// 1168// 1167//
f 127// 125// 1142//
f 1142// 125// 1154//
f 1142// 1154// 1143//
f 1143// 1154// 1166//
f 1143// 1166// 1145//
f 1145// 1166// 1164//
f 1145// 1164// 1147//
f 1147// 1164// 1162//
f 1147// 1162// 1149//
f 1149// 1162// 1160//
f 1149// 1160// 1151//
f 1151// 1160// 1158//
f 1151// 1158// 1140//
f 1140// 1158// 1156//
f 1140// 1156// 1128//
f 1128// 1156// 1168//
f 1128// 1168// 1130//
f 1130// 1168// 1178//
f 1130// 1178// 1132//
f 1132// 1178// 1177//
f 1132// 1177// 1134//
f 1134// 1177// 1176//
f 1134// 1176// 1136//
f 1136// 1176// 1175//
f 1136// 1175// 1138//
f 1138// 1175// 1174//
f 1138// 1174// 1126//
f 1126// 1174// 1121//
f 1126// 1121// 1124//
f 1124// 1121// 1122//
f 1179// 1180// 1181//
f 1181// 1180// 1182//
f 1180// 1183// 1182//
f 1182// 1183// 1184//
f 1183// 1185// 1184//
f 1184// 1185// 1186//
f 1187// 1188// 1189//
f 1189// 1188// 1190//
f 1189// 1190// 1191//
f 1191// 1190// 1192//
f 1191// 1192// 1193//
f 1193// 1192// 1194//
f 1193// 1194// 1195//
f 1195// 1194// 1196//
f 1195// 1196// 1197//
f 1197// 1196// 1198//
f 1197// 1198// 1185//
f 1185// 1198// 1186//
f 1187// 1199// 1188//
f 1188// 1199// 1200//
f 1201// 1202// 1203//
f 1201// 1203// 1204//
f 1204// 1203// 1205//
f 1204// 1205// 1206//
f 1206// 1205// 1207//
f 1206// 1207// 1208//
f 1208// 1207// 1209//
f 1208// 1209// 1210//
f 1210// 1209// 1211//
f 1210// 1211// 1212//
f 1212// 1211// 1200//
f 1212// 1200// 1199//
f 1201// 126// 1202//
f 1202// 126// 122//
f 124// 1213// 123//
f 123// 1213// 1214//
f 1215// 1216// 1217//
f 1217// 1216// 1218//
f 1217// 1218// 1219//
f 1219// 1218// 1220//
f 1219// 1220// 1221//
f 1221// 1220// 1222//
f 1221// 1222// 1223//
f 1223// 1222// 1224//
f 1223// 1224// 1225//
f 1225// 1224// 1226//
f 1225// 1226// 1213//
f 1213// 1226// 1214//
f 1215// 1227// 1216//
f 1216// 1227// 1228//
f 1183// 1180// 1185//
f 1185// 1180// 1179//
f 1185// 1179// 1197//
f 1197// 1179// 1229//
f 1197// 1229// 1195//
f 1195// 1229// 1230//
f 1195// 1230// 1193//
f 1193// 1230// 1231//
f 1193// 1231// 1191//
f 1191// 1231// 1232//
f 1191// 1232// 1189//
f 1189// 1232// 1233//
f 1189// 1233// 1187//
f 1187// 1233// 1227//
f 1187// 1227// 1199//
f 1199// 1227// 1215//
f 1199// 1215// 1212//
f 1212// 1215// 1217//
f 1212// 1217// 1210//
f 1210// 1217// 1219//
f 1210// 1219// 1208//
f 1208// 1219// 1221//
f 1208// 1221// 1206//
f 1206// 1221// 1223//
f 1206// 1223// 1204//
f 1204// 1223// 1225//
f 1204// 1225// 1201//
f 1201// 1225// 1213//
f 1201// 1213// 126//
f 126// 1213// 124//
f 1179// 1181// 1234//
f 1179// 1234// 1229//
f 1229// 1234// 1235//
f 1229// 1235// 1230//
f 1230// 1235// 1236//
f 1230// 1236// 1231//
f 1231// 1236// 1237//
f 1231// 1237// 1232//
f 1232// 1237// 1238//
f 1232// 1238// 1233//
f 1233// 1238// 1228//
f 1233// 1228// 1227//
f 122// 123// 1202//
f 1202// 123// 1214//
f 1202// 1214// 1203//
f 1203// 1214// 1226//
f 1203// 1226// 1205//
f 1205// 1226// 1224//
f 1205// 1224// 1207//
f 1207// 1224// 1222//
f 1207// 1222// 1209//
f 1209// 1222// 1220//
f 1209// 1220// 1211//
f 1211// 1220// 1218//
f 1211// 1218// 1200//
f 1200// 1218// 1216//
f 1200// 1216// 1188//
f 1188// 1216// 1228//
f 1188// 1228// 1190//
f 1190// 1228// 1238//
f 1190// 1238// 1192//
f 1192// 1238// 1237//
f 1192// 1237// 1194//
f 1194// 1237// 1236//
f 1194// 1236// 1196//
f 1196// 1236// 1235//
f 1196// 1235// 1198//
f 1198// 1235// 1234//
f 1198// 1234// 1186//
f 1186// 1234// 1181//
f 1186// 1181// 1184//
f 1184// 1181// 1182//
usemtl 4
f 1239// 1240// 91//
f 91// 1240// 102//
f 1240// 1241// 102//
f 102// 1241// 87//
f 1241// 1242// 87//
f 87// 1242// 88//
f 1242// 1243// 88//
f 88// 1243// 89//
f 1243// 1244// 89//
f 89// 1244// 98//
f 1244// 1245// 98//
f 98// 1245// 94//
f 1245// 1246// 94//
f 94// 1246// 90//
f 1246// 1239// 90//
f 90// 1239// 91//
f 1247// 1243// 1248//
f 1248// 1243// 1242//
f 1249// 1246// 1247//
f 1247// 1246// 1245//
f 1247// 1245// 1243//
f 1243// 1245// 1244//
f 1249// 1250// 1246//
f 1246// 1250// 1251//
f 1246// 1251// 1239//
f 1239// 1251// 1252//
f 1239// 1252// 1253//
f 1253// 1254// 1239//
f 1239// 1254// 1248//
f 1239// 1248// 1240//
f 1240// 1248// 1242//
f 1240// 1242// 1241//
f 1247// 1248// 1255//
f 1255// 1248// 1256//
f 1249// 1247// 1257//
f 1257// 1247// 1255//
f 1249// 1257// 1258//
f 1249// 1258// 1250//
f 1250// 1258// 1259//
f 1250// 1259// 1251//
f 1252// 1251// 1260//
f 1260// 1251// 1259//
f 1252// 1260// 1261//
f 1252// 1261// 1253//
f 1253// 1261// 1262//
f 1253// 1262// 1254//
f 1248// 1254// 1256//
f 1256// 1254// 1262//
f 1263// 1264// 100//
f 100// 1264// 101//
f 1264// 1265// 101//
f 101// 1265// 111//
f 1265// 1266// 111//
f 111// 1266// 112//
f 1267// 118// 117//
f 1267// 117// 1268//
f 1268// 117// 116//
f 1268// 116// 1269//
f 1269// 116// 115//
f 1269// 115// 1270//
f 1270// 115// 114//
f 1270// 114// 1271//
f 1271// 114// 105//
f 1271// 105// 1272//
f 1272// 105// 104//
f 1272// 104// 1273//
f 1273// 104// 113//
f 1273// 113// 1274//
f 1274// 113// 112//
f 1274// 112// 1266//
f 1263// 100// 99//
f 1263// 99// 1275//
f 1275// 99// 96//
f 1275// 96// 1276//
f 1276// 96// 95//
f 1276// 95// 1277//
f 1277// 95// 93//
f 1277// 93// 1278//
f 1278// 93// 92//
f 1278// 92// 1279//
f 1279// 92// 119//
f 1279// 119// 1280//
f 1280// 119// 118//
f 1280// 118// 1267//
f 1269// 1270// 1281//
f 1281// 1270// 1271//
f 1281// 1271// 1282//
f 1282// 1271// 1272//
f 1282// 1272// 1283//
f 1283// 1272// 1273//
f 1283// 1273// 1284//
f 1284// 1273// 1274//
f 1284// 1274// 1285//
f 1285// 1274// 1266//
f 1285// 1266// 1286//
f 1286// 1266// 1265//
f 1286// 1265// 1287//
f 1287// 1265// 1264//
f 1287// 1264// 1288//
f 1288// 1264// 1263//
f 1288// 1263// 1289//
f 1289// 1263// 1275//
f 1289// 1275// 1290//
f 1290// 1275// 1276//
f 1290// 1276// 1291//
f 1291// 1276// 1277//
f 1291// 1277// 1292//
f 1292// 1277// 1278//
f 1292// 1278// 1293//
f 1293// 1278// 1279//
f 1293// 1279// 1294//
f 1294// 1279// 1280//
f 1294// 1280// 1295//
f 1295// 1280// 1267//
f 1295// 1267// 1296//
f 1296// 1267// 1268//
f 1296// 1268// 1297//
f 1297// 1268// 1269//
f 1297// 1269// 1281//
f 1285// 1286// 1298//
f 1298// 1286// 1299//
f 1285// 1298// 1300//
f 1285// 1300// 1284//
f 1284// 1300// 1301//
f 1284// 1301// 1283//
f 1283// 1301// 1302//
f 1283// 1302// 1282//
f 1282// 1302// 1303//
f 1282// 1303// 1281//
f 1281// 1303// 1304//
f 1281// 1304// 1297//
f 1297// 1304// 1305//
f 1297// 1305// 1296//
f 1296// 1305// 1306//
f 1296// 1306// 1295//
f 1295// 1306// 1307//
f 1295// 1307// 1294//
f 1294// 1307// 1308//
f 1294// 1308// 1293//
f 1293// 1308// 1309//
f 1293// 1309// 1292//
f 1292// 1309// 1310//
f 1292// 1310// 1291//
f 1291// 1310// 1311//
f 1291// 1311// 1290//
f 1290// 1311// 1312//
f 1290// 1312// 1289//
f 1289// 1312// 1313//
f 1289// 1313// 1288//
f 1287// 1288// 1314//
f 1314// 1288// 1313//
f 1286// 1287// 1299//
f 1299// 1287// 1314//
f 1315// 1316// 14//
f 14// 1316// 6//
f 1316// 1317// 6//
f 6// 1317// 4//
f 1317// 1318// 4//
f 4// 1318// 11//
f 1318// 1319// 11//
f 11// 1319// 12//
f 1319// 1320// 12//
f 12// 1320// 13//
f 1320// 1321// 13//
f 13// 1321// 27//
f 1321// 1322// 27//
f 27// 1322// 26//
f 1322// 1323// 26//
f 26// 1323// 25//
f 1323// 1324// 25//
f 25// 1324// 24//
f 1324// 1325// 24//
f 24// 1325// 22//
f 1325// 1326// 22//
f 22// 1326// 23//
f 1326// 1315// 23//
f 23// 1315// 14//
f 1317// 1316// 1315//
f 1315// 1326// 1317//
f 1317// 1326// 1325//
f 1317// 1325// 1318//
f 1320// 1319// 1321//
f 1321// 1319// 1318//
f 1321// 1318// 1322//
f 1322// 1318// 1325//
f 1322// 1325// 1323//
f 1323// 1325// 1324//
f 1327// 1328// 16//
f 16// 1328// 62//
f 1329// 40// 64//
f 1329// 64// 1330//
f 1330// 64// 63//
f 1330// 63// 1331//
f 1331// 63// 62//
f 1331// 62// 1328//
f 1332// 68// 67//
f 1332// 67// 1333//
f 1333// 67// 56//
f 1333// 56// 1334//
f 1334// 56// 54//
f 1334// 54// 1335//
f 1335// 54// 53//
f 1335// 53// 1336//
f 1336// 53// 43//
f 1336// 43// 1337//
f 1337// 43// 42//
f 1337// 42// 1338//
f 1338// 42// 40//
f 1338// 40// 1329//
f 1339// 70// 1340//
f 1340// 70// 59//
f 59// 58// 1340//
f 1340// 58// 50//
f 1340// 50// 1341//
f 1341// 50// 49//
f 1341// 49// 1342//
f 1342// 49// 47//
f 1342// 47// 1343//
f 1343// 47// 46//
f 1343// 46// 1344//
f 1344// 46// 69//
f 1344// 69// 1345//
f 1345// 69// 68//
f 1345// 68// 1332//
f 70// 1339// 21//
f 21// 1339// 1346//
f 21// 1346// 9//
f 9// 1346// 1347//
f 9// 1347// 10//
f 1347// 1348// 10//
f 10// 1348// 17//
f 1349// 1// 15//
f 1349// 15// 1350//
f 1350// 15// 17//
f 1350// 17// 1348//
f 1351// 31// 45//
f 1351// 45// 1352//
f 1352// 45// 44//
f 1352// 44// 1353//
f 1353// 44// 30//
f 1353// 30// 1354//
f 1354// 30// 29//
f 1354// 29// 1355//
f 1355// 29// 28//
f 1355// 28// 1356//
f 1356// 28// 2//
f 1356// 2// 1357//
f 1357// 2// 1//
f 1357// 1// 1349//
f 1358// 35// 34//
f 1358// 34// 1359//
f 1359// 34// 36//
f 1359// 36// 1360//
f 1360// 36// 37//
f 1360// 37// 1361//
f 1361// 37// 38//
f 1361// 38// 1362//
f 1362// 38// 33//
f 1362// 33// 1363//
f 1363// 33// 32//
f 1363// 32// 1364//
f 1364// 32// 31//
f 1364// 31// 1351//
f 1327// 16// 3//
f 1327// 3// 1365//
f 1365// 3// 39//
f 1365// 39// 1366//
f 1366// 39// 35//
f 1366// 35// 1358//
f 1359// 1329// 1358//
f 1358// 1329// 1330//
f 1358// 1330// 1366//
f 1366// 1330// 1331//
f 1366// 1331// 1365//
f 1365// 1331// 1328//
f 1365// 1328// 1327//
f 1348// 1347// 1350//
f 1350// 1347// 1346//
f 1350// 1346// 1349//
f 1349// 1346// 1339//
f 1349// 1339// 1357//
f 1357// 1339// 1340//
f 1357// 1340// 1356//
f 1356// 1340// 1341//
f 1356// 1341// 1355//
f 1355// 1341// 1342//
f 1355// 1342// 1354//
f 1354// 1342// 1343//
f 1354// 1343// 1353//
f 1353// 1343// 1344//
f 1353// 1344// 1352//
f 1352// 1344// 1345//
f 1352// 1345// 1351//
f 1351// 1345// 1332//
f 1351// 1332// 1364//
f 1364// 1332// 1333//
f 1364// 1333// 1363//
f 1363// 1333// 1334//
f 1363// 1334// 1362//
f 1362// 1334// 1335//
f 1362// 1335// 1361//
f 1361// 1335// 1336//
f 1361// 1336// 1360//
f 1360// 1336// 1337//
f 1360// 1337// 1359//
f 1359// 1337// 1338//
f 1359// 1338// 1329//
f 1367// 1368// 55//
f 55// 1368// 41//
f 1368// 1369// 41//
f 41// 1369// 20//
f 1369// 1370// 20//
f 20// 1370// 60//
f 1370// 1371// 60//
f 60// 1371// 48//
f 1371// 1372// 48//
f 48// 1372// 57//
f 1372// 1367// 57//
f 57// 1367// 55//
f 1371// 1370// 1372//
f 1372// 1370// 1369//
f 1372// 1369// 1367//
f 1367// 1369// 1368//
usemtl 1
f 1255// 1256// 1257//
f 1257// 1256// 1262//
f 1257// 1262// 1258//
f 1258// 1262// 1261//
f 1258// 1261// 1259//
f 1259// 1261// 1260//
f 1299// 1314// 1298//
f 1298// 1314// 1313//
f 1298// 1313// 1312//
f 1306// 1305// 1298//
f 1298// 1305// 1304//
f 1298// 1304// 1300//
f 1312// 1311// 1298//
f 1298// 1311// 1310//
f 1298// 1310// 1309//
f 1309// 1308// 1298//
f 1298// 1308// 1307//
f 1298// 1307// 1306//
f 1303// 1302// 1304//
f 1304// 1302// 1301//
f 1304// 1301// 1300//
