%TF.GenerationSoftware,KiCad,Pcbnew,9.0.7*%
%TF.CreationDate,2026-02-16T05:03:22+01:00*%
%TF.ProjectId,5v rail smart enable,35762072-6169-46c2-9073-6d6172742065,rev?*%
%TF.SameCoordinates,Original*%
%TF.FileFunction,Profile,NP*%
%FSLAX46Y46*%
G04 Gerber Fmt 4.6, Leading zero omitted, Abs format (unit mm)*
G04 Created by KiCad (PCBNEW 9.0.7) date 2026-02-16 05:03:22*
%MOMM*%
%LPD*%
G01*
G04 APERTURE LIST*
%TA.AperFunction,Profile*%
%ADD10C,0.000000*%
%TD*%
G04 APERTURE END LIST*
D10*
%TA.AperFunction,Profile*%
%TO.C,USBC1*%
G36*
X122633506Y-115077045D02*
G01*
X122718286Y-115125992D01*
X122787508Y-115195214D01*
X122836455Y-115279994D01*
X122861792Y-115374553D01*
X122861792Y-115472447D01*
X122836455Y-115567006D01*
X122787508Y-115651786D01*
X122718286Y-115721008D01*
X122633506Y-115769955D01*
X122538947Y-115795292D01*
X122441053Y-115795292D01*
X122346494Y-115769955D01*
X122261714Y-115721008D01*
X122192492Y-115651786D01*
X122143545Y-115567006D01*
X122118208Y-115472447D01*
X122118208Y-115374553D01*
X122143545Y-115279994D01*
X122192492Y-115195214D01*
X122261714Y-115125992D01*
X122346494Y-115077045D01*
X122441053Y-115051708D01*
X122538947Y-115051708D01*
X122633506Y-115077045D01*
G37*
%TD.AperFunction*%
%TA.AperFunction,Profile*%
G36*
X116833506Y-115077045D02*
G01*
X116918286Y-115125992D01*
X116987508Y-115195214D01*
X117036455Y-115279994D01*
X117061792Y-115374553D01*
X117061792Y-115472447D01*
X117036455Y-115567006D01*
X116987508Y-115651786D01*
X116918286Y-115721008D01*
X116833506Y-115769955D01*
X116738947Y-115795292D01*
X116641053Y-115795292D01*
X116546494Y-115769955D01*
X116461714Y-115721008D01*
X116392492Y-115651786D01*
X116343545Y-115567006D01*
X116318208Y-115472447D01*
X116318208Y-115374553D01*
X116343545Y-115279994D01*
X116392492Y-115195214D01*
X116461714Y-115125992D01*
X116546494Y-115077045D01*
X116641053Y-115051708D01*
X116738947Y-115051708D01*
X116833506Y-115077045D01*
G37*
%TD.AperFunction*%
%TA.AperFunction,Profile*%
%TO.C,USB1*%
G36*
X88773939Y-99431642D02*
G01*
X88853067Y-99477326D01*
X88917674Y-99541933D01*
X88963358Y-99621061D01*
X88987006Y-99709316D01*
X88987006Y-99800684D01*
X88963358Y-99888939D01*
X88917674Y-99968067D01*
X88853067Y-100032674D01*
X88773939Y-100078358D01*
X88685684Y-100102006D01*
X88594316Y-100102006D01*
X88506061Y-100078358D01*
X88426933Y-100032674D01*
X88362326Y-99968067D01*
X88316642Y-99888939D01*
X88292994Y-99800684D01*
X88292994Y-99709316D01*
X88316642Y-99621061D01*
X88362326Y-99541933D01*
X88426933Y-99477326D01*
X88506061Y-99431642D01*
X88594316Y-99407994D01*
X88685684Y-99407994D01*
X88773939Y-99431642D01*
G37*
%TD.AperFunction*%
%TA.AperFunction,Profile*%
G36*
X82993939Y-99431642D02*
G01*
X83073067Y-99477326D01*
X83137674Y-99541933D01*
X83183358Y-99621061D01*
X83207006Y-99709316D01*
X83207006Y-99800684D01*
X83183358Y-99888939D01*
X83137674Y-99968067D01*
X83073067Y-100032674D01*
X82993939Y-100078358D01*
X82905684Y-100102006D01*
X82814316Y-100102006D01*
X82726061Y-100078358D01*
X82646933Y-100032674D01*
X82582326Y-99968067D01*
X82536642Y-99888939D01*
X82512994Y-99800684D01*
X82512994Y-99709316D01*
X82536642Y-99621061D01*
X82582326Y-99541933D01*
X82646933Y-99477326D01*
X82726061Y-99431642D01*
X82814316Y-99407994D01*
X82905684Y-99407994D01*
X82993939Y-99431642D01*
G37*
%TD.AperFunction*%
%TD*%
M02*
