M48
; DRILL file {KiCad 9.0.7} date 2026-02-16T05:03:22+0100
; FORMAT={-:-/ absolute / inch / decimal}
; #@! TF.CreationDate,2026-02-16T05:03:22+01:00
; #@! TF.GenerationSoftware,Kicad,Pcbnew,9.0.7
; #@! TF.FileFunction,Plated,1,2,PTH
FMAT,2
INCH
; #@! TA.AperFunction,Plated,PTH,ComponentDrill
T1C0.0236
; #@! TA.AperFunction,Plated,PTH,ComponentDrill
T2C0.0315
; #@! TA.AperFunction,Plated,PTH,ComponentDrill
T3C0.0354
; #@! TA.AperFunction,Plated,PTH,ComponentDrill
T4C0.0360
; #@! TA.AperFunction,Plated,PTH,ComponentDrill
T5C0.0394
; #@! TA.AperFunction,Plated,PTH,ComponentDrill
T6C0.0402
; #@! TA.AperFunction,Plated,PTH,ComponentDrill
T7C0.0433
; #@! TA.AperFunction,Plated,PTH,ComponentDrill
T8C0.0472
; #@! TA.AperFunction,Plated,PTH,ComponentDrill
T9C0.0591
; #@! TA.AperFunction,Plated,PTH,ComponentDrill
T10C0.0669
; #@! TA.AperFunction,Plated,PTH,ComponentDrill
T11C0.0709
; #@! TA.AperFunction,Plated,PTH,ComponentDrill
T12C0.1063
; #@! TA.AperFunction,Plated,PTH,ComponentDrill
T13C0.1142
%
G90
G05
T3
X1.3658Y-0.8888
X1.4642Y-0.8888
X1.5626Y-0.8888
X1.661Y-0.8888
T4
X0.0595Y-4.9223
X0.0595Y-5.0223
X0.0595Y-5.1223
X0.1595Y-4.9223
X0.1595Y-5.0223
X0.1595Y-5.1223
X0.2595Y-4.9223
X0.2595Y-5.0223
X0.2595Y-5.1223
X0.419Y-4.9223
X0.419Y-5.0223
X0.419Y-5.1223
X0.519Y-4.9223
X0.519Y-5.0223
X0.519Y-5.1223
X0.619Y-4.9223
X0.619Y-5.0223
X0.619Y-5.1223
T5
X1.0239Y-4.8802
X1.1027Y-4.8802
X1.1814Y-4.8802
X1.2601Y-4.8802
X2.6851Y-0.8405
X2.8229Y-0.8405
X3.1209Y-5.194
X3.2193Y-5.194
T6
X0.063Y-4.2183
X0.063Y-4.3183
X0.063Y-4.4183
X0.163Y-4.2183
X0.163Y-4.3183
X0.163Y-4.4183
X0.263Y-4.2183
X0.263Y-4.3183
X0.263Y-4.4183
X0.363Y-4.2183
X0.363Y-4.3183
X0.363Y-4.4183
X0.5272Y-4.2183
X0.5272Y-4.3183
X0.5272Y-4.4183
X0.6272Y-4.2183
X0.6272Y-4.3183
X0.6272Y-4.4183
X0.7272Y-4.2183
X0.7272Y-4.3183
X0.7272Y-4.4183
X0.8272Y-4.2183
X0.8272Y-4.3183
X0.8272Y-4.4183
T7
X0.063Y-3.9752
X0.063Y-4.0752
X0.163Y-3.9752
X0.163Y-4.0752
X0.263Y-3.9752
X0.263Y-4.0752
X0.363Y-3.9752
X0.363Y-4.0752
X0.463Y-3.9752
X0.463Y-4.0752
X0.563Y-3.9752
X0.563Y-4.0752
X0.663Y-3.9752
X0.663Y-4.0752
X0.763Y-3.9752
X0.763Y-4.0752
X0.863Y-3.9752
X0.863Y-4.0752
X0.963Y-3.9752
X0.963Y-4.0752
X1.063Y-3.9752
X1.063Y-4.0752
X1.0988Y-4.4437
X1.163Y-3.9752
X1.163Y-4.0752
X1.263Y-3.9752
X1.263Y-4.0752
X1.2957Y-4.4437
X3.1156Y-3.1604
X3.1156Y-3.7604
X3.2156Y-3.1604
X3.2156Y-3.2604
X3.2156Y-3.7604
X3.3156Y-3.1604
X3.3156Y-3.7604
X3.4156Y-3.1604
X3.4156Y-3.7604
X3.5156Y-3.1604
X3.5156Y-3.7604
X3.6156Y-3.1604
X3.6156Y-3.7604
X3.7156Y-3.1604
X3.7156Y-3.7604
X3.8156Y-3.1604
X3.8156Y-3.7604
X3.9156Y-3.1604
X3.9156Y-3.7604
X4.0156Y-3.1604
X4.0156Y-3.7604
X4.0563Y-0.1063
X4.0563Y-0.4028
X4.0563Y-0.6993
X4.1156Y-3.1604
X4.1156Y-3.2604
X4.1156Y-3.3604
X4.1156Y-3.4604
X4.1156Y-3.5604
X4.1156Y-3.6604
X4.1156Y-3.7604
X4.1547Y-0.1063
X4.1547Y-0.4028
X4.1547Y-0.6993
X4.2156Y-3.1604
X4.2156Y-3.2604
X4.2156Y-3.3604
X4.2156Y-3.4604
X4.2156Y-3.5604
X4.2156Y-3.6604
X4.2156Y-3.7604
X4.3156Y-3.1604
X4.3156Y-3.7604
X4.4156Y-3.1604
X4.4156Y-3.2604
X4.4156Y-3.3604
X4.4156Y-3.4604
X4.4156Y-3.5604
X4.4156Y-3.6604
X4.4156Y-3.7604
T8
X0.9914Y-5.3882
X0.9914Y-5.5508
X1.0914Y-5.3882
X1.0914Y-5.5508
X2.0697Y-0.3268
X2.0697Y-1.0209
X2.365Y-0.3268
X2.365Y-1.0209
X2.6792Y-4.2524
X2.7792Y-4.2524
X3.5307Y-0.7425
X3.5307Y-0.9052
X3.6307Y-0.7425
X3.6307Y-0.9052
X4.6331Y-2.041
X4.7331Y-2.041
T9
X0.113Y-2.1261
X0.113Y-2.4261
X0.313Y-2.1261
X0.313Y-2.4261
X0.513Y-2.1261
X0.513Y-2.4261
X0.713Y-2.1261
X0.713Y-2.4261
X0.913Y-2.1261
X0.913Y-2.4261
X1.113Y-2.1261
X1.113Y-2.4261
X1.313Y-2.1261
X1.313Y-2.4261
X1.513Y-2.1261
X1.513Y-2.4261
T10
X2.298Y-3.1695
X2.454Y-3.1695
X2.6099Y-3.1695
X2.7658Y-3.1695
T11
X0.0909Y-3.137
X0.2469Y-3.137
X0.4669Y-3.137
X0.6229Y-3.137
X0.843Y-3.137
X0.9989Y-3.137
X4.6775Y-3.5799
X4.8335Y-3.5799
X5.0536Y-3.5799
X5.2095Y-3.5799
X5.4296Y-3.5799
X5.5856Y-3.5799
T12
X0.8945Y-0.7075
X1.0914Y-0.7075
X1.2567Y-0.7075
X1.4536Y-0.7075
T13
X0.6483Y-0.7822
X0.6483Y-1.0656
X3.2317Y-0.1751
X3.2317Y-0.4586
T1
G00X0.3924Y-0.6582
M15
G01X0.4317Y-0.6582
M16
G05
G00X0.3924Y-1.1897
M15
G01X0.4317Y-1.1897
M16
G05
G00X2.9758Y-0.0511
M15
G01X3.0152Y-0.0511
M16
G05
G00X2.9758Y-0.5826
M15
G01X3.0152Y-0.5826
M16
G05
G00X3.2057Y-3.8892
M15
G01X3.2057Y-3.9246
M16
G05
G00X3.2057Y-4.0604
M15
G01X3.2057Y-4.0841
M16
G05
G00X3.5463Y-3.8892
M15
G01X3.5463Y-3.9246
M16
G05
G00X3.5463Y-4.0604
M15
G01X3.5463Y-4.0841
M16
G05
T2
G00X4.538Y-4.5088
M15
G01X4.538Y-4.5403
M16
G05
G00X4.538Y-4.6773
M15
G01X4.538Y-4.7009
M16
G05
G00X4.8785Y-4.5088
M15
G01X4.8785Y-4.5403
M16
G05
G00X4.8785Y-4.6773
M15
G01X4.8785Y-4.7009
M16
G05
T8
G00X2.9118Y-2.2193
M15
G01X2.9118Y-2.1209
M16
G05
G00X2.9886Y-2.3551
M15
G01X3.087Y-2.3551
M16
G05
G00X3.1559Y-2.1209
M15
G01X3.1559Y-2.2193
M16
G05
M30
