%TF.GenerationSoftware,KiCad,Pcbnew,9.0.7*%
%TF.CreationDate,2026-02-16T05:03:22+01:00*%
%TF.ProjectId,5v rail smart enable,35762072-6169-46c2-9073-6d6172742065,rev?*%
%TF.SameCoordinates,Original*%
%TF.FileFunction,Copper,L2,Bot*%
%TF.FilePolarity,Positive*%
%FSLAX46Y46*%
G04 Gerber Fmt 4.6, Leading zero omitted, Abs format (unit mm)*
G04 Created by KiCad (PCBNEW 9.0.7) date 2026-02-16 05:03:22*
%MOMM*%
%LPD*%
G01*
G04 APERTURE LIST*
%TA.AperFunction,ComponentPad*%
%ADD10C,2.300000*%
%TD*%
%TA.AperFunction,ComponentPad*%
%ADD11O,1.200000X1.800000*%
%TD*%
%TA.AperFunction,ComponentPad*%
%ADD12O,1.200000X2.000000*%
%TD*%
%TA.AperFunction,ComponentPad*%
%ADD13O,1.100000X2.000000*%
%TD*%
%TA.AperFunction,ComponentPad*%
%ADD14C,2.600000*%
%TD*%
%TA.AperFunction,ComponentPad*%
%ADD15R,2.600000X2.600000*%
%TD*%
%TA.AperFunction,ComponentPad*%
%ADD16C,1.600000*%
%TD*%
%TA.AperFunction,ComponentPad*%
%ADD17C,1.800000*%
%TD*%
%TA.AperFunction,ComponentPad*%
%ADD18R,1.800000X1.800000*%
%TD*%
%TA.AperFunction,ComponentPad*%
%ADD19C,1.524000*%
%TD*%
%TA.AperFunction,ComponentPad*%
%ADD20C,2.000000*%
%TD*%
%TA.AperFunction,ComponentPad*%
%ADD21R,2.000000X2.000000*%
%TD*%
%TA.AperFunction,ComponentPad*%
%ADD22R,1.600000X1.600000*%
%TD*%
%TA.AperFunction,ComponentPad*%
%ADD23C,3.500000*%
%TD*%
%TA.AperFunction,ComponentPad*%
%ADD24O,4.600000X2.000000*%
%TD*%
%TA.AperFunction,ComponentPad*%
%ADD25O,2.000000X4.600000*%
%TD*%
%TA.AperFunction,ComponentPad*%
%ADD26C,1.700000*%
%TD*%
%TA.AperFunction,ComponentPad*%
%ADD27C,2.200000*%
%TD*%
%TA.AperFunction,ComponentPad*%
%ADD28C,1.500000*%
%TD*%
%TA.AperFunction,ComponentPad*%
%ADD29R,1.524000X1.500000*%
%TD*%
%TA.AperFunction,ComponentPad*%
%ADD30O,2.200000X1.200000*%
%TD*%
%TA.AperFunction,ComponentPad*%
%ADD31C,3.800000*%
%TD*%
G04 APERTURE END LIST*
D10*
%TO.P,___-3V3+_______-5V0+_______-12V+_______-VCC+___1,8,8*%
%TO.N,GND*%
X38430433Y-61622500D03*
X38430433Y-54002500D03*
%TO.P,___-3V3+_______-5V0+_______-12V+_______-VCC+___1,7,7*%
%TO.N,+3V3*%
X33350433Y-61622500D03*
X33350433Y-54002500D03*
%TO.P,___-3V3+_______-5V0+_______-12V+_______-VCC+___1,6,6*%
%TO.N,GND*%
X28270433Y-61622500D03*
X28270433Y-54002500D03*
%TO.P,___-3V3+_______-5V0+_______-12V+_______-VCC+___1,5,5*%
%TO.N,+5V*%
X23190433Y-61622500D03*
X23190433Y-54002500D03*
%TO.P,___-3V3+_______-5V0+_______-12V+_______-VCC+___1,4,4*%
%TO.N,GND*%
X18110433Y-61622500D03*
X18110433Y-54002500D03*
%TO.P,___-3V3+_______-5V0+_______-12V+_______-VCC+___1,3,3*%
%TO.N,+12V*%
X13030433Y-61622500D03*
X13030433Y-54002500D03*
%TO.P,___-3V3+_______-5V0+_______-12V+_______-VCC+___1,2,2*%
%TO.N,GND*%
X7950433Y-61622500D03*
X7950433Y-54002500D03*
%TO.P,___-3V3+_______-5V0+_______-12V+_______-VCC+___1,1,1*%
%TO.N,VCC*%
X2870433Y-61622500D03*
X2870433Y-54002500D03*
%TD*%
D11*
%TO.P,USBC1,3,SH*%
%TO.N,unconnected-(USBC1-SH-Pad3)*%
X115265000Y-119103000D03*
%TO.P,USBC1,2,SH*%
%TO.N,unconnected-(USBC1-SH-Pad2)*%
X123915000Y-119103000D03*
D12*
%TO.P,USBC1,1,SH*%
%TO.N,unconnected-(USBC1-SH-Pad1)*%
X123915000Y-114923000D03*
%TO.P,USBC1,0,SH*%
%TO.N,unconnected-(USBC1-SH-Pad0)*%
X115265000Y-114923000D03*
%TD*%
D11*
%TO.P,USB1,14,SHELL*%
%TO.N,unconnected-(USB1-SHELL-Pad14)_1*%
X90075000Y-103435000D03*
D13*
%TO.N,unconnected-(USB1-SHELL-Pad14)*%
X90075000Y-99235000D03*
D11*
%TO.P,USB1,13,SHELL*%
%TO.N,unconnected-(USB1-SHELL-Pad13)_1*%
X81425000Y-103435000D03*
D13*
%TO.N,unconnected-(USB1-SHELL-Pad13)*%
X81425000Y-99235000D03*
%TD*%
D14*
%TO.P,U207,4,4*%
%TO.N,GND*%
X70250433Y-80505000D03*
%TO.P,U207,3,3*%
%TO.N,Net-(H5-Pad1)*%
X66290433Y-80505000D03*
%TO.P,U207,2,2*%
%TO.N,Net-(H5-Pad2)*%
X62330933Y-80505000D03*
D15*
%TO.P,U207,1,1*%
%TO.N,+12V*%
X58370433Y-80505000D03*
%TD*%
D16*
%TO.P,U183,44,33_MCLK2*%
%TO.N,unconnected-(U183-33_MCLK2-Pad44)*%
X104535000Y-92975000D03*
%TO.P,U183,43,32_OUT1B*%
%TO.N,unconnected-(U183-32_OUT1B-Pad43)*%
X107075000Y-92975000D03*
%TO.P,U183,42,31_CTX3*%
%TO.N,unconnected-(U183-31_CTX3-Pad42)*%
X104535000Y-90435000D03*
%TO.P,U183,41,30_CRX3*%
%TO.N,unconnected-(U183-30_CRX3-Pad41)*%
X107075000Y-90435000D03*
%TO.P,U183,40,29_TX7*%
%TO.N,unconnected-(U183-29_TX7-Pad40)*%
X104535000Y-87895000D03*
%TO.P,U183,39,28_RX7*%
%TO.N,unconnected-(U183-28_RX7-Pad39)*%
X107075000Y-87895000D03*
%TO.P,U183,38,27_A13_SCK1*%
%TO.N,unconnected-(U183-27_A13_SCK1-Pad38)*%
X104535000Y-85355000D03*
%TO.P,U183,37,26_A12_MOSI1*%
%TO.N,unconnected-(U183-26_A12_MOSI1-Pad37)*%
X107075000Y-85355000D03*
%TO.P,U183,36,25_A11_RX6_SDA2*%
%TO.N,SDA_FAST*%
X104535000Y-82815000D03*
%TO.P,U183,35,24_A10_TX6_SCL2*%
%TO.N,SCL_FAST*%
X107075000Y-82815000D03*
%TO.P,U183,34,VUSB*%
%TO.N,unconnected-(U183-VUSB-Pad34)*%
X81675000Y-82815000D03*
%TO.P,U183,33,VIN*%
%TO.N,Net-(D78-K)*%
X79135000Y-80275000D03*
%TO.P,U183,32,GND*%
%TO.N,GND*%
X81675000Y-80275000D03*
%TO.P,U183,31,3V3*%
%TO.N,unconnected-(U183-3V3-Pad31)*%
X84215000Y-80275000D03*
%TO.P,U183,30,23_A9_CRX1_MCLK1*%
%TO.N,unconnected-(U183-23_A9_CRX1_MCLK1-Pad30)*%
X86755000Y-80275000D03*
%TO.P,U183,29,22_A8_CTX1*%
%TO.N,unconnected-(U183-22_A8_CTX1-Pad29)*%
X89295000Y-80275000D03*
%TO.P,U183,28,21_A7_RX5_BCLK1*%
%TO.N,TEENSY_MICROROS_RX*%
X91835000Y-80275000D03*
%TO.P,U183,27,20_A6_TX5_LRCLK1*%
%TO.N,TEENSY_MICROROS_TX*%
X94375000Y-80275000D03*
%TO.P,U183,26,19_A5_SCL0*%
%TO.N,unconnected-(U183-19_A5_SCL0-Pad26)*%
X96915000Y-80275000D03*
%TO.P,U183,25,18_A4_SDA0*%
%TO.N,unconnected-(U183-18_A4_SDA0-Pad25)*%
X99455000Y-80275000D03*
%TO.P,U183,24,17_A3_TX4_SDA1*%
%TO.N,SDA_SLOW*%
X101995000Y-80275000D03*
%TO.P,U183,23,16_A2_RX4_SCL1*%
%TO.N,SCL_SLOW*%
X104535000Y-80275000D03*
%TO.P,U183,22,15_A1_RX3_SPDIF_IN*%
%TO.N,MCU-LED-INDICATOR-STRIP-ONBOARD*%
X107075000Y-80275000D03*
%TO.P,U183,21,14_A0_TX3_SPDIF_OUT*%
%TO.N,MCU-LED-INDICATOR-STRIP-PORT*%
X109615000Y-80275000D03*
%TO.P,U183,20,13_SCK_CRX1_LED*%
%TO.N,unconnected-(U183-13_SCK_CRX1_LED-Pad20)*%
X112155000Y-80275000D03*
%TO.P,U183,19,ON_OFF*%
%TO.N,unconnected-(U183-ON_OFF-Pad19)*%
X112155000Y-82815000D03*
%TO.P,U183,18,PROGRAM*%
%TO.N,unconnected-(U183-PROGRAM-Pad18)*%
X112155000Y-85355000D03*
%TO.P,U183,17,GND*%
%TO.N,GND*%
X112155000Y-87895000D03*
%TO.P,U183,16,3V3*%
%TO.N,unconnected-(U183-3V3-Pad16)*%
X112155000Y-90435000D03*
%TO.P,U183,15,VBAT*%
%TO.N,unconnected-(U183-VBAT-Pad15)*%
X112155000Y-92975000D03*
%TO.P,U183,14,12_MISO_MQSL*%
%TO.N,unconnected-(U183-12_MISO_MQSL-Pad14)*%
X112155000Y-95515000D03*
%TO.P,U183,13,11_MOSI_CTX1*%
%TO.N,unconnected-(U183-11_MOSI_CTX1-Pad13)*%
X109615000Y-95515000D03*
%TO.P,U183,12,10_CS_MQSR*%
%TO.N,unconnected-(U183-10_CS_MQSR-Pad12)*%
X107075000Y-95515000D03*
%TO.P,U183,11,9_OUT1C*%
%TO.N,unconnected-(U183-9_OUT1C-Pad11)*%
X104535000Y-95515000D03*
%TO.P,U183,10,8_TX2_IN1*%
%TO.N,unconnected-(U183-8_TX2_IN1-Pad10)*%
X101995000Y-95515000D03*
%TO.P,U183,9,7_RX2_OUT1A*%
%TO.N,SBUS_RECEIVER*%
X99455000Y-95515000D03*
%TO.P,U183,8,6_OUT1D*%
%TO.N,unconnected-(U183-6_OUT1D-Pad8)*%
X96915000Y-95515000D03*
%TO.P,U183,7,5_IN2*%
%TO.N,unconnected-(U183-5_IN2-Pad7)*%
X94375000Y-95515000D03*
%TO.P,U183,6,4_BCLK2*%
%TO.N,MCU-PIN-IC-INT*%
X91835000Y-95515000D03*
%TO.P,U183,5,3_LRCLK2*%
%TO.N,unconnected-(U183-3_LRCLK2-Pad5)*%
X89295000Y-95515000D03*
%TO.P,U183,4,2_OUT2*%
%TO.N,unconnected-(U183-2_OUT2-Pad4)*%
X86755000Y-95515000D03*
%TO.P,U183,3,1_TX1_CTX2_MISO1*%
%TO.N,unconnected-(U183-1_TX1_CTX2_MISO1-Pad3)*%
X84215000Y-95515000D03*
%TO.P,U183,2,0_RX1_CRX2_CS1*%
%TO.N,unconnected-(U183-0_RX1_CRX2_CS1-Pad2)*%
X81675000Y-95515000D03*
%TO.P,U183,1,GND*%
%TO.N,GND*%
X79135000Y-95515000D03*
%TD*%
D17*
%TO.P,U81,26,26*%
%TO.N,unconnected-(U81-Pad26)*%
X32080433Y-100970500D03*
%TO.P,U81,25,25*%
%TO.N,MCU_PRECHARGE_EN*%
X32080433Y-103510500D03*
%TO.P,U81,24,24*%
%TO.N,GND*%
X29540433Y-100970500D03*
%TO.P,U81,23,23*%
%TO.N,MCU_CHARGEPUMP_EN*%
X29540433Y-103510500D03*
%TO.P,U81,22,22*%
%TO.N,MCU_5V_IN_EXT*%
X27000433Y-100970500D03*
%TO.P,U81,21,21*%
%TO.N,MCU_PMON_EN*%
X27000433Y-103510500D03*
%TO.P,U81,20,20*%
%TO.N,CHG_DONE*%
X24460433Y-100970500D03*
%TO.P,U81,19,19*%
%TO.N,MCU_EN_5V0*%
X24460433Y-103510500D03*
%TO.P,U81,18,18*%
%TO.N,CHG_ACTIVE*%
X21920433Y-100970500D03*
%TO.P,U81,17,17*%
%TO.N,MCU_EN_ESC*%
X21920433Y-103510500D03*
%TO.P,U81,16,16*%
%TO.N,SCL_SLOW*%
X19380433Y-100970500D03*
%TO.P,U81,15,15*%
%TO.N,MCU_EN_12V*%
X19380433Y-103510500D03*
%TO.P,U81,14,14*%
%TO.N,SDA_SLOW*%
X16840433Y-100970500D03*
%TO.P,U81,13,13*%
%TO.N,MCU_EN_3V3*%
X16840433Y-103510500D03*
%TO.P,U81,12,12*%
%TO.N,SDA_FAST*%
X14300433Y-100970500D03*
%TO.P,U81,11,11*%
%TO.N,DIFF_REAR_PWM*%
X14300433Y-103510500D03*
%TO.P,U81,10,10*%
%TO.N,SCL_FAST*%
X11760433Y-100970500D03*
%TO.P,U81,9,9*%
%TO.N,DIFF_FRONT_PWM*%
X11760433Y-103510500D03*
%TO.P,U81,8,8*%
%TO.N,BTN_PWR*%
X9220433Y-100970500D03*
%TO.P,U81,7,7*%
%TO.N,SPEED_PWM*%
X9220433Y-103510500D03*
%TO.P,U81,6,6*%
%TO.N,TS1*%
X6680433Y-100970500D03*
%TO.P,U81,5,5*%
%TO.N,STEER_PWM*%
X6680433Y-103510500D03*
%TO.P,U81,4,4*%
%TO.N,BQ-ALERT*%
X4140433Y-100970500D03*
%TO.P,U81,3,3*%
%TO.N,THROTTLE_PWM*%
X4140433Y-103510500D03*
%TO.P,U81,2,2*%
%TO.N,MCU_ADC_PACKDIV*%
X1600433Y-100970500D03*
D18*
%TO.P,U81,1,1*%
%TO.N,SBUS_RECEIVER*%
X1600433Y-103510500D03*
%TD*%
D19*
%TO.P,THR_STR_SPD1,9,9*%
%TO.N,GND*%
X10641433Y-130107000D03*
%TO.P,THR_STR_SPD1,8,8*%
X13181433Y-130107000D03*
%TO.P,THR_STR_SPD1,7,7*%
X15721433Y-130107000D03*
%TO.P,THR_STR_SPD1,6,6*%
%TO.N,Net-(DIFF_DIFR_SBUS1-Pad4)*%
X10641433Y-127567000D03*
%TO.P,THR_STR_SPD1,5,5*%
X13181433Y-127567000D03*
%TO.P,THR_STR_SPD1,4,4*%
%TO.N,Net-(ESC-6V2-Pad2)*%
X15721433Y-127567000D03*
%TO.P,THR_STR_SPD1,3,3*%
%TO.N,SPEED_PWM*%
X10641433Y-125027000D03*
%TO.P,THR_STR_SPD1,2,2*%
%TO.N,STEER_PWM*%
X13181433Y-125027000D03*
%TO.P,THR_STR_SPD1,1,1*%
%TO.N,THROTTLE_PWM*%
X15721433Y-125027000D03*
%TD*%
D20*
%TO.P,H6,2,2*%
%TO.N,GND*%
X92220433Y-22991433D03*
D21*
%TO.P,H6,1,1*%
%TO.N,Net-(Q63-S)*%
X89680433Y-22991433D03*
%TD*%
D20*
%TO.P,H5,2,2*%
%TO.N,Net-(H5-Pad2)*%
X70590433Y-108010500D03*
D21*
%TO.P,H5,1,1*%
%TO.N,Net-(H5-Pad1)*%
X68050433Y-108010500D03*
%TD*%
D16*
%TO.P,H4,12,12*%
%TO.N,EXTRA_SERVO3_PWM*%
X21011366Y-107145000D03*
%TO.P,H4,11,11*%
%TO.N,SERVO-VCC-DIODED*%
X21011366Y-109685000D03*
%TO.P,H4,10,10*%
%TO.N,GND*%
X21011366Y-112225000D03*
%TO.P,H4,9,9*%
%TO.N,EXTRA_SERVO2_PWM*%
X18471366Y-107145000D03*
%TO.P,H4,8,8*%
%TO.N,SERVO-VCC-DIODED*%
X18471366Y-109685000D03*
%TO.P,H4,7,7*%
%TO.N,GND*%
X18471366Y-112225000D03*
%TO.P,H4,6,6*%
%TO.N,EXTRA_SERVO1_PWM*%
X15931366Y-107145000D03*
%TO.P,H4,5,5*%
%TO.N,SERVO-VCC-DIODED*%
X15931366Y-109685000D03*
%TO.P,H4,4,4*%
%TO.N,GND*%
X15931366Y-112225000D03*
%TO.P,H4,3,3*%
%TO.N,SBUS_RECEIVER*%
X13391366Y-107145000D03*
%TO.P,H4,2,2*%
%TO.N,3V3_RECEIVER*%
X13391366Y-109685000D03*
D22*
%TO.P,H4,1,1*%
%TO.N,GND*%
X13391366Y-112225000D03*
%TD*%
D16*
%TO.P,H3,12,12*%
%TO.N,SPEED_PWM*%
X9220433Y-107145000D03*
%TO.P,H3,11,11*%
%TO.N,SERVO-VCC-DIODED*%
X9220433Y-109685000D03*
%TO.P,H3,10,10*%
%TO.N,GND*%
X9220433Y-112225000D03*
%TO.P,H3,9,9*%
%TO.N,DIFF_FRONT_PWM*%
X6680433Y-107145000D03*
%TO.P,H3,8,8*%
%TO.N,SERVO-VCC-DIODED*%
X6680433Y-109685000D03*
%TO.P,H3,7,7*%
%TO.N,GND*%
X6680433Y-112225000D03*
%TO.P,H3,6,6*%
%TO.N,STEER_PWM*%
X4140433Y-107145000D03*
%TO.P,H3,5,5*%
%TO.N,SERVO-VCC-DIODED*%
X4140433Y-109685000D03*
%TO.P,H3,4,4*%
%TO.N,GND*%
X4140433Y-112225000D03*
%TO.P,H3,3,3*%
%TO.N,THROTTLE_PWM*%
X1600433Y-107145000D03*
%TO.P,H3,2,2*%
%TO.N,Net-(ESC-6V1-Pad1)*%
X1600433Y-109685000D03*
D22*
%TO.P,H3,1,1*%
%TO.N,GND*%
X1600433Y-112225000D03*
%TD*%
D20*
%TO.P,H2,2,2*%
%TO.N,Net-(U115-CTL)*%
X120220433Y-51840500D03*
D21*
%TO.P,H2,1,1*%
%TO.N,Net-(U168-VOUT)*%
X117680433Y-51840500D03*
%TD*%
D20*
%TO.P,H1,2,2*%
%TO.N,GND*%
X92220433Y-18860500D03*
D21*
%TO.P,H1,1,1*%
%TO.N,Net-(U147-VOUT)*%
X89680433Y-18860500D03*
%TD*%
D23*
%TO.P,F1,4,4*%
%TO.N,BAT+*%
X36920433Y-17970500D03*
%TO.P,F1,3,3*%
X31920433Y-17970500D03*
%TO.P,F1,2,2*%
%TO.N,Net-(-BatMains+1-+)*%
X27720433Y-17970500D03*
%TO.P,F1,1,1*%
X22720433Y-17970500D03*
%TD*%
D20*
%TO.P,ESC-6V2,2,2*%
%TO.N,Net-(ESC-6V2-Pad2)*%
X27720433Y-140991433D03*
D21*
%TO.P,ESC-6V2,1,1*%
%TO.N,Net-(DIFF_DIFR_SBUS1-Pad4)*%
X25180433Y-140991433D03*
%TD*%
D20*
%TO.P,ESC-6V1,2,2*%
%TO.N,SERVO-VCC-DIODED*%
X27720433Y-136860500D03*
D21*
%TO.P,ESC-6V1,1,1*%
%TO.N,Net-(ESC-6V1-Pad1)*%
X25180433Y-136860500D03*
%TD*%
D19*
%TO.P,DIFF_DIFR_SBUS1,9,9*%
%TO.N,GND*%
X1510500Y-130107000D03*
%TO.P,DIFF_DIFR_SBUS1,8,8*%
X4050500Y-130107000D03*
%TO.P,DIFF_DIFR_SBUS1,7,7*%
X6590500Y-130107000D03*
%TO.P,DIFF_DIFR_SBUS1,6,6*%
%TO.N,unconnected-(DIFF_DIFR_SBUS1-Pad6)*%
X1510500Y-127567000D03*
%TO.P,DIFF_DIFR_SBUS1,5,5*%
%TO.N,Net-(DIFF_DIFR_SBUS1-Pad4)*%
X4050500Y-127567000D03*
%TO.P,DIFF_DIFR_SBUS1,4,4*%
X6590500Y-127567000D03*
%TO.P,DIFF_DIFR_SBUS1,3,3*%
%TO.N,SBUS_RECEIVER*%
X1510500Y-125027000D03*
%TO.P,DIFF_DIFR_SBUS1,2,2*%
%TO.N,DIFF_REAR_PWM*%
X4050500Y-125027000D03*
%TO.P,DIFF_DIFR_SBUS1,1,1*%
%TO.N,DIFF_FRONT_PWM*%
X6590500Y-125027000D03*
%TD*%
D24*
%TO.P,DC1,3,3*%
%TO.N,GND*%
X77160500Y-59820433D03*
D25*
%TO.P,DC1,2,2*%
X73960500Y-55120433D03*
%TO.P,DC1,1,1*%
%TO.N,Net-(D67-K)*%
X80160500Y-55120433D03*
%TD*%
D16*
%TO.P,CN13,4,4*%
%TO.N,unconnected-(CN13-Pad4)*%
X26007500Y-123957433D03*
%TO.P,CN13,3,3*%
%TO.N,unconnected-(CN13-Pad3)*%
X28007500Y-123957433D03*
%TO.P,CN13,2,2*%
%TO.N,unconnected-(CN13-Pad2)*%
X30007500Y-123957433D03*
%TO.P,CN13,1,1*%
%TO.N,unconnected-(CN13-Pad1)*%
X32007500Y-123957433D03*
%TD*%
D17*
%TO.P,CN6,2,2*%
%TO.N,SCL_FAST*%
X105530433Y-17762366D03*
D18*
%TO.P,CN6,1,1*%
%TO.N,SDA_FAST*%
X103030433Y-17762366D03*
%TD*%
D17*
%TO.P,CN5,2,2*%
%TO.N,SDA_SLOW*%
X105530433Y-10231433D03*
D18*
%TO.P,CN5,1,1*%
%TO.N,SCL_SLOW*%
X103030433Y-10231433D03*
%TD*%
D17*
%TO.P,CN4,2,2*%
%TO.N,GND*%
X105530433Y-2700500D03*
D18*
%TO.P,CN4,1,1*%
%TO.N,Net-(U147-VOUT)*%
X103030433Y-2700500D03*
%TD*%
D26*
%TO.P,CN1,2,2*%
%TO.N,BTN_LOW*%
X79270500Y-131927433D03*
%TO.P,CN1,1,1*%
%TO.N,BTN_HIGH*%
X81770500Y-131927433D03*
%TD*%
D27*
%TO.P,C277,2,2*%
%TO.N,GND*%
X60070433Y-25931433D03*
%TO.P,C277,1,1*%
%TO.N,PACK+*%
X52570433Y-25931433D03*
%TD*%
%TO.P,C276,2,2*%
%TO.N,GND*%
X60070433Y-8300500D03*
%TO.P,C276,1,1*%
%TO.N,PACK+*%
X52570433Y-8300500D03*
%TD*%
D17*
%TO.P,C267,2,2*%
%TO.N,GND*%
X32910433Y-112870500D03*
%TO.P,C267,1,1*%
%TO.N,+SERVO_VCC*%
X27910433Y-112870500D03*
%TD*%
D16*
%TO.P,C178,2,2*%
%TO.N,GND*%
X71701933Y-21349000D03*
%TO.P,C178,1,1*%
%TO.N,PACK+*%
X68201933Y-21349000D03*
%TD*%
D28*
%TO.P,BatBalConn1,4,4*%
%TO.N,Net-(BatBalConn1-Pad4)*%
X42190433Y-22575000D03*
%TO.P,BatBalConn1,3,3*%
%TO.N,Net-(BatBalConn1-Pad3)*%
X39690433Y-22575000D03*
%TO.P,BatBalConn1,2,2*%
%TO.N,Net-(BatBalConn1-Pad2)*%
X37190433Y-22575000D03*
D29*
%TO.P,BatBalConn1,1,1*%
%TO.N,Net-(BatBalConn1-Pad1)*%
X34690433Y-22575000D03*
%TD*%
D30*
%TO.P,-BatMains+1,4,4*%
%TO.N,unconnected-(-BatMains+1-Pad4)*%
X10466000Y-30217500D03*
%TO.P,-BatMains+1,3,3*%
%TO.N,unconnected-(-BatMains+1-Pad3)*%
X10466000Y-16717500D03*
D31*
%TO.P,-BatMains+1,2,+*%
%TO.N,Net-(-BatMains+1-+)*%
X16466000Y-19867500D03*
%TO.P,-BatMains+1,1,-*%
%TO.N,BAT-*%
X16466000Y-27067500D03*
%TD*%
D14*
%TO.P,-12V+_6,2,2*%
%TO.N,Net-(D84-K)*%
X25373299Y-79680500D03*
%TO.P,-12V+_6,1,1*%
%TO.N,GND*%
X21411299Y-79680500D03*
%TD*%
%TO.P,-12V+_5,2,2*%
%TO.N,Net-(D86-K)*%
X15822366Y-79680500D03*
%TO.P,-12V+_5,1,1*%
%TO.N,GND*%
X11860366Y-79680500D03*
%TD*%
%TO.P,-12V+_4,2,2*%
%TO.N,Net-(D85-K)*%
X6271433Y-79680500D03*
%TO.P,-12V+_4,1,1*%
%TO.N,GND*%
X2309433Y-79680500D03*
%TD*%
%TO.P,-12V+_3,2,2*%
%TO.N,Net-(D18-K)*%
X141873299Y-90930500D03*
%TO.P,-12V+_3,1,1*%
%TO.N,GND*%
X137911299Y-90930500D03*
%TD*%
%TO.P,-12V+_2,2,2*%
%TO.N,Net-(D17-K)*%
X132322366Y-90930500D03*
%TO.P,-12V+_2,1,1*%
%TO.N,GND*%
X128360366Y-90930500D03*
%TD*%
%TO.P,-12V+_1,2,2*%
%TO.N,Net-(D16-K)*%
X122771433Y-90930500D03*
%TO.P,-12V+_1,1,1*%
%TO.N,GND*%
X118809433Y-90930500D03*
%TD*%
D30*
%TO.P,+ESC-CONNECTOR-1,4,4*%
%TO.N,unconnected-(+ESC-CONNECTOR-1-Pad4)*%
X76086000Y-14797500D03*
%TO.P,+ESC-CONNECTOR-1,3,3*%
%TO.N,unconnected-(+ESC-CONNECTOR-1-Pad3)*%
X76086000Y-1297500D03*
D31*
%TO.P,+ESC-CONNECTOR-1,2,+*%
%TO.N,/Connectors-ESC/VCC_ESC*%
X82086000Y-4447500D03*
%TO.P,+ESC-CONNECTOR-1,1,-*%
%TO.N,GND*%
X82086000Y-11647500D03*
%TD*%
M02*
