%TF.GenerationSoftware,KiCad,Pcbnew,9.0.7*%
%TF.CreationDate,2026-03-05T20:13:39+01:00*%
%TF.ProjectId,svea_powerboard_rev3,73766561-5f70-46f7-9765-72626f617264,rev?*%
%TF.SameCoordinates,Original*%
%TF.FileFunction,Soldermask,Top*%
%TF.FilePolarity,Negative*%
%FSLAX46Y46*%
G04 Gerber Fmt 4.6, Leading zero omitted, Abs format (unit mm)*
G04 Created by KiCad (PCBNEW 9.0.7) date 2026-03-05 20:13:39*
%MOMM*%
%LPD*%
G01*
G04 APERTURE LIST*
G04 Aperture macros list*
%AMRoundRect*
0 Rectangle with rounded corners*
0 $1 Rounding radius*
0 $2 $3 $4 $5 $6 $7 $8 $9 X,Y pos of 4 corners*
0 Add a 4 corners polygon primitive as box body*
4,1,4,$2,$3,$4,$5,$6,$7,$8,$9,$2,$3,0*
0 Add four circle primitives for the rounded corners*
1,1,$1+$1,$2,$3*
1,1,$1+$1,$4,$5*
1,1,$1+$1,$6,$7*
1,1,$1+$1,$8,$9*
0 Add four rect primitives between the rounded corners*
20,1,$1+$1,$2,$3,$4,$5,0*
20,1,$1+$1,$4,$5,$6,$7,0*
20,1,$1+$1,$6,$7,$8,$9,0*
20,1,$1+$1,$8,$9,$2,$3,0*%
%AMHorizOval*
0 Thick line with rounded ends*
0 $1 width*
0 $2 $3 position (X,Y) of the first rounded end (center of the circle)*
0 $4 $5 position (X,Y) of the second rounded end (center of the circle)*
0 Add line between two ends*
20,1,$1,$2,$3,$4,$5,0*
0 Add two circle primitives to create the rounded ends*
1,1,$1,$2,$3*
1,1,$1,$4,$5*%
%AMFreePoly0*
4,1,17,2.675000,1.605000,1.875000,1.605000,1.875000,0.935000,2.675000,0.935000,2.675000,0.335000,1.875000,0.335000,1.875000,-0.335000,2.675000,-0.335000,2.675000,-0.935000,1.875000,-0.935000,1.875000,-1.605000,2.675000,-1.605000,2.675000,-2.205000,-1.875000,-2.205000,-1.875000,2.205000,2.675000,2.205000,2.675000,1.605000,2.675000,1.605000,$1*%
%AMFreePoly1*
4,1,30,0.400000,-4.000000,-0.400000,-4.000000,-2.400000,-4.000000,-2.400000,-3.200000,-0.400000,-3.200000,-0.400000,-2.800000,-2.400000,-2.800000,-2.400000,-2.000000,-0.400000,-2.000000,-0.400000,-1.600000,-2.400000,-1.600000,-2.400000,-0.800000,-0.400000,-0.800000,-0.400000,-0.400000,-2.400000,-0.400000,-2.400000,0.400000,-0.400000,0.400000,-0.400000,0.800000,-2.400000,0.800000,-2.400000,1.600000,
-0.400000,1.600000,-0.400000,2.000000,-2.400000,2.000000,-2.400000,2.800000,-0.400000,2.800000,-0.400000,3.200000,-2.400000,3.200000,-2.400000,4.000000,0.400000,4.000000,0.400000,-4.000000,0.400000,-4.000000,$1*%
%AMFreePoly2*
4,1,13,2.850000,-5.050000,1.450000,-5.050000,1.450000,-4.350000,-1.450000,-4.350000,-1.450000,-4.850000,-5.150000,-4.850000,-5.150000,4.850000,-1.450000,4.850000,-1.450000,4.350000,1.450000,4.350000,1.450000,5.050000,2.850000,5.050000,2.850000,-5.050000,2.850000,-5.050000,$1*%
%AMFreePoly3*
4,1,6,1.000000,0.000000,0.500000,-0.750000,-0.500000,-0.750000,-0.500000,0.750000,0.500000,0.750000,1.000000,0.000000,1.000000,0.000000,$1*%
%AMFreePoly4*
4,1,6,0.500000,-0.750000,-0.650000,-0.750000,-0.150000,0.000000,-0.650000,0.750000,0.500000,0.750000,0.500000,-0.750000,0.500000,-0.750000,$1*%
G04 Aperture macros list end*
%ADD10O,3.800000X3.800000*%
%ADD11O,2.200000X1.200000*%
%ADD12O,1.200000X2.200000*%
%ADD13R,0.580010X0.250013*%
%ADD14R,0.300000X0.629997*%
%ADD15RoundRect,0.200000X-0.275000X0.200000X-0.275000X-0.200000X0.275000X-0.200000X0.275000X0.200000X0*%
%ADD16RoundRect,0.225000X0.250000X-0.225000X0.250000X0.225000X-0.250000X0.225000X-0.250000X-0.225000X0*%
%ADD17R,1.000000X1.000000*%
%ADD18O,1.000000X1.000000*%
%ADD19RoundRect,0.140000X-0.170000X0.140000X-0.170000X-0.140000X0.170000X-0.140000X0.170000X0.140000X0*%
%ADD20O,4.600000X2.000000*%
%ADD21O,2.000000X4.600000*%
%ADD22R,0.700000X0.400000*%
%ADD23RoundRect,0.135000X-0.185000X0.135000X-0.185000X-0.135000X0.185000X-0.135000X0.185000X0.135000X0*%
%ADD24RoundRect,0.225000X-0.250000X0.225000X-0.250000X-0.225000X0.250000X-0.225000X0.250000X0.225000X0*%
%ADD25RoundRect,0.135000X0.135000X0.185000X-0.135000X0.185000X-0.135000X-0.185000X0.135000X-0.185000X0*%
%ADD26R,0.800000X0.300000*%
%ADD27O,2.300000X2.300000*%
%ADD28RoundRect,0.250000X0.650000X-0.325000X0.650000X0.325000X-0.650000X0.325000X-0.650000X-0.325000X0*%
%ADD29RoundRect,0.140000X0.170000X-0.140000X0.170000X0.140000X-0.170000X0.140000X-0.170000X-0.140000X0*%
%ADD30RoundRect,0.225000X-0.225000X-0.250000X0.225000X-0.250000X0.225000X0.250000X-0.225000X0.250000X0*%
%ADD31RoundRect,0.140000X-0.140000X-0.170000X0.140000X-0.170000X0.140000X0.170000X-0.140000X0.170000X0*%
%ADD32RoundRect,0.100000X-0.637500X-0.100000X0.637500X-0.100000X0.637500X0.100000X-0.637500X0.100000X0*%
%ADD33RoundRect,0.150000X0.150000X-0.587500X0.150000X0.587500X-0.150000X0.587500X-0.150000X-0.587500X0*%
%ADD34RoundRect,0.225000X0.225000X0.250000X-0.225000X0.250000X-0.225000X-0.250000X0.225000X-0.250000X0*%
%ADD35O,1.000000X1.700000*%
%ADD36R,0.700000X1.200000*%
%ADD37R,0.800000X1.200000*%
%ADD38FreePoly0,0.000000*%
%ADD39RoundRect,0.125000X-0.300000X-0.125000X0.300000X-0.125000X0.300000X0.125000X-0.300000X0.125000X0*%
%ADD40R,1.200000X1.400000*%
%ADD41O,0.650013X0.650013*%
%ADD42O,0.900000X2.400000*%
%ADD43O,0.900000X1.700000*%
%ADD44RoundRect,0.218750X0.218750X0.256250X-0.218750X0.256250X-0.218750X-0.256250X0.218750X-0.256250X0*%
%ADD45O,1.700000X0.700000*%
%ADD46R,1.150013X0.950013*%
%ADD47RoundRect,0.250000X-0.250000X-0.475000X0.250000X-0.475000X0.250000X0.475000X-0.250000X0.475000X0*%
%ADD48RoundRect,0.135000X-0.135000X-0.185000X0.135000X-0.185000X0.135000X0.185000X-0.135000X0.185000X0*%
%ADD49R,1.600000X1.600000*%
%ADD50O,1.600000X1.600000*%
%ADD51RoundRect,0.155000X-0.212500X-0.155000X0.212500X-0.155000X0.212500X0.155000X-0.212500X0.155000X0*%
%ADD52RoundRect,0.200000X0.275000X-0.200000X0.275000X0.200000X-0.275000X0.200000X-0.275000X-0.200000X0*%
%ADD53R,1.635001X2.700000*%
%ADD54RoundRect,0.250000X0.475000X-0.250000X0.475000X0.250000X-0.475000X0.250000X-0.475000X-0.250000X0*%
%ADD55R,2.700000X1.635001*%
%ADD56R,1.500000X1.000000*%
%ADD57FreePoly0,180.000000*%
%ADD58RoundRect,0.125000X0.300000X0.125000X-0.300000X0.125000X-0.300000X-0.125000X0.300000X-0.125000X0*%
%ADD59RoundRect,0.200000X0.200000X0.275000X-0.200000X0.275000X-0.200000X-0.275000X0.200000X-0.275000X0*%
%ADD60R,0.420000X1.300000*%
%ADD61R,0.300000X1.300000*%
%ADD62R,2.100000X1.600000*%
%ADD63R,0.950000X0.300000*%
%ADD64R,1.700000X0.330000*%
%ADD65RoundRect,0.250000X-1.000000X-0.650000X1.000000X-0.650000X1.000000X0.650000X-1.000000X0.650000X0*%
%ADD66RoundRect,0.250000X0.325000X1.100000X-0.325000X1.100000X-0.325000X-1.100000X0.325000X-1.100000X0*%
%ADD67RoundRect,0.218750X-0.218750X-0.256250X0.218750X-0.256250X0.218750X0.256250X-0.218750X0.256250X0*%
%ADD68RoundRect,0.087500X0.087500X-0.425000X0.087500X0.425000X-0.087500X0.425000X-0.087500X-0.425000X0*%
%ADD69RoundRect,0.087500X0.425000X-0.087500X0.425000X0.087500X-0.425000X0.087500X-0.425000X-0.087500X0*%
%ADD70R,2.100000X2.100000*%
%ADD71RoundRect,0.250000X-0.375000X-0.625000X0.375000X-0.625000X0.375000X0.625000X-0.375000X0.625000X0*%
%ADD72RoundRect,0.140000X0.140000X0.170000X-0.140000X0.170000X-0.140000X-0.170000X0.140000X-0.170000X0*%
%ADD73R,1.700000X1.700000*%
%ADD74C,1.700000*%
%ADD75RoundRect,0.250000X0.625000X-0.375000X0.625000X0.375000X-0.625000X0.375000X-0.625000X-0.375000X0*%
%ADD76O,2.600000X2.600000*%
%ADD77RoundRect,0.250000X-0.650000X0.325000X-0.650000X-0.325000X0.650000X-0.325000X0.650000X0.325000X0*%
%ADD78RoundRect,0.250000X1.000000X0.900000X-1.000000X0.900000X-1.000000X-0.900000X1.000000X-0.900000X0*%
%ADD79RoundRect,0.250000X-0.362500X-1.425000X0.362500X-1.425000X0.362500X1.425000X-0.362500X1.425000X0*%
%ADD80C,0.844000*%
%ADD81R,2.800000X0.800000*%
%ADD82FreePoly1,180.000000*%
%ADD83FreePoly2,180.000000*%
%ADD84RoundRect,0.250000X-0.325000X-1.100000X0.325000X-1.100000X0.325000X1.100000X-0.325000X1.100000X0*%
%ADD85RoundRect,0.250000X0.325000X0.650000X-0.325000X0.650000X-0.325000X-0.650000X0.325000X-0.650000X0*%
%ADD86RoundRect,0.150000X-0.587500X-0.150000X0.587500X-0.150000X0.587500X0.150000X-0.587500X0.150000X0*%
%ADD87C,1.600000*%
%ADD88C,3.500000*%
%ADD89RoundRect,0.135000X0.185000X-0.135000X0.185000X0.135000X-0.185000X0.135000X-0.185000X-0.135000X0*%
%ADD90R,0.500000X0.800000*%
%ADD91R,0.400000X0.800000*%
%ADD92R,1.400000X1.400000*%
%ADD93R,4.900000X3.400000*%
%ADD94R,1.650013X4.500000*%
%ADD95RoundRect,0.200000X-0.200000X-0.275000X0.200000X-0.275000X0.200000X0.275000X-0.200000X0.275000X0*%
%ADD96O,1.100000X2.500000*%
%ADD97RoundRect,0.225000X0.225000X0.375000X-0.225000X0.375000X-0.225000X-0.375000X0.225000X-0.375000X0*%
%ADD98RoundRect,0.225000X0.375000X-0.225000X0.375000X0.225000X-0.375000X0.225000X-0.375000X-0.225000X0*%
%ADD99FreePoly3,0.000000*%
%ADD100FreePoly4,0.000000*%
%ADD101RoundRect,0.250000X1.000000X0.650000X-1.000000X0.650000X-1.000000X-0.650000X1.000000X-0.650000X0*%
%ADD102RoundRect,0.150000X0.512500X0.150000X-0.512500X0.150000X-0.512500X-0.150000X0.512500X-0.150000X0*%
%ADD103RoundRect,0.250000X-0.945000X0.785000X-0.945000X-0.785000X0.945000X-0.785000X0.945000X0.785000X0*%
%ADD104FreePoly3,180.000000*%
%ADD105FreePoly4,180.000000*%
%ADD106HorizOval,2.200000X0.000000X0.000000X0.000000X0.000000X0*%
%ADD107R,4.500000X1.650013*%
%ADD108RoundRect,0.250000X0.350000X-0.850000X0.350000X0.850000X-0.350000X0.850000X-0.350000X-0.850000X0*%
%ADD109RoundRect,0.249997X2.650003X-2.950003X2.650003X2.950003X-2.650003X2.950003X-2.650003X-2.950003X0*%
%ADD110R,1.050013X0.400000*%
%ADD111O,1.050013X0.400000*%
%ADD112O,0.200000X0.600000*%
%ADD113RoundRect,0.100000X0.100000X-0.562500X0.100000X0.562500X-0.100000X0.562500X-0.100000X-0.562500X0*%
%ADD114R,1.200000X3.500000*%
%ADD115R,1.000000X1.500000*%
%ADD116R,0.910000X2.700000*%
%ADD117RoundRect,0.250000X-0.625000X0.375000X-0.625000X-0.375000X0.625000X-0.375000X0.625000X0.375000X0*%
%ADD118R,0.610000X1.270000*%
%ADD119R,3.910000X3.810000*%
%ADD120R,0.610000X1.020000*%
%ADD121RoundRect,0.250000X-0.650000X1.000000X-0.650000X-1.000000X0.650000X-1.000000X0.650000X1.000000X0*%
%ADD122RoundRect,0.250000X0.312500X0.625000X-0.312500X0.625000X-0.312500X-0.625000X0.312500X-0.625000X0*%
%ADD123R,0.500000X0.600000*%
%ADD124RoundRect,0.218750X0.256250X-0.218750X0.256250X0.218750X-0.256250X0.218750X-0.256250X-0.218750X0*%
%ADD125C,7.000000*%
%ADD126R,3.500000X5.200000*%
%ADD127R,0.280010X0.700000*%
%ADD128R,0.700000X0.280010*%
%ADD129R,2.800000X2.800000*%
%ADD130R,1.000000X0.600000*%
%ADD131RoundRect,0.218750X-0.256250X0.218750X-0.256250X-0.218750X0.256250X-0.218750X0.256250X0.218750X0*%
%ADD132RoundRect,0.062500X-0.062500X0.375000X-0.062500X-0.375000X0.062500X-0.375000X0.062500X0.375000X0*%
%ADD133RoundRect,0.062500X-0.375000X0.062500X-0.375000X-0.062500X0.375000X-0.062500X0.375000X0.062500X0*%
%ADD134R,3.600000X3.600000*%
%ADD135RoundRect,0.250000X0.800000X-0.450000X0.800000X0.450000X-0.800000X0.450000X-0.800000X-0.450000X0*%
%ADD136RoundRect,0.250000X-1.100000X0.325000X-1.100000X-0.325000X1.100000X-0.325000X1.100000X0.325000X0*%
%ADD137R,3.429997X4.700000*%
%ADD138R,1.230000X1.860000*%
%ADD139R,0.532004X1.037490*%
%ADD140O,1.524003X1.524003*%
%ADD141O,2.500000X2.500000*%
G04 APERTURE END LIST*
%TO.C,JP1901*%
G36*
X110850000Y-59450000D02*
G01*
X112350000Y-59450000D01*
X112350000Y-59150000D01*
X110850000Y-59150000D01*
X110850000Y-59450000D01*
G37*
%TO.C,JP3401*%
G36*
X63785400Y-64070800D02*
G01*
X66235400Y-64070800D01*
X66235400Y-65570800D01*
X63785400Y-65570800D01*
X63785400Y-64070800D01*
G37*
%TO.C,JP3601*%
G36*
X94325000Y-77750000D02*
G01*
X91875000Y-77750000D01*
X91875000Y-76250000D01*
X94325000Y-76250000D01*
X94325000Y-77750000D01*
G37*
%TO.C,JP1403*%
G36*
X78437600Y-47459200D02*
G01*
X78737600Y-47459200D01*
X78737600Y-48959200D01*
X78437600Y-48959200D01*
X78437600Y-47459200D01*
G37*
%TO.C,JP3402*%
G36*
X74867200Y-70574000D02*
G01*
X73367200Y-70574000D01*
X73367200Y-70874000D01*
X74867200Y-70874000D01*
X74867200Y-70574000D01*
G37*
%TD*%
D10*
%TO.C,CN103*%
X37544000Y-42461949D03*
X37544000Y-35262051D03*
D11*
X31544000Y-32111936D03*
X31544000Y-45612064D03*
%TD*%
D10*
%TO.C,CN104*%
X68090549Y-72755500D03*
X60890651Y-72755500D03*
D12*
X57740536Y-78755500D03*
X71240664Y-78755500D03*
%TD*%
D13*
%TO.C,U104*%
X69261225Y-34364927D03*
X69261225Y-34864800D03*
X69261225Y-35364927D03*
X69261225Y-35864800D03*
D14*
X69911212Y-36014914D03*
D13*
X70561200Y-35864800D03*
X70561200Y-35364927D03*
X70561200Y-34864800D03*
X70561200Y-34364927D03*
D14*
X69911212Y-34214812D03*
%TD*%
D15*
%TO.C,R109*%
X67792600Y-33477200D03*
X67792600Y-35127200D03*
%TD*%
D16*
%TO.C,C113*%
X72212200Y-35725400D03*
X72212200Y-34175400D03*
%TD*%
D17*
%TO.C,U83*%
X115315991Y-21767801D03*
D18*
X115315991Y-20497799D03*
X116585994Y-21767801D03*
X116585994Y-20497799D03*
X117855996Y-21767801D03*
X117855996Y-20497799D03*
X119125999Y-21767801D03*
X119125999Y-20497799D03*
X120396001Y-21767801D03*
X120396001Y-20497799D03*
X121666004Y-21767801D03*
X121666004Y-20497799D03*
X122936006Y-21767801D03*
X122936006Y-20497799D03*
X124206009Y-21767801D03*
X124206009Y-20497799D03*
%TD*%
D19*
%TO.C,C3502*%
X79754648Y-70471145D03*
X79754648Y-71431145D03*
%TD*%
D20*
%TO.C,DC1*%
X117357438Y-75375000D03*
X117357438Y-81575000D03*
D21*
X122057438Y-78375000D03*
%TD*%
D22*
%TO.C,D33*%
X87500000Y-79000013D03*
X87500000Y-78299987D03*
%TD*%
D23*
%TO.C,R1904*%
X113120000Y-61390000D03*
X113120000Y-62410000D03*
%TD*%
D24*
%TO.C,C1601*%
X36990000Y-83320000D03*
X36990000Y-84870000D03*
%TD*%
D25*
%TO.C,R1402*%
X86160000Y-33290000D03*
X85140000Y-33290000D03*
%TD*%
D26*
%TO.C,U303*%
X48900000Y-31450000D03*
X48900000Y-30950000D03*
X48900000Y-30450000D03*
X48900000Y-29950000D03*
X48900000Y-29450000D03*
X48900000Y-28950000D03*
X48900000Y-28450000D03*
X48900000Y-27950000D03*
X47100000Y-27950000D03*
X47100000Y-28450000D03*
X47100000Y-28950000D03*
X47100000Y-29450000D03*
X47100000Y-29950000D03*
X47100000Y-30450000D03*
X47100000Y-30950000D03*
X47100000Y-31450000D03*
%TD*%
D23*
%TO.C,R608*%
X128080000Y-61981000D03*
X128080000Y-63001000D03*
%TD*%
D27*
%TO.C,CN101*%
X79480010Y-30530816D03*
X79480010Y-22910800D03*
X74400000Y-30530816D03*
X74400000Y-22910800D03*
X69319990Y-30530816D03*
X69319990Y-22910800D03*
X64239980Y-30530816D03*
X64239980Y-22910800D03*
%TD*%
D28*
%TO.C,C1503*%
X103750000Y-43475000D03*
X103750000Y-40525000D03*
%TD*%
D29*
%TO.C,C1405*%
X88040000Y-33320000D03*
X88040000Y-32360000D03*
%TD*%
D30*
%TO.C,C108*%
X129804000Y-36084800D03*
X131354000Y-36084800D03*
%TD*%
D31*
%TO.C,C606*%
X116360000Y-57607200D03*
X117320000Y-57607200D03*
%TD*%
D32*
%TO.C,U30*%
X118902500Y-57206000D03*
X118902500Y-57856000D03*
X118902500Y-58506000D03*
X118902500Y-59156000D03*
X118902500Y-59806000D03*
X118902500Y-60456000D03*
X118902500Y-61106000D03*
X118902500Y-61756000D03*
X124627500Y-61756000D03*
X124627500Y-61106000D03*
X124627500Y-60456000D03*
X124627500Y-59806000D03*
X124627500Y-59156000D03*
X124627500Y-58506000D03*
X124627500Y-57856000D03*
X124627500Y-57206000D03*
%TD*%
D33*
%TO.C,Q18*%
X94681000Y-69730000D03*
X96581000Y-69730000D03*
X95631000Y-67855000D03*
%TD*%
D34*
%TO.C,C2001*%
X101321200Y-76708000D03*
X99771200Y-76708000D03*
%TD*%
D30*
%TO.C,C1502*%
X108902200Y-36347400D03*
X110452200Y-36347400D03*
%TD*%
D35*
%TO.C,USB1*%
X139079714Y-24644806D03*
X139079714Y-20844705D03*
X130439886Y-24644806D03*
X130439886Y-20844705D03*
D36*
X135259800Y-25094895D03*
X133239810Y-25094895D03*
D37*
X132009736Y-25094895D03*
D36*
X134259800Y-25094895D03*
X136279790Y-25094895D03*
D37*
X137509736Y-25094895D03*
%TD*%
D38*
%TO.C,U1501*%
X111035200Y-40194600D03*
D39*
X107485200Y-38289600D03*
X107485200Y-39559600D03*
X107485200Y-40829600D03*
X107485200Y-42099600D03*
%TD*%
D40*
%TO.C,D34*%
X103788000Y-78689200D03*
X100688000Y-78689200D03*
%TD*%
%TO.C,D14*%
X94006000Y-32766000D03*
X90906000Y-32766000D03*
%TD*%
D41*
%TO.C,USB2002*%
X100075269Y-81009482D03*
X100925409Y-81009482D03*
X101775294Y-81009482D03*
X102625434Y-81009482D03*
X103475320Y-81009482D03*
X104325460Y-81009482D03*
X105175345Y-81009482D03*
X106025485Y-81009482D03*
X106025485Y-82359240D03*
X105175345Y-82359240D03*
X104325460Y-82359240D03*
X103475320Y-82359240D03*
X102625434Y-82359240D03*
X101775294Y-82359240D03*
X100925409Y-82359240D03*
X100075269Y-82359240D03*
D42*
X107375244Y-81989416D03*
D43*
X107375244Y-85369400D03*
X98725256Y-85369400D03*
D42*
X98725256Y-81989416D03*
%TD*%
D44*
%TO.C,LED101*%
X29687500Y-29850000D03*
X28112500Y-29850000D03*
%TD*%
D45*
%TO.C,Q602*%
X121386600Y-49580992D03*
X121386600Y-50850995D03*
X121386600Y-52120997D03*
X121386600Y-53391000D03*
X127186600Y-53391000D03*
X127186600Y-52120997D03*
X127186600Y-50850995D03*
X127186600Y-49580992D03*
%TD*%
D46*
%TO.C,ZD1*%
X63150000Y-43692405D03*
X63150000Y-40307595D03*
%TD*%
D47*
%TO.C,C87*%
X49570600Y-42748200D03*
X51470600Y-42748200D03*
%TD*%
D48*
%TO.C,R1905*%
X111180000Y-61430000D03*
X112200000Y-61430000D03*
%TD*%
D49*
%TO.C,CN2301*%
X139470500Y-41069936D03*
D50*
X139470500Y-38570064D03*
X139470500Y-36069936D03*
X139470500Y-33570064D03*
%TD*%
D48*
%TO.C,R269*%
X57090000Y-25400000D03*
X58110000Y-25400000D03*
%TD*%
D51*
%TO.C,C2705*%
X114723100Y-30300000D03*
X115858100Y-30300000D03*
%TD*%
D16*
%TO.C,C83*%
X133100000Y-36825000D03*
X133100000Y-35275000D03*
%TD*%
D23*
%TO.C,R2003*%
X106121200Y-73150000D03*
X106121200Y-74170000D03*
%TD*%
D52*
%TO.C,R175*%
X82840248Y-76311145D03*
X82840248Y-74661145D03*
%TD*%
D23*
%TO.C,R148*%
X64650000Y-41690000D03*
X64650000Y-42710000D03*
%TD*%
%TO.C,R607*%
X128080000Y-60111000D03*
X128080000Y-61131000D03*
%TD*%
D53*
%TO.C,C2701*%
X120128798Y-35306000D03*
X117094000Y-35306000D03*
%TD*%
D54*
%TO.C,C1409*%
X96774000Y-43444200D03*
X96774000Y-41544200D03*
%TD*%
D30*
%TO.C,C88*%
X49644000Y-44598200D03*
X51194000Y-44598200D03*
%TD*%
D55*
%TO.C,C2703*%
X128143000Y-29445201D03*
X128143000Y-32479999D03*
%TD*%
D56*
%TO.C,U70*%
X142250000Y-45270000D03*
X142250000Y-46870000D03*
X142250000Y-48470000D03*
X147150000Y-48470000D03*
X147150000Y-46870000D03*
X147150000Y-45270000D03*
%TD*%
D57*
%TO.C,U105*%
X31995000Y-85835000D03*
D58*
X35545000Y-87740000D03*
X35545000Y-86470000D03*
X35545000Y-85200000D03*
X35545000Y-83930000D03*
%TD*%
D59*
%TO.C,R214*%
X93027000Y-69951600D03*
X91377000Y-69951600D03*
%TD*%
D60*
%TO.C,U2701*%
X118250016Y-32789716D03*
D61*
X119050016Y-32809716D03*
X119550016Y-32809716D03*
D62*
X121200016Y-32519716D03*
X121200016Y-30050216D03*
D61*
X119550016Y-29809716D03*
X119050016Y-29809716D03*
D60*
X118250016Y-29849716D03*
D63*
X118075016Y-30809716D03*
D64*
X118450016Y-31309716D03*
D63*
X118075016Y-31809716D03*
%TD*%
D65*
%TO.C,D1*%
X58534800Y-67894200D03*
X62534800Y-67894200D03*
%TD*%
D48*
%TO.C,R164*%
X69740000Y-38869800D03*
X70760000Y-38869800D03*
%TD*%
D66*
%TO.C,C1403*%
X90144600Y-55118000D03*
X87194600Y-55118000D03*
%TD*%
D23*
%TO.C,R2702*%
X116865400Y-30290000D03*
X116865400Y-31310000D03*
%TD*%
D48*
%TO.C,R183*%
X28380000Y-20850000D03*
X29400000Y-20850000D03*
%TD*%
D67*
%TO.C,LED102*%
X47312500Y-79350000D03*
X48887500Y-79350000D03*
%TD*%
D66*
%TO.C,C1401*%
X89899001Y-51612800D03*
X86949001Y-51612800D03*
%TD*%
D30*
%TO.C,C1602*%
X27085000Y-89640000D03*
X28635000Y-89640000D03*
%TD*%
D54*
%TO.C,C2401*%
X45175000Y-41650000D03*
X45175000Y-39750000D03*
%TD*%
D25*
%TO.C,R1902*%
X110260000Y-57150000D03*
X109240000Y-57150000D03*
%TD*%
D68*
%TO.C,CUR_2*%
X73993500Y-41287500D03*
X74643500Y-41287500D03*
X75293500Y-41287500D03*
X75943500Y-41287500D03*
D69*
X76831000Y-40400000D03*
X76831000Y-39750000D03*
X76831000Y-39100000D03*
X76831000Y-38450000D03*
D68*
X75943500Y-37562500D03*
X75293500Y-37562500D03*
X74643500Y-37562500D03*
X73993500Y-37562500D03*
D69*
X73106000Y-38450000D03*
X73106000Y-39100000D03*
X73106000Y-39750000D03*
X73106000Y-40400000D03*
D70*
X74968500Y-39425000D03*
%TD*%
D71*
%TO.C,U10*%
X116532200Y-72390000D03*
X119332200Y-72390000D03*
%TD*%
D56*
%TO.C,JP1901*%
X111600000Y-59950000D03*
X111600000Y-58650000D03*
%TD*%
D26*
%TO.C,U301*%
X47100000Y-18950000D03*
X47100000Y-19450000D03*
X47100000Y-19950000D03*
X47100000Y-20450000D03*
X47100000Y-20950000D03*
X47100000Y-21450000D03*
X47100000Y-21950000D03*
X47100000Y-22450000D03*
X48900000Y-22450000D03*
X48900000Y-21950000D03*
X48900000Y-21450000D03*
X48900000Y-20950000D03*
X48900000Y-20450000D03*
X48900000Y-19950000D03*
X48900000Y-19450000D03*
X48900000Y-18950000D03*
%TD*%
D72*
%TO.C,C3601*%
X91790000Y-80110000D03*
X90830000Y-80110000D03*
%TD*%
D73*
%TO.C,J103*%
X126765000Y-45925000D03*
D74*
X124225000Y-45925000D03*
X121685000Y-45925000D03*
%TD*%
D16*
%TO.C,C117*%
X40200000Y-21450000D03*
X40200000Y-19900000D03*
%TD*%
D67*
%TO.C,LED1*%
X111862500Y-29950000D03*
X113437500Y-29950000D03*
%TD*%
D75*
%TO.C,F2*%
X76300000Y-76100000D03*
X76300000Y-73300000D03*
%TD*%
D76*
%TO.C,U401*%
X103733596Y-29686400D03*
X107696004Y-29686400D03*
%TD*%
D31*
%TO.C,C603*%
X118910000Y-62871000D03*
X119870000Y-62871000D03*
%TD*%
D29*
%TO.C,C3505*%
X86171600Y-76741800D03*
X86171600Y-75781800D03*
%TD*%
D73*
%TO.C,J101*%
X136780000Y-28600000D03*
D74*
X134240000Y-28600000D03*
X131700000Y-28600000D03*
%TD*%
D77*
%TO.C,C1603*%
X48590200Y-81737200D03*
X48590200Y-84687200D03*
%TD*%
D48*
%TO.C,R2005*%
X102490000Y-76962000D03*
X103510000Y-76962000D03*
%TD*%
D38*
%TO.C,U1801*%
X109695000Y-67875000D03*
D39*
X106145000Y-65970000D03*
X106145000Y-67240000D03*
X106145000Y-68510000D03*
X106145000Y-69780000D03*
%TD*%
D78*
%TO.C,D36*%
X104000000Y-62550000D03*
X99700000Y-62550000D03*
%TD*%
D15*
%TO.C,R216*%
X89000000Y-76500000D03*
X89000000Y-78150000D03*
%TD*%
D76*
%TO.C,U42*%
X94483591Y-29686400D03*
X98445999Y-29686400D03*
%TD*%
D79*
%TO.C,R112*%
X97265900Y-33705800D03*
X103190900Y-33705800D03*
%TD*%
D48*
%TO.C,R3601*%
X92708000Y-79959200D03*
X93728000Y-79959200D03*
%TD*%
D80*
%TO.C,U47*%
X94361000Y-35433000D03*
X94361000Y-36703000D03*
X94361000Y-37973000D03*
X94361000Y-39243000D03*
X94361000Y-40513000D03*
X94361000Y-41783000D03*
X94361000Y-43053000D03*
X94361000Y-44323000D03*
X94361000Y-45593000D03*
X94361000Y-46863000D03*
X94361000Y-48133000D03*
X93091000Y-35433000D03*
X93091000Y-36703000D03*
X93091000Y-37973000D03*
X93091000Y-39243000D03*
X93091000Y-40513000D03*
X93091000Y-41783000D03*
X93091000Y-43053000D03*
X93091000Y-44323000D03*
X93091000Y-45593000D03*
X93091000Y-46863000D03*
X93091000Y-48133000D03*
X91821000Y-35433000D03*
X91821000Y-36703000D03*
X91821000Y-37973000D03*
X91821000Y-39243000D03*
X91821000Y-40513000D03*
X91821000Y-41783000D03*
X91821000Y-43053000D03*
X91821000Y-44323000D03*
X91821000Y-45593000D03*
X91821000Y-46863000D03*
X91821000Y-48133000D03*
X90551000Y-35433000D03*
X90551000Y-36703000D03*
X90551000Y-37973000D03*
X90551000Y-39243000D03*
X90551000Y-40513000D03*
X90551000Y-41783000D03*
X90551000Y-43053000D03*
X90551000Y-44323000D03*
X90551000Y-45593000D03*
X90551000Y-46863000D03*
X90551000Y-48133000D03*
X89281000Y-35433000D03*
X89281000Y-36703000D03*
X89281000Y-37973000D03*
X89281000Y-39243000D03*
X89281000Y-40513000D03*
X89281000Y-41783000D03*
X89281000Y-43053000D03*
X89281000Y-44323000D03*
X89281000Y-45593000D03*
X89281000Y-46863000D03*
X89281000Y-48133000D03*
X88011000Y-35433000D03*
X88011000Y-36703000D03*
X88011000Y-37973000D03*
X88011000Y-39243000D03*
X88011000Y-40513000D03*
X88011000Y-41783000D03*
X88011000Y-43053000D03*
X88011000Y-44323000D03*
X88011000Y-45593000D03*
X88011000Y-46863000D03*
X88011000Y-48133000D03*
X86741000Y-35433000D03*
X86741000Y-36703000D03*
X86741000Y-37973000D03*
X86741000Y-39243000D03*
X86741000Y-40513000D03*
X86741000Y-41783000D03*
X86741000Y-43053000D03*
X86741000Y-44323000D03*
X86741000Y-45593000D03*
X86741000Y-46863000D03*
X86741000Y-48133000D03*
X85471000Y-35433000D03*
X85471000Y-36703000D03*
X85471000Y-37973000D03*
X85471000Y-39243000D03*
X85471000Y-40513000D03*
X85471000Y-41783000D03*
X85471000Y-43053000D03*
X85471000Y-44323000D03*
X85471000Y-45593000D03*
X85471000Y-46863000D03*
X85471000Y-48133000D03*
X84201000Y-35433000D03*
X84201000Y-36703000D03*
X84201000Y-37973000D03*
X84201000Y-39243000D03*
X84201000Y-40513000D03*
X84201000Y-41783000D03*
X84201000Y-43053000D03*
X84201000Y-44323000D03*
X84201000Y-45593000D03*
X84201000Y-46863000D03*
X84201000Y-48133000D03*
X82931000Y-35433000D03*
X82931000Y-36703000D03*
X82931000Y-37973000D03*
X82931000Y-39243000D03*
X82931000Y-40513000D03*
X82931000Y-41783000D03*
X82931000Y-43053000D03*
X82931000Y-44323000D03*
X82931000Y-45593000D03*
X82931000Y-46863000D03*
X82931000Y-48133000D03*
X81661000Y-35433000D03*
X81661000Y-36703000D03*
X81661000Y-37973000D03*
X81661000Y-39243000D03*
X81661000Y-40513000D03*
X81661000Y-41783000D03*
X81661000Y-43053000D03*
X81661000Y-44323000D03*
X81661000Y-45593000D03*
X81661000Y-46863000D03*
X81661000Y-48133000D03*
%TD*%
D81*
%TO.C,Q13*%
X51930000Y-67330000D03*
D82*
X50930000Y-62530000D03*
D83*
X42880000Y-63130000D03*
%TD*%
D29*
%TO.C,C608*%
X126630000Y-57751000D03*
X126630000Y-56791000D03*
%TD*%
D34*
%TO.C,C130*%
X92977000Y-68453000D03*
X91427000Y-68453000D03*
%TD*%
D29*
%TO.C,C2802*%
X71700000Y-39880000D03*
X71700000Y-38920000D03*
%TD*%
D84*
%TO.C,C1504*%
X108124200Y-33985200D03*
X111074200Y-33985200D03*
%TD*%
D52*
%TO.C,R3503*%
X80960000Y-71753345D03*
X80960000Y-70103345D03*
%TD*%
D85*
%TO.C,C601*%
X140550000Y-66500000D03*
X137600000Y-66500000D03*
%TD*%
D86*
%TO.C,Q10*%
X67134500Y-42050000D03*
X67134500Y-43950000D03*
X69009500Y-43000000D03*
%TD*%
D49*
%TO.C,CN102*%
X76141189Y-80050500D03*
D50*
X78641061Y-80050500D03*
X81141189Y-80050500D03*
X83641061Y-80050500D03*
%TD*%
D49*
%TO.C,H4*%
X31440000Y-60180000D03*
D87*
X33980000Y-60180000D03*
X36520000Y-60180000D03*
X31440000Y-62720000D03*
X33980000Y-62720000D03*
X36520000Y-62720000D03*
X31440000Y-65260000D03*
X33980000Y-65260000D03*
X36520000Y-65260000D03*
X31440000Y-67800000D03*
X33980000Y-67800000D03*
X36520000Y-67800000D03*
%TD*%
D88*
%TO.C,F1*%
X53150000Y-86250000D03*
X53150000Y-81250000D03*
X53150000Y-77050000D03*
X53150000Y-72050000D03*
%TD*%
D89*
%TO.C,R2004*%
X107772200Y-76049600D03*
X107772200Y-75029600D03*
%TD*%
D90*
%TO.C,RN2*%
X76275000Y-35725000D03*
D91*
X77075000Y-35725000D03*
X77875000Y-35725000D03*
D90*
X78675000Y-35725000D03*
X78675000Y-33925000D03*
D91*
X77875000Y-33925000D03*
X77075000Y-33925000D03*
D90*
X76275000Y-33925000D03*
%TD*%
D89*
%TO.C,R161*%
X74803000Y-44660000D03*
X74803000Y-43640000D03*
%TD*%
D72*
%TO.C,C2803*%
X74825000Y-36175000D03*
X73865000Y-36175000D03*
%TD*%
D92*
%TO.C,D11*%
X129290000Y-50740000D03*
X129290000Y-52580000D03*
D93*
X133354000Y-51660000D03*
%TD*%
D94*
%TO.C,C602*%
X114401600Y-45741327D03*
X114401600Y-54741073D03*
%TD*%
D72*
%TO.C,C1404*%
X83250000Y-33275000D03*
X82290000Y-33275000D03*
%TD*%
D16*
%TO.C,C134*%
X92964000Y-67005200D03*
X92964000Y-65455200D03*
%TD*%
D30*
%TO.C,C102*%
X76441000Y-44958000D03*
X77991000Y-44958000D03*
%TD*%
D81*
%TO.C,Q14*%
X51920000Y-56660000D03*
D82*
X50920000Y-51860000D03*
D83*
X42870000Y-52460000D03*
%TD*%
D95*
%TO.C,R149*%
X64875000Y-40450000D03*
X66525000Y-40450000D03*
%TD*%
D19*
%TO.C,C607*%
X127150000Y-60141000D03*
X127150000Y-61101000D03*
%TD*%
D30*
%TO.C,C135*%
X118909800Y-41910000D03*
X120459800Y-41910000D03*
%TD*%
D96*
%TO.C,L602*%
X139309987Y-62080000D03*
X144609987Y-52880000D03*
%TD*%
D59*
%TO.C,R5*%
X118287500Y-25600000D03*
X116637500Y-25600000D03*
%TD*%
D97*
%TO.C,D22*%
X75500000Y-67125000D03*
X72200000Y-67125000D03*
%TD*%
D55*
%TO.C,C2704*%
X124536200Y-29445201D03*
X124536200Y-32479999D03*
%TD*%
D57*
%TO.C,U801*%
X115630000Y-67875000D03*
D58*
X119180000Y-69780000D03*
X119180000Y-68510000D03*
X119180000Y-67240000D03*
X119180000Y-65970000D03*
%TD*%
D23*
%TO.C,R606*%
X115890000Y-59241000D03*
X115890000Y-60261000D03*
%TD*%
D98*
%TO.C,D18*%
X97078800Y-79144400D03*
X97078800Y-75844400D03*
%TD*%
D52*
%TO.C,R8*%
X21328500Y-72390900D03*
X21328500Y-70740900D03*
%TD*%
D20*
%TO.C,DC2*%
X128875500Y-75350000D03*
X128875500Y-81550000D03*
D21*
X133575500Y-78350000D03*
%TD*%
D15*
%TO.C,R213*%
X91440000Y-65406000D03*
X91440000Y-67056000D03*
%TD*%
D16*
%TO.C,C118*%
X41750000Y-21525000D03*
X41750000Y-19975000D03*
%TD*%
D99*
%TO.C,JP3401*%
X64285400Y-64820800D03*
D100*
X65735400Y-64820800D03*
%TD*%
D101*
%TO.C,D35*%
X106350000Y-48700000D03*
X102350000Y-48700000D03*
%TD*%
D102*
%TO.C,U82*%
X89021500Y-68006000D03*
X89021500Y-67056000D03*
X89021500Y-66106000D03*
X86746500Y-66106000D03*
X86746500Y-68006000D03*
%TD*%
D103*
%TO.C,C1408*%
X99618800Y-40690800D03*
X99618800Y-45630800D03*
%TD*%
D104*
%TO.C,JP3601*%
X93825000Y-77000000D03*
D105*
X92375000Y-77000000D03*
%TD*%
D106*
%TO.C,C104*%
X58988808Y-51592818D03*
X65786000Y-54762400D03*
%TD*%
D107*
%TO.C,C1402*%
X84937600Y-59385200D03*
X75937854Y-59385200D03*
%TD*%
D108*
%TO.C,Q9*%
X99530000Y-74574400D03*
D109*
X101810000Y-68274400D03*
D108*
X104090000Y-74574400D03*
%TD*%
D44*
%TO.C,LED2*%
X127437500Y-25600000D03*
X125862500Y-25600000D03*
%TD*%
D110*
%TO.C,U103*%
X119255587Y-39806038D03*
D111*
X119255587Y-39106012D03*
D112*
X119330772Y-38305911D03*
X118830644Y-38305911D03*
X118330772Y-38305911D03*
X117830644Y-38305911D03*
D111*
X117905575Y-39106012D03*
X117905575Y-39806038D03*
D112*
X117830644Y-40605885D03*
X118330772Y-40605885D03*
X118830644Y-40605885D03*
X119330772Y-40605885D03*
%TD*%
D25*
%TO.C,R19*%
X57350000Y-26550000D03*
X56330000Y-26550000D03*
%TD*%
D89*
%TO.C,R603*%
X114681000Y-60327000D03*
X114681000Y-59307000D03*
%TD*%
D16*
%TO.C,C1501*%
X105816400Y-42215400D03*
X105816400Y-40665400D03*
%TD*%
D97*
%TO.C,D21*%
X70711600Y-64820800D03*
X67411600Y-64820800D03*
%TD*%
D113*
%TO.C,U69*%
X134707500Y-36947500D03*
X135357500Y-36947500D03*
X136007500Y-36947500D03*
X136007500Y-35172500D03*
X134707500Y-35172500D03*
%TD*%
D94*
%TO.C,C143*%
X32680000Y-80480000D03*
X32680000Y-72079950D03*
%TD*%
D52*
%TO.C,R108*%
X48900000Y-77625000D03*
X48900000Y-75975000D03*
%TD*%
D114*
%TO.C,C2301*%
X132638800Y-44986453D03*
X132638800Y-39646347D03*
%TD*%
D19*
%TO.C,C3503*%
X77316248Y-70499145D03*
X77316248Y-71459145D03*
%TD*%
D25*
%TO.C,R1401*%
X79556800Y-39268400D03*
X78536800Y-39268400D03*
%TD*%
D23*
%TO.C,R166*%
X74875000Y-34240000D03*
X74875000Y-35260000D03*
%TD*%
D79*
%TO.C,R1404*%
X78666200Y-51841400D03*
X84591200Y-51841400D03*
%TD*%
D47*
%TO.C,C103*%
X76418500Y-43168500D03*
X78318500Y-43168500D03*
%TD*%
D30*
%TO.C,C99*%
X116525000Y-28100000D03*
X118075000Y-28100000D03*
%TD*%
D48*
%TO.C,R163*%
X69740000Y-39950000D03*
X70760000Y-39950000D03*
%TD*%
D115*
%TO.C,JP1403*%
X77937600Y-48209200D03*
X79237600Y-48209200D03*
%TD*%
D116*
%TO.C,C68*%
X44475400Y-86715000D03*
X44475400Y-81915000D03*
%TD*%
D34*
%TO.C,C109*%
X135950000Y-33350000D03*
X134400000Y-33350000D03*
%TD*%
D117*
%TO.C,F5*%
X91375000Y-71577200D03*
X91375000Y-74377200D03*
%TD*%
D52*
%TO.C,R3502*%
X78535448Y-71702545D03*
X78535448Y-70052545D03*
%TD*%
D76*
%TO.C,U501*%
X85233586Y-29686400D03*
X89195994Y-29686400D03*
%TD*%
D16*
%TO.C,C84*%
X140004800Y-47917400D03*
X140004800Y-46367400D03*
%TD*%
D19*
%TO.C,C604*%
X126210000Y-63691000D03*
X126210000Y-64651000D03*
%TD*%
D16*
%TO.C,C132*%
X89154000Y-74562000D03*
X89154000Y-73012000D03*
%TD*%
D19*
%TO.C,C605*%
X127140000Y-63691000D03*
X127140000Y-64651000D03*
%TD*%
D32*
%TO.C,U78*%
X31641912Y-20711828D03*
X31641912Y-21361828D03*
X31641912Y-22011828D03*
X31641912Y-22661828D03*
X31641912Y-23311828D03*
X31641912Y-23961828D03*
X31641912Y-24611828D03*
X31641912Y-25261828D03*
X31641912Y-25911828D03*
X31641912Y-26561828D03*
X31641912Y-27211828D03*
X31641912Y-27861828D03*
X31641912Y-28511828D03*
X31641912Y-29161828D03*
X37366912Y-29161828D03*
X37366912Y-28511828D03*
X37366912Y-27861828D03*
X37366912Y-27211828D03*
X37366912Y-26561828D03*
X37366912Y-25911828D03*
X37366912Y-25261828D03*
X37366912Y-24611828D03*
X37366912Y-23961828D03*
X37366912Y-23311828D03*
X37366912Y-22661828D03*
X37366912Y-22011828D03*
X37366912Y-21361828D03*
X37366912Y-20711828D03*
%TD*%
D118*
%TO.C,Q2401*%
X57327800Y-41997400D03*
X58597800Y-41997400D03*
X59867800Y-41997400D03*
X61137800Y-41997400D03*
D119*
X59232800Y-38637400D03*
D120*
X57327800Y-36532400D03*
X58597800Y-36532400D03*
X59867800Y-36532400D03*
X61137800Y-36532400D03*
%TD*%
D52*
%TO.C,R3501*%
X76097048Y-71753345D03*
X76097048Y-70103345D03*
%TD*%
D121*
%TO.C,D10*%
X42225000Y-37475000D03*
X42225000Y-41475000D03*
%TD*%
D23*
%TO.C,R604*%
X125200000Y-63700000D03*
X125200000Y-64720000D03*
%TD*%
D48*
%TO.C,R1906*%
X109300000Y-61420000D03*
X110320000Y-61420000D03*
%TD*%
D23*
%TO.C,R162*%
X78318500Y-40725500D03*
X78318500Y-41745500D03*
%TD*%
D122*
%TO.C,R190*%
X80062500Y-67125000D03*
X77137500Y-67125000D03*
%TD*%
D89*
%TO.C,R114*%
X116636800Y-41406000D03*
X116636800Y-40386000D03*
%TD*%
D67*
%TO.C,LED4*%
X73662500Y-51050000D03*
X75237500Y-51050000D03*
%TD*%
D49*
%TO.C,H3*%
X31440000Y-49000000D03*
D87*
X33980000Y-49000000D03*
X36520000Y-49000000D03*
X31440000Y-51540000D03*
X33980000Y-51540000D03*
X36520000Y-51540000D03*
X31440000Y-54080000D03*
X33980000Y-54080000D03*
X36520000Y-54080000D03*
X31440000Y-56620000D03*
X33980000Y-56620000D03*
X36520000Y-56620000D03*
%TD*%
D15*
%TO.C,R150*%
X71247000Y-45013500D03*
X71247000Y-46663500D03*
%TD*%
D123*
%TO.C,D32*%
X94850000Y-71526400D03*
X95650000Y-71526400D03*
%TD*%
D124*
%TO.C,LED6*%
X111269375Y-89025000D03*
X111269375Y-87450000D03*
%TD*%
D23*
%TO.C,R602*%
X126210000Y-61781000D03*
X126210000Y-62801000D03*
%TD*%
D114*
%TO.C,C98*%
X125526800Y-35763200D03*
X125526800Y-41103200D03*
%TD*%
D125*
%TO.C,H1*%
X23918491Y-25551825D03*
X23918491Y-83551825D03*
X145418491Y-25551825D03*
X145418491Y-83551825D03*
%TD*%
D126*
%TO.C,R18*%
X53924200Y-36118800D03*
X46304200Y-36118800D03*
%TD*%
D127*
%TO.C,U62*%
X104925064Y-59607200D03*
X105424936Y-59607200D03*
X105925064Y-59607200D03*
X106424936Y-59607200D03*
X106925064Y-59607200D03*
X107424936Y-59607200D03*
D128*
X108175000Y-58857136D03*
X108175000Y-58357264D03*
X108175000Y-57857136D03*
X108175000Y-57357264D03*
X108175000Y-56857136D03*
X108175000Y-56357264D03*
D127*
X107424936Y-55607200D03*
X106925064Y-55607200D03*
X106424936Y-55607200D03*
X105925064Y-55607200D03*
X105424936Y-55607200D03*
X104932938Y-55607200D03*
D128*
X104175000Y-56357264D03*
X104175000Y-56857136D03*
X104175000Y-57357264D03*
X104175000Y-57857136D03*
X104175000Y-58357264D03*
X104175000Y-58857136D03*
D129*
X106187700Y-57607200D03*
%TD*%
D59*
%TO.C,R4*%
X124475000Y-25600000D03*
X122825000Y-25600000D03*
%TD*%
D29*
%TO.C,C3501*%
X84190000Y-72700000D03*
X84190000Y-71740000D03*
%TD*%
D130*
%TO.C,U76*%
X132900000Y-33060000D03*
X132900000Y-32110000D03*
X132900000Y-31160000D03*
X130700000Y-31160000D03*
X130700000Y-33060000D03*
%TD*%
D98*
%TO.C,D3602*%
X74000000Y-76400000D03*
X74000000Y-73100000D03*
%TD*%
D48*
%TO.C,R2701*%
X115310000Y-29330000D03*
X116330000Y-29330000D03*
%TD*%
D92*
%TO.C,D12*%
X129302000Y-55771000D03*
X129302000Y-57611000D03*
D93*
X133366000Y-56691000D03*
%TD*%
D95*
%TO.C,R7*%
X75250000Y-52575000D03*
X76900000Y-52575000D03*
%TD*%
D131*
%TO.C,LED5*%
X22950000Y-70812500D03*
X22950000Y-72387500D03*
%TD*%
D48*
%TO.C,R601*%
X118890000Y-63801000D03*
X119910000Y-63801000D03*
%TD*%
D34*
%TO.C,C74*%
X108175000Y-61150000D03*
X106625000Y-61150000D03*
%TD*%
D132*
%TO.C,U304*%
X54467500Y-22762500D03*
X53967500Y-22762500D03*
X53467500Y-22762500D03*
X52967500Y-22762500D03*
X52467500Y-22762500D03*
X51967500Y-22762500D03*
X51467500Y-22762500D03*
X50967500Y-22762500D03*
D133*
X50280000Y-23450000D03*
X50280000Y-23950000D03*
X50280000Y-24450000D03*
X50280000Y-24950000D03*
X50280000Y-25450000D03*
X50280000Y-25950000D03*
X50280000Y-26450000D03*
X50280000Y-26950000D03*
D132*
X50967500Y-27637500D03*
X51467500Y-27637500D03*
X51967500Y-27637500D03*
X52467500Y-27637500D03*
X52967500Y-27637500D03*
X53467500Y-27637500D03*
X53967500Y-27637500D03*
X54467500Y-27637500D03*
D133*
X55155000Y-26950000D03*
X55155000Y-26450000D03*
X55155000Y-25950000D03*
X55155000Y-25450000D03*
X55155000Y-24950000D03*
X55155000Y-24450000D03*
X55155000Y-23950000D03*
X55155000Y-23450000D03*
D134*
X52717500Y-25200000D03*
%TD*%
D56*
%TO.C,JP3402*%
X74117200Y-70074000D03*
X74117200Y-71374000D03*
%TD*%
D114*
%TO.C,C32*%
X132640000Y-67280053D03*
X132640000Y-61939947D03*
%TD*%
D52*
%TO.C,R79*%
X109400000Y-85800000D03*
X109400000Y-84150000D03*
%TD*%
D31*
%TO.C,C2801*%
X73820000Y-42700000D03*
X74780000Y-42700000D03*
%TD*%
D23*
%TO.C,R165*%
X73787000Y-34240000D03*
X73787000Y-35260000D03*
%TD*%
D16*
%TO.C,C16*%
X102768400Y-59525000D03*
X102768400Y-57975000D03*
%TD*%
D135*
%TO.C,U84*%
X86720000Y-74370000D03*
X86720000Y-69970000D03*
%TD*%
D136*
%TO.C,C1704*%
X39900000Y-82472399D03*
X39900000Y-85422399D03*
%TD*%
D24*
%TO.C,C106*%
X121208800Y-37629800D03*
X121208800Y-39179800D03*
%TD*%
D89*
%TO.C,R1403*%
X84201000Y-33352200D03*
X84201000Y-32332200D03*
%TD*%
D78*
%TO.C,D17*%
X106600000Y-52730400D03*
X102300000Y-52730400D03*
%TD*%
D30*
%TO.C,C107*%
X129794000Y-34594800D03*
X131344000Y-34594800D03*
%TD*%
D137*
%TO.C,CN2*%
X71069200Y-61112400D03*
%TD*%
D23*
%TO.C,R103*%
X134220000Y-31170000D03*
X134220000Y-32190000D03*
%TD*%
D15*
%TO.C,R2*%
X113588800Y-31433000D03*
X113588800Y-33083000D03*
%TD*%
D124*
%TO.C,LED7*%
X109412313Y-89011500D03*
X109412313Y-87436500D03*
%TD*%
%TO.C,LED9*%
X96516719Y-89025000D03*
X96516719Y-87450000D03*
%TD*%
D89*
%TO.C,R160*%
X73787000Y-44660000D03*
X73787000Y-43640000D03*
%TD*%
D138*
%TO.C,BMS_Bypass_5V_SW3601*%
X90023188Y-87934800D03*
X94393188Y-87934800D03*
%TD*%
D48*
%TO.C,R182*%
X28380000Y-19757800D03*
X29400000Y-19757800D03*
%TD*%
%TO.C,R184*%
X28380000Y-21993000D03*
X29400000Y-21993000D03*
%TD*%
D44*
%TO.C,LED3*%
X121246600Y-25600000D03*
X119671600Y-25600000D03*
%TD*%
D75*
%TO.C,F3*%
X78600000Y-76112945D03*
X78600000Y-73312945D03*
%TD*%
D89*
%TO.C,R1405*%
X87080000Y-33350000D03*
X87080000Y-32330000D03*
%TD*%
D139*
%TO.C,Q1*%
X121950038Y-65200000D03*
X123849962Y-65200000D03*
X122900000Y-62997308D03*
%TD*%
D75*
%TO.C,F4*%
X80925248Y-76081145D03*
X80925248Y-73281145D03*
%TD*%
D23*
%TO.C,R605*%
X115890000Y-61101000D03*
X115890000Y-62121000D03*
%TD*%
D26*
%TO.C,U302*%
X47100000Y-23452500D03*
X47100000Y-23952500D03*
X47100000Y-24452500D03*
X47100000Y-24952500D03*
X47100000Y-25452500D03*
X47100000Y-25952500D03*
X47100000Y-26452500D03*
X47100000Y-26952500D03*
X48900000Y-26952500D03*
X48900000Y-26452500D03*
X48900000Y-25952500D03*
X48900000Y-25452500D03*
X48900000Y-24952500D03*
X48900000Y-24452500D03*
X48900000Y-23952500D03*
X48900000Y-23452500D03*
%TD*%
D52*
%TO.C,R77*%
X111300000Y-85788500D03*
X111300000Y-84138500D03*
%TD*%
D140*
%TO.C,SW2*%
X89958124Y-85170000D03*
X94458252Y-85170000D03*
D141*
X88708188Y-82669746D03*
X95708188Y-82669746D03*
%TD*%
M02*
