%TF.GenerationSoftware,KiCad,Pcbnew,9.0.7*%
%TF.CreationDate,2026-03-05T20:43:14+01:00*%
%TF.ProjectId,svea_powerboard_rev3,73766561-5f70-46f7-9765-72626f617264,rev?*%
%TF.SameCoordinates,Original*%
%TF.FileFunction,Copper,L4,Inr*%
%TF.FilePolarity,Positive*%
%FSLAX46Y46*%
G04 Gerber Fmt 4.6, Leading zero omitted, Abs format (unit mm)*
G04 Created by KiCad (PCBNEW 9.0.7) date 2026-03-05 20:43:14*
%MOMM*%
%LPD*%
G01*
G04 APERTURE LIST*
G04 Aperture macros list*
%AMHorizOval*
0 Thick line with rounded ends*
0 $1 width*
0 $2 $3 position (X,Y) of the first rounded end (center of the circle)*
0 $4 $5 position (X,Y) of the second rounded end (center of the circle)*
0 Add line between two ends*
20,1,$1,$2,$3,$4,$5,0*
0 Add two circle primitives to create the rounded ends*
1,1,$1,$2,$3*
1,1,$1,$4,$5*%
G04 Aperture macros list end*
%TA.AperFunction,ComponentPad*%
%ADD10O,3.800000X3.800000*%
%TD*%
%TA.AperFunction,ComponentPad*%
%ADD11O,2.200000X1.200000*%
%TD*%
%TA.AperFunction,ComponentPad*%
%ADD12O,1.200000X2.200000*%
%TD*%
%TA.AperFunction,ComponentPad*%
%ADD13R,1.000000X1.000000*%
%TD*%
%TA.AperFunction,ComponentPad*%
%ADD14O,1.000000X1.000000*%
%TD*%
%TA.AperFunction,ComponentPad*%
%ADD15O,4.600000X2.000000*%
%TD*%
%TA.AperFunction,ComponentPad*%
%ADD16O,2.000000X4.600000*%
%TD*%
%TA.AperFunction,ComponentPad*%
%ADD17O,2.300000X2.300000*%
%TD*%
%TA.AperFunction,ComponentPad*%
%ADD18O,1.000000X1.700000*%
%TD*%
%TA.AperFunction,ComponentPad*%
%ADD19O,0.650013X0.650013*%
%TD*%
%TA.AperFunction,ComponentPad*%
%ADD20O,0.900000X2.400000*%
%TD*%
%TA.AperFunction,ComponentPad*%
%ADD21O,0.900000X1.700000*%
%TD*%
%TA.AperFunction,ComponentPad*%
%ADD22R,1.600000X1.600000*%
%TD*%
%TA.AperFunction,ComponentPad*%
%ADD23O,1.600000X1.600000*%
%TD*%
%TA.AperFunction,ComponentPad*%
%ADD24R,1.700000X1.700000*%
%TD*%
%TA.AperFunction,ComponentPad*%
%ADD25C,1.700000*%
%TD*%
%TA.AperFunction,ComponentPad*%
%ADD26O,2.600000X2.600000*%
%TD*%
%TA.AperFunction,ComponentPad*%
%ADD27C,1.600000*%
%TD*%
%TA.AperFunction,ComponentPad*%
%ADD28C,3.500000*%
%TD*%
%TA.AperFunction,ComponentPad*%
%ADD29O,1.100000X2.500000*%
%TD*%
%TA.AperFunction,ComponentPad*%
%ADD30HorizOval,2.200000X0.000000X0.000000X0.000000X0.000000X0*%
%TD*%
%TA.AperFunction,ComponentPad*%
%ADD31C,7.000000*%
%TD*%
%TA.AperFunction,ComponentPad*%
%ADD32O,1.524003X1.524003*%
%TD*%
%TA.AperFunction,ComponentPad*%
%ADD33O,2.500000X2.500000*%
%TD*%
%TA.AperFunction,ViaPad*%
%ADD34C,0.600000*%
%TD*%
%TA.AperFunction,ViaPad*%
%ADD35C,0.500000*%
%TD*%
%TA.AperFunction,ViaPad*%
%ADD36C,1.200000*%
%TD*%
%TA.AperFunction,ViaPad*%
%ADD37C,0.900000*%
%TD*%
%TA.AperFunction,ViaPad*%
%ADD38C,1.500000*%
%TD*%
%TA.AperFunction,Conductor*%
%ADD39C,0.200000*%
%TD*%
%TA.AperFunction,Conductor*%
%ADD40C,0.300000*%
%TD*%
%TA.AperFunction,Conductor*%
%ADD41C,0.500000*%
%TD*%
%TA.AperFunction,Conductor*%
%ADD42C,0.400000*%
%TD*%
G04 APERTURE END LIST*
D10*
%TO.N,GND*%
%TO.C,CN103*%
X37544000Y-42461949D03*
%TO.N,VCC_ESC*%
X37544000Y-35262051D03*
D11*
%TO.N,unconnected-(CN103-Pad3)*%
X31544000Y-32111936D03*
%TO.N,unconnected-(CN103-Pad4)*%
X31544000Y-45612064D03*
%TD*%
D10*
%TO.N,/Battery System/Battery Power Path/BAT-*%
%TO.C,CN104*%
X68090549Y-72755500D03*
%TO.N,Net-(CN104-+)*%
X60890651Y-72755500D03*
D12*
%TO.N,unconnected-(CN104-Pad3)*%
X57740536Y-78755500D03*
%TO.N,unconnected-(CN104-Pad4)*%
X71240664Y-78755500D03*
%TD*%
D13*
%TO.N,Button{slash}LOW*%
%TO.C,U83*%
X115315991Y-21767801D03*
D14*
%TO.N,LED{slash}WS2815{slash}DATA*%
X115315991Y-20497799D03*
%TO.N,/Battery System/Mikroe mikroBus Shuttle Clone VITAL/RST*%
X116585994Y-21767801D03*
%TO.N,IO-Expander{slash}Primary{slash}INT*%
X116585994Y-20497799D03*
%TO.N,/Battery System/Mikroe mikroBus Shuttle Clone VITAL/CS*%
X117855996Y-21767801D03*
%TO.N,SBUS_RECEIVER*%
X117855996Y-20497799D03*
%TO.N,/Battery System/Mikroe mikroBus Shuttle Clone VITAL/SCK*%
X119125999Y-21767801D03*
%TO.N,/Battery System/Mikroe mikroBus Shuttle Clone VITAL/TX*%
X119125999Y-20497799D03*
%TO.N,/Battery System/Mikroe mikroBus Shuttle Clone VITAL/SDO*%
X120396001Y-21767801D03*
%TO.N,SCL_SLOW*%
X120396001Y-20497799D03*
%TO.N,/Battery System/Mikroe mikroBus Shuttle Clone VITAL/SDI*%
X121666004Y-21767801D03*
%TO.N,SDA_SLOW*%
X121666004Y-20497799D03*
%TO.N,+3V3*%
X122936006Y-21767801D03*
%TO.N,+5V*%
X122936006Y-20497799D03*
%TO.N,GND*%
X124206009Y-21767801D03*
X124206009Y-20497799D03*
%TD*%
D15*
%TO.N,/Battery System/DC_BARREL_20V_PORT*%
%TO.C,DC1*%
X117357438Y-75375000D03*
%TO.N,GND*%
X117357438Y-81575000D03*
D16*
X122057438Y-78375000D03*
%TD*%
D17*
%TO.N,/Battery System/CUR2/IN-1*%
%TO.C,CN101*%
X79480010Y-30530816D03*
X79480010Y-22910800D03*
%TO.N,/Battery System/CUR2/IN-2*%
X74400000Y-30530816D03*
X74400000Y-22910800D03*
%TO.N,/Battery System/CUR2/IN+3*%
X69319990Y-30530816D03*
X69319990Y-22910800D03*
%TO.N,GND*%
X64239980Y-30530816D03*
X64239980Y-22910800D03*
%TD*%
D18*
%TO.N,GND*%
%TO.C,USB1*%
X139079714Y-24644806D03*
X139079714Y-20844705D03*
X130439886Y-24644806D03*
X130439886Y-20844705D03*
%TD*%
D19*
%TO.N,GND*%
%TO.C,USB2002*%
X100075269Y-81009482D03*
%TO.N,/Battery System/USB-C Input/usbc_vbus*%
X100925409Y-81009482D03*
%TO.N,/Battery System/USB-C Input/cc1*%
X101775294Y-81009482D03*
%TO.N,/Battery System/USB-C Input/dp*%
X102625434Y-81009482D03*
%TO.N,/Battery System/USB-C Input/dn*%
X103475320Y-81009482D03*
%TO.N,unconnected-(USB2002-SBU1-PadA8)*%
X104325460Y-81009482D03*
%TO.N,/Battery System/USB-C Input/usbc_vbus*%
X105175345Y-81009482D03*
%TO.N,GND*%
X106025485Y-81009482D03*
X106025485Y-82359240D03*
%TO.N,/Battery System/USB-C Input/usbc_vbus*%
X105175345Y-82359240D03*
%TO.N,/Battery System/USB-C Input/cc2*%
X104325460Y-82359240D03*
%TO.N,/Battery System/USB-C Input/dp*%
X103475320Y-82359240D03*
%TO.N,/Battery System/USB-C Input/dn*%
X102625434Y-82359240D03*
%TO.N,unconnected-(USB2002-SBU2-PadB8)*%
X101775294Y-82359240D03*
%TO.N,/Battery System/USB-C Input/usbc_vbus*%
X100925409Y-82359240D03*
%TO.N,GND*%
X100075269Y-82359240D03*
D20*
X107375244Y-81989416D03*
D21*
X107375244Y-85369400D03*
X98725256Y-85369400D03*
D20*
X98725256Y-81989416D03*
%TD*%
D22*
%TO.N,+12V*%
%TO.C,CN2301*%
X139470500Y-41069936D03*
D23*
%TO.N,unconnected-(CN2301-Pad2)*%
X139470500Y-38570064D03*
%TO.N,Net-(U70-DO)*%
X139470500Y-36069936D03*
%TO.N,GND*%
X139470500Y-33570064D03*
%TD*%
D24*
%TO.N,GND*%
%TO.C,J103*%
X126765000Y-45925000D03*
D25*
%TO.N,/Battery System/3v3 rail/3v3_out*%
X124225000Y-45925000D03*
%TO.N,+3V3*%
X121685000Y-45925000D03*
%TD*%
D26*
%TO.N,/Battery System/CUR1/IN-3*%
%TO.C,U401*%
X103733596Y-29686400D03*
%TO.N,GND*%
X107696004Y-29686400D03*
%TD*%
D24*
%TO.N,GND*%
%TO.C,J101*%
X136780000Y-28600000D03*
D25*
%TO.N,/Battery System/mt9700-efuse1/OUT*%
X134240000Y-28600000D03*
%TO.N,+5V*%
X131700000Y-28600000D03*
%TD*%
D26*
%TO.N,/Battery System/CUR1/IN-2*%
%TO.C,U42*%
X94483591Y-29686400D03*
%TO.N,GND*%
X98445999Y-29686400D03*
%TD*%
D22*
%TO.N,Net-(CN102-Pad1)*%
%TO.C,CN102*%
X76141189Y-80050500D03*
D23*
%TO.N,Net-(CN102-Pad2)*%
X78641061Y-80050500D03*
%TO.N,Net-(CN102-Pad3)*%
X81141189Y-80050500D03*
%TO.N,/Battery System/Battery BMS Interface/BAL_CELL_BOT-*%
X83641061Y-80050500D03*
%TD*%
D22*
%TO.N,GND*%
%TO.C,H4*%
X31440000Y-60180000D03*
D27*
%TO.N,servo_vcc_indicator*%
X33980000Y-60180000D03*
%TO.N,/Battery System/ServoConnectors/Gear*%
X36520000Y-60180000D03*
%TO.N,GND*%
X31440000Y-62720000D03*
%TO.N,servo_vcc_indicator*%
X33980000Y-62720000D03*
%TO.N,/Battery System/ServoConnectors/Extra1*%
X36520000Y-62720000D03*
%TO.N,GND*%
X31440000Y-65260000D03*
%TO.N,servo_vcc_indicator*%
X33980000Y-65260000D03*
%TO.N,/Battery System/ServoConnectors/Extra2*%
X36520000Y-65260000D03*
%TO.N,GND*%
X31440000Y-67800000D03*
%TO.N,servo_vcc_indicator*%
X33980000Y-67800000D03*
%TO.N,/Battery System/ServoConnectors/Steering*%
X36520000Y-67800000D03*
%TD*%
D28*
%TO.N,Net-(CN104-+)*%
%TO.C,F1*%
X53150000Y-86250000D03*
X53150000Y-81250000D03*
%TO.N,/Battery System/Battery BMS Interface/BQ-BAT*%
X53150000Y-77050000D03*
X53150000Y-72050000D03*
%TD*%
D29*
%TO.N,Net-(U30-CSP)*%
%TO.C,L602*%
X139309987Y-62080000D03*
%TO.N,Net-(D11-Pad3)*%
X144609987Y-52880000D03*
%TD*%
D15*
%TO.N,Net-(DC2-Pad1)*%
%TO.C,DC2*%
X128875500Y-75350000D03*
%TO.N,GND*%
X128875500Y-81550000D03*
D16*
X133575500Y-78350000D03*
%TD*%
D30*
%TO.N,PACK+*%
%TO.C,C104*%
X58988808Y-51592818D03*
%TO.N,GND*%
X65786000Y-54762400D03*
%TD*%
D26*
%TO.N,/Battery System/CUR1/IN-1*%
%TO.C,U501*%
X85233586Y-29686400D03*
%TO.N,GND*%
X89195994Y-29686400D03*
%TD*%
D22*
%TO.N,GND*%
%TO.C,H3*%
X31440000Y-49000000D03*
D27*
%TO.N,/Battery System/ServoConnectors/3v3*%
X33980000Y-49000000D03*
%TO.N,SBUS_RECEIVER*%
X36520000Y-49000000D03*
%TO.N,GND*%
X31440000Y-51540000D03*
%TO.N,Net-(JP2102-A)*%
X33980000Y-51540000D03*
%TO.N,/Battery System/ServoConnectors/Throttle*%
X36520000Y-51540000D03*
%TO.N,GND*%
X31440000Y-54080000D03*
%TO.N,servo_vcc_indicator*%
X33980000Y-54080000D03*
%TO.N,/Battery System/ServoConnectors/FrontDiff*%
X36520000Y-54080000D03*
%TO.N,GND*%
X31440000Y-56620000D03*
%TO.N,servo_vcc_indicator*%
X33980000Y-56620000D03*
%TO.N,/Battery System/ServoConnectors/RearDiff*%
X36520000Y-56620000D03*
%TD*%
D31*
%TO.N,N/C*%
%TO.C,H1*%
X23918491Y-25551825D03*
X23918491Y-83551825D03*
X145418491Y-25551825D03*
X145418491Y-83551825D03*
%TD*%
D32*
%TO.N,Net-(C3601-Pad1)*%
%TO.C,SW2*%
X89958124Y-85170000D03*
%TO.N,Net-(JP3601-B)*%
X94458252Y-85170000D03*
D33*
%TO.N,GND*%
X88708188Y-82669746D03*
X95708188Y-82669746D03*
%TD*%
D34*
%TO.N,ADS1115{slash}ALERT*%
X56819800Y-19898000D03*
X59381070Y-21848999D03*
X62814200Y-31826200D03*
X65923400Y-35991800D03*
%TO.N,+3V3*%
X76887135Y-27098043D03*
X65923400Y-34944435D03*
%TO.N,Power{slash}12V-Buck{slash}IOUTMON*%
X72075391Y-37450002D03*
X72580800Y-29669016D03*
%TO.N,eFuse{slash}TPS16630{slash}IMON*%
X70429530Y-37450000D03*
%TO.N,Power{slash}12V-Buck{slash}IINMON*%
X71275389Y-37449999D03*
%TO.N,GND*%
X66838800Y-35727505D03*
%TO.N,Net-(D9-IO1)*%
X136626600Y-26619200D03*
%TO.N,Net-(D9-IO2)*%
X133146800Y-26619200D03*
D35*
%TO.N,GND*%
X63000000Y-49000000D03*
D34*
X118537452Y-53491600D03*
D35*
X133172200Y-40767000D03*
D34*
X61020000Y-23215822D03*
X93726000Y-44958000D03*
X101175000Y-50300000D03*
X114635984Y-61408948D03*
D35*
X69000000Y-48000000D03*
X72000000Y-54000000D03*
X70000000Y-57000000D03*
D34*
X144805400Y-19456400D03*
X37950000Y-73200000D03*
D35*
X67000000Y-61000000D03*
D34*
X94125000Y-51325000D03*
X120600000Y-58400000D03*
X90830400Y-19354800D03*
X25857200Y-88773000D03*
D35*
X72000000Y-61000000D03*
X64000000Y-51000000D03*
D34*
X105257600Y-75158600D03*
D35*
X68000000Y-61000000D03*
X69000000Y-51000000D03*
X64000000Y-50000000D03*
D34*
X126568200Y-30708600D03*
X57650000Y-27825000D03*
X106200000Y-56600000D03*
D35*
X67000000Y-52000000D03*
X68000000Y-49000000D03*
X69000000Y-54000000D03*
X65000000Y-50000000D03*
X65000000Y-52000000D03*
D34*
X20726400Y-78536800D03*
D35*
X73000000Y-50000000D03*
X73000000Y-59000000D03*
D34*
X20929600Y-66141600D03*
D35*
X63000000Y-53000000D03*
D34*
X96250000Y-49400000D03*
X142595600Y-78663800D03*
D35*
X109730000Y-60060000D03*
D34*
X106200000Y-58600000D03*
X100925000Y-51150000D03*
X89916000Y-43713400D03*
X120195300Y-66040000D03*
D35*
X69000000Y-49000000D03*
D34*
X105200000Y-58600000D03*
X89916000Y-44983400D03*
D35*
X70000000Y-54000000D03*
D34*
X122800000Y-59400000D03*
D35*
X68000000Y-57000000D03*
X69000000Y-56000000D03*
D34*
X23291800Y-74726800D03*
D35*
X72000000Y-52000000D03*
X64000000Y-54000000D03*
D34*
X86131400Y-43713400D03*
D35*
X133172200Y-39767000D03*
X65000000Y-48000000D03*
D34*
X122800000Y-56300000D03*
D35*
X72000000Y-60000000D03*
X64000000Y-61000000D03*
D34*
X104750000Y-87760000D03*
X23444200Y-76784200D03*
X115366800Y-36118800D03*
D35*
X67000000Y-51000000D03*
X42202208Y-81187500D03*
D34*
X100584000Y-21894800D03*
X92481400Y-44958000D03*
X121700000Y-61400000D03*
D35*
X67000000Y-49000000D03*
D34*
X113300000Y-56300000D03*
X83566000Y-42443400D03*
X91160600Y-47498000D03*
X83566000Y-38608000D03*
X124100000Y-55300000D03*
X117602000Y-55118000D03*
D35*
X69000000Y-61000000D03*
D34*
X125200000Y-55700000D03*
X120600000Y-56300000D03*
X56000000Y-28400000D03*
X94750000Y-50075000D03*
D35*
X70000000Y-61000000D03*
D34*
X112877600Y-43510200D03*
X102450000Y-57100000D03*
D35*
X70000000Y-56000000D03*
X73000000Y-57000000D03*
X70000000Y-52000000D03*
X68000000Y-48000000D03*
D34*
X37973000Y-72009000D03*
X88646000Y-44983400D03*
D35*
X31388000Y-73500000D03*
D34*
X127000000Y-55700000D03*
D35*
X43777208Y-78187500D03*
X69000000Y-59000000D03*
D34*
X100425000Y-64450000D03*
D35*
X71000000Y-50000000D03*
D34*
X105652800Y-75615800D03*
X117200000Y-62500000D03*
D35*
X64000000Y-48000000D03*
D34*
X124900000Y-26950000D03*
D35*
X73000000Y-53000000D03*
X42277208Y-79687500D03*
D34*
X122800000Y-60400000D03*
X91186000Y-44958000D03*
X35814000Y-22733000D03*
D35*
X73000000Y-61000000D03*
D34*
X110667800Y-24384000D03*
D35*
X71000000Y-54000000D03*
X67000000Y-58000000D03*
D34*
X21310600Y-74498200D03*
X84836000Y-43713400D03*
D35*
X63000000Y-58000000D03*
X66000000Y-50000000D03*
X68000000Y-58000000D03*
D34*
X105841800Y-78282800D03*
D35*
X133172200Y-37767000D03*
D34*
X148386800Y-78740000D03*
X99650000Y-58975000D03*
D35*
X68000000Y-54000000D03*
D34*
X34741559Y-83113552D03*
X107200000Y-56600000D03*
X72404800Y-24955200D03*
X91186000Y-43662600D03*
X106629200Y-78282800D03*
X113300000Y-54900000D03*
X94225000Y-50550000D03*
X140258800Y-88925400D03*
D35*
X63000000Y-55000000D03*
X70000000Y-59000000D03*
D34*
X28803600Y-37769800D03*
D35*
X66000000Y-48000000D03*
D34*
X106162600Y-70612000D03*
D35*
X64000000Y-52000000D03*
D34*
X122800000Y-61400000D03*
D35*
X73000000Y-51000000D03*
D34*
X120600000Y-61400000D03*
D35*
X71000000Y-49000000D03*
D36*
X145320790Y-47228999D03*
D35*
X70000000Y-48000000D03*
D34*
X43027727Y-83732736D03*
D35*
X66000000Y-51000000D03*
D34*
X118186400Y-53891600D03*
D35*
X63000000Y-52000000D03*
X63000000Y-56000000D03*
D34*
X115811452Y-53457400D03*
X106045000Y-75158600D03*
X117925000Y-65200000D03*
X118537452Y-54291600D03*
D35*
X65000000Y-59000000D03*
X42202208Y-82687500D03*
D34*
X106237000Y-78740000D03*
X123825000Y-41529000D03*
X117812452Y-54291600D03*
X110260000Y-60430000D03*
X131159000Y-19262600D03*
X101575000Y-58175000D03*
D35*
X66000000Y-58000000D03*
D34*
X95478600Y-22631400D03*
X99525000Y-60775000D03*
X113300000Y-54200000D03*
D35*
X65000000Y-53000000D03*
D34*
X20726400Y-46913800D03*
D35*
X69000000Y-52000000D03*
D34*
X124079000Y-30759400D03*
X52100000Y-23875000D03*
X87401400Y-44983400D03*
X117600000Y-63600000D03*
X101575000Y-59000000D03*
X89916000Y-38608000D03*
X35150000Y-29000000D03*
D35*
X69000000Y-50000000D03*
X65000000Y-51000000D03*
D34*
X95450000Y-49675000D03*
X115951000Y-55245000D03*
X87401400Y-38608000D03*
X20802600Y-62788800D03*
D35*
X72999600Y-48996600D03*
D34*
X89916000Y-41148000D03*
D35*
X64000000Y-53000000D03*
D34*
X140716000Y-81305400D03*
X92481400Y-43662600D03*
X43027727Y-80732736D03*
X92456000Y-47498000D03*
X87401400Y-43713400D03*
X88646000Y-39878000D03*
D35*
X69000000Y-53000000D03*
D34*
X115493800Y-31369000D03*
X89916000Y-47523400D03*
X83566000Y-44983400D03*
X116536452Y-53457400D03*
D35*
X69000000Y-58000000D03*
D34*
X107200000Y-57600000D03*
D35*
X68000000Y-50000000D03*
D34*
X99550000Y-64400000D03*
X98775000Y-64400000D03*
X148386800Y-20955000D03*
D35*
X64000000Y-56000000D03*
D34*
X86131400Y-39878000D03*
X138144000Y-18957800D03*
D35*
X66000000Y-59000000D03*
D34*
X43000000Y-74900000D03*
D35*
X70000000Y-49000000D03*
X29888000Y-73500000D03*
D34*
X106807000Y-71247000D03*
X113300000Y-57700000D03*
X32258000Y-41046400D03*
X123825000Y-42799000D03*
D35*
X73000000Y-52000000D03*
D34*
X23571200Y-89408000D03*
X88646000Y-43713400D03*
X27025600Y-20497800D03*
D35*
X73000000Y-58000000D03*
D34*
X58200000Y-28450000D03*
X87401400Y-39878000D03*
X93726000Y-46228000D03*
D35*
X73000000Y-56000000D03*
D34*
X103200000Y-56950000D03*
X72329800Y-26755200D03*
D35*
X71000000Y-55000000D03*
X30263000Y-72000000D03*
D34*
X88646000Y-38608000D03*
D35*
X72000000Y-57000000D03*
D34*
X102258673Y-77849428D03*
X100475000Y-49675000D03*
X125400000Y-65700000D03*
D35*
X72000000Y-59000000D03*
D34*
X93726000Y-43662600D03*
X118226697Y-37854242D03*
X86131400Y-38608000D03*
X142290800Y-19710400D03*
X105257600Y-76073000D03*
D35*
X43702208Y-81187500D03*
D34*
X117812452Y-53491600D03*
D35*
X71000000Y-52000000D03*
D34*
X26720800Y-19380200D03*
X85267800Y-19329400D03*
X139827000Y-85979000D03*
D35*
X34538000Y-73500000D03*
X63000000Y-59000000D03*
X68000000Y-52000000D03*
X71000000Y-59000000D03*
X63000000Y-48000000D03*
X64000000Y-60000000D03*
D34*
X116154200Y-53857400D03*
X121285000Y-55245000D03*
X106045000Y-76073000D03*
D35*
X133172200Y-38767000D03*
D34*
X72329800Y-25730200D03*
D35*
X72000000Y-49000000D03*
D34*
X35700000Y-72000000D03*
D35*
X71000000Y-53000000D03*
D34*
X119375000Y-65225000D03*
D35*
X137706200Y-20807000D03*
D34*
X115316000Y-35102800D03*
X105200000Y-57600000D03*
D35*
X63000000Y-60000000D03*
X67000000Y-57000000D03*
D34*
X145491200Y-77901800D03*
X20675600Y-43434000D03*
D35*
X72000000Y-48000000D03*
D34*
X100275000Y-50525000D03*
D35*
X137706200Y-21807000D03*
D34*
X122800000Y-58400000D03*
D35*
X67000000Y-53000000D03*
D34*
X132886200Y-19389600D03*
X43700000Y-73550000D03*
D35*
X63000000Y-61000000D03*
D34*
X126100000Y-55700000D03*
D35*
X129616200Y-22606000D03*
X71000000Y-60000000D03*
D34*
X125600000Y-56400000D03*
D35*
X68000000Y-51000000D03*
D34*
X127400000Y-65600000D03*
D35*
X25613000Y-78000000D03*
D34*
X84836000Y-44983400D03*
D35*
X43702208Y-82687500D03*
D34*
X122800000Y-57400000D03*
X107200000Y-58600000D03*
X89916000Y-39878000D03*
D35*
X72000000Y-55000000D03*
X70000000Y-51000000D03*
D34*
X92481400Y-46228000D03*
X123825000Y-42164000D03*
D35*
X27113000Y-75000000D03*
D34*
X121700000Y-59400000D03*
X41750000Y-22750000D03*
D35*
X72000000Y-53000000D03*
D34*
X105200000Y-56600000D03*
D35*
X70000000Y-53000000D03*
D34*
X120600000Y-60400000D03*
X35700000Y-73500000D03*
X113600000Y-59350000D03*
D35*
X68000000Y-53000000D03*
X71000000Y-51000000D03*
X64000000Y-57000000D03*
X73000000Y-60000000D03*
X73000000Y-54000000D03*
D34*
X125750000Y-30825000D03*
D35*
X25763000Y-72000000D03*
D34*
X25603200Y-20345400D03*
D35*
X67000000Y-60000000D03*
D34*
X116154200Y-31369000D03*
X93726000Y-47498000D03*
X106212500Y-57600000D03*
X43050000Y-76550000D03*
D35*
X71000000Y-57000000D03*
D34*
X91186000Y-46228000D03*
X100425000Y-60775000D03*
X51325000Y-23850000D03*
D35*
X64000000Y-49000000D03*
X71000000Y-56000000D03*
D34*
X21488400Y-76987400D03*
X47885700Y-82985500D03*
D35*
X72000000Y-50000000D03*
D34*
X22834600Y-19786600D03*
X106629200Y-79197200D03*
X106162600Y-71256400D03*
X87401400Y-42443400D03*
D35*
X64000000Y-55000000D03*
D34*
X86131400Y-44983400D03*
X48800000Y-75000000D03*
X84836000Y-39878000D03*
X42300000Y-73550000D03*
D35*
X73000000Y-48000000D03*
D34*
X95100000Y-77800000D03*
D35*
X66000000Y-60000000D03*
X71000000Y-58000000D03*
X68000000Y-56000000D03*
D34*
X119400000Y-31300000D03*
X89916000Y-42443400D03*
X97688400Y-22504400D03*
X72404800Y-27605200D03*
D35*
X72000000Y-51000000D03*
X28388000Y-73500000D03*
D34*
X43027727Y-79232864D03*
X101575000Y-57325000D03*
X83566000Y-41148000D03*
D35*
X70000000Y-60000000D03*
D34*
X127900000Y-55700000D03*
X43027727Y-82232864D03*
X83566000Y-43713400D03*
D35*
X25613000Y-75000000D03*
D34*
X98600000Y-60725000D03*
D35*
X25388000Y-73500000D03*
D34*
X27085000Y-89640002D03*
X121700000Y-57400000D03*
D35*
X73000000Y-55000000D03*
X66000000Y-49000000D03*
X27263000Y-72000000D03*
X67000000Y-48000000D03*
X26888000Y-73500000D03*
D34*
X20751800Y-57632600D03*
D35*
X70000000Y-50000000D03*
X42277208Y-78187500D03*
D34*
X121700000Y-58400000D03*
D35*
X27113000Y-78000000D03*
D34*
X129000000Y-63300000D03*
X120600000Y-57400000D03*
X122809000Y-29083000D03*
X120600000Y-59400000D03*
X124925000Y-30800000D03*
D35*
X66000000Y-61000000D03*
D34*
X128300000Y-64100000D03*
D35*
X67000000Y-59000000D03*
D34*
X21767800Y-31750000D03*
D35*
X67000000Y-50000000D03*
D34*
X36800000Y-71800000D03*
D35*
X68000000Y-59000000D03*
D34*
X129200000Y-30900000D03*
X43000000Y-72250000D03*
D35*
X72000000Y-58000000D03*
D34*
X139000000Y-47250000D03*
X84836000Y-38608000D03*
X57025000Y-28425000D03*
X52875000Y-23900000D03*
X87426800Y-19380200D03*
X121700000Y-60400000D03*
X34410000Y-84150000D03*
X53650000Y-23925000D03*
X88646000Y-41148000D03*
D35*
X66000000Y-53000000D03*
X28763000Y-72000000D03*
D34*
X28727400Y-40690800D03*
D35*
X25613000Y-76500000D03*
X69000000Y-60000000D03*
X64000000Y-59000000D03*
D34*
X20904200Y-59690000D03*
D35*
X43777208Y-79687500D03*
D34*
X99517200Y-21996400D03*
D35*
X34538000Y-72000000D03*
X66000000Y-57000000D03*
D34*
X25171400Y-19431000D03*
X118400000Y-66040000D03*
D35*
X69000000Y-55000000D03*
D34*
X84836000Y-42443400D03*
X113300000Y-53500000D03*
X116511452Y-54257400D03*
D35*
X68000000Y-60000000D03*
D34*
X115786452Y-54257400D03*
X84836000Y-41148000D03*
D35*
X27113000Y-76500000D03*
D34*
X109905800Y-19100800D03*
X142500000Y-34500000D03*
X20777200Y-54864000D03*
X86131400Y-41148000D03*
D35*
X68000000Y-55000000D03*
D34*
X105841800Y-79197200D03*
X20853400Y-50419000D03*
D35*
X72000000Y-56000000D03*
D34*
X118700000Y-65425000D03*
X121200000Y-63700000D03*
X42975000Y-87575000D03*
X106807000Y-70612000D03*
D35*
X71000000Y-48000000D03*
D34*
X38900000Y-71350000D03*
D35*
X71000000Y-61000000D03*
D34*
X147320000Y-19761200D03*
X88646000Y-42443400D03*
X101777800Y-19227800D03*
D35*
X63000000Y-54000000D03*
X70000000Y-58000000D03*
D34*
X121700000Y-56300000D03*
X93370400Y-22707600D03*
D35*
X63000000Y-51000000D03*
D34*
X113300000Y-58400000D03*
D35*
X65000000Y-60000000D03*
X63000000Y-57000000D03*
D34*
X127900000Y-56600000D03*
X89916000Y-46228000D03*
X27203400Y-68884800D03*
X86131400Y-42443400D03*
D35*
X65000000Y-49000000D03*
X64000000Y-58000000D03*
D34*
X112775000Y-48425000D03*
D35*
X66000000Y-52000000D03*
D34*
X87401400Y-41148000D03*
D35*
X63000000Y-50000000D03*
D34*
X130302000Y-37185600D03*
D35*
X69000000Y-57000000D03*
X65000000Y-61000000D03*
X65000000Y-57000000D03*
D34*
X83566000Y-39878000D03*
D35*
X65000000Y-58000000D03*
X70000000Y-55000000D03*
D34*
X105613200Y-19177000D03*
%TO.N,+3V3*%
X108900000Y-82775000D03*
X39950000Y-26000000D03*
X114900000Y-25400000D03*
X103025000Y-46375000D03*
X61250000Y-22150000D03*
X75844998Y-49861348D03*
X43000000Y-22150000D03*
X36195000Y-20308800D03*
X109500000Y-77300000D03*
X111450000Y-82875000D03*
X97038833Y-66928382D03*
X28584323Y-64758999D03*
X53800000Y-40850000D03*
X24000000Y-36500000D03*
X103054875Y-42125000D03*
X68970000Y-40522000D03*
X98850000Y-48350000D03*
X77416394Y-32750000D03*
X35715827Y-82670001D03*
X60975000Y-30574000D03*
X28450000Y-34000000D03*
X94250000Y-52300000D03*
X25000000Y-64750000D03*
X140450000Y-31769064D03*
%TO.N,+5V*%
X135350000Y-34350000D03*
D35*
%TO.N,VCC*%
X95040000Y-54925000D03*
X95148400Y-56184800D03*
X96405000Y-52325000D03*
D34*
X119900000Y-44850000D03*
D35*
X77703800Y-51000000D03*
X77778800Y-52500000D03*
X97510000Y-56225000D03*
X80703800Y-55500000D03*
X80778800Y-52500000D03*
X96210000Y-56225000D03*
X79203800Y-51000000D03*
X96340000Y-54925000D03*
X96405000Y-53625000D03*
X80778800Y-54000000D03*
X79203800Y-55500000D03*
D34*
X121203908Y-39116254D03*
X93926035Y-56804000D03*
D35*
X77778800Y-54000000D03*
D34*
X99050000Y-52100000D03*
D35*
X97640000Y-54925000D03*
D34*
X94063236Y-54185237D03*
D35*
X79278800Y-54000000D03*
X80703800Y-51000000D03*
D34*
X93726000Y-55524400D03*
D35*
X79278800Y-52500000D03*
X95105000Y-53625000D03*
X97705000Y-53625000D03*
X77703800Y-55500000D03*
X97705000Y-52325000D03*
D34*
%TO.N,/Battery System/Battery BMS Interface/VSS*%
X48970000Y-72340000D03*
X82042000Y-64897000D03*
X86338290Y-71739999D03*
X95300800Y-72745600D03*
X63850000Y-69408980D03*
D37*
X84370000Y-78329987D03*
D34*
X90119254Y-69530746D03*
%TO.N,/Battery System/Battery BMS Interface/VC3*%
X79681945Y-69560000D03*
%TO.N,/Battery System/Battery BMS Interface/VC4*%
X78250000Y-68910000D03*
X88771000Y-69948112D03*
%TO.N,/Battery System/Battery BMS Interface/VC1*%
X78746248Y-67469932D03*
%TO.N,/Battery System/Battery BMS Interface/VC0*%
X83997800Y-74549000D03*
D35*
%TO.N,/Battery System/Battery Power Path/BAT-*%
X67000000Y-67000000D03*
D34*
X64525000Y-76211200D03*
D35*
X68000000Y-67000000D03*
X69000000Y-69876000D03*
X70000000Y-68000000D03*
X68000000Y-68000000D03*
X67000000Y-69876000D03*
X70000000Y-69000000D03*
X70000000Y-69876000D03*
X67000000Y-69000000D03*
X69000000Y-69000000D03*
X68000000Y-69000000D03*
X69000000Y-67000000D03*
X69000000Y-68000000D03*
X67000000Y-68000000D03*
X70000000Y-67000000D03*
X68000000Y-69876000D03*
%TO.N,PACK+*%
X39519500Y-75285900D03*
X55750000Y-47625000D03*
X55750000Y-52125000D03*
X38919500Y-75495900D03*
X38919500Y-77295900D03*
X47012500Y-76870900D03*
X57250000Y-50625000D03*
X60250000Y-53625000D03*
X57250000Y-52125000D03*
X40119500Y-78165900D03*
X60250000Y-47625000D03*
X54250000Y-49125000D03*
X47012500Y-75070900D03*
X52750000Y-49125000D03*
X47012500Y-75670900D03*
X57250000Y-49125000D03*
X52750000Y-53625000D03*
X57250000Y-47625000D03*
X40119500Y-77565900D03*
X57250000Y-55125000D03*
X39519500Y-77085900D03*
X46412500Y-77860900D03*
X52750000Y-47625000D03*
X38919500Y-76695900D03*
X38919500Y-76095900D03*
X54250000Y-53625000D03*
X57250000Y-53625000D03*
X58750000Y-53625000D03*
X39519500Y-76485900D03*
X39519500Y-75885900D03*
X46412500Y-76660900D03*
X55750000Y-53625000D03*
X52750000Y-50625000D03*
X47012500Y-76270900D03*
X45812500Y-78340900D03*
X55750000Y-55125000D03*
X54250000Y-55125000D03*
X46405800Y-75974900D03*
X55750000Y-49125000D03*
X52750000Y-52125000D03*
X55750000Y-50625000D03*
X54250000Y-50625000D03*
X60250000Y-55125000D03*
X58750000Y-49125000D03*
X58750000Y-55125000D03*
X58750000Y-47625000D03*
X45812500Y-77740900D03*
X60250000Y-49125000D03*
X39519500Y-77685900D03*
X54250000Y-52125000D03*
X54250000Y-47625000D03*
X47012500Y-77470900D03*
X38919500Y-74895900D03*
D34*
X89625000Y-59041842D03*
D35*
X46412500Y-77260900D03*
%TO.N,+12V*%
X112350000Y-42375000D03*
D34*
X65738200Y-25125000D03*
X64338200Y-27400000D03*
X64338200Y-25775000D03*
X99826325Y-35910725D03*
X134250000Y-43800000D03*
D35*
X111525000Y-39375000D03*
D34*
X65038200Y-27400000D03*
X65738200Y-25775000D03*
X65038200Y-28050000D03*
X65038200Y-25775000D03*
D35*
X110025000Y-40875000D03*
X111525000Y-40875000D03*
D34*
X136450000Y-43800000D03*
D35*
X110025000Y-39375000D03*
D34*
X63638200Y-27400000D03*
D35*
X111225000Y-33375000D03*
D34*
X98718600Y-35175000D03*
X64338200Y-25125000D03*
D35*
X111075000Y-37875000D03*
D34*
X63638200Y-28050000D03*
X135250000Y-43800000D03*
X63638200Y-25125000D03*
X99774105Y-37104800D03*
D35*
X112725000Y-36375000D03*
D34*
X64338200Y-28050000D03*
D35*
X112575000Y-37875000D03*
D34*
X65038200Y-25125000D03*
X63638200Y-25775000D03*
D35*
X113025000Y-40875000D03*
D34*
X65738200Y-27400000D03*
D35*
X111225000Y-34875000D03*
D34*
X99850000Y-34525000D03*
X132650000Y-47500000D03*
D35*
X113025000Y-39375000D03*
D34*
X98667800Y-36625000D03*
X65738200Y-28050000D03*
D35*
X110850000Y-42375000D03*
D34*
%TO.N,IN-CHARGING-VCC-LIMITED*%
X118745000Y-48641000D03*
X127430000Y-57841000D03*
X116967000Y-49149000D03*
X117812452Y-52316600D03*
X116154200Y-51857400D03*
X118562452Y-52291600D03*
D35*
X110145000Y-47125000D03*
D34*
X114400000Y-49550000D03*
D35*
X108102400Y-47117000D03*
D34*
X101250000Y-59850000D03*
D35*
X108966000Y-48285400D03*
D34*
X116536452Y-51457400D03*
X118186400Y-51891600D03*
X115761452Y-52257400D03*
X117983000Y-48387000D03*
X121325000Y-48675000D03*
X118537452Y-51491600D03*
D35*
X108845000Y-47125000D03*
D34*
X110925000Y-45500000D03*
D35*
X108845000Y-45825000D03*
D34*
X116154200Y-58420000D03*
X116536452Y-52257400D03*
D35*
X110535000Y-44525000D03*
D34*
X117787452Y-51466600D03*
D35*
X108127800Y-46304200D03*
D34*
X110950000Y-46375000D03*
D35*
X110000000Y-48050000D03*
X108229400Y-45237400D03*
X110145000Y-45825000D03*
D34*
X115761452Y-51432400D03*
X117856000Y-49530000D03*
X119126000Y-49403000D03*
D35*
X110975000Y-47500000D03*
D34*
%TO.N,SDA_SLOW*%
X38950000Y-20850000D03*
X99275710Y-47605131D03*
X85725000Y-64008000D03*
X96688117Y-66185250D03*
X77723127Y-38986918D03*
X109400000Y-72800000D03*
X63718342Y-39332589D03*
X25512600Y-67465877D03*
X90779600Y-59050000D03*
X147145391Y-33924454D03*
X61230832Y-27860463D03*
X97300000Y-63250000D03*
X62650000Y-20300000D03*
X124799000Y-22599100D03*
%TO.N,SCL_SLOW*%
X100000000Y-48050000D03*
X126000000Y-22500000D03*
X25200000Y-66725000D03*
X39250000Y-24900000D03*
X61950000Y-37700000D03*
X114400000Y-70580002D03*
X84709000Y-64135000D03*
X95350000Y-63100000D03*
X63620000Y-20399000D03*
X90617600Y-58266572D03*
X60813224Y-27178111D03*
X147175000Y-33125000D03*
X79150000Y-41050000D03*
X39000000Y-21650000D03*
%TO.N,SBUS_RECEIVER*%
X28775000Y-45875000D03*
%TO.N,Button{slash}LOW*%
X94600000Y-66450000D03*
X110750000Y-28750000D03*
X82650000Y-28250000D03*
X72980000Y-20300000D03*
X96404326Y-72402575D03*
X87400000Y-87525000D03*
X111950000Y-26276000D03*
X83050000Y-23800000D03*
X97282000Y-73914000D03*
X96250000Y-80800000D03*
X60100000Y-20000000D03*
%TO.N,/Battery System/bms_button_logic/Button{slash}HIGH*%
X93218000Y-74803000D03*
X85750922Y-83267281D03*
X74498723Y-62146910D03*
X85500000Y-79230000D03*
X94200000Y-86500000D03*
X87630000Y-75819000D03*
X76000000Y-68850000D03*
D36*
%TO.N,/Battery System/Battery BMS Interface/BQ-BAT*%
X68859400Y-86893400D03*
D34*
X56250000Y-63000000D03*
%TO.N,Current{slash}INA3221-CUR1{slash}WARNING*%
X87150000Y-23300000D03*
X97847465Y-46942541D03*
X43427902Y-20050000D03*
X91950000Y-30150000D03*
X72861327Y-21091152D03*
%TO.N,/Battery System/Battery BMS Interface/PDSG*%
X49011816Y-73846149D03*
X89671130Y-61203870D03*
D35*
%TO.N,/Battery System/Ideal_Diode_OR_SERVO/IN*%
X40062500Y-85296900D03*
X45847500Y-85061900D03*
X38862500Y-87366900D03*
X38862500Y-86166900D03*
X46447500Y-87341900D03*
X46447500Y-84941900D03*
X39462500Y-87576900D03*
X47047500Y-85931900D03*
X38862500Y-86766900D03*
X38862500Y-87966900D03*
X46447500Y-86141900D03*
X40062500Y-84696900D03*
D34*
X50355400Y-81172850D03*
D35*
X39462500Y-85176900D03*
X39462500Y-86376900D03*
X38862500Y-85566900D03*
X45847500Y-84461900D03*
X47047500Y-87731900D03*
X46447500Y-86741900D03*
X39462500Y-85776900D03*
X39462500Y-86976900D03*
X47047500Y-85331900D03*
X47047500Y-87131900D03*
X47047500Y-86531900D03*
X46447500Y-85541900D03*
D34*
%TO.N,/Battery System/USBC_VCC*%
X101090000Y-67430000D03*
X104233263Y-67631735D03*
X99620000Y-70110000D03*
X100010000Y-66250000D03*
X100180000Y-71500000D03*
X102510000Y-67655000D03*
X101656958Y-68577551D03*
%TO.N,/Battery System/Battery BMS Interface/ALERT_PULLUP*%
X74676000Y-61315600D03*
X89700000Y-71750112D03*
X97350000Y-84350000D03*
X82546250Y-63249750D03*
%TO.N,Current{slash}INA3221-CUR1{slash}TC*%
X98318667Y-42197247D03*
X98104875Y-47700000D03*
X64949265Y-39450735D03*
X40650000Y-22750000D03*
%TO.N,/Battery System/CUR1/IN_1_P*%
X95850000Y-40125000D03*
X92283282Y-33232294D03*
%TO.N,/Battery System/CUR1/IN_1_N*%
X92274000Y-32168419D03*
X96375000Y-38975000D03*
%TO.N,/Battery System/CUR1/IN_3_N*%
X106197400Y-33832800D03*
X109325000Y-43775000D03*
%TO.N,/Battery System/CUR1/IN_3_P*%
X105638600Y-33020000D03*
X109325000Y-44650000D03*
%TO.N,/Battery System/CUR1/IN_2_P*%
X96103400Y-32837142D03*
X101396800Y-38455600D03*
%TO.N,/Battery System/CUR1/IN_2_N*%
X100330000Y-38404800D03*
X95940000Y-32020000D03*
%TO.N,/Battery System/INA226_SINGLE_CURR_SENSOR_ESC/VIN_N*%
X49733200Y-36804600D03*
%TO.N,/Battery System/INA226_SINGLE_CURR_SENSOR_ESC/VIN_P*%
X50622200Y-36804600D03*
%TO.N,/Battery System/CUR2/IN_3_N*%
X67100700Y-26787500D03*
%TO.N,/Battery System/CUR2/IN_3_P*%
X66858200Y-27725000D03*
%TO.N,/Battery System/CUR2/IN_2_P*%
X68925999Y-39680346D03*
%TO.N,/Battery System/CUR2/IN_2_N*%
X68598906Y-38258999D03*
%TO.N,/Battery System/CUR2/IN_1_P*%
X76589991Y-32883755D03*
%TO.N,/Battery System/CUR2/IN_1_N*%
X75862027Y-34852305D03*
%TO.N,/Battery System/mt9700-efuse1/EN*%
X131080000Y-29960000D03*
%TO.N,/Battery System/ServoConnectors/FrontDiff*%
X25719800Y-33857278D03*
%TO.N,/Battery System/ServoConnectors/Steering*%
X24765000Y-34036000D03*
%TO.N,/Battery System/ServoConnectors/Throttle*%
X23952200Y-32791400D03*
%TO.N,/Battery System/ServoConnectors/RearDiff*%
X25719800Y-36931600D03*
%TO.N,Current{slash}INA3221-CUR1{slash}POWERVALID*%
X96050000Y-45250000D03*
X77378445Y-29661555D03*
X61301530Y-19950000D03*
X44276429Y-20050000D03*
%TO.N,/Battery System/ServoConnectors/Gear*%
X25719800Y-39090600D03*
%TO.N,/Battery System/ServoConnectors/Extra2*%
X25719800Y-41503600D03*
%TO.N,/Battery System/ServoConnectors/Extra1*%
X25719800Y-40513000D03*
%TO.N,Current{slash}INA3221-CUR1{slash}CRITICAL*%
X96050003Y-47407761D03*
X42850000Y-19496800D03*
X82700000Y-29600000D03*
X81950000Y-20900000D03*
%TO.N,Current{slash}INA3221-CUR2{slash}WARNING*%
X41700527Y-24352000D03*
X79236643Y-38474104D03*
X61785671Y-40383600D03*
%TO.N,Current{slash}INA3221-CUR2{slash}TC*%
X76850000Y-32100000D03*
X46171793Y-22851793D03*
%TO.N,Current{slash}INA3221-CUR2{slash}POWERVALID*%
X42300528Y-24952000D03*
X43003619Y-31102149D03*
X75593314Y-36466784D03*
%TO.N,Current{slash}INA3221-CUR2{slash}CRITICAL*%
X40550000Y-23600000D03*
X50398585Y-32650000D03*
X76725188Y-37742573D03*
%TO.N,Button{slash}DIGITAL*%
X53045943Y-30781070D03*
X94070000Y-69010000D03*
X62972880Y-35567120D03*
X82530661Y-62449901D03*
X85184738Y-61349999D03*
%TO.N,servo_vcc_indicator*%
X21700000Y-68975190D03*
%TO.N,ESC{slash}EN*%
X49800000Y-32050000D03*
X71247000Y-45070002D03*
%TO.N,Power{slash}5V-Buck{slash}EN#*%
X113060000Y-28800000D03*
X123211250Y-34406050D03*
X61745153Y-31722353D03*
X53830000Y-30940000D03*
X77210000Y-27830000D03*
X66130000Y-23800000D03*
%TO.N,BQ{slash}ALERT*%
X97301000Y-62402473D03*
X97639513Y-66400000D03*
X102700000Y-85250000D03*
X89398238Y-58003999D03*
X95913679Y-61344415D03*
%TO.N,BQ{slash}RST-SHUT*%
X86230000Y-61517500D03*
X62120196Y-36918311D03*
%TO.N,USB-C{slash}HUSB238A{slash}EN#*%
X71373145Y-23673655D03*
X59600643Y-31269139D03*
X108280200Y-77038200D03*
X32740000Y-34420000D03*
X39370000Y-27840000D03*
%TO.N,Power{slash}5V-Buck{slash}PGOOD*%
X116931133Y-33219804D03*
X39400001Y-31764235D03*
X52830000Y-32010000D03*
%TO.N,USB-C{slash}HUSB238A{slash}INT*%
X108686600Y-75996800D03*
X106750000Y-89350000D03*
X37300000Y-66550000D03*
X44398387Y-29264487D03*
X109400913Y-90050913D03*
%TO.N,USB-C{slash}I2C{slash}EN*%
X107600000Y-72300000D03*
X38780000Y-58210000D03*
X42900528Y-28310000D03*
%TO.N,Servo{slash}TPS{slash}EN*%
X41151000Y-31761415D03*
X38910000Y-79500000D03*
%TO.N,Servo{slash}TPS{slash}PGOOD*%
X36025000Y-81828697D03*
X47999998Y-30298060D03*
%TO.N,Power{slash}12V-Buck{slash}EN*%
X79256290Y-37674343D03*
X45398470Y-28550000D03*
X77340933Y-28645889D03*
%TO.N,eFuse{slash}TPS16630{slash}FAULT*%
X60650000Y-21249000D03*
D35*
X112491744Y-55741088D03*
D34*
%TO.N,eFuse{slash}TPS16630{slash}SHDN*%
X58720000Y-20200000D03*
X109728000Y-56281783D03*
%TO.N,IO-Expander{slash}Primary{slash}INT*%
X61743920Y-30794829D03*
%TO.N,eFuse{slash}TPS16630{slash}IMON*%
X66736351Y-39330591D03*
D35*
X108466640Y-55668992D03*
D34*
X97556000Y-57912000D03*
%TO.N,Receiver{slash}EN*%
X43844265Y-26264265D03*
X29325000Y-34600000D03*
%TO.N,Net-(Q601-D)*%
X116426749Y-62705145D03*
D35*
%TO.N,eFuse{slash}TPS16630{slash}PGOOD*%
X112351520Y-55055274D03*
D34*
X55125064Y-19959000D03*
%TO.N,Current{slash}INA226-ESC-0x4E{slash}ALERT*%
X45550000Y-23475000D03*
X61985957Y-39071878D03*
%TO.N,Current{slash}INA226-SERVO-0x4F{slash}ALERT*%
X23400000Y-69200000D03*
X22025000Y-33425000D03*
%TO.N,Charger{slash}CN3072{slash}CHG-DONE*%
X46068127Y-26052500D03*
X113000000Y-74700000D03*
X117100000Y-59400000D03*
X113000000Y-87575000D03*
%TO.N,Charger{slash}CN3072{slash}CHG-ACTIVE*%
X45010264Y-27365385D03*
X110225000Y-88450000D03*
X117200000Y-58500000D03*
%TO.N,IMU{slash}INT1*%
X130600000Y-47700000D03*
X135483600Y-47849000D03*
X145137950Y-34962050D03*
X43672203Y-30662832D03*
%TO.N,IMU{slash}INT2*%
X137950000Y-48700000D03*
X44450000Y-30850000D03*
X147250000Y-30950000D03*
%TO.N,USB-C{slash}HUSB238A{slash}FAULT-OUT2*%
X28700000Y-33000000D03*
X27600000Y-88100000D03*
X36700000Y-58300000D03*
X35200000Y-31650000D03*
X107569000Y-77419200D03*
%TO.N,IO-Expander{slash}Secondary{slash}INT*%
X59575000Y-23175000D03*
%TO.N,Power{slash}12V-Buck{slash}IOUTMON*%
X80238600Y-36245800D03*
%TO.N,Power{slash}12V-Buck{slash}IINMON*%
X65938400Y-30988000D03*
X80864000Y-38485085D03*
%TO.N,LED{slash}WS2815{slash}DATA*%
X135720000Y-38890000D03*
D35*
%TO.N,/Battery System/mt9700-efuse1/OUT*%
X133162800Y-21920200D03*
X135162800Y-21920200D03*
X133162800Y-22920200D03*
X134162800Y-21920200D03*
X135162800Y-20920200D03*
X133162800Y-20920200D03*
D34*
X132207000Y-33909000D03*
D35*
X134162800Y-22920200D03*
D34*
X132969000Y-33909000D03*
X133731000Y-33909000D03*
D35*
X136162800Y-22920200D03*
X135162800Y-22920200D03*
X134162800Y-20920200D03*
D34*
%TO.N,Net-(U30-COM3)*%
X127140000Y-62701000D03*
X126170000Y-60401000D03*
%TO.N,Charger{slash}CN3722{slash}EN#*%
X125120400Y-62738000D03*
X84886800Y-21640800D03*
D35*
X54457600Y-19507200D03*
D34*
%TO.N,Net-(U65-VDD)*%
X104364085Y-72589172D03*
%TO.N,/Battery System/Ideal_Diode_OR_DC_PORT/IN*%
X119375000Y-69200000D03*
X119400000Y-70400000D03*
X120400000Y-67850000D03*
X120400000Y-68475000D03*
X118650000Y-68775000D03*
%TO.N,Net-(D18-A)*%
X107696000Y-79679800D03*
X98310000Y-77070000D03*
D35*
%TO.N,/Battery System/servo_vcc*%
X32742400Y-83062500D03*
X32742400Y-86062500D03*
X29892400Y-81562500D03*
X31017400Y-80062500D03*
X31392400Y-81562500D03*
X29742400Y-83062500D03*
X31242400Y-83062500D03*
X31617400Y-77062500D03*
X30117400Y-77062500D03*
X31542400Y-78562500D03*
X31242400Y-86062500D03*
X33117400Y-77062500D03*
X32892400Y-81562500D03*
X34017400Y-80062500D03*
X32742400Y-84562500D03*
X31617400Y-75562500D03*
X34617400Y-77062500D03*
X33117400Y-75562500D03*
X29667400Y-87562500D03*
X29517400Y-80062500D03*
X31242400Y-84562500D03*
X32517400Y-80062500D03*
X33042400Y-78562500D03*
X34542400Y-78562500D03*
X32667400Y-87562500D03*
X29742400Y-86062500D03*
X29742400Y-84562500D03*
X34617400Y-75562500D03*
X31167400Y-87562500D03*
X30042400Y-78562500D03*
D34*
%TO.N,/Battery System/danger_rail*%
X123317000Y-38862000D03*
X118922800Y-36906200D03*
X118922800Y-35687000D03*
X122174000Y-40005000D03*
X124425000Y-38077568D03*
X118922800Y-36296600D03*
X118922800Y-35077400D03*
X123190000Y-37947600D03*
X123317000Y-40005000D03*
%TO.N,/Battery System/USB-C Input/usbc_vbus*%
X104648000Y-77825600D03*
%TO.N,/Battery System/USB-C Input/cc2*%
X102666800Y-73355200D03*
X102521145Y-76112050D03*
%TO.N,/Battery System/USB-C Input/dn*%
X101897519Y-75610958D03*
X101581263Y-74312660D03*
%TO.N,Net-(NT2001-Pad2)*%
X107770198Y-74170000D03*
%TO.N,USBC_OR_DC20*%
X110300000Y-67105000D03*
D35*
X108370000Y-67500000D03*
X111295000Y-67500000D03*
D34*
X107600000Y-67945000D03*
D35*
X107695000Y-66000000D03*
D34*
X111700000Y-64500000D03*
X109230000Y-67040000D03*
D35*
X109195000Y-66000000D03*
D34*
X116551159Y-39359600D03*
D35*
X110695000Y-66000000D03*
D34*
X119900000Y-48387000D03*
X111530000Y-66390000D03*
%TO.N,CHARGE_DIRECT*%
X131419600Y-70053200D03*
X141730000Y-71050000D03*
X143090000Y-69590000D03*
X137500000Y-70520000D03*
X138000000Y-69300000D03*
X146150000Y-67462500D03*
X131690000Y-66260000D03*
X38912800Y-63855600D03*
X40980000Y-63310000D03*
X39522400Y-67208400D03*
X40487600Y-66700400D03*
X40843200Y-65176400D03*
X128270000Y-78079600D03*
X135600000Y-72930000D03*
X139650000Y-71590000D03*
X40792400Y-65887600D03*
X39217600Y-62128400D03*
X137970000Y-72430000D03*
X122059690Y-38260471D03*
X138720000Y-70390000D03*
X38074600Y-64414400D03*
X127711200Y-78841600D03*
X142230000Y-69280000D03*
X141500000Y-70140000D03*
X126238000Y-79044800D03*
X38074600Y-66141600D03*
X38963600Y-66700400D03*
X39450000Y-64450000D03*
X40030400Y-66243200D03*
X126746000Y-77876400D03*
X144870000Y-69710000D03*
X135480000Y-70660000D03*
X39624000Y-68072000D03*
X146580000Y-68800000D03*
X38049200Y-63068200D03*
X38404800Y-62331600D03*
X38963600Y-65582800D03*
X39979600Y-65328800D03*
X39200000Y-66200000D03*
X139420000Y-69300000D03*
X136610000Y-69380000D03*
X138811000Y-67515000D03*
X130708400Y-70612000D03*
X144040000Y-68720000D03*
X38912800Y-67665600D03*
X38862000Y-64922400D03*
X40386000Y-67614800D03*
X129286000Y-78740000D03*
X140563600Y-76606400D03*
X39116000Y-62839600D03*
X127254000Y-79349600D03*
X140560000Y-68620000D03*
X137970000Y-71480000D03*
X143550000Y-70560000D03*
X139540000Y-70660000D03*
X124968000Y-77978000D03*
X136093200Y-82092800D03*
X125730000Y-80213200D03*
X136780000Y-71670000D03*
X38150800Y-65430400D03*
%TO.N,Net-(JP3601-B)*%
X91266290Y-78332875D03*
X91870000Y-85561442D03*
%TO.N,Net-(D3602-K)*%
X73609200Y-79603600D03*
%TO.N,Net-(D3602-A)*%
X70104000Y-77216000D03*
X68110000Y-81140000D03*
X93497400Y-81407000D03*
X66070000Y-86360000D03*
%TO.N,Net-(U3601-GND)*%
X64480631Y-73974769D03*
X79648273Y-86162012D03*
X81483200Y-81686400D03*
X84353400Y-85115400D03*
%TO.N,Net-(Q3602-G)*%
X94869000Y-79883000D03*
%TO.N,Net-(U3601-INA+)*%
X81864200Y-86817200D03*
X79603600Y-85293200D03*
%TO.N,Net-(D11-Pad1)*%
X129550000Y-49150000D03*
X123800000Y-53675000D03*
X125550000Y-51525000D03*
X123925000Y-49375000D03*
X123875000Y-51475000D03*
X124725000Y-50400000D03*
X125550000Y-49375000D03*
X125550000Y-53700000D03*
X124675000Y-52575000D03*
%TO.N,BQ{slash}ALERT{slash}LED*%
X63078655Y-38234566D03*
X38800000Y-46750000D03*
X96950000Y-85750000D03*
%TO.N,Net-(LED9-K)*%
X97350000Y-88925000D03*
%TO.N,Net-(U2701-RT)*%
X116900000Y-32300000D03*
%TO.N,Net-(U82-EM)*%
X79550000Y-58250000D03*
%TO.N,Net-(U78-OE#)*%
X35164000Y-23685500D03*
%TO.N,Net-(U78-A0)*%
X33020000Y-20308800D03*
%TO.N,Net-(U78-A1)*%
X31430000Y-19620000D03*
%TO.N,Net-(U78-LED6)*%
X34620200Y-26441400D03*
%TO.N,Net-(U78-LED5)*%
X34697992Y-25599953D03*
%TO.N,Net-(U78-LED4)*%
X34153183Y-24845589D03*
%TO.N,Net-(U78-LED3)*%
X33541606Y-24254800D03*
%TO.N,Net-(U78-LED2)*%
X33070000Y-23368000D03*
%TO.N,Net-(U78-LED1)*%
X29159200Y-24612600D03*
%TO.N,Net-(U78-LED0)*%
X28422600Y-23164800D03*
%TO.N,Net-(U69-Y)*%
X137090000Y-33420000D03*
%TO.N,Net-(U65-DBG_N)*%
X105156000Y-72898000D03*
%TO.N,Net-(U62-OVP)*%
X108866533Y-59708483D03*
X110700000Y-62200000D03*
%TO.N,Net-(U62-UVLO)*%
X108027570Y-59571936D03*
X111647800Y-62215486D03*
%TO.N,Net-(U47-IOUT)*%
X102334998Y-41125000D03*
X92685724Y-33980989D03*
%TO.N,Net-(U70-DO)*%
X144217192Y-46905614D03*
%TO.N,Net-(U70-DIN1)*%
X145850000Y-48250000D03*
%TO.N,Net-(D30-C)*%
X62507907Y-66249000D03*
X63045542Y-69294200D03*
%TO.N,Net-(D25-Pad1)*%
X93700000Y-64580000D03*
X61849000Y-64897000D03*
%TO.N,Net-(D23-C)*%
X72180000Y-65650000D03*
X49316152Y-70180000D03*
%TO.N,Net-(U80-BAT)*%
X82058000Y-66310000D03*
D35*
%TO.N,Net-(U62-dVdT)*%
X110399998Y-58166000D03*
D34*
%TO.N,Net-(U30-CSP)*%
X126492000Y-59182000D03*
%TO.N,Net-(Q1-D)*%
X116840000Y-60452000D03*
X115102280Y-60758892D03*
X124000000Y-63000000D03*
%TO.N,Net-(Q13-G)*%
X51904500Y-67359000D03*
%TO.N,Net-(Q14-G)*%
X54040000Y-56660000D03*
%TO.N,Net-(Q12-D)*%
X118504781Y-34011852D03*
X122202301Y-35727600D03*
%TO.N,Net-(C1408-Pad1)*%
X85753386Y-33949071D03*
X98375000Y-39275000D03*
%TO.N,/Battery System/MicrocontrollerKickstart/OUT*%
X117230644Y-38506461D03*
X67050000Y-77250000D03*
%TO.N,Net-(U30-BAT)*%
X134250000Y-64900000D03*
%TO.N,Net-(C2705-Pad1)*%
X130302000Y-31960002D03*
X114526353Y-29411347D03*
D38*
%TO.N,/Battery System/5v rail/5V buck rail*%
X128143000Y-32479999D03*
X129406065Y-42300000D03*
D34*
%TO.N,Net-(C3601-Pad1)*%
X92710000Y-86040000D03*
X91617800Y-81076800D03*
%TO.N,CHARGING-IC{slash}OPEN-DRAIN-DIGIPOT-#EN*%
X102030000Y-62770000D03*
X53860000Y-30110000D03*
%TO.N,VCC_ESC*%
X25724265Y-35624265D03*
%TO.N,Net-(LED101-A)*%
X23550000Y-30000000D03*
%TO.N,Net-(JP1402-B)*%
X88600000Y-54200000D03*
X80748001Y-37351999D03*
%TO.N,/Battery System/IO-ExpanderPrimary/P0_3*%
X52084185Y-31720579D03*
%TO.N,/Battery System/IO-ExpanderPrimary/P1_4*%
X46199998Y-28850000D03*
%TO.N,Net-(JP1901-B)*%
X112190800Y-57150001D03*
%TD*%
D39*
%TO.N,ADS1115{slash}ALERT*%
X65923400Y-35794378D02*
X66524400Y-35193378D01*
X66524400Y-35193378D02*
X66524400Y-34695492D01*
X62969816Y-31981816D02*
X62814200Y-31826200D01*
X66524400Y-34695492D02*
X63810724Y-31981816D01*
X63810724Y-31981816D02*
X62969816Y-31981816D01*
X65923400Y-35991800D02*
X65923400Y-35794378D01*
%TO.N,Power{slash}12V-Buck{slash}IINMON*%
X65938400Y-30988000D02*
X65455800Y-31470600D01*
X69828530Y-37698943D02*
X70180586Y-38050999D01*
X65455800Y-31470600D02*
X65455800Y-32562800D01*
X71067772Y-38050999D02*
X71275389Y-37843382D01*
X65455800Y-32562800D02*
X69828530Y-36935530D01*
X71275389Y-37843382D02*
X71275389Y-37449999D01*
X69828530Y-36935530D02*
X69828530Y-37698943D01*
X70180586Y-38050999D02*
X71067772Y-38050999D01*
D40*
%TO.N,+3V3*%
X65923400Y-34944435D02*
X65802365Y-34944435D01*
X65802365Y-34944435D02*
X64620307Y-36126493D01*
X64620307Y-36126493D02*
X64620307Y-36293893D01*
X77416394Y-32750000D02*
X77416394Y-32978006D01*
X76859645Y-33534755D02*
X76320337Y-33534755D01*
X76320337Y-33534755D02*
X75938991Y-33153409D01*
X77416394Y-32978006D02*
X76859645Y-33534755D01*
X75938991Y-33153409D02*
X75938991Y-27721009D01*
X75938991Y-27721009D02*
X76561957Y-27098043D01*
X76561957Y-27098043D02*
X117554957Y-27098043D01*
X117554957Y-27098043D02*
X122885199Y-21767801D01*
X122885199Y-21767801D02*
X122936006Y-21767801D01*
D39*
%TO.N,Power{slash}12V-Buck{slash}IOUTMON*%
X73050400Y-31962800D02*
X73050400Y-36506670D01*
X72387157Y-37138236D02*
X72075391Y-37450002D01*
X72418834Y-37138236D02*
X72387157Y-37138236D01*
X72580800Y-31493200D02*
X73050400Y-31962800D01*
X72580800Y-29669016D02*
X72580800Y-31493200D01*
X73050400Y-36506670D02*
X72418834Y-37138236D01*
D40*
%TO.N,+3V3*%
X64620307Y-36293893D02*
X60251643Y-31925229D01*
X68970000Y-40522000D02*
X68848414Y-40522000D01*
X60251643Y-31297357D02*
X60975000Y-30574000D01*
X68848414Y-40522000D02*
X64620307Y-36293893D01*
X60251643Y-31925229D02*
X60251643Y-31297357D01*
X68970000Y-40522000D02*
X72863600Y-40522000D01*
X72863600Y-40522000D02*
X76787287Y-36598313D01*
X76787287Y-36598313D02*
X76787287Y-34718713D01*
X77416394Y-34089606D02*
X77416394Y-32750000D01*
X76787287Y-34718713D02*
X77416394Y-34089606D01*
X77216000Y-49834000D02*
X76758000Y-50292000D01*
X68970000Y-40522000D02*
X69298000Y-40850000D01*
X69298000Y-40850000D02*
X72168200Y-40850000D01*
X72168200Y-40850000D02*
X77216000Y-45897800D01*
X77216000Y-45897800D02*
X77216000Y-49834000D01*
X76758000Y-50292000D02*
X76275650Y-50292000D01*
X76275650Y-50292000D02*
X75844998Y-49861348D01*
%TO.N,SCL_SLOW*%
X126000000Y-22500000D02*
X126943806Y-23443806D01*
X139499546Y-27270200D02*
X145354346Y-33125000D01*
X145354346Y-33125000D02*
X147175000Y-33125000D01*
X132537200Y-23444200D02*
X132537200Y-23450454D01*
X132537200Y-23450454D02*
X136356946Y-27270200D01*
X132536806Y-23443806D02*
X132537200Y-23444200D01*
X126943806Y-23443806D02*
X132536806Y-23443806D01*
X136356946Y-27270200D02*
X139499546Y-27270200D01*
%TO.N,SDA_SLOW*%
X124799000Y-22599100D02*
X125057009Y-22341091D01*
X124558505Y-19646799D02*
X121958201Y-19646799D01*
X125057009Y-22341091D02*
X125057009Y-20145303D01*
X125057009Y-20145303D02*
X124558505Y-19646799D01*
X121958201Y-19646799D02*
X121666004Y-19938996D01*
X121666004Y-19938996D02*
X121666004Y-20497799D01*
X124799000Y-22599100D02*
X124924100Y-22599100D01*
X124924100Y-22599100D02*
X129724000Y-27399000D01*
X145445280Y-33924454D02*
X147145391Y-33924454D01*
X136360593Y-32419064D02*
X143939890Y-32419064D01*
X129724000Y-27399000D02*
X132335471Y-27399000D01*
X132335471Y-27399000D02*
X133039000Y-28102529D01*
X133039000Y-28102529D02*
X133039000Y-29097471D01*
X133039000Y-29097471D02*
X136360593Y-32419064D01*
X143939890Y-32419064D02*
X145445280Y-33924454D01*
%TO.N,SCL_SLOW*%
X126000000Y-22500000D02*
X126009400Y-22490600D01*
X121285000Y-19024600D02*
X120396001Y-19913599D01*
X126009400Y-22490600D02*
X126009400Y-20142200D01*
X126009400Y-20142200D02*
X124891800Y-19024600D01*
X124891800Y-19024600D02*
X121285000Y-19024600D01*
X120396001Y-19913599D02*
X120396001Y-20497799D01*
%TO.N,IO-Expander{slash}Primary{slash}INT*%
X61743920Y-30794829D02*
X61709000Y-30759909D01*
X92658919Y-19926200D02*
X114684094Y-19926200D01*
X61874400Y-29667200D02*
X62803454Y-29667200D01*
X63769654Y-28701000D02*
X72519254Y-28701000D01*
X72519254Y-28701000D02*
X74795254Y-26425000D01*
X62803454Y-29667200D02*
X63769654Y-28701000D01*
X61709000Y-30759909D02*
X61709000Y-29832600D01*
X74795254Y-26425000D02*
X86160119Y-26425000D01*
X61709000Y-29832600D02*
X61874400Y-29667200D01*
X86160119Y-26425000D02*
X92658919Y-19926200D01*
X114684094Y-19926200D02*
X114963495Y-19646799D01*
X114963495Y-19646799D02*
X115734994Y-19646799D01*
X115734994Y-19646799D02*
X116585994Y-20497799D01*
D41*
%TO.N,+3V3*%
X121918200Y-45925000D02*
X121685000Y-45925000D01*
X122936006Y-21767801D02*
X122936006Y-22579308D01*
X127736600Y-27379902D02*
X127736600Y-30683200D01*
X122936006Y-22579308D02*
X127736600Y-27379902D01*
X127736600Y-30683200D02*
X125425200Y-32994600D01*
X125425200Y-32994600D02*
X125425200Y-42418000D01*
X125425200Y-42418000D02*
X121918200Y-45925000D01*
D40*
%TO.N,Button{slash}LOW*%
X111950000Y-26276000D02*
X111950000Y-26000000D01*
X111950000Y-26000000D02*
X114858800Y-23091200D01*
X114858800Y-23091200D02*
X114858800Y-22224992D01*
X114858800Y-22224992D02*
X115315991Y-21767801D01*
D39*
%TO.N,+3V3*%
X35715827Y-82670001D02*
X35350000Y-82304174D01*
X28450000Y-34000000D02*
X31500000Y-34000000D01*
X35350000Y-75091232D02*
X30258768Y-70000000D01*
X30258768Y-70000000D02*
X30250000Y-70000000D01*
X97317952Y-66928382D02*
X104310627Y-73921057D01*
X99420000Y-48920000D02*
X98850000Y-48350000D01*
X39500000Y-26000000D02*
X39950000Y-26000000D01*
X25000000Y-64750000D02*
X24000000Y-63750000D01*
X103025000Y-46375000D02*
X103025000Y-47355000D01*
X103025000Y-47355000D02*
X101460000Y-48920000D01*
X24000000Y-63750000D02*
X24000000Y-36500000D01*
X31500000Y-34000000D02*
X39500000Y-26000000D01*
X105760914Y-73921057D02*
X107235657Y-75395800D01*
X104310627Y-73921057D02*
X105760914Y-73921057D01*
X35350000Y-82304174D02*
X35350000Y-75091232D01*
X108935543Y-75395800D02*
X109500000Y-75960257D01*
D40*
X94900000Y-52300000D02*
X98850000Y-48350000D01*
D39*
X107235657Y-75395800D02*
X108935543Y-75395800D01*
X103054875Y-42125000D02*
X103025000Y-42154875D01*
D40*
X94250000Y-52300000D02*
X94900000Y-52300000D01*
D39*
X109500000Y-75960257D02*
X109500000Y-77300000D01*
X101460000Y-48920000D02*
X99420000Y-48920000D01*
X103025000Y-42154875D02*
X103025000Y-46375000D01*
X97038833Y-66928382D02*
X97317952Y-66928382D01*
X30250000Y-70000000D02*
X25000000Y-64750000D01*
D40*
%TO.N,/Battery System/Battery BMS Interface/VSS*%
X49711263Y-71598737D02*
X48970000Y-72340000D01*
X62203346Y-69949000D02*
X52279737Y-69949000D01*
X50630000Y-71598737D02*
X49711263Y-71598737D01*
X63850000Y-69408980D02*
X63232980Y-70026000D01*
X62280346Y-70026000D02*
X62203346Y-69949000D01*
X63232980Y-70026000D02*
X62280346Y-70026000D01*
X52279737Y-69949000D02*
X50630000Y-71598737D01*
%TO.N,/Battery System/Battery BMS Interface/VC4*%
X88771000Y-69340650D02*
X88340350Y-68910000D01*
X88340350Y-68910000D02*
X78250000Y-68910000D01*
X88771000Y-69948112D02*
X88771000Y-69340650D01*
%TO.N,/Battery System/Battery Power Path/BAT-*%
X67936200Y-72800000D02*
X64525000Y-76211200D01*
%TO.N,PACK+*%
X89625000Y-59495000D02*
X88420000Y-60700000D01*
X57147000Y-46228000D02*
X52750000Y-50625000D01*
X88420000Y-60700000D02*
X76702000Y-60700000D01*
X74680000Y-47400400D02*
X73507600Y-46228000D01*
X73507600Y-46228000D02*
X57147000Y-46228000D01*
X74680000Y-58678000D02*
X74680000Y-47400400D01*
X76702000Y-60700000D02*
X74680000Y-58678000D01*
X89625000Y-59041842D02*
X89625000Y-59495000D01*
%TO.N,IN-CHARGING-VCC-LIMITED*%
X125261654Y-57841000D02*
X121325000Y-53904346D01*
X127430000Y-57841000D02*
X125261654Y-57841000D01*
X121325000Y-53904346D02*
X121325000Y-48675000D01*
X114400000Y-56665800D02*
X116154200Y-58420000D01*
X114400000Y-49550000D02*
X114400000Y-56665800D01*
D39*
%TO.N,SDA_SLOW*%
X63718342Y-39332589D02*
X63718342Y-39631658D01*
X43550000Y-20650000D02*
X39600000Y-20650000D01*
D40*
X91501000Y-62120895D02*
X89613895Y-64008000D01*
D39*
X22800000Y-65174943D02*
X25090934Y-67465877D01*
X38950000Y-20850000D02*
X37398000Y-19298000D01*
X25090934Y-67465877D02*
X25512600Y-67465877D01*
X53435170Y-20650000D02*
X60645633Y-27860463D01*
X61899000Y-41451000D02*
X46951000Y-41451000D01*
X37398000Y-19298000D02*
X36028557Y-19298000D01*
X46951000Y-41451000D02*
X40551000Y-35051000D01*
D40*
X90779600Y-59050000D02*
X90779600Y-59485390D01*
X91501000Y-60206790D02*
X91501000Y-62120895D01*
X89613895Y-64008000D02*
X85725000Y-64008000D01*
D39*
X40551000Y-25351057D02*
X38150000Y-22950057D01*
X40551000Y-35051000D02*
X40551000Y-25351057D01*
D40*
X90779600Y-59485390D02*
X91501000Y-60206790D01*
D39*
X38150000Y-21650000D02*
X38950000Y-20850000D01*
X36028557Y-19298000D02*
X22800000Y-32526557D01*
X63718342Y-39631658D02*
X61899000Y-41451000D01*
X38150000Y-22950057D02*
X38150000Y-21650000D01*
X22800000Y-32526557D02*
X22800000Y-65174943D01*
X43550000Y-20650000D02*
X53435170Y-20650000D01*
X60645633Y-27860463D02*
X61230832Y-27860463D01*
X39400000Y-20850000D02*
X38950000Y-20850000D01*
X39600000Y-20650000D02*
X39400000Y-20850000D01*
D40*
%TO.N,SCL_SLOW*%
X147266591Y-33125000D02*
X147175000Y-33125000D01*
X92175000Y-58400000D02*
X92600000Y-58825000D01*
D39*
X91481815Y-58252215D02*
X91504600Y-58275000D01*
X63474766Y-20575234D02*
X61851000Y-22199000D01*
X61398423Y-27178111D02*
X60813224Y-27178111D01*
X23375000Y-33064143D02*
X23375000Y-64900000D01*
X39250000Y-24900000D02*
X38675000Y-25475000D01*
X37350000Y-25475000D02*
X31651000Y-31174000D01*
D40*
X114400000Y-70580002D02*
X115119998Y-71300000D01*
X90987557Y-58266572D02*
X91120985Y-58400000D01*
D39*
X38675000Y-25475000D02*
X37350000Y-25475000D01*
X24719657Y-31174000D02*
X23351200Y-32542457D01*
X61479775Y-28461463D02*
X61831832Y-28109406D01*
D40*
X90617600Y-58266572D02*
X90987557Y-58266572D01*
D39*
X90631957Y-58252215D02*
X91481815Y-58252215D01*
X40004684Y-21341025D02*
X53559095Y-21341025D01*
X60032137Y-28461463D02*
X61479775Y-28461463D01*
X60679533Y-28461463D02*
X61479775Y-28461463D01*
D40*
X92600000Y-61730415D02*
X89630415Y-64700000D01*
D39*
X61601828Y-22648115D02*
X61620998Y-22667284D01*
X61620998Y-22667284D02*
X61620998Y-25749489D01*
D40*
X115119998Y-71300000D02*
X128300000Y-71300000D01*
D39*
X91504600Y-58275000D02*
X92075000Y-58275000D01*
X92075000Y-58275000D02*
X95350000Y-61550000D01*
X23375000Y-64900000D02*
X25200000Y-66725000D01*
X61950000Y-37700000D02*
X58878302Y-34628302D01*
X58878302Y-29615298D02*
X60032137Y-28461463D01*
X31651000Y-31174000D02*
X24719657Y-31174000D01*
D40*
X85274000Y-64700000D02*
X84709000Y-64135000D01*
D39*
X95350000Y-61550000D02*
X95350000Y-63100000D01*
D40*
X148200000Y-37000000D02*
X148200000Y-34058409D01*
D39*
X58878302Y-34628302D02*
X58878302Y-29615298D01*
D40*
X133301000Y-51899000D02*
X148200000Y-37000000D01*
D39*
X53559095Y-21341025D02*
X60679533Y-28461463D01*
D40*
X91120985Y-58400000D02*
X92175000Y-58400000D01*
D39*
X61831832Y-28109406D02*
X61831832Y-27611520D01*
X23351200Y-33040343D02*
X23375000Y-33064143D01*
X90617600Y-58266572D02*
X90631957Y-58252215D01*
D40*
X148200000Y-34058409D02*
X147266591Y-33125000D01*
D39*
X61620998Y-25749489D02*
X60502800Y-26867687D01*
X39695709Y-21650000D02*
X40004684Y-21341025D01*
X61831832Y-27611520D02*
X61398423Y-27178111D01*
X63620000Y-20399000D02*
X63474766Y-20544234D01*
X60502800Y-26867687D02*
X60813224Y-27178111D01*
D40*
X92600000Y-58825000D02*
X92600000Y-61730415D01*
D39*
X23351200Y-32542457D02*
X23351200Y-33040343D01*
X39000000Y-21650000D02*
X39695709Y-21650000D01*
D40*
X133301000Y-66299000D02*
X133301000Y-51899000D01*
X128300000Y-71300000D02*
X133301000Y-66299000D01*
D39*
X63474766Y-20544234D02*
X63474766Y-20575234D01*
D40*
X89630415Y-64700000D02*
X85274000Y-64700000D01*
D39*
X61851000Y-22398943D02*
X61601828Y-22648115D01*
X61851000Y-22199000D02*
X61851000Y-22398943D01*
D40*
%TO.N,SBUS_RECEIVER*%
X34799000Y-47279000D02*
X35950000Y-48430000D01*
X28775000Y-45875000D02*
X30179000Y-47279000D01*
X30179000Y-47279000D02*
X34799000Y-47279000D01*
X35950000Y-48430000D02*
X36587700Y-48430000D01*
%TO.N,Button{slash}LOW*%
X110750000Y-30750000D02*
X109131000Y-32369000D01*
X110750000Y-28750000D02*
X110750000Y-30750000D01*
X94600000Y-64670000D02*
X94600000Y-66450000D01*
X100301000Y-59244654D02*
X99919654Y-59626000D01*
X82890000Y-28010000D02*
X82650000Y-28250000D01*
X110750000Y-28750000D02*
X110010000Y-28010000D01*
X103705875Y-34032071D02*
X103705875Y-54194125D01*
X103705875Y-54194125D02*
X100301000Y-57599000D01*
X100301000Y-57599000D02*
X100301000Y-59244654D01*
X109131000Y-32369000D02*
X105368946Y-32369000D01*
X95519000Y-63751000D02*
X94600000Y-64670000D01*
X96001000Y-62242654D02*
X96001000Y-63369654D01*
X96001000Y-63369654D02*
X95619654Y-63751000D01*
X99919654Y-59626000D02*
X98617654Y-59626000D01*
X95619654Y-63751000D02*
X95519000Y-63751000D01*
X105368946Y-32369000D02*
X103705875Y-34032071D01*
X110010000Y-28010000D02*
X82890000Y-28010000D01*
X98617654Y-59626000D02*
X96001000Y-62242654D01*
D39*
%TO.N,Current{slash}INA3221-CUR1{slash}WARNING*%
X45325372Y-20249000D02*
X44525372Y-19449000D01*
X63769943Y-19699000D02*
X62401057Y-19699000D01*
X98550000Y-44350000D02*
X98524800Y-44375200D01*
X53601270Y-20249000D02*
X45325372Y-20249000D01*
X54312270Y-20960000D02*
X53601270Y-20249000D01*
X98524800Y-46373261D02*
X97955520Y-46942541D01*
X62401057Y-19699000D02*
X61451057Y-20649000D01*
X97955520Y-46942541D02*
X97847465Y-46942541D01*
X90657000Y-38007000D02*
X97000000Y-44350000D01*
X70991152Y-21091152D02*
X70549000Y-20649000D01*
X61451057Y-20649000D02*
X59631057Y-20649000D01*
X85152386Y-34198014D02*
X88961372Y-38007000D01*
X70549000Y-20649000D02*
X64719943Y-20649000D01*
X98524800Y-44375200D02*
X98524800Y-46373261D01*
X85152386Y-33700128D02*
X85152386Y-34198014D01*
X44028902Y-19449000D02*
X43427902Y-20050000D01*
X44525372Y-19449000D02*
X44028902Y-19449000D01*
X59631057Y-20649000D02*
X59320057Y-20960000D01*
X88961372Y-38007000D02*
X90657000Y-38007000D01*
X88751929Y-33348071D02*
X85504443Y-33348071D01*
X72861327Y-21091152D02*
X70991152Y-21091152D01*
X59320057Y-20960000D02*
X54312270Y-20960000D01*
X85504443Y-33348071D02*
X85152386Y-33700128D01*
X64719943Y-20649000D02*
X63769943Y-19699000D01*
X97000000Y-44350000D02*
X98550000Y-44350000D01*
X91950000Y-30150000D02*
X88751929Y-33348071D01*
D40*
%TO.N,/Battery System/Battery BMS Interface/PDSG*%
X89090293Y-62167500D02*
X84618450Y-62167500D01*
X56250000Y-70975000D02*
X56250000Y-71921263D01*
X56250000Y-71921263D02*
X54020263Y-74151000D01*
X64500000Y-65800000D02*
X64500000Y-69700000D01*
X52111000Y-74151000D02*
X52072000Y-74190000D01*
X89673145Y-61205885D02*
X89673145Y-61584648D01*
X63651000Y-70549000D02*
X56676000Y-70549000D01*
X64500000Y-69700000D02*
X63651000Y-70549000D01*
X56676000Y-70549000D02*
X56250000Y-70975000D01*
X89671130Y-61203870D02*
X89673145Y-61205885D01*
X52072000Y-74190000D02*
X49283028Y-74190000D01*
X65300000Y-65000000D02*
X64500000Y-65800000D01*
X49011816Y-73918788D02*
X49011816Y-73846149D01*
X82836200Y-63949750D02*
X81650250Y-63949750D01*
X89673145Y-61584648D02*
X89090293Y-62167500D01*
X49283028Y-74190000D02*
X49011816Y-73918788D01*
X84618450Y-62167500D02*
X82836200Y-63949750D01*
X80600000Y-65000000D02*
X65300000Y-65000000D01*
X54020263Y-74151000D02*
X52111000Y-74151000D01*
X81650250Y-63949750D02*
X80600000Y-65000000D01*
%TO.N,/Battery System/Battery BMS Interface/ALERT_PULLUP*%
X82546250Y-63249750D02*
X78108750Y-63249750D01*
X76174600Y-61315600D02*
X74676000Y-61315600D01*
X78108750Y-63249750D02*
X76174600Y-61315600D01*
D39*
%TO.N,Current{slash}INA3221-CUR1{slash}TC*%
X64598943Y-38299000D02*
X63901988Y-38299000D01*
X62828122Y-39671878D02*
X58838978Y-39671878D01*
X63117342Y-39382658D02*
X62828122Y-39671878D01*
X64951000Y-38900002D02*
X64951000Y-38651057D01*
X64950000Y-38979437D02*
X64950000Y-38901002D01*
X58838978Y-39671878D02*
X42567157Y-23400057D01*
X63901988Y-38299000D02*
X63117342Y-39083646D01*
X64950000Y-38901002D02*
X64951000Y-38900002D01*
X41300057Y-23400057D02*
X40650000Y-22750000D01*
X42567157Y-23400057D02*
X41300057Y-23400057D01*
X64951000Y-38651057D02*
X64598943Y-38299000D01*
X99400000Y-46404875D02*
X99400000Y-43278580D01*
X99400000Y-43278580D02*
X98318667Y-42197247D01*
X64949265Y-39450735D02*
X64949265Y-38980172D01*
X98104875Y-47700000D02*
X99400000Y-46404875D01*
X64949265Y-38980172D02*
X64950000Y-38979437D01*
X63117342Y-39083646D02*
X63117342Y-39382658D01*
%TO.N,/Battery System/CUR1/IN_1_P*%
X94000000Y-37450000D02*
X94000000Y-34193198D01*
X95850000Y-40125000D02*
X95850000Y-39300000D01*
X93039096Y-33232294D02*
X92283282Y-33232294D01*
X95850000Y-39300000D02*
X94000000Y-37450000D01*
X94000000Y-34193198D02*
X93039096Y-33232294D01*
%TO.N,/Battery System/CUR1/IN_1_N*%
X94450000Y-34006802D02*
X92611617Y-32168419D01*
X96375000Y-38975000D02*
X94450000Y-37050000D01*
X94450000Y-37050000D02*
X94450000Y-34006802D01*
X92611617Y-32168419D02*
X92274000Y-32168419D01*
%TO.N,/Battery System/CUR1/IN_3_N*%
X109325000Y-43775000D02*
X106299000Y-40749000D01*
X106299000Y-33934400D02*
X106197400Y-33832800D01*
X106299000Y-40749000D02*
X106299000Y-33934400D01*
%TO.N,/Battery System/CUR1/IN_3_P*%
X106847400Y-33563561D02*
X106303839Y-33020000D01*
X106303839Y-33020000D02*
X105638600Y-33020000D01*
X109950000Y-43500000D02*
X106847400Y-40397400D01*
X109325000Y-44650000D02*
X109950000Y-44025000D01*
X106847400Y-40397400D02*
X106847400Y-33563561D01*
X109950000Y-44025000D02*
X109950000Y-43500000D01*
%TO.N,/Battery System/CUR1/IN_2_P*%
X99356273Y-39401627D02*
X98882900Y-39875000D01*
X98125057Y-39875000D02*
X97425000Y-39174943D01*
X98882900Y-39875000D02*
X98125057Y-39875000D01*
X97425000Y-39174943D02*
X97425000Y-33874200D01*
X100696000Y-37754800D02*
X99356273Y-37754800D01*
X99356273Y-37754800D02*
X99356273Y-39401627D01*
X101396800Y-38455600D02*
X100696000Y-37754800D01*
X97425000Y-33874200D02*
X96387942Y-32837142D01*
X96387942Y-32837142D02*
X96103400Y-32837142D01*
%TO.N,/Battery System/CUR1/IN_2_N*%
X100330000Y-38995000D02*
X99025000Y-40300000D01*
X95427800Y-36379885D02*
X95427800Y-32532200D01*
X97022000Y-39347000D02*
X97022000Y-37974085D01*
X97975000Y-40300000D02*
X97022000Y-39347000D01*
X99025000Y-40300000D02*
X97975000Y-40300000D01*
X97022000Y-37974085D02*
X95427800Y-36379885D01*
X95427800Y-32532200D02*
X95940000Y-32020000D01*
X100330000Y-38404800D02*
X100330000Y-38995000D01*
%TO.N,/Battery System/ServoConnectors/FrontDiff*%
X27569801Y-48855001D02*
X27569801Y-35707279D01*
X34436050Y-52641000D02*
X33185950Y-52641000D01*
X36587700Y-53510000D02*
X35305050Y-53510000D01*
X35305050Y-53510000D02*
X34436050Y-52641000D01*
X31896050Y-50439000D02*
X29153800Y-50439000D01*
X33185950Y-52641000D02*
X32541000Y-51996050D01*
X29153800Y-50439000D02*
X27569801Y-48855001D01*
X32541000Y-51083950D02*
X31896050Y-50439000D01*
X27569801Y-35707279D02*
X25719800Y-33857278D01*
X32541000Y-51996050D02*
X32541000Y-51083950D01*
%TO.N,/Battery System/ServoConnectors/Steering*%
X33523950Y-66361000D02*
X32879000Y-65716050D01*
X30339000Y-63176050D02*
X30339000Y-62158350D01*
X30983950Y-63821000D02*
X30339000Y-63176050D01*
X31896050Y-63821000D02*
X30983950Y-63821000D01*
X24765000Y-56584350D02*
X24765000Y-34036000D01*
X30339000Y-62158350D02*
X24765000Y-56584350D01*
X32879000Y-65716050D02*
X32879000Y-64803950D01*
X35081000Y-66361000D02*
X33523950Y-66361000D01*
X32879000Y-64803950D02*
X31896050Y-63821000D01*
X36520000Y-67800000D02*
X35081000Y-66361000D01*
%TO.N,/Battery System/ServoConnectors/Throttle*%
X32541000Y-49530000D02*
X32541000Y-47899000D01*
X35305050Y-50970000D02*
X34436050Y-50101000D01*
X34436050Y-50101000D02*
X33112000Y-50101000D01*
X30339000Y-49530000D02*
X28855000Y-49530000D01*
X28100000Y-35318239D02*
X25573161Y-32791400D01*
X28855000Y-49530000D02*
X28100000Y-48775000D01*
X28100000Y-48775000D02*
X28100000Y-35318239D01*
X36587700Y-50970000D02*
X35305050Y-50970000D01*
X25573161Y-32791400D02*
X23952200Y-32791400D01*
X33112000Y-50101000D02*
X32541000Y-49530000D01*
X30339000Y-47899000D02*
X30339000Y-49530000D01*
X32541000Y-47899000D02*
X30339000Y-47899000D01*
%TO.N,/Battery System/ServoConnectors/RearDiff*%
X32541000Y-54536050D02*
X32541000Y-53623950D01*
X27169800Y-38381600D02*
X25719800Y-36931600D01*
X32541000Y-53623950D02*
X31896050Y-52979000D01*
X35305050Y-56050000D02*
X34436050Y-55181000D01*
X36587700Y-56050000D02*
X35305050Y-56050000D01*
X34436050Y-55181000D02*
X33185950Y-55181000D01*
X33185950Y-55181000D02*
X32541000Y-54536050D01*
X27169800Y-51630000D02*
X27169800Y-38381600D01*
X28518800Y-52979000D02*
X27169800Y-51630000D01*
X31896050Y-52979000D02*
X28518800Y-52979000D01*
%TO.N,Current{slash}INA3221-CUR1{slash}POWERVALID*%
X77000000Y-30040000D02*
X77000000Y-30492600D01*
X83317057Y-39209000D02*
X83814943Y-39209000D01*
X77000000Y-30492600D02*
X82965000Y-36457600D01*
X82965000Y-38856943D02*
X83317057Y-39209000D01*
X84235000Y-39629057D02*
X84235000Y-40126943D01*
X77378445Y-29661555D02*
X77000000Y-30040000D01*
X84655057Y-40547000D02*
X91779382Y-40547000D01*
X96050000Y-44817618D02*
X96050000Y-45250000D01*
X84235000Y-40126943D02*
X84655057Y-40547000D01*
X82965000Y-36457600D02*
X82965000Y-38856943D01*
X83814943Y-39209000D02*
X84235000Y-39629057D01*
X91779382Y-40547000D02*
X96050000Y-44817618D01*
%TO.N,/Battery System/ServoConnectors/Gear*%
X36520000Y-60180000D02*
X36520000Y-59162300D01*
X32541000Y-57076050D02*
X32541000Y-56163950D01*
X26769800Y-52869150D02*
X26769800Y-40140600D01*
X35078700Y-57721000D02*
X33185950Y-57721000D01*
X36520000Y-59162300D02*
X35078700Y-57721000D01*
X33185950Y-57721000D02*
X32541000Y-57076050D01*
X29419650Y-55519000D02*
X26769800Y-52869150D01*
X31896050Y-55519000D02*
X29419650Y-55519000D01*
X26769800Y-40140600D02*
X25719800Y-39090600D01*
X32541000Y-56163950D02*
X31896050Y-55519000D01*
%TO.N,/Battery System/ServoConnectors/Extra2*%
X29720000Y-60662000D02*
X29720000Y-59644300D01*
X30339000Y-61281000D02*
X29720000Y-60662000D01*
X29720000Y-59644300D02*
X25719800Y-55644100D01*
X35081000Y-62263950D02*
X34098050Y-61281000D01*
X35081000Y-63176050D02*
X35081000Y-62263950D01*
X25719800Y-55644100D02*
X25719800Y-41503600D01*
X36520000Y-65260000D02*
X36520000Y-64615050D01*
X34098050Y-61281000D02*
X30339000Y-61281000D01*
X36520000Y-64615050D02*
X35081000Y-63176050D01*
%TO.N,/Battery System/ServoConnectors/Extra1*%
X36520000Y-62720000D02*
X35148700Y-61348700D01*
X26368800Y-41162000D02*
X25719800Y-40513000D01*
X26368800Y-53105850D02*
X26368800Y-41162000D01*
X35148700Y-61348700D02*
X35148700Y-58773950D01*
X35148700Y-58773950D02*
X32036900Y-58773950D01*
X32036900Y-58773950D02*
X26368800Y-53105850D01*
%TO.N,Current{slash}INA3221-CUR1{slash}CRITICAL*%
X54519057Y-20559000D02*
X58008943Y-20559000D01*
X80749000Y-19699000D02*
X81950000Y-20900000D01*
X58119000Y-20448943D02*
X58119000Y-19951057D01*
X91076482Y-39277000D02*
X84587057Y-39277000D01*
X43298800Y-19048000D02*
X44691472Y-19048000D01*
X96050003Y-47407761D02*
X97099482Y-46358282D01*
X72719657Y-19710400D02*
X72731057Y-19699000D01*
X58008943Y-20559000D02*
X58119000Y-20448943D01*
X97099482Y-46358282D02*
X97099482Y-45300000D01*
X45491472Y-19848000D02*
X53808057Y-19848000D01*
X84587057Y-39277000D02*
X84167000Y-38856943D01*
X44691472Y-19048000D02*
X45491472Y-19848000D01*
X97099482Y-45300000D02*
X91076482Y-39277000D01*
X58119000Y-19951057D02*
X58772057Y-19298000D01*
X63936043Y-19298000D02*
X64348443Y-19710400D01*
X84167000Y-31067000D02*
X82700000Y-29600000D01*
X72731057Y-19699000D02*
X80749000Y-19699000D01*
X42850000Y-19496800D02*
X43298800Y-19048000D01*
X64348443Y-19710400D02*
X72719657Y-19710400D01*
X58772057Y-19298000D02*
X63936043Y-19298000D01*
X84167000Y-38856943D02*
X84167000Y-31067000D01*
X53808057Y-19848000D02*
X54519057Y-20559000D01*
%TO.N,Current{slash}INA3221-CUR2{slash}WARNING*%
X61685372Y-40483899D02*
X56833899Y-40483899D01*
X61785671Y-40383600D02*
X61685372Y-40483899D01*
X51500000Y-35150000D02*
X51500000Y-32900000D01*
X42952000Y-24352000D02*
X41700527Y-24352000D01*
X51500000Y-32900000D02*
X42952000Y-24352000D01*
X56833899Y-40483899D02*
X51500000Y-35150000D01*
%TO.N,Current{slash}INA3221-CUR2{slash}POWERVALID*%
X43003619Y-31102149D02*
X43003619Y-30360000D01*
X42300528Y-29656909D02*
X42300528Y-24952000D01*
X43003619Y-30360000D02*
X42300528Y-29656909D01*
%TO.N,Current{slash}INA3221-CUR2{slash}CRITICAL*%
X40952000Y-25184957D02*
X40550000Y-24782957D01*
X43350000Y-32750000D02*
X40952000Y-30352000D01*
X40952000Y-30352000D02*
X40952000Y-25184957D01*
X40550000Y-24782957D02*
X40550000Y-23600000D01*
X50298585Y-32750000D02*
X43350000Y-32750000D01*
X50398585Y-32650000D02*
X50298585Y-32750000D01*
%TO.N,Button{slash}DIGITAL*%
X58410000Y-33750000D02*
X54169000Y-29509000D01*
X62972880Y-35712880D02*
X63311000Y-36051000D01*
X53045943Y-30074114D02*
X53045943Y-30781070D01*
X62198943Y-38301000D02*
X61701057Y-38301000D01*
X63311000Y-36051000D02*
X63311000Y-36939000D01*
X58410000Y-35009943D02*
X58410000Y-33750000D01*
X63311000Y-36939000D02*
X62551000Y-37699000D01*
X62551000Y-37699000D02*
X62551000Y-37948943D01*
X62972880Y-35567120D02*
X62972880Y-35712880D01*
X61701057Y-38301000D02*
X58410000Y-35009943D01*
X62551000Y-37948943D02*
X62198943Y-38301000D01*
X54169000Y-29509000D02*
X53611057Y-29509000D01*
X53611057Y-29509000D02*
X53045943Y-30074114D01*
D40*
%TO.N,USB-C{slash}HUSB238A{slash}EN#*%
X70941345Y-23673655D02*
X70141000Y-24474000D01*
X59600643Y-29654957D02*
X59600643Y-31269139D01*
X61666585Y-28912463D02*
X60343137Y-28912463D01*
X32740000Y-34420000D02*
X33350654Y-34420000D01*
X62325740Y-28253308D02*
X61666585Y-28912463D01*
X39370000Y-28400654D02*
X39370000Y-27840000D01*
X64688200Y-24554346D02*
X64607854Y-24474000D01*
X62325740Y-25516806D02*
X62325740Y-28253308D01*
X33350654Y-34420000D02*
X39370000Y-28400654D01*
X60343137Y-28912463D02*
X59600643Y-29654957D01*
X71373145Y-23673655D02*
X70941345Y-23673655D01*
X64607854Y-24474000D02*
X63368546Y-24474000D01*
X64768546Y-24474000D02*
X64688200Y-24554346D01*
X63368546Y-24474000D02*
X62325740Y-25516806D01*
X70141000Y-24474000D02*
X64768546Y-24474000D01*
D39*
%TO.N,USB-C{slash}HUSB238A{slash}INT*%
X36800000Y-88400000D02*
X37926000Y-89526000D01*
X37621000Y-66871000D02*
X37621000Y-69229057D01*
X108881200Y-76191400D02*
X108686600Y-75996800D01*
X37621000Y-69229057D02*
X35099000Y-71751057D01*
X106574000Y-89526000D02*
X106750000Y-89350000D01*
X108881200Y-77781200D02*
X108881200Y-76191400D01*
X35099000Y-71751057D02*
X35099000Y-73849000D01*
X109501000Y-78401000D02*
X108881200Y-77781200D01*
X109400913Y-90050913D02*
X109501000Y-89950825D01*
X109501000Y-89950825D02*
X109501000Y-78401000D01*
X36800000Y-75550000D02*
X36800000Y-88400000D01*
X35099000Y-73849000D02*
X36800000Y-75550000D01*
X37300000Y-66550000D02*
X37621000Y-66871000D01*
X37926000Y-89526000D02*
X106574000Y-89526000D01*
%TO.N,Power{slash}12V-Buck{slash}EN*%
X76671047Y-28645889D02*
X77340933Y-28645889D01*
X76599000Y-30999057D02*
X76599000Y-28717936D01*
X79256290Y-37674343D02*
X79637600Y-37293033D01*
X79637600Y-34037657D02*
X76599000Y-30999057D01*
X79637600Y-37293033D02*
X79637600Y-34037657D01*
X76599000Y-28717936D02*
X76671047Y-28645889D01*
%TO.N,eFuse{slash}TPS16630{slash}IMON*%
X97048000Y-57404000D02*
X77724000Y-57404000D01*
X69218410Y-41301000D02*
X68706760Y-41301000D01*
X76200000Y-51816000D02*
X75131000Y-50747000D01*
X76200000Y-55880000D02*
X76200000Y-51816000D01*
X75131000Y-47213590D02*
X69218410Y-41301000D01*
X75131000Y-50747000D02*
X75131000Y-47213590D01*
X97556000Y-57912000D02*
X97048000Y-57404000D01*
X68706760Y-41301000D02*
X66736351Y-39330591D01*
X77724000Y-57404000D02*
X76200000Y-55880000D01*
%TO.N,Current{slash}INA226-ESC-0x4E{slash}ALERT*%
X61951000Y-39071878D02*
X61950000Y-39070878D01*
X61950000Y-39070878D02*
X60740821Y-39070878D01*
X61985957Y-39071878D02*
X61951000Y-39071878D01*
X45550000Y-24336451D02*
X45550000Y-23475000D01*
X52622549Y-31409000D02*
X45550000Y-24336451D01*
X60740821Y-39070878D02*
X53078943Y-31409000D01*
X53078943Y-31409000D02*
X52622549Y-31409000D01*
%TO.N,Current{slash}INA226-SERVO-0x4F{slash}ALERT*%
X23400000Y-69200000D02*
X22025000Y-67825000D01*
X22025000Y-67825000D02*
X22025000Y-33425000D01*
D40*
%TO.N,Charger{slash}CN3072{slash}CHG-DONE*%
X113000000Y-74700000D02*
X113000000Y-66850000D01*
X115346168Y-62866486D02*
X117491000Y-60721654D01*
X117491000Y-59791000D02*
X117100000Y-59400000D01*
X111050000Y-64900000D02*
X111050000Y-63700000D01*
X111050000Y-63700000D02*
X111883514Y-62866486D01*
X117491000Y-60721654D02*
X117491000Y-59791000D01*
X111883514Y-62866486D02*
X115346168Y-62866486D01*
X113000000Y-66850000D02*
X111050000Y-64900000D01*
%TO.N,Charger{slash}CN3072{slash}CHG-ACTIVE*%
X106949000Y-65030346D02*
X111978346Y-60001000D01*
X110225000Y-71490654D02*
X106949000Y-68214654D01*
X111978346Y-60001000D02*
X115578346Y-60001000D01*
X115578346Y-60001000D02*
X117079346Y-58500000D01*
X110225000Y-88450000D02*
X110225000Y-71490654D01*
X106949000Y-68214654D02*
X106949000Y-65030346D01*
X117079346Y-58500000D02*
X117200000Y-58500000D01*
%TO.N,IMU{slash}INT2*%
X138470654Y-48700000D02*
X137950000Y-48700000D01*
X147250000Y-30950000D02*
X148701000Y-32401000D01*
X148701000Y-32401000D02*
X148701000Y-38469654D01*
X148701000Y-38469654D02*
X138470654Y-48700000D01*
D39*
%TO.N,USB-C{slash}HUSB238A{slash}FAULT-OUT2*%
X108300000Y-90200825D02*
X108300000Y-78150200D01*
X28600057Y-33000000D02*
X28700000Y-33000000D01*
X27849000Y-33751057D02*
X28600057Y-33000000D01*
X29500000Y-35899943D02*
X27849000Y-34248943D01*
X27600000Y-88100000D02*
X29950825Y-90450825D01*
X29950825Y-90450825D02*
X108050000Y-90450825D01*
X108300000Y-78150200D02*
X107569000Y-77419200D01*
X108050000Y-90450825D02*
X108300000Y-90200825D01*
X38150000Y-49072950D02*
X29500000Y-40422950D01*
X38150000Y-56850000D02*
X38150000Y-49072950D01*
X27849000Y-34248943D02*
X27849000Y-33751057D01*
X29500000Y-40422950D02*
X29500000Y-35899943D01*
X36700000Y-58300000D02*
X38150000Y-56850000D01*
D40*
%TO.N,Charger{slash}CN3722{slash}EN#*%
X84886800Y-20320000D02*
X83413600Y-18846800D01*
X55118000Y-18846800D02*
X54457600Y-19507200D01*
X84886800Y-21640800D02*
X84886800Y-20320000D01*
X83413600Y-18846800D02*
X55118000Y-18846800D01*
%TO.N,Net-(D18-A)*%
X101088200Y-79848200D02*
X98310000Y-77070000D01*
X107696000Y-79679800D02*
X107527600Y-79848200D01*
X107527600Y-79848200D02*
X101088200Y-79848200D01*
D39*
%TO.N,/Battery System/USB-C Input/cc2*%
X103322628Y-75384731D02*
X103322628Y-74011028D01*
X102521145Y-76112050D02*
X102595309Y-76112050D01*
X103322628Y-74011028D02*
X102666800Y-73355200D01*
X102595309Y-76112050D02*
X103322628Y-75384731D01*
%TO.N,/Battery System/USB-C Input/dn*%
X101581263Y-74388608D02*
X101581263Y-74312660D01*
X101957510Y-75550967D02*
X101957510Y-74764855D01*
X101957510Y-74764855D02*
X101581263Y-74388608D01*
X101897519Y-75610958D02*
X101957510Y-75550967D01*
D42*
%TO.N,USBC_OR_DC20*%
X119900000Y-62325000D02*
X119900000Y-48387000D01*
X117602000Y-43873000D02*
X119900000Y-46171000D01*
X117602000Y-40342047D02*
X117602000Y-43873000D01*
X116883953Y-39624000D02*
X117602000Y-40342047D01*
X119900000Y-46171000D02*
X119900000Y-48387000D01*
X111700000Y-64500000D02*
X117725000Y-64500000D01*
X116815559Y-39624000D02*
X116883953Y-39624000D01*
X116551159Y-39359600D02*
X116815559Y-39624000D01*
X117725000Y-64500000D02*
X119900000Y-62325000D01*
D39*
%TO.N,BQ{slash}ALERT{slash}LED*%
X65478917Y-39130444D02*
X65478917Y-38378917D01*
X39673000Y-45777000D02*
X59472943Y-45777000D01*
X65478917Y-38378917D02*
X64998000Y-37898000D01*
X65550265Y-39699678D02*
X65550265Y-39201792D01*
X38800000Y-46750000D02*
X38800000Y-46650000D01*
X65550265Y-39201792D02*
X65478917Y-39130444D01*
X38800000Y-46650000D02*
X39673000Y-45777000D01*
X59472943Y-45777000D02*
X65550265Y-39699678D01*
X63415221Y-37898000D02*
X63078655Y-38234566D01*
X64998000Y-37898000D02*
X63415221Y-37898000D01*
%TO.N,Net-(U47-IOUT)*%
X102334998Y-41125000D02*
X95491116Y-41125000D01*
X92575000Y-34091713D02*
X92685724Y-33980989D01*
X95491116Y-41125000D02*
X92575000Y-38208884D01*
X92575000Y-38208884D02*
X92575000Y-34091713D01*
D40*
%TO.N,Net-(D30-C)*%
X63045542Y-69294200D02*
X62995301Y-69344441D01*
X62995301Y-69344441D02*
X62643341Y-69344441D01*
X62600000Y-66350000D02*
X62507907Y-66257907D01*
X62507907Y-66257907D02*
X62507907Y-66249000D01*
X62643341Y-69344441D02*
X62600000Y-69301100D01*
X62600000Y-69301100D02*
X62600000Y-66350000D01*
%TO.N,Net-(Q12-D)*%
X122145200Y-35727600D02*
X120429452Y-34011852D01*
X120429452Y-34011852D02*
X118504781Y-34011852D01*
X122202301Y-35727600D02*
X122145200Y-35727600D01*
%TO.N,Net-(C1408-Pad1)*%
X90600000Y-33750000D02*
X90600000Y-32921765D01*
X92184365Y-31337400D02*
X96818600Y-31337400D01*
X90600000Y-32921765D02*
X92184365Y-31337400D01*
X97967800Y-38867800D02*
X98375000Y-39275000D01*
X96818600Y-31337400D02*
X97967800Y-32486600D01*
X90400929Y-33949071D02*
X90600000Y-33750000D01*
X97967800Y-32486600D02*
X97967800Y-38867800D01*
X85753386Y-33949071D02*
X90400929Y-33949071D01*
%TO.N,/Battery System/MicrocontrollerKickstart/OUT*%
X115874800Y-43450143D02*
X104154346Y-55170597D01*
X77599000Y-69451000D02*
X70485000Y-76565000D01*
X96150000Y-65802713D02*
X96037117Y-65915596D01*
X115874800Y-39014400D02*
X115874800Y-43450143D01*
X96037117Y-65915596D02*
X96037117Y-66454904D01*
X94721000Y-69279654D02*
X94339654Y-69661000D01*
X94339654Y-69661000D02*
X92891000Y-69661000D01*
X98219654Y-63901000D02*
X96349000Y-63901000D01*
X77980346Y-68259000D02*
X77599000Y-68640346D01*
X96037117Y-66454904D02*
X94721000Y-67771021D01*
X116179600Y-38709600D02*
X115874800Y-39014400D01*
X96150000Y-64100000D02*
X96150000Y-65802713D01*
X69149346Y-77250000D02*
X67050000Y-77250000D01*
X69834346Y-76565000D02*
X69149346Y-77250000D01*
X91489000Y-68259000D02*
X77980346Y-68259000D01*
X94721000Y-67771021D02*
X94721000Y-69279654D01*
X92891000Y-69661000D02*
X91489000Y-68259000D01*
X77599000Y-68640346D02*
X77599000Y-69451000D01*
X96349000Y-63901000D02*
X96150000Y-64100000D01*
X70485000Y-76565000D02*
X69834346Y-76565000D01*
X104154346Y-57966308D02*
X98219654Y-63901000D01*
X117230644Y-38506461D02*
X117027505Y-38709600D01*
X117027505Y-38709600D02*
X116179600Y-38709600D01*
X104154346Y-55170597D02*
X104154346Y-57966308D01*
D39*
%TO.N,Net-(JP1402-B)*%
X80748001Y-37615999D02*
X80264000Y-38100000D01*
X80264000Y-45864000D02*
X88600000Y-54200000D01*
X80748001Y-37351999D02*
X80748001Y-37615999D01*
X80264000Y-38100000D02*
X80264000Y-45864000D01*
%TD*%
%TA.AperFunction,Conductor*%
%TO.N,GND*%
G36*
X73206061Y-46877668D02*
G01*
X73382941Y-46895089D01*
X73406769Y-46899828D01*
X73571001Y-46949647D01*
X73593453Y-46958948D01*
X73743971Y-47039401D01*
X73744798Y-47039843D01*
X73765010Y-47053348D01*
X73897666Y-47162216D01*
X73914854Y-47179404D01*
X74023722Y-47312060D01*
X74037227Y-47332272D01*
X74118121Y-47483614D01*
X74127424Y-47506072D01*
X74177240Y-47670295D01*
X74181982Y-47694136D01*
X74199403Y-47871009D01*
X74200000Y-47883163D01*
X74200000Y-61023378D01*
X74199403Y-61035532D01*
X74181982Y-61212405D01*
X74177240Y-61236246D01*
X74127424Y-61400469D01*
X74118121Y-61422927D01*
X74037227Y-61574269D01*
X74023722Y-61594481D01*
X73914854Y-61727137D01*
X73897666Y-61744325D01*
X73765010Y-61853193D01*
X73744798Y-61866698D01*
X73593456Y-61947592D01*
X73570998Y-61956895D01*
X73406775Y-62006711D01*
X73382934Y-62011453D01*
X73206061Y-62028874D01*
X73193907Y-62029471D01*
X62908291Y-62029471D01*
X62896120Y-62028872D01*
X62719007Y-62011403D01*
X62695134Y-62006648D01*
X62530704Y-61956695D01*
X62508220Y-61947367D01*
X62356721Y-61866256D01*
X62336498Y-61852720D01*
X62203753Y-61743566D01*
X62186566Y-61726341D01*
X62077704Y-61593358D01*
X62064215Y-61573110D01*
X61983433Y-61421428D01*
X61974157Y-61398930D01*
X61924563Y-61234386D01*
X61919862Y-61210516D01*
X61902779Y-61033345D01*
X61902208Y-61021179D01*
X61930991Y-47880946D01*
X61931612Y-47868838D01*
X61949373Y-47692229D01*
X61954155Y-47668433D01*
X62004191Y-47504535D01*
X62013517Y-47482125D01*
X62094530Y-47331109D01*
X62108036Y-47310953D01*
X62216929Y-47178599D01*
X62234100Y-47161466D01*
X62366687Y-47052867D01*
X62386870Y-47039406D01*
X62538075Y-46958718D01*
X62560488Y-46949449D01*
X62724511Y-46899766D01*
X62748308Y-46895039D01*
X62924953Y-46877665D01*
X62937090Y-46877071D01*
X73193907Y-46877071D01*
X73206061Y-46877668D01*
G37*
%TD.AperFunction*%
%TD*%
%TA.AperFunction,Conductor*%
%TO.N,Net-(CN104-+)*%
G36*
X63112385Y-70919185D02*
G01*
X63124373Y-70927945D01*
X63244803Y-71027547D01*
X63261852Y-71044711D01*
X63369871Y-71177129D01*
X63383260Y-71197278D01*
X63448378Y-71319725D01*
X63463494Y-71348149D01*
X63472718Y-71370526D01*
X63522113Y-71534105D01*
X63526815Y-71557848D01*
X63544087Y-71733972D01*
X63544679Y-71746074D01*
X63544679Y-88387091D01*
X63544079Y-88399273D01*
X63526580Y-88576535D01*
X63521817Y-88600427D01*
X63471778Y-88764988D01*
X63462435Y-88787488D01*
X63403611Y-88897249D01*
X63381193Y-88939078D01*
X63367630Y-88959317D01*
X63258314Y-89092099D01*
X63241057Y-89109295D01*
X63133132Y-89197509D01*
X63068768Y-89224695D01*
X63054658Y-89225500D01*
X50901420Y-89225500D01*
X50842700Y-89210715D01*
X50803320Y-89189542D01*
X50783184Y-89176023D01*
X50651045Y-89067137D01*
X50633926Y-89049957D01*
X50525509Y-88917433D01*
X50512061Y-88897249D01*
X50431513Y-88746151D01*
X50422252Y-88723736D01*
X50415513Y-88701469D01*
X50372656Y-88559852D01*
X50367937Y-88536074D01*
X50350594Y-88359579D01*
X50350000Y-88347453D01*
X50350000Y-81787600D01*
X50369685Y-81720561D01*
X50422489Y-81674806D01*
X50441896Y-81667828D01*
X50548586Y-81639242D01*
X50662714Y-81573350D01*
X50755900Y-81480164D01*
X50821792Y-81366036D01*
X50855900Y-81238742D01*
X50855900Y-81106958D01*
X50821792Y-80979664D01*
X50755900Y-80865536D01*
X50662714Y-80772350D01*
X50605650Y-80739404D01*
X50548587Y-80706458D01*
X50496415Y-80692479D01*
X50441906Y-80677873D01*
X50382246Y-80641509D01*
X50351717Y-80578662D01*
X50350000Y-80558099D01*
X50350000Y-80097470D01*
X50350591Y-80085383D01*
X50352645Y-80064402D01*
X50367821Y-79909468D01*
X50372508Y-79885766D01*
X50421794Y-79722341D01*
X50430993Y-79700000D01*
X50511045Y-79549258D01*
X50524402Y-79529127D01*
X50632182Y-79396781D01*
X50649201Y-79379616D01*
X50723917Y-79317688D01*
X50780611Y-79270698D01*
X50800627Y-79257167D01*
X50950677Y-79175816D01*
X50972941Y-79166425D01*
X51135929Y-79115734D01*
X51159583Y-79110844D01*
X51335378Y-79092094D01*
X51347430Y-79091401D01*
X54839449Y-79061298D01*
X55182357Y-79058342D01*
X55182368Y-79058340D01*
X56150000Y-79050000D01*
X56149472Y-78221153D01*
X56971563Y-78221153D01*
X56971563Y-79378846D01*
X57002324Y-79533489D01*
X57002327Y-79533501D01*
X57062665Y-79679172D01*
X57062672Y-79679185D01*
X57150273Y-79810288D01*
X57150276Y-79810292D01*
X57261770Y-79921786D01*
X57261774Y-79921789D01*
X57392877Y-80009390D01*
X57392890Y-80009397D01*
X57525686Y-80064402D01*
X57538566Y-80069737D01*
X57677988Y-80097470D01*
X57693216Y-80100499D01*
X57693219Y-80100500D01*
X57693221Y-80100500D01*
X57850907Y-80100500D01*
X57850908Y-80100499D01*
X58005560Y-80069737D01*
X58151242Y-80009394D01*
X58282352Y-79921789D01*
X58393852Y-79810289D01*
X58481457Y-79679179D01*
X58541800Y-79533497D01*
X58572563Y-79378842D01*
X58572563Y-78221158D01*
X58572563Y-78221155D01*
X58572562Y-78221153D01*
X58541801Y-78066510D01*
X58541800Y-78066503D01*
X58541798Y-78066498D01*
X58481460Y-77920827D01*
X58481453Y-77920814D01*
X58393852Y-77789711D01*
X58393849Y-77789707D01*
X58282355Y-77678213D01*
X58282351Y-77678210D01*
X58151248Y-77590609D01*
X58151235Y-77590602D01*
X58005564Y-77530264D01*
X58005552Y-77530261D01*
X57850908Y-77499500D01*
X57850905Y-77499500D01*
X57693221Y-77499500D01*
X57693218Y-77499500D01*
X57538573Y-77530261D01*
X57538561Y-77530264D01*
X57392890Y-77590602D01*
X57392877Y-77590609D01*
X57261774Y-77678210D01*
X57261770Y-77678213D01*
X57150276Y-77789707D01*
X57150273Y-77789711D01*
X57062672Y-77920814D01*
X57062665Y-77920827D01*
X57002327Y-78066498D01*
X57002324Y-78066510D01*
X56971563Y-78221153D01*
X56149472Y-78221153D01*
X56145874Y-72572506D01*
X56165515Y-72505458D01*
X56182178Y-72484765D01*
X56530469Y-72136475D01*
X56576614Y-72056551D01*
X56600500Y-71967407D01*
X56600500Y-71171544D01*
X56620185Y-71104505D01*
X56636819Y-71083863D01*
X56784863Y-70935819D01*
X56846186Y-70902334D01*
X56872544Y-70899500D01*
X63045346Y-70899500D01*
X63112385Y-70919185D01*
G37*
%TD.AperFunction*%
%TD*%
%TA.AperFunction,Conductor*%
%TO.N,/Battery System/Battery Power Path/BAT-*%
G36*
X70841658Y-65664706D02*
G01*
X70940564Y-65716621D01*
X70960915Y-65730004D01*
X71094643Y-65838180D01*
X71111985Y-65855287D01*
X71221974Y-65987512D01*
X71235639Y-66007682D01*
X71317653Y-66158864D01*
X71327110Y-66181316D01*
X71377981Y-66345613D01*
X71382866Y-66369481D01*
X71401265Y-66546662D01*
X71401926Y-66558840D01*
X71442510Y-74551606D01*
X71441978Y-74563736D01*
X71433356Y-74656300D01*
X71407538Y-74721225D01*
X71397571Y-74732481D01*
X70612191Y-75517861D01*
X70550868Y-75551346D01*
X70537717Y-75553475D01*
X70457356Y-75562083D01*
X70445236Y-75562783D01*
X66650540Y-75596037D01*
X66638430Y-75595551D01*
X66462113Y-75579815D01*
X66438323Y-75575319D01*
X66274272Y-75527332D01*
X66251809Y-75518298D01*
X66100218Y-75439351D01*
X66079939Y-75426125D01*
X65946568Y-75319218D01*
X65929249Y-75302308D01*
X65819191Y-75171517D01*
X65805496Y-75151575D01*
X65722951Y-75001894D01*
X65713386Y-74979655D01*
X65661503Y-74816798D01*
X65656441Y-74793122D01*
X65651829Y-74752425D01*
X65636506Y-74617220D01*
X65635732Y-74605150D01*
X65515261Y-66612476D01*
X65515679Y-66600268D01*
X65530564Y-66422430D01*
X65534983Y-66398431D01*
X65582713Y-66232854D01*
X65591744Y-66210194D01*
X65670990Y-66057162D01*
X65684282Y-66036716D01*
X65791965Y-65902177D01*
X65809006Y-65884728D01*
X65940955Y-65773890D01*
X65961086Y-65760114D01*
X66112198Y-65677266D01*
X66134638Y-65667701D01*
X66171263Y-65656197D01*
X66208419Y-65650500D01*
X70784028Y-65650500D01*
X70841658Y-65664706D01*
G37*
%TD.AperFunction*%
%TD*%
%TA.AperFunction,Conductor*%
%TO.N,PACK+*%
G36*
X60772694Y-46876801D02*
G01*
X60792785Y-46878786D01*
X60950177Y-46894341D01*
X60974080Y-46899113D01*
X61138812Y-46949265D01*
X61161334Y-46958629D01*
X61313060Y-47040056D01*
X61333313Y-47053648D01*
X61466163Y-47163199D01*
X61483359Y-47180487D01*
X61571309Y-47288316D01*
X61592198Y-47313927D01*
X61605680Y-47334253D01*
X61686289Y-47486409D01*
X61695533Y-47508981D01*
X61737688Y-47650165D01*
X61742249Y-47698048D01*
X61727142Y-47848276D01*
X61726380Y-47858332D01*
X61725762Y-47870387D01*
X61725491Y-47880496D01*
X61707704Y-56000048D01*
X61706958Y-56013355D01*
X61702343Y-56055246D01*
X61696854Y-56080493D01*
X61639749Y-56253701D01*
X61629147Y-56277261D01*
X61534118Y-56440497D01*
X61527036Y-56451321D01*
X56899991Y-62776682D01*
X56844523Y-62819168D01*
X56774891Y-62824922D01*
X56713202Y-62792116D01*
X56692523Y-62765472D01*
X56689875Y-62760886D01*
X56650500Y-62692686D01*
X56557314Y-62599500D01*
X56500250Y-62566554D01*
X56443187Y-62533608D01*
X56379539Y-62516554D01*
X56315892Y-62499500D01*
X56184108Y-62499500D01*
X56056812Y-62533608D01*
X55942686Y-62599500D01*
X55942683Y-62599502D01*
X55849502Y-62692683D01*
X55849500Y-62692686D01*
X55783608Y-62806812D01*
X55749500Y-62934108D01*
X55749500Y-63065891D01*
X55783608Y-63193187D01*
X55810694Y-63240100D01*
X55849500Y-63307314D01*
X55942686Y-63400500D01*
X56056814Y-63466392D01*
X56165085Y-63495403D01*
X56224745Y-63531767D01*
X56255274Y-63594614D01*
X56246979Y-63663989D01*
X56233072Y-63688387D01*
X51303048Y-70427934D01*
X51290648Y-70442405D01*
X50521137Y-71211918D01*
X50459814Y-71245403D01*
X50433456Y-71248237D01*
X49665119Y-71248237D01*
X49577945Y-71271595D01*
X49577943Y-71271595D01*
X49575976Y-71272121D01*
X49575975Y-71272122D01*
X49496054Y-71318264D01*
X49496049Y-71318268D01*
X49011137Y-71803181D01*
X48949814Y-71836666D01*
X48923456Y-71839500D01*
X48904108Y-71839500D01*
X48776812Y-71873608D01*
X48662686Y-71939500D01*
X48662683Y-71939502D01*
X48569502Y-72032683D01*
X48569500Y-72032686D01*
X48503608Y-72146812D01*
X48469500Y-72274108D01*
X48469500Y-72405891D01*
X48503608Y-72533187D01*
X48517538Y-72557314D01*
X48569500Y-72647314D01*
X48662686Y-72740500D01*
X48776814Y-72806392D01*
X48904108Y-72840500D01*
X48904110Y-72840500D01*
X49035890Y-72840500D01*
X49035892Y-72840500D01*
X49163186Y-72806392D01*
X49277314Y-72740500D01*
X49370500Y-72647314D01*
X49436392Y-72533186D01*
X49470500Y-72405892D01*
X49470500Y-72386544D01*
X49490185Y-72319505D01*
X49506819Y-72298863D01*
X49820126Y-71985556D01*
X49881449Y-71952071D01*
X49907807Y-71949237D01*
X49945864Y-71949237D01*
X50012903Y-71968922D01*
X50058658Y-72021726D01*
X50068602Y-72090884D01*
X50045945Y-72146447D01*
X49203946Y-73297493D01*
X49148478Y-73339979D01*
X49085970Y-73345144D01*
X49085764Y-73346710D01*
X49077709Y-73345649D01*
X49077708Y-73345649D01*
X48945924Y-73345649D01*
X48818628Y-73379757D01*
X48704502Y-73445649D01*
X48704499Y-73445651D01*
X48611318Y-73538832D01*
X48611316Y-73538835D01*
X48545424Y-73652961D01*
X48521249Y-73743186D01*
X48511316Y-73780257D01*
X48511316Y-73912041D01*
X48539277Y-74016391D01*
X48545424Y-74039334D01*
X48545426Y-74039339D01*
X48556125Y-74057871D01*
X48572596Y-74125771D01*
X48549743Y-74191798D01*
X48548819Y-74193079D01*
X48158399Y-74726800D01*
X48164247Y-75062046D01*
X48164247Y-75062059D01*
X48217005Y-78086842D01*
X48216618Y-78099026D01*
X48202228Y-78276487D01*
X48197886Y-78300449D01*
X48150771Y-78465781D01*
X48141830Y-78488431D01*
X48063313Y-78641367D01*
X48050118Y-78661833D01*
X47943228Y-78796473D01*
X47926287Y-78813967D01*
X47795139Y-78925124D01*
X47775106Y-78938969D01*
X47624767Y-79022350D01*
X47602415Y-79032012D01*
X47438680Y-79084404D01*
X47414870Y-79089512D01*
X47237968Y-79109584D01*
X47225802Y-79110362D01*
X43952030Y-79158271D01*
X43624147Y-79163068D01*
X43556827Y-79144366D01*
X43510304Y-79092237D01*
X43502559Y-79071180D01*
X43494119Y-79039678D01*
X43428227Y-78925550D01*
X43335041Y-78832364D01*
X43259751Y-78788895D01*
X43220914Y-78766472D01*
X43157266Y-78749418D01*
X43093619Y-78732364D01*
X42961835Y-78732364D01*
X42834539Y-78766472D01*
X42720413Y-78832364D01*
X42720410Y-78832366D01*
X42627229Y-78925547D01*
X42627227Y-78925550D01*
X42564840Y-79033608D01*
X42561335Y-79039678D01*
X42551466Y-79076510D01*
X42548214Y-79088647D01*
X42511848Y-79148308D01*
X42449001Y-79178836D01*
X42430253Y-79180540D01*
X39395948Y-79224945D01*
X39328628Y-79206243D01*
X39306453Y-79188639D01*
X39217316Y-79099502D01*
X39217314Y-79099500D01*
X39160250Y-79066554D01*
X39103187Y-79033608D01*
X39039539Y-79016554D01*
X38975892Y-78999500D01*
X38844108Y-78999500D01*
X38716813Y-79033608D01*
X38602682Y-79099502D01*
X38582819Y-79119366D01*
X38560184Y-79131724D01*
X38539711Y-79147395D01*
X38530026Y-79148191D01*
X38521495Y-79152850D01*
X38495773Y-79151009D01*
X38470076Y-79153124D01*
X38456414Y-79148193D01*
X38451803Y-79147864D01*
X38436878Y-79141144D01*
X38395962Y-79119366D01*
X38302757Y-79069756D01*
X38282037Y-79055887D01*
X38146290Y-78943707D01*
X38128763Y-78925969D01*
X38018218Y-78788895D01*
X38004592Y-78768002D01*
X37944747Y-78652251D01*
X37923718Y-78611578D01*
X37914551Y-78588384D01*
X37903124Y-78547988D01*
X37866621Y-78418941D01*
X37862281Y-78394380D01*
X37854428Y-78288683D01*
X37848768Y-78212503D01*
X37848472Y-78200023D01*
X37850382Y-78128191D01*
X41826708Y-78128191D01*
X41826708Y-78246809D01*
X41857409Y-78361386D01*
X41916719Y-78464113D01*
X42000595Y-78547989D01*
X42103322Y-78607299D01*
X42217899Y-78638000D01*
X42217902Y-78638000D01*
X42336514Y-78638000D01*
X42336517Y-78638000D01*
X42451094Y-78607299D01*
X42553821Y-78547989D01*
X42637697Y-78464113D01*
X42697007Y-78361386D01*
X42727708Y-78246809D01*
X42727708Y-78128191D01*
X43326708Y-78128191D01*
X43326708Y-78246809D01*
X43357409Y-78361386D01*
X43416719Y-78464113D01*
X43500595Y-78547989D01*
X43603322Y-78607299D01*
X43717899Y-78638000D01*
X43717902Y-78638000D01*
X43836514Y-78638000D01*
X43836517Y-78638000D01*
X43951094Y-78607299D01*
X44053821Y-78547989D01*
X44137697Y-78464113D01*
X44197007Y-78361386D01*
X44227708Y-78246809D01*
X44227708Y-78128191D01*
X44197007Y-78013614D01*
X44137697Y-77910887D01*
X44053821Y-77827011D01*
X43951094Y-77767701D01*
X43836517Y-77737000D01*
X43717899Y-77737000D01*
X43603322Y-77767701D01*
X43603320Y-77767701D01*
X43603320Y-77767702D01*
X43500595Y-77827011D01*
X43500592Y-77827013D01*
X43416721Y-77910884D01*
X43416719Y-77910887D01*
X43357409Y-78013614D01*
X43326708Y-78128191D01*
X42727708Y-78128191D01*
X42697007Y-78013614D01*
X42637697Y-77910887D01*
X42553821Y-77827011D01*
X42451094Y-77767701D01*
X42336517Y-77737000D01*
X42217899Y-77737000D01*
X42103322Y-77767701D01*
X42103320Y-77767701D01*
X42103320Y-77767702D01*
X42000595Y-77827011D01*
X42000592Y-77827013D01*
X41916721Y-77910884D01*
X41916719Y-77910887D01*
X41857409Y-78013614D01*
X41826708Y-78128191D01*
X37850382Y-78128191D01*
X37894108Y-76484108D01*
X42549500Y-76484108D01*
X42549500Y-76615891D01*
X42583608Y-76743187D01*
X42616554Y-76800250D01*
X42649500Y-76857314D01*
X42742686Y-76950500D01*
X42856814Y-77016392D01*
X42984108Y-77050500D01*
X42984110Y-77050500D01*
X43115890Y-77050500D01*
X43115892Y-77050500D01*
X43243186Y-77016392D01*
X43357314Y-76950500D01*
X43450500Y-76857314D01*
X43516392Y-76743186D01*
X43550500Y-76615892D01*
X43550500Y-76484108D01*
X43516392Y-76356814D01*
X43450500Y-76242686D01*
X43357314Y-76149500D01*
X43300250Y-76116554D01*
X43243187Y-76083608D01*
X43179539Y-76066554D01*
X43115892Y-76049500D01*
X42984108Y-76049500D01*
X42856812Y-76083608D01*
X42742686Y-76149500D01*
X42742683Y-76149502D01*
X42649502Y-76242683D01*
X42649500Y-76242686D01*
X42583608Y-76356812D01*
X42549500Y-76484108D01*
X37894108Y-76484108D01*
X37905667Y-76049500D01*
X37937991Y-74834108D01*
X42499500Y-74834108D01*
X42499500Y-74965891D01*
X42533608Y-75093187D01*
X42537253Y-75099500D01*
X42599500Y-75207314D01*
X42692686Y-75300500D01*
X42806814Y-75366392D01*
X42934108Y-75400500D01*
X42934110Y-75400500D01*
X43065890Y-75400500D01*
X43065892Y-75400500D01*
X43193186Y-75366392D01*
X43307314Y-75300500D01*
X43400500Y-75207314D01*
X43466392Y-75093186D01*
X43500500Y-74965892D01*
X43500500Y-74834108D01*
X43466392Y-74706814D01*
X43400500Y-74592686D01*
X43307314Y-74499500D01*
X43248575Y-74465587D01*
X43193187Y-74433608D01*
X43129539Y-74416554D01*
X43065892Y-74399500D01*
X42934108Y-74399500D01*
X42806812Y-74433608D01*
X42692686Y-74499500D01*
X42692683Y-74499502D01*
X42599502Y-74592683D01*
X42599500Y-74592686D01*
X42533608Y-74706812D01*
X42499500Y-74834108D01*
X37937991Y-74834108D01*
X37938295Y-74822684D01*
X37942044Y-74681707D01*
X37942993Y-74669344D01*
X37965859Y-74489720D01*
X37971424Y-74465587D01*
X38029540Y-74294065D01*
X38034086Y-74282574D01*
X38397108Y-73484108D01*
X41799500Y-73484108D01*
X41799500Y-73615891D01*
X41833608Y-73743187D01*
X41855011Y-73780257D01*
X41899500Y-73857314D01*
X41992686Y-73950500D01*
X42106814Y-74016392D01*
X42234108Y-74050500D01*
X42234110Y-74050500D01*
X42365890Y-74050500D01*
X42365892Y-74050500D01*
X42493186Y-74016392D01*
X42607314Y-73950500D01*
X42700500Y-73857314D01*
X42766392Y-73743186D01*
X42800500Y-73615892D01*
X42800500Y-73484108D01*
X43199500Y-73484108D01*
X43199500Y-73615891D01*
X43233608Y-73743187D01*
X43255011Y-73780257D01*
X43299500Y-73857314D01*
X43392686Y-73950500D01*
X43506814Y-74016392D01*
X43634108Y-74050500D01*
X43634110Y-74050500D01*
X43765890Y-74050500D01*
X43765892Y-74050500D01*
X43893186Y-74016392D01*
X44007314Y-73950500D01*
X44100500Y-73857314D01*
X44166392Y-73743186D01*
X44200500Y-73615892D01*
X44200500Y-73484108D01*
X44166392Y-73356814D01*
X44100500Y-73242686D01*
X44007314Y-73149500D01*
X43950250Y-73116554D01*
X43893187Y-73083608D01*
X43829539Y-73066554D01*
X43765892Y-73049500D01*
X43634108Y-73049500D01*
X43506812Y-73083608D01*
X43392686Y-73149500D01*
X43392683Y-73149502D01*
X43299502Y-73242683D01*
X43299500Y-73242686D01*
X43233608Y-73356812D01*
X43199500Y-73484108D01*
X42800500Y-73484108D01*
X42766392Y-73356814D01*
X42700500Y-73242686D01*
X42607314Y-73149500D01*
X42550250Y-73116554D01*
X42493187Y-73083608D01*
X42429539Y-73066554D01*
X42365892Y-73049500D01*
X42234108Y-73049500D01*
X42106812Y-73083608D01*
X41992686Y-73149500D01*
X41992683Y-73149502D01*
X41899502Y-73242683D01*
X41899500Y-73242686D01*
X41833608Y-73356812D01*
X41799500Y-73484108D01*
X38397108Y-73484108D01*
X38988153Y-72184108D01*
X42499500Y-72184108D01*
X42499500Y-72315891D01*
X42533608Y-72443187D01*
X42552202Y-72475392D01*
X42599500Y-72557314D01*
X42692686Y-72650500D01*
X42806814Y-72716392D01*
X42934108Y-72750500D01*
X42934110Y-72750500D01*
X43065890Y-72750500D01*
X43065892Y-72750500D01*
X43193186Y-72716392D01*
X43307314Y-72650500D01*
X43400500Y-72557314D01*
X43466392Y-72443186D01*
X43500500Y-72315892D01*
X43500500Y-72184108D01*
X43466392Y-72056814D01*
X43400500Y-71942686D01*
X43307314Y-71849500D01*
X43248968Y-71815814D01*
X43193187Y-71783608D01*
X43129539Y-71766554D01*
X43065892Y-71749500D01*
X42934108Y-71749500D01*
X42806812Y-71783608D01*
X42692686Y-71849500D01*
X42692683Y-71849502D01*
X42599502Y-71942683D01*
X42599500Y-71942686D01*
X42533608Y-72056812D01*
X42499500Y-72184108D01*
X38988153Y-72184108D01*
X39161004Y-71803924D01*
X39201807Y-71756675D01*
X39200866Y-71755448D01*
X39207312Y-71750501D01*
X39207311Y-71750501D01*
X39207314Y-71750500D01*
X39300500Y-71657314D01*
X39366392Y-71543186D01*
X39400500Y-71415892D01*
X39400500Y-71304021D01*
X39411619Y-71252700D01*
X39671770Y-70680500D01*
X39929280Y-70114108D01*
X48815652Y-70114108D01*
X48815652Y-70245891D01*
X48849760Y-70373187D01*
X48873158Y-70413712D01*
X48915652Y-70487314D01*
X49008838Y-70580500D01*
X49122966Y-70646392D01*
X49250260Y-70680500D01*
X49250262Y-70680500D01*
X49382042Y-70680500D01*
X49382044Y-70680500D01*
X49509338Y-70646392D01*
X49623466Y-70580500D01*
X49716652Y-70487314D01*
X49782544Y-70373186D01*
X49816652Y-70245892D01*
X49816652Y-70114108D01*
X49782544Y-69986814D01*
X49716652Y-69872686D01*
X49623466Y-69779500D01*
X49564630Y-69745531D01*
X49509339Y-69713608D01*
X49445691Y-69696554D01*
X49382044Y-69679500D01*
X49250260Y-69679500D01*
X49122964Y-69713608D01*
X49008838Y-69779500D01*
X49008835Y-69779502D01*
X48915654Y-69872683D01*
X48915652Y-69872686D01*
X48849760Y-69986812D01*
X48815652Y-70114108D01*
X39929280Y-70114108D01*
X41211848Y-67293108D01*
X51404000Y-67293108D01*
X51404000Y-67424891D01*
X51438108Y-67552187D01*
X51465545Y-67599708D01*
X51504000Y-67666314D01*
X51597186Y-67759500D01*
X51711314Y-67825392D01*
X51838608Y-67859500D01*
X51838610Y-67859500D01*
X51970390Y-67859500D01*
X51970392Y-67859500D01*
X52097686Y-67825392D01*
X52211814Y-67759500D01*
X52305000Y-67666314D01*
X52370892Y-67552186D01*
X52405000Y-67424892D01*
X52405000Y-67293108D01*
X52370892Y-67165814D01*
X52305000Y-67051686D01*
X52211814Y-66958500D01*
X52154750Y-66925554D01*
X52097687Y-66892608D01*
X52034039Y-66875554D01*
X51970392Y-66858500D01*
X51838608Y-66858500D01*
X51711312Y-66892608D01*
X51597186Y-66958500D01*
X51597183Y-66958502D01*
X51504002Y-67051683D01*
X51504000Y-67051686D01*
X51438108Y-67165812D01*
X51404000Y-67293108D01*
X41211848Y-67293108D01*
X44203849Y-60712221D01*
X46076151Y-56594108D01*
X53539500Y-56594108D01*
X53539500Y-56725891D01*
X53573608Y-56853187D01*
X53594610Y-56889562D01*
X53639500Y-56967314D01*
X53732686Y-57060500D01*
X53846814Y-57126392D01*
X53974108Y-57160500D01*
X53974110Y-57160500D01*
X54105890Y-57160500D01*
X54105892Y-57160500D01*
X54233186Y-57126392D01*
X54347314Y-57060500D01*
X54440500Y-56967314D01*
X54506392Y-56853186D01*
X54540500Y-56725892D01*
X54540500Y-56594108D01*
X54506392Y-56466814D01*
X54440500Y-56352686D01*
X54347314Y-56259500D01*
X54290250Y-56226554D01*
X54233187Y-56193608D01*
X54169539Y-56176554D01*
X54105892Y-56159500D01*
X53974108Y-56159500D01*
X53846812Y-56193608D01*
X53732686Y-56259500D01*
X53732683Y-56259502D01*
X53639502Y-56352683D01*
X53639500Y-56352686D01*
X53573608Y-56466812D01*
X53539500Y-56594108D01*
X46076151Y-56594108D01*
X46103179Y-56534660D01*
X46315273Y-56068160D01*
X50042392Y-47870387D01*
X50225475Y-47467697D01*
X50230870Y-47457190D01*
X50316950Y-47307562D01*
X50330612Y-47288319D01*
X50439608Y-47162209D01*
X50456670Y-47145904D01*
X50587594Y-47042737D01*
X50607439Y-47029961D01*
X50745565Y-46958629D01*
X50755537Y-46953479D01*
X50777437Y-46944697D01*
X50937350Y-46897669D01*
X50960522Y-46893195D01*
X51116633Y-46878267D01*
X51132365Y-46876763D01*
X51144169Y-46876200D01*
X60760499Y-46876200D01*
X60772694Y-46876801D01*
G37*
%TD.AperFunction*%
%TD*%
%TA.AperFunction,Conductor*%
%TO.N,/Battery System/USB-C Input/dn*%
G36*
X103561591Y-80469834D02*
G01*
X103670764Y-80487126D01*
X103707659Y-80499114D01*
X103803657Y-80548027D01*
X103805565Y-80549413D01*
X103806790Y-80549680D01*
X103835044Y-80570831D01*
X103854534Y-80590321D01*
X103888019Y-80651644D01*
X103883035Y-80721336D01*
X103874241Y-80740000D01*
X103835768Y-80806639D01*
X103835766Y-80806644D01*
X103799954Y-80940298D01*
X103799954Y-81078665D01*
X103835766Y-81212319D01*
X103835767Y-81212322D01*
X103904947Y-81332147D01*
X103904951Y-81332152D01*
X103942232Y-81369433D01*
X103949120Y-81382048D01*
X103959844Y-81391621D01*
X103965530Y-81412100D01*
X103975717Y-81430756D01*
X103975044Y-81446365D01*
X103978537Y-81458944D01*
X103973000Y-81493801D01*
X103939417Y-81602229D01*
X103929753Y-81625056D01*
X103842766Y-81784059D01*
X103836273Y-81794633D01*
X103817989Y-81821318D01*
X103763858Y-81865495D01*
X103694436Y-81873394D01*
X103683604Y-81871005D01*
X103619100Y-81853721D01*
X103544504Y-81833734D01*
X103406136Y-81833734D01*
X103272482Y-81869546D01*
X103272479Y-81869547D01*
X103152654Y-81938727D01*
X103152649Y-81938731D01*
X103054811Y-82036569D01*
X103054807Y-82036574D01*
X102985627Y-82156399D01*
X102985626Y-82156402D01*
X102949814Y-82290056D01*
X102949814Y-82428423D01*
X102985626Y-82562077D01*
X102985627Y-82562080D01*
X103033849Y-82645603D01*
X103036547Y-82656725D01*
X103043271Y-82665989D01*
X103044636Y-82690066D01*
X103050322Y-82713503D01*
X103046578Y-82724319D01*
X103047226Y-82735747D01*
X103035356Y-82756742D01*
X103027469Y-82779530D01*
X103017588Y-82788170D01*
X103012840Y-82796569D01*
X102984276Y-82817300D01*
X102953183Y-82833687D01*
X102930948Y-82842776D01*
X102788613Y-82885409D01*
X102765045Y-82890040D01*
X102620920Y-82904066D01*
X102589511Y-82903122D01*
X102562136Y-82898786D01*
X102479347Y-82885673D01*
X102477106Y-82884944D01*
X102475859Y-82885070D01*
X102442452Y-82873685D01*
X102346454Y-82824772D01*
X102315067Y-82801968D01*
X102262792Y-82749693D01*
X102229307Y-82688370D01*
X102234291Y-82618678D01*
X102243084Y-82600015D01*
X102264988Y-82562078D01*
X102300800Y-82428424D01*
X102300800Y-82290056D01*
X102264988Y-82156402D01*
X102195804Y-82036571D01*
X102180574Y-82021341D01*
X102179350Y-82019100D01*
X102177159Y-82017788D01*
X102162696Y-81988600D01*
X102147089Y-81960018D01*
X102146921Y-81956764D01*
X102146137Y-81955182D01*
X102145020Y-81919906D01*
X102158329Y-81800659D01*
X102164390Y-81773843D01*
X102227948Y-81590357D01*
X102239778Y-81565529D01*
X102255013Y-81540999D01*
X102307105Y-81494435D01*
X102376102Y-81483426D01*
X102414897Y-81496519D01*
X102415086Y-81496065D01*
X102421832Y-81498859D01*
X102422350Y-81499034D01*
X102422596Y-81499176D01*
X102556250Y-81534988D01*
X102556252Y-81534988D01*
X102694616Y-81534988D01*
X102694618Y-81534988D01*
X102828272Y-81499176D01*
X102948103Y-81429992D01*
X103045944Y-81332151D01*
X103115128Y-81212320D01*
X103150940Y-81078666D01*
X103150940Y-80940298D01*
X103115128Y-80806644D01*
X103074767Y-80736737D01*
X103069967Y-80716950D01*
X103060533Y-80698906D01*
X103061897Y-80683688D01*
X103058295Y-80668838D01*
X103064955Y-80649595D01*
X103066774Y-80629315D01*
X103076150Y-80617249D01*
X103081148Y-80602811D01*
X103097152Y-80590224D01*
X103109648Y-80574146D01*
X103133367Y-80561744D01*
X103136069Y-80559620D01*
X103140914Y-80557796D01*
X103314817Y-80496485D01*
X103342059Y-80490222D01*
X103528219Y-80469099D01*
X103561591Y-80469834D01*
G37*
%TD.AperFunction*%
%TD*%
M02*
