%TF.GenerationSoftware,KiCad,Pcbnew,9.0.7*%
%TF.CreationDate,2026-02-16T20:04:55+01:00*%
%TF.ProjectId,svea_powerboard_rev3,73766561-5f70-46f7-9765-72626f617264,rev?*%
%TF.SameCoordinates,Original*%
%TF.FileFunction,Soldermask,Top*%
%TF.FilePolarity,Negative*%
%FSLAX46Y46*%
G04 Gerber Fmt 4.6, Leading zero omitted, Abs format (unit mm)*
G04 Created by KiCad (PCBNEW 9.0.7) date 2026-02-16 20:04:55*
%MOMM*%
%LPD*%
G01*
G04 APERTURE LIST*
G04 Aperture macros list*
%AMRoundRect*
0 Rectangle with rounded corners*
0 $1 Rounding radius*
0 $2 $3 $4 $5 $6 $7 $8 $9 X,Y pos of 4 corners*
0 Add a 4 corners polygon primitive as box body*
4,1,4,$2,$3,$4,$5,$6,$7,$8,$9,$2,$3,0*
0 Add four circle primitives for the rounded corners*
1,1,$1+$1,$2,$3*
1,1,$1+$1,$4,$5*
1,1,$1+$1,$6,$7*
1,1,$1+$1,$8,$9*
0 Add four rect primitives between the rounded corners*
20,1,$1+$1,$2,$3,$4,$5,0*
20,1,$1+$1,$4,$5,$6,$7,0*
20,1,$1+$1,$6,$7,$8,$9,0*
20,1,$1+$1,$8,$9,$2,$3,0*%
%AMFreePoly0*
4,1,29,4.005000,-1.405000,3.205000,-1.405000,3.205000,0.595000,2.805000,0.595000,2.805000,-1.405000,2.005000,-1.405000,2.005000,0.595000,1.605000,0.595000,1.605000,-1.405000,0.805000,-1.405000,0.805000,0.595000,0.405000,0.595000,0.405000,-1.405000,-0.395000,-1.405000,-0.395000,0.595000,-0.795000,0.595000,-0.795000,-1.405000,-1.595000,-1.405000,-1.595000,0.595000,-1.995000,0.595000,
-1.995000,-1.405000,-2.795000,-1.405000,-2.795000,0.595000,-3.195000,0.595000,-3.195000,-1.405000,-4.005000,-1.415000,-4.005000,1.405000,4.005000,1.405000,4.005000,-1.405000,4.005000,-1.405000,$1*%
%AMFreePoly1*
4,1,13,5.050000,2.600000,4.150000,2.600000,4.150000,-0.300000,4.850000,-0.300000,4.850000,-4.000000,-4.850000,-4.000000,-4.850000,-0.300000,-4.150000,-0.300000,-4.150000,2.600000,-5.050000,2.600000,-5.050000,4.000000,5.050000,4.000000,5.050000,2.600000,5.050000,2.600000,$1*%
G04 Aperture macros list end*
%ADD10C,2.300000*%
%ADD11R,0.250000X0.305000*%
%ADD12R,1.000000X1.500000*%
%ADD13O,1.200000X2.000000*%
%ADD14O,1.200000X1.800000*%
%ADD15R,0.300000X1.300000*%
%ADD16R,0.550000X1.100000*%
%ADD17R,0.300000X1.100000*%
%ADD18O,1.100000X2.000000*%
%ADD19R,0.505000X0.280000*%
%ADD20R,0.900000X1.700000*%
%ADD21RoundRect,0.150000X-0.512500X-0.150000X0.512500X-0.150000X0.512500X0.150000X-0.512500X0.150000X0*%
%ADD22R,2.600000X2.600000*%
%ADD23C,2.600000*%
%ADD24RoundRect,0.100000X-0.562500X-0.100000X0.562500X-0.100000X0.562500X0.100000X-0.562500X0.100000X0*%
%ADD25R,1.500000X1.000000*%
%ADD26RoundRect,0.062500X-0.350000X-0.062500X0.350000X-0.062500X0.350000X0.062500X-0.350000X0.062500X0*%
%ADD27RoundRect,0.062500X-0.062500X-0.350000X0.062500X-0.350000X0.062500X0.350000X-0.062500X0.350000X0*%
%ADD28R,1.700000X1.700000*%
%ADD29C,1.600000*%
%ADD30RoundRect,0.087500X-0.725000X-0.087500X0.725000X-0.087500X0.725000X0.087500X-0.725000X0.087500X0*%
%ADD31R,1.400000X0.900000*%
%ADD32R,1.200000X0.250000*%
%ADD33R,3.300000X1.000000*%
%ADD34R,3.500000X1.200000*%
%ADD35R,1.300000X0.420000*%
%ADD36R,1.300000X0.300000*%
%ADD37R,1.600000X2.100000*%
%ADD38R,0.300000X0.950000*%
%ADD39R,0.330000X1.700000*%
%ADD40O,0.280000X0.785000*%
%ADD41O,0.785000X0.280000*%
%ADD42R,3.000000X3.000000*%
%ADD43RoundRect,0.100000X-0.637500X-0.100000X0.637500X-0.100000X0.637500X0.100000X-0.637500X0.100000X0*%
%ADD44R,0.280000X0.700000*%
%ADD45R,0.700000X0.280000*%
%ADD46R,2.800000X2.800000*%
%ADD47C,0.550000*%
%ADD48RoundRect,0.075000X-0.662500X-0.075000X0.662500X-0.075000X0.662500X0.075000X-0.662500X0.075000X0*%
%ADD49RoundRect,0.075000X-0.075000X-0.662500X0.075000X-0.662500X0.075000X0.662500X-0.075000X0.662500X0*%
%ADD50R,3.060000X1.000000*%
%ADD51R,1.800000X1.800000*%
%ADD52C,1.800000*%
%ADD53RoundRect,0.250000X-0.312500X-0.625000X0.312500X-0.625000X0.312500X0.625000X-0.312500X0.625000X0*%
%ADD54C,1.524000*%
%ADD55R,1.700000X1.200000*%
%ADD56R,0.762000X1.500000*%
%ADD57R,0.650000X0.800000*%
%ADD58R,0.500000X0.800000*%
%ADD59RoundRect,0.200000X-0.200000X-0.275000X0.200000X-0.275000X0.200000X0.275000X-0.200000X0.275000X0*%
%ADD60RoundRect,0.250000X-0.362500X-1.425000X0.362500X-1.425000X0.362500X1.425000X-0.362500X1.425000X0*%
%ADD61RoundRect,0.100000X-0.130000X-0.100000X0.130000X-0.100000X0.130000X0.100000X-0.130000X0.100000X0*%
%ADD62RoundRect,0.135000X-0.135000X-0.185000X0.135000X-0.185000X0.135000X0.185000X-0.135000X0.185000X0*%
%ADD63R,3.500000X5.200000*%
%ADD64RoundRect,0.250000X-0.262500X-0.450000X0.262500X-0.450000X0.262500X0.450000X-0.262500X0.450000X0*%
%ADD65RoundRect,0.150000X-0.587500X-0.150000X0.587500X-0.150000X0.587500X0.150000X-0.587500X0.150000X0*%
%ADD66R,0.580000X1.200000*%
%ADD67R,4.400000X3.800000*%
%ADD68RoundRect,0.250000X-0.850000X-0.350000X0.850000X-0.350000X0.850000X0.350000X-0.850000X0.350000X0*%
%ADD69RoundRect,0.249997X-2.950003X-2.650003X2.950003X-2.650003X2.950003X2.650003X-2.950003X2.650003X0*%
%ADD70RoundRect,0.375000X-0.625000X-0.375000X0.625000X-0.375000X0.625000X0.375000X-0.625000X0.375000X0*%
%ADD71RoundRect,0.500000X-0.500000X-1.400000X0.500000X-1.400000X0.500000X1.400000X-0.500000X1.400000X0*%
%ADD72R,0.800000X2.800000*%
%ADD73FreePoly0,0.000000*%
%ADD74FreePoly1,0.000000*%
%ADD75RoundRect,0.150000X-0.825000X-0.150000X0.825000X-0.150000X0.825000X0.150000X-0.825000X0.150000X0*%
%ADD76RoundRect,0.218750X-0.218750X-0.256250X0.218750X-0.256250X0.218750X0.256250X-0.218750X0.256250X0*%
%ADD77R,2.000000X3.400000*%
%ADD78R,2.000000X2.000000*%
%ADD79C,2.000000*%
%ADD80R,1.600000X1.600000*%
%ADD81R,1.190000X1.728000*%
%ADD82C,3.500000*%
%ADD83O,2.000000X4.600000*%
%ADD84O,4.600000X2.000000*%
%ADD85R,0.200000X0.565000*%
%ADD86R,0.400000X0.565000*%
%ADD87R,0.500000X0.600000*%
%ADD88R,1.400000X1.400000*%
%ADD89R,4.900000X3.400000*%
%ADD90R,3.430000X1.780000*%
%ADD91C,1.700000*%
%ADD92RoundRect,0.225000X-0.225000X-0.250000X0.225000X-0.250000X0.225000X0.250000X-0.225000X0.250000X0*%
%ADD93RoundRect,0.250000X-0.250000X-0.475000X0.250000X-0.475000X0.250000X0.475000X-0.250000X0.475000X0*%
%ADD94R,4.800000X1.800000*%
%ADD95RoundRect,0.250000X-0.325000X-1.100000X0.325000X-1.100000X0.325000X1.100000X-0.325000X1.100000X0*%
%ADD96RoundRect,0.140000X-0.140000X-0.170000X0.140000X-0.170000X0.140000X0.170000X-0.140000X0.170000X0*%
%ADD97R,2.700000X0.910000*%
%ADD98RoundRect,0.250000X-0.325000X-0.650000X0.325000X-0.650000X0.325000X0.650000X-0.325000X0.650000X0*%
%ADD99R,2.185000X2.592000*%
%ADD100R,1.230000X1.860000*%
%ADD101R,0.800000X0.800000*%
%ADD102R,1.524000X1.500000*%
%ADD103C,1.500000*%
%ADD104R,0.550000X0.250000*%
%ADD105R,0.250000X1.000000*%
%ADD106R,0.250000X1.300000*%
%ADD107R,0.250000X0.550000*%
%ADD108C,3.800000*%
%ADD109O,2.200000X1.200000*%
G04 APERTURE END LIST*
D10*
%TO.C,___-3V3+_______-5V0+_______-12V+_______-VCC+___1*%
X-3129567Y-66592500D03*
X-3129567Y-74212500D03*
X1950433Y-66592500D03*
X1950433Y-74212500D03*
X7030433Y-66592500D03*
X7030433Y-74212500D03*
X12110433Y-66592500D03*
X12110433Y-74212500D03*
X17190433Y-66592500D03*
X17190433Y-74212500D03*
X22270433Y-66592500D03*
X22270433Y-74212500D03*
X27350433Y-66592500D03*
X27350433Y-74212500D03*
X32430433Y-66592500D03*
X32430433Y-74212500D03*
%TD*%
D11*
%TO.C,VCC1*%
X70330000Y-153909232D03*
X70830000Y-153909232D03*
%TD*%
D12*
%TO.C,USBC_SDA1*%
X102065000Y-161715000D03*
X100765000Y-161715000D03*
%TD*%
%TO.C,USBC_SCL1*%
X102065000Y-158165000D03*
X100765000Y-158165000D03*
%TD*%
D13*
%TO.C,USBC1*%
X81195000Y-151483000D03*
X89845000Y-151483000D03*
D14*
X89845000Y-155663000D03*
X81195000Y-155663000D03*
D15*
X82170000Y-150715000D03*
X82970000Y-150715000D03*
X84270000Y-150715000D03*
X85270000Y-150715000D03*
X85770000Y-150715000D03*
X86769500Y-150715000D03*
X88070000Y-150715000D03*
X88870000Y-150715000D03*
X88570000Y-150715000D03*
X87770000Y-150715000D03*
X87270000Y-150715000D03*
X86270000Y-150715000D03*
X84770000Y-150715000D03*
X83770000Y-150715000D03*
X83270000Y-150715000D03*
X82470000Y-150715000D03*
%TD*%
D16*
%TO.C,USB1*%
X10000Y-131325000D03*
X810000Y-131325000D03*
D17*
X1460000Y-131325000D03*
X1960000Y-131325000D03*
X2460000Y-131325000D03*
X2960000Y-131325000D03*
X3460000Y-131325000D03*
X3960000Y-131325000D03*
X4460000Y-131325000D03*
X4960000Y-131325000D03*
D16*
X5610000Y-131325000D03*
X6410000Y-131325000D03*
D18*
X-1115000Y-131875000D03*
D14*
X-1115000Y-136075000D03*
D18*
X7535000Y-131875000D03*
D14*
X7535000Y-136075000D03*
%TD*%
D19*
%TO.C,U216*%
X127952500Y-88380433D03*
X127952500Y-88880433D03*
X127952500Y-89380433D03*
X127952500Y-89880433D03*
X129807500Y-89880433D03*
X129807500Y-89380433D03*
X129807500Y-88880433D03*
X129807500Y-88380433D03*
D20*
X128880000Y-89130433D03*
%TD*%
D12*
%TO.C,U215*%
X130435000Y-153525000D03*
X129135000Y-153525000D03*
%TD*%
%TO.C,U214*%
X130435000Y-149975000D03*
X129135000Y-149975000D03*
%TD*%
%TO.C,U213*%
X129135000Y-146425000D03*
X130435000Y-146425000D03*
%TD*%
%TO.C,U212*%
X129135000Y-142875000D03*
X130435000Y-142875000D03*
%TD*%
D21*
%TO.C,U210*%
X111337500Y-121740000D03*
X111337500Y-122690000D03*
X111337500Y-123640000D03*
X113612500Y-123640000D03*
X113612500Y-122690000D03*
X113612500Y-121740000D03*
%TD*%
D22*
%TO.C,U207*%
X111340433Y-23075000D03*
D23*
X115300933Y-23075000D03*
X119260433Y-23075000D03*
X123220433Y-23075000D03*
%TD*%
D24*
%TO.C,U206*%
X124367500Y-38055000D03*
X124367500Y-38705000D03*
X124367500Y-39355000D03*
X126142500Y-39355000D03*
X126142500Y-38055000D03*
%TD*%
D25*
%TO.C,U205*%
X102210000Y-49254165D03*
X102210000Y-50854165D03*
X102210000Y-52454165D03*
X107010000Y-52454165D03*
X107010000Y-50854165D03*
X107010000Y-49254165D03*
%TD*%
D24*
%TO.C,U204*%
X124367500Y-34410000D03*
X124367500Y-35060000D03*
X124367500Y-35710000D03*
X126142500Y-35710000D03*
X126142500Y-34410000D03*
%TD*%
D25*
%TO.C,U203*%
X102210000Y-42623232D03*
X102210000Y-44223232D03*
X102210000Y-45823232D03*
X107010000Y-45823232D03*
X107010000Y-44223232D03*
X107010000Y-42623232D03*
%TD*%
%TO.C,U202*%
X102210000Y-35992299D03*
X102210000Y-37592299D03*
X102210000Y-39192299D03*
X107010000Y-39192299D03*
X107010000Y-37592299D03*
X107010000Y-35992299D03*
%TD*%
%TO.C,U201*%
X102210000Y-29361366D03*
X102210000Y-30961366D03*
X102210000Y-32561366D03*
X107010000Y-32561366D03*
X107010000Y-30961366D03*
X107010000Y-29361366D03*
%TD*%
%TO.C,U200*%
X102210000Y-22730433D03*
X102210000Y-24330433D03*
X102210000Y-25930433D03*
X107010000Y-25930433D03*
X107010000Y-24330433D03*
X107010000Y-22730433D03*
%TD*%
D26*
%TO.C,U191*%
X10477500Y-131905000D03*
X10477500Y-132405000D03*
X10477500Y-132905000D03*
X10477500Y-133405000D03*
D27*
X11190000Y-134117500D03*
X11690000Y-134117500D03*
X12190000Y-134117500D03*
X12690000Y-134117500D03*
D26*
X13402500Y-133405000D03*
X13402500Y-132905000D03*
X13402500Y-132405000D03*
X13402500Y-131905000D03*
D27*
X12690000Y-131192500D03*
X12190000Y-131192500D03*
X11690000Y-131192500D03*
X11190000Y-131192500D03*
D28*
X11940000Y-132655000D03*
%TD*%
D29*
%TO.C,U183*%
X33645000Y-120535000D03*
X33645000Y-117995000D03*
X33645000Y-115455000D03*
X33645000Y-112915000D03*
X33645000Y-123075000D03*
X33645000Y-125615000D03*
X33645000Y-128155000D03*
X31105000Y-112915000D03*
X28565000Y-112915000D03*
X26025000Y-112915000D03*
X23485000Y-112915000D03*
X20945000Y-112915000D03*
X18405000Y-112915000D03*
X15865000Y-112915000D03*
X13325000Y-112915000D03*
X10785000Y-112915000D03*
X8245000Y-112915000D03*
X5705000Y-112915000D03*
X3165000Y-112915000D03*
X625000Y-112915000D03*
X3165000Y-115455000D03*
X31105000Y-128155000D03*
X28565000Y-128155000D03*
X26025000Y-128155000D03*
X23485000Y-128155000D03*
X20945000Y-128155000D03*
X18405000Y-128155000D03*
X15865000Y-128155000D03*
X13325000Y-128155000D03*
X10785000Y-128155000D03*
X8245000Y-128155000D03*
X5705000Y-128155000D03*
X3165000Y-128155000D03*
X625000Y-128155000D03*
X28565000Y-115455000D03*
X26025000Y-115455000D03*
X28565000Y-117995000D03*
X26025000Y-117995000D03*
X28565000Y-120535000D03*
X26025000Y-120535000D03*
X28565000Y-123075000D03*
X26025000Y-123075000D03*
X28565000Y-125615000D03*
X26025000Y-125615000D03*
%TD*%
D30*
%TO.C,U182*%
X122982500Y-116670000D03*
X122982500Y-117170000D03*
X122982500Y-117670000D03*
X122982500Y-118170000D03*
X122982500Y-118670000D03*
X127207500Y-118670000D03*
X127207500Y-118170000D03*
X127207500Y-117670000D03*
X127207500Y-117170000D03*
X127207500Y-116670000D03*
%TD*%
D21*
%TO.C,U181*%
X34637500Y-58005000D03*
X34637500Y-58955000D03*
X34637500Y-59905000D03*
X36912500Y-59905000D03*
X36912500Y-58955000D03*
X36912500Y-58005000D03*
%TD*%
%TO.C,U180*%
X111637500Y-70115000D03*
X111637500Y-71065000D03*
X111637500Y-72015000D03*
X113912500Y-72015000D03*
X113912500Y-71065000D03*
X113912500Y-70115000D03*
%TD*%
D12*
%TO.C,U179*%
X100765000Y-154615000D03*
X102065000Y-154615000D03*
%TD*%
%TO.C,U178*%
X100765000Y-151065000D03*
X102065000Y-151065000D03*
%TD*%
%TO.C,U174*%
X4685000Y-159335000D03*
X5985000Y-159335000D03*
%TD*%
D31*
%TO.C,U173*%
X5510000Y-143155433D03*
D32*
X5410000Y-144130433D03*
X5410000Y-144780433D03*
X5410000Y-145430433D03*
X5410000Y-146080433D03*
X5410000Y-146730433D03*
X5410000Y-147380433D03*
X5410000Y-148030433D03*
D31*
X5510000Y-149005433D03*
X11010000Y-149005433D03*
D32*
X11110000Y-148030433D03*
X11110000Y-147380433D03*
X11110000Y-146730433D03*
X11110000Y-146080433D03*
X11110000Y-145430433D03*
X11110000Y-144780433D03*
X11110000Y-144130433D03*
D31*
X11010000Y-143155433D03*
D33*
X8260000Y-143830433D03*
X8260000Y-145330433D03*
X8260000Y-146830433D03*
X8260000Y-148330433D03*
%TD*%
D12*
%TO.C,U172*%
X95545000Y-41625000D03*
X94245000Y-41625000D03*
%TD*%
%TO.C,U170*%
X110235000Y-94995000D03*
X111535000Y-94995000D03*
%TD*%
D21*
%TO.C,U168*%
X111637500Y-65490000D03*
X111637500Y-66440000D03*
X111637500Y-67390000D03*
X113912500Y-67390000D03*
X113912500Y-66440000D03*
X113912500Y-65490000D03*
%TD*%
D34*
%TO.C,U166*%
X85705000Y-84602366D03*
X91045000Y-84602366D03*
%TD*%
D12*
%TO.C,U161*%
X43135000Y-157435000D03*
X41835000Y-157435000D03*
%TD*%
%TO.C,U160*%
X43135000Y-153885000D03*
X41835000Y-153885000D03*
%TD*%
%TO.C,U159*%
X41835000Y-150335000D03*
X43135000Y-150335000D03*
%TD*%
%TO.C,U158*%
X41835000Y-146785000D03*
X43135000Y-146785000D03*
%TD*%
%TO.C,U157*%
X36285000Y-40695000D03*
X34985000Y-40695000D03*
%TD*%
D34*
%TO.C,U156*%
X18675000Y-49650500D03*
X24015000Y-49650500D03*
%TD*%
D21*
%TO.C,U155*%
X34637500Y-53380000D03*
X34637500Y-54330000D03*
X34637500Y-55280000D03*
X36912500Y-55280000D03*
X36912500Y-53380000D03*
%TD*%
D35*
%TO.C,U154*%
X87966000Y-127245000D03*
D36*
X87946000Y-128045000D03*
X87946000Y-128545000D03*
D37*
X88236000Y-130195000D03*
X90705500Y-130195000D03*
D36*
X90946000Y-128545000D03*
X90946000Y-128045000D03*
D35*
X90906000Y-127245000D03*
D38*
X89946000Y-127070000D03*
D39*
X89446000Y-127445000D03*
D38*
X88946000Y-127070000D03*
%TD*%
D21*
%TO.C,U153*%
X82557500Y-40020000D03*
X82557500Y-40970000D03*
X82557500Y-41920000D03*
X84832500Y-41920000D03*
X84832500Y-40020000D03*
%TD*%
%TO.C,U152*%
X57787500Y-132375000D03*
X57787500Y-133325000D03*
X57787500Y-134275000D03*
X60062500Y-134275000D03*
X60062500Y-133325000D03*
X60062500Y-132375000D03*
%TD*%
%TO.C,U151*%
X57787500Y-127750000D03*
X57787500Y-128700000D03*
X57787500Y-129650000D03*
X60062500Y-129650000D03*
X60062500Y-128700000D03*
X60062500Y-127750000D03*
%TD*%
%TO.C,U150*%
X57787500Y-123125000D03*
X57787500Y-124075000D03*
X57787500Y-125025000D03*
X60062500Y-125025000D03*
X60062500Y-124075000D03*
X60062500Y-123125000D03*
%TD*%
D35*
%TO.C,U147*%
X81690500Y-127245000D03*
D36*
X81670500Y-128045000D03*
X81670500Y-128545000D03*
D37*
X81960500Y-130195000D03*
X84430000Y-130195000D03*
D36*
X84670500Y-128545000D03*
X84670500Y-128045000D03*
D35*
X84630500Y-127245000D03*
D38*
X83670500Y-127070000D03*
D39*
X83170500Y-127445000D03*
D38*
X82670500Y-127070000D03*
%TD*%
D12*
%TO.C,U146*%
X112425000Y-153525000D03*
X111125000Y-153525000D03*
%TD*%
%TO.C,U145*%
X112425000Y-149975000D03*
X111125000Y-149975000D03*
%TD*%
%TO.C,U144*%
X111125000Y-146425000D03*
X112425000Y-146425000D03*
%TD*%
%TO.C,U143*%
X111125000Y-142875000D03*
X112425000Y-142875000D03*
%TD*%
D40*
%TO.C,U141*%
X46485000Y-163542500D03*
X46985000Y-163542500D03*
X47485000Y-163542500D03*
X47985000Y-163542500D03*
X48485000Y-163542500D03*
X48985000Y-163542500D03*
X49485000Y-163542500D03*
X49985000Y-163542500D03*
D41*
X50642500Y-162885000D03*
X50642500Y-162385000D03*
X50642500Y-161885000D03*
X50642500Y-161385000D03*
X50642500Y-160885000D03*
X50642500Y-160385000D03*
X50642500Y-159885000D03*
X50642500Y-159385000D03*
D40*
X49985000Y-158727500D03*
X49485000Y-158727500D03*
X48985000Y-158727500D03*
X48485000Y-158727500D03*
X47985000Y-158727500D03*
X47485000Y-158727500D03*
X46985000Y-158727500D03*
X46485000Y-158727500D03*
D41*
X45827500Y-159385000D03*
X45827500Y-159885000D03*
X45827500Y-160385000D03*
X45827500Y-160885000D03*
X45827500Y-161385000D03*
X45827500Y-161885000D03*
X45827500Y-162385000D03*
X45827500Y-162885000D03*
D42*
X48235000Y-161135000D03*
%TD*%
D43*
%TO.C,U140*%
X118372500Y-142595000D03*
X118372500Y-143245000D03*
X118372500Y-143895000D03*
X118372500Y-144545000D03*
X118372500Y-145195000D03*
X118372500Y-145845000D03*
X118372500Y-146495000D03*
X118372500Y-147145000D03*
X118372500Y-147795000D03*
X118372500Y-148445000D03*
X118372500Y-149095000D03*
X118372500Y-149745000D03*
X118372500Y-150395000D03*
X118372500Y-151045000D03*
X124097500Y-151045000D03*
X124097500Y-150395000D03*
X124097500Y-149745000D03*
X124097500Y-149095000D03*
X124097500Y-148445000D03*
X124097500Y-147795000D03*
X124097500Y-147145000D03*
X124097500Y-146495000D03*
X124097500Y-145845000D03*
X124097500Y-145195000D03*
X124097500Y-144545000D03*
X124097500Y-143895000D03*
X124097500Y-143245000D03*
X124097500Y-142595000D03*
%TD*%
D12*
%TO.C,U139*%
X68335000Y-134175000D03*
X69635000Y-134175000D03*
%TD*%
%TO.C,U134*%
X68335000Y-130625000D03*
X69635000Y-130625000D03*
%TD*%
D44*
%TO.C,U133*%
X73035000Y-133975000D03*
X73535000Y-133975000D03*
X74035000Y-133975000D03*
X74535000Y-133975000D03*
X75035000Y-133975000D03*
X75535000Y-133975000D03*
D45*
X76285000Y-133225000D03*
X76285000Y-132725000D03*
X76285000Y-132225000D03*
X76285000Y-131725000D03*
X76285000Y-131225000D03*
X76285000Y-130725000D03*
D44*
X75535000Y-129975000D03*
X75035000Y-129975000D03*
X74535000Y-129975000D03*
X74035000Y-129975000D03*
X73535000Y-129975000D03*
X73043000Y-129975000D03*
D45*
X72285000Y-130725000D03*
X72285000Y-131225000D03*
X72285000Y-131725000D03*
X72285000Y-132225000D03*
X72285000Y-132725000D03*
X72285000Y-133225000D03*
D46*
X74297500Y-131975000D03*
%TD*%
D21*
%TO.C,U127*%
X57787500Y-118500000D03*
X57787500Y-119450000D03*
X57787500Y-120400000D03*
X60062500Y-120400000D03*
X60062500Y-119450000D03*
X60062500Y-118500000D03*
%TD*%
D47*
%TO.C,U115*%
X95550433Y-66020433D03*
X96820433Y-66020433D03*
X98090433Y-66020433D03*
X99360433Y-66020433D03*
X100630433Y-66020433D03*
X101900433Y-66020433D03*
X103170433Y-66020433D03*
X104440433Y-66020433D03*
X105710433Y-66020433D03*
X106980433Y-66020433D03*
X108250433Y-66020433D03*
X95550433Y-67290433D03*
X96820433Y-67290433D03*
X98090433Y-67290433D03*
X99360433Y-67290433D03*
X100630433Y-67290433D03*
X101900433Y-67290433D03*
X103170433Y-67290433D03*
X104440433Y-67290433D03*
X105710433Y-67290433D03*
X106980433Y-67290433D03*
X108250433Y-67290433D03*
X95550433Y-68560433D03*
X96820433Y-68560433D03*
X98090433Y-68560433D03*
X99360433Y-68560433D03*
X100630433Y-68560433D03*
X101900433Y-68560433D03*
X103170433Y-68560433D03*
X104440433Y-68560433D03*
X105710433Y-68560433D03*
X106980433Y-68560433D03*
X108250433Y-68560433D03*
X95550433Y-69830433D03*
X96820433Y-69830433D03*
X98090433Y-69830433D03*
X99360433Y-69830433D03*
X100630433Y-69830433D03*
X101900433Y-69830433D03*
X103170433Y-69830433D03*
X104440433Y-69830433D03*
X105710433Y-69830433D03*
X106980433Y-69830433D03*
X108250433Y-69830433D03*
X95550433Y-71100433D03*
X96820433Y-71100433D03*
X98090433Y-71100433D03*
X99360433Y-71100433D03*
X100630433Y-71100433D03*
X101900433Y-71100433D03*
X103170433Y-71100433D03*
X104440433Y-71100433D03*
X105710433Y-71100433D03*
X106980433Y-71100433D03*
X108250433Y-71100433D03*
X95550433Y-72370433D03*
X96820433Y-72370433D03*
X98090433Y-72370433D03*
X99360433Y-72370433D03*
X100630433Y-72370433D03*
X101900433Y-72370433D03*
X103170433Y-72370433D03*
X104440433Y-72370433D03*
X105710433Y-72370433D03*
X106980433Y-72370433D03*
X108250433Y-72370433D03*
X95550433Y-73640433D03*
X96820433Y-73640433D03*
X98090433Y-73640433D03*
X99360433Y-73640433D03*
X100630433Y-73640433D03*
X101900433Y-73640433D03*
X103170433Y-73640433D03*
X104440433Y-73640433D03*
X105710433Y-73640433D03*
X106980433Y-73640433D03*
X108250433Y-73640433D03*
X95550433Y-74910433D03*
X96820433Y-74910433D03*
X98090433Y-74910433D03*
X99360433Y-74910433D03*
X100630433Y-74910433D03*
X101900433Y-74910433D03*
X103170433Y-74910433D03*
X104440433Y-74910433D03*
X105710433Y-74910433D03*
X106980433Y-74910433D03*
X108250433Y-74910433D03*
X95550433Y-76180433D03*
X96820433Y-76180433D03*
X98090433Y-76180433D03*
X99360433Y-76180433D03*
X100630433Y-76180433D03*
X101900433Y-76180433D03*
X103170433Y-76180433D03*
X104440433Y-76180433D03*
X105710433Y-76180433D03*
X106980433Y-76180433D03*
X108250433Y-76180433D03*
X95550433Y-77450433D03*
X96820433Y-77450433D03*
X98090433Y-77450433D03*
X99360433Y-77450433D03*
X100630433Y-77450433D03*
X101900433Y-77450433D03*
X103170433Y-77450433D03*
X104440433Y-77450433D03*
X105710433Y-77450433D03*
X106980433Y-77450433D03*
X108250433Y-77450433D03*
X95550433Y-78720433D03*
X96820433Y-78720433D03*
X98090433Y-78720433D03*
X99360433Y-78720433D03*
X100630433Y-78720433D03*
X101900433Y-78720433D03*
X103170433Y-78720433D03*
X104440433Y-78720433D03*
X105710433Y-78720433D03*
X106980433Y-78720433D03*
X108250433Y-78720433D03*
%TD*%
D48*
%TO.C,U112*%
X88622500Y-23925000D03*
X88622500Y-24425000D03*
X88622500Y-24925000D03*
X88622500Y-25425000D03*
X88622500Y-25925000D03*
X88622500Y-26425000D03*
X88622500Y-26925000D03*
X88622500Y-27425000D03*
X88622500Y-27925000D03*
X88622500Y-28425000D03*
X88622500Y-28925000D03*
X88622500Y-29425000D03*
D49*
X90035000Y-30837500D03*
X90535000Y-30837500D03*
X91035000Y-30837500D03*
X91535000Y-30837500D03*
X92035000Y-30837500D03*
X92535000Y-30837500D03*
X93035000Y-30837500D03*
X93535000Y-30837500D03*
X94035000Y-30837500D03*
X94535000Y-30837500D03*
X95035000Y-30837500D03*
X95535000Y-30837500D03*
D48*
X96947500Y-29425000D03*
X96947500Y-28925000D03*
X96947500Y-28425000D03*
X96947500Y-27925000D03*
X96947500Y-27425000D03*
X96947500Y-26925000D03*
X96947500Y-26425000D03*
X96947500Y-25925000D03*
X96947500Y-25425000D03*
X96947500Y-24925000D03*
X96947500Y-24425000D03*
X96947500Y-23925000D03*
D49*
X95535000Y-22512500D03*
X95035000Y-22512500D03*
X94535000Y-22512500D03*
X94035000Y-22512500D03*
X93535000Y-22512500D03*
X93035000Y-22512500D03*
X92535000Y-22512500D03*
X92035000Y-22512500D03*
X91535000Y-22512500D03*
X91035000Y-22512500D03*
X90535000Y-22512500D03*
X90035000Y-22512500D03*
%TD*%
D50*
%TO.C,U103*%
X16785000Y-145600500D03*
X21925000Y-145600500D03*
%TD*%
D51*
%TO.C,U81*%
X-4399567Y-43490500D03*
D52*
X-4399567Y-40950500D03*
X-1859567Y-43490500D03*
X-1859567Y-40950500D03*
X680433Y-43490500D03*
X680433Y-40950500D03*
X3220433Y-43490500D03*
X3220433Y-40950500D03*
X5760433Y-43490500D03*
X5760433Y-40950500D03*
X8300433Y-43490500D03*
X8300433Y-40950500D03*
X10840433Y-43490500D03*
X10840433Y-40950500D03*
X13380433Y-43490500D03*
X13380433Y-40950500D03*
X15920433Y-43490500D03*
X15920433Y-40950500D03*
X18460433Y-43490500D03*
X18460433Y-40950500D03*
X21000433Y-43490500D03*
X21000433Y-40950500D03*
X23540433Y-43490500D03*
X23540433Y-40950500D03*
X26080433Y-43490500D03*
X26080433Y-40950500D03*
%TD*%
D53*
%TO.C,U49*%
X15822500Y-157965000D03*
X18747500Y-157965000D03*
%TD*%
D21*
%TO.C,U47*%
X29687500Y-151180000D03*
X29687500Y-152130000D03*
X29687500Y-153080000D03*
X31962500Y-153080000D03*
X31962500Y-152130000D03*
X31962500Y-151180000D03*
%TD*%
D43*
%TO.C,U44*%
X128637500Y-65060000D03*
X128637500Y-65710000D03*
X128637500Y-66360000D03*
X128637500Y-67010000D03*
X128637500Y-67660000D03*
X128637500Y-68310000D03*
X128637500Y-68960000D03*
X128637500Y-69610000D03*
X134362500Y-69610000D03*
X134362500Y-68960000D03*
X134362500Y-68310000D03*
X134362500Y-67660000D03*
X134362500Y-67010000D03*
X134362500Y-66360000D03*
X134362500Y-65710000D03*
X134362500Y-65060000D03*
%TD*%
D26*
%TO.C,U43*%
X93537500Y-143005000D03*
X93537500Y-143505000D03*
X93537500Y-144005000D03*
X93537500Y-144505000D03*
D27*
X94250000Y-145217500D03*
X94750000Y-145217500D03*
X95250000Y-145217500D03*
X95750000Y-145217500D03*
D26*
X96462500Y-144505000D03*
X96462500Y-144005000D03*
X96462500Y-143505000D03*
X96462500Y-143005000D03*
D27*
X95750000Y-142292500D03*
X95250000Y-142292500D03*
X94750000Y-142292500D03*
X94250000Y-142292500D03*
D28*
X95000000Y-143755000D03*
%TD*%
D54*
%TO.C,THR_STR_SPD1*%
X33301433Y-22537000D03*
X30761433Y-22537000D03*
X28221433Y-22537000D03*
X33301433Y-25077000D03*
X30761433Y-25077000D03*
X28221433Y-25077000D03*
X33301433Y-27617000D03*
X30761433Y-27617000D03*
X28221433Y-27617000D03*
%TD*%
D55*
%TO.C,SW11*%
X72695000Y-43120500D03*
X79495000Y-43120500D03*
X79495000Y-40120500D03*
X72695000Y-40120500D03*
%TD*%
D56*
%TO.C,SW8*%
X63365433Y-154155000D03*
X64635433Y-154155000D03*
X65905433Y-154155000D03*
X67175433Y-154155000D03*
X67175433Y-146535000D03*
X65905433Y-146535000D03*
X64635433Y-146535000D03*
X63365433Y-146535000D03*
%TD*%
D57*
%TO.C,RN1*%
X61770500Y-43690000D03*
D58*
X62570500Y-43690000D03*
X63370500Y-43690000D03*
D57*
X64170500Y-43690000D03*
X64170500Y-42090000D03*
D58*
X63370500Y-42090000D03*
X62570500Y-42090000D03*
D57*
X61770500Y-42090000D03*
%TD*%
D59*
%TO.C,R563*%
X123920000Y-89695000D03*
X125570000Y-89695000D03*
%TD*%
%TO.C,R562*%
X123920000Y-87185000D03*
X125570000Y-87185000D03*
%TD*%
%TO.C,R561*%
X123920000Y-84675000D03*
X125570000Y-84675000D03*
%TD*%
%TO.C,R560*%
X123920000Y-82165000D03*
X125570000Y-82165000D03*
%TD*%
%TO.C,R559*%
X123920000Y-79655000D03*
X125570000Y-79655000D03*
%TD*%
%TO.C,R558*%
X133140000Y-147375000D03*
X134790000Y-147375000D03*
%TD*%
D60*
%TO.C,R556*%
X-5107500Y-106615000D03*
X817500Y-106615000D03*
%TD*%
%TO.C,R555*%
X-5107500Y-101705000D03*
X817500Y-101705000D03*
%TD*%
%TO.C,R554*%
X-5107500Y-96795000D03*
X817500Y-96795000D03*
%TD*%
D61*
%TO.C,R553*%
X8015000Y-104645000D03*
X8655000Y-104645000D03*
%TD*%
%TO.C,R552*%
X8015000Y-102895000D03*
X8655000Y-102895000D03*
%TD*%
%TO.C,R551*%
X8015000Y-101145000D03*
X8655000Y-101145000D03*
%TD*%
%TO.C,R550*%
X5565000Y-104645000D03*
X6205000Y-104645000D03*
%TD*%
%TO.C,R549*%
X5565000Y-102895000D03*
X6205000Y-102895000D03*
%TD*%
%TO.C,R548*%
X5565000Y-101145000D03*
X6205000Y-101145000D03*
%TD*%
D62*
%TO.C,R547*%
X31555000Y-94695000D03*
X32575000Y-94695000D03*
%TD*%
%TO.C,R546*%
X31555000Y-92705000D03*
X32575000Y-92705000D03*
%TD*%
%TO.C,R545*%
X31555000Y-90715000D03*
X32575000Y-90715000D03*
%TD*%
%TO.C,R544*%
X31555000Y-88725000D03*
X32575000Y-88725000D03*
%TD*%
%TO.C,R543*%
X31555000Y-86735000D03*
X32575000Y-86735000D03*
%TD*%
%TO.C,R542*%
X31555000Y-84745000D03*
X32575000Y-84745000D03*
%TD*%
%TO.C,R541*%
X31555000Y-82755000D03*
X32575000Y-82755000D03*
%TD*%
%TO.C,R540*%
X31555000Y-80765000D03*
X32575000Y-80765000D03*
%TD*%
D59*
%TO.C,R539*%
X96410000Y-160585000D03*
X98060000Y-160585000D03*
%TD*%
%TO.C,R538*%
X53520000Y-125835000D03*
X55170000Y-125835000D03*
%TD*%
%TO.C,R536*%
X53520000Y-123325000D03*
X55170000Y-123325000D03*
%TD*%
%TO.C,R535*%
X53520000Y-120815000D03*
X55170000Y-120815000D03*
%TD*%
%TO.C,R534*%
X53520000Y-118305000D03*
X55170000Y-118305000D03*
%TD*%
%TO.C,R531*%
X93030000Y-119545000D03*
X94680000Y-119545000D03*
%TD*%
%TO.C,R530*%
X93030000Y-117035000D03*
X94680000Y-117035000D03*
%TD*%
%TO.C,R529*%
X93030000Y-114525000D03*
X94680000Y-114525000D03*
%TD*%
%TO.C,R528*%
X93030000Y-112015000D03*
X94680000Y-112015000D03*
%TD*%
%TO.C,R527*%
X93030000Y-109505000D03*
X94680000Y-109505000D03*
%TD*%
%TO.C,R525*%
X120100000Y-46995000D03*
X121750000Y-46995000D03*
%TD*%
%TO.C,R524*%
X120100000Y-44485000D03*
X121750000Y-44485000D03*
%TD*%
D60*
%TO.C,R522*%
X41812500Y-47845000D03*
X47737500Y-47845000D03*
%TD*%
%TO.C,R521*%
X41812500Y-42935000D03*
X47737500Y-42935000D03*
%TD*%
%TO.C,R520*%
X41812500Y-38025000D03*
X47737500Y-38025000D03*
%TD*%
D59*
%TO.C,R519*%
X-5320000Y-129895000D03*
X-3670000Y-129895000D03*
%TD*%
%TO.C,R518*%
X-5320000Y-127385000D03*
X-3670000Y-127385000D03*
%TD*%
D63*
%TO.C,R517*%
X120166000Y-111798000D03*
X127786000Y-111798000D03*
%TD*%
D59*
%TO.C,R516*%
X118560000Y-124125000D03*
X120210000Y-124125000D03*
%TD*%
%TO.C,R515*%
X13320000Y-56845000D03*
X14970000Y-56845000D03*
%TD*%
%TO.C,R514*%
X13320000Y-54335000D03*
X14970000Y-54335000D03*
%TD*%
%TO.C,R513*%
X13320000Y-51825000D03*
X14970000Y-51825000D03*
%TD*%
%TO.C,R512*%
X117910000Y-86945000D03*
X119560000Y-86945000D03*
%TD*%
%TO.C,R511*%
X117910000Y-84435000D03*
X119560000Y-84435000D03*
%TD*%
%TO.C,R510*%
X330000Y-152795000D03*
X1980000Y-152795000D03*
%TD*%
%TO.C,R509*%
X330000Y-150285000D03*
X1980000Y-150285000D03*
%TD*%
%TO.C,R508*%
X53860000Y-151285000D03*
X55510000Y-151285000D03*
%TD*%
%TO.C,R507*%
X53860000Y-148775000D03*
X55510000Y-148775000D03*
%TD*%
%TO.C,R506*%
X53860000Y-146265000D03*
X55510000Y-146265000D03*
%TD*%
%TO.C,R505*%
X49850000Y-156305000D03*
X51500000Y-156305000D03*
%TD*%
%TO.C,R504*%
X49850000Y-153795000D03*
X51500000Y-153795000D03*
%TD*%
%TO.C,R502*%
X330000Y-147775000D03*
X1980000Y-147775000D03*
%TD*%
%TO.C,R501*%
X49850000Y-151285000D03*
X51500000Y-151285000D03*
%TD*%
D62*
%TO.C,R500*%
X95000Y-159025000D03*
X1115000Y-159025000D03*
%TD*%
%TO.C,R498*%
X95000Y-157035000D03*
X1115000Y-157035000D03*
%TD*%
D59*
%TO.C,R497*%
X118560000Y-121615000D03*
X120210000Y-121615000D03*
%TD*%
%TO.C,R496*%
X49850000Y-148775000D03*
X51500000Y-148775000D03*
%TD*%
%TO.C,R495*%
X84280000Y-32295000D03*
X85930000Y-32295000D03*
%TD*%
%TO.C,R494*%
X96410000Y-158075000D03*
X98060000Y-158075000D03*
%TD*%
%TO.C,R493*%
X96410000Y-155565000D03*
X98060000Y-155565000D03*
%TD*%
%TO.C,R492*%
X89020000Y-124565000D03*
X90670000Y-124565000D03*
%TD*%
%TO.C,R491*%
X89020000Y-122055000D03*
X90670000Y-122055000D03*
%TD*%
%TO.C,R490*%
X89020000Y-119545000D03*
X90670000Y-119545000D03*
%TD*%
%TO.C,R489*%
X89020000Y-117035000D03*
X90670000Y-117035000D03*
%TD*%
%TO.C,R485*%
X49850000Y-146265000D03*
X51500000Y-146265000D03*
%TD*%
%TO.C,R484*%
X96410000Y-153055000D03*
X98060000Y-153055000D03*
%TD*%
%TO.C,R483*%
X330000Y-145265000D03*
X1980000Y-145265000D03*
%TD*%
D62*
%TO.C,R482*%
X95000Y-155045000D03*
X1115000Y-155045000D03*
%TD*%
D59*
%TO.C,R481*%
X330000Y-142755000D03*
X1980000Y-142755000D03*
%TD*%
%TO.C,R480*%
X45840000Y-156305000D03*
X47490000Y-156305000D03*
%TD*%
D53*
%TO.C,R478*%
X88452500Y-44815000D03*
X91377500Y-44815000D03*
%TD*%
D59*
%TO.C,R477*%
X96410000Y-150545000D03*
X98060000Y-150545000D03*
%TD*%
%TO.C,R475*%
X45840000Y-153795000D03*
X47490000Y-153795000D03*
%TD*%
%TO.C,R474*%
X45840000Y-151285000D03*
X47490000Y-151285000D03*
%TD*%
%TO.C,R473*%
X84280000Y-29785000D03*
X85930000Y-29785000D03*
%TD*%
%TO.C,R472*%
X45840000Y-148775000D03*
X47490000Y-148775000D03*
%TD*%
%TO.C,R471*%
X84280000Y-27275000D03*
X85930000Y-27275000D03*
%TD*%
%TO.C,R470*%
X89020000Y-114525000D03*
X90670000Y-114525000D03*
%TD*%
D60*
%TO.C,R469*%
X111592500Y-75745000D03*
X117517500Y-75745000D03*
%TD*%
D59*
%TO.C,R468*%
X117910000Y-81925000D03*
X119560000Y-81925000D03*
%TD*%
%TO.C,R467*%
X113900000Y-91965000D03*
X115550000Y-91965000D03*
%TD*%
%TO.C,R465*%
X49510000Y-135875000D03*
X51160000Y-135875000D03*
%TD*%
%TO.C,R464*%
X49510000Y-133365000D03*
X51160000Y-133365000D03*
%TD*%
%TO.C,R462*%
X49510000Y-130855000D03*
X51160000Y-130855000D03*
%TD*%
%TO.C,R461*%
X49510000Y-128345000D03*
X51160000Y-128345000D03*
%TD*%
%TO.C,R460*%
X113900000Y-89455000D03*
X115550000Y-89455000D03*
%TD*%
%TO.C,R459*%
X113900000Y-86945000D03*
X115550000Y-86945000D03*
%TD*%
%TO.C,R458*%
X113900000Y-84435000D03*
X115550000Y-84435000D03*
%TD*%
D61*
%TO.C,R457*%
X82695000Y-54015000D03*
X83335000Y-54015000D03*
%TD*%
%TO.C,R456*%
X82695000Y-52265000D03*
X83335000Y-52265000D03*
%TD*%
D62*
%TO.C,R455*%
X74925000Y-58595000D03*
X75945000Y-58595000D03*
%TD*%
%TO.C,R454*%
X74925000Y-56605000D03*
X75945000Y-56605000D03*
%TD*%
D61*
%TO.C,R453*%
X82695000Y-50515000D03*
X83335000Y-50515000D03*
%TD*%
%TO.C,R452*%
X80245000Y-54015000D03*
X80885000Y-54015000D03*
%TD*%
D62*
%TO.C,R451*%
X74925000Y-54615000D03*
X75945000Y-54615000D03*
%TD*%
%TO.C,R450*%
X74925000Y-52625000D03*
X75945000Y-52625000D03*
%TD*%
D61*
%TO.C,R449*%
X80245000Y-52265000D03*
X80885000Y-52265000D03*
%TD*%
%TO.C,R448*%
X80245000Y-50515000D03*
X80885000Y-50515000D03*
%TD*%
D62*
%TO.C,R447*%
X74925000Y-50635000D03*
X75945000Y-50635000D03*
%TD*%
%TO.C,R446*%
X72015000Y-60585000D03*
X73035000Y-60585000D03*
%TD*%
D59*
%TO.C,R445*%
X13320000Y-49315000D03*
X14970000Y-49315000D03*
%TD*%
%TO.C,R444*%
X89020000Y-112015000D03*
X90670000Y-112015000D03*
%TD*%
D62*
%TO.C,R443*%
X52755000Y-158555000D03*
X53775000Y-158555000D03*
%TD*%
D59*
%TO.C,R442*%
X106770000Y-157415000D03*
X108420000Y-157415000D03*
%TD*%
%TO.C,R441*%
X106770000Y-154905000D03*
X108420000Y-154905000D03*
%TD*%
%TO.C,R440*%
X106770000Y-152395000D03*
X108420000Y-152395000D03*
%TD*%
%TO.C,R439*%
X106770000Y-149885000D03*
X108420000Y-149885000D03*
%TD*%
%TO.C,R438*%
X106770000Y-147375000D03*
X108420000Y-147375000D03*
%TD*%
D62*
%TO.C,R437*%
X114895000Y-152045000D03*
X115915000Y-152045000D03*
%TD*%
%TO.C,R436*%
X114895000Y-150055000D03*
X115915000Y-150055000D03*
%TD*%
%TO.C,R435*%
X114895000Y-148065000D03*
X115915000Y-148065000D03*
%TD*%
%TO.C,R434*%
X114895000Y-146075000D03*
X115915000Y-146075000D03*
%TD*%
%TO.C,R433*%
X114895000Y-144085000D03*
X115915000Y-144085000D03*
%TD*%
%TO.C,R432*%
X114895000Y-142095000D03*
X115915000Y-142095000D03*
%TD*%
%TO.C,R431*%
X72015000Y-58595000D03*
X73035000Y-58595000D03*
%TD*%
%TO.C,R430*%
X72015000Y-56605000D03*
X73035000Y-56605000D03*
%TD*%
D59*
%TO.C,R428*%
X89020000Y-109505000D03*
X90670000Y-109505000D03*
%TD*%
%TO.C,R427*%
X13320000Y-46805000D03*
X14970000Y-46805000D03*
%TD*%
%TO.C,R426*%
X9310000Y-59355000D03*
X10960000Y-59355000D03*
%TD*%
%TO.C,R424*%
X85010000Y-124565000D03*
X86660000Y-124565000D03*
%TD*%
%TO.C,R423*%
X85010000Y-122055000D03*
X86660000Y-122055000D03*
%TD*%
%TO.C,R422*%
X85010000Y-119545000D03*
X86660000Y-119545000D03*
%TD*%
%TO.C,R418*%
X84280000Y-24765000D03*
X85930000Y-24765000D03*
%TD*%
%TO.C,R417*%
X85010000Y-117035000D03*
X86660000Y-117035000D03*
%TD*%
%TO.C,R416*%
X84280000Y-22255000D03*
X85930000Y-22255000D03*
%TD*%
%TO.C,R414*%
X49510000Y-125835000D03*
X51160000Y-125835000D03*
%TD*%
%TO.C,R413*%
X49510000Y-123325000D03*
X51160000Y-123325000D03*
%TD*%
%TO.C,R412*%
X49510000Y-120815000D03*
X51160000Y-120815000D03*
%TD*%
%TO.C,R410*%
X49510000Y-118305000D03*
X51160000Y-118305000D03*
%TD*%
%TO.C,R409*%
X45500000Y-135875000D03*
X47150000Y-135875000D03*
%TD*%
%TO.C,R407*%
X85010000Y-114525000D03*
X86660000Y-114525000D03*
%TD*%
%TO.C,R405*%
X85010000Y-112015000D03*
X86660000Y-112015000D03*
%TD*%
%TO.C,R404*%
X85175000Y-105500000D03*
X86825000Y-105500000D03*
%TD*%
%TO.C,R401*%
X45500000Y-133365000D03*
X47150000Y-133365000D03*
%TD*%
%TO.C,R400*%
X45500000Y-130855000D03*
X47150000Y-130855000D03*
%TD*%
%TO.C,R399*%
X45500000Y-128345000D03*
X47150000Y-128345000D03*
%TD*%
%TO.C,R393*%
X123920000Y-70315000D03*
X125570000Y-70315000D03*
%TD*%
%TO.C,R392*%
X92400000Y-160585000D03*
X94050000Y-160585000D03*
%TD*%
%TO.C,R391*%
X92400000Y-158075000D03*
X94050000Y-158075000D03*
%TD*%
D64*
%TO.C,R389*%
X98942500Y-142575000D03*
X100767500Y-142575000D03*
%TD*%
D59*
%TO.C,R385*%
X81000000Y-124565000D03*
X82650000Y-124565000D03*
%TD*%
%TO.C,R384*%
X81000000Y-122055000D03*
X82650000Y-122055000D03*
%TD*%
%TO.C,R382*%
X45500000Y-125835000D03*
X47150000Y-125835000D03*
%TD*%
D63*
%TO.C,R378*%
X62836000Y-101688000D03*
X70456000Y-101688000D03*
%TD*%
D59*
%TO.C,R377*%
X80270000Y-37315000D03*
X81920000Y-37315000D03*
%TD*%
%TO.C,R376*%
X80270000Y-34805000D03*
X81920000Y-34805000D03*
%TD*%
%TO.C,R375*%
X80270000Y-32295000D03*
X81920000Y-32295000D03*
%TD*%
%TO.C,R374*%
X80270000Y-29785000D03*
X81920000Y-29785000D03*
%TD*%
D62*
%TO.C,R370*%
X127245000Y-123945000D03*
X128265000Y-123945000D03*
%TD*%
D59*
%TO.C,R368*%
X73260000Y-90755000D03*
X74910000Y-90755000D03*
%TD*%
%TO.C,R367*%
X73260000Y-88245000D03*
X74910000Y-88245000D03*
%TD*%
%TO.C,R365*%
X73260000Y-85735000D03*
X74910000Y-85735000D03*
%TD*%
%TO.C,R364*%
X73260000Y-83225000D03*
X74910000Y-83225000D03*
%TD*%
%TO.C,R363*%
X73260000Y-80715000D03*
X74910000Y-80715000D03*
%TD*%
%TO.C,R362*%
X69250000Y-90755000D03*
X70900000Y-90755000D03*
%TD*%
%TO.C,R361*%
X69250000Y-88245000D03*
X70900000Y-88245000D03*
%TD*%
%TO.C,R360*%
X69250000Y-85735000D03*
X70900000Y-85735000D03*
%TD*%
%TO.C,R359*%
X69250000Y-83225000D03*
X70900000Y-83225000D03*
%TD*%
%TO.C,R358*%
X69250000Y-80715000D03*
X70900000Y-80715000D03*
%TD*%
%TO.C,R357*%
X65240000Y-90755000D03*
X66890000Y-90755000D03*
%TD*%
%TO.C,R355*%
X65240000Y-88245000D03*
X66890000Y-88245000D03*
%TD*%
%TO.C,R354*%
X65240000Y-85735000D03*
X66890000Y-85735000D03*
%TD*%
%TO.C,R353*%
X65240000Y-83225000D03*
X66890000Y-83225000D03*
%TD*%
D62*
%TO.C,R351*%
X71245000Y-75345000D03*
X72265000Y-75345000D03*
%TD*%
%TO.C,R350*%
X71245000Y-73355000D03*
X72265000Y-73355000D03*
%TD*%
D59*
%TO.C,R349*%
X80270000Y-27275000D03*
X81920000Y-27275000D03*
%TD*%
%TO.C,R348*%
X80270000Y-24765000D03*
X81920000Y-24765000D03*
%TD*%
%TO.C,R346*%
X80270000Y-22255000D03*
X81920000Y-22255000D03*
%TD*%
%TO.C,R345*%
X76260000Y-37315000D03*
X77910000Y-37315000D03*
%TD*%
%TO.C,R344*%
X76260000Y-34805000D03*
X77910000Y-34805000D03*
%TD*%
%TO.C,R343*%
X76260000Y-32295000D03*
X77910000Y-32295000D03*
%TD*%
D53*
%TO.C,R342*%
X88452500Y-41505000D03*
X91377500Y-41505000D03*
%TD*%
D61*
%TO.C,R336*%
X59595000Y-156385000D03*
X60235000Y-156385000D03*
%TD*%
%TO.C,R310*%
X23835000Y-157605000D03*
X24475000Y-157605000D03*
%TD*%
%TO.C,R294*%
X59595000Y-154635000D03*
X60235000Y-154635000D03*
%TD*%
%TO.C,R293*%
X59595000Y-152885000D03*
X60235000Y-152885000D03*
%TD*%
%TO.C,R292*%
X59595000Y-151135000D03*
X60235000Y-151135000D03*
%TD*%
%TO.C,R291*%
X59595000Y-149385000D03*
X60235000Y-149385000D03*
%TD*%
%TO.C,R290*%
X59595000Y-147635000D03*
X60235000Y-147635000D03*
%TD*%
%TO.C,R289*%
X66305000Y-39945000D03*
X66945000Y-39945000D03*
%TD*%
%TO.C,R288*%
X66305000Y-38195000D03*
X66945000Y-38195000D03*
%TD*%
%TO.C,R287*%
X66305000Y-36445000D03*
X66945000Y-36445000D03*
%TD*%
%TO.C,R286*%
X63855000Y-39945000D03*
X64495000Y-39945000D03*
%TD*%
%TO.C,R285*%
X63855000Y-38195000D03*
X64495000Y-38195000D03*
%TD*%
%TO.C,R284*%
X63855000Y-36445000D03*
X64495000Y-36445000D03*
%TD*%
D62*
%TO.C,R278*%
X26325000Y-161955000D03*
X27345000Y-161955000D03*
%TD*%
D61*
%TO.C,R182*%
X80725000Y-163455000D03*
X81365000Y-163455000D03*
%TD*%
%TO.C,R181*%
X59595000Y-145885000D03*
X60235000Y-145885000D03*
%TD*%
%TO.C,R180*%
X80725000Y-161705000D03*
X81365000Y-161705000D03*
%TD*%
%TO.C,R176*%
X23835000Y-155855000D03*
X24475000Y-155855000D03*
%TD*%
%TO.C,R175*%
X23835000Y-154105000D03*
X24475000Y-154105000D03*
%TD*%
D59*
%TO.C,R174*%
X123920000Y-67805000D03*
X125570000Y-67805000D03*
%TD*%
D62*
%TO.C,R149*%
X50075000Y-48505000D03*
X51095000Y-48505000D03*
%TD*%
%TO.C,R148*%
X50075000Y-46515000D03*
X51095000Y-46515000D03*
%TD*%
%TO.C,R147*%
X50075000Y-44525000D03*
X51095000Y-44525000D03*
%TD*%
%TO.C,R146*%
X50075000Y-42535000D03*
X51095000Y-42535000D03*
%TD*%
%TO.C,R145*%
X50075000Y-40545000D03*
X51095000Y-40545000D03*
%TD*%
%TO.C,R144*%
X50075000Y-38555000D03*
X51095000Y-38555000D03*
%TD*%
D61*
%TO.C,R101*%
X80725000Y-159955000D03*
X81365000Y-159955000D03*
%TD*%
D62*
%TO.C,R87*%
X123685000Y-72565000D03*
X124705000Y-72565000D03*
%TD*%
D59*
%TO.C,R80*%
X123920000Y-65295000D03*
X125570000Y-65295000D03*
%TD*%
D62*
%TO.C,R71*%
X50075000Y-36565000D03*
X51095000Y-36565000D03*
%TD*%
%TO.C,R69*%
X72015000Y-54615000D03*
X73035000Y-54615000D03*
%TD*%
%TO.C,R68*%
X72015000Y-52625000D03*
X73035000Y-52625000D03*
%TD*%
%TO.C,R67*%
X72015000Y-50635000D03*
X73035000Y-50635000D03*
%TD*%
%TO.C,R60*%
X72675000Y-149985000D03*
X73695000Y-149985000D03*
%TD*%
%TO.C,R59*%
X72675000Y-147995000D03*
X73695000Y-147995000D03*
%TD*%
%TO.C,R57*%
X72675000Y-146005000D03*
X73695000Y-146005000D03*
%TD*%
D65*
%TO.C,Q72*%
X128267500Y-84125000D03*
X128267500Y-86025000D03*
X130142500Y-85075000D03*
%TD*%
%TO.C,Q71*%
X128267500Y-79675000D03*
X128267500Y-81575000D03*
X130142500Y-80625000D03*
%TD*%
%TO.C,Q69*%
X106507500Y-122875000D03*
X106507500Y-124775000D03*
X108382500Y-123825000D03*
%TD*%
D66*
%TO.C,Q68*%
X28052000Y-58805000D03*
X29322000Y-58805000D03*
X30592000Y-58805000D03*
X31862000Y-58805000D03*
X31867000Y-53305000D03*
X30597000Y-53305000D03*
X29327000Y-53305000D03*
X28057000Y-53305000D03*
D67*
X29959500Y-55409000D03*
%TD*%
D66*
%TO.C,Q67*%
X84692000Y-95605000D03*
X85962000Y-95605000D03*
X87232000Y-95605000D03*
X88502000Y-95605000D03*
X88507000Y-90105000D03*
X87237000Y-90105000D03*
X85967000Y-90105000D03*
X84697000Y-90105000D03*
D67*
X86599500Y-92209000D03*
%TD*%
D65*
%TO.C,Q65*%
X106507500Y-118425000D03*
X106507500Y-120325000D03*
X108382500Y-119375000D03*
%TD*%
%TO.C,Q64*%
X82637500Y-44465000D03*
X82637500Y-46365000D03*
X84512500Y-45415000D03*
%TD*%
%TO.C,Q63*%
X106507500Y-113975000D03*
X106507500Y-115875000D03*
X108382500Y-114925000D03*
%TD*%
D66*
%TO.C,Q62*%
X61824500Y-115125000D03*
X63094500Y-115125000D03*
X64364500Y-115125000D03*
X65634500Y-115125000D03*
X65639500Y-109625000D03*
X64369500Y-109625000D03*
X63099500Y-109625000D03*
X61829500Y-109625000D03*
D67*
X63732000Y-111729000D03*
%TD*%
D66*
%TO.C,Q61*%
X55157000Y-115125000D03*
X56427000Y-115125000D03*
X57697000Y-115125000D03*
X58967000Y-115125000D03*
X58972000Y-109625000D03*
X57702000Y-109625000D03*
X56432000Y-109625000D03*
X55162000Y-109625000D03*
D67*
X57064500Y-111729000D03*
%TD*%
D66*
%TO.C,Q60*%
X48489500Y-115125000D03*
X49759500Y-115125000D03*
X51029500Y-115125000D03*
X52299500Y-115125000D03*
X52304500Y-109625000D03*
X51034500Y-109625000D03*
X49764500Y-109625000D03*
X48494500Y-109625000D03*
D67*
X50397000Y-111729000D03*
%TD*%
D66*
%TO.C,Q58*%
X41822000Y-115125000D03*
X43092000Y-115125000D03*
X44362000Y-115125000D03*
X45632000Y-115125000D03*
X45637000Y-109625000D03*
X44367000Y-109625000D03*
X43097000Y-109625000D03*
X41827000Y-109625000D03*
D67*
X43729500Y-111729000D03*
%TD*%
D68*
%TO.C,Q56*%
X81695000Y-142990000D03*
D69*
X87995000Y-145270000D03*
D68*
X81695000Y-147550000D03*
%TD*%
D65*
%TO.C,Q54*%
X106507500Y-109525000D03*
X106507500Y-111425000D03*
X108382500Y-110475000D03*
%TD*%
%TO.C,Q46*%
X122907500Y-121215000D03*
X122907500Y-123115000D03*
X124782500Y-122165000D03*
%TD*%
D70*
%TO.C,Q45*%
X72075000Y-65940000D03*
X72075000Y-68240000D03*
D71*
X78375000Y-68240000D03*
D70*
X72075000Y-70540000D03*
%TD*%
D65*
%TO.C,Q44*%
X55957500Y-102305000D03*
X55957500Y-104205000D03*
X57832500Y-103255000D03*
%TD*%
%TO.C,Q43*%
X55957500Y-97855000D03*
X55957500Y-99755000D03*
X57832500Y-98805000D03*
%TD*%
D72*
%TO.C,Q42*%
X54367000Y-76831500D03*
D73*
X59162000Y-76832000D03*
D74*
X58576000Y-68977000D03*
%TD*%
D72*
%TO.C,Q41*%
X42210000Y-76831500D03*
D73*
X47005000Y-76832000D03*
D74*
X46419000Y-68977000D03*
%TD*%
D75*
%TO.C,Q32*%
X16230000Y-151185000D03*
X16230000Y-152455000D03*
X16230000Y-153725000D03*
X16230000Y-154995000D03*
X21180000Y-154995000D03*
X21180000Y-153725000D03*
X21180000Y-152455000D03*
X21180000Y-151185000D03*
%TD*%
D65*
%TO.C,Q16*%
X62657500Y-156955000D03*
X62657500Y-158855000D03*
X64532500Y-157905000D03*
%TD*%
D76*
%TO.C,L7*%
X-5282500Y-124875000D03*
X-3707500Y-124875000D03*
%TD*%
D77*
%TO.C,L6*%
X26005000Y-145550500D03*
X31605000Y-145550500D03*
%TD*%
D78*
%TO.C,H6*%
X97960433Y-137021433D03*
D79*
X100500433Y-137021433D03*
%TD*%
D78*
%TO.C,H5*%
X121020433Y-50300500D03*
D79*
X123560433Y-50300500D03*
%TD*%
D80*
%TO.C,H4*%
X7391366Y-27655000D03*
D29*
X7391366Y-25115000D03*
X7391366Y-22575000D03*
X9931366Y-27655000D03*
X9931366Y-25115000D03*
X9931366Y-22575000D03*
X12471366Y-27655000D03*
X12471366Y-25115000D03*
X12471366Y-22575000D03*
X15011366Y-27655000D03*
X15011366Y-25115000D03*
X15011366Y-22575000D03*
%TD*%
D80*
%TO.C,H3*%
X-4399567Y-27655000D03*
D29*
X-4399567Y-25115000D03*
X-4399567Y-22575000D03*
X-1859567Y-27655000D03*
X-1859567Y-25115000D03*
X-1859567Y-22575000D03*
X680433Y-27655000D03*
X680433Y-25115000D03*
X680433Y-22575000D03*
X3220433Y-27655000D03*
X3220433Y-25115000D03*
X3220433Y-22575000D03*
%TD*%
D78*
%TO.C,H2*%
X95670433Y-94650500D03*
D79*
X98210433Y-94650500D03*
%TD*%
D78*
%TO.C,H1*%
X97960433Y-132890500D03*
D79*
X100500433Y-132890500D03*
%TD*%
D81*
%TO.C,F13*%
X94119750Y-45068750D03*
X97009750Y-45068750D03*
%TD*%
%TO.C,F11*%
X81219750Y-137256250D03*
X84109750Y-137256250D03*
%TD*%
%TO.C,F10*%
X81219750Y-133918750D03*
X84109750Y-133918750D03*
%TD*%
%TO.C,F9*%
X66019750Y-75721250D03*
X68909750Y-75721250D03*
%TD*%
%TO.C,F8*%
X66019750Y-72383750D03*
X68909750Y-72383750D03*
%TD*%
%TO.C,F7*%
X66019750Y-69046250D03*
X68909750Y-69046250D03*
%TD*%
%TO.C,F6*%
X66019750Y-65708750D03*
X68909750Y-65708750D03*
%TD*%
D82*
%TO.C,F1*%
X63530433Y-95060500D03*
X68530433Y-95060500D03*
X72730433Y-95060500D03*
X77730433Y-95060500D03*
%TD*%
D11*
%TO.C,ESC1*%
X70330000Y-151928299D03*
X70830000Y-151928299D03*
%TD*%
D78*
%TO.C,ESC-6V2*%
X18250433Y-59961433D03*
D79*
X20790433Y-59961433D03*
%TD*%
D78*
%TO.C,ESC-6V1*%
X18250433Y-55830500D03*
D79*
X20790433Y-55830500D03*
%TD*%
D54*
%TO.C,DIFF_DIFR_SBUS1*%
X24170500Y-22537000D03*
X21630500Y-22537000D03*
X19090500Y-22537000D03*
X24170500Y-25077000D03*
X21630500Y-25077000D03*
X19090500Y-25077000D03*
X24170500Y-27617000D03*
X21630500Y-27617000D03*
X19090500Y-27617000D03*
%TD*%
D83*
%TO.C,DC1*%
X76050500Y-122380433D03*
X69850500Y-122380433D03*
D84*
X73050500Y-127080433D03*
%TD*%
D85*
%TO.C,D83*%
X98730433Y-145907500D03*
X99230433Y-145907500D03*
D86*
X99730433Y-145907500D03*
D85*
X100230433Y-145907500D03*
X100730433Y-145907500D03*
X100730433Y-145107500D03*
X100230433Y-145107500D03*
D86*
X99730433Y-145107500D03*
D85*
X99230433Y-145107500D03*
X98730433Y-145107500D03*
%TD*%
%TO.C,D82*%
X9990433Y-137167500D03*
X10490433Y-137167500D03*
D86*
X10990433Y-137167500D03*
D85*
X11490433Y-137167500D03*
X11990433Y-137167500D03*
X11990433Y-136367500D03*
X11490433Y-136367500D03*
D86*
X10990433Y-136367500D03*
D85*
X10490433Y-136367500D03*
X9990433Y-136367500D03*
%TD*%
D87*
%TO.C,D69*%
X72120750Y-45800500D03*
X72920750Y-45800500D03*
%TD*%
D88*
%TO.C,D57*%
X134039000Y-74333500D03*
X134039000Y-72493500D03*
D89*
X129975000Y-73413500D03*
%TD*%
D29*
%TO.C,CN13*%
X35467500Y-49307433D03*
X33467500Y-49307433D03*
X31467500Y-49307433D03*
X29467500Y-49307433D03*
%TD*%
D90*
%TO.C,CN12*%
X30809000Y-40690000D03*
%TD*%
%TO.C,CN11*%
X102939000Y-94370000D03*
%TD*%
%TO.C,CN10*%
X64159000Y-141240000D03*
%TD*%
%TO.C,CN9*%
X64159000Y-137700000D03*
%TD*%
%TO.C,CN8*%
X64159000Y-134160000D03*
%TD*%
D51*
%TO.C,CN6*%
X99190433Y-126512366D03*
D52*
X101690433Y-126512366D03*
%TD*%
D51*
%TO.C,CN5*%
X99190433Y-118981433D03*
D52*
X101690433Y-118981433D03*
%TD*%
D51*
%TO.C,CN4*%
X99190433Y-111450500D03*
D52*
X101690433Y-111450500D03*
%TD*%
D90*
%TO.C,CN3*%
X64159000Y-130620000D03*
%TD*%
D91*
%TO.C,CN1*%
X92860500Y-36707433D03*
X90360500Y-36707433D03*
%TD*%
D61*
%TO.C,C311*%
X3115000Y-104645000D03*
X3755000Y-104645000D03*
%TD*%
%TO.C,C310*%
X3115000Y-102895000D03*
X3755000Y-102895000D03*
%TD*%
%TO.C,C309*%
X3115000Y-101145000D03*
X3755000Y-101145000D03*
%TD*%
D92*
%TO.C,C308*%
X27830000Y-96085000D03*
X29380000Y-96085000D03*
%TD*%
D93*
%TO.C,C307*%
X23425000Y-99335000D03*
X25325000Y-99335000D03*
%TD*%
D92*
%TO.C,C306*%
X27830000Y-93575000D03*
X29380000Y-93575000D03*
%TD*%
D93*
%TO.C,C305*%
X23425000Y-96325000D03*
X25325000Y-96325000D03*
%TD*%
D92*
%TO.C,C304*%
X27830000Y-91065000D03*
X29380000Y-91065000D03*
%TD*%
D93*
%TO.C,C303*%
X23425000Y-93315000D03*
X25325000Y-93315000D03*
%TD*%
D92*
%TO.C,C302*%
X27830000Y-88555000D03*
X29380000Y-88555000D03*
%TD*%
D93*
%TO.C,C301*%
X23425000Y-90305000D03*
X25325000Y-90305000D03*
%TD*%
D92*
%TO.C,C300*%
X45550000Y-123325000D03*
X47100000Y-123325000D03*
%TD*%
%TO.C,C299*%
X120150000Y-41975000D03*
X121700000Y-41975000D03*
%TD*%
%TO.C,C298*%
X120150000Y-39465000D03*
X121700000Y-39465000D03*
%TD*%
D34*
%TO.C,C297*%
X111055000Y-45521433D03*
X116395000Y-45521433D03*
%TD*%
D92*
%TO.C,C296*%
X120150000Y-36955000D03*
X121700000Y-36955000D03*
%TD*%
%TO.C,C295*%
X120150000Y-34445000D03*
X121700000Y-34445000D03*
%TD*%
D34*
%TO.C,C294*%
X111055000Y-37290500D03*
X116395000Y-37290500D03*
%TD*%
D92*
%TO.C,C290*%
X113950000Y-81925000D03*
X115500000Y-81925000D03*
%TD*%
%TO.C,C289*%
X109940000Y-91965000D03*
X111490000Y-91965000D03*
%TD*%
%TO.C,C288*%
X133190000Y-144865000D03*
X134740000Y-144865000D03*
%TD*%
%TO.C,C287*%
X133190000Y-142355000D03*
X134740000Y-142355000D03*
%TD*%
%TO.C,C286*%
X-5270000Y-122365000D03*
X-3720000Y-122365000D03*
%TD*%
%TO.C,C285*%
X-5270000Y-119855000D03*
X-3720000Y-119855000D03*
%TD*%
%TO.C,C284*%
X-5270000Y-117345000D03*
X-3720000Y-117345000D03*
%TD*%
%TO.C,C282*%
X-5270000Y-114835000D03*
X-3720000Y-114835000D03*
%TD*%
%TO.C,C281*%
X-5270000Y-112325000D03*
X-3720000Y-112325000D03*
%TD*%
D93*
%TO.C,C280*%
X15865000Y-131505000D03*
X17765000Y-131505000D03*
%TD*%
D92*
%TO.C,C279*%
X118610000Y-119105000D03*
X120160000Y-119105000D03*
%TD*%
%TO.C,C278*%
X118610000Y-116595000D03*
X120160000Y-116595000D03*
%TD*%
%TO.C,C275*%
X9360000Y-56845000D03*
X10910000Y-56845000D03*
%TD*%
%TO.C,C274*%
X9360000Y-54335000D03*
X10910000Y-54335000D03*
%TD*%
D94*
%TO.C,C273*%
X105535000Y-86650433D03*
X96745000Y-86650433D03*
%TD*%
D92*
%TO.C,C272*%
X109940000Y-89455000D03*
X111490000Y-89455000D03*
%TD*%
%TO.C,C271*%
X109940000Y-86945000D03*
X111490000Y-86945000D03*
%TD*%
%TO.C,C270*%
X92450000Y-155565000D03*
X94000000Y-155565000D03*
%TD*%
D52*
%TO.C,C267*%
X-1669567Y-52850500D03*
X3330433Y-52850500D03*
%TD*%
D95*
%TO.C,C266*%
X-5150000Y-160625000D03*
X-2200000Y-160625000D03*
%TD*%
%TO.C,C265*%
X-5150000Y-156375000D03*
X-2200000Y-156375000D03*
%TD*%
%TO.C,C264*%
X-5150000Y-152125000D03*
X-2200000Y-152125000D03*
%TD*%
D96*
%TO.C,C263*%
X8465000Y-158545000D03*
X9425000Y-158545000D03*
%TD*%
D97*
%TO.C,C262*%
X5285000Y-154080500D03*
X10085000Y-154080500D03*
%TD*%
D95*
%TO.C,C261*%
X-5150000Y-147875000D03*
X-2200000Y-147875000D03*
%TD*%
%TO.C,C260*%
X-5150000Y-143625000D03*
X-2200000Y-143625000D03*
%TD*%
D34*
%TO.C,C257*%
X107515000Y-130150500D03*
X112855000Y-130150500D03*
%TD*%
D92*
%TO.C,C256*%
X76310000Y-29785000D03*
X77860000Y-29785000D03*
%TD*%
D34*
%TO.C,C253*%
X85705000Y-76371433D03*
X91045000Y-76371433D03*
%TD*%
%TO.C,C252*%
X85705000Y-68140500D03*
X91045000Y-68140500D03*
%TD*%
D92*
%TO.C,C251*%
X106820000Y-144865000D03*
X108370000Y-144865000D03*
%TD*%
%TO.C,C250*%
X109940000Y-84435000D03*
X111490000Y-84435000D03*
%TD*%
%TO.C,C249*%
X109940000Y-81925000D03*
X111490000Y-81925000D03*
%TD*%
D93*
%TO.C,C247*%
X116625000Y-71565000D03*
X118525000Y-71565000D03*
%TD*%
%TO.C,C246*%
X116625000Y-68555000D03*
X118525000Y-68555000D03*
%TD*%
%TO.C,C245*%
X116625000Y-65545000D03*
X118525000Y-65545000D03*
%TD*%
D61*
%TO.C,C244*%
X77795000Y-54015000D03*
X78435000Y-54015000D03*
%TD*%
%TO.C,C243*%
X77795000Y-52265000D03*
X78435000Y-52265000D03*
%TD*%
%TO.C,C242*%
X77795000Y-50515000D03*
X78435000Y-50515000D03*
%TD*%
D92*
%TO.C,C241*%
X45890000Y-146265000D03*
X47440000Y-146265000D03*
%TD*%
%TO.C,C240*%
X82570000Y-58655000D03*
X84120000Y-58655000D03*
%TD*%
D93*
%TO.C,C239*%
X78165000Y-59405000D03*
X80065000Y-59405000D03*
%TD*%
D92*
%TO.C,C238*%
X82570000Y-56145000D03*
X84120000Y-56145000D03*
%TD*%
D93*
%TO.C,C237*%
X78165000Y-56395000D03*
X80065000Y-56395000D03*
%TD*%
D92*
%TO.C,C236*%
X9360000Y-51825000D03*
X10910000Y-51825000D03*
%TD*%
%TO.C,C235*%
X9360000Y-49315000D03*
X10910000Y-49315000D03*
%TD*%
%TO.C,C234*%
X9360000Y-46805000D03*
X10910000Y-46805000D03*
%TD*%
D93*
%TO.C,C233*%
X111175000Y-118785000D03*
X113075000Y-118785000D03*
%TD*%
D92*
%TO.C,C232*%
X81050000Y-119545000D03*
X82600000Y-119545000D03*
%TD*%
D93*
%TO.C,C231*%
X111175000Y-115775000D03*
X113075000Y-115775000D03*
%TD*%
D92*
%TO.C,C230*%
X81050000Y-117035000D03*
X82600000Y-117035000D03*
%TD*%
D93*
%TO.C,C229*%
X111175000Y-112765000D03*
X113075000Y-112765000D03*
%TD*%
%TO.C,C228*%
X111175000Y-109755000D03*
X113075000Y-109755000D03*
%TD*%
D92*
%TO.C,C225*%
X81050000Y-114525000D03*
X82600000Y-114525000D03*
%TD*%
%TO.C,C224*%
X76310000Y-27275000D03*
X77860000Y-27275000D03*
%TD*%
%TO.C,C223*%
X76310000Y-24765000D03*
X77860000Y-24765000D03*
%TD*%
%TO.C,C222*%
X65290000Y-80715000D03*
X66840000Y-80715000D03*
%TD*%
%TO.C,C221*%
X61280000Y-90755000D03*
X62830000Y-90755000D03*
%TD*%
%TO.C,C220*%
X61280000Y-88245000D03*
X62830000Y-88245000D03*
%TD*%
%TO.C,C219*%
X61280000Y-85735000D03*
X62830000Y-85735000D03*
%TD*%
%TO.C,C218*%
X45550000Y-120815000D03*
X47100000Y-120815000D03*
%TD*%
%TO.C,C217*%
X45550000Y-118305000D03*
X47100000Y-118305000D03*
%TD*%
%TO.C,C216*%
X41540000Y-135875000D03*
X43090000Y-135875000D03*
%TD*%
%TO.C,C215*%
X41540000Y-133365000D03*
X43090000Y-133365000D03*
%TD*%
%TO.C,C214*%
X41540000Y-130855000D03*
X43090000Y-130855000D03*
%TD*%
%TO.C,C213*%
X41540000Y-128345000D03*
X43090000Y-128345000D03*
%TD*%
%TO.C,C210*%
X41540000Y-125835000D03*
X43090000Y-125835000D03*
%TD*%
%TO.C,C209*%
X41540000Y-123325000D03*
X43090000Y-123325000D03*
%TD*%
D98*
%TO.C,C205*%
X86850000Y-137275000D03*
X89800000Y-137275000D03*
%TD*%
%TO.C,C204*%
X86850000Y-133925000D03*
X89800000Y-133925000D03*
%TD*%
D92*
%TO.C,C203*%
X81050000Y-112015000D03*
X82600000Y-112015000D03*
%TD*%
%TO.C,C202*%
X106820000Y-142355000D03*
X108370000Y-142355000D03*
%TD*%
%TO.C,C200*%
X92450000Y-153055000D03*
X94000000Y-153055000D03*
%TD*%
%TO.C,C196*%
X92450000Y-150545000D03*
X94000000Y-150545000D03*
%TD*%
%TO.C,C193*%
X78500000Y-106000000D03*
X80050000Y-106000000D03*
%TD*%
%TO.C,C192*%
X41540000Y-120815000D03*
X43090000Y-120815000D03*
%TD*%
%TO.C,C191*%
X41540000Y-118305000D03*
X43090000Y-118305000D03*
%TD*%
%TO.C,C188*%
X76310000Y-22255000D03*
X77860000Y-22255000D03*
%TD*%
%TO.C,C187*%
X72300000Y-37315000D03*
X73850000Y-37315000D03*
%TD*%
D93*
%TO.C,C177*%
X127575000Y-121445000D03*
X129475000Y-121445000D03*
%TD*%
D92*
%TO.C,C175*%
X61280000Y-83225000D03*
X62830000Y-83225000D03*
%TD*%
%TO.C,C174*%
X61280000Y-80715000D03*
X62830000Y-80715000D03*
%TD*%
%TO.C,C173*%
X72300000Y-34805000D03*
X73850000Y-34805000D03*
%TD*%
D96*
%TO.C,C172*%
X74895000Y-45685000D03*
X75855000Y-45685000D03*
%TD*%
D92*
%TO.C,C170*%
X72300000Y-32295000D03*
X73850000Y-32295000D03*
%TD*%
%TO.C,C169*%
X72300000Y-29785000D03*
X73850000Y-29785000D03*
%TD*%
%TO.C,C168*%
X72300000Y-27275000D03*
X73850000Y-27275000D03*
%TD*%
%TO.C,C167*%
X72300000Y-24765000D03*
X73850000Y-24765000D03*
%TD*%
%TO.C,C166*%
X72300000Y-22255000D03*
X73850000Y-22255000D03*
%TD*%
D99*
%TO.C,C160*%
X4077500Y-97290500D03*
X10950500Y-97290500D03*
%TD*%
D61*
%TO.C,C145*%
X61405000Y-39945000D03*
X62045000Y-39945000D03*
%TD*%
%TO.C,C144*%
X61405000Y-38195000D03*
X62045000Y-38195000D03*
%TD*%
%TO.C,C143*%
X61405000Y-36445000D03*
X62045000Y-36445000D03*
%TD*%
D96*
%TO.C,C142*%
X26335000Y-156625000D03*
X27295000Y-156625000D03*
%TD*%
%TO.C,C141*%
X26335000Y-154655000D03*
X27295000Y-154655000D03*
%TD*%
%TO.C,C140*%
X26335000Y-152685000D03*
X27295000Y-152685000D03*
%TD*%
%TO.C,C139*%
X26335000Y-150715000D03*
X27295000Y-150715000D03*
%TD*%
D61*
%TO.C,C138*%
X23835000Y-152355000D03*
X24475000Y-152355000D03*
%TD*%
%TO.C,C137*%
X23835000Y-150605000D03*
X24475000Y-150605000D03*
%TD*%
D92*
%TO.C,C130*%
X57720000Y-44355000D03*
X59270000Y-44355000D03*
%TD*%
D93*
%TO.C,C129*%
X53315000Y-46105000D03*
X55215000Y-46105000D03*
%TD*%
D92*
%TO.C,C128*%
X57720000Y-41845000D03*
X59270000Y-41845000D03*
%TD*%
D93*
%TO.C,C127*%
X53315000Y-43095000D03*
X55215000Y-43095000D03*
%TD*%
D92*
%TO.C,C126*%
X57720000Y-39335000D03*
X59270000Y-39335000D03*
%TD*%
D93*
%TO.C,C125*%
X53315000Y-40085000D03*
X55215000Y-40085000D03*
%TD*%
D92*
%TO.C,C110*%
X27830000Y-86045000D03*
X29380000Y-86045000D03*
%TD*%
D93*
%TO.C,C109*%
X23425000Y-87295000D03*
X25325000Y-87295000D03*
%TD*%
D92*
%TO.C,C108*%
X27830000Y-83535000D03*
X29380000Y-83535000D03*
%TD*%
D93*
%TO.C,C107*%
X23425000Y-84285000D03*
X25325000Y-84285000D03*
%TD*%
D92*
%TO.C,C106*%
X27830000Y-81025000D03*
X29380000Y-81025000D03*
%TD*%
D93*
%TO.C,C105*%
X23425000Y-81275000D03*
X25325000Y-81275000D03*
%TD*%
D96*
%TO.C,C79*%
X123695000Y-74545000D03*
X124655000Y-74545000D03*
%TD*%
D98*
%TO.C,C76*%
X26730000Y-159285000D03*
X29680000Y-159285000D03*
%TD*%
D92*
%TO.C,C74*%
X19880000Y-160875000D03*
X21430000Y-160875000D03*
%TD*%
D93*
%TO.C,C71*%
X29525000Y-155855000D03*
X31425000Y-155855000D03*
%TD*%
D92*
%TO.C,C69*%
X57720000Y-36825000D03*
X59270000Y-36825000D03*
%TD*%
D93*
%TO.C,C68*%
X53315000Y-37075000D03*
X55215000Y-37075000D03*
%TD*%
D100*
%TO.C,BMS_Bypass_5V_SW1*%
X106380000Y-136575433D03*
X110750000Y-136575433D03*
%TD*%
D101*
%TO.C,BMSALERT1*%
X70685500Y-158897500D03*
X72183500Y-158890500D03*
%TD*%
%TO.C,BMSACTIVE1*%
X70685500Y-156245000D03*
X72183500Y-156238000D03*
%TD*%
D102*
%TO.C,BatBalConn1*%
X43640433Y-98105000D03*
D103*
X46140433Y-98105000D03*
X48640433Y-98105000D03*
X51140433Y-98105000D03*
%TD*%
D11*
%TO.C,12V1*%
X70330000Y-145985500D03*
X70830000Y-145985500D03*
%TD*%
D104*
%TO.C,5Vbuck-6A1*%
X15755000Y-160845000D03*
X15755000Y-161345000D03*
X15755000Y-161845000D03*
D105*
X16505000Y-161795000D03*
D104*
X17605000Y-161845000D03*
X17605000Y-161345000D03*
X17605000Y-160845000D03*
D106*
X17005000Y-161045000D03*
D107*
X16505000Y-160670000D03*
%TD*%
D11*
%TO.C,5V1*%
X70330000Y-149947366D03*
X70830000Y-149947366D03*
%TD*%
%TO.C,3V3*%
X70330000Y-147966433D03*
X70830000Y-147966433D03*
%TD*%
D108*
%TO.C,-BatMains+1*%
X57276000Y-91607500D03*
X57276000Y-84407500D03*
D109*
X51276000Y-81257500D03*
X51276000Y-94757500D03*
%TD*%
D23*
%TO.C,-12V+_6*%
X15411299Y-92270500D03*
X19373299Y-92270500D03*
%TD*%
%TO.C,-12V+_5*%
X5860366Y-92270500D03*
X9822366Y-92270500D03*
%TD*%
%TO.C,-12V+_4*%
X-3690567Y-92270500D03*
X271433Y-92270500D03*
%TD*%
%TO.C,-12V+_3*%
X62331299Y-33500500D03*
X66293299Y-33500500D03*
%TD*%
%TO.C,-12V+_2*%
X52780366Y-33500500D03*
X56742366Y-33500500D03*
%TD*%
%TO.C,-12V+_1*%
X43229433Y-33500500D03*
X47191433Y-33500500D03*
%TD*%
M02*
