%TF.GenerationSoftware,KiCad,Pcbnew,9.0.7*%
%TF.CreationDate,2026-02-16T20:04:55+01:00*%
%TF.ProjectId,svea_powerboard_rev3,73766561-5f70-46f7-9765-72626f617264,rev?*%
%TF.SameCoordinates,Original*%
%TF.FileFunction,Soldermask,Bot*%
%TF.FilePolarity,Negative*%
%FSLAX46Y46*%
G04 Gerber Fmt 4.6, Leading zero omitted, Abs format (unit mm)*
G04 Created by KiCad (PCBNEW 9.0.7) date 2026-02-16 20:04:55*
%MOMM*%
%LPD*%
G01*
G04 APERTURE LIST*
%ADD10C,2.300000*%
%ADD11O,1.200000X2.000000*%
%ADD12O,1.200000X1.800000*%
%ADD13O,1.100000X2.000000*%
%ADD14R,2.600000X2.600000*%
%ADD15C,2.600000*%
%ADD16C,1.600000*%
%ADD17R,1.800000X1.800000*%
%ADD18C,1.800000*%
%ADD19C,1.524000*%
%ADD20R,2.000000X2.000000*%
%ADD21C,2.000000*%
%ADD22R,1.600000X1.600000*%
%ADD23C,3.500000*%
%ADD24O,2.000000X4.600000*%
%ADD25O,4.600000X2.000000*%
%ADD26C,1.700000*%
%ADD27R,1.524000X1.500000*%
%ADD28C,1.500000*%
%ADD29C,3.800000*%
%ADD30O,2.200000X1.200000*%
G04 APERTURE END LIST*
D10*
%TO.C,___-3V3+_______-5V0+_______-12V+_______-VCC+___1*%
X-3129567Y-66592500D03*
X-3129567Y-74212500D03*
X1950433Y-66592500D03*
X1950433Y-74212500D03*
X7030433Y-66592500D03*
X7030433Y-74212500D03*
X12110433Y-66592500D03*
X12110433Y-74212500D03*
X17190433Y-66592500D03*
X17190433Y-74212500D03*
X22270433Y-66592500D03*
X22270433Y-74212500D03*
X27350433Y-66592500D03*
X27350433Y-74212500D03*
X32430433Y-66592500D03*
X32430433Y-74212500D03*
%TD*%
D11*
%TO.C,USBC1*%
X81195000Y-151483000D03*
X89845000Y-151483000D03*
D12*
X89845000Y-155663000D03*
X81195000Y-155663000D03*
%TD*%
D13*
%TO.C,USB1*%
X-1115000Y-131875000D03*
D12*
X-1115000Y-136075000D03*
D13*
X7535000Y-131875000D03*
D12*
X7535000Y-136075000D03*
%TD*%
D14*
%TO.C,U207*%
X111340433Y-23075000D03*
D15*
X115300933Y-23075000D03*
X119260433Y-23075000D03*
X123220433Y-23075000D03*
%TD*%
D16*
%TO.C,U183*%
X33645000Y-120535000D03*
X33645000Y-117995000D03*
X33645000Y-115455000D03*
X33645000Y-112915000D03*
X33645000Y-123075000D03*
X33645000Y-125615000D03*
X33645000Y-128155000D03*
X31105000Y-112915000D03*
X28565000Y-112915000D03*
X26025000Y-112915000D03*
X23485000Y-112915000D03*
X20945000Y-112915000D03*
X18405000Y-112915000D03*
X15865000Y-112915000D03*
X13325000Y-112915000D03*
X10785000Y-112915000D03*
X8245000Y-112915000D03*
X5705000Y-112915000D03*
X3165000Y-112915000D03*
X625000Y-112915000D03*
X3165000Y-115455000D03*
X31105000Y-128155000D03*
X28565000Y-128155000D03*
X26025000Y-128155000D03*
X23485000Y-128155000D03*
X20945000Y-128155000D03*
X18405000Y-128155000D03*
X15865000Y-128155000D03*
X13325000Y-128155000D03*
X10785000Y-128155000D03*
X8245000Y-128155000D03*
X5705000Y-128155000D03*
X3165000Y-128155000D03*
X625000Y-128155000D03*
X28565000Y-115455000D03*
X26025000Y-115455000D03*
X28565000Y-117995000D03*
X26025000Y-117995000D03*
X28565000Y-120535000D03*
X26025000Y-120535000D03*
X28565000Y-123075000D03*
X26025000Y-123075000D03*
X28565000Y-125615000D03*
X26025000Y-125615000D03*
%TD*%
D17*
%TO.C,U81*%
X-4399567Y-43490500D03*
D18*
X-4399567Y-40950500D03*
X-1859567Y-43490500D03*
X-1859567Y-40950500D03*
X680433Y-43490500D03*
X680433Y-40950500D03*
X3220433Y-43490500D03*
X3220433Y-40950500D03*
X5760433Y-43490500D03*
X5760433Y-40950500D03*
X8300433Y-43490500D03*
X8300433Y-40950500D03*
X10840433Y-43490500D03*
X10840433Y-40950500D03*
X13380433Y-43490500D03*
X13380433Y-40950500D03*
X15920433Y-43490500D03*
X15920433Y-40950500D03*
X18460433Y-43490500D03*
X18460433Y-40950500D03*
X21000433Y-43490500D03*
X21000433Y-40950500D03*
X23540433Y-43490500D03*
X23540433Y-40950500D03*
X26080433Y-43490500D03*
X26080433Y-40950500D03*
%TD*%
D19*
%TO.C,THR_STR_SPD1*%
X33301433Y-22537000D03*
X30761433Y-22537000D03*
X28221433Y-22537000D03*
X33301433Y-25077000D03*
X30761433Y-25077000D03*
X28221433Y-25077000D03*
X33301433Y-27617000D03*
X30761433Y-27617000D03*
X28221433Y-27617000D03*
%TD*%
D20*
%TO.C,H6*%
X97960433Y-137021433D03*
D21*
X100500433Y-137021433D03*
%TD*%
D20*
%TO.C,H5*%
X121020433Y-50300500D03*
D21*
X123560433Y-50300500D03*
%TD*%
D22*
%TO.C,H4*%
X7391366Y-27655000D03*
D16*
X7391366Y-25115000D03*
X7391366Y-22575000D03*
X9931366Y-27655000D03*
X9931366Y-25115000D03*
X9931366Y-22575000D03*
X12471366Y-27655000D03*
X12471366Y-25115000D03*
X12471366Y-22575000D03*
X15011366Y-27655000D03*
X15011366Y-25115000D03*
X15011366Y-22575000D03*
%TD*%
D22*
%TO.C,H3*%
X-4399567Y-27655000D03*
D16*
X-4399567Y-25115000D03*
X-4399567Y-22575000D03*
X-1859567Y-27655000D03*
X-1859567Y-25115000D03*
X-1859567Y-22575000D03*
X680433Y-27655000D03*
X680433Y-25115000D03*
X680433Y-22575000D03*
X3220433Y-27655000D03*
X3220433Y-25115000D03*
X3220433Y-22575000D03*
%TD*%
D20*
%TO.C,H2*%
X95670433Y-94650500D03*
D21*
X98210433Y-94650500D03*
%TD*%
D20*
%TO.C,H1*%
X97960433Y-132890500D03*
D21*
X100500433Y-132890500D03*
%TD*%
D23*
%TO.C,F1*%
X63530433Y-95060500D03*
X68530433Y-95060500D03*
X72730433Y-95060500D03*
X77730433Y-95060500D03*
%TD*%
D20*
%TO.C,ESC-6V2*%
X18250433Y-59961433D03*
D21*
X20790433Y-59961433D03*
%TD*%
D20*
%TO.C,ESC-6V1*%
X18250433Y-55830500D03*
D21*
X20790433Y-55830500D03*
%TD*%
D19*
%TO.C,DIFF_DIFR_SBUS1*%
X24170500Y-22537000D03*
X21630500Y-22537000D03*
X19090500Y-22537000D03*
X24170500Y-25077000D03*
X21630500Y-25077000D03*
X19090500Y-25077000D03*
X24170500Y-27617000D03*
X21630500Y-27617000D03*
X19090500Y-27617000D03*
%TD*%
D24*
%TO.C,DC1*%
X76050500Y-122380433D03*
X69850500Y-122380433D03*
D25*
X73050500Y-127080433D03*
%TD*%
D16*
%TO.C,CN13*%
X35467500Y-49307433D03*
X33467500Y-49307433D03*
X31467500Y-49307433D03*
X29467500Y-49307433D03*
%TD*%
D17*
%TO.C,CN6*%
X99190433Y-126512366D03*
D18*
X101690433Y-126512366D03*
%TD*%
D17*
%TO.C,CN5*%
X99190433Y-118981433D03*
D18*
X101690433Y-118981433D03*
%TD*%
D17*
%TO.C,CN4*%
X99190433Y-111450500D03*
D18*
X101690433Y-111450500D03*
%TD*%
D26*
%TO.C,CN1*%
X92860500Y-36707433D03*
X90360500Y-36707433D03*
%TD*%
D18*
%TO.C,C267*%
X-1669567Y-52850500D03*
X3330433Y-52850500D03*
%TD*%
D27*
%TO.C,BatBalConn1*%
X43640433Y-98105000D03*
D28*
X46140433Y-98105000D03*
X48640433Y-98105000D03*
X51140433Y-98105000D03*
%TD*%
D29*
%TO.C,-BatMains+1*%
X57276000Y-91607500D03*
X57276000Y-84407500D03*
D30*
X51276000Y-81257500D03*
X51276000Y-94757500D03*
%TD*%
D15*
%TO.C,-12V+_6*%
X15411299Y-92270500D03*
X19373299Y-92270500D03*
%TD*%
%TO.C,-12V+_5*%
X5860366Y-92270500D03*
X9822366Y-92270500D03*
%TD*%
%TO.C,-12V+_4*%
X-3690567Y-92270500D03*
X271433Y-92270500D03*
%TD*%
%TO.C,-12V+_3*%
X62331299Y-33500500D03*
X66293299Y-33500500D03*
%TD*%
%TO.C,-12V+_2*%
X52780366Y-33500500D03*
X56742366Y-33500500D03*
%TD*%
%TO.C,-12V+_1*%
X43229433Y-33500500D03*
X47191433Y-33500500D03*
%TD*%
M02*
