%TF.GenerationSoftware,KiCad,Pcbnew,9.0.7*%
%TF.CreationDate,2026-03-05T20:02:33+01:00*%
%TF.ProjectId,svea_powerboard_rev3,73766561-5f70-46f7-9765-72626f617264,rev?*%
%TF.SameCoordinates,Original*%
%TF.FileFunction,Copper,L6,Inr*%
%TF.FilePolarity,Positive*%
%FSLAX46Y46*%
G04 Gerber Fmt 4.6, Leading zero omitted, Abs format (unit mm)*
G04 Created by KiCad (PCBNEW 9.0.7) date 2026-03-05 20:02:33*
%MOMM*%
%LPD*%
G01*
G04 APERTURE LIST*
G04 Aperture macros list*
%AMHorizOval*
0 Thick line with rounded ends*
0 $1 width*
0 $2 $3 position (X,Y) of the first rounded end (center of the circle)*
0 $4 $5 position (X,Y) of the second rounded end (center of the circle)*
0 Add line between two ends*
20,1,$1,$2,$3,$4,$5,0*
0 Add two circle primitives to create the rounded ends*
1,1,$1,$2,$3*
1,1,$1,$4,$5*%
G04 Aperture macros list end*
%TA.AperFunction,ComponentPad*%
%ADD10O,3.800000X3.800000*%
%TD*%
%TA.AperFunction,ComponentPad*%
%ADD11O,2.200000X1.200000*%
%TD*%
%TA.AperFunction,ComponentPad*%
%ADD12O,1.200000X2.200000*%
%TD*%
%TA.AperFunction,ComponentPad*%
%ADD13R,1.000000X1.000000*%
%TD*%
%TA.AperFunction,ComponentPad*%
%ADD14O,1.000000X1.000000*%
%TD*%
%TA.AperFunction,ComponentPad*%
%ADD15O,4.600000X2.000000*%
%TD*%
%TA.AperFunction,ComponentPad*%
%ADD16O,2.000000X4.600000*%
%TD*%
%TA.AperFunction,ComponentPad*%
%ADD17O,2.300000X2.300000*%
%TD*%
%TA.AperFunction,ComponentPad*%
%ADD18O,1.000000X1.700000*%
%TD*%
%TA.AperFunction,ComponentPad*%
%ADD19O,0.650013X0.650013*%
%TD*%
%TA.AperFunction,ComponentPad*%
%ADD20O,0.900000X2.400000*%
%TD*%
%TA.AperFunction,ComponentPad*%
%ADD21O,0.900000X1.700000*%
%TD*%
%TA.AperFunction,ComponentPad*%
%ADD22R,1.600000X1.600000*%
%TD*%
%TA.AperFunction,ComponentPad*%
%ADD23O,1.600000X1.600000*%
%TD*%
%TA.AperFunction,ComponentPad*%
%ADD24R,1.700000X1.700000*%
%TD*%
%TA.AperFunction,ComponentPad*%
%ADD25C,1.700000*%
%TD*%
%TA.AperFunction,ComponentPad*%
%ADD26O,2.600000X2.600000*%
%TD*%
%TA.AperFunction,ComponentPad*%
%ADD27C,1.600000*%
%TD*%
%TA.AperFunction,ComponentPad*%
%ADD28C,3.500000*%
%TD*%
%TA.AperFunction,ComponentPad*%
%ADD29O,1.100000X2.500000*%
%TD*%
%TA.AperFunction,ComponentPad*%
%ADD30HorizOval,2.200000X0.000000X0.000000X0.000000X0.000000X0*%
%TD*%
%TA.AperFunction,ComponentPad*%
%ADD31C,7.000000*%
%TD*%
%TA.AperFunction,ComponentPad*%
%ADD32O,1.524003X1.524003*%
%TD*%
%TA.AperFunction,ComponentPad*%
%ADD33O,2.500000X2.500000*%
%TD*%
%TA.AperFunction,ViaPad*%
%ADD34C,0.600000*%
%TD*%
%TA.AperFunction,ViaPad*%
%ADD35C,0.500000*%
%TD*%
%TA.AperFunction,ViaPad*%
%ADD36C,1.200000*%
%TD*%
%TA.AperFunction,ViaPad*%
%ADD37C,0.900000*%
%TD*%
%TA.AperFunction,ViaPad*%
%ADD38C,1.500000*%
%TD*%
%TA.AperFunction,Conductor*%
%ADD39C,0.200000*%
%TD*%
%TA.AperFunction,Conductor*%
%ADD40C,0.300000*%
%TD*%
%TA.AperFunction,Conductor*%
%ADD41C,0.400000*%
%TD*%
G04 APERTURE END LIST*
D10*
%TO.N,GND*%
%TO.C,CN103*%
X37544000Y-42461949D03*
%TO.N,VCC_ESC*%
X37544000Y-35262051D03*
D11*
%TO.N,unconnected-(CN103-Pad3)*%
X31544000Y-32111936D03*
%TO.N,unconnected-(CN103-Pad4)*%
X31544000Y-45612064D03*
%TD*%
D10*
%TO.N,/Battery System/Battery Power Path/BAT-*%
%TO.C,CN104*%
X68090549Y-72755500D03*
%TO.N,Net-(CN104-+)*%
X60890651Y-72755500D03*
D12*
%TO.N,unconnected-(CN104-Pad3)*%
X57740536Y-78755500D03*
%TO.N,unconnected-(CN104-Pad4)*%
X71240664Y-78755500D03*
%TD*%
D13*
%TO.N,Button{slash}LOW*%
%TO.C,U83*%
X115315991Y-21767801D03*
D14*
%TO.N,LED{slash}WS2815{slash}DATA*%
X115315991Y-20497799D03*
%TO.N,/Battery System/Mikroe mikroBus Shuttle Clone VITAL/RST*%
X116585994Y-21767801D03*
%TO.N,IO-Expander{slash}Primary{slash}INT*%
X116585994Y-20497799D03*
%TO.N,/Battery System/Mikroe mikroBus Shuttle Clone VITAL/CS*%
X117855996Y-21767801D03*
%TO.N,SBUS_RECEIVER*%
X117855996Y-20497799D03*
%TO.N,/Battery System/Mikroe mikroBus Shuttle Clone VITAL/SCK*%
X119125999Y-21767801D03*
%TO.N,/Battery System/Mikroe mikroBus Shuttle Clone VITAL/TX*%
X119125999Y-20497799D03*
%TO.N,/Battery System/Mikroe mikroBus Shuttle Clone VITAL/SDO*%
X120396001Y-21767801D03*
%TO.N,SCL_SLOW*%
X120396001Y-20497799D03*
%TO.N,/Battery System/Mikroe mikroBus Shuttle Clone VITAL/SDI*%
X121666004Y-21767801D03*
%TO.N,SDA_SLOW*%
X121666004Y-20497799D03*
%TO.N,+3V3*%
X122936006Y-21767801D03*
%TO.N,+5V*%
X122936006Y-20497799D03*
%TO.N,GND*%
X124206009Y-21767801D03*
X124206009Y-20497799D03*
%TD*%
D15*
%TO.N,/Battery System/DC_BARREL_20V_PORT*%
%TO.C,DC1*%
X117357438Y-75375000D03*
%TO.N,GND*%
X117357438Y-81575000D03*
D16*
X122057438Y-78375000D03*
%TD*%
D17*
%TO.N,/Battery System/CUR2/IN-1*%
%TO.C,CN101*%
X79480010Y-30530816D03*
X79480010Y-22910800D03*
%TO.N,/Battery System/CUR2/IN-2*%
X74400000Y-30530816D03*
X74400000Y-22910800D03*
%TO.N,/Battery System/CUR2/IN+3*%
X69319990Y-30530816D03*
X69319990Y-22910800D03*
%TO.N,GND*%
X64239980Y-30530816D03*
X64239980Y-22910800D03*
%TD*%
D18*
%TO.N,GND*%
%TO.C,USB1*%
X139079714Y-24644806D03*
X139079714Y-20844705D03*
X130439886Y-24644806D03*
X130439886Y-20844705D03*
%TD*%
D19*
%TO.N,GND*%
%TO.C,USB2002*%
X100075269Y-81009482D03*
%TO.N,/Battery System/USB-C Input/usbc_vbus*%
X100925409Y-81009482D03*
%TO.N,/Battery System/USB-C Input/cc1*%
X101775294Y-81009482D03*
%TO.N,/Battery System/USB-C Input/dp*%
X102625434Y-81009482D03*
%TO.N,/Battery System/USB-C Input/dn*%
X103475320Y-81009482D03*
%TO.N,unconnected-(USB2002-SBU1-PadA8)*%
X104325460Y-81009482D03*
%TO.N,/Battery System/USB-C Input/usbc_vbus*%
X105175345Y-81009482D03*
%TO.N,GND*%
X106025485Y-81009482D03*
X106025485Y-82359240D03*
%TO.N,/Battery System/USB-C Input/usbc_vbus*%
X105175345Y-82359240D03*
%TO.N,/Battery System/USB-C Input/cc2*%
X104325460Y-82359240D03*
%TO.N,/Battery System/USB-C Input/dp*%
X103475320Y-82359240D03*
%TO.N,/Battery System/USB-C Input/dn*%
X102625434Y-82359240D03*
%TO.N,unconnected-(USB2002-SBU2-PadB8)*%
X101775294Y-82359240D03*
%TO.N,/Battery System/USB-C Input/usbc_vbus*%
X100925409Y-82359240D03*
%TO.N,GND*%
X100075269Y-82359240D03*
D20*
X107375244Y-81989416D03*
D21*
X107375244Y-85369400D03*
X98725256Y-85369400D03*
D20*
X98725256Y-81989416D03*
%TD*%
D22*
%TO.N,+12V*%
%TO.C,CN2301*%
X139470500Y-41069936D03*
D23*
%TO.N,unconnected-(CN2301-Pad2)*%
X139470500Y-38570064D03*
%TO.N,Net-(U70-DO)*%
X139470500Y-36069936D03*
%TO.N,GND*%
X139470500Y-33570064D03*
%TD*%
D24*
%TO.N,GND*%
%TO.C,J103*%
X126765000Y-45925000D03*
D25*
%TO.N,/Battery System/3v3 rail/3v3_out*%
X124225000Y-45925000D03*
%TO.N,+3V3*%
X121685000Y-45925000D03*
%TD*%
D26*
%TO.N,/Battery System/CUR1/IN-3*%
%TO.C,U401*%
X103733596Y-29686400D03*
%TO.N,GND*%
X107696004Y-29686400D03*
%TD*%
D24*
%TO.N,GND*%
%TO.C,J101*%
X136780000Y-28600000D03*
D25*
%TO.N,/Battery System/mt9700-efuse1/OUT*%
X134240000Y-28600000D03*
%TO.N,+5V*%
X131700000Y-28600000D03*
%TD*%
D26*
%TO.N,/Battery System/CUR1/IN-2*%
%TO.C,U42*%
X94483591Y-29686400D03*
%TO.N,GND*%
X98445999Y-29686400D03*
%TD*%
D22*
%TO.N,Net-(CN102-Pad1)*%
%TO.C,CN102*%
X76141189Y-80050500D03*
D23*
%TO.N,Net-(CN102-Pad2)*%
X78641061Y-80050500D03*
%TO.N,Net-(CN102-Pad3)*%
X81141189Y-80050500D03*
%TO.N,/Battery System/Battery BMS Interface/BAL_CELL_BOT-*%
X83641061Y-80050500D03*
%TD*%
D22*
%TO.N,GND*%
%TO.C,H4*%
X31440000Y-60180000D03*
D27*
%TO.N,servo_vcc_indicator*%
X33980000Y-60180000D03*
%TO.N,/Battery System/ServoConnectors/Gear*%
X36520000Y-60180000D03*
%TO.N,GND*%
X31440000Y-62720000D03*
%TO.N,servo_vcc_indicator*%
X33980000Y-62720000D03*
%TO.N,/Battery System/ServoConnectors/Extra1*%
X36520000Y-62720000D03*
%TO.N,GND*%
X31440000Y-65260000D03*
%TO.N,servo_vcc_indicator*%
X33980000Y-65260000D03*
%TO.N,/Battery System/ServoConnectors/Extra2*%
X36520000Y-65260000D03*
%TO.N,GND*%
X31440000Y-67800000D03*
%TO.N,servo_vcc_indicator*%
X33980000Y-67800000D03*
%TO.N,/Battery System/ServoConnectors/Steering*%
X36520000Y-67800000D03*
%TD*%
D28*
%TO.N,Net-(CN104-+)*%
%TO.C,F1*%
X53150000Y-86250000D03*
X53150000Y-81250000D03*
%TO.N,/Battery System/Battery BMS Interface/BQ-BAT*%
X53150000Y-77050000D03*
X53150000Y-72050000D03*
%TD*%
D29*
%TO.N,Net-(U30-CSP)*%
%TO.C,L602*%
X139309987Y-62080000D03*
%TO.N,Net-(D11-Pad3)*%
X144609987Y-52880000D03*
%TD*%
D15*
%TO.N,Net-(DC2-Pad1)*%
%TO.C,DC2*%
X128875500Y-75350000D03*
%TO.N,GND*%
X128875500Y-81550000D03*
D16*
X133575500Y-78350000D03*
%TD*%
D30*
%TO.N,PACK+*%
%TO.C,C104*%
X58988808Y-51592818D03*
%TO.N,GND*%
X65786000Y-54762400D03*
%TD*%
D26*
%TO.N,/Battery System/CUR1/IN-1*%
%TO.C,U501*%
X85233586Y-29686400D03*
%TO.N,GND*%
X89195994Y-29686400D03*
%TD*%
D22*
%TO.N,GND*%
%TO.C,H3*%
X31440000Y-49000000D03*
D27*
%TO.N,/Battery System/ServoConnectors/3v3*%
X33980000Y-49000000D03*
%TO.N,SBUS_RECEIVER*%
X36520000Y-49000000D03*
%TO.N,GND*%
X31440000Y-51540000D03*
%TO.N,Net-(JP2102-A)*%
X33980000Y-51540000D03*
%TO.N,/Battery System/ServoConnectors/Throttle*%
X36520000Y-51540000D03*
%TO.N,GND*%
X31440000Y-54080000D03*
%TO.N,servo_vcc_indicator*%
X33980000Y-54080000D03*
%TO.N,/Battery System/ServoConnectors/FrontDiff*%
X36520000Y-54080000D03*
%TO.N,GND*%
X31440000Y-56620000D03*
%TO.N,servo_vcc_indicator*%
X33980000Y-56620000D03*
%TO.N,/Battery System/ServoConnectors/RearDiff*%
X36520000Y-56620000D03*
%TD*%
D31*
%TO.N,N/C*%
%TO.C,H1*%
X23918491Y-25551825D03*
X23918491Y-83551825D03*
X145418491Y-25551825D03*
X145418491Y-83551825D03*
%TD*%
D32*
%TO.N,Net-(C3601-Pad1)*%
%TO.C,SW2*%
X89958124Y-85170000D03*
%TO.N,Net-(JP3601-B)*%
X94458252Y-85170000D03*
D33*
%TO.N,GND*%
X88708188Y-82669746D03*
X95708188Y-82669746D03*
%TD*%
D34*
%TO.N,ADS1115{slash}ALERT*%
X56819800Y-19898000D03*
X59381070Y-21848999D03*
X62814200Y-31826200D03*
X65923400Y-35991800D03*
%TO.N,+3V3*%
X76887135Y-27098043D03*
X65923400Y-34944435D03*
%TO.N,Power{slash}12V-Buck{slash}IOUTMON*%
X72075391Y-37450002D03*
X72580800Y-29669016D03*
%TO.N,eFuse{slash}TPS16630{slash}IMON*%
X70429530Y-37450000D03*
%TO.N,Power{slash}12V-Buck{slash}IINMON*%
X71275389Y-37449999D03*
%TO.N,GND*%
X66838800Y-35727505D03*
%TO.N,Net-(D9-IO1)*%
X136626600Y-26619200D03*
%TO.N,Net-(D9-IO2)*%
X133146800Y-26619200D03*
D35*
%TO.N,GND*%
X63000000Y-49000000D03*
D34*
X118537452Y-53491600D03*
D35*
X133172200Y-40767000D03*
D34*
X61020000Y-23215822D03*
X93726000Y-44958000D03*
X101175000Y-50300000D03*
X114635984Y-61408948D03*
D35*
X69000000Y-48000000D03*
X72000000Y-54000000D03*
X70000000Y-57000000D03*
D34*
X144805400Y-19456400D03*
X37950000Y-73200000D03*
D35*
X67000000Y-61000000D03*
D34*
X94125000Y-51325000D03*
X120600000Y-58400000D03*
X90830400Y-19354800D03*
X25857200Y-88773000D03*
D35*
X72000000Y-61000000D03*
X64000000Y-51000000D03*
D34*
X105257600Y-75158600D03*
D35*
X68000000Y-61000000D03*
X69000000Y-51000000D03*
X64000000Y-50000000D03*
D34*
X126568200Y-30708600D03*
X57650000Y-27825000D03*
X106200000Y-56600000D03*
D35*
X67000000Y-52000000D03*
X68000000Y-49000000D03*
X69000000Y-54000000D03*
X65000000Y-50000000D03*
X65000000Y-52000000D03*
D34*
X20726400Y-78536800D03*
D35*
X73000000Y-50000000D03*
X73000000Y-59000000D03*
D34*
X20929600Y-66141600D03*
D35*
X63000000Y-53000000D03*
D34*
X96250000Y-49400000D03*
X142595600Y-78663800D03*
D35*
X109730000Y-60060000D03*
D34*
X106200000Y-58600000D03*
X100925000Y-51150000D03*
X89916000Y-43713400D03*
X120195300Y-66040000D03*
D35*
X69000000Y-49000000D03*
D34*
X105200000Y-58600000D03*
X89916000Y-44983400D03*
D35*
X70000000Y-54000000D03*
D34*
X122800000Y-59400000D03*
D35*
X68000000Y-57000000D03*
X69000000Y-56000000D03*
D34*
X23291800Y-74726800D03*
D35*
X72000000Y-52000000D03*
X64000000Y-54000000D03*
D34*
X86131400Y-43713400D03*
D35*
X133172200Y-39767000D03*
X65000000Y-48000000D03*
D34*
X122800000Y-56300000D03*
D35*
X72000000Y-60000000D03*
X64000000Y-61000000D03*
D34*
X104750000Y-87760000D03*
X23444200Y-76784200D03*
X115366800Y-36118800D03*
D35*
X67000000Y-51000000D03*
X42202208Y-81187500D03*
D34*
X100584000Y-21894800D03*
X92481400Y-44958000D03*
X121700000Y-61400000D03*
D35*
X67000000Y-49000000D03*
D34*
X113300000Y-56300000D03*
X83566000Y-42443400D03*
X91160600Y-47498000D03*
X83566000Y-38608000D03*
X124100000Y-55300000D03*
X117602000Y-55118000D03*
D35*
X69000000Y-61000000D03*
D34*
X125200000Y-55700000D03*
X120600000Y-56300000D03*
X56000000Y-28400000D03*
X94750000Y-50075000D03*
D35*
X70000000Y-61000000D03*
D34*
X112877600Y-43510200D03*
X102450000Y-57100000D03*
D35*
X70000000Y-56000000D03*
X73000000Y-57000000D03*
X70000000Y-52000000D03*
X68000000Y-48000000D03*
D34*
X37973000Y-72009000D03*
X88646000Y-44983400D03*
D35*
X31388000Y-73500000D03*
D34*
X127000000Y-55700000D03*
D35*
X43777208Y-78187500D03*
X69000000Y-59000000D03*
D34*
X100425000Y-64450000D03*
D35*
X71000000Y-50000000D03*
D34*
X105652800Y-75615800D03*
X117200000Y-62500000D03*
D35*
X64000000Y-48000000D03*
D34*
X124900000Y-26950000D03*
D35*
X73000000Y-53000000D03*
X42277208Y-79687500D03*
D34*
X122800000Y-60400000D03*
X91186000Y-44958000D03*
X35814000Y-22733000D03*
D35*
X73000000Y-61000000D03*
D34*
X110667800Y-24384000D03*
D35*
X71000000Y-54000000D03*
X67000000Y-58000000D03*
D34*
X21310600Y-74498200D03*
X84836000Y-43713400D03*
D35*
X63000000Y-58000000D03*
X66000000Y-50000000D03*
X68000000Y-58000000D03*
D34*
X105841800Y-78282800D03*
D35*
X133172200Y-37767000D03*
D34*
X148386800Y-78740000D03*
X99650000Y-58975000D03*
D35*
X68000000Y-54000000D03*
D34*
X34741559Y-83113552D03*
X107200000Y-56600000D03*
X72404800Y-24955200D03*
X91186000Y-43662600D03*
X106629200Y-78282800D03*
X113300000Y-54900000D03*
X94225000Y-50550000D03*
X140258800Y-88925400D03*
D35*
X63000000Y-55000000D03*
X70000000Y-59000000D03*
D34*
X28803600Y-37769800D03*
D35*
X66000000Y-48000000D03*
D34*
X106162600Y-70612000D03*
D35*
X64000000Y-52000000D03*
D34*
X122800000Y-61400000D03*
D35*
X73000000Y-51000000D03*
D34*
X120600000Y-61400000D03*
D35*
X71000000Y-49000000D03*
D36*
X145320790Y-47228999D03*
D35*
X70000000Y-48000000D03*
D34*
X43027727Y-83732736D03*
D35*
X66000000Y-51000000D03*
D34*
X118186400Y-53891600D03*
D35*
X63000000Y-52000000D03*
X63000000Y-56000000D03*
D34*
X115811452Y-53457400D03*
X106045000Y-75158600D03*
X117925000Y-65200000D03*
X118537452Y-54291600D03*
D35*
X65000000Y-59000000D03*
X42202208Y-82687500D03*
D34*
X106237000Y-78740000D03*
X123825000Y-41529000D03*
X117812452Y-54291600D03*
X110260000Y-60430000D03*
X131159000Y-19262600D03*
X101575000Y-58175000D03*
D35*
X66000000Y-58000000D03*
D34*
X95478600Y-22631400D03*
X99525000Y-60775000D03*
X113300000Y-54200000D03*
D35*
X65000000Y-53000000D03*
D34*
X20726400Y-46913800D03*
D35*
X69000000Y-52000000D03*
D34*
X124079000Y-30759400D03*
X52100000Y-23875000D03*
X87401400Y-44983400D03*
X117600000Y-63600000D03*
X101575000Y-59000000D03*
X89916000Y-38608000D03*
X35150000Y-29000000D03*
D35*
X69000000Y-50000000D03*
X65000000Y-51000000D03*
D34*
X95450000Y-49675000D03*
X115951000Y-55245000D03*
X87401400Y-38608000D03*
X20802600Y-62788800D03*
D35*
X72999600Y-48996600D03*
D34*
X89916000Y-41148000D03*
D35*
X64000000Y-53000000D03*
D34*
X140716000Y-81305400D03*
X92481400Y-43662600D03*
X43027727Y-80732736D03*
X92456000Y-47498000D03*
X87401400Y-43713400D03*
X88646000Y-39878000D03*
D35*
X69000000Y-53000000D03*
D34*
X115493800Y-31369000D03*
X89916000Y-47523400D03*
X83566000Y-44983400D03*
X116536452Y-53457400D03*
D35*
X69000000Y-58000000D03*
D34*
X107200000Y-57600000D03*
D35*
X68000000Y-50000000D03*
D34*
X99550000Y-64400000D03*
X98775000Y-64400000D03*
X148386800Y-20955000D03*
D35*
X64000000Y-56000000D03*
D34*
X86131400Y-39878000D03*
X138144000Y-18957800D03*
D35*
X66000000Y-59000000D03*
D34*
X43000000Y-74900000D03*
D35*
X70000000Y-49000000D03*
X29888000Y-73500000D03*
D34*
X106807000Y-71247000D03*
X113300000Y-57700000D03*
X32258000Y-41046400D03*
X123825000Y-42799000D03*
D35*
X73000000Y-52000000D03*
D34*
X23571200Y-89408000D03*
X88646000Y-43713400D03*
X27025600Y-20497800D03*
D35*
X73000000Y-58000000D03*
D34*
X58200000Y-28450000D03*
X87401400Y-39878000D03*
X93726000Y-46228000D03*
D35*
X73000000Y-56000000D03*
D34*
X103200000Y-56950000D03*
X72329800Y-26755200D03*
D35*
X71000000Y-55000000D03*
X30263000Y-72000000D03*
D34*
X88646000Y-38608000D03*
D35*
X72000000Y-57000000D03*
D34*
X102258673Y-77849428D03*
X100475000Y-49675000D03*
X125400000Y-65700000D03*
D35*
X72000000Y-59000000D03*
D34*
X93726000Y-43662600D03*
X118226697Y-37854242D03*
X86131400Y-38608000D03*
X142290800Y-19710400D03*
X105257600Y-76073000D03*
D35*
X43702208Y-81187500D03*
D34*
X117812452Y-53491600D03*
D35*
X71000000Y-52000000D03*
D34*
X26720800Y-19380200D03*
X85267800Y-19329400D03*
X139827000Y-85979000D03*
D35*
X34538000Y-73500000D03*
X63000000Y-59000000D03*
X68000000Y-52000000D03*
X71000000Y-59000000D03*
X63000000Y-48000000D03*
X64000000Y-60000000D03*
D34*
X116154200Y-53857400D03*
X121285000Y-55245000D03*
X106045000Y-76073000D03*
D35*
X133172200Y-38767000D03*
D34*
X72329800Y-25730200D03*
D35*
X72000000Y-49000000D03*
D34*
X35700000Y-72000000D03*
D35*
X71000000Y-53000000D03*
D34*
X119375000Y-65225000D03*
D35*
X137706200Y-20807000D03*
D34*
X115316000Y-35102800D03*
X105200000Y-57600000D03*
D35*
X63000000Y-60000000D03*
X67000000Y-57000000D03*
D34*
X145491200Y-77901800D03*
X20675600Y-43434000D03*
D35*
X72000000Y-48000000D03*
D34*
X100275000Y-50525000D03*
D35*
X137706200Y-21807000D03*
D34*
X122800000Y-58400000D03*
D35*
X67000000Y-53000000D03*
D34*
X132886200Y-19389600D03*
X43700000Y-73550000D03*
D35*
X63000000Y-61000000D03*
D34*
X126100000Y-55700000D03*
D35*
X129616200Y-22606000D03*
X71000000Y-60000000D03*
D34*
X125600000Y-56400000D03*
D35*
X68000000Y-51000000D03*
D34*
X127400000Y-65600000D03*
D35*
X25613000Y-78000000D03*
D34*
X84836000Y-44983400D03*
D35*
X43702208Y-82687500D03*
D34*
X122800000Y-57400000D03*
X107200000Y-58600000D03*
X89916000Y-39878000D03*
D35*
X72000000Y-55000000D03*
X70000000Y-51000000D03*
D34*
X92481400Y-46228000D03*
X123825000Y-42164000D03*
D35*
X27113000Y-75000000D03*
D34*
X121700000Y-59400000D03*
X41750000Y-22750000D03*
D35*
X72000000Y-53000000D03*
D34*
X105200000Y-56600000D03*
D35*
X70000000Y-53000000D03*
D34*
X120600000Y-60400000D03*
X35700000Y-73500000D03*
X113600000Y-59350000D03*
D35*
X68000000Y-53000000D03*
X71000000Y-51000000D03*
X64000000Y-57000000D03*
X73000000Y-60000000D03*
X73000000Y-54000000D03*
D34*
X125750000Y-30825000D03*
D35*
X25763000Y-72000000D03*
D34*
X25603200Y-20345400D03*
D35*
X67000000Y-60000000D03*
D34*
X116154200Y-31369000D03*
X93726000Y-47498000D03*
X106212500Y-57600000D03*
X43050000Y-76550000D03*
D35*
X71000000Y-57000000D03*
D34*
X91186000Y-46228000D03*
X100425000Y-60775000D03*
X51325000Y-23850000D03*
D35*
X64000000Y-49000000D03*
X71000000Y-56000000D03*
D34*
X21488400Y-76987400D03*
X47885700Y-82985500D03*
D35*
X72000000Y-50000000D03*
D34*
X22834600Y-19786600D03*
X106629200Y-79197200D03*
X106162600Y-71256400D03*
X87401400Y-42443400D03*
D35*
X64000000Y-55000000D03*
D34*
X86131400Y-44983400D03*
X48800000Y-75000000D03*
X84836000Y-39878000D03*
X42300000Y-73550000D03*
D35*
X73000000Y-48000000D03*
D34*
X95100000Y-77800000D03*
D35*
X66000000Y-60000000D03*
X71000000Y-58000000D03*
X68000000Y-56000000D03*
D34*
X119400000Y-31300000D03*
X89916000Y-42443400D03*
X97688400Y-22504400D03*
X72404800Y-27605200D03*
D35*
X72000000Y-51000000D03*
X28388000Y-73500000D03*
D34*
X43027727Y-79232864D03*
X101575000Y-57325000D03*
X83566000Y-41148000D03*
D35*
X70000000Y-60000000D03*
D34*
X127900000Y-55700000D03*
X43027727Y-82232864D03*
X83566000Y-43713400D03*
D35*
X25613000Y-75000000D03*
D34*
X98600000Y-60725000D03*
D35*
X25388000Y-73500000D03*
D34*
X27085000Y-89640002D03*
X121700000Y-57400000D03*
D35*
X73000000Y-55000000D03*
X66000000Y-49000000D03*
X27263000Y-72000000D03*
X67000000Y-48000000D03*
X26888000Y-73500000D03*
D34*
X20751800Y-57632600D03*
D35*
X70000000Y-50000000D03*
X42277208Y-78187500D03*
D34*
X121700000Y-58400000D03*
D35*
X27113000Y-78000000D03*
D34*
X129000000Y-63300000D03*
X120600000Y-57400000D03*
X122809000Y-29083000D03*
X120600000Y-59400000D03*
X124925000Y-30800000D03*
D35*
X66000000Y-61000000D03*
D34*
X128300000Y-64100000D03*
D35*
X67000000Y-59000000D03*
D34*
X21767800Y-31750000D03*
D35*
X67000000Y-50000000D03*
D34*
X36800000Y-71800000D03*
D35*
X68000000Y-59000000D03*
D34*
X129200000Y-30900000D03*
X43000000Y-72250000D03*
D35*
X72000000Y-58000000D03*
D34*
X139000000Y-47250000D03*
X84836000Y-38608000D03*
X57025000Y-28425000D03*
X52875000Y-23900000D03*
X87426800Y-19380200D03*
X121700000Y-60400000D03*
X34410000Y-84150000D03*
X53650000Y-23925000D03*
X88646000Y-41148000D03*
D35*
X66000000Y-53000000D03*
X28763000Y-72000000D03*
D34*
X28727400Y-40690800D03*
D35*
X25613000Y-76500000D03*
X69000000Y-60000000D03*
X64000000Y-59000000D03*
D34*
X20904200Y-59690000D03*
D35*
X43777208Y-79687500D03*
D34*
X99517200Y-21996400D03*
D35*
X34538000Y-72000000D03*
X66000000Y-57000000D03*
D34*
X25171400Y-19431000D03*
X118400000Y-66040000D03*
D35*
X69000000Y-55000000D03*
D34*
X84836000Y-42443400D03*
X113300000Y-53500000D03*
X116511452Y-54257400D03*
D35*
X68000000Y-60000000D03*
D34*
X115786452Y-54257400D03*
X84836000Y-41148000D03*
D35*
X27113000Y-76500000D03*
D34*
X109905800Y-19100800D03*
X142500000Y-34500000D03*
X20777200Y-54864000D03*
X86131400Y-41148000D03*
D35*
X68000000Y-55000000D03*
D34*
X105841800Y-79197200D03*
X20853400Y-50419000D03*
D35*
X72000000Y-56000000D03*
D34*
X118700000Y-65425000D03*
X121200000Y-63700000D03*
X42975000Y-87575000D03*
X106807000Y-70612000D03*
D35*
X71000000Y-48000000D03*
D34*
X38900000Y-71350000D03*
D35*
X71000000Y-61000000D03*
D34*
X147320000Y-19761200D03*
X88646000Y-42443400D03*
X101777800Y-19227800D03*
D35*
X63000000Y-54000000D03*
X70000000Y-58000000D03*
D34*
X121700000Y-56300000D03*
X93370400Y-22707600D03*
D35*
X63000000Y-51000000D03*
D34*
X113300000Y-58400000D03*
D35*
X65000000Y-60000000D03*
X63000000Y-57000000D03*
D34*
X127900000Y-56600000D03*
X89916000Y-46228000D03*
X27203400Y-68884800D03*
X86131400Y-42443400D03*
D35*
X65000000Y-49000000D03*
X64000000Y-58000000D03*
D34*
X112775000Y-48425000D03*
D35*
X66000000Y-52000000D03*
D34*
X87401400Y-41148000D03*
D35*
X63000000Y-50000000D03*
D34*
X130302000Y-37185600D03*
D35*
X69000000Y-57000000D03*
X65000000Y-61000000D03*
X65000000Y-57000000D03*
D34*
X83566000Y-39878000D03*
D35*
X65000000Y-58000000D03*
X70000000Y-55000000D03*
D34*
X105613200Y-19177000D03*
%TO.N,+3V3*%
X108900000Y-82775000D03*
X39950000Y-26000000D03*
X114900000Y-25400000D03*
X103025000Y-46375000D03*
X61250000Y-22150000D03*
X75844998Y-49861348D03*
X43000000Y-22150000D03*
X36195000Y-20308800D03*
X109500000Y-77300000D03*
X111450000Y-82875000D03*
X97038833Y-66928382D03*
X28584323Y-64758999D03*
X53800000Y-40850000D03*
X24000000Y-36500000D03*
X103054875Y-42125000D03*
X68970000Y-40522000D03*
X98850000Y-48350000D03*
X77416394Y-32750000D03*
X35715827Y-82670001D03*
X60975000Y-30574000D03*
X28450000Y-34000000D03*
X94250000Y-52300000D03*
X25000000Y-64750000D03*
X140450000Y-31769064D03*
%TO.N,+5V*%
X135350000Y-34350000D03*
D35*
%TO.N,VCC*%
X95040000Y-54925000D03*
X95148400Y-56184800D03*
X96405000Y-52325000D03*
D34*
X119900000Y-44850000D03*
D35*
X77703800Y-51000000D03*
X77778800Y-52500000D03*
X97510000Y-56225000D03*
X80703800Y-55500000D03*
X80778800Y-52500000D03*
X96210000Y-56225000D03*
X79203800Y-51000000D03*
X96340000Y-54925000D03*
X96405000Y-53625000D03*
X80778800Y-54000000D03*
X79203800Y-55500000D03*
D34*
X121203908Y-39116254D03*
X93926035Y-56804000D03*
D35*
X77778800Y-54000000D03*
D34*
X99050000Y-52100000D03*
D35*
X97640000Y-54925000D03*
D34*
X94063236Y-54185237D03*
D35*
X79278800Y-54000000D03*
X80703800Y-51000000D03*
D34*
X93726000Y-55524400D03*
D35*
X79278800Y-52500000D03*
X95105000Y-53625000D03*
X97705000Y-53625000D03*
X77703800Y-55500000D03*
X97705000Y-52325000D03*
D34*
%TO.N,/Battery System/Battery BMS Interface/VSS*%
X48970000Y-72340000D03*
X82042000Y-64897000D03*
X86338290Y-71739999D03*
X95300800Y-72745600D03*
X63850000Y-69408980D03*
D37*
X84370000Y-78329987D03*
D34*
X90119254Y-69530746D03*
%TO.N,/Battery System/Battery BMS Interface/VC3*%
X79681945Y-69560000D03*
%TO.N,/Battery System/Battery BMS Interface/VC4*%
X78250000Y-68910000D03*
X88771000Y-69948112D03*
%TO.N,/Battery System/Battery BMS Interface/VC1*%
X78746248Y-67469932D03*
%TO.N,/Battery System/Battery BMS Interface/VC0*%
X83997800Y-74549000D03*
D35*
%TO.N,/Battery System/Battery Power Path/BAT-*%
X67000000Y-67000000D03*
D34*
X64525000Y-76211200D03*
D35*
X68000000Y-67000000D03*
X69000000Y-69876000D03*
X70000000Y-68000000D03*
X68000000Y-68000000D03*
X67000000Y-69876000D03*
X70000000Y-69000000D03*
X70000000Y-69876000D03*
X67000000Y-69000000D03*
X69000000Y-69000000D03*
X68000000Y-69000000D03*
X69000000Y-67000000D03*
X69000000Y-68000000D03*
X67000000Y-68000000D03*
X70000000Y-67000000D03*
X68000000Y-69876000D03*
%TO.N,PACK+*%
X39519500Y-75285900D03*
X55750000Y-47625000D03*
X55750000Y-52125000D03*
X38919500Y-75495900D03*
X38919500Y-77295900D03*
X47012500Y-76870900D03*
X57250000Y-50625000D03*
X60250000Y-53625000D03*
X57250000Y-52125000D03*
X40119500Y-78165900D03*
X60250000Y-47625000D03*
X54250000Y-49125000D03*
X47012500Y-75070900D03*
X52750000Y-49125000D03*
X47012500Y-75670900D03*
X57250000Y-49125000D03*
X52750000Y-53625000D03*
X57250000Y-47625000D03*
X40119500Y-77565900D03*
X57250000Y-55125000D03*
X39519500Y-77085900D03*
X46412500Y-77860900D03*
X52750000Y-47625000D03*
X38919500Y-76695900D03*
X38919500Y-76095900D03*
X54250000Y-53625000D03*
X57250000Y-53625000D03*
X58750000Y-53625000D03*
X39519500Y-76485900D03*
X39519500Y-75885900D03*
X46412500Y-76660900D03*
X55750000Y-53625000D03*
X52750000Y-50625000D03*
X47012500Y-76270900D03*
X45812500Y-78340900D03*
X55750000Y-55125000D03*
X54250000Y-55125000D03*
X46405800Y-75974900D03*
X55750000Y-49125000D03*
X52750000Y-52125000D03*
X55750000Y-50625000D03*
X54250000Y-50625000D03*
X60250000Y-55125000D03*
X58750000Y-49125000D03*
X58750000Y-55125000D03*
X58750000Y-47625000D03*
X45812500Y-77740900D03*
X60250000Y-49125000D03*
X39519500Y-77685900D03*
X54250000Y-52125000D03*
X54250000Y-47625000D03*
X47012500Y-77470900D03*
X38919500Y-74895900D03*
D34*
X89625000Y-59041842D03*
D35*
X46412500Y-77260900D03*
%TO.N,+12V*%
X112350000Y-42375000D03*
D34*
X65738200Y-25125000D03*
X64338200Y-27400000D03*
X64338200Y-25775000D03*
X99826325Y-35910725D03*
X134250000Y-43800000D03*
D35*
X111525000Y-39375000D03*
D34*
X65038200Y-27400000D03*
X65738200Y-25775000D03*
X65038200Y-28050000D03*
X65038200Y-25775000D03*
D35*
X110025000Y-40875000D03*
X111525000Y-40875000D03*
D34*
X136450000Y-43800000D03*
D35*
X110025000Y-39375000D03*
D34*
X63638200Y-27400000D03*
D35*
X111225000Y-33375000D03*
D34*
X98718600Y-35175000D03*
X64338200Y-25125000D03*
D35*
X111075000Y-37875000D03*
D34*
X63638200Y-28050000D03*
X135250000Y-43800000D03*
X63638200Y-25125000D03*
X99774105Y-37104800D03*
D35*
X112725000Y-36375000D03*
D34*
X64338200Y-28050000D03*
D35*
X112575000Y-37875000D03*
D34*
X65038200Y-25125000D03*
X63638200Y-25775000D03*
D35*
X113025000Y-40875000D03*
D34*
X65738200Y-27400000D03*
D35*
X111225000Y-34875000D03*
D34*
X99850000Y-34525000D03*
X132650000Y-47500000D03*
D35*
X113025000Y-39375000D03*
D34*
X98667800Y-36625000D03*
X65738200Y-28050000D03*
D35*
X110850000Y-42375000D03*
D34*
%TO.N,IN-CHARGING-VCC-LIMITED*%
X118745000Y-48641000D03*
X127430000Y-57841000D03*
X116967000Y-49149000D03*
X117812452Y-52316600D03*
X116154200Y-51857400D03*
X118562452Y-52291600D03*
D35*
X110145000Y-47125000D03*
D34*
X114400000Y-49550000D03*
D35*
X108102400Y-47117000D03*
D34*
X101250000Y-59850000D03*
D35*
X108966000Y-48285400D03*
D34*
X116536452Y-51457400D03*
X118186400Y-51891600D03*
X115761452Y-52257400D03*
X117983000Y-48387000D03*
X121325000Y-48675000D03*
X118537452Y-51491600D03*
D35*
X108845000Y-47125000D03*
D34*
X110925000Y-45500000D03*
D35*
X108845000Y-45825000D03*
D34*
X116154200Y-58420000D03*
X116536452Y-52257400D03*
D35*
X110535000Y-44525000D03*
D34*
X117787452Y-51466600D03*
D35*
X108127800Y-46304200D03*
D34*
X110950000Y-46375000D03*
D35*
X110000000Y-48050000D03*
X108229400Y-45237400D03*
X110145000Y-45825000D03*
D34*
X115761452Y-51432400D03*
X117856000Y-49530000D03*
X119126000Y-49403000D03*
D35*
X110975000Y-47500000D03*
D34*
%TO.N,SDA_SLOW*%
X38950000Y-20850000D03*
X99275710Y-47605131D03*
X85725000Y-64008000D03*
X96688117Y-66185250D03*
X77723127Y-38986918D03*
X109400000Y-72800000D03*
X63718342Y-39332589D03*
X25512600Y-67465877D03*
X90779600Y-59050000D03*
X147145391Y-33924454D03*
X61230832Y-27860463D03*
X97300000Y-63250000D03*
X62650000Y-20300000D03*
X124799000Y-22599100D03*
%TO.N,SCL_SLOW*%
X100000000Y-48050000D03*
X126000000Y-22500000D03*
X25200000Y-66725000D03*
X39250000Y-24900000D03*
X61950000Y-37700000D03*
X114400000Y-70580002D03*
X84709000Y-64135000D03*
X95350000Y-63100000D03*
X63620000Y-20399000D03*
X90617600Y-58266572D03*
X60813224Y-27178111D03*
X147175000Y-33125000D03*
X79150000Y-41050000D03*
X39000000Y-21650000D03*
%TO.N,SBUS_RECEIVER*%
X28775000Y-45875000D03*
%TO.N,Button{slash}LOW*%
X94600000Y-66450000D03*
X110750000Y-28750000D03*
X82650000Y-28250000D03*
X72980000Y-20300000D03*
X96404326Y-72402575D03*
X87400000Y-87525000D03*
X111950000Y-26276000D03*
X83050000Y-23800000D03*
X97282000Y-73914000D03*
X96250000Y-80800000D03*
X60100000Y-20000000D03*
%TO.N,/Battery System/bms_button_logic/Button{slash}HIGH*%
X93218000Y-74803000D03*
X85750922Y-83267281D03*
X74498723Y-62146910D03*
X85500000Y-79230000D03*
X94200000Y-86500000D03*
X87630000Y-75819000D03*
X76000000Y-68850000D03*
D36*
%TO.N,/Battery System/Battery BMS Interface/BQ-BAT*%
X68859400Y-86893400D03*
D34*
X56250000Y-63000000D03*
%TO.N,Current{slash}INA3221-CUR1{slash}WARNING*%
X87150000Y-23300000D03*
X97847465Y-46942541D03*
X43427902Y-20050000D03*
X91950000Y-30150000D03*
X72861327Y-21091152D03*
%TO.N,/Battery System/Battery BMS Interface/PDSG*%
X49011816Y-73846149D03*
X89671130Y-61203870D03*
D35*
%TO.N,/Battery System/Ideal_Diode_OR_SERVO/IN*%
X40062500Y-85296900D03*
X45847500Y-85061900D03*
X38862500Y-87366900D03*
X38862500Y-86166900D03*
X46447500Y-87341900D03*
X46447500Y-84941900D03*
X39462500Y-87576900D03*
X47047500Y-85931900D03*
X38862500Y-86766900D03*
X38862500Y-87966900D03*
X46447500Y-86141900D03*
X40062500Y-84696900D03*
D34*
X50355400Y-81172850D03*
D35*
X39462500Y-85176900D03*
X39462500Y-86376900D03*
X38862500Y-85566900D03*
X45847500Y-84461900D03*
X47047500Y-87731900D03*
X46447500Y-86741900D03*
X39462500Y-85776900D03*
X39462500Y-86976900D03*
X47047500Y-85331900D03*
X47047500Y-87131900D03*
X47047500Y-86531900D03*
X46447500Y-85541900D03*
D34*
%TO.N,/Battery System/USBC_VCC*%
X101090000Y-67430000D03*
X104233263Y-67631735D03*
X99620000Y-70110000D03*
X100010000Y-66250000D03*
X100180000Y-71500000D03*
X102510000Y-67655000D03*
X101656958Y-68577551D03*
%TO.N,/Battery System/Battery BMS Interface/ALERT_PULLUP*%
X74676000Y-61315600D03*
X89700000Y-71750112D03*
X97350000Y-84350000D03*
X82546250Y-63249750D03*
%TO.N,Current{slash}INA3221-CUR1{slash}TC*%
X98318667Y-42197247D03*
X98104875Y-47700000D03*
X64949265Y-39450735D03*
X40650000Y-22750000D03*
%TO.N,/Battery System/CUR1/IN_1_P*%
X95850000Y-40125000D03*
X92283282Y-33232294D03*
%TO.N,/Battery System/CUR1/IN_1_N*%
X92274000Y-32168419D03*
X96375000Y-38975000D03*
%TO.N,/Battery System/CUR1/IN_3_N*%
X106197400Y-33832800D03*
X109325000Y-43775000D03*
%TO.N,/Battery System/CUR1/IN_3_P*%
X105638600Y-33020000D03*
X109325000Y-44650000D03*
%TO.N,/Battery System/CUR1/IN_2_P*%
X96103400Y-32837142D03*
X101396800Y-38455600D03*
%TO.N,/Battery System/CUR1/IN_2_N*%
X100330000Y-38404800D03*
X95940000Y-32020000D03*
%TO.N,/Battery System/INA226_SINGLE_CURR_SENSOR_ESC/VIN_N*%
X49733200Y-36804600D03*
%TO.N,/Battery System/INA226_SINGLE_CURR_SENSOR_ESC/VIN_P*%
X50622200Y-36804600D03*
%TO.N,/Battery System/CUR2/IN_3_N*%
X67100700Y-26787500D03*
%TO.N,/Battery System/CUR2/IN_3_P*%
X66858200Y-27725000D03*
%TO.N,/Battery System/CUR2/IN_2_P*%
X68925999Y-39680346D03*
%TO.N,/Battery System/CUR2/IN_2_N*%
X68598906Y-38258999D03*
%TO.N,/Battery System/CUR2/IN_1_P*%
X76589991Y-32883755D03*
%TO.N,/Battery System/CUR2/IN_1_N*%
X75862027Y-34852305D03*
%TO.N,/Battery System/mt9700-efuse1/EN*%
X131080000Y-29960000D03*
%TO.N,/Battery System/ServoConnectors/FrontDiff*%
X25719800Y-33857278D03*
%TO.N,/Battery System/ServoConnectors/Steering*%
X24765000Y-34036000D03*
%TO.N,/Battery System/ServoConnectors/Throttle*%
X23952200Y-32791400D03*
%TO.N,/Battery System/ServoConnectors/RearDiff*%
X25719800Y-36931600D03*
%TO.N,Current{slash}INA3221-CUR1{slash}POWERVALID*%
X96050000Y-45250000D03*
X77378445Y-29661555D03*
X61301530Y-19950000D03*
X44276429Y-20050000D03*
%TO.N,/Battery System/ServoConnectors/Gear*%
X25719800Y-39090600D03*
%TO.N,/Battery System/ServoConnectors/Extra2*%
X25719800Y-41503600D03*
%TO.N,/Battery System/ServoConnectors/Extra1*%
X25719800Y-40513000D03*
%TO.N,Current{slash}INA3221-CUR1{slash}CRITICAL*%
X96050003Y-47407761D03*
X42850000Y-19496800D03*
X82700000Y-29600000D03*
X81950000Y-20900000D03*
%TO.N,Current{slash}INA3221-CUR2{slash}WARNING*%
X41700527Y-24352000D03*
X79236643Y-38474104D03*
X61785671Y-40383600D03*
%TO.N,Current{slash}INA3221-CUR2{slash}TC*%
X76850000Y-32100000D03*
X46171793Y-22851793D03*
%TO.N,Current{slash}INA3221-CUR2{slash}POWERVALID*%
X42300528Y-24952000D03*
X43003619Y-31102149D03*
X75593314Y-36466784D03*
%TO.N,Current{slash}INA3221-CUR2{slash}CRITICAL*%
X40550000Y-23600000D03*
X50398585Y-32650000D03*
X76725188Y-37742573D03*
%TO.N,Button{slash}DIGITAL*%
X53045943Y-30781070D03*
X94070000Y-69010000D03*
X62972880Y-35567120D03*
X82530661Y-62449901D03*
X85184738Y-61349999D03*
%TO.N,servo_vcc_indicator*%
X21700000Y-68975190D03*
%TO.N,ESC{slash}EN*%
X49800000Y-32050000D03*
X71247000Y-45070002D03*
%TO.N,Power{slash}5V-Buck{slash}EN#*%
X113060000Y-28800000D03*
X123211250Y-34406050D03*
X61745153Y-31722353D03*
X53830000Y-30940000D03*
X77210000Y-27830000D03*
X66130000Y-23800000D03*
%TO.N,BQ{slash}ALERT*%
X97301000Y-62402473D03*
X97639513Y-66400000D03*
X102700000Y-85250000D03*
X89398238Y-58003999D03*
X95913679Y-61344415D03*
%TO.N,BQ{slash}RST-SHUT*%
X86230000Y-61517500D03*
X62120196Y-36918311D03*
%TO.N,USB-C{slash}HUSB238A{slash}EN#*%
X71373145Y-23673655D03*
X59600643Y-31269139D03*
X108280200Y-77038200D03*
X32740000Y-34420000D03*
X39370000Y-27840000D03*
%TO.N,Power{slash}5V-Buck{slash}PGOOD*%
X116931133Y-33219804D03*
X39400001Y-31764235D03*
X52830000Y-32010000D03*
%TO.N,USB-C{slash}HUSB238A{slash}INT*%
X108686600Y-75996800D03*
X106750000Y-89350000D03*
X37300000Y-66550000D03*
X44398387Y-29264487D03*
X109400913Y-90050913D03*
%TO.N,USB-C{slash}I2C{slash}EN*%
X107600000Y-72300000D03*
X38780000Y-58210000D03*
X42900528Y-28310000D03*
%TO.N,Servo{slash}TPS{slash}EN*%
X41151000Y-31761415D03*
X38910000Y-79500000D03*
%TO.N,Servo{slash}TPS{slash}PGOOD*%
X36025000Y-81828697D03*
X47999998Y-30298060D03*
%TO.N,Power{slash}12V-Buck{slash}EN*%
X79256290Y-37674343D03*
X45398470Y-28550000D03*
X77340933Y-28645889D03*
%TO.N,eFuse{slash}TPS16630{slash}FAULT*%
X60650000Y-21249000D03*
D35*
X112491744Y-55741088D03*
D34*
%TO.N,eFuse{slash}TPS16630{slash}SHDN*%
X58720000Y-20200000D03*
X109728000Y-56281783D03*
%TO.N,IO-Expander{slash}Primary{slash}INT*%
X61743920Y-30794829D03*
%TO.N,eFuse{slash}TPS16630{slash}IMON*%
X66736351Y-39330591D03*
D35*
X108466640Y-55668992D03*
D34*
X97556000Y-57912000D03*
%TO.N,Receiver{slash}EN*%
X43844265Y-26264265D03*
X29325000Y-34600000D03*
%TO.N,Net-(Q601-D)*%
X116426749Y-62705145D03*
D35*
%TO.N,eFuse{slash}TPS16630{slash}PGOOD*%
X112351520Y-55055274D03*
D34*
X55125064Y-19959000D03*
%TO.N,Current{slash}INA226-ESC-0x4E{slash}ALERT*%
X45550000Y-23475000D03*
X61985957Y-39071878D03*
%TO.N,Current{slash}INA226-SERVO-0x4F{slash}ALERT*%
X23400000Y-69200000D03*
X22025000Y-33425000D03*
%TO.N,Charger{slash}CN3072{slash}CHG-DONE*%
X46068127Y-26052500D03*
X113000000Y-74700000D03*
X117100000Y-59400000D03*
X113000000Y-87575000D03*
%TO.N,Charger{slash}CN3072{slash}CHG-ACTIVE*%
X45010264Y-27365385D03*
X110225000Y-88450000D03*
X117200000Y-58500000D03*
%TO.N,IMU{slash}INT1*%
X130600000Y-47700000D03*
X135483600Y-47849000D03*
X145137950Y-34962050D03*
X43672203Y-30662832D03*
%TO.N,IMU{slash}INT2*%
X137950000Y-48700000D03*
X44450000Y-30850000D03*
X147250000Y-30950000D03*
%TO.N,USB-C{slash}HUSB238A{slash}FAULT-OUT2*%
X28700000Y-33000000D03*
X27600000Y-88100000D03*
X36700000Y-58300000D03*
X35200000Y-31650000D03*
X107569000Y-77419200D03*
%TO.N,IO-Expander{slash}Secondary{slash}INT*%
X59575000Y-23175000D03*
%TO.N,Power{slash}12V-Buck{slash}IOUTMON*%
X80238600Y-36245800D03*
%TO.N,Power{slash}12V-Buck{slash}IINMON*%
X65938400Y-30988000D03*
X80864000Y-38485085D03*
%TO.N,LED{slash}WS2815{slash}DATA*%
X135720000Y-38890000D03*
D35*
%TO.N,/Battery System/mt9700-efuse1/OUT*%
X133162800Y-21920200D03*
X135162800Y-21920200D03*
X133162800Y-22920200D03*
X134162800Y-21920200D03*
X135162800Y-20920200D03*
X133162800Y-20920200D03*
D34*
X132207000Y-33909000D03*
D35*
X134162800Y-22920200D03*
D34*
X132969000Y-33909000D03*
X133731000Y-33909000D03*
D35*
X136162800Y-22920200D03*
X135162800Y-22920200D03*
X134162800Y-20920200D03*
D34*
%TO.N,Net-(U30-COM3)*%
X127140000Y-62701000D03*
X126170000Y-60401000D03*
%TO.N,Charger{slash}CN3722{slash}EN#*%
X125120400Y-62738000D03*
X84886800Y-21640800D03*
D35*
X54457600Y-19507200D03*
D34*
%TO.N,Net-(U65-VDD)*%
X104364085Y-72589172D03*
%TO.N,/Battery System/Ideal_Diode_OR_DC_PORT/IN*%
X119375000Y-69200000D03*
X119400000Y-70400000D03*
X120400000Y-67850000D03*
X120400000Y-68475000D03*
X118650000Y-68775000D03*
%TO.N,Net-(D18-A)*%
X107696000Y-79679800D03*
X98310000Y-77070000D03*
D35*
%TO.N,/Battery System/servo_vcc*%
X32742400Y-83062500D03*
X32742400Y-86062500D03*
X29892400Y-81562500D03*
X31017400Y-80062500D03*
X31392400Y-81562500D03*
X29742400Y-83062500D03*
X31242400Y-83062500D03*
X31617400Y-77062500D03*
X30117400Y-77062500D03*
X31542400Y-78562500D03*
X31242400Y-86062500D03*
X33117400Y-77062500D03*
X32892400Y-81562500D03*
X34017400Y-80062500D03*
X32742400Y-84562500D03*
X31617400Y-75562500D03*
X34617400Y-77062500D03*
X33117400Y-75562500D03*
X29667400Y-87562500D03*
X29517400Y-80062500D03*
X31242400Y-84562500D03*
X32517400Y-80062500D03*
X33042400Y-78562500D03*
X34542400Y-78562500D03*
X32667400Y-87562500D03*
X29742400Y-86062500D03*
X29742400Y-84562500D03*
X34617400Y-75562500D03*
X31167400Y-87562500D03*
X30042400Y-78562500D03*
D34*
%TO.N,/Battery System/danger_rail*%
X123317000Y-38862000D03*
X118922800Y-36906200D03*
X118922800Y-35687000D03*
X122174000Y-40005000D03*
X124425000Y-38077568D03*
X118922800Y-36296600D03*
X118922800Y-35077400D03*
X123190000Y-37947600D03*
X123317000Y-40005000D03*
%TO.N,/Battery System/USB-C Input/usbc_vbus*%
X104648000Y-77825600D03*
%TO.N,/Battery System/USB-C Input/cc2*%
X102666800Y-73355200D03*
X102521145Y-76112050D03*
%TO.N,/Battery System/USB-C Input/dn*%
X101897519Y-75610958D03*
X101581263Y-74312660D03*
%TO.N,Net-(NT2001-Pad2)*%
X107770198Y-74170000D03*
%TO.N,USBC_OR_DC20*%
X110300000Y-67105000D03*
D35*
X108370000Y-67500000D03*
X111295000Y-67500000D03*
D34*
X107600000Y-67945000D03*
D35*
X107695000Y-66000000D03*
D34*
X111700000Y-64500000D03*
X109230000Y-67040000D03*
D35*
X109195000Y-66000000D03*
D34*
X116551159Y-39359600D03*
D35*
X110695000Y-66000000D03*
D34*
X119900000Y-48387000D03*
X111530000Y-66390000D03*
%TO.N,CHARGE_DIRECT*%
X131419600Y-70053200D03*
X141730000Y-71050000D03*
X143090000Y-69590000D03*
X137500000Y-70520000D03*
X138000000Y-69300000D03*
X146150000Y-67462500D03*
X131690000Y-66260000D03*
X38912800Y-63855600D03*
X40980000Y-63310000D03*
X39522400Y-67208400D03*
X40487600Y-66700400D03*
X40843200Y-65176400D03*
X128270000Y-78079600D03*
X135600000Y-72930000D03*
X139650000Y-71590000D03*
X40792400Y-65887600D03*
X39217600Y-62128400D03*
X137970000Y-72430000D03*
X122059690Y-38260471D03*
X138720000Y-70390000D03*
X38074600Y-64414400D03*
X127711200Y-78841600D03*
X142230000Y-69280000D03*
X141500000Y-70140000D03*
X126238000Y-79044800D03*
X38074600Y-66141600D03*
X38963600Y-66700400D03*
X39450000Y-64450000D03*
X40030400Y-66243200D03*
X126746000Y-77876400D03*
X144870000Y-69710000D03*
X135480000Y-70660000D03*
X39624000Y-68072000D03*
X146580000Y-68800000D03*
X38049200Y-63068200D03*
X38404800Y-62331600D03*
X38963600Y-65582800D03*
X39979600Y-65328800D03*
X39200000Y-66200000D03*
X139420000Y-69300000D03*
X136610000Y-69380000D03*
X138811000Y-67515000D03*
X130708400Y-70612000D03*
X144040000Y-68720000D03*
X38912800Y-67665600D03*
X38862000Y-64922400D03*
X40386000Y-67614800D03*
X129286000Y-78740000D03*
X140563600Y-76606400D03*
X39116000Y-62839600D03*
X127254000Y-79349600D03*
X140560000Y-68620000D03*
X137970000Y-71480000D03*
X143550000Y-70560000D03*
X139540000Y-70660000D03*
X124968000Y-77978000D03*
X136093200Y-82092800D03*
X125730000Y-80213200D03*
X136780000Y-71670000D03*
X38150800Y-65430400D03*
%TO.N,Net-(JP3601-B)*%
X91266290Y-78332875D03*
X91870000Y-85561442D03*
%TO.N,Net-(D3602-K)*%
X73609200Y-79603600D03*
%TO.N,Net-(D3602-A)*%
X70104000Y-77216000D03*
X68110000Y-81140000D03*
X93497400Y-81407000D03*
X66070000Y-86360000D03*
%TO.N,Net-(U3601-GND)*%
X64480631Y-73974769D03*
X79648273Y-86162012D03*
X81483200Y-81686400D03*
X84353400Y-85115400D03*
%TO.N,Net-(Q3602-G)*%
X94869000Y-79883000D03*
%TO.N,Net-(U3601-INA+)*%
X81864200Y-86817200D03*
X79603600Y-85293200D03*
%TO.N,Net-(D11-Pad1)*%
X129550000Y-49150000D03*
X123800000Y-53675000D03*
X125550000Y-51525000D03*
X123925000Y-49375000D03*
X123875000Y-51475000D03*
X124725000Y-50400000D03*
X125550000Y-49375000D03*
X125550000Y-53700000D03*
X124675000Y-52575000D03*
%TO.N,BQ{slash}ALERT{slash}LED*%
X63078655Y-38234566D03*
X38800000Y-46750000D03*
X96950000Y-85750000D03*
%TO.N,Net-(LED9-K)*%
X97350000Y-88925000D03*
%TO.N,Net-(U2701-RT)*%
X116900000Y-32300000D03*
%TO.N,Net-(U82-EM)*%
X79550000Y-58250000D03*
%TO.N,Net-(U78-OE#)*%
X35164000Y-23685500D03*
%TO.N,Net-(U78-A0)*%
X33020000Y-20308800D03*
%TO.N,Net-(U78-A1)*%
X31430000Y-19620000D03*
%TO.N,Net-(U78-LED6)*%
X34620200Y-26441400D03*
%TO.N,Net-(U78-LED5)*%
X34697992Y-25599953D03*
%TO.N,Net-(U78-LED4)*%
X34153183Y-24845589D03*
%TO.N,Net-(U78-LED3)*%
X33541606Y-24254800D03*
%TO.N,Net-(U78-LED2)*%
X33070000Y-23368000D03*
%TO.N,Net-(U78-LED1)*%
X29159200Y-24612600D03*
%TO.N,Net-(U78-LED0)*%
X28422600Y-23164800D03*
%TO.N,Net-(U69-Y)*%
X137090000Y-33420000D03*
%TO.N,Net-(U65-DBG_N)*%
X105156000Y-72898000D03*
%TO.N,Net-(U62-OVP)*%
X108866533Y-59708483D03*
X110700000Y-62200000D03*
%TO.N,Net-(U62-UVLO)*%
X108027570Y-59571936D03*
X111647800Y-62215486D03*
%TO.N,Net-(U47-IOUT)*%
X102334998Y-41125000D03*
X92685724Y-33980989D03*
%TO.N,Net-(U70-DO)*%
X144217192Y-46905614D03*
%TO.N,Net-(U70-DIN1)*%
X145850000Y-48250000D03*
%TO.N,Net-(D30-C)*%
X62507907Y-66249000D03*
X63045542Y-69294200D03*
%TO.N,Net-(D25-Pad1)*%
X93700000Y-64580000D03*
X61849000Y-64897000D03*
%TO.N,Net-(D23-C)*%
X72180000Y-65650000D03*
X49316152Y-70180000D03*
%TO.N,Net-(U80-BAT)*%
X82058000Y-66310000D03*
D35*
%TO.N,Net-(U62-dVdT)*%
X110399998Y-58166000D03*
D34*
%TO.N,Net-(U30-CSP)*%
X126492000Y-59182000D03*
%TO.N,Net-(Q1-D)*%
X116840000Y-60452000D03*
X115102280Y-60758892D03*
X124000000Y-63000000D03*
%TO.N,Net-(Q13-G)*%
X51904500Y-67359000D03*
%TO.N,Net-(Q14-G)*%
X54040000Y-56660000D03*
%TO.N,Net-(Q12-D)*%
X118504781Y-34011852D03*
X122202301Y-35727600D03*
%TO.N,Net-(C1408-Pad1)*%
X85753386Y-33949071D03*
X98375000Y-39275000D03*
%TO.N,/Battery System/MicrocontrollerKickstart/OUT*%
X117230644Y-38506461D03*
X67050000Y-77250000D03*
%TO.N,Net-(U30-BAT)*%
X134250000Y-64900000D03*
%TO.N,Net-(C2705-Pad1)*%
X130302000Y-31960002D03*
X114526353Y-29411347D03*
D38*
%TO.N,/Battery System/5v rail/5V buck rail*%
X128143000Y-32479999D03*
X129406065Y-42300000D03*
D34*
%TO.N,Net-(C3601-Pad1)*%
X92710000Y-86040000D03*
X91617800Y-81076800D03*
%TO.N,CHARGING-IC{slash}OPEN-DRAIN-DIGIPOT-#EN*%
X102030000Y-62770000D03*
X53860000Y-30110000D03*
%TO.N,VCC_ESC*%
X25724265Y-35624265D03*
%TO.N,Net-(LED101-A)*%
X23550000Y-30000000D03*
%TO.N,Net-(JP1402-B)*%
X88600000Y-54200000D03*
X80748001Y-37351999D03*
%TO.N,/Battery System/IO-ExpanderPrimary/P0_3*%
X52084185Y-31720579D03*
%TO.N,/Battery System/IO-ExpanderPrimary/P1_4*%
X46199998Y-28850000D03*
%TO.N,Net-(JP1901-B)*%
X112190800Y-57150001D03*
%TD*%
D39*
%TO.N,ADS1115{slash}ALERT*%
X58770799Y-21848999D02*
X56819800Y-19898000D01*
X59381070Y-21848999D02*
X58770799Y-21848999D01*
%TO.N,eFuse{slash}TPS16630{slash}PGOOD*%
X55125064Y-19959000D02*
X55786064Y-19298000D01*
X73417124Y-19298000D02*
X81367124Y-27248000D01*
X81367124Y-27248000D02*
X89021750Y-27248000D01*
X91613857Y-31166419D02*
X92689043Y-31166419D01*
X89021750Y-27248000D02*
X90796994Y-29023244D01*
X101599257Y-40524000D02*
X107313232Y-40524000D01*
X90796994Y-29023244D02*
X90796994Y-30349556D01*
X55786064Y-19298000D02*
X73417124Y-19298000D01*
X90796994Y-30349556D02*
X91613857Y-31166419D01*
X97546624Y-36024000D02*
X97546624Y-36471367D01*
X97546624Y-36471367D02*
X101599257Y-40524000D01*
X107313232Y-40524000D02*
X113381000Y-46591768D01*
X113381000Y-46591768D02*
X113381000Y-52569057D01*
X92689043Y-31166419D02*
X97546624Y-36024000D01*
X113381000Y-52569057D02*
X112351520Y-53598537D01*
X112351520Y-53598537D02*
X112351520Y-55055274D01*
D40*
%TO.N,USB-C{slash}HUSB238A{slash}EN#*%
X70936800Y-24110000D02*
X70690000Y-24110000D01*
X43574611Y-25613265D02*
X41347876Y-27840000D01*
X70140000Y-24660000D02*
X66193854Y-24660000D01*
X71373145Y-23673655D02*
X70936800Y-24110000D01*
X41347876Y-27840000D02*
X39370000Y-27840000D01*
X70690000Y-24110000D02*
X70140000Y-24660000D01*
X66193854Y-24660000D02*
X66007854Y-24474000D01*
X45569940Y-21398793D02*
X43574611Y-23394122D01*
X43574611Y-23394122D02*
X43574611Y-25613265D01*
X66007854Y-24474000D02*
X58941800Y-24474000D01*
X58941800Y-24474000D02*
X55866593Y-21398793D01*
X55866593Y-21398793D02*
X45569940Y-21398793D01*
D39*
%TO.N,Power{slash}12V-Buck{slash}EN*%
X77340933Y-28645889D02*
X77340933Y-28577871D01*
X76286208Y-29220000D02*
X75272408Y-28206200D01*
X60031000Y-26376000D02*
X55504793Y-21849793D01*
X77340933Y-28577871D02*
X76698804Y-29220000D01*
X50064744Y-30899060D02*
X47399115Y-30899060D01*
X72155857Y-28206200D02*
X69989657Y-26040000D01*
X45756750Y-21849793D02*
X44548000Y-23058543D01*
X47399115Y-30899060D02*
X45398470Y-28898415D01*
X55504793Y-21849793D02*
X45756750Y-21849793D01*
X75272408Y-28206200D02*
X72155857Y-28206200D01*
X45398470Y-28898415D02*
X45398470Y-28550000D01*
X66323143Y-26040000D02*
X65987143Y-26376000D01*
X76698804Y-29220000D02*
X76286208Y-29220000D01*
X65987143Y-26376000D02*
X60031000Y-26376000D01*
X69989657Y-26040000D02*
X66323143Y-26040000D01*
X44548000Y-25382316D02*
X50064744Y-30899060D01*
X44548000Y-23058543D02*
X44548000Y-25382316D01*
%TO.N,Power{slash}5V-Buck{slash}EN#*%
X61745153Y-31722353D02*
X61745153Y-31643539D01*
X61745153Y-31643539D02*
X62344920Y-31043772D01*
X54582843Y-30940000D02*
X53830000Y-30940000D01*
X62344920Y-31043772D02*
X62344920Y-30424920D01*
X62344920Y-30424920D02*
X61894000Y-29974000D01*
X61894000Y-29974000D02*
X55548843Y-29974000D01*
X55548843Y-29974000D02*
X54582843Y-30940000D01*
%TO.N,Power{slash}12V-Buck{slash}IINMON*%
X65938400Y-30988000D02*
X67216400Y-32266000D01*
X67216400Y-32266000D02*
X67236032Y-32266000D01*
X67236032Y-32266000D02*
X67447232Y-32054800D01*
X67447232Y-32054800D02*
X74904600Y-32054800D01*
X74904600Y-32054800D02*
X80147001Y-37297201D01*
X80147001Y-37297201D02*
X80147001Y-37768086D01*
X80147001Y-37768086D02*
X80864000Y-38485085D01*
%TO.N,SDA_SLOW*%
X77723127Y-38986918D02*
X70846818Y-38986918D01*
X67839800Y-35979900D02*
X67839800Y-35246557D01*
X67839800Y-35246557D02*
X66261243Y-33668000D01*
X62234900Y-38470878D02*
X62586957Y-38822935D01*
X60828000Y-34517800D02*
X60828000Y-37561864D01*
X62586957Y-39186957D02*
X62732589Y-39332589D01*
X61677800Y-33668000D02*
X60828000Y-34517800D01*
X70846818Y-38986918D02*
X67839800Y-35979900D01*
X62732589Y-39332589D02*
X63718342Y-39332589D01*
X62586957Y-38822935D02*
X62586957Y-39186957D01*
X66261243Y-33668000D02*
X61677800Y-33668000D01*
X60828000Y-37561864D02*
X61737014Y-38470878D01*
X61737014Y-38470878D02*
X62234900Y-38470878D01*
%TO.N,SCL_SLOW*%
X79150000Y-41050000D02*
X72342800Y-41050000D01*
X67438800Y-36146000D02*
X67438800Y-35412657D01*
X67438800Y-35412657D02*
X66095143Y-34069000D01*
X61229000Y-34683900D02*
X61229000Y-36979000D01*
X66095143Y-34069000D02*
X61843900Y-34069000D01*
X72342800Y-41050000D02*
X67438800Y-36146000D01*
X61843900Y-34069000D02*
X61229000Y-34683900D01*
X61229000Y-36979000D02*
X61950000Y-37700000D01*
%TO.N,BQ{slash}RST-SHUT*%
X62120196Y-36918311D02*
X62120196Y-35569861D01*
X62120196Y-35569861D02*
X62723937Y-34966120D01*
X63221823Y-34966120D02*
X66135351Y-37879648D01*
X66135351Y-37879648D02*
X66135351Y-39579534D01*
X62723937Y-34966120D02*
X63221823Y-34966120D01*
X80158000Y-56448000D02*
X84458999Y-60748999D01*
X66135351Y-39579534D02*
X66919952Y-40364135D01*
X66919952Y-40364135D02*
X66919952Y-40580152D01*
X67620200Y-41280400D02*
X70850400Y-41280400D01*
X66919952Y-40580152D02*
X67620200Y-41280400D01*
X85461499Y-60748999D02*
X86230000Y-61517500D01*
X70850400Y-41280400D02*
X77112000Y-47542000D01*
X77112000Y-47542000D02*
X77112000Y-55717800D01*
X77112000Y-55717800D02*
X77842200Y-56448000D01*
X77842200Y-56448000D02*
X80158000Y-56448000D01*
X84458999Y-60748999D02*
X85461499Y-60748999D01*
%TO.N,Button{slash}DIGITAL*%
X62972880Y-35567120D02*
X62972880Y-35762880D01*
X64319342Y-37109342D02*
X64319342Y-39669342D01*
X70684300Y-41681400D02*
X76711000Y-47708100D01*
X66331400Y-41681400D02*
X70684300Y-41681400D01*
X76711000Y-47708100D02*
X76711000Y-55883900D01*
X77676100Y-56849000D02*
X79983043Y-56849000D01*
X84494043Y-61360000D02*
X85174737Y-61360000D01*
X64319342Y-39669342D02*
X66331400Y-41681400D01*
X76711000Y-55883900D02*
X77676100Y-56849000D01*
X79983043Y-56849000D02*
X84494043Y-61360000D01*
X62972880Y-35762880D02*
X64319342Y-37109342D01*
X85174737Y-61360000D02*
X85184738Y-61349999D01*
D40*
%TO.N,+3V3*%
X75844998Y-50025998D02*
X76200000Y-50381000D01*
X75844998Y-49861348D02*
X75844998Y-50025998D01*
X76200000Y-62245654D02*
X74945654Y-63500000D01*
X58549810Y-63500000D02*
X49784000Y-54734190D01*
X76200000Y-50381000D02*
X76200000Y-62245654D01*
X49784000Y-54734190D02*
X49784000Y-44866000D01*
X49784000Y-44866000D02*
X53800000Y-40850000D01*
X74945654Y-63500000D02*
X58549810Y-63500000D01*
D41*
%TO.N,VCC*%
X121203908Y-39116254D02*
X119900000Y-40420162D01*
X119900000Y-40420162D02*
X119900000Y-44850000D01*
D40*
%TO.N,/Battery System/Battery BMS Interface/VSS*%
X87744112Y-70599112D02*
X82042000Y-64897000D01*
X89050888Y-70599112D02*
X87744112Y-70599112D01*
X90119254Y-69530746D02*
X89050888Y-70599112D01*
%TO.N,SDA_SLOW*%
X86702000Y-64008000D02*
X87620000Y-63090000D01*
X109400000Y-72800000D02*
X108249000Y-71649000D01*
X97124367Y-65749000D02*
X96688117Y-66185250D01*
X78007572Y-38986918D02*
X77723127Y-38986918D01*
D39*
X99275710Y-47520843D02*
X99275710Y-47605131D01*
D40*
X97909167Y-65749000D02*
X97124367Y-65749000D01*
D39*
X97246465Y-47191484D02*
X97246465Y-46693598D01*
X97246465Y-46693598D02*
X97598522Y-46341541D01*
D40*
X108249000Y-71649000D02*
X107325654Y-71649000D01*
D39*
X90495200Y-59050000D02*
X90017600Y-58572400D01*
D40*
X104067567Y-71907400D02*
X97909167Y-65749000D01*
D39*
X97598522Y-46341541D02*
X98096408Y-46341541D01*
D40*
X85725000Y-64008000D02*
X86702000Y-64008000D01*
X107325654Y-71649000D02*
X107067254Y-71907400D01*
D39*
X95645057Y-48280000D02*
X96157949Y-48280000D01*
D40*
X81379800Y-54398880D02*
X81379800Y-42359146D01*
X81379800Y-42359146D02*
X78007572Y-38986918D01*
X107067254Y-71907400D02*
X104067567Y-71907400D01*
D39*
X90017600Y-58572400D02*
X90017600Y-53907457D01*
D40*
X87620000Y-60639080D02*
X81379800Y-54398880D01*
D39*
X90779600Y-59050000D02*
X90495200Y-59050000D01*
X98096408Y-46341541D02*
X99275710Y-47520843D01*
X90017600Y-53907457D02*
X95645057Y-48280000D01*
X96157949Y-48280000D02*
X97246465Y-47191484D01*
D40*
X87620000Y-63090000D02*
X87620000Y-60639080D01*
D39*
%TO.N,SCL_SLOW*%
X98448943Y-48951000D02*
X99099000Y-48951000D01*
D40*
X79879800Y-41779800D02*
X79150000Y-41050000D01*
D39*
X90958843Y-58266572D02*
X91379600Y-57845815D01*
D40*
X80952743Y-54899000D02*
X80827857Y-54899000D01*
X84709000Y-64135000D02*
X84709000Y-64103346D01*
X80827857Y-54899000D02*
X79879800Y-53950943D01*
D39*
X99099000Y-48951000D02*
X100000000Y-48050000D01*
X91374567Y-57599567D02*
X91374567Y-56025376D01*
D40*
X84709000Y-64103346D02*
X86881000Y-61931346D01*
D39*
X91374567Y-56025376D02*
X98448943Y-48951000D01*
D40*
X79879800Y-53950943D02*
X79879800Y-41779800D01*
D39*
X91379600Y-57845815D02*
X91379600Y-57604600D01*
X91379600Y-57604600D02*
X91374567Y-57599567D01*
X90617600Y-58266572D02*
X90958843Y-58266572D01*
D40*
X86881000Y-60827257D02*
X80952743Y-54899000D01*
X86881000Y-61931346D02*
X86881000Y-60827257D01*
D39*
%TO.N,/Battery System/Ideal_Diode_OR_SERVO/IN*%
X50355400Y-81172850D02*
X50355400Y-81365743D01*
X50355400Y-81365743D02*
X46779243Y-84941900D01*
X46779243Y-84941900D02*
X46447500Y-84941900D01*
D40*
%TO.N,/Battery System/Battery BMS Interface/ALERT_PULLUP*%
X90309188Y-82594958D02*
X93549000Y-85834770D01*
X89700000Y-72350000D02*
X90309188Y-72959188D01*
X94549000Y-87151000D02*
X97350000Y-84350000D01*
X93549000Y-85834770D02*
X93549000Y-86769654D01*
X93549000Y-86769654D02*
X93930346Y-87151000D01*
X93930346Y-87151000D02*
X94549000Y-87151000D01*
X89700000Y-71750112D02*
X89700000Y-72350000D01*
X90309188Y-72959188D02*
X90309188Y-82594958D01*
D39*
%TO.N,Current{slash}INA3221-CUR2{slash}TC*%
X76160000Y-31570000D02*
X76690000Y-32100000D01*
X46171793Y-22851793D02*
X52389016Y-29069016D01*
X52389016Y-29069016D02*
X75001024Y-29069016D01*
X76690000Y-32100000D02*
X76850000Y-32100000D01*
X75001024Y-29069016D02*
X76160000Y-30227992D01*
X76160000Y-30227992D02*
X76160000Y-31570000D01*
%TO.N,Current{slash}INA3221-CUR2{slash}POWERVALID*%
X52780663Y-33267000D02*
X72393530Y-33267000D01*
X43003619Y-31102149D02*
X43351470Y-31450000D01*
X72393530Y-33267000D02*
X75593314Y-36466784D01*
X50963663Y-31450000D02*
X52780663Y-33267000D01*
X43351470Y-31450000D02*
X50963663Y-31450000D01*
%TO.N,Button{slash}DIGITAL*%
X83147250Y-65187250D02*
X86889746Y-68929746D01*
X86889746Y-68929746D02*
X93989746Y-68929746D01*
X82596344Y-62449901D02*
X83147250Y-63000807D01*
X82530661Y-62449901D02*
X82596344Y-62449901D01*
X93989746Y-68929746D02*
X94070000Y-69010000D01*
X83147250Y-63000807D02*
X83147250Y-65187250D01*
%TO.N,ESC{slash}EN*%
X50660000Y-32050000D02*
X63680002Y-45070002D01*
X63680002Y-45070002D02*
X71247000Y-45070002D01*
X49800000Y-32050000D02*
X50660000Y-32050000D01*
%TO.N,Power{slash}5V-Buck{slash}EN#*%
X76353219Y-27805200D02*
X77185200Y-27805200D01*
X77185200Y-27805200D02*
X77210000Y-27830000D01*
X66130000Y-23800000D02*
X66130000Y-23420019D01*
X114810000Y-28800000D02*
X120416050Y-34406050D01*
X120416050Y-34406050D02*
X123211250Y-34406050D01*
X69997019Y-21449000D02*
X76353219Y-27805200D01*
X68101019Y-21449000D02*
X69997019Y-21449000D01*
X113060000Y-28800000D02*
X114810000Y-28800000D01*
X66130000Y-23420019D02*
X68101019Y-21449000D01*
D40*
%TO.N,BQ{slash}ALERT*%
X97639513Y-66400000D02*
X98040346Y-66800833D01*
X98040346Y-66800833D02*
X98040346Y-76419000D01*
X96930000Y-79570000D02*
X97610000Y-80250000D01*
X99021455Y-84168400D02*
X101618400Y-84168400D01*
X96930000Y-77529346D02*
X96930000Y-79570000D01*
X96160000Y-61261473D02*
X97301000Y-62402473D01*
X97610000Y-80250000D02*
X97610000Y-82756945D01*
X95913679Y-61344415D02*
X95996621Y-61261473D01*
X101618400Y-84168400D02*
X102700000Y-85250000D01*
X97610000Y-82756945D02*
X99021455Y-84168400D01*
X98040346Y-76419000D02*
X96930000Y-77529346D01*
X95996621Y-61261473D02*
X96160000Y-61261473D01*
%TO.N,USB-C{slash}HUSB238A{slash}EN#*%
X31916400Y-80311443D02*
X31916400Y-79336443D01*
X108280200Y-77038200D02*
X109551000Y-78309000D01*
X32141400Y-84811443D02*
X32141400Y-80536443D01*
X32493457Y-85163500D02*
X32141400Y-84811443D01*
X32829000Y-46165917D02*
X33026000Y-45968917D01*
X32441400Y-78811443D02*
X32441400Y-75388557D01*
X32141400Y-80536443D02*
X31916400Y-80311443D01*
X109551000Y-78309000D02*
X109551000Y-84726429D01*
X33026000Y-34706000D02*
X32740000Y-34420000D01*
X32441400Y-75388557D02*
X32829000Y-75000957D01*
X109551000Y-84726429D02*
X104701429Y-89576000D01*
X32991343Y-85163500D02*
X32493457Y-85163500D01*
X33026000Y-45968917D02*
X33026000Y-34706000D01*
X32829000Y-75000957D02*
X32829000Y-46165917D01*
X37403843Y-89576000D02*
X32991343Y-85163500D01*
X104701429Y-89576000D02*
X37403843Y-89576000D01*
X31916400Y-79336443D02*
X32441400Y-78811443D01*
%TO.N,Power{slash}5V-Buck{slash}PGOOD*%
X39100346Y-27189000D02*
X39809654Y-27189000D01*
X41029000Y-25969654D02*
X41029000Y-24041654D01*
X73603934Y-18847000D02*
X74975334Y-20218400D01*
X39400001Y-31764235D02*
X38719000Y-31083234D01*
X42559213Y-23701000D02*
X45362419Y-20897793D01*
X103422546Y-20218400D02*
X116423950Y-33219804D01*
X74975334Y-20218400D02*
X103422546Y-20218400D01*
X41029000Y-24041654D02*
X41369654Y-23701000D01*
X38719000Y-31083234D02*
X38719000Y-27570346D01*
X116423950Y-33219804D02*
X116931133Y-33219804D01*
X39809654Y-27189000D02*
X41029000Y-25969654D01*
X38719000Y-27570346D02*
X39100346Y-27189000D01*
X53759000Y-19330346D02*
X54242346Y-18847000D01*
X54242346Y-18847000D02*
X73603934Y-18847000D01*
X52711407Y-20897793D02*
X53759000Y-19850200D01*
X45362419Y-20897793D02*
X52711407Y-20897793D01*
X53759000Y-19850200D02*
X53759000Y-19330346D01*
X41369654Y-23701000D02*
X42559213Y-23701000D01*
%TO.N,USB-C{slash}I2C{slash}EN*%
X103997000Y-80285027D02*
X103997000Y-77555946D01*
X104917654Y-77174600D02*
X105368254Y-76724000D01*
X57655363Y-88567900D02*
X58047263Y-88176000D01*
X33937000Y-69708760D02*
X33937000Y-78543000D01*
X58047263Y-88176000D02*
X100694654Y-88176000D01*
X37671000Y-60656760D02*
X36996760Y-61331000D01*
X104042773Y-80330800D02*
X103997000Y-80285027D01*
X33343400Y-81973399D02*
X33343400Y-84571153D01*
X33416400Y-79063600D02*
X33416400Y-80311443D01*
X35369000Y-62243240D02*
X35369000Y-68276760D01*
X33416400Y-80311443D02*
X33493400Y-80388443D01*
X103997000Y-77555946D02*
X104378346Y-77174600D01*
X104378346Y-77174600D02*
X104917654Y-77174600D01*
X36996760Y-61331000D02*
X36281240Y-61331000D01*
X109148654Y-73848654D02*
X107600000Y-72300000D01*
X100694654Y-88176000D02*
X104702254Y-84168400D01*
X33937000Y-78543000D02*
X33416400Y-79063600D01*
X109148654Y-73890000D02*
X109148654Y-73848654D01*
X107079045Y-84168400D02*
X108176244Y-83071201D01*
X37671000Y-58721000D02*
X37671000Y-60656760D01*
X33343400Y-84571153D02*
X37340147Y-88567900D01*
X105368254Y-76724000D02*
X106314654Y-76724000D01*
X36281240Y-61331000D02*
X35369000Y-62243240D01*
X104702254Y-84168400D02*
X107079045Y-84168400D01*
X33493400Y-81823399D02*
X33343400Y-81973399D01*
X35369000Y-68276760D02*
X33937000Y-69708760D01*
X38780000Y-58210000D02*
X38182000Y-58210000D01*
X37340147Y-88567900D02*
X57655363Y-88567900D01*
X108176244Y-83071201D02*
X108176244Y-80907631D01*
X106314654Y-76724000D02*
X109148654Y-73890000D01*
X33493400Y-80388443D02*
X33493400Y-81823399D01*
X107599413Y-80330800D02*
X104042773Y-80330800D01*
X38182000Y-58210000D02*
X37671000Y-58721000D01*
X108176244Y-80907631D02*
X107599413Y-80330800D01*
D39*
%TO.N,Servo{slash}TPS{slash}EN*%
X33809000Y-84398943D02*
X34161057Y-84751000D01*
X40545765Y-32365235D02*
X35734765Y-32365235D01*
X41149585Y-31761415D02*
X40545765Y-32365235D01*
X36600943Y-55181000D02*
X36938943Y-55519000D01*
X36938943Y-55519000D02*
X36976050Y-55519000D01*
X41151000Y-31761415D02*
X41149585Y-31761415D01*
X33809000Y-83196168D02*
X33809000Y-84398943D01*
X34161057Y-84751000D02*
X34658943Y-84751000D01*
X35374000Y-54491050D02*
X36063950Y-55181000D01*
X38910000Y-80499943D02*
X38910000Y-79500000D01*
X36063950Y-55181000D02*
X36600943Y-55181000D01*
X35658556Y-81346612D02*
X33809000Y-83196168D01*
X41444200Y-64927457D02*
X41444200Y-70766800D01*
X35658556Y-76552444D02*
X35658556Y-81346612D01*
X37621000Y-56201057D02*
X39818600Y-58398657D01*
X37621000Y-56163950D02*
X37621000Y-56201057D01*
X39818600Y-63301857D02*
X41444200Y-64927457D01*
X35734765Y-32365235D02*
X35374000Y-32726000D01*
X36976050Y-55519000D02*
X37621000Y-56163950D01*
X41444200Y-70766800D02*
X35658556Y-76552444D01*
X34658943Y-84751000D02*
X38910000Y-80499943D01*
X35374000Y-32726000D02*
X35374000Y-54491050D01*
X39818600Y-58398657D02*
X39818600Y-63301857D01*
%TO.N,Servo{slash}TPS{slash}PGOOD*%
X44761321Y-26764385D02*
X45259207Y-26764385D01*
X40250000Y-33510943D02*
X41752000Y-32008943D01*
X38200000Y-45479785D02*
X40250000Y-43429785D01*
X41845200Y-70932900D02*
X41845200Y-59858157D01*
X40902057Y-31057000D02*
X41100000Y-30859057D01*
X36059556Y-81794141D02*
X36059556Y-76976612D01*
X40902057Y-31159000D02*
X40902057Y-31057000D01*
X41845200Y-59858157D02*
X38200000Y-56212957D01*
X40250000Y-43429785D02*
X40250000Y-33510943D01*
X41100000Y-29260585D02*
X42651585Y-27709000D01*
X42651585Y-27709000D02*
X43816706Y-27709000D01*
X45259207Y-26764385D02*
X47999998Y-29505176D01*
X36025000Y-81828697D02*
X36059556Y-81794141D01*
X41752000Y-32008943D02*
X41752000Y-31511057D01*
X43816706Y-27709000D02*
X44761321Y-26764385D01*
X41100000Y-30859057D02*
X41100000Y-29260585D01*
X38350000Y-74686168D02*
X38350000Y-74428100D01*
X41752000Y-31511057D02*
X41399943Y-31159000D01*
X47999998Y-29505176D02*
X47999998Y-30298060D01*
X38350000Y-74428100D02*
X41845200Y-70932900D01*
X38200000Y-56212957D02*
X38200000Y-45479785D01*
X36059556Y-76976612D02*
X38350000Y-74686168D01*
X41399943Y-31159000D02*
X40902057Y-31159000D01*
%TO.N,eFuse{slash}TPS16630{slash}FAULT*%
X84198000Y-31947943D02*
X86823000Y-31947943D01*
X63618943Y-21250000D02*
X64768943Y-20100000D01*
X109016640Y-54141583D02*
X109016640Y-56420366D01*
X109016640Y-56420366D02*
X109478057Y-56881783D01*
X86823000Y-31947943D02*
X109016640Y-54141583D01*
X69215119Y-20100000D02*
X73676919Y-24561800D01*
X60651000Y-21250000D02*
X63618943Y-21250000D01*
X112491744Y-55722375D02*
X112491744Y-55741088D01*
X64768943Y-20100000D02*
X69215119Y-20100000D01*
X110498274Y-56881783D02*
X111711057Y-55669000D01*
X82099000Y-29409000D02*
X82099000Y-29848943D01*
X60650000Y-21249000D02*
X60651000Y-21250000D01*
X77251800Y-24561800D02*
X82099000Y-29409000D01*
X82099000Y-29848943D02*
X84198000Y-31947943D01*
X73676919Y-24561800D02*
X77251800Y-24561800D01*
X109478057Y-56881783D02*
X110498274Y-56881783D01*
X111711057Y-55669000D02*
X112438369Y-55669000D01*
X112438369Y-55669000D02*
X112491744Y-55722375D01*
%TO.N,eFuse{slash}TPS16630{slash}SHDN*%
X59169000Y-20649000D02*
X58720000Y-20200000D01*
X92875000Y-31919476D02*
X92522943Y-31567419D01*
X62401057Y-19699000D02*
X61451057Y-20649000D01*
X92875000Y-32695000D02*
X92875000Y-31919476D01*
X88812857Y-31567419D02*
X87594994Y-30349556D01*
X109728000Y-56281783D02*
X109417640Y-55971423D01*
X87594994Y-29783652D02*
X85460342Y-27649000D01*
X109417640Y-49516272D02*
X102453875Y-42552507D01*
X109417640Y-55971423D02*
X109417640Y-49516272D01*
X102453875Y-42552507D02*
X102453875Y-42273875D01*
X102453875Y-42273875D02*
X92875000Y-32695000D01*
X87594994Y-30349556D02*
X87594994Y-29783652D01*
X61451057Y-20649000D02*
X59169000Y-20649000D01*
X73251024Y-19699000D02*
X62401057Y-19699000D01*
X92522943Y-31567419D02*
X88812857Y-31567419D01*
X85460342Y-27649000D02*
X81201024Y-27649000D01*
X81201024Y-27649000D02*
X73251024Y-19699000D01*
%TO.N,eFuse{slash}TPS16630{slash}IMON*%
X108466640Y-55668992D02*
X99799008Y-55668992D01*
X99799008Y-55668992D02*
X97556000Y-57912000D01*
%TO.N,Charger{slash}CN3072{slash}CHG-DONE*%
X78635643Y-38723047D02*
X82965000Y-43052404D01*
X47266049Y-26052500D02*
X52622549Y-31409000D01*
X95707957Y-59250000D02*
X99628957Y-63171000D01*
X82965000Y-49534568D02*
X85570000Y-52139568D01*
X60881000Y-32391000D02*
X61356000Y-32866000D01*
X85570000Y-52139568D02*
X85570000Y-57951270D01*
X90142713Y-62523983D02*
X91027201Y-62523983D01*
X52622549Y-31409000D02*
X53078943Y-31409000D01*
X101471000Y-63171000D02*
X113000000Y-74700000D01*
X99628957Y-63171000D02*
X101471000Y-63171000D01*
X91027201Y-62523983D02*
X94301184Y-59250000D01*
X72842474Y-32866000D02*
X78635643Y-38659169D01*
X78635643Y-38659169D02*
X78635643Y-38723047D01*
X61356000Y-32866000D02*
X72842474Y-32866000D01*
X54060943Y-32391000D02*
X60881000Y-32391000D01*
X82965000Y-43052404D02*
X82965000Y-49534568D01*
X85570000Y-57951270D02*
X90142713Y-62523983D01*
X53078943Y-31409000D02*
X54060943Y-32391000D01*
X46068127Y-26052500D02*
X47266049Y-26052500D01*
X94301184Y-59250000D02*
X95707957Y-59250000D01*
%TO.N,Charger{slash}CN3072{slash}CHG-ACTIVE*%
X86614943Y-65170000D02*
X87884943Y-63900000D01*
X45010264Y-27365385D02*
X44727421Y-27365385D01*
X83131661Y-62200958D02*
X83131661Y-62418118D01*
X87884943Y-63900000D02*
X97499943Y-63900000D01*
X44727421Y-27365385D02*
X42016685Y-30076121D01*
X84020000Y-65170000D02*
X86614943Y-65170000D01*
X83131661Y-62418118D02*
X83560000Y-62846457D01*
X97499943Y-63900000D02*
X97739943Y-63660000D01*
X97739943Y-63660000D02*
X101110057Y-63660000D01*
X101110057Y-63660000D02*
X110225000Y-72774943D01*
X83560000Y-64710000D02*
X84020000Y-65170000D01*
X45050000Y-32000000D02*
X45050000Y-57050000D01*
X42016685Y-30965158D02*
X43051527Y-32000000D01*
X83560000Y-62846457D02*
X83560000Y-64710000D01*
X42016685Y-30076121D02*
X42016685Y-30965158D01*
X77216000Y-64008000D02*
X80509400Y-60714600D01*
X43051527Y-32000000D02*
X45050000Y-32000000D01*
X52008000Y-64008000D02*
X77216000Y-64008000D01*
X110225000Y-72774943D02*
X110225000Y-88450000D01*
X80509400Y-60714600D02*
X81645303Y-60714600D01*
X81645303Y-60714600D02*
X83131661Y-62200958D01*
X45050000Y-57050000D02*
X52008000Y-64008000D01*
D40*
%TO.N,Charger{slash}CN3722{slash}EN#*%
X92601000Y-29761400D02*
X92601000Y-30419654D01*
X115051000Y-47623958D02*
X115051000Y-59583654D01*
X124433400Y-62051000D02*
X125120400Y-62738000D01*
X92601000Y-30419654D02*
X98018536Y-35837190D01*
X115051000Y-59583654D02*
X116570346Y-61103000D01*
X99556671Y-35259725D02*
X102686767Y-35259725D01*
X98018536Y-35837190D02*
X98979206Y-35837190D01*
X116570346Y-61103000D02*
X117109654Y-61103000D01*
X118057654Y-62051000D02*
X124433400Y-62051000D01*
X102686767Y-35259725D02*
X115051000Y-47623958D01*
X98979206Y-35837190D02*
X99556671Y-35259725D01*
X84886800Y-21640800D02*
X84886800Y-22047200D01*
X117109654Y-61103000D02*
X118057654Y-62051000D01*
X84886800Y-22047200D02*
X92601000Y-29761400D01*
D41*
%TO.N,CHARGE_DIRECT*%
X125126000Y-45046000D02*
X125514000Y-45434000D01*
X122743364Y-37170000D02*
X124508796Y-37170000D01*
X133549000Y-56382636D02*
X133549000Y-65829000D01*
X125514000Y-48347636D02*
X133549000Y-56382636D01*
X122326400Y-37586964D02*
X122743364Y-37170000D01*
X122059690Y-38260471D02*
X122326400Y-37993761D01*
X122326400Y-37993761D02*
X122326400Y-37586964D01*
X133549000Y-65829000D02*
X133118000Y-66260000D01*
X125514000Y-45434000D02*
X125514000Y-48347636D01*
X125126000Y-37787204D02*
X125126000Y-45046000D01*
X133118000Y-66260000D02*
X131690000Y-66260000D01*
X124508796Y-37170000D02*
X125126000Y-37787204D01*
D40*
%TO.N,BQ{slash}ALERT{slash}LED*%
X41700000Y-49650000D02*
X41700000Y-54337810D01*
X95048000Y-87652000D02*
X96950000Y-85750000D01*
X38800000Y-46750000D02*
X41700000Y-49650000D01*
X42700000Y-55337810D02*
X42700000Y-65149346D01*
X41700000Y-54337810D02*
X42700000Y-55337810D01*
X42700000Y-65149346D02*
X51701654Y-74151000D01*
X57694263Y-70477000D02*
X74326943Y-70477000D01*
X82292189Y-78442246D02*
X82292189Y-81496535D01*
X88447654Y-87652000D02*
X95048000Y-87652000D01*
X38800000Y-46750000D02*
X38850000Y-46800000D01*
X54020263Y-74151000D02*
X57694263Y-70477000D01*
X82292189Y-81496535D02*
X88447654Y-87652000D01*
X74326943Y-70477000D02*
X82292189Y-78442246D01*
X51701654Y-74151000D02*
X54020263Y-74151000D01*
%TO.N,Net-(D25-Pad1)*%
X93700000Y-65939000D02*
X93980000Y-65659000D01*
X77470000Y-64897000D02*
X82709000Y-70136000D01*
X82709000Y-70136000D02*
X86572480Y-70136000D01*
X94721000Y-69279654D02*
X94721000Y-68740346D01*
X94721000Y-68740346D02*
X93700000Y-67719346D01*
X93980000Y-64860000D02*
X93700000Y-64580000D01*
X92900542Y-71100112D02*
X94721000Y-69279654D01*
X93700000Y-67719346D02*
X93700000Y-65939000D01*
X93980000Y-65659000D02*
X93980000Y-64860000D01*
X61849000Y-64897000D02*
X77470000Y-64897000D01*
X86572480Y-70136000D02*
X87536592Y-71100112D01*
X87536592Y-71100112D02*
X92900542Y-71100112D01*
%TO.N,Net-(D23-C)*%
X49647330Y-69848822D02*
X49658178Y-69848822D01*
X62969654Y-65599000D02*
X63020654Y-65650000D01*
X50527000Y-68980000D02*
X52178000Y-68980000D01*
X49316152Y-70180000D02*
X49647330Y-69848822D01*
X55559000Y-65599000D02*
X62969654Y-65599000D01*
X63020654Y-65650000D02*
X72180000Y-65650000D01*
X52178000Y-68980000D02*
X55559000Y-65599000D01*
X49658178Y-69848822D02*
X50527000Y-68980000D01*
D39*
%TO.N,CHARGING-IC{slash}OPEN-DRAIN-DIGIPOT-#EN*%
X53860000Y-30110000D02*
X52537057Y-30110000D01*
X44949000Y-23224643D02*
X45922850Y-22250793D01*
X59134943Y-28460000D02*
X63198257Y-28460000D01*
X71612557Y-28230000D02*
X71989757Y-28607200D01*
X45922850Y-22250793D02*
X52925736Y-22250793D01*
X46503057Y-24076000D02*
X45301057Y-24076000D01*
X78848051Y-32348943D02*
X85148886Y-32348943D01*
X63389257Y-28651000D02*
X66782143Y-28651000D01*
X75106308Y-28607200D02*
X78848051Y-32348943D01*
X96956000Y-52096768D02*
X96956000Y-59930943D01*
X52925736Y-22250793D02*
X59134943Y-28460000D01*
X100601000Y-48451768D02*
X96956000Y-52096768D01*
X71989757Y-28607200D02*
X75106308Y-28607200D01*
X66782143Y-28651000D02*
X67203143Y-28230000D01*
X100601000Y-47801057D02*
X100601000Y-48451768D01*
X96956000Y-59930943D02*
X99795057Y-62770000D01*
X85148886Y-32348943D02*
X100601000Y-47801057D01*
X45301057Y-24076000D02*
X44949000Y-23723943D01*
X63198257Y-28460000D02*
X63389257Y-28651000D01*
X52537057Y-30110000D02*
X46503057Y-24076000D01*
X67203143Y-28230000D02*
X71612557Y-28230000D01*
X44949000Y-23723943D02*
X44949000Y-23224643D01*
X99795057Y-62770000D02*
X102030000Y-62770000D01*
%TD*%
M02*
