%TF.GenerationSoftware,KiCad,Pcbnew,9.0.7*%
%TF.CreationDate,2026-02-16T20:04:55+01:00*%
%TF.ProjectId,svea_powerboard_rev3,73766561-5f70-46f7-9765-72626f617264,rev?*%
%TF.SameCoordinates,Original*%
%TF.FileFunction,Copper,L1,Top*%
%TF.FilePolarity,Positive*%
%FSLAX46Y46*%
G04 Gerber Fmt 4.6, Leading zero omitted, Abs format (unit mm)*
G04 Created by KiCad (PCBNEW 9.0.7) date 2026-02-16 20:04:55*
%MOMM*%
%LPD*%
G01*
G04 APERTURE LIST*
G04 Aperture macros list*
%AMRoundRect*
0 Rectangle with rounded corners*
0 $1 Rounding radius*
0 $2 $3 $4 $5 $6 $7 $8 $9 X,Y pos of 4 corners*
0 Add a 4 corners polygon primitive as box body*
4,1,4,$2,$3,$4,$5,$6,$7,$8,$9,$2,$3,0*
0 Add four circle primitives for the rounded corners*
1,1,$1+$1,$2,$3*
1,1,$1+$1,$4,$5*
1,1,$1+$1,$6,$7*
1,1,$1+$1,$8,$9*
0 Add four rect primitives between the rounded corners*
20,1,$1+$1,$2,$3,$4,$5,0*
20,1,$1+$1,$4,$5,$6,$7,0*
20,1,$1+$1,$6,$7,$8,$9,0*
20,1,$1+$1,$8,$9,$2,$3,0*%
%AMFreePoly0*
4,1,29,4.005000,-1.405000,3.205000,-1.405000,3.205000,0.595000,2.805000,0.595000,2.805000,-1.405000,2.005000,-1.405000,2.005000,0.595000,1.605000,0.595000,1.605000,-1.405000,0.805000,-1.405000,0.805000,0.595000,0.405000,0.595000,0.405000,-1.405000,-0.395000,-1.405000,-0.395000,0.595000,-0.795000,0.595000,-0.795000,-1.405000,-1.595000,-1.405000,-1.595000,0.595000,-1.995000,0.595000,
-1.995000,-1.405000,-2.795000,-1.405000,-2.795000,0.595000,-3.195000,0.595000,-3.195000,-1.405000,-4.005000,-1.415000,-4.005000,1.405000,4.005000,1.405000,4.005000,-1.405000,4.005000,-1.405000,$1*%
%AMFreePoly1*
4,1,13,5.050000,2.600000,4.150000,2.600000,4.150000,-0.300000,4.850000,-0.300000,4.850000,-4.000000,-4.850000,-4.000000,-4.850000,-0.300000,-4.150000,-0.300000,-4.150000,2.600000,-5.050000,2.600000,-5.050000,4.000000,5.050000,4.000000,5.050000,2.600000,5.050000,2.600000,$1*%
G04 Aperture macros list end*
%TA.AperFunction,EtchedComponent*%
%ADD10C,0.000000*%
%TD*%
%TA.AperFunction,ComponentPad*%
%ADD11C,2.300000*%
%TD*%
%TA.AperFunction,SMDPad,CuDef*%
%ADD12R,0.250000X0.305000*%
%TD*%
%TA.AperFunction,SMDPad,CuDef*%
%ADD13R,1.000000X1.500000*%
%TD*%
%TA.AperFunction,ComponentPad*%
%ADD14O,1.200000X2.000000*%
%TD*%
%TA.AperFunction,ComponentPad*%
%ADD15O,1.200000X1.800000*%
%TD*%
%TA.AperFunction,SMDPad,CuDef*%
%ADD16R,0.300000X1.300000*%
%TD*%
%TA.AperFunction,SMDPad,CuDef*%
%ADD17R,0.550000X1.100000*%
%TD*%
%TA.AperFunction,SMDPad,CuDef*%
%ADD18R,0.300000X1.100000*%
%TD*%
%TA.AperFunction,ComponentPad*%
%ADD19O,1.100000X2.000000*%
%TD*%
%TA.AperFunction,SMDPad,CuDef*%
%ADD20R,0.505000X0.280000*%
%TD*%
%TA.AperFunction,SMDPad,CuDef*%
%ADD21R,0.900000X1.700000*%
%TD*%
%TA.AperFunction,SMDPad,CuDef*%
%ADD22RoundRect,0.150000X-0.512500X-0.150000X0.512500X-0.150000X0.512500X0.150000X-0.512500X0.150000X0*%
%TD*%
%TA.AperFunction,ComponentPad*%
%ADD23R,2.600000X2.600000*%
%TD*%
%TA.AperFunction,ComponentPad*%
%ADD24C,2.600000*%
%TD*%
%TA.AperFunction,SMDPad,CuDef*%
%ADD25RoundRect,0.100000X-0.562500X-0.100000X0.562500X-0.100000X0.562500X0.100000X-0.562500X0.100000X0*%
%TD*%
%TA.AperFunction,SMDPad,CuDef*%
%ADD26R,1.500000X1.000000*%
%TD*%
%TA.AperFunction,SMDPad,CuDef*%
%ADD27RoundRect,0.062500X-0.350000X-0.062500X0.350000X-0.062500X0.350000X0.062500X-0.350000X0.062500X0*%
%TD*%
%TA.AperFunction,SMDPad,CuDef*%
%ADD28RoundRect,0.062500X-0.062500X-0.350000X0.062500X-0.350000X0.062500X0.350000X-0.062500X0.350000X0*%
%TD*%
%TA.AperFunction,HeatsinkPad*%
%ADD29R,1.700000X1.700000*%
%TD*%
%TA.AperFunction,ComponentPad*%
%ADD30C,1.600000*%
%TD*%
%TA.AperFunction,SMDPad,CuDef*%
%ADD31RoundRect,0.087500X-0.725000X-0.087500X0.725000X-0.087500X0.725000X0.087500X-0.725000X0.087500X0*%
%TD*%
%TA.AperFunction,SMDPad,CuDef*%
%ADD32R,1.400000X0.900000*%
%TD*%
%TA.AperFunction,SMDPad,CuDef*%
%ADD33R,1.200000X0.250000*%
%TD*%
%TA.AperFunction,SMDPad,CuDef*%
%ADD34R,3.300000X1.000000*%
%TD*%
%TA.AperFunction,SMDPad,CuDef*%
%ADD35R,3.500000X1.200000*%
%TD*%
%TA.AperFunction,SMDPad,CuDef*%
%ADD36R,1.300000X0.420000*%
%TD*%
%TA.AperFunction,SMDPad,CuDef*%
%ADD37R,1.300000X0.300000*%
%TD*%
%TA.AperFunction,SMDPad,CuDef*%
%ADD38R,1.600000X2.100000*%
%TD*%
%TA.AperFunction,SMDPad,CuDef*%
%ADD39R,0.300000X0.950000*%
%TD*%
%TA.AperFunction,SMDPad,CuDef*%
%ADD40R,0.330000X1.700000*%
%TD*%
%TA.AperFunction,SMDPad,CuDef*%
%ADD41O,0.280000X0.785000*%
%TD*%
%TA.AperFunction,SMDPad,CuDef*%
%ADD42O,0.785000X0.280000*%
%TD*%
%TA.AperFunction,SMDPad,CuDef*%
%ADD43R,3.000000X3.000000*%
%TD*%
%TA.AperFunction,SMDPad,CuDef*%
%ADD44RoundRect,0.100000X-0.637500X-0.100000X0.637500X-0.100000X0.637500X0.100000X-0.637500X0.100000X0*%
%TD*%
%TA.AperFunction,SMDPad,CuDef*%
%ADD45R,0.280000X0.700000*%
%TD*%
%TA.AperFunction,SMDPad,CuDef*%
%ADD46R,0.700000X0.280000*%
%TD*%
%TA.AperFunction,SMDPad,CuDef*%
%ADD47R,2.800000X2.800000*%
%TD*%
%TA.AperFunction,SMDPad,CuDef*%
%ADD48C,0.550000*%
%TD*%
%TA.AperFunction,SMDPad,CuDef*%
%ADD49RoundRect,0.075000X-0.662500X-0.075000X0.662500X-0.075000X0.662500X0.075000X-0.662500X0.075000X0*%
%TD*%
%TA.AperFunction,SMDPad,CuDef*%
%ADD50RoundRect,0.075000X-0.075000X-0.662500X0.075000X-0.662500X0.075000X0.662500X-0.075000X0.662500X0*%
%TD*%
%TA.AperFunction,SMDPad,CuDef*%
%ADD51R,3.060000X1.000000*%
%TD*%
%TA.AperFunction,ComponentPad*%
%ADD52R,1.800000X1.800000*%
%TD*%
%TA.AperFunction,ComponentPad*%
%ADD53C,1.800000*%
%TD*%
%TA.AperFunction,SMDPad,CuDef*%
%ADD54RoundRect,0.250000X-0.312500X-0.625000X0.312500X-0.625000X0.312500X0.625000X-0.312500X0.625000X0*%
%TD*%
%TA.AperFunction,ComponentPad*%
%ADD55C,1.524000*%
%TD*%
%TA.AperFunction,SMDPad,CuDef*%
%ADD56R,1.700000X1.200000*%
%TD*%
%TA.AperFunction,SMDPad,CuDef*%
%ADD57R,0.762000X1.500000*%
%TD*%
%TA.AperFunction,SMDPad,CuDef*%
%ADD58R,0.650000X0.800000*%
%TD*%
%TA.AperFunction,SMDPad,CuDef*%
%ADD59R,0.500000X0.800000*%
%TD*%
%TA.AperFunction,SMDPad,CuDef*%
%ADD60RoundRect,0.200000X-0.200000X-0.275000X0.200000X-0.275000X0.200000X0.275000X-0.200000X0.275000X0*%
%TD*%
%TA.AperFunction,SMDPad,CuDef*%
%ADD61RoundRect,0.250000X-0.362500X-1.425000X0.362500X-1.425000X0.362500X1.425000X-0.362500X1.425000X0*%
%TD*%
%TA.AperFunction,SMDPad,CuDef*%
%ADD62RoundRect,0.100000X-0.130000X-0.100000X0.130000X-0.100000X0.130000X0.100000X-0.130000X0.100000X0*%
%TD*%
%TA.AperFunction,SMDPad,CuDef*%
%ADD63RoundRect,0.135000X-0.135000X-0.185000X0.135000X-0.185000X0.135000X0.185000X-0.135000X0.185000X0*%
%TD*%
%TA.AperFunction,SMDPad,CuDef*%
%ADD64R,3.500000X5.200000*%
%TD*%
%TA.AperFunction,SMDPad,CuDef*%
%ADD65RoundRect,0.250000X-0.262500X-0.450000X0.262500X-0.450000X0.262500X0.450000X-0.262500X0.450000X0*%
%TD*%
%TA.AperFunction,SMDPad,CuDef*%
%ADD66RoundRect,0.150000X-0.587500X-0.150000X0.587500X-0.150000X0.587500X0.150000X-0.587500X0.150000X0*%
%TD*%
%TA.AperFunction,SMDPad,CuDef*%
%ADD67R,0.580000X1.200000*%
%TD*%
%TA.AperFunction,SMDPad,CuDef*%
%ADD68R,4.400000X3.800000*%
%TD*%
%TA.AperFunction,SMDPad,CuDef*%
%ADD69RoundRect,0.250000X-0.850000X-0.350000X0.850000X-0.350000X0.850000X0.350000X-0.850000X0.350000X0*%
%TD*%
%TA.AperFunction,SMDPad,CuDef*%
%ADD70RoundRect,0.249997X-2.950003X-2.650003X2.950003X-2.650003X2.950003X2.650003X-2.950003X2.650003X0*%
%TD*%
%TA.AperFunction,SMDPad,CuDef*%
%ADD71RoundRect,0.375000X-0.625000X-0.375000X0.625000X-0.375000X0.625000X0.375000X-0.625000X0.375000X0*%
%TD*%
%TA.AperFunction,SMDPad,CuDef*%
%ADD72RoundRect,0.500000X-0.500000X-1.400000X0.500000X-1.400000X0.500000X1.400000X-0.500000X1.400000X0*%
%TD*%
%TA.AperFunction,SMDPad,CuDef*%
%ADD73R,0.800000X2.800000*%
%TD*%
%TA.AperFunction,SMDPad,CuDef*%
%ADD74FreePoly0,0.000000*%
%TD*%
%TA.AperFunction,SMDPad,CuDef*%
%ADD75FreePoly1,0.000000*%
%TD*%
%TA.AperFunction,SMDPad,CuDef*%
%ADD76RoundRect,0.150000X-0.825000X-0.150000X0.825000X-0.150000X0.825000X0.150000X-0.825000X0.150000X0*%
%TD*%
%TA.AperFunction,SMDPad,CuDef*%
%ADD77RoundRect,0.218750X-0.218750X-0.256250X0.218750X-0.256250X0.218750X0.256250X-0.218750X0.256250X0*%
%TD*%
%TA.AperFunction,SMDPad,CuDef*%
%ADD78R,2.000000X3.400000*%
%TD*%
%TA.AperFunction,ComponentPad*%
%ADD79R,2.000000X2.000000*%
%TD*%
%TA.AperFunction,ComponentPad*%
%ADD80C,2.000000*%
%TD*%
%TA.AperFunction,ComponentPad*%
%ADD81R,1.600000X1.600000*%
%TD*%
%TA.AperFunction,SMDPad,CuDef*%
%ADD82R,1.190000X1.728000*%
%TD*%
%TA.AperFunction,ComponentPad*%
%ADD83C,3.500000*%
%TD*%
%TA.AperFunction,ComponentPad*%
%ADD84O,2.000000X4.600000*%
%TD*%
%TA.AperFunction,ComponentPad*%
%ADD85O,4.600000X2.000000*%
%TD*%
%TA.AperFunction,SMDPad,CuDef*%
%ADD86R,0.200000X0.565000*%
%TD*%
%TA.AperFunction,SMDPad,CuDef*%
%ADD87R,0.400000X0.565000*%
%TD*%
%TA.AperFunction,SMDPad,CuDef*%
%ADD88R,0.500000X0.600000*%
%TD*%
%TA.AperFunction,SMDPad,CuDef*%
%ADD89R,1.400000X1.400000*%
%TD*%
%TA.AperFunction,SMDPad,CuDef*%
%ADD90R,4.900000X3.400000*%
%TD*%
%TA.AperFunction,SMDPad,CuDef*%
%ADD91R,3.430000X1.780000*%
%TD*%
%TA.AperFunction,ComponentPad*%
%ADD92C,1.700000*%
%TD*%
%TA.AperFunction,SMDPad,CuDef*%
%ADD93RoundRect,0.225000X-0.225000X-0.250000X0.225000X-0.250000X0.225000X0.250000X-0.225000X0.250000X0*%
%TD*%
%TA.AperFunction,SMDPad,CuDef*%
%ADD94RoundRect,0.250000X-0.250000X-0.475000X0.250000X-0.475000X0.250000X0.475000X-0.250000X0.475000X0*%
%TD*%
%TA.AperFunction,SMDPad,CuDef*%
%ADD95R,4.800000X1.800000*%
%TD*%
%TA.AperFunction,SMDPad,CuDef*%
%ADD96RoundRect,0.250000X-0.325000X-1.100000X0.325000X-1.100000X0.325000X1.100000X-0.325000X1.100000X0*%
%TD*%
%TA.AperFunction,SMDPad,CuDef*%
%ADD97RoundRect,0.140000X-0.140000X-0.170000X0.140000X-0.170000X0.140000X0.170000X-0.140000X0.170000X0*%
%TD*%
%TA.AperFunction,SMDPad,CuDef*%
%ADD98R,2.700000X0.910000*%
%TD*%
%TA.AperFunction,SMDPad,CuDef*%
%ADD99RoundRect,0.250000X-0.325000X-0.650000X0.325000X-0.650000X0.325000X0.650000X-0.325000X0.650000X0*%
%TD*%
%TA.AperFunction,SMDPad,CuDef*%
%ADD100R,2.185000X2.592000*%
%TD*%
%TA.AperFunction,SMDPad,CuDef*%
%ADD101R,1.230000X1.860000*%
%TD*%
%TA.AperFunction,SMDPad,CuDef*%
%ADD102R,0.800000X0.800000*%
%TD*%
%TA.AperFunction,ComponentPad*%
%ADD103R,1.524000X1.500000*%
%TD*%
%TA.AperFunction,ComponentPad*%
%ADD104C,1.500000*%
%TD*%
%TA.AperFunction,SMDPad,CuDef*%
%ADD105R,0.550000X0.250000*%
%TD*%
%TA.AperFunction,SMDPad,CuDef*%
%ADD106R,0.250000X1.000000*%
%TD*%
%TA.AperFunction,SMDPad,CuDef*%
%ADD107R,0.250000X1.300000*%
%TD*%
%TA.AperFunction,SMDPad,CuDef*%
%ADD108R,0.250000X0.550000*%
%TD*%
%TA.AperFunction,ComponentPad*%
%ADD109C,3.800000*%
%TD*%
%TA.AperFunction,ComponentPad*%
%ADD110O,2.200000X1.200000*%
%TD*%
G04 APERTURE END LIST*
D10*
%TA.AperFunction,EtchedComponent*%
%TO.C,U213*%
G36*
X130035000Y-146725000D02*
G01*
X129535000Y-146725000D01*
X129535000Y-146125000D01*
X130035000Y-146125000D01*
X130035000Y-146725000D01*
G37*
%TD.AperFunction*%
%TA.AperFunction,EtchedComponent*%
%TO.C,U212*%
G36*
X130035000Y-143175000D02*
G01*
X129535000Y-143175000D01*
X129535000Y-142575000D01*
X130035000Y-142575000D01*
X130035000Y-143175000D01*
G37*
%TD.AperFunction*%
%TA.AperFunction,EtchedComponent*%
%TO.C,U179*%
G36*
X101665000Y-154915000D02*
G01*
X101165000Y-154915000D01*
X101165000Y-154315000D01*
X101665000Y-154315000D01*
X101665000Y-154915000D01*
G37*
%TD.AperFunction*%
%TA.AperFunction,EtchedComponent*%
%TO.C,U178*%
G36*
X101665000Y-151365000D02*
G01*
X101165000Y-151365000D01*
X101165000Y-150765000D01*
X101665000Y-150765000D01*
X101665000Y-151365000D01*
G37*
%TD.AperFunction*%
%TA.AperFunction,EtchedComponent*%
%TO.C,U174*%
G36*
X5585000Y-159635000D02*
G01*
X5085000Y-159635000D01*
X5085000Y-159035000D01*
X5585000Y-159035000D01*
X5585000Y-159635000D01*
G37*
%TD.AperFunction*%
%TA.AperFunction,EtchedComponent*%
%TO.C,U170*%
G36*
X111135000Y-95295000D02*
G01*
X110635000Y-95295000D01*
X110635000Y-94695000D01*
X111135000Y-94695000D01*
X111135000Y-95295000D01*
G37*
%TD.AperFunction*%
%TA.AperFunction,EtchedComponent*%
%TO.C,U159*%
G36*
X42735000Y-150635000D02*
G01*
X42235000Y-150635000D01*
X42235000Y-150035000D01*
X42735000Y-150035000D01*
X42735000Y-150635000D01*
G37*
%TD.AperFunction*%
%TA.AperFunction,EtchedComponent*%
%TO.C,U158*%
G36*
X42735000Y-147085000D02*
G01*
X42235000Y-147085000D01*
X42235000Y-146485000D01*
X42735000Y-146485000D01*
X42735000Y-147085000D01*
G37*
%TD.AperFunction*%
%TA.AperFunction,EtchedComponent*%
%TO.C,U144*%
G36*
X112025000Y-146725000D02*
G01*
X111525000Y-146725000D01*
X111525000Y-146125000D01*
X112025000Y-146125000D01*
X112025000Y-146725000D01*
G37*
%TD.AperFunction*%
%TA.AperFunction,EtchedComponent*%
%TO.C,U143*%
G36*
X112025000Y-143175000D02*
G01*
X111525000Y-143175000D01*
X111525000Y-142575000D01*
X112025000Y-142575000D01*
X112025000Y-143175000D01*
G37*
%TD.AperFunction*%
%TA.AperFunction,EtchedComponent*%
%TO.C,U139*%
G36*
X69235000Y-134475000D02*
G01*
X68735000Y-134475000D01*
X68735000Y-133875000D01*
X69235000Y-133875000D01*
X69235000Y-134475000D01*
G37*
%TD.AperFunction*%
%TA.AperFunction,EtchedComponent*%
%TO.C,U134*%
G36*
X69235000Y-130925000D02*
G01*
X68735000Y-130925000D01*
X68735000Y-130325000D01*
X69235000Y-130325000D01*
X69235000Y-130925000D01*
G37*
%TD.AperFunction*%
%TD*%
D11*
%TO.P,___-3V3+_______-5V0+_______-12V+_______-VCC+___1,1,1*%
%TO.N,VCC*%
X-3129567Y-66592500D03*
X-3129567Y-74212500D03*
%TO.P,___-3V3+_______-5V0+_______-12V+_______-VCC+___1,2,2*%
%TO.N,GND*%
X1950433Y-66592500D03*
X1950433Y-74212500D03*
%TO.P,___-3V3+_______-5V0+_______-12V+_______-VCC+___1,3,3*%
%TO.N,+12V*%
X7030433Y-66592500D03*
X7030433Y-74212500D03*
%TO.P,___-3V3+_______-5V0+_______-12V+_______-VCC+___1,4,4*%
%TO.N,GND*%
X12110433Y-66592500D03*
X12110433Y-74212500D03*
%TO.P,___-3V3+_______-5V0+_______-12V+_______-VCC+___1,5,5*%
%TO.N,+5V*%
X17190433Y-66592500D03*
X17190433Y-74212500D03*
%TO.P,___-3V3+_______-5V0+_______-12V+_______-VCC+___1,6,6*%
%TO.N,GND*%
X22270433Y-66592500D03*
X22270433Y-74212500D03*
%TO.P,___-3V3+_______-5V0+_______-12V+_______-VCC+___1,7,7*%
%TO.N,+3V3*%
X27350433Y-66592500D03*
X27350433Y-74212500D03*
%TO.P,___-3V3+_______-5V0+_______-12V+_______-VCC+___1,8,8*%
%TO.N,GND*%
X32430433Y-66592500D03*
X32430433Y-74212500D03*
%TD*%
D12*
%TO.P,VCC1,1,K*%
%TO.N,unconnected-(VCC1-K-Pad1)*%
X70330000Y-153909232D03*
%TO.P,VCC1,2,A*%
%TO.N,VCC*%
X70830000Y-153909232D03*
%TD*%
D13*
%TO.P,USBC_SDA1,2,B*%
%TO.N,Net-(U179-B)*%
X102065000Y-161715000D03*
%TO.P,USBC_SDA1,1,A*%
%TO.N,SDA_SLOW*%
X100765000Y-161715000D03*
%TD*%
%TO.P,USBC_SCL1,2,B*%
%TO.N,Net-(U178-B)*%
X102065000Y-158165000D03*
%TO.P,USBC_SCL1,1,A*%
%TO.N,SCL_SLOW*%
X100765000Y-158165000D03*
%TD*%
D14*
%TO.P,USBC1,0,SH*%
%TO.N,unconnected-(USBC1-SH-Pad0)*%
X81195000Y-151483000D03*
%TO.P,USBC1,1,SH*%
%TO.N,unconnected-(USBC1-SH-Pad1)*%
X89845000Y-151483000D03*
D15*
%TO.P,USBC1,2,SH*%
%TO.N,unconnected-(USBC1-SH-Pad2)*%
X89845000Y-155663000D03*
%TO.P,USBC1,3,SH*%
%TO.N,unconnected-(USBC1-SH-Pad3)*%
X81195000Y-155663000D03*
D16*
%TO.P,USBC1,A1,GND*%
%TO.N,GND*%
X82170000Y-150715000D03*
%TO.P,USBC1,A4,VBUS*%
%TO.N,Net-(D39-K)*%
X82970000Y-150715000D03*
%TO.P,USBC1,A5,CC1*%
%TO.N,Net-(D83-IO1)*%
X84270000Y-150715000D03*
%TO.P,USBC1,A6,DP1*%
%TO.N,Net-(D83-IO3)*%
X85270000Y-150715000D03*
%TO.P,USBC1,A7,DN1*%
%TO.N,Net-(D83-IO4)*%
X85770000Y-150715000D03*
%TO.P,USBC1,A8,SBU1*%
%TO.N,unconnected-(USBC1-SBU1-PadA8)*%
X86769500Y-150715000D03*
%TO.P,USBC1,A9,VBUS*%
%TO.N,Net-(D39-K)*%
X88070000Y-150715000D03*
%TO.P,USBC1,A12,GND*%
%TO.N,GND*%
X88870000Y-150715000D03*
%TO.P,USBC1,B1,GND*%
X88570000Y-150715000D03*
%TO.P,USBC1,B4,VBUS*%
%TO.N,Net-(D39-K)*%
X87770000Y-150715000D03*
%TO.P,USBC1,B5,CC2*%
%TO.N,Net-(D83-IO2)*%
X87270000Y-150715000D03*
%TO.P,USBC1,B6,DP2*%
%TO.N,Net-(D83-IO3)*%
X86270000Y-150715000D03*
%TO.P,USBC1,B7,DN2*%
%TO.N,Net-(D83-IO4)*%
X84770000Y-150715000D03*
%TO.P,USBC1,B8,SBU2*%
%TO.N,unconnected-(USBC1-SBU2-PadB8)*%
X83770000Y-150715000D03*
%TO.P,USBC1,B9,VBUS*%
%TO.N,Net-(D39-K)*%
X83270000Y-150715000D03*
%TO.P,USBC1,B12,GND*%
%TO.N,GND*%
X82470000Y-150715000D03*
%TD*%
D17*
%TO.P,USB1,1,GND*%
%TO.N,GND*%
X10000Y-131325000D03*
%TO.P,USB1,2,VBUS*%
%TO.N,+5V-USBC*%
X810000Y-131325000D03*
D18*
%TO.P,USB1,3,SBU2*%
%TO.N,unconnected-(USB1-SBU2-Pad3)*%
X1460000Y-131325000D03*
%TO.P,USB1,4,CC1*%
%TO.N,Net-(D82-IO3)*%
X1960000Y-131325000D03*
%TO.P,USB1,5,DN2*%
%TO.N,USB_N*%
X2460000Y-131325000D03*
%TO.P,USB1,6,DP1*%
%TO.N,USB_P*%
X2960000Y-131325000D03*
%TO.P,USB1,7,DN1*%
%TO.N,USB_N*%
X3460000Y-131325000D03*
%TO.P,USB1,8,DP2*%
%TO.N,USB_P*%
X3960000Y-131325000D03*
%TO.P,USB1,9,SBU1*%
%TO.N,unconnected-(USB1-SBU1-Pad9)*%
X4460000Y-131325000D03*
%TO.P,USB1,10,CC2*%
%TO.N,Net-(D82-IO4)*%
X4960000Y-131325000D03*
D17*
%TO.P,USB1,11,VBUS*%
%TO.N,+5V-USBC*%
X5610000Y-131325000D03*
%TO.P,USB1,12,GND*%
%TO.N,GND*%
X6410000Y-131325000D03*
D19*
%TO.P,USB1,13,SHELL*%
%TO.N,unconnected-(USB1-SHELL-Pad13)*%
X-1115000Y-131875000D03*
D15*
%TO.N,unconnected-(USB1-SHELL-Pad13)_1*%
X-1115000Y-136075000D03*
D19*
%TO.P,USB1,14,SHELL*%
%TO.N,unconnected-(USB1-SHELL-Pad14)_1*%
X7535000Y-131875000D03*
D15*
%TO.N,unconnected-(USB1-SHELL-Pad14)*%
X7535000Y-136075000D03*
%TD*%
D20*
%TO.P,U216,1,VIN*%
%TO.N,+5V*%
X127952500Y-88380433D03*
%TO.P,U216,2,VIN*%
X127952500Y-88880433D03*
%TO.P,U216,3,ON*%
%TO.N,Net-(U216-ON)*%
X127952500Y-89380433D03*
%TO.P,U216,4,VBIAS*%
%TO.N,unconnected-(U216-VBIAS-Pad4)*%
X127952500Y-89880433D03*
%TO.P,U216,5,GND*%
%TO.N,unconnected-(U216-GND-Pad5)*%
X129807500Y-89880433D03*
%TO.P,U216,6,CT*%
%TO.N,unconnected-(U216-CT-Pad6)*%
X129807500Y-89380433D03*
%TO.P,U216,7,VOUT*%
%TO.N,unconnected-(U216-VOUT-Pad7)*%
X129807500Y-88880433D03*
%TO.P,U216,8,VOUT*%
%TO.N,unconnected-(U216-VOUT-Pad8)*%
X129807500Y-88380433D03*
D21*
%TO.P,U216,9,EP*%
%TO.N,unconnected-(U216-EP-Pad9)*%
X128880000Y-89130433D03*
%TD*%
D13*
%TO.P,U215,2,B*%
%TO.N,Net-(U186-SDA)*%
X130435000Y-153525000D03*
%TO.P,U215,1,A*%
%TO.N,SDA_SLOW*%
X129135000Y-153525000D03*
%TD*%
%TO.P,U214,2,B*%
%TO.N,Net-(U186-SCL)*%
X130435000Y-149975000D03*
%TO.P,U214,1,A*%
%TO.N,SCL_SLOW*%
X129135000Y-149975000D03*
%TD*%
%TO.P,U213,1,A*%
%TO.N,SDA_FAST*%
X129135000Y-146425000D03*
%TO.P,U213,2,B*%
%TO.N,Net-(U186-SDA)*%
X130435000Y-146425000D03*
%TD*%
%TO.P,U212,1,A*%
%TO.N,SCL_FAST*%
X129135000Y-142875000D03*
%TO.P,U212,2,B*%
%TO.N,Net-(U186-SCL)*%
X130435000Y-142875000D03*
%TD*%
D22*
%TO.P,U210,1,OUTA*%
%TO.N,Net-(Q69-G)*%
X111337500Y-121740000D03*
%TO.P,U210,2,GND*%
%TO.N,GND*%
X111337500Y-122690000D03*
%TO.P,U210,3,INA+*%
%TO.N,Net-(U210-INA+)*%
X111337500Y-123640000D03*
%TO.P,U210,4,INB-*%
%TO.N,Net-(U210-INB-)*%
X113612500Y-123640000D03*
%TO.P,U210,5,VDD*%
%TO.N,Net-(U210-VDD)*%
X113612500Y-122690000D03*
%TO.P,U210,6,OUTB*%
%TO.N,Net-(Q69-G)*%
X113612500Y-121740000D03*
%TD*%
D23*
%TO.P,U207,1,1*%
%TO.N,+12V*%
X111340433Y-23075000D03*
D24*
%TO.P,U207,2,2*%
%TO.N,Net-(H5-Pad2)*%
X115300933Y-23075000D03*
%TO.P,U207,3,3*%
%TO.N,Net-(H5-Pad1)*%
X119260433Y-23075000D03*
%TO.P,U207,4,4*%
%TO.N,GND*%
X123220433Y-23075000D03*
%TD*%
D25*
%TO.P,U206,1,OE#*%
%TO.N,GND*%
X124367500Y-38055000D03*
%TO.P,U206,2,A*%
%TO.N,MCU-LED-INDICATOR-STRIP-PORT*%
X124367500Y-38705000D03*
%TO.P,U206,3,GND*%
%TO.N,GND*%
X124367500Y-39355000D03*
%TO.P,U206,4,Y*%
%TO.N,Net-(U206-Y)*%
X126142500Y-39355000D03*
%TO.P,U206,5,VCC*%
%TO.N,+5V*%
X126142500Y-38055000D03*
%TD*%
D26*
%TO.P,U205,1,NC*%
%TO.N,unconnected-(U205-NC-Pad1)*%
X102210000Y-49254165D03*
%TO.P,U205,2,VDD*%
%TO.N,+12V*%
X102210000Y-50854165D03*
%TO.P,U205,3,DO*%
%TO.N,Net-(U203-DIN1)*%
X102210000Y-52454165D03*
%TO.P,U205,4,DIN1*%
%TO.N,Net-(U205-DIN1)*%
X107010000Y-52454165D03*
%TO.P,U205,5,GND*%
%TO.N,GND*%
X107010000Y-50854165D03*
%TO.P,U205,6,DIN2*%
%TO.N,unconnected-(U205-DIN2-Pad6)*%
X107010000Y-49254165D03*
%TD*%
D25*
%TO.P,U204,1,OE#*%
%TO.N,GND*%
X124367500Y-34410000D03*
%TO.P,U204,2,A*%
%TO.N,MCU-LED-INDICATOR-STRIP-ONBOARD*%
X124367500Y-35060000D03*
%TO.P,U204,3,GND*%
%TO.N,GND*%
X124367500Y-35710000D03*
%TO.P,U204,4,Y*%
%TO.N,Net-(U204-Y)*%
X126142500Y-35710000D03*
%TO.P,U204,5,VCC*%
%TO.N,+5V*%
X126142500Y-34410000D03*
%TD*%
D26*
%TO.P,U203,1,NC*%
%TO.N,unconnected-(U203-NC-Pad1)*%
X102210000Y-42623232D03*
%TO.P,U203,2,VDD*%
%TO.N,+12V*%
X102210000Y-44223232D03*
%TO.P,U203,3,DO*%
%TO.N,Net-(U202-DIN1)*%
X102210000Y-45823232D03*
%TO.P,U203,4,DIN1*%
%TO.N,Net-(U203-DIN1)*%
X107010000Y-45823232D03*
%TO.P,U203,5,GND*%
%TO.N,GND*%
X107010000Y-44223232D03*
%TO.P,U203,6,DIN2*%
%TO.N,unconnected-(U203-DIN2-Pad6)*%
X107010000Y-42623232D03*
%TD*%
%TO.P,U202,1,NC*%
%TO.N,unconnected-(U202-NC-Pad1)*%
X102210000Y-35992299D03*
%TO.P,U202,2,VDD*%
%TO.N,+12V*%
X102210000Y-37592299D03*
%TO.P,U202,3,DO*%
%TO.N,Net-(U201-DIN1)*%
X102210000Y-39192299D03*
%TO.P,U202,4,DIN1*%
%TO.N,Net-(U202-DIN1)*%
X107010000Y-39192299D03*
%TO.P,U202,5,GND*%
%TO.N,GND*%
X107010000Y-37592299D03*
%TO.P,U202,6,DIN2*%
%TO.N,unconnected-(U202-DIN2-Pad6)*%
X107010000Y-35992299D03*
%TD*%
%TO.P,U201,1,NC*%
%TO.N,unconnected-(U201-NC-Pad1)*%
X102210000Y-29361366D03*
%TO.P,U201,2,VDD*%
%TO.N,+12V*%
X102210000Y-30961366D03*
%TO.P,U201,3,DO*%
%TO.N,Net-(U200-DIN1)*%
X102210000Y-32561366D03*
%TO.P,U201,4,DIN1*%
%TO.N,Net-(U201-DIN1)*%
X107010000Y-32561366D03*
%TO.P,U201,5,GND*%
%TO.N,GND*%
X107010000Y-30961366D03*
%TO.P,U201,6,DIN2*%
%TO.N,unconnected-(U201-DIN2-Pad6)*%
X107010000Y-29361366D03*
%TD*%
%TO.P,U200,1,NC*%
%TO.N,unconnected-(U200-NC-Pad1)*%
X102210000Y-22730433D03*
%TO.P,U200,2,VDD*%
%TO.N,+12V*%
X102210000Y-24330433D03*
%TO.P,U200,3,DO*%
%TO.N,unconnected-(U200-DO-Pad3)*%
X102210000Y-25930433D03*
%TO.P,U200,4,DIN1*%
%TO.N,Net-(U200-DIN1)*%
X107010000Y-25930433D03*
%TO.P,U200,5,GND*%
%TO.N,GND*%
X107010000Y-24330433D03*
%TO.P,U200,6,DIN2*%
%TO.N,unconnected-(U200-DIN2-Pad6)*%
X107010000Y-22730433D03*
%TD*%
D27*
%TO.P,U191,1,VIO*%
%TO.N,+3V3*%
X10477500Y-131905000D03*
%TO.P,U191,2,GND*%
%TO.N,GND*%
X10477500Y-132405000D03*
%TO.P,U191,3,VDD5*%
%TO.N,Net-(U191-VBUS)*%
X10477500Y-132905000D03*
%TO.P,U191,4,TXD*%
%TO.N,TEENSY_MICROROS_RX*%
X10477500Y-133405000D03*
D28*
%TO.P,U191,5,RXD*%
%TO.N,TEENSY_MICROROS_TX*%
X11190000Y-134117500D03*
%TO.P,U191,6,V3*%
%TO.N,Net-(U191-V3)*%
X11690000Y-134117500D03*
%TO.P,U191,7,UD+*%
%TO.N,USB_P*%
X12190000Y-134117500D03*
%TO.P,U191,8,UD-*%
%TO.N,USB_N*%
X12690000Y-134117500D03*
D27*
%TO.P,U191,9,VBUS*%
%TO.N,Net-(U191-VBUS)*%
X13402500Y-133405000D03*
%TO.P,U191,10,ACT#*%
%TO.N,MCU-ACT#-CH343P*%
X13402500Y-132905000D03*
%TO.P,U191,11,DCD*%
%TO.N,unconnected-(U191-DCD-Pad11)*%
X13402500Y-132405000D03*
%TO.P,U191,12,DTRTNOW*%
%TO.N,unconnected-(U191-DTRTNOW-Pad12)*%
X13402500Y-131905000D03*
D28*
%TO.P,U191,13,RTS*%
%TO.N,MCU-RESET-CH343P*%
X12690000Y-131192500D03*
%TO.P,U191,14,DSR*%
%TO.N,unconnected-(U191-DSR-Pad14)*%
X12190000Y-131192500D03*
%TO.P,U191,15,CTS*%
%TO.N,unconnected-(U191-CTS-Pad15)*%
X11690000Y-131192500D03*
%TO.P,U191,16,RI*%
%TO.N,unconnected-(U191-RI-Pad16)*%
X11190000Y-131192500D03*
D29*
%TO.P,U191,17,EP*%
%TO.N,GND*%
X11940000Y-132655000D03*
%TD*%
D30*
%TO.P,U183,17,GND*%
%TO.N,GND*%
X33645000Y-120535000D03*
%TO.P,U183,18,PROGRAM*%
%TO.N,unconnected-(U183-PROGRAM-Pad18)*%
X33645000Y-117995000D03*
%TO.P,U183,19,ON_OFF*%
%TO.N,unconnected-(U183-ON_OFF-Pad19)*%
X33645000Y-115455000D03*
%TO.P,U183,20,13_SCK_CRX1_LED*%
%TO.N,unconnected-(U183-13_SCK_CRX1_LED-Pad20)*%
X33645000Y-112915000D03*
%TO.P,U183,16,3V3*%
%TO.N,unconnected-(U183-3V3-Pad16)*%
X33645000Y-123075000D03*
%TO.P,U183,15,VBAT*%
%TO.N,unconnected-(U183-VBAT-Pad15)*%
X33645000Y-125615000D03*
%TO.P,U183,14,12_MISO_MQSL*%
%TO.N,unconnected-(U183-12_MISO_MQSL-Pad14)*%
X33645000Y-128155000D03*
%TO.P,U183,21,14_A0_TX3_SPDIF_OUT*%
%TO.N,MCU-LED-INDICATOR-STRIP-PORT*%
X31105000Y-112915000D03*
%TO.P,U183,22,15_A1_RX3_SPDIF_IN*%
%TO.N,MCU-LED-INDICATOR-STRIP-ONBOARD*%
X28565000Y-112915000D03*
%TO.P,U183,23,16_A2_RX4_SCL1*%
%TO.N,SCL_SLOW*%
X26025000Y-112915000D03*
%TO.P,U183,24,17_A3_TX4_SDA1*%
%TO.N,SDA_SLOW*%
X23485000Y-112915000D03*
%TO.P,U183,25,18_A4_SDA0*%
%TO.N,unconnected-(U183-18_A4_SDA0-Pad25)*%
X20945000Y-112915000D03*
%TO.P,U183,26,19_A5_SCL0*%
%TO.N,unconnected-(U183-19_A5_SCL0-Pad26)*%
X18405000Y-112915000D03*
%TO.P,U183,27,20_A6_TX5_LRCLK1*%
%TO.N,TEENSY_MICROROS_TX*%
X15865000Y-112915000D03*
%TO.P,U183,28,21_A7_RX5_BCLK1*%
%TO.N,TEENSY_MICROROS_RX*%
X13325000Y-112915000D03*
%TO.P,U183,29,22_A8_CTX1*%
%TO.N,unconnected-(U183-22_A8_CTX1-Pad29)*%
X10785000Y-112915000D03*
%TO.P,U183,30,23_A9_CRX1_MCLK1*%
%TO.N,unconnected-(U183-23_A9_CRX1_MCLK1-Pad30)*%
X8245000Y-112915000D03*
%TO.P,U183,31,3V3*%
%TO.N,unconnected-(U183-3V3-Pad31)*%
X5705000Y-112915000D03*
%TO.P,U183,32,GND*%
%TO.N,GND*%
X3165000Y-112915000D03*
%TO.P,U183,33,VIN*%
%TO.N,Net-(D78-K)*%
X625000Y-112915000D03*
%TO.P,U183,34,VUSB*%
%TO.N,unconnected-(U183-VUSB-Pad34)*%
X3165000Y-115455000D03*
%TO.P,U183,13,11_MOSI_CTX1*%
%TO.N,unconnected-(U183-11_MOSI_CTX1-Pad13)*%
X31105000Y-128155000D03*
%TO.P,U183,12,10_CS_MQSR*%
%TO.N,unconnected-(U183-10_CS_MQSR-Pad12)*%
X28565000Y-128155000D03*
%TO.P,U183,11,9_OUT1C*%
%TO.N,unconnected-(U183-9_OUT1C-Pad11)*%
X26025000Y-128155000D03*
%TO.P,U183,10,8_TX2_IN1*%
%TO.N,unconnected-(U183-8_TX2_IN1-Pad10)*%
X23485000Y-128155000D03*
%TO.P,U183,9,7_RX2_OUT1A*%
%TO.N,SBUS_RECEIVER*%
X20945000Y-128155000D03*
%TO.P,U183,8,6_OUT1D*%
%TO.N,unconnected-(U183-6_OUT1D-Pad8)*%
X18405000Y-128155000D03*
%TO.P,U183,7,5_IN2*%
%TO.N,unconnected-(U183-5_IN2-Pad7)*%
X15865000Y-128155000D03*
%TO.P,U183,6,4_BCLK2*%
%TO.N,MCU-PIN-IC-INT*%
X13325000Y-128155000D03*
%TO.P,U183,5,3_LRCLK2*%
%TO.N,unconnected-(U183-3_LRCLK2-Pad5)*%
X10785000Y-128155000D03*
%TO.P,U183,4,2_OUT2*%
%TO.N,unconnected-(U183-2_OUT2-Pad4)*%
X8245000Y-128155000D03*
%TO.P,U183,3,1_TX1_CTX2_MISO1*%
%TO.N,unconnected-(U183-1_TX1_CTX2_MISO1-Pad3)*%
X5705000Y-128155000D03*
%TO.P,U183,2,0_RX1_CRX2_CS1*%
%TO.N,unconnected-(U183-0_RX1_CRX2_CS1-Pad2)*%
X3165000Y-128155000D03*
%TO.P,U183,1,GND*%
%TO.N,GND*%
X625000Y-128155000D03*
%TO.P,U183,35,24_A10_TX6_SCL2*%
%TO.N,SCL_FAST*%
X28565000Y-115455000D03*
%TO.P,U183,36,25_A11_RX6_SDA2*%
%TO.N,SDA_FAST*%
X26025000Y-115455000D03*
%TO.P,U183,37,26_A12_MOSI1*%
%TO.N,unconnected-(U183-26_A12_MOSI1-Pad37)*%
X28565000Y-117995000D03*
%TO.P,U183,38,27_A13_SCK1*%
%TO.N,unconnected-(U183-27_A13_SCK1-Pad38)*%
X26025000Y-117995000D03*
%TO.P,U183,39,28_RX7*%
%TO.N,unconnected-(U183-28_RX7-Pad39)*%
X28565000Y-120535000D03*
%TO.P,U183,40,29_TX7*%
%TO.N,unconnected-(U183-29_TX7-Pad40)*%
X26025000Y-120535000D03*
%TO.P,U183,41,30_CRX3*%
%TO.N,unconnected-(U183-30_CRX3-Pad41)*%
X28565000Y-123075000D03*
%TO.P,U183,42,31_CTX3*%
%TO.N,unconnected-(U183-31_CTX3-Pad42)*%
X26025000Y-123075000D03*
%TO.P,U183,43,32_OUT1B*%
%TO.N,unconnected-(U183-32_OUT1B-Pad43)*%
X28565000Y-125615000D03*
%TO.P,U183,44,33_MCLK2*%
%TO.N,unconnected-(U183-33_MCLK2-Pad44)*%
X26025000Y-125615000D03*
%TD*%
D31*
%TO.P,U182,1,A1*%
%TO.N,+3V3*%
X122982500Y-116670000D03*
%TO.P,U182,2,A0*%
%TO.N,GND*%
X122982500Y-117170000D03*
%TO.P,U182,3,Alert*%
%TO.N,MCU-0X44-INA226-ESC-ALERT*%
X122982500Y-117670000D03*
%TO.P,U182,4,SDA*%
%TO.N,SDA_FAST*%
X122982500Y-118170000D03*
%TO.P,U182,5,SCL*%
%TO.N,SCL_FAST*%
X122982500Y-118670000D03*
%TO.P,U182,6,VS+*%
%TO.N,+3V3*%
X127207500Y-118670000D03*
%TO.P,U182,7,GND*%
%TO.N,GND*%
X127207500Y-118170000D03*
%TO.P,U182,8,VBUS*%
%TO.N,/Connectors ESC/VCC_ESC*%
X127207500Y-117670000D03*
%TO.P,U182,9,VIN-*%
X127207500Y-117170000D03*
%TO.P,U182,10,VIN+*%
%TO.N,Net-(U182-VIN+)*%
X127207500Y-116670000D03*
%TD*%
D22*
%TO.P,U181,1,VS*%
%TO.N,Net-(U181-VS)*%
X34637500Y-58005000D03*
%TO.P,U181,2,GND*%
%TO.N,GND*%
X34637500Y-58955000D03*
%TO.P,U181,3,OFF*%
%TO.N,#MCU-EN-SERVO_VCC*%
X34637500Y-59905000D03*
%TO.P,U181,4,IN*%
%TO.N,+SERVO_VCC*%
X36912500Y-59905000D03*
%TO.P,U181,5,GATE*%
%TO.N,Net-(Q68-G)*%
X36912500Y-58955000D03*
%TO.P,U181,6,OUT*%
%TO.N,SERVO-VCC-DIODED*%
X36912500Y-58005000D03*
%TD*%
%TO.P,U180,1,VS*%
%TO.N,Net-(U180-VS)*%
X111637500Y-70115000D03*
%TO.P,U180,2,GND*%
%TO.N,GND*%
X111637500Y-71065000D03*
%TO.P,U180,3,OFF*%
%TO.N,#MCU-EN-12V-DIODE*%
X111637500Y-72015000D03*
%TO.P,U180,4,IN*%
%TO.N,Net-(U115-IOUT)*%
X113912500Y-72015000D03*
%TO.P,U180,5,GATE*%
%TO.N,Net-(Q67-G)*%
X113912500Y-71065000D03*
%TO.P,U180,6,OUT*%
%TO.N,+12V*%
X113912500Y-70115000D03*
%TD*%
D13*
%TO.P,U179,1,A*%
%TO.N,Net-(U176-SDAB)*%
X100765000Y-154615000D03*
%TO.P,U179,2,B*%
%TO.N,Net-(U179-B)*%
X102065000Y-154615000D03*
%TD*%
%TO.P,U178,1,A*%
%TO.N,Net-(U176-SCLB)*%
X100765000Y-151065000D03*
%TO.P,U178,2,B*%
%TO.N,Net-(U178-B)*%
X102065000Y-151065000D03*
%TD*%
%TO.P,U174,1,A*%
%TO.N,Net-(U173-RBOOT)*%
X4685000Y-159335000D03*
%TO.P,U174,2,B*%
%TO.N,Net-(U173-CBOOT)*%
X5985000Y-159335000D03*
%TD*%
D32*
%TO.P,U173,1,VIN1*%
%TO.N,Net-(U173-VIN1)*%
X5510000Y-143155433D03*
D33*
%TO.P,U173,2,RBOOT*%
%TO.N,Net-(U173-RBOOT)*%
X5410000Y-144130433D03*
%TO.P,U173,3,CBOOT*%
%TO.N,Net-(U173-CBOOT)*%
X5410000Y-144780433D03*
%TO.P,U173,4,SW*%
%TO.N,unconnected-(U173-SW-Pad4)*%
X5410000Y-145430433D03*
%TO.P,U173,5,VLDOIN*%
%TO.N,+SERVO_VCC*%
X5410000Y-146080433D03*
%TO.P,U173,6,VCC*%
%TO.N,unconnected-(U173-VCC-Pad6)*%
X5410000Y-146730433D03*
%TO.P,U173,7,AGND*%
%TO.N,GNDA*%
X5410000Y-147380433D03*
%TO.P,U173,8,FB*%
%TO.N,Net-(U173-FB)*%
X5410000Y-148030433D03*
D32*
%TO.P,U173,9,VOUT1*%
%TO.N,+SERVO_VCC*%
X5510000Y-149005433D03*
%TO.P,U173,10,VOUT2*%
X11010000Y-149005433D03*
D33*
%TO.P,U173,11,AGND*%
%TO.N,GNDA*%
X11110000Y-148030433D03*
%TO.P,U173,12,RT*%
%TO.N,Net-(U173-RT)*%
X11110000Y-147380433D03*
%TO.P,U173,13,PG*%
%TO.N,MCU-POWERGOOD-TPS-POWER-SERVO*%
X11110000Y-146730433D03*
%TO.P,U173,14,SPSP*%
%TO.N,Net-(U173-SPSP)*%
X11110000Y-146080433D03*
%TO.P,U173,15,MODE*%
%TO.N,Net-(U173-MODE)*%
X11110000Y-145430433D03*
%TO.P,U173,16,NC*%
%TO.N,GND*%
X11110000Y-144780433D03*
%TO.P,U173,17,EN*%
%TO.N,MCU-EN-TPS-POWER-SERVO*%
X11110000Y-144130433D03*
D32*
%TO.P,U173,18,VIN2*%
%TO.N,Net-(U173-VIN1)*%
X11010000Y-143155433D03*
D34*
%TO.P,U173,19,PGND*%
%TO.N,GND*%
X8260000Y-143830433D03*
%TO.P,U173,20,PGND*%
X8260000Y-145330433D03*
%TO.P,U173,21,AGND*%
%TO.N,GNDA*%
X8260000Y-146830433D03*
%TO.P,U173,22,AGND*%
X8260000Y-148330433D03*
%TD*%
D13*
%TO.P,U172,2,B*%
%TO.N,CELL3*%
X95545000Y-41625000D03*
%TO.P,U172,1,A*%
%TO.N,Net-(U172-A)*%
X94245000Y-41625000D03*
%TD*%
%TO.P,U170,1,A*%
%TO.N,Net-(U115-LL)*%
X110235000Y-94995000D03*
%TO.P,U170,2,B*%
%TO.N,Net-(U115-MODE)*%
X111535000Y-94995000D03*
%TD*%
D22*
%TO.P,U168,1,VOUT*%
%TO.N,Net-(U168-VOUT)*%
X111637500Y-65490000D03*
%TO.P,U168,2,VSS*%
%TO.N,GND*%
X111637500Y-66440000D03*
%TO.P,U168,3,VDD*%
%TO.N,+3V3*%
X111637500Y-67390000D03*
%TO.P,U168,4,SDA*%
%TO.N,SDA_SLOW*%
X113912500Y-67390000D03*
%TO.P,U168,5,SCL*%
%TO.N,SCL_SLOW*%
X113912500Y-66440000D03*
%TO.P,U168,6,A0*%
%TO.N,GND*%
X113912500Y-65490000D03*
%TD*%
D35*
%TO.P,U166,1,1*%
%TO.N,Net-(R458-Pad2)*%
X85705000Y-84602366D03*
%TO.P,U166,2,2*%
%TO.N,GND*%
X91045000Y-84602366D03*
%TD*%
D13*
%TO.P,U161,2,B*%
%TO.N,Net-(U141-SCL)*%
X43135000Y-157435000D03*
%TO.P,U161,1,A*%
%TO.N,SCL_SLOW*%
X41835000Y-157435000D03*
%TD*%
%TO.P,U160,2,B*%
%TO.N,Net-(U141-SDA)*%
X43135000Y-153885000D03*
%TO.P,U160,1,A*%
%TO.N,SDA_SLOW*%
X41835000Y-153885000D03*
%TD*%
%TO.P,U159,1,A*%
%TO.N,SDA_FAST*%
X41835000Y-150335000D03*
%TO.P,U159,2,B*%
%TO.N,Net-(U141-SDA)*%
X43135000Y-150335000D03*
%TD*%
%TO.P,U158,1,A*%
%TO.N,SCL_FAST*%
X41835000Y-146785000D03*
%TO.P,U158,2,B*%
%TO.N,Net-(U141-SCL)*%
X43135000Y-146785000D03*
%TD*%
%TO.P,U157,2,B*%
%TO.N,GND*%
X36285000Y-40695000D03*
%TO.P,U157,1,A*%
%TO.N,Net-(U157-A)*%
X34985000Y-40695000D03*
%TD*%
D35*
%TO.P,U156,1,1*%
%TO.N,3V3_RECEIVER*%
X18675000Y-49650500D03*
%TO.P,U156,2,2*%
%TO.N,GND*%
X24015000Y-49650500D03*
%TD*%
D22*
%TO.P,U155,1,VOUT*%
%TO.N,3V3_RECEIVER*%
X34637500Y-53380000D03*
%TO.P,U155,2,GND*%
%TO.N,GND*%
X34637500Y-54330000D03*
%TO.P,U155,3,SET*%
%TO.N,Net-(U155-SET)*%
X34637500Y-55280000D03*
%TO.P,U155,4,EN*%
%TO.N,Net-(U155-EN)*%
X36912500Y-55280000D03*
%TO.P,U155,5,VIN*%
%TO.N,+3V3*%
X36912500Y-53380000D03*
%TD*%
D36*
%TO.P,U154,1,PGOOD*%
%TO.N,MCU-3V3-PGOOD*%
X87966000Y-127245000D03*
D37*
%TO.P,U154,2,EN*%
%TO.N,Net-(Q65-D)*%
X87946000Y-128045000D03*
%TO.P,U154,3,VIN*%
%TO.N,Net-(D64-K)*%
X87946000Y-128545000D03*
D38*
%TO.P,U154,4,VOUT*%
%TO.N,+3V3*%
X88236000Y-130195000D03*
%TO.P,U154,5,SW*%
%TO.N,unconnected-(U154-SW-Pad5)*%
X90705500Y-130195000D03*
D37*
%TO.P,U154,6,SW*%
%TO.N,unconnected-(U154-SW-Pad6)*%
X90946000Y-128545000D03*
%TO.P,U154,7,BOOT*%
%TO.N,unconnected-(U154-BOOT-Pad7)*%
X90946000Y-128045000D03*
D36*
%TO.P,U154,8,VCC*%
%TO.N,Net-(U154-VCC)*%
X90906000Y-127245000D03*
D39*
%TO.P,U154,9,FB*%
%TO.N,Net-(U154-FB)*%
X89946000Y-127070000D03*
D40*
%TO.P,U154,10,GND*%
%TO.N,GND*%
X89446000Y-127445000D03*
D39*
%TO.P,U154,11,RT*%
%TO.N,Net-(U154-RT)*%
X88946000Y-127070000D03*
%TD*%
D22*
%TO.P,U153,1,IN*%
%TO.N,Net-(U153-IN)*%
X82557500Y-40020000D03*
%TO.P,U153,2,GND*%
%TO.N,VSS*%
X82557500Y-40970000D03*
%TO.P,U153,3,EM*%
%TO.N,BQ-REG18*%
X82557500Y-41920000D03*
%TO.P,U153,4,NC/ADJ*%
%TO.N,unconnected-(U153-NC{slash}ADJ-Pad4)*%
X84832500Y-41920000D03*
%TO.P,U153,5,OUT*%
%TO.N,Net-(U120-A)*%
X84832500Y-40020000D03*
%TD*%
%TO.P,U152,1,VS*%
%TO.N,Net-(U152-VS)*%
X57787500Y-132375000D03*
%TO.P,U152,2,GND*%
%TO.N,GND*%
X57787500Y-133325000D03*
%TO.P,U152,3,OFF*%
%TO.N,#EN-PACK+-VCC-DIODE*%
X57787500Y-134275000D03*
%TO.P,U152,4,IN*%
%TO.N,PACK+*%
X60062500Y-134275000D03*
%TO.P,U152,5,GATE*%
%TO.N,Net-(Q62-G)*%
X60062500Y-133325000D03*
%TO.P,U152,6,OUT*%
%TO.N,VCC*%
X60062500Y-132375000D03*
%TD*%
%TO.P,U151,1,VS*%
%TO.N,Net-(U151-VS)*%
X57787500Y-127750000D03*
%TO.P,U151,2,GND*%
%TO.N,GND*%
X57787500Y-128700000D03*
%TO.P,U151,3,OFF*%
%TO.N,#EN-DC-20V-DIODE*%
X57787500Y-129650000D03*
%TO.P,U151,4,IN*%
%TO.N,Net-(D67-K)*%
X60062500Y-129650000D03*
%TO.P,U151,5,GATE*%
%TO.N,Net-(Q61-G)*%
X60062500Y-128700000D03*
%TO.P,U151,6,OUT*%
%TO.N,IN-CHARGING-VCC*%
X60062500Y-127750000D03*
%TD*%
%TO.P,U150,1,VS*%
%TO.N,Net-(U150-VS)*%
X57787500Y-123125000D03*
%TO.P,U150,2,GND*%
%TO.N,GND*%
X57787500Y-124075000D03*
%TO.P,U150,3,OFF*%
%TO.N,#EN-USBC-DIODE*%
X57787500Y-125025000D03*
%TO.P,U150,4,IN*%
%TO.N,IN-CHARGING-VCC-USBC*%
X60062500Y-125025000D03*
%TO.P,U150,5,GATE*%
%TO.N,Net-(Q60-G)*%
X60062500Y-124075000D03*
%TO.P,U150,6,OUT*%
%TO.N,IN-CHARGING-VCC*%
X60062500Y-123125000D03*
%TD*%
D36*
%TO.P,U147,1,PGOOD*%
%TO.N,MCU-5V-BUCK-PGOOD*%
X81690500Y-127245000D03*
D37*
%TO.P,U147,2,EN*%
%TO.N,Net-(U147-EN)*%
X81670500Y-128045000D03*
%TO.P,U147,3,VIN*%
%TO.N,Net-(D64-K)*%
X81670500Y-128545000D03*
D38*
%TO.P,U147,4,VOUT*%
%TO.N,Net-(U147-VOUT)*%
X81960500Y-130195000D03*
%TO.P,U147,5,SW*%
%TO.N,unconnected-(U147-SW-Pad5)*%
X84430000Y-130195000D03*
D37*
%TO.P,U147,6,SW*%
%TO.N,unconnected-(U147-SW-Pad6)*%
X84670500Y-128545000D03*
%TO.P,U147,7,BOOT*%
%TO.N,unconnected-(U147-BOOT-Pad7)*%
X84670500Y-128045000D03*
D36*
%TO.P,U147,8,VCC*%
%TO.N,Net-(U147-VCC)*%
X84630500Y-127245000D03*
D39*
%TO.P,U147,9,FB*%
%TO.N,Net-(U147-FB)*%
X83670500Y-127070000D03*
D40*
%TO.P,U147,10,GND*%
%TO.N,GND*%
X83170500Y-127445000D03*
D39*
%TO.P,U147,11,RT*%
%TO.N,Net-(U147-RT)*%
X82670500Y-127070000D03*
%TD*%
D13*
%TO.P,U146,2,B*%
%TO.N,Net-(U140-SCL)*%
X112425000Y-153525000D03*
%TO.P,U146,1,A*%
%TO.N,SCL_SLOW*%
X111125000Y-153525000D03*
%TD*%
%TO.P,U145,2,B*%
%TO.N,Net-(U140-SDA)*%
X112425000Y-149975000D03*
%TO.P,U145,1,A*%
%TO.N,SDA_SLOW*%
X111125000Y-149975000D03*
%TD*%
%TO.P,U144,1,A*%
%TO.N,SDA_FAST*%
X111125000Y-146425000D03*
%TO.P,U144,2,B*%
%TO.N,Net-(U140-SDA)*%
X112425000Y-146425000D03*
%TD*%
%TO.P,U143,1,A*%
%TO.N,SCL_FAST*%
X111125000Y-142875000D03*
%TO.P,U143,2,B*%
%TO.N,Net-(U140-SCL)*%
X112425000Y-142875000D03*
%TD*%
D41*
%TO.P,U141,1,P0_0*%
%TO.N,Net-(U141-P0_0)*%
X46485000Y-163542500D03*
%TO.P,U141,2,P0_1*%
%TO.N,Net-(U141-P0_1)*%
X46985000Y-163542500D03*
%TO.P,U141,3,P0_2*%
%TO.N,Net-(U141-P0_2)*%
X47485000Y-163542500D03*
%TO.P,U141,4,P0_3*%
%TO.N,Net-(U141-P0_3)*%
X47985000Y-163542500D03*
%TO.P,U141,5,P0_4*%
%TO.N,Net-(U141-P0_4)*%
X48485000Y-163542500D03*
%TO.P,U141,6,P0_5*%
%TO.N,Net-(U141-P0_5)*%
X48985000Y-163542500D03*
%TO.P,U141,7,P0_6*%
%TO.N,Net-(U141-P0_6)*%
X49485000Y-163542500D03*
%TO.P,U141,8,P0_7*%
%TO.N,Net-(U141-P0_7)*%
X49985000Y-163542500D03*
D42*
%TO.P,U141,9,P1_0*%
%TO.N,Net-(U141-P1_0)*%
X50642500Y-162885000D03*
%TO.P,U141,10,P1_1*%
%TO.N,Net-(U141-P1_1)*%
X50642500Y-162385000D03*
%TO.P,U141,11,P1_2*%
%TO.N,Net-(U141-P1_2)*%
X50642500Y-161885000D03*
%TO.P,U141,12,P1_3*%
%TO.N,Net-(U141-P1_3)*%
X50642500Y-161385000D03*
%TO.P,U141,13,P1_4*%
%TO.N,MCU-RESET-CH343P*%
X50642500Y-160885000D03*
%TO.P,U141,14,P1_5*%
%TO.N,MCU-ACT#-CH343P*%
X50642500Y-160385000D03*
%TO.P,U141,15,P1_6*%
%TO.N,MCU-IMU-INT1*%
X50642500Y-159885000D03*
%TO.P,U141,16,P1_7*%
%TO.N,MCU-IMU-INT2*%
X50642500Y-159385000D03*
D41*
%TO.P,U141,17,P2_0*%
%TO.N,unconnected-(U141-P2_0-Pad17)*%
X49985000Y-158727500D03*
%TO.P,U141,18,P2_1*%
%TO.N,unconnected-(U141-P2_1-Pad18)*%
X49485000Y-158727500D03*
%TO.P,U141,19,P2_2*%
%TO.N,unconnected-(U141-P2_2-Pad19)*%
X48985000Y-158727500D03*
%TO.P,U141,20,P2_3*%
%TO.N,unconnected-(U141-P2_3-Pad20)*%
X48485000Y-158727500D03*
%TO.P,U141,21,P2_4*%
%TO.N,unconnected-(U141-P2_4-Pad21)*%
X47985000Y-158727500D03*
%TO.P,U141,22,P2_5*%
%TO.N,MCU-0X44-INA226-ESC-ALERT*%
X47485000Y-158727500D03*
%TO.P,U141,23,P2_6*%
%TO.N,MCU-TPS-SHDN#*%
X46985000Y-158727500D03*
%TO.P,U141,24,P2_7*%
%TO.N,MCU-TPS-FAULT*%
X46485000Y-158727500D03*
D42*
%TO.P,U141,25,VSS*%
%TO.N,GND*%
X45827500Y-159385000D03*
%TO.P,U141,26,ADDR*%
X45827500Y-159885000D03*
%TO.P,U141,27,VDD(P)*%
%TO.N,+3V3*%
X45827500Y-160385000D03*
%TO.P,U141,28,RESET#*%
%TO.N,unconnected-(U141-RESET#-Pad28)*%
X45827500Y-160885000D03*
%TO.P,U141,29,SCL*%
%TO.N,Net-(U141-SCL)*%
X45827500Y-161385000D03*
%TO.P,U141,30,SDA*%
%TO.N,Net-(U141-SDA)*%
X45827500Y-161885000D03*
%TO.P,U141,31,VDD(I2C-bus)*%
%TO.N,+3V3*%
X45827500Y-162385000D03*
%TO.P,U141,32,INT#*%
%TO.N,MCU-PIN-IC-INT*%
X45827500Y-162885000D03*
D43*
%TO.P,U141,33,EP*%
%TO.N,unconnected-(U141-EP-Pad33)*%
X48235000Y-161135000D03*
%TD*%
D44*
%TO.P,U140,1,A0*%
%TO.N,Net-(U140-A0)*%
X118372500Y-142595000D03*
%TO.P,U140,2,A1*%
%TO.N,Net-(U140-A1)*%
X118372500Y-143245000D03*
%TO.P,U140,3,A2*%
%TO.N,Net-(U140-A2)*%
X118372500Y-143895000D03*
%TO.P,U140,4,A3*%
%TO.N,Net-(U140-A3)*%
X118372500Y-144545000D03*
%TO.P,U140,5,A4*%
%TO.N,Net-(U140-A4)*%
X118372500Y-145195000D03*
%TO.P,U140,6,LED0*%
%TO.N,Net-(U140-LED0)*%
X118372500Y-145845000D03*
%TO.P,U140,7,LED1*%
%TO.N,Net-(U140-LED1)*%
X118372500Y-146495000D03*
%TO.P,U140,8,LED2*%
%TO.N,Net-(U140-LED2)*%
X118372500Y-147145000D03*
%TO.P,U140,9,LED3*%
%TO.N,Net-(U140-LED3)*%
X118372500Y-147795000D03*
%TO.P,U140,10,LED4*%
%TO.N,Net-(U140-LED4)*%
X118372500Y-148445000D03*
%TO.P,U140,11,LED5*%
%TO.N,unconnected-(U140-LED5-Pad11)*%
X118372500Y-149095000D03*
%TO.P,U140,12,LED6*%
%TO.N,unconnected-(U140-LED6-Pad12)*%
X118372500Y-149745000D03*
%TO.P,U140,13,LED7*%
%TO.N,unconnected-(U140-LED7-Pad13)*%
X118372500Y-150395000D03*
%TO.P,U140,14,VSS*%
%TO.N,GND*%
X118372500Y-151045000D03*
%TO.P,U140,15,LED8*%
%TO.N,unconnected-(U140-LED8-Pad15)*%
X124097500Y-151045000D03*
%TO.P,U140,16,LED9*%
%TO.N,unconnected-(U140-LED9-Pad16)*%
X124097500Y-150395000D03*
%TO.P,U140,17,LED10*%
%TO.N,unconnected-(U140-LED10-Pad17)*%
X124097500Y-149745000D03*
%TO.P,U140,18,LED11*%
%TO.N,unconnected-(U140-LED11-Pad18)*%
X124097500Y-149095000D03*
%TO.P,U140,19,LED12*%
%TO.N,unconnected-(U140-LED12-Pad19)*%
X124097500Y-148445000D03*
%TO.P,U140,20,LED13*%
%TO.N,unconnected-(U140-LED13-Pad20)*%
X124097500Y-147795000D03*
%TO.P,U140,21,LED14*%
%TO.N,unconnected-(U140-LED14-Pad21)*%
X124097500Y-147145000D03*
%TO.P,U140,22,LED15*%
%TO.N,unconnected-(U140-LED15-Pad22)*%
X124097500Y-146495000D03*
%TO.P,U140,23,OE#*%
%TO.N,Net-(U140-OE#)*%
X124097500Y-145845000D03*
%TO.P,U140,24,A5*%
%TO.N,+3V3*%
X124097500Y-145195000D03*
%TO.P,U140,25,EXTCLK*%
%TO.N,GND*%
X124097500Y-144545000D03*
%TO.P,U140,26,SCL*%
%TO.N,Net-(U140-SCL)*%
X124097500Y-143895000D03*
%TO.P,U140,27,SDA*%
%TO.N,Net-(U140-SDA)*%
X124097500Y-143245000D03*
%TO.P,U140,28,VDD*%
%TO.N,+3V3*%
X124097500Y-142595000D03*
%TD*%
D13*
%TO.P,U139,1,A*%
%TO.N,GND*%
X68335000Y-134175000D03*
%TO.P,U139,2,B*%
%TO.N,Net-(U133-MODE)*%
X69635000Y-134175000D03*
%TD*%
%TO.P,U134,1,A*%
%TO.N,GND*%
X68335000Y-130625000D03*
%TO.P,U134,2,B*%
%TO.N,Net-(U134-B)*%
X69635000Y-130625000D03*
%TD*%
D45*
%TO.P,U133,1,IN*%
%TO.N,IN-CHARGING-VCC*%
X73035000Y-133975000D03*
%TO.P,U133,2,IN*%
X73535000Y-133975000D03*
%TO.P,U133,3,N.C*%
%TO.N,unconnected-(U133-N.C-Pad3)*%
X74035000Y-133975000D03*
%TO.P,U133,4,N.C*%
%TO.N,unconnected-(U133-N.C-Pad4)*%
X74535000Y-133975000D03*
%TO.P,U133,5,P_IN*%
%TO.N,IN-CHARGING-VCC*%
X75035000Y-133975000D03*
%TO.P,U133,6,UVLO*%
%TO.N,Net-(U133-UVLO)*%
X75535000Y-133975000D03*
D46*
%TO.P,U133,7,OVP*%
%TO.N,Net-(U133-OVP)*%
X76285000Y-133225000D03*
%TO.P,U133,8,GND*%
%TO.N,GND*%
X76285000Y-132725000D03*
%TO.P,U133,9,dVdT*%
%TO.N,Net-(U133-dVdT)*%
X76285000Y-132225000D03*
%TO.P,U133,10,ILIM*%
%TO.N,Net-(U133-ILIM)*%
X76285000Y-131725000D03*
%TO.P,U133,11,MODE*%
%TO.N,Net-(U133-MODE)*%
X76285000Y-131225000D03*
%TO.P,U133,12,SHDN#*%
%TO.N,MCU-TPS-SHDN#*%
X76285000Y-130725000D03*
D45*
%TO.P,U133,13,IMON*%
%TO.N,MCU-TPS-IMON-ANALOG*%
X75535000Y-129975000D03*
%TO.P,U133,14,FLT#*%
%TO.N,MCU-TPS-FAULT*%
X75035000Y-129975000D03*
%TO.P,U133,15,N.C*%
%TO.N,unconnected-(U133-N.C-Pad15)*%
X74535000Y-129975000D03*
%TO.P,U133,16,PGOOD*%
%TO.N,TPS-PGOOD*%
X74035000Y-129975000D03*
%TO.P,U133,17,OUT*%
%TO.N,IN-CHARGING-VCC-LIMITED*%
X73535000Y-129975000D03*
%TO.P,U133,18,OUT*%
X73043000Y-129975000D03*
D46*
%TO.P,U133,19,N.C*%
%TO.N,unconnected-(U133-N.C-Pad19)*%
X72285000Y-130725000D03*
%TO.P,U133,20,N.C*%
%TO.N,unconnected-(U133-N.C-Pad20)*%
X72285000Y-131225000D03*
%TO.P,U133,21,N.C*%
%TO.N,unconnected-(U133-N.C-Pad21)*%
X72285000Y-131725000D03*
%TO.P,U133,22,N.C*%
%TO.N,unconnected-(U133-N.C-Pad22)*%
X72285000Y-132225000D03*
%TO.P,U133,23,N.C*%
%TO.N,unconnected-(U133-N.C-Pad23)*%
X72285000Y-132725000D03*
%TO.P,U133,24,N.C*%
%TO.N,unconnected-(U133-N.C-Pad24)*%
X72285000Y-133225000D03*
D47*
%TO.P,U133,25,EP*%
%TO.N,GND*%
X74297500Y-131975000D03*
%TD*%
D22*
%TO.P,U127,1,VS*%
%TO.N,Net-(U127-VS)*%
X57787500Y-118500000D03*
%TO.P,U127,2,GND*%
%TO.N,GND*%
X57787500Y-119450000D03*
%TO.P,U127,3,OFF*%
%TO.N,#EN_IN-CHARGING-VCC-LIMITED-DIODE*%
X57787500Y-120400000D03*
%TO.P,U127,4,IN*%
%TO.N,IN-CHARGING-VCC-LIMITED*%
X60062500Y-120400000D03*
%TO.P,U127,5,GATE*%
%TO.N,Net-(Q58-G)*%
X60062500Y-119450000D03*
%TO.P,U127,6,OUT*%
%TO.N,VCC*%
X60062500Y-118500000D03*
%TD*%
D48*
%TO.P,U115,A1,BANK2VOUT*%
%TO.N,Net-(R458-Pad2)*%
X95550433Y-66020433D03*
%TO.P,U115,A2,BANK2VOUT*%
X96820433Y-66020433D03*
%TO.P,U115,A3,BANK2VOUT*%
X98090433Y-66020433D03*
%TO.P,U115,A4,BANK2VOUT*%
X99360433Y-66020433D03*
%TO.P,U115,A5,BANK2VOUT*%
X100630433Y-66020433D03*
%TO.P,U115,A6,BANK2VOUT*%
X101900433Y-66020433D03*
%TO.P,U115,A7,BANK1GND*%
%TO.N,GND*%
X103170433Y-66020433D03*
%TO.P,U115,A8,BANK1GND*%
X104440433Y-66020433D03*
%TO.P,U115,A9,BANK1GND*%
X105710433Y-66020433D03*
%TO.P,U115,A10,BANK1GND*%
X106980433Y-66020433D03*
%TO.P,U115,A11,BANK1GND*%
X108250433Y-66020433D03*
%TO.P,U115,B1,BANK2VOUT*%
%TO.N,Net-(R458-Pad2)*%
X95550433Y-67290433D03*
%TO.P,U115,B2,BANK2VOUT*%
X96820433Y-67290433D03*
%TO.P,U115,B3,BANK2VOUT*%
X98090433Y-67290433D03*
%TO.P,U115,B4,BANK2VOUT*%
X99360433Y-67290433D03*
%TO.P,U115,B5,BANK2VOUT*%
X100630433Y-67290433D03*
%TO.P,U115,B6,BANK2VOUT*%
X101900433Y-67290433D03*
%TO.P,U115,B7,BANK1GND*%
%TO.N,GND*%
X103170433Y-67290433D03*
%TO.P,U115,B8,BANK1GND*%
X104440433Y-67290433D03*
%TO.P,U115,B9,BANK1GND*%
X105710433Y-67290433D03*
%TO.P,U115,B10,BANK1GND*%
X106980433Y-67290433D03*
%TO.P,U115,B11,BANK1GND*%
X108250433Y-67290433D03*
%TO.P,U115,C1,BANK2VOUT*%
%TO.N,Net-(R458-Pad2)*%
X95550433Y-68560433D03*
%TO.P,U115,C2,BANK2VOUT*%
X96820433Y-68560433D03*
%TO.P,U115,C3,BANK2VOUT*%
X98090433Y-68560433D03*
%TO.P,U115,C4,BANK2VOUT*%
X99360433Y-68560433D03*
%TO.P,U115,C5,BANK2VOUT*%
X100630433Y-68560433D03*
%TO.P,U115,C6,BANK2VOUT*%
X101900433Y-68560433D03*
%TO.P,U115,C7,BANK1GND*%
%TO.N,GND*%
X103170433Y-68560433D03*
%TO.P,U115,C8,BANK1GND*%
X104440433Y-68560433D03*
%TO.P,U115,C9,BANK1GND*%
X105710433Y-68560433D03*
%TO.P,U115,C10,BANK1GND*%
X106980433Y-68560433D03*
%TO.P,U115,C11,BANK1GND*%
X108250433Y-68560433D03*
%TO.P,U115,D1,IOUT*%
%TO.N,Net-(U115-IOUT)*%
X95550433Y-69830433D03*
%TO.P,U115,D2,BANK1GND*%
%TO.N,GND*%
X96820433Y-69830433D03*
%TO.P,U115,D3,BANK1GND*%
X98090433Y-69830433D03*
%TO.P,U115,D4,BANK1GND*%
X99360433Y-69830433D03*
%TO.P,U115,D5,BANK1GND*%
X100630433Y-69830433D03*
%TO.P,U115,D6,BANK1GND*%
X101900433Y-69830433D03*
%TO.P,U115,D7,BANK1GND*%
X103170433Y-69830433D03*
%TO.P,U115,D8,BANK1GND*%
X104440433Y-69830433D03*
%TO.P,U115,D9,BANK1GND*%
X105710433Y-69830433D03*
%TO.P,U115,D10,BANK1GND*%
X106980433Y-69830433D03*
%TO.P,U115,D11,BANK1GND*%
X108250433Y-69830433D03*
%TO.P,U115,E1,BANK1GND*%
X95550433Y-71100433D03*
%TO.P,U115,E2,BANK1GND*%
X96820433Y-71100433D03*
%TO.P,U115,E3,BANK1GND*%
X98090433Y-71100433D03*
%TO.P,U115,E4,BANK1GND*%
X99360433Y-71100433D03*
%TO.P,U115,E5,BANK1GND*%
X100630433Y-71100433D03*
%TO.P,U115,E6,BANK1GND*%
X101900433Y-71100433D03*
%TO.P,U115,E7,BANK1GND*%
X103170433Y-71100433D03*
%TO.P,U115,E8,BANK1GND*%
X104440433Y-71100433D03*
%TO.P,U115,E9,BANK1GND*%
X105710433Y-71100433D03*
%TO.P,U115,E10,BANK1GND*%
X106980433Y-71100433D03*
%TO.P,U115,E11,BANK1GND*%
X108250433Y-71100433D03*
%TO.P,U115,F1,LL*%
%TO.N,Net-(U115-LL)*%
X95550433Y-72370433D03*
%TO.P,U115,F2,BANK1GND*%
%TO.N,GND*%
X96820433Y-72370433D03*
%TO.P,U115,F3,BANK1GND*%
X98090433Y-72370433D03*
%TO.P,U115,F4,BANK1GND*%
X99360433Y-72370433D03*
%TO.P,U115,F5,BANK1GND*%
X100630433Y-72370433D03*
%TO.P,U115,F6,BANK1GND*%
X101900433Y-72370433D03*
%TO.P,U115,F7,BANK1GND*%
X103170433Y-72370433D03*
%TO.P,U115,F8,BANK1GND*%
X104440433Y-72370433D03*
%TO.P,U115,F9,BANK1GND*%
X105710433Y-72370433D03*
%TO.P,U115,F10,SVIN*%
%TO.N,VCC*%
X106980433Y-72370433D03*
%TO.P,U115,F11,SVIN*%
X108250433Y-72370433D03*
%TO.P,U115,G1,CLKOUT*%
%TO.N,unconnected-(U115-CLKOUT-PadG1)*%
X95550433Y-73640433D03*
%TO.P,U115,G2,MODE*%
%TO.N,Net-(U115-MODE)*%
X96820433Y-73640433D03*
%TO.P,U115,G3,BANK1GND*%
%TO.N,GND*%
X98090433Y-73640433D03*
%TO.P,U115,G4,BANK1GND*%
X99360433Y-73640433D03*
%TO.P,U115,G5,BANK1GND*%
X100630433Y-73640433D03*
%TO.P,U115,G6,BANK1GND*%
X101900433Y-73640433D03*
%TO.P,U115,G7,BANK1GND*%
X103170433Y-73640433D03*
%TO.P,U115,G8,BANK1GND*%
X104440433Y-73640433D03*
%TO.P,U115,G9,BANK1GND*%
X105710433Y-73640433D03*
%TO.P,U115,G10,BANK3VIN*%
%TO.N,VCC*%
X106980433Y-73640433D03*
%TO.P,U115,G11,BANK3VIN*%
X108250433Y-73640433D03*
%TO.P,U115,H1,RT*%
%TO.N,Net-(U115-RT)*%
X95550433Y-74910433D03*
%TO.P,U115,H2,SYNC*%
%TO.N,GND*%
X96820433Y-74910433D03*
%TO.P,U115,H3,BANK1GND*%
X98090433Y-74910433D03*
%TO.P,U115,H4,BANK1GND*%
X99360433Y-74910433D03*
%TO.P,U115,H5,BANK1GND*%
X100630433Y-74910433D03*
%TO.P,U115,H6,BANK1GND*%
X101900433Y-74910433D03*
%TO.P,U115,H7,BANK1GND*%
X103170433Y-74910433D03*
%TO.P,U115,H8,BANK1GND*%
X104440433Y-74910433D03*
%TO.P,U115,H9,BANK1GND*%
X105710433Y-74910433D03*
%TO.P,U115,H10,BANK3VIN*%
%TO.N,VCC*%
X106980433Y-74910433D03*
%TO.P,U115,H11,BANK3VIN*%
X108250433Y-74910433D03*
%TO.P,U115,J1,FB*%
%TO.N,12V-FB*%
X95550433Y-76180433D03*
%TO.P,U115,J2,COMP*%
%TO.N,unconnected-(U115-COMP-PadJ2)*%
X96820433Y-76180433D03*
%TO.P,U115,J3,BANK1GND*%
%TO.N,GND*%
X98090433Y-76180433D03*
%TO.P,U115,J4,BANK1GND*%
X99360433Y-76180433D03*
%TO.P,U115,J5,BANK1GND*%
X100630433Y-76180433D03*
%TO.P,U115,J6,BANK1GND*%
X101900433Y-76180433D03*
%TO.P,U115,J7,BANK1GND*%
X103170433Y-76180433D03*
%TO.P,U115,J8,BANK1GND*%
X104440433Y-76180433D03*
%TO.P,U115,J9,BANK1GND*%
X105710433Y-76180433D03*
%TO.P,U115,J10,BANK3VIN*%
%TO.N,VCC*%
X106980433Y-76180433D03*
%TO.P,U115,J11,BANK3VIN*%
X108250433Y-76180433D03*
%TO.P,U115,K1,SS*%
%TO.N,Net-(U115-SS)*%
X95550433Y-77450433D03*
%TO.P,U115,K2,CTL*%
%TO.N,Net-(U115-CTL)*%
X96820433Y-77450433D03*
%TO.P,U115,K3,BANK1GND*%
%TO.N,GND*%
X98090433Y-77450433D03*
%TO.P,U115,K4,BANK1GND*%
X99360433Y-77450433D03*
%TO.P,U115,K5,BANK1GND*%
X100630433Y-77450433D03*
%TO.P,U115,K6,BANK1GND*%
X101900433Y-77450433D03*
%TO.P,U115,K7,BANK1GND*%
X103170433Y-77450433D03*
%TO.P,U115,K8,BANK1GND*%
X104440433Y-77450433D03*
%TO.P,U115,K9,BANK1GND*%
X105710433Y-77450433D03*
%TO.P,U115,K10,BANK3VIN*%
%TO.N,VCC*%
X106980433Y-77450433D03*
%TO.P,U115,K11,BANK3VIN*%
X108250433Y-77450433D03*
%TO.P,U115,L1,GND*%
%TO.N,GND*%
X95550433Y-78720433D03*
%TO.P,U115,L2,IOUTMON*%
%TO.N,MCU-12V-IOUTMON*%
X96820433Y-78720433D03*
%TO.P,U115,L3,IINMON*%
%TO.N,MCU-12V-IINMON*%
X98090433Y-78720433D03*
%TO.P,U115,L4,RUN*%
%TO.N,MCU-12V-EN-BUCK*%
X99360433Y-78720433D03*
%TO.P,U115,L5,BANK1GND*%
%TO.N,GND*%
X100630433Y-78720433D03*
%TO.P,U115,L6,BANK1GND*%
X101900433Y-78720433D03*
%TO.P,U115,L7,BANK1GND*%
X103170433Y-78720433D03*
%TO.P,U115,L8,BANK1GND*%
X104440433Y-78720433D03*
%TO.P,U115,L9,IIN*%
%TO.N,VCC*%
X105710433Y-78720433D03*
%TO.P,U115,L10,BANK3VIN*%
X106980433Y-78720433D03*
%TO.P,U115,L11,BANK3VIN*%
X108250433Y-78720433D03*
%TD*%
D49*
%TO.P,U112,1,NC*%
%TO.N,unconnected-(U112-NC-Pad1)*%
X88622500Y-23925000D03*
%TO.P,U112,2,VC9*%
%TO.N,/Battery BMS/VC3*%
X88622500Y-24425000D03*
%TO.P,U112,3,NC*%
%TO.N,unconnected-(U112-NC-Pad3)*%
X88622500Y-24925000D03*
%TO.P,U112,4,VC8*%
%TO.N,/Battery BMS/VC3*%
X88622500Y-25425000D03*
%TO.P,U112,5,NC*%
%TO.N,unconnected-(U112-NC-Pad5)*%
X88622500Y-25925000D03*
%TO.P,U112,6,VC7*%
%TO.N,/Battery BMS/VC3*%
X88622500Y-26425000D03*
%TO.P,U112,7,NC*%
%TO.N,unconnected-(U112-NC-Pad7)*%
X88622500Y-26925000D03*
%TO.P,U112,8,VC6*%
%TO.N,/Battery BMS/VC3*%
X88622500Y-27425000D03*
%TO.P,U112,9,NC*%
%TO.N,unconnected-(U112-NC-Pad9)*%
X88622500Y-27925000D03*
%TO.P,U112,10,VC5*%
%TO.N,/Battery BMS/VC3*%
X88622500Y-28425000D03*
%TO.P,U112,11,NC*%
%TO.N,unconnected-(U112-NC-Pad11)*%
X88622500Y-28925000D03*
%TO.P,U112,12,VC4*%
%TO.N,/Battery BMS/VC3*%
X88622500Y-29425000D03*
D50*
%TO.P,U112,13,VC3*%
X90035000Y-30837500D03*
%TO.P,U112,14,VC2*%
X90535000Y-30837500D03*
%TO.P,U112,15,VC1*%
%TO.N,/Battery BMS/VC1*%
X91035000Y-30837500D03*
%TO.P,U112,16,VC0*%
%TO.N,/Battery BMS/VC0*%
X91535000Y-30837500D03*
%TO.P,U112,17,VSS*%
%TO.N,VSS*%
X92035000Y-30837500D03*
%TO.P,U112,18,SRP*%
%TO.N,SRP*%
X92535000Y-30837500D03*
%TO.P,U112,19,NC*%
%TO.N,unconnected-(U112-NC-Pad19)*%
X93035000Y-30837500D03*
%TO.P,U112,20,SRN*%
%TO.N,SRN*%
X93535000Y-30837500D03*
%TO.P,U112,21,TS1*%
%TO.N,TEMP1*%
X94035000Y-30837500D03*
%TO.P,U112,22,TS2*%
%TO.N,BQ_WAKE*%
X94535000Y-30837500D03*
%TO.P,U112,23,TS3*%
%TO.N,TEMP2*%
X95035000Y-30837500D03*
%TO.P,U112,24,REG18*%
%TO.N,BQ-REG18*%
X95535000Y-30837500D03*
D49*
%TO.P,U112,25,ALERT*%
%TO.N,MCU-BQ-ALERT*%
X96947500Y-29425000D03*
%TO.P,U112,26,SCL*%
%TO.N,SCL_SLOW*%
X96947500Y-28925000D03*
%TO.P,U112,27,SDA*%
%TO.N,SDA_SLOW*%
X96947500Y-28425000D03*
%TO.P,U112,28,HDQ*%
%TO.N,unconnected-(U112-HDQ-Pad28)*%
X96947500Y-27925000D03*
%TO.P,U112,29,CFETOFF*%
%TO.N,unconnected-(U112-CFETOFF-Pad29)*%
X96947500Y-27425000D03*
%TO.P,U112,30,DFETOFF*%
%TO.N,unconnected-(U112-DFETOFF-Pad30)*%
X96947500Y-26925000D03*
%TO.P,U112,31,DCHG*%
%TO.N,unconnected-(U112-DCHG-Pad31)*%
X96947500Y-26425000D03*
%TO.P,U112,32,DDSG*%
%TO.N,unconnected-(U112-DDSG-Pad32)*%
X96947500Y-25925000D03*
%TO.P,U112,33,RST_SHUT*%
%TO.N,/Battery BMS/MCU-BQ-RST-SHUT*%
X96947500Y-25425000D03*
%TO.P,U112,34,REG2*%
%TO.N,Net-(U112-REG1)*%
X96947500Y-24925000D03*
%TO.P,U112,35,REG1*%
X96947500Y-24425000D03*
%TO.P,U112,36,REGIN*%
%TO.N,VSS*%
X96947500Y-23925000D03*
D50*
%TO.P,U112,37,BREG*%
X95535000Y-22512500D03*
%TO.P,U112,38,FUSE*%
%TO.N,unconnected-(U112-FUSE-Pad38)*%
X95035000Y-22512500D03*
%TO.P,U112,39,PDSG*%
%TO.N,PDSG*%
X94535000Y-22512500D03*
%TO.P,U112,40,PCHG*%
%TO.N,PCHG*%
X94035000Y-22512500D03*
%TO.P,U112,41,LD*%
%TO.N,Net-(U112-LD)*%
X93535000Y-22512500D03*
%TO.P,U112,42,PACK*%
%TO.N,Net-(U112-PACK)*%
X93035000Y-22512500D03*
%TO.P,U112,43,DSG*%
%TO.N,DSG*%
X92535000Y-22512500D03*
%TO.P,U112,44,NC*%
%TO.N,unconnected-(U112-NC-Pad44)*%
X92035000Y-22512500D03*
%TO.P,U112,45,CHG*%
%TO.N,CHG*%
X91535000Y-22512500D03*
%TO.P,U112,46,CP1*%
%TO.N,Net-(U112-CP1)*%
X91035000Y-22512500D03*
%TO.P,U112,47,BAT*%
%TO.N,Net-(U112-BAT)*%
X90535000Y-22512500D03*
%TO.P,U112,48,VC10*%
%TO.N,/Battery BMS/VC4*%
X90035000Y-22512500D03*
%TD*%
D51*
%TO.P,U103,1,1*%
%TO.N,Net-(U47-ANODE)*%
X16785000Y-145600500D03*
%TO.P,U103,2,2*%
%TO.N,GND*%
X21925000Y-145600500D03*
%TD*%
D52*
%TO.P,U81,1,1*%
%TO.N,SBUS_RECEIVER*%
X-4399567Y-43490500D03*
D53*
%TO.P,U81,2,2*%
%TO.N,MCU_ADC_PACKDIV*%
X-4399567Y-40950500D03*
%TO.P,U81,3,3*%
%TO.N,THROTTLE_PWM*%
X-1859567Y-43490500D03*
%TO.P,U81,4,4*%
%TO.N,BQ-ALERT*%
X-1859567Y-40950500D03*
%TO.P,U81,5,5*%
%TO.N,STEER_PWM*%
X680433Y-43490500D03*
%TO.P,U81,6,6*%
%TO.N,TS1*%
X680433Y-40950500D03*
%TO.P,U81,7,7*%
%TO.N,SPEED_PWM*%
X3220433Y-43490500D03*
%TO.P,U81,8,8*%
%TO.N,BTN_PWR*%
X3220433Y-40950500D03*
%TO.P,U81,9,9*%
%TO.N,DIFF_FRONT_PWM*%
X5760433Y-43490500D03*
%TO.P,U81,10,10*%
%TO.N,SCL_FAST*%
X5760433Y-40950500D03*
%TO.P,U81,11,11*%
%TO.N,DIFF_REAR_PWM*%
X8300433Y-43490500D03*
%TO.P,U81,12,12*%
%TO.N,SDA_FAST*%
X8300433Y-40950500D03*
%TO.P,U81,13,13*%
%TO.N,MCU_EN_3V3*%
X10840433Y-43490500D03*
%TO.P,U81,14,14*%
%TO.N,SDA_SLOW*%
X10840433Y-40950500D03*
%TO.P,U81,15,15*%
%TO.N,MCU_EN_12V*%
X13380433Y-43490500D03*
%TO.P,U81,16,16*%
%TO.N,SCL_SLOW*%
X13380433Y-40950500D03*
%TO.P,U81,17,17*%
%TO.N,MCU_EN_ESC*%
X15920433Y-43490500D03*
%TO.P,U81,18,18*%
%TO.N,CHG_ACTIVE*%
X15920433Y-40950500D03*
%TO.P,U81,19,19*%
%TO.N,MCU_EN_5V0*%
X18460433Y-43490500D03*
%TO.P,U81,20,20*%
%TO.N,CHG_DONE*%
X18460433Y-40950500D03*
%TO.P,U81,21,21*%
%TO.N,MCU_PMON_EN*%
X21000433Y-43490500D03*
%TO.P,U81,22,22*%
%TO.N,MCU_5V_IN_EXT*%
X21000433Y-40950500D03*
%TO.P,U81,23,23*%
%TO.N,MCU_CHARGEPUMP_EN*%
X23540433Y-43490500D03*
%TO.P,U81,24,24*%
%TO.N,GND*%
X23540433Y-40950500D03*
%TO.P,U81,25,25*%
%TO.N,MCU_PRECHARGE_EN*%
X26080433Y-43490500D03*
%TO.P,U81,26,26*%
%TO.N,unconnected-(U81-Pad26)*%
X26080433Y-40950500D03*
%TD*%
D54*
%TO.P,U49,1,1*%
%TO.N,5V_CUR_SNS+*%
X15822500Y-157965000D03*
%TO.P,U49,2,2*%
%TO.N,+5V*%
X18747500Y-157965000D03*
%TD*%
D22*
%TO.P,U47,1,VCAP*%
%TO.N,Net-(U47-VCAP)*%
X29687500Y-151180000D03*
%TO.P,U47,2,GND*%
%TO.N,GND*%
X29687500Y-152130000D03*
%TO.P,U47,3,EN*%
%TO.N,Net-(5Vbuck-6A1-EN)*%
X29687500Y-153080000D03*
%TO.P,U47,4,CATHODE*%
%TO.N,5V_CUR_SNS+*%
X31962500Y-153080000D03*
%TO.P,U47,5,GATE*%
%TO.N,Net-(Q32-G)*%
X31962500Y-152130000D03*
%TO.P,U47,6,ANODE*%
%TO.N,Net-(U47-ANODE)*%
X31962500Y-151180000D03*
%TD*%
D44*
%TO.P,U44,1,VG*%
%TO.N,Net-(U44-VG)*%
X128637500Y-65060000D03*
%TO.P,U44,2,PGND*%
%TO.N,GND*%
X128637500Y-65710000D03*
%TO.P,U44,3,GND*%
%TO.N,Net-(U44-GND)*%
X128637500Y-66360000D03*
%TO.P,U44,4,CHRG#*%
%TO.N,Net-(U44-CHRG#)*%
X128637500Y-67010000D03*
%TO.P,U44,5,DONE#*%
%TO.N,Net-(U44-DONE#)*%
X128637500Y-67660000D03*
%TO.P,U44,6,TEMP*%
%TO.N,Net-(U44-TEMP)*%
X128637500Y-68310000D03*
%TO.P,U44,7,MPPT*%
%TO.N,Net-(U44-MPPT)*%
X128637500Y-68960000D03*
%TO.P,U44,8,COM1*%
%TO.N,Net-(U44-COM1)*%
X128637500Y-69610000D03*
%TO.P,U44,9,COM2*%
%TO.N,Net-(U44-COM2)*%
X134362500Y-69610000D03*
%TO.P,U44,10,FB*%
%TO.N,Net-(U44-FB)*%
X134362500Y-68960000D03*
%TO.P,U44,11,COM3*%
%TO.N,Net-(U44-COM3)*%
X134362500Y-68310000D03*
%TO.P,U44,12,NC*%
%TO.N,unconnected-(U44-NC-Pad12)*%
X134362500Y-67660000D03*
%TO.P,U44,13,CSP*%
%TO.N,Net-(U44-CSP)*%
X134362500Y-67010000D03*
%TO.P,U44,14,BAT*%
%TO.N,CHG+*%
X134362500Y-66360000D03*
%TO.P,U44,15,VCC*%
%TO.N,IN-CHARGING-VCC-LIMITED*%
X134362500Y-65710000D03*
%TO.P,U44,16,DRV*%
%TO.N,Net-(U44-DRV)*%
X134362500Y-65060000D03*
%TD*%
D27*
%TO.P,U43,1,D+*%
%TO.N,Net-(D83-IO3)*%
X93537500Y-143005000D03*
%TO.P,U43,2,D-*%
%TO.N,Net-(D83-IO4)*%
X93537500Y-143505000D03*
%TO.P,U43,3,CC1*%
%TO.N,Net-(D83-IO1)*%
X93537500Y-144005000D03*
%TO.P,U43,4,CC2*%
%TO.N,Net-(D83-IO2)*%
X93537500Y-144505000D03*
D28*
%TO.P,U43,5,VDD*%
%TO.N,Net-(U176-VCCB)*%
X94250000Y-145217500D03*
%TO.P,U43,6,DBG_N*%
%TO.N,Net-(U43-DBG_N)*%
X94750000Y-145217500D03*
%TO.P,U43,7,EN_HVDCP/OUT1*%
%TO.N,Net-(U43-EN_HVDCP{slash}OUT1)*%
X95250000Y-145217500D03*
%TO.P,U43,8,ADDR/ORIENT*%
%TO.N,Net-(U43-ADDR{slash}ORIENT)*%
X95750000Y-145217500D03*
D27*
%TO.P,U43,9,SDA/SNK_VSET*%
%TO.N,Net-(U179-B)*%
X96462500Y-144505000D03*
%TO.P,U43,10,SCL/SNK_ISET*%
%TO.N,Net-(U178-B)*%
X96462500Y-144005000D03*
%TO.P,U43,11,INT_N*%
%TO.N,MCU-HUSB238A_INT*%
X96462500Y-143505000D03*
%TO.P,U43,12,EN_N*%
%TO.N,MCU-HUSB238A_EN_N*%
X96462500Y-143005000D03*
D28*
%TO.P,U43,13,FAULT/OUT2*%
%TO.N,unconnected-(U43-FAULT{slash}OUT2-Pad13)*%
X95750000Y-142292500D03*
%TO.P,U43,14,FLGIN*%
%TO.N,unconnected-(U43-FLGIN-Pad14)*%
X95250000Y-142292500D03*
%TO.P,U43,15,GATE*%
%TO.N,Net-(U43-GATE)*%
X94750000Y-142292500D03*
%TO.P,U43,16,VBUS*%
%TO.N,Net-(D39-K)*%
X94250000Y-142292500D03*
D29*
%TO.P,U43,17,GND*%
%TO.N,GND*%
X95000000Y-143755000D03*
%TD*%
D55*
%TO.P,THR_STR_SPD1,1,1*%
%TO.N,THROTTLE_PWM*%
X33301433Y-22537000D03*
%TO.P,THR_STR_SPD1,2,2*%
%TO.N,STEER_PWM*%
X30761433Y-22537000D03*
%TO.P,THR_STR_SPD1,3,3*%
%TO.N,SPEED_PWM*%
X28221433Y-22537000D03*
%TO.P,THR_STR_SPD1,4,4*%
%TO.N,Net-(ESC-6V2-Pad2)*%
X33301433Y-25077000D03*
%TO.P,THR_STR_SPD1,5,5*%
%TO.N,Net-(DIFF_DIFR_SBUS1-Pad4)*%
X30761433Y-25077000D03*
%TO.P,THR_STR_SPD1,6,6*%
X28221433Y-25077000D03*
%TO.P,THR_STR_SPD1,7,7*%
%TO.N,GND*%
X33301433Y-27617000D03*
%TO.P,THR_STR_SPD1,8,8*%
X30761433Y-27617000D03*
%TO.P,THR_STR_SPD1,9,9*%
X28221433Y-27617000D03*
%TD*%
D56*
%TO.P,SW11,1,1*%
%TO.N,unconnected-(SW11-Pad1)*%
X72695000Y-43120500D03*
%TO.P,SW11,2,2*%
%TO.N,BTN_LOW*%
X79495000Y-43120500D03*
%TO.P,SW11,3,3*%
%TO.N,BTN_HIGH*%
X79495000Y-40120500D03*
%TO.P,SW11,4,4*%
%TO.N,unconnected-(SW11-Pad4)*%
X72695000Y-40120500D03*
%TD*%
D57*
%TO.P,SW8,1,1*%
%TO.N,EN_USBC_I2C*%
X63365433Y-154155000D03*
%TO.P,SW8,2,2*%
%TO.N,TS1*%
X64635433Y-154155000D03*
%TO.P,SW8,3,3*%
%TO.N,unconnected-(SW8-Pad3)*%
X65905433Y-154155000D03*
%TO.P,SW8,4,4*%
%TO.N,unconnected-(SW8-Pad4)*%
X67175433Y-154155000D03*
%TO.P,SW8,5,5*%
%TO.N,unconnected-(SW8-Pad5)*%
X67175433Y-146535000D03*
%TO.P,SW8,6,6*%
%TO.N,unconnected-(SW8-Pad6)*%
X65905433Y-146535000D03*
%TO.P,SW8,7,7*%
%TO.N,BQ-TS1_SIMULATE_NTC*%
X64635433Y-146535000D03*
%TO.P,SW8,8,8*%
%TO.N,Net-(R181-Pad1)*%
X63365433Y-146535000D03*
%TD*%
D58*
%TO.P,RN1,1,1*%
%TO.N,MCU-CUR1-INA3221-POWERVALID*%
X61770500Y-43690000D03*
D59*
%TO.P,RN1,2,2*%
%TO.N,MCU-CUR1-INA3221-CRITICAL*%
X62570500Y-43690000D03*
%TO.P,RN1,3,3*%
%TO.N,MCU-CUR1-INA3221-WARNING*%
X63370500Y-43690000D03*
D58*
%TO.P,RN1,4,4*%
%TO.N,MCU-CUR1-INA3221-TC*%
X64170500Y-43690000D03*
%TO.P,RN1,5,5*%
%TO.N,+3V3*%
X64170500Y-42090000D03*
D59*
%TO.P,RN1,6,6*%
X63370500Y-42090000D03*
%TO.P,RN1,7,7*%
X62570500Y-42090000D03*
D58*
%TO.P,RN1,8,8*%
X61770500Y-42090000D03*
%TD*%
D60*
%TO.P,R563,1,1*%
%TO.N,GND*%
X123920000Y-89695000D03*
%TO.P,R563,2,2*%
%TO.N,Net-(U216-ON)*%
X125570000Y-89695000D03*
%TD*%
%TO.P,R562,1,1*%
%TO.N,Net-(U216-ON)*%
X123920000Y-87185000D03*
%TO.P,R562,2,2*%
%TO.N,VCC*%
X125570000Y-87185000D03*
%TD*%
%TO.P,R561,1,1*%
%TO.N,VCC*%
X123920000Y-84675000D03*
%TO.P,R561,2,2*%
%TO.N,Net-(D87-K)*%
X125570000Y-84675000D03*
%TD*%
%TO.P,R560,1,1*%
%TO.N,Net-(Q71-D)*%
X123920000Y-82165000D03*
%TO.P,R560,2,2*%
%TO.N,Net-(Q72-S)*%
X125570000Y-82165000D03*
%TD*%
%TO.P,R559,1,1*%
%TO.N,GND*%
X123920000Y-79655000D03*
%TO.P,R559,2,2*%
%TO.N,Net-(D87-K)*%
X125570000Y-79655000D03*
%TD*%
%TO.P,R558,1,1*%
%TO.N,Net-(U186-CS)*%
X133140000Y-147375000D03*
%TO.P,R558,2,2*%
%TO.N,+3V3*%
X134790000Y-147375000D03*
%TD*%
D61*
%TO.P,R556,1,1*%
%TO.N,Net-(D86-K)*%
X-5107500Y-106615000D03*
%TO.P,R556,2,2*%
%TO.N,+12V*%
X817500Y-106615000D03*
%TD*%
%TO.P,R555,1,1*%
%TO.N,Net-(D85-K)*%
X-5107500Y-101705000D03*
%TO.P,R555,2,2*%
%TO.N,+12V*%
X817500Y-101705000D03*
%TD*%
%TO.P,R554,1,1*%
%TO.N,Net-(D84-K)*%
X-5107500Y-96795000D03*
%TO.P,R554,2,2*%
%TO.N,+12V*%
X817500Y-96795000D03*
%TD*%
D62*
%TO.P,R553,1,1*%
%TO.N,Net-(R540-Pad1)*%
X8015000Y-104645000D03*
%TO.P,R553,2,2*%
%TO.N,Net-(D85-K)*%
X8655000Y-104645000D03*
%TD*%
%TO.P,R552,1,1*%
%TO.N,Net-(R541-Pad1)*%
X8015000Y-102895000D03*
%TO.P,R552,2,2*%
%TO.N,+12V*%
X8655000Y-102895000D03*
%TD*%
%TO.P,R551,1,1*%
%TO.N,Net-(D84-K)*%
X8015000Y-101145000D03*
%TO.P,R551,2,2*%
%TO.N,Net-(R543-Pad2)*%
X8655000Y-101145000D03*
%TD*%
%TO.P,R550,1,1*%
%TO.N,Net-(R542-Pad2)*%
X5565000Y-104645000D03*
%TO.P,R550,2,2*%
%TO.N,+12V*%
X6205000Y-104645000D03*
%TD*%
%TO.P,R549,1,1*%
%TO.N,Net-(R544-Pad1)*%
X5565000Y-102895000D03*
%TO.P,R549,2,2*%
%TO.N,+12V*%
X6205000Y-102895000D03*
%TD*%
%TO.P,R548,1,1*%
%TO.N,Net-(R545-Pad1)*%
X5565000Y-101145000D03*
%TO.P,R548,2,2*%
%TO.N,Net-(D86-K)*%
X6205000Y-101145000D03*
%TD*%
D63*
%TO.P,R547,1,1*%
%TO.N,Net-(CUR_4-A0)*%
X31555000Y-94695000D03*
%TO.P,R547,2,2*%
%TO.N,GND*%
X32575000Y-94695000D03*
%TD*%
%TO.P,R546,1,1*%
%TO.N,CUR_1_PV*%
X31555000Y-92705000D03*
%TO.P,R546,2,2*%
%TO.N,CUR_1_VPU*%
X32575000Y-92705000D03*
%TD*%
%TO.P,R545,1,1*%
%TO.N,Net-(R545-Pad1)*%
X31555000Y-90715000D03*
%TO.P,R545,2,2*%
%TO.N,Net-(CUR_4-IN-1)*%
X32575000Y-90715000D03*
%TD*%
%TO.P,R544,1,1*%
%TO.N,Net-(R544-Pad1)*%
X31555000Y-88725000D03*
%TO.P,R544,2,2*%
%TO.N,Net-(CUR_4-IN+1)*%
X32575000Y-88725000D03*
%TD*%
%TO.P,R543,1,1*%
%TO.N,Net-(CUR_4-IN-2)*%
X31555000Y-86735000D03*
%TO.P,R543,2,2*%
%TO.N,Net-(R543-Pad2)*%
X32575000Y-86735000D03*
%TD*%
%TO.P,R542,1,1*%
%TO.N,Net-(CUR_4-IN+2)*%
X31555000Y-84745000D03*
%TO.P,R542,2,2*%
%TO.N,Net-(R542-Pad2)*%
X32575000Y-84745000D03*
%TD*%
%TO.P,R541,1,1*%
%TO.N,Net-(R541-Pad1)*%
X31555000Y-82755000D03*
%TO.P,R541,2,2*%
%TO.N,Net-(CUR_4-IN+3)*%
X32575000Y-82755000D03*
%TD*%
%TO.P,R540,1,1*%
%TO.N,Net-(R540-Pad1)*%
X31555000Y-80765000D03*
%TO.P,R540,2,2*%
%TO.N,Net-(CUR_4-IN-3)*%
X32575000Y-80765000D03*
%TD*%
D60*
%TO.P,R539,1,1*%
%TO.N,Net-(U43-ADDR{slash}ORIENT)*%
X96410000Y-160585000D03*
%TO.P,R539,2,2*%
%TO.N,EN_USBC_I2C*%
X98060000Y-160585000D03*
%TD*%
%TO.P,R538,1,1*%
%TO.N,MCU-TPS-SHDN#*%
X53520000Y-125835000D03*
%TO.P,R538,2,2*%
%TO.N,+3V3*%
X55170000Y-125835000D03*
%TD*%
%TO.P,R536,1,1*%
%TO.N,MCU-TPS-FAULT*%
X53520000Y-123325000D03*
%TO.P,R536,2,2*%
%TO.N,+3V3*%
X55170000Y-123325000D03*
%TD*%
%TO.P,R535,1,1*%
%TO.N,GND*%
X53520000Y-120815000D03*
%TO.P,R535,2,2*%
%TO.N,MCU-TPS-IMON-ANALOG*%
X55170000Y-120815000D03*
%TD*%
%TO.P,R534,1,1*%
%TO.N,Net-(U211-ALERT{slash}RDY)*%
X53520000Y-118305000D03*
%TO.P,R534,2,2*%
%TO.N,+3V3*%
X55170000Y-118305000D03*
%TD*%
%TO.P,R531,1,1*%
%TO.N,Net-(U210-INB-)*%
X93030000Y-119545000D03*
%TO.P,R531,2,2*%
%TO.N,Net-(U210-VDD)*%
X94680000Y-119545000D03*
%TD*%
%TO.P,R530,1,1*%
%TO.N,GND*%
X93030000Y-117035000D03*
%TO.P,R530,2,2*%
%TO.N,Net-(U210-INB-)*%
X94680000Y-117035000D03*
%TD*%
%TO.P,R529,1,1*%
%TO.N,Net-(Q63-S)*%
X93030000Y-114525000D03*
%TO.P,R529,2,2*%
%TO.N,Net-(Q69-G)*%
X94680000Y-114525000D03*
%TD*%
%TO.P,R528,1,1*%
%TO.N,Net-(U210-INA+)*%
X93030000Y-112015000D03*
%TO.P,R528,2,2*%
%TO.N,Net-(U210-VDD)*%
X94680000Y-112015000D03*
%TD*%
%TO.P,R527,1,1*%
%TO.N,GND*%
X93030000Y-109505000D03*
%TO.P,R527,2,2*%
%TO.N,Net-(U210-INA+)*%
X94680000Y-109505000D03*
%TD*%
%TO.P,R525,1,1*%
%TO.N,Net-(U206-Y)*%
X120100000Y-46995000D03*
%TO.P,R525,2,2*%
%TO.N,Net-(H5-Pad2)*%
X121750000Y-46995000D03*
%TD*%
%TO.P,R524,1,1*%
%TO.N,Net-(U204-Y)*%
X120100000Y-44485000D03*
%TO.P,R524,2,2*%
%TO.N,Net-(U205-DIN1)*%
X121750000Y-44485000D03*
%TD*%
D61*
%TO.P,R522,1,1*%
%TO.N,Net-(D18-K)*%
X41812500Y-47845000D03*
%TO.P,R522,2,2*%
%TO.N,+12V*%
X47737500Y-47845000D03*
%TD*%
%TO.P,R521,1,1*%
%TO.N,Net-(D17-K)*%
X41812500Y-42935000D03*
%TO.P,R521,2,2*%
%TO.N,+12V*%
X47737500Y-42935000D03*
%TD*%
%TO.P,R520,1,1*%
%TO.N,Net-(D16-K)*%
X41812500Y-38025000D03*
%TO.P,R520,2,2*%
%TO.N,+12V*%
X47737500Y-38025000D03*
%TD*%
D60*
%TO.P,R519,1,1*%
%TO.N,GND*%
X-5320000Y-129895000D03*
%TO.P,R519,2,2*%
%TO.N,Net-(D82-IO4)*%
X-3670000Y-129895000D03*
%TD*%
%TO.P,R518,1,1*%
%TO.N,GND*%
X-5320000Y-127385000D03*
%TO.P,R518,2,2*%
%TO.N,Net-(D82-IO3)*%
X-3670000Y-127385000D03*
%TD*%
D64*
%TO.P,R517,1,1*%
%TO.N,Net-(U182-VIN+)*%
X120166000Y-111798000D03*
%TO.P,R517,2,2*%
%TO.N,/Connectors ESC/VCC_ESC*%
X127786000Y-111798000D03*
%TD*%
D60*
%TO.P,R516,1,1*%
%TO.N,MCU-0X44-INA226-ESC-ALERT*%
X118560000Y-124125000D03*
%TO.P,R516,2,2*%
%TO.N,+3V3*%
X120210000Y-124125000D03*
%TD*%
%TO.P,R515,1,1*%
%TO.N,GND*%
X13320000Y-56845000D03*
%TO.P,R515,2,2*%
%TO.N,Net-(U155-SET)*%
X14970000Y-56845000D03*
%TD*%
%TO.P,R514,1,1*%
%TO.N,GND*%
X13320000Y-54335000D03*
%TO.P,R514,2,2*%
%TO.N,#MCU-EN-SERVO_VCC*%
X14970000Y-54335000D03*
%TD*%
%TO.P,R513,1,1*%
%TO.N,Net-(U181-VS)*%
X13320000Y-51825000D03*
%TO.P,R513,2,2*%
%TO.N,SERVO-VCC-DIODED*%
X14970000Y-51825000D03*
%TD*%
%TO.P,R512,1,1*%
%TO.N,GND*%
X117910000Y-86945000D03*
%TO.P,R512,2,2*%
%TO.N,#MCU-EN-12V-DIODE*%
X119560000Y-86945000D03*
%TD*%
%TO.P,R511,1,1*%
%TO.N,Net-(U180-VS)*%
X117910000Y-84435000D03*
%TO.P,R511,2,2*%
%TO.N,+12V*%
X119560000Y-84435000D03*
%TD*%
%TO.P,R510,1,1*%
%TO.N,GNDA*%
X330000Y-152795000D03*
%TO.P,R510,2,2*%
%TO.N,Net-(U173-SPSP)*%
X1980000Y-152795000D03*
%TD*%
%TO.P,R509,1,1*%
%TO.N,MCU-POWERGOOD-TPS-POWER-SERVO*%
X330000Y-150285000D03*
%TO.P,R509,2,2*%
%TO.N,+3V3*%
X1980000Y-150285000D03*
%TD*%
%TO.P,R508,1,1*%
%TO.N,MCU_EN_ESC*%
X53860000Y-151285000D03*
%TO.P,R508,2,2*%
%TO.N,Net-(U141-P1_1)*%
X55510000Y-151285000D03*
%TD*%
%TO.P,R507,1,1*%
%TO.N,MCU-BTN-DIGITAL*%
X53860000Y-148775000D03*
%TO.P,R507,2,2*%
%TO.N,Net-(U141-P0_7)*%
X55510000Y-148775000D03*
%TD*%
%TO.P,R506,1,1*%
%TO.N,MCU-CHG-ACTIVE*%
X53860000Y-146265000D03*
%TO.P,R506,2,2*%
%TO.N,Net-(U141-P0_4)*%
X55510000Y-146265000D03*
%TD*%
%TO.P,R505,1,1*%
%TO.N,MCU-CHG-DONE*%
X49850000Y-156305000D03*
%TO.P,R505,2,2*%
%TO.N,Net-(U141-P0_3)*%
X51500000Y-156305000D03*
%TD*%
%TO.P,R504,1,1*%
%TO.N,MCU-POWERGOOD-TPS-POWER-SERVO*%
X49850000Y-153795000D03*
%TO.P,R504,2,2*%
%TO.N,Net-(U141-P1_3)*%
X51500000Y-153795000D03*
%TD*%
%TO.P,R502,1,1*%
%TO.N,GNDA*%
X330000Y-147775000D03*
%TO.P,R502,2,2*%
%TO.N,Net-(U173-RT)*%
X1980000Y-147775000D03*
%TD*%
%TO.P,R501,1,1*%
%TO.N,MCU-EN-TPS-POWER-SERVO*%
X49850000Y-151285000D03*
%TO.P,R501,2,2*%
%TO.N,Net-(U141-P1_2)*%
X51500000Y-151285000D03*
%TD*%
D63*
%TO.P,R500,1,1*%
%TO.N,MCU-EN-TPS-POWER-SERVO*%
X95000Y-159025000D03*
%TO.P,R500,2,2*%
%TO.N,GNDA*%
X1115000Y-159025000D03*
%TD*%
%TO.P,R498,1,1*%
%TO.N,GNDA*%
X95000Y-157035000D03*
%TO.P,R498,2,2*%
%TO.N,Net-(U173-MODE)*%
X1115000Y-157035000D03*
%TD*%
D60*
%TO.P,R497,1,1*%
%TO.N,MCU_EN_ESC*%
X118560000Y-121615000D03*
%TO.P,R497,2,2*%
%TO.N,GND*%
X120210000Y-121615000D03*
%TD*%
%TO.P,R496,1,1*%
%TO.N,MCU-HUSB238A-I2C-RELAY-EN*%
X49850000Y-148775000D03*
%TO.P,R496,2,2*%
%TO.N,Net-(U141-P1_0)*%
X51500000Y-148775000D03*
%TD*%
%TO.P,R495,1,1*%
%TO.N,BQ-REG18*%
X84280000Y-32295000D03*
%TO.P,R495,2,2*%
%TO.N,VSS*%
X85930000Y-32295000D03*
%TD*%
%TO.P,R494,1,1*%
%TO.N,MCU-HUSB238A_EN_N*%
X96410000Y-158075000D03*
%TO.P,R494,2,2*%
%TO.N,GND*%
X98060000Y-158075000D03*
%TD*%
%TO.P,R493,1,1*%
%TO.N,MCU-HUSB238A-I2C-RELAY-EN*%
X96410000Y-155565000D03*
%TO.P,R493,2,2*%
%TO.N,GND*%
X98060000Y-155565000D03*
%TD*%
%TO.P,R492,1,1*%
%TO.N,SCL_FAST*%
X89020000Y-124565000D03*
%TO.P,R492,2,2*%
%TO.N,+3V3*%
X90670000Y-124565000D03*
%TD*%
%TO.P,R491,1,1*%
%TO.N,SDA_FAST*%
X89020000Y-122055000D03*
%TO.P,R491,2,2*%
%TO.N,+3V3*%
X90670000Y-122055000D03*
%TD*%
%TO.P,R490,1,1*%
%TO.N,SDA_SLOW*%
X89020000Y-119545000D03*
%TO.P,R490,2,2*%
%TO.N,+3V3*%
X90670000Y-119545000D03*
%TD*%
%TO.P,R489,1,1*%
%TO.N,unconnected-(R489-Pad1)*%
X89020000Y-117035000D03*
%TO.P,R489,2,2*%
%TO.N,+3V3*%
X90670000Y-117035000D03*
%TD*%
%TO.P,R485,1,1*%
%TO.N,MCU-HUSB238A_INT*%
X49850000Y-146265000D03*
%TO.P,R485,2,2*%
%TO.N,Net-(U141-P0_5)*%
X51500000Y-146265000D03*
%TD*%
%TO.P,R484,1,1*%
%TO.N,MCU-HUSB238A_INT*%
X96410000Y-153055000D03*
%TO.P,R484,2,2*%
%TO.N,+3V3*%
X98060000Y-153055000D03*
%TD*%
%TO.P,R483,1,1*%
%TO.N,GNDA*%
X330000Y-145265000D03*
%TO.P,R483,2,2*%
%TO.N,Net-(U173-FB)*%
X1980000Y-145265000D03*
%TD*%
D63*
%TO.P,R482,1,1*%
%TO.N,Net-(U173-FB)*%
X95000Y-155045000D03*
%TO.P,R482,2,2*%
%TO.N,+SERVO_VCC*%
X1115000Y-155045000D03*
%TD*%
D60*
%TO.P,R481,1,1*%
%TO.N,Net-(U173-CBOOT)*%
X330000Y-142755000D03*
%TO.P,R481,2,2*%
%TO.N,Net-(U173-RBOOT)*%
X1980000Y-142755000D03*
%TD*%
%TO.P,R480,1,1*%
%TO.N,BTN_LOW*%
X45840000Y-156305000D03*
%TO.P,R480,2,2*%
%TO.N,Net-(U141-P0_6)*%
X47490000Y-156305000D03*
%TD*%
D54*
%TO.P,R478,1,1*%
%TO.N,Net-(U112-BAT)*%
X88452500Y-44815000D03*
%TO.P,R478,2,2*%
%TO.N,Net-(D71-Pad1)*%
X91377500Y-44815000D03*
%TD*%
D60*
%TO.P,R477,1,1*%
%TO.N,GND*%
X96410000Y-150545000D03*
%TO.P,R477,2,2*%
%TO.N,Net-(U178-B)*%
X98060000Y-150545000D03*
%TD*%
%TO.P,R475,1,1*%
%TO.N,MCU-BTN-DIGITAL*%
X45840000Y-153795000D03*
%TO.P,R475,2,2*%
%TO.N,Net-(U141-P0_2)*%
X47490000Y-153795000D03*
%TD*%
%TO.P,R474,1,1*%
%TO.N,MCU-BQ-RST-SHUT*%
X45840000Y-151285000D03*
%TO.P,R474,2,2*%
%TO.N,Net-(U141-P0_1)*%
X47490000Y-151285000D03*
%TD*%
%TO.P,R473,1,1*%
%TO.N,/Battery BMS/MCU-BQ-RST-SHUT*%
X84280000Y-29785000D03*
%TO.P,R473,2,2*%
%TO.N,VSS*%
X85930000Y-29785000D03*
%TD*%
%TO.P,R472,1,1*%
%TO.N,MCU-BQ-ALERT*%
X45840000Y-148775000D03*
%TO.P,R472,2,2*%
%TO.N,Net-(U141-P0_0)*%
X47490000Y-148775000D03*
%TD*%
%TO.P,R471,1,1*%
%TO.N,MCU-BQ-ALERT*%
X84280000Y-27275000D03*
%TO.P,R471,2,2*%
%TO.N,PB_3V3*%
X85930000Y-27275000D03*
%TD*%
%TO.P,R470,1,1*%
%TO.N,MCU-3V3-EN*%
X89020000Y-114525000D03*
%TO.P,R470,2,2*%
%TO.N,GND*%
X90670000Y-114525000D03*
%TD*%
D61*
%TO.P,R469,1,1*%
%TO.N,Net-(R458-Pad2)*%
X111592500Y-75745000D03*
%TO.P,R469,2,2*%
%TO.N,Net-(U115-IOUT)*%
X117517500Y-75745000D03*
%TD*%
D60*
%TO.P,R468,1,1*%
%TO.N,MCU-12V-EN-BUCK*%
X117910000Y-81925000D03*
%TO.P,R468,2,2*%
%TO.N,SWITCH-12V-EN-BUCK*%
X119560000Y-81925000D03*
%TD*%
%TO.P,R467,1,1*%
%TO.N,GND*%
X113900000Y-91965000D03*
%TO.P,R467,2,2*%
%TO.N,MCU-12V-EN-BUCK*%
X115550000Y-91965000D03*
%TD*%
%TO.P,R465,1,1*%
%TO.N,GND*%
X49510000Y-135875000D03*
%TO.P,R465,2,2*%
%TO.N,#EN-USBC-DIODE*%
X51160000Y-135875000D03*
%TD*%
%TO.P,R464,1,1*%
%TO.N,GND*%
X49510000Y-133365000D03*
%TO.P,R464,2,2*%
%TO.N,#EN-PACK+-VCC-DIODE*%
X51160000Y-133365000D03*
%TD*%
%TO.P,R462,1,1*%
%TO.N,GND*%
X49510000Y-130855000D03*
%TO.P,R462,2,2*%
%TO.N,#EN-DC-20V-DIODE*%
X51160000Y-130855000D03*
%TD*%
%TO.P,R461,1,1*%
%TO.N,GND*%
X49510000Y-128345000D03*
%TO.P,R461,2,2*%
%TO.N,#EN_IN-CHARGING-VCC-LIMITED-DIODE*%
X51160000Y-128345000D03*
%TD*%
%TO.P,R460,1,1*%
%TO.N,GND*%
X113900000Y-89455000D03*
%TO.P,R460,2,2*%
%TO.N,Net-(U115-RT)*%
X115550000Y-89455000D03*
%TD*%
%TO.P,R459,1,1*%
%TO.N,GND*%
X113900000Y-86945000D03*
%TO.P,R459,2,2*%
%TO.N,12V-FB*%
X115550000Y-86945000D03*
%TD*%
%TO.P,R458,1,1*%
%TO.N,12V-FB*%
X113900000Y-84435000D03*
%TO.P,R458,2,2*%
%TO.N,Net-(R458-Pad2)*%
X115550000Y-84435000D03*
%TD*%
D62*
%TO.P,R457,1,1*%
%TO.N,Net-(R455-Pad1)*%
X82695000Y-54015000D03*
%TO.P,R457,2,2*%
%TO.N,GFDFG*%
X83335000Y-54015000D03*
%TD*%
%TO.P,R456,1,1*%
%TO.N,Net-(R454-Pad1)*%
X82695000Y-52265000D03*
%TO.P,R456,2,2*%
%TO.N,DSGF*%
X83335000Y-52265000D03*
%TD*%
D63*
%TO.P,R455,1,1*%
%TO.N,Net-(R455-Pad1)*%
X74925000Y-58595000D03*
%TO.P,R455,2,2*%
%TO.N,Net-(CUR_2-IN-1)*%
X75945000Y-58595000D03*
%TD*%
%TO.P,R454,1,1*%
%TO.N,Net-(R454-Pad1)*%
X74925000Y-56605000D03*
%TO.P,R454,2,2*%
%TO.N,Net-(CUR_2-IN+1)*%
X75945000Y-56605000D03*
%TD*%
D62*
%TO.P,R453,1,1*%
%TO.N,Net-(R451-Pad1)*%
X82695000Y-50515000D03*
%TO.P,R453,2,2*%
%TO.N,GFDFG*%
X83335000Y-50515000D03*
%TD*%
%TO.P,R452,1,1*%
%TO.N,Net-(R450-Pad1)*%
X80245000Y-54015000D03*
%TO.P,R452,2,2*%
%TO.N,DSGF*%
X80885000Y-54015000D03*
%TD*%
D63*
%TO.P,R451,1,1*%
%TO.N,Net-(R451-Pad1)*%
X74925000Y-54615000D03*
%TO.P,R451,2,2*%
%TO.N,Net-(C243-Pad1)*%
X75945000Y-54615000D03*
%TD*%
%TO.P,R450,1,1*%
%TO.N,Net-(R450-Pad1)*%
X74925000Y-52625000D03*
%TO.P,R450,2,2*%
%TO.N,Net-(C243-Pad2)*%
X75945000Y-52625000D03*
%TD*%
D62*
%TO.P,R449,1,1*%
%TO.N,Net-(R447-Pad1)*%
X80245000Y-52265000D03*
%TO.P,R449,2,2*%
%TO.N,GFDFG*%
X80885000Y-52265000D03*
%TD*%
%TO.P,R448,1,1*%
%TO.N,Net-(R446-Pad1)*%
X80245000Y-50515000D03*
%TO.P,R448,2,2*%
%TO.N,DSGF*%
X80885000Y-50515000D03*
%TD*%
D63*
%TO.P,R447,1,1*%
%TO.N,Net-(R447-Pad1)*%
X74925000Y-50635000D03*
%TO.P,R447,2,2*%
%TO.N,Net-(CUR_2-IN+3)*%
X75945000Y-50635000D03*
%TD*%
%TO.P,R446,1,1*%
%TO.N,Net-(R446-Pad1)*%
X72015000Y-60585000D03*
%TO.P,R446,2,2*%
%TO.N,Net-(CUR_2-IN-3)*%
X73035000Y-60585000D03*
%TD*%
D60*
%TO.P,R445,1,1*%
%TO.N,MCU-RECEIVER-EN*%
X13320000Y-49315000D03*
%TO.P,R445,2,2*%
%TO.N,Net-(U155-EN)*%
X14970000Y-49315000D03*
%TD*%
%TO.P,R444,1,1*%
%TO.N,Net-(Q65-D)*%
X89020000Y-112015000D03*
%TO.P,R444,2,2*%
%TO.N,Net-(D64-K)*%
X90670000Y-112015000D03*
%TD*%
D63*
%TO.P,R443,1,1*%
%TO.N,MCU-PIN-IC-INT*%
X52755000Y-158555000D03*
%TO.P,R443,2,2*%
%TO.N,+3V3*%
X53775000Y-158555000D03*
%TD*%
D60*
%TO.P,R442,1,1*%
%TO.N,DIFF_REAR_PWM*%
X106770000Y-157415000D03*
%TO.P,R442,2,2*%
%TO.N,Net-(U140-LED4)*%
X108420000Y-157415000D03*
%TD*%
%TO.P,R441,1,1*%
%TO.N,DIFF_FRONT_PWM*%
X106770000Y-154905000D03*
%TO.P,R441,2,2*%
%TO.N,Net-(U140-LED3)*%
X108420000Y-154905000D03*
%TD*%
%TO.P,R440,1,1*%
%TO.N,SPEED_PWM*%
X106770000Y-152395000D03*
%TO.P,R440,2,2*%
%TO.N,Net-(U140-LED2)*%
X108420000Y-152395000D03*
%TD*%
%TO.P,R439,1,1*%
%TO.N,STEER_PWM*%
X106770000Y-149885000D03*
%TO.P,R439,2,2*%
%TO.N,Net-(U140-LED1)*%
X108420000Y-149885000D03*
%TD*%
%TO.P,R438,1,1*%
%TO.N,THROTTLE_PWM*%
X106770000Y-147375000D03*
%TO.P,R438,2,2*%
%TO.N,Net-(U140-LED0)*%
X108420000Y-147375000D03*
%TD*%
D63*
%TO.P,R437,1,1*%
%TO.N,Net-(U140-OE#)*%
X114895000Y-152045000D03*
%TO.P,R437,2,2*%
%TO.N,GND*%
X115915000Y-152045000D03*
%TD*%
%TO.P,R436,1,1*%
%TO.N,Net-(U140-A0)*%
X114895000Y-150055000D03*
%TO.P,R436,2,2*%
%TO.N,+3V3*%
X115915000Y-150055000D03*
%TD*%
%TO.P,R435,1,1*%
%TO.N,GND*%
X114895000Y-148065000D03*
%TO.P,R435,2,2*%
%TO.N,Net-(U140-A1)*%
X115915000Y-148065000D03*
%TD*%
%TO.P,R434,1,1*%
%TO.N,GND*%
X114895000Y-146075000D03*
%TO.P,R434,2,2*%
%TO.N,Net-(U140-A4)*%
X115915000Y-146075000D03*
%TD*%
%TO.P,R433,1,1*%
%TO.N,GND*%
X114895000Y-144085000D03*
%TO.P,R433,2,2*%
%TO.N,Net-(U140-A3)*%
X115915000Y-144085000D03*
%TD*%
%TO.P,R432,1,1*%
%TO.N,GND*%
X114895000Y-142095000D03*
%TO.P,R432,2,2*%
%TO.N,Net-(U140-A2)*%
X115915000Y-142095000D03*
%TD*%
%TO.P,R431,1,1*%
%TO.N,Net-(CUR_3-A0)*%
X72015000Y-58595000D03*
%TO.P,R431,2,2*%
%TO.N,SCL_FAST*%
X73035000Y-58595000D03*
%TD*%
%TO.P,R430,1,1*%
%TO.N,Net-(CUR_2-A0)*%
X72015000Y-56605000D03*
%TO.P,R430,2,2*%
%TO.N,+3V3*%
X73035000Y-56605000D03*
%TD*%
D60*
%TO.P,R428,1,1*%
%TO.N,Net-(U147-EN)*%
X89020000Y-109505000D03*
%TO.P,R428,2,2*%
%TO.N,Net-(D64-K)*%
X90670000Y-109505000D03*
%TD*%
%TO.P,R427,1,1*%
%TO.N,Net-(U157-A)*%
X13320000Y-46805000D03*
%TO.P,R427,2,2*%
%TO.N,Net-(U155-EN)*%
X14970000Y-46805000D03*
%TD*%
%TO.P,R426,1,1*%
%TO.N,Net-(U155-EN)*%
X9310000Y-59355000D03*
%TO.P,R426,2,2*%
%TO.N,+3V3*%
X10960000Y-59355000D03*
%TD*%
%TO.P,R424,1,1*%
%TO.N,Net-(U154-RT)*%
X85010000Y-124565000D03*
%TO.P,R424,2,2*%
%TO.N,GND*%
X86660000Y-124565000D03*
%TD*%
%TO.P,R423,1,1*%
%TO.N,Net-(U154-FB)*%
X85010000Y-122055000D03*
%TO.P,R423,2,2*%
%TO.N,+3V3*%
X86660000Y-122055000D03*
%TD*%
%TO.P,R422,1,1*%
%TO.N,GND*%
X85010000Y-119545000D03*
%TO.P,R422,2,2*%
%TO.N,Net-(U154-FB)*%
X86660000Y-119545000D03*
%TD*%
%TO.P,R418,1,1*%
%TO.N,MCU-BTN-DIGITAL*%
X84280000Y-24765000D03*
%TO.P,R418,2,2*%
%TO.N,VSS*%
X85930000Y-24765000D03*
%TD*%
%TO.P,R417,1,1*%
%TO.N,MCU-VCC-KICKSTART*%
X85010000Y-117035000D03*
%TO.P,R417,2,2*%
%TO.N,Net-(Q63-S)*%
X86660000Y-117035000D03*
%TD*%
%TO.P,R416,1,1*%
%TO.N,Net-(U112-REG1)*%
X84280000Y-22255000D03*
%TO.P,R416,2,2*%
%TO.N,VSS*%
X85930000Y-22255000D03*
%TD*%
%TO.P,R414,1,1*%
%TO.N,Net-(U152-VS)*%
X49510000Y-125835000D03*
%TO.P,R414,2,2*%
%TO.N,VCC*%
X51160000Y-125835000D03*
%TD*%
%TO.P,R413,1,1*%
%TO.N,Net-(U151-VS)*%
X49510000Y-123325000D03*
%TO.P,R413,2,2*%
%TO.N,IN-CHARGING-VCC*%
X51160000Y-123325000D03*
%TD*%
%TO.P,R412,1,1*%
%TO.N,Net-(U150-VS)*%
X49510000Y-120815000D03*
%TO.P,R412,2,2*%
%TO.N,IN-CHARGING-VCC*%
X51160000Y-120815000D03*
%TD*%
%TO.P,R410,1,1*%
%TO.N,GND*%
X49510000Y-118305000D03*
%TO.P,R410,2,2*%
%TO.N,Net-(U134-B)*%
X51160000Y-118305000D03*
%TD*%
%TO.P,R409,1,1*%
%TO.N,Net-(U134-B)*%
X45500000Y-135875000D03*
%TO.P,R409,2,2*%
%TO.N,Net-(U133-ILIM)*%
X47150000Y-135875000D03*
%TD*%
%TO.P,R407,1,1*%
%TO.N,Net-(U147-RT)*%
X85010000Y-114525000D03*
%TO.P,R407,2,2*%
%TO.N,GND*%
X86660000Y-114525000D03*
%TD*%
%TO.P,R405,1,1*%
%TO.N,Net-(U147-FB)*%
X85010000Y-112015000D03*
%TO.P,R405,2,2*%
%TO.N,Net-(U147-VOUT)*%
X86660000Y-112015000D03*
%TD*%
%TO.P,R404,1,1*%
%TO.N,GND*%
X85175000Y-105500000D03*
%TO.P,R404,2,2*%
%TO.N,Net-(U147-FB)*%
X86825000Y-105500000D03*
%TD*%
%TO.P,R401,1,1*%
%TO.N,Net-(U133-UVLO)*%
X45500000Y-133365000D03*
%TO.P,R401,2,2*%
%TO.N,IN-CHARGING-VCC*%
X47150000Y-133365000D03*
%TD*%
%TO.P,R400,1,1*%
%TO.N,Net-(U133-OVP)*%
X45500000Y-130855000D03*
%TO.P,R400,2,2*%
%TO.N,Net-(U133-UVLO)*%
X47150000Y-130855000D03*
%TD*%
%TO.P,R399,1,1*%
%TO.N,GND*%
X45500000Y-128345000D03*
%TO.P,R399,2,2*%
%TO.N,Net-(U133-OVP)*%
X47150000Y-128345000D03*
%TD*%
%TO.P,R393,1,1*%
%TO.N,Net-(U44-MPPT)*%
X123920000Y-70315000D03*
%TO.P,R393,2,2*%
%TO.N,IN-CHARGING-VCC-LIMITED*%
X125570000Y-70315000D03*
%TD*%
%TO.P,R392,1,1*%
%TO.N,Net-(U43-GATE)*%
X92400000Y-160585000D03*
%TO.P,R392,2,2*%
%TO.N,Net-(D62-A)*%
X94050000Y-160585000D03*
%TD*%
%TO.P,R391,1,1*%
%TO.N,Net-(U176-VCCB)*%
X92400000Y-158075000D03*
%TO.P,R391,2,2*%
%TO.N,Net-(D39-K)*%
X94050000Y-158075000D03*
%TD*%
D65*
%TO.P,R389,1,1*%
%TO.N,GND*%
X98942500Y-142575000D03*
%TO.P,R389,2,2*%
%TO.N,Net-(U179-B)*%
X100767500Y-142575000D03*
%TD*%
D60*
%TO.P,R385,1,1*%
%TO.N,Net-(D61-A)*%
X81000000Y-124565000D03*
%TO.P,R385,2,2*%
%TO.N,Net-(D61-K)*%
X82650000Y-124565000D03*
%TD*%
%TO.P,R384,1,1*%
%TO.N,Net-(Q63-D)*%
X81000000Y-122055000D03*
%TO.P,R384,2,2*%
%TO.N,Net-(D61-A)*%
X82650000Y-122055000D03*
%TD*%
%TO.P,R382,1,1*%
%TO.N,Net-(U127-VS)*%
X45500000Y-125835000D03*
%TO.P,R382,2,2*%
%TO.N,VCC*%
X47150000Y-125835000D03*
%TD*%
D64*
%TO.P,R378,1,1*%
%TO.N,BAT-*%
X62836000Y-101688000D03*
%TO.P,R378,2,2*%
%TO.N,GND*%
X70456000Y-101688000D03*
%TD*%
D60*
%TO.P,R377,1,1*%
%TO.N,Net-(U112-LD)*%
X80270000Y-37315000D03*
%TO.P,R377,2,2*%
%TO.N,PACK+*%
X81920000Y-37315000D03*
%TD*%
%TO.P,R376,1,1*%
%TO.N,Net-(U112-PACK)*%
X80270000Y-34805000D03*
%TO.P,R376,2,2*%
%TO.N,PACK+*%
X81920000Y-34805000D03*
%TD*%
%TO.P,R375,1,1*%
%TO.N,VSS*%
X80270000Y-32295000D03*
%TO.P,R375,2,2*%
%TO.N,BTN_LOW*%
X81920000Y-32295000D03*
%TD*%
%TO.P,R374,1,1*%
%TO.N,BTN_HIGH*%
X80270000Y-29785000D03*
%TO.P,R374,2,2*%
%TO.N,BQ_WAKE*%
X81920000Y-29785000D03*
%TD*%
D63*
%TO.P,R370,1,1*%
%TO.N,PACK+*%
X127245000Y-123945000D03*
%TO.P,R370,2,2*%
%TO.N,Net-(Q46-D)*%
X128265000Y-123945000D03*
%TD*%
D60*
%TO.P,R368,1,1*%
%TO.N,PDSG*%
X73260000Y-90755000D03*
%TO.P,R368,2,2*%
%TO.N,Net-(Q45-G)*%
X74910000Y-90755000D03*
%TD*%
%TO.P,R367,1,1*%
%TO.N,CHG+*%
X73260000Y-88245000D03*
%TO.P,R367,2,2*%
%TO.N,Net-(Q45-G)*%
X74910000Y-88245000D03*
%TD*%
%TO.P,R365,1,1*%
%TO.N,PACK+*%
X73260000Y-85735000D03*
%TO.P,R365,2,2*%
%TO.N,Net-(Q44-D)*%
X74910000Y-85735000D03*
%TD*%
%TO.P,R364,1,1*%
%TO.N,Net-(D47-Pad2)*%
X73260000Y-83225000D03*
%TO.P,R364,2,2*%
%TO.N,Net-(D49-A)*%
X74910000Y-83225000D03*
%TD*%
%TO.P,R363,1,1*%
%TO.N,Net-(D46-Pad1)*%
X73260000Y-80715000D03*
%TO.P,R363,2,2*%
%TO.N,Net-(D47-Pad2)*%
X74910000Y-80715000D03*
%TD*%
%TO.P,R362,1,1*%
%TO.N,DSG*%
X69250000Y-90755000D03*
%TO.P,R362,2,2*%
%TO.N,Net-(D46-Pad1)*%
X70900000Y-90755000D03*
%TD*%
%TO.P,R361,1,1*%
%TO.N,/Battery Power/DSG_G*%
X69250000Y-88245000D03*
%TO.P,R361,2,2*%
%TO.N,Net-(Q43-D)*%
X70900000Y-88245000D03*
%TD*%
%TO.P,R360,1,1*%
%TO.N,Net-(D45-A)*%
X69250000Y-85735000D03*
%TO.P,R360,2,2*%
%TO.N,PACK-*%
X70900000Y-85735000D03*
%TD*%
%TO.P,R359,1,1*%
%TO.N,PACK+*%
X69250000Y-83225000D03*
%TO.P,R359,2,2*%
%TO.N,Net-(D44-C)*%
X70900000Y-83225000D03*
%TD*%
%TO.P,R358,1,1*%
%TO.N,Net-(D42-C)*%
X69250000Y-80715000D03*
%TO.P,R358,2,2*%
%TO.N,Net-(Q41-G)*%
X70900000Y-80715000D03*
%TD*%
%TO.P,R357,1,1*%
%TO.N,Net-(Q42-G)*%
X65240000Y-90755000D03*
%TO.P,R357,2,2*%
%TO.N,/Battery Power/DSG_G*%
X66890000Y-90755000D03*
%TD*%
%TO.P,R355,1,1*%
%TO.N,PACK+*%
X65240000Y-88245000D03*
%TO.P,R355,2,2*%
%TO.N,/Battery Power/DSG_G*%
X66890000Y-88245000D03*
%TD*%
%TO.P,R354,1,1*%
%TO.N,CHG*%
X65240000Y-85735000D03*
%TO.P,R354,2,2*%
%TO.N,Net-(D42-C)*%
X66890000Y-85735000D03*
%TD*%
%TO.P,R353,1,1*%
%TO.N,BAT+*%
X65240000Y-83225000D03*
%TO.P,R353,2,2*%
%TO.N,Net-(D42-C)*%
X66890000Y-83225000D03*
%TD*%
D63*
%TO.P,R351,1,1*%
%TO.N,GND*%
X71245000Y-75345000D03*
%TO.P,R351,2,2*%
%TO.N,SHUNT_N*%
X72265000Y-75345000D03*
%TD*%
%TO.P,R350,1,1*%
%TO.N,BAT-*%
X71245000Y-73355000D03*
%TO.P,R350,2,2*%
%TO.N,SHUNT_P*%
X72265000Y-73355000D03*
%TD*%
D60*
%TO.P,R349,1,1*%
%TO.N,SHUNT_P*%
X80270000Y-27275000D03*
%TO.P,R349,2,2*%
%TO.N,SRP*%
X81920000Y-27275000D03*
%TD*%
%TO.P,R348,1,1*%
%TO.N,SHUNT_N*%
X80270000Y-24765000D03*
%TO.P,R348,2,2*%
%TO.N,SRN*%
X81920000Y-24765000D03*
%TD*%
%TO.P,R346,1,1*%
%TO.N,CELL-GND*%
X80270000Y-22255000D03*
%TO.P,R346,2,2*%
%TO.N,/Battery BMS/VC0*%
X81920000Y-22255000D03*
%TD*%
%TO.P,R345,1,1*%
%TO.N,CELL1*%
X76260000Y-37315000D03*
%TO.P,R345,2,2*%
%TO.N,/Battery BMS/VC1*%
X77910000Y-37315000D03*
%TD*%
%TO.P,R344,1,1*%
%TO.N,CELL2*%
X76260000Y-34805000D03*
%TO.P,R344,2,2*%
%TO.N,/Battery BMS/VC3*%
X77910000Y-34805000D03*
%TD*%
%TO.P,R343,1,1*%
%TO.N,CELL3*%
X76260000Y-32295000D03*
%TO.P,R343,2,2*%
%TO.N,/Battery BMS/VC4*%
X77910000Y-32295000D03*
%TD*%
D54*
%TO.P,R342,1,1*%
%TO.N,Net-(U112-BAT)*%
X88452500Y-41505000D03*
%TO.P,R342,2,2*%
%TO.N,Net-(D40-Pad1)*%
X91377500Y-41505000D03*
%TD*%
D62*
%TO.P,R336,1,1*%
%TO.N,Net-(ESC1-K)*%
X59595000Y-156385000D03*
%TO.P,R336,2,2*%
%TO.N,GND*%
X60235000Y-156385000D03*
%TD*%
%TO.P,R310,1,1*%
%TO.N,MCU-EN-BIG-5V*%
X23835000Y-157605000D03*
%TO.P,R310,2,2*%
%TO.N,Net-(5Vbuck-6A1-EN)*%
X24475000Y-157605000D03*
%TD*%
%TO.P,R294,1,1*%
%TO.N,unconnected-(R294-Pad1)*%
X59595000Y-154635000D03*
%TO.P,R294,2,2*%
%TO.N,GND*%
X60235000Y-154635000D03*
%TD*%
%TO.P,R293,1,1*%
%TO.N,unconnected-(R293-Pad1)*%
X59595000Y-152885000D03*
%TO.P,R293,2,2*%
%TO.N,GND*%
X60235000Y-152885000D03*
%TD*%
%TO.P,R292,1,1*%
%TO.N,Net-(5V1-K)*%
X59595000Y-151135000D03*
%TO.P,R292,2,2*%
%TO.N,GND*%
X60235000Y-151135000D03*
%TD*%
%TO.P,R291,1,1*%
%TO.N,Net-(3V3-K)*%
X59595000Y-149385000D03*
%TO.P,R291,2,2*%
%TO.N,GND*%
X60235000Y-149385000D03*
%TD*%
%TO.P,R290,1,1*%
%TO.N,GND*%
X59595000Y-147635000D03*
%TO.P,R290,2,2*%
%TO.N,Net-(Q16-G)*%
X60235000Y-147635000D03*
%TD*%
%TO.P,R289,1,1*%
%TO.N,Net-(R145-Pad1)*%
X66305000Y-39945000D03*
%TO.P,R289,2,2*%
%TO.N,+12V*%
X66945000Y-39945000D03*
%TD*%
%TO.P,R288,1,1*%
%TO.N,Net-(R144-Pad1)*%
X66305000Y-38195000D03*
%TO.P,R288,2,2*%
%TO.N,Net-(D17-K)*%
X66945000Y-38195000D03*
%TD*%
%TO.P,R287,1,1*%
%TO.N,Net-(D16-K)*%
X66305000Y-36445000D03*
%TO.P,R287,2,2*%
%TO.N,Net-(R147-Pad2)*%
X66945000Y-36445000D03*
%TD*%
%TO.P,R286,1,1*%
%TO.N,Net-(R146-Pad2)*%
X63855000Y-39945000D03*
%TO.P,R286,2,2*%
%TO.N,+12V*%
X64495000Y-39945000D03*
%TD*%
%TO.P,R285,1,1*%
%TO.N,Net-(R148-Pad1)*%
X63855000Y-38195000D03*
%TO.P,R285,2,2*%
%TO.N,+12V*%
X64495000Y-38195000D03*
%TD*%
%TO.P,R284,1,1*%
%TO.N,Net-(R149-Pad1)*%
X63855000Y-36445000D03*
%TO.P,R284,2,2*%
%TO.N,Net-(D18-K)*%
X64495000Y-36445000D03*
%TD*%
D63*
%TO.P,R278,1,1*%
%TO.N,Net-(5Vbuck-6A1-BST)*%
X26325000Y-161955000D03*
%TO.P,R278,2,2*%
%TO.N,Net-(C140-Pad2)*%
X27345000Y-161955000D03*
%TD*%
D62*
%TO.P,R182,1,1*%
%TO.N,GND*%
X80725000Y-163455000D03*
%TO.P,R182,2,2*%
%TO.N,Net-(U43-DBG_N)*%
X81365000Y-163455000D03*
%TD*%
%TO.P,R181,1,1*%
%TO.N,Net-(R181-Pad1)*%
X59595000Y-145885000D03*
%TO.P,R181,2,2*%
%TO.N,GND*%
X60235000Y-145885000D03*
%TD*%
%TO.P,R180,1,1*%
%TO.N,Net-(U176-VCCB)*%
X80725000Y-161705000D03*
%TO.P,R180,2,2*%
%TO.N,Net-(U43-EN_HVDCP{slash}OUT1)*%
X81365000Y-161705000D03*
%TD*%
%TO.P,R176,1,1*%
%TO.N,GND*%
X23835000Y-155855000D03*
%TO.P,R176,2,2*%
%TO.N,Net-(5Vbuck-6A1-FB)*%
X24475000Y-155855000D03*
%TD*%
%TO.P,R175,1,1*%
%TO.N,Net-(5Vbuck-6A1-FB)*%
X23835000Y-154105000D03*
%TO.P,R175,2,2*%
%TO.N,unconnected-(R175-Pad2)*%
X24475000Y-154105000D03*
%TD*%
D60*
%TO.P,R174,1,1*%
%TO.N,GND*%
X123920000Y-67805000D03*
%TO.P,R174,2,2*%
%TO.N,Net-(U44-GND)*%
X125570000Y-67805000D03*
%TD*%
D63*
%TO.P,R149,1,1*%
%TO.N,Net-(R149-Pad1)*%
X50075000Y-48505000D03*
%TO.P,R149,2,2*%
%TO.N,Net-(CUR_1-IN-1)*%
X51095000Y-48505000D03*
%TD*%
%TO.P,R148,1,1*%
%TO.N,Net-(R148-Pad1)*%
X50075000Y-46515000D03*
%TO.P,R148,2,2*%
%TO.N,Net-(CUR_1-IN+1)*%
X51095000Y-46515000D03*
%TD*%
%TO.P,R147,1,1*%
%TO.N,Net-(CUR_1-IN-2)*%
X50075000Y-44525000D03*
%TO.P,R147,2,2*%
%TO.N,Net-(R147-Pad2)*%
X51095000Y-44525000D03*
%TD*%
%TO.P,R146,1,1*%
%TO.N,Net-(CUR_1-IN+2)*%
X50075000Y-42535000D03*
%TO.P,R146,2,2*%
%TO.N,Net-(R146-Pad2)*%
X51095000Y-42535000D03*
%TD*%
%TO.P,R145,1,1*%
%TO.N,Net-(R145-Pad1)*%
X50075000Y-40545000D03*
%TO.P,R145,2,2*%
%TO.N,Net-(CUR_1-IN+3)*%
X51095000Y-40545000D03*
%TD*%
%TO.P,R144,1,1*%
%TO.N,Net-(R144-Pad1)*%
X50075000Y-38555000D03*
%TO.P,R144,2,2*%
%TO.N,Net-(CUR_1-IN-3)*%
X51095000Y-38555000D03*
%TD*%
D62*
%TO.P,R101,1,1*%
%TO.N,Net-(D62-A)*%
X80725000Y-159955000D03*
%TO.P,R101,2,2*%
%TO.N,Net-(D39-K)*%
X81365000Y-159955000D03*
%TD*%
D63*
%TO.P,R87,1,1*%
%TO.N,Net-(R87-Pad1)*%
X123685000Y-72565000D03*
%TO.P,R87,2,2*%
%TO.N,+3V3*%
X124705000Y-72565000D03*
%TD*%
D60*
%TO.P,R80,1,1*%
%TO.N,Net-(U44-FB)*%
X123920000Y-65295000D03*
%TO.P,R80,2,2*%
%TO.N,CHG+*%
X125570000Y-65295000D03*
%TD*%
D63*
%TO.P,R71,1,1*%
%TO.N,Net-(CUR_1-A0)*%
X50075000Y-36565000D03*
%TO.P,R71,2,2*%
%TO.N,GND*%
X51095000Y-36565000D03*
%TD*%
%TO.P,R69,1,1*%
%TO.N,CUR_1_TC*%
X72015000Y-54615000D03*
%TO.P,R69,2,2*%
%TO.N,+3V3*%
X73035000Y-54615000D03*
%TD*%
%TO.P,R68,1,1*%
%TO.N,CUR_1_CRIT*%
X72015000Y-52625000D03*
%TO.P,R68,2,2*%
%TO.N,+3V3*%
X73035000Y-52625000D03*
%TD*%
%TO.P,R67,1,1*%
%TO.N,CUR_1_WARN*%
X72015000Y-50635000D03*
%TO.P,R67,2,2*%
%TO.N,+3V3*%
X73035000Y-50635000D03*
%TD*%
%TO.P,R60,1,1*%
%TO.N,Net-(BMSACTIVE1-A)*%
X72675000Y-149985000D03*
%TO.P,R60,2,2*%
%TO.N,BQ-REGOUT*%
X73695000Y-149985000D03*
%TD*%
%TO.P,R59,1,1*%
%TO.N,Net-(BMSALERT1-A)*%
X72675000Y-147995000D03*
%TO.P,R59,2,2*%
%TO.N,BQ-REGOUT*%
X73695000Y-147995000D03*
%TD*%
%TO.P,R57,1,1*%
%TO.N,Net-(Q16-G)*%
X72675000Y-146005000D03*
%TO.P,R57,2,2*%
%TO.N,BQ-ALERT*%
X73695000Y-146005000D03*
%TD*%
D66*
%TO.P,Q72,1,G*%
%TO.N,Net-(Q71-D)*%
X128267500Y-84125000D03*
%TO.P,Q72,2,S*%
%TO.N,Net-(Q72-S)*%
X128267500Y-86025000D03*
%TO.P,Q72,3,D*%
%TO.N,unconnected-(Q72-D-Pad3)*%
X130142500Y-85075000D03*
%TD*%
%TO.P,Q71,1,G*%
%TO.N,Net-(D87-K)*%
X128267500Y-79675000D03*
%TO.P,Q71,2,S*%
%TO.N,GND*%
X128267500Y-81575000D03*
%TO.P,Q71,3,D*%
%TO.N,Net-(Q71-D)*%
X130142500Y-80625000D03*
%TD*%
%TO.P,Q69,1,G*%
%TO.N,Net-(Q69-G)*%
X106507500Y-122875000D03*
%TO.P,Q69,2,S*%
%TO.N,GND*%
X106507500Y-124775000D03*
%TO.P,Q69,3,D*%
%TO.N,Net-(Q63-S)*%
X108382500Y-123825000D03*
%TD*%
D67*
%TO.P,Q68,1,S*%
%TO.N,+SERVO_VCC*%
X28052000Y-58805000D03*
%TO.P,Q68,2,S*%
X29322000Y-58805000D03*
%TO.P,Q68,3,S*%
X30592000Y-58805000D03*
%TO.P,Q68,4,G*%
%TO.N,Net-(Q68-G)*%
X31862000Y-58805000D03*
%TO.P,Q68,5,D*%
%TO.N,SERVO-VCC-DIODED*%
X31867000Y-53305000D03*
%TO.P,Q68,6,D*%
X30597000Y-53305000D03*
%TO.P,Q68,7,D*%
X29327000Y-53305000D03*
%TO.P,Q68,8,D*%
X28057000Y-53305000D03*
D68*
%TO.P,Q68,9,D*%
X29959500Y-55409000D03*
%TD*%
D67*
%TO.P,Q67,1,S*%
%TO.N,Net-(U115-IOUT)*%
X84692000Y-95605000D03*
%TO.P,Q67,2,S*%
X85962000Y-95605000D03*
%TO.P,Q67,3,S*%
X87232000Y-95605000D03*
%TO.P,Q67,4,G*%
%TO.N,Net-(Q67-G)*%
X88502000Y-95605000D03*
%TO.P,Q67,5,D*%
%TO.N,+12V*%
X88507000Y-90105000D03*
%TO.P,Q67,6,D*%
X87237000Y-90105000D03*
%TO.P,Q67,7,D*%
X85967000Y-90105000D03*
%TO.P,Q67,8,D*%
X84697000Y-90105000D03*
D68*
%TO.P,Q67,9,D*%
X86599500Y-92209000D03*
%TD*%
D66*
%TO.P,Q65,1,G*%
%TO.N,MCU-3V3-EN*%
X106507500Y-118425000D03*
%TO.P,Q65,2,S*%
%TO.N,GND*%
X106507500Y-120325000D03*
%TO.P,Q65,3,D*%
%TO.N,Net-(Q65-D)*%
X108382500Y-119375000D03*
%TD*%
%TO.P,Q64,1,G*%
%TO.N,MCU-BTN-DIGITAL*%
X82637500Y-44465000D03*
%TO.P,Q64,2,S*%
%TO.N,BTN_LOW*%
X82637500Y-46365000D03*
%TO.P,Q64,3,D*%
%TO.N,BTN_HIGH*%
X84512500Y-45415000D03*
%TD*%
%TO.P,Q63,1,G*%
%TO.N,MCU-VCC-KICKSTART*%
X106507500Y-113975000D03*
%TO.P,Q63,2,S*%
%TO.N,Net-(Q63-S)*%
X106507500Y-115875000D03*
%TO.P,Q63,3,D*%
%TO.N,Net-(Q63-D)*%
X108382500Y-114925000D03*
%TD*%
D67*
%TO.P,Q62,1,S*%
%TO.N,PACK+*%
X61824500Y-115125000D03*
%TO.P,Q62,2,S*%
X63094500Y-115125000D03*
%TO.P,Q62,3,S*%
X64364500Y-115125000D03*
%TO.P,Q62,4,G*%
%TO.N,Net-(Q62-G)*%
X65634500Y-115125000D03*
%TO.P,Q62,5,D*%
%TO.N,VCC*%
X65639500Y-109625000D03*
%TO.P,Q62,6,D*%
X64369500Y-109625000D03*
%TO.P,Q62,7,D*%
X63099500Y-109625000D03*
%TO.P,Q62,8,D*%
X61829500Y-109625000D03*
D68*
%TO.P,Q62,9,D*%
X63732000Y-111729000D03*
%TD*%
D67*
%TO.P,Q61,1,S*%
%TO.N,Net-(D67-K)*%
X55157000Y-115125000D03*
%TO.P,Q61,2,S*%
X56427000Y-115125000D03*
%TO.P,Q61,3,S*%
X57697000Y-115125000D03*
%TO.P,Q61,4,G*%
%TO.N,Net-(Q61-G)*%
X58967000Y-115125000D03*
%TO.P,Q61,5,D*%
%TO.N,IN-CHARGING-VCC*%
X58972000Y-109625000D03*
%TO.P,Q61,6,D*%
X57702000Y-109625000D03*
%TO.P,Q61,7,D*%
X56432000Y-109625000D03*
%TO.P,Q61,8,D*%
X55162000Y-109625000D03*
D68*
%TO.P,Q61,9,D*%
X57064500Y-111729000D03*
%TD*%
D67*
%TO.P,Q60,1,S*%
%TO.N,IN-CHARGING-VCC-USBC*%
X48489500Y-115125000D03*
%TO.P,Q60,2,S*%
X49759500Y-115125000D03*
%TO.P,Q60,3,S*%
X51029500Y-115125000D03*
%TO.P,Q60,4,G*%
%TO.N,Net-(Q60-G)*%
X52299500Y-115125000D03*
%TO.P,Q60,5,D*%
%TO.N,IN-CHARGING-VCC*%
X52304500Y-109625000D03*
%TO.P,Q60,6,D*%
X51034500Y-109625000D03*
%TO.P,Q60,7,D*%
X49764500Y-109625000D03*
%TO.P,Q60,8,D*%
X48494500Y-109625000D03*
D68*
%TO.P,Q60,9,D*%
X50397000Y-111729000D03*
%TD*%
D67*
%TO.P,Q58,1,S*%
%TO.N,IN-CHARGING-VCC-LIMITED*%
X41822000Y-115125000D03*
%TO.P,Q58,2,S*%
X43092000Y-115125000D03*
%TO.P,Q58,3,S*%
X44362000Y-115125000D03*
%TO.P,Q58,4,G*%
%TO.N,Net-(Q58-G)*%
X45632000Y-115125000D03*
%TO.P,Q58,5,D*%
%TO.N,VCC*%
X45637000Y-109625000D03*
%TO.P,Q58,6,D*%
X44367000Y-109625000D03*
%TO.P,Q58,7,D*%
X43097000Y-109625000D03*
%TO.P,Q58,8,D*%
X41827000Y-109625000D03*
D68*
%TO.P,Q58,9,D*%
X43729500Y-111729000D03*
%TD*%
D69*
%TO.P,Q56,1,G*%
%TO.N,Net-(D62-A)*%
X81695000Y-142990000D03*
D70*
%TO.P,Q56,2,D*%
%TO.N,IN-CHARGING-VCC-USBC*%
X87995000Y-145270000D03*
D69*
%TO.P,Q56,3,S*%
%TO.N,Net-(D39-K)*%
X81695000Y-147550000D03*
%TD*%
D66*
%TO.P,Q54,1,G*%
%TO.N,Net-(D61-A)*%
X106507500Y-109525000D03*
%TO.P,Q54,2,S*%
%TO.N,Net-(D61-K)*%
X106507500Y-111425000D03*
%TO.P,Q54,3,D*%
%TO.N,VCC-KICKSTART*%
X108382500Y-110475000D03*
%TD*%
%TO.P,Q46,1,G*%
%TO.N,MCU_EN_ESC*%
X122907500Y-121215000D03*
%TO.P,Q46,2,S*%
%TO.N,GND*%
X122907500Y-123115000D03*
%TO.P,Q46,3,D*%
%TO.N,Net-(Q46-D)*%
X124782500Y-122165000D03*
%TD*%
D71*
%TO.P,Q45,1,G*%
%TO.N,Net-(Q45-G)*%
X72075000Y-65940000D03*
%TO.P,Q45,2,D*%
%TO.N,Net-(Q45-D-Pad2)*%
X72075000Y-68240000D03*
D72*
X78375000Y-68240000D03*
D71*
%TO.P,Q45,3,S*%
%TO.N,CHG+*%
X72075000Y-70540000D03*
%TD*%
D66*
%TO.P,Q44,1,G*%
%TO.N,Net-(D49-A)*%
X55957500Y-102305000D03*
%TO.P,Q44,2,S*%
%TO.N,/Battery Power/DSG_G*%
X55957500Y-104205000D03*
%TO.P,Q44,3,D*%
%TO.N,Net-(Q44-D)*%
X57832500Y-103255000D03*
%TD*%
%TO.P,Q43,1,G*%
%TO.N,Net-(D44-C)*%
X55957500Y-97855000D03*
%TO.P,Q43,2,S*%
%TO.N,PACK+*%
X55957500Y-99755000D03*
%TO.P,Q43,3,D*%
%TO.N,Net-(Q43-D)*%
X57832500Y-98805000D03*
%TD*%
D73*
%TO.P,Q42,1,G*%
%TO.N,Net-(Q42-G)*%
X54367000Y-76831500D03*
D74*
%TO.P,Q42,2,S*%
%TO.N,PACK+*%
X59162000Y-76832000D03*
D75*
%TO.P,Q42,3,D*%
%TO.N,CHG+*%
X58576000Y-68977000D03*
%TD*%
D73*
%TO.P,Q41,1,G*%
%TO.N,Net-(Q41-G)*%
X42210000Y-76831500D03*
D74*
%TO.P,Q41,2,S*%
%TO.N,BAT+*%
X47005000Y-76832000D03*
D75*
%TO.P,Q41,3,D*%
%TO.N,CHG+*%
X46419000Y-68977000D03*
%TD*%
D76*
%TO.P,Q32,1,S*%
%TO.N,Net-(U47-ANODE)*%
X16230000Y-151185000D03*
%TO.P,Q32,2,S*%
X16230000Y-152455000D03*
%TO.P,Q32,3,S*%
X16230000Y-153725000D03*
%TO.P,Q32,4,G*%
%TO.N,Net-(Q32-G)*%
X16230000Y-154995000D03*
%TO.P,Q32,5,D*%
%TO.N,5V_CUR_SNS+*%
X21180000Y-154995000D03*
%TO.P,Q32,6,D*%
X21180000Y-153725000D03*
%TO.P,Q32,7,D*%
X21180000Y-152455000D03*
%TO.P,Q32,8,D*%
X21180000Y-151185000D03*
%TD*%
D66*
%TO.P,Q16,1,G*%
%TO.N,Net-(Q16-G)*%
X62657500Y-156955000D03*
%TO.P,Q16,2,S*%
%TO.N,GND*%
X62657500Y-158855000D03*
%TO.P,Q16,3,D*%
%TO.N,Net-(BMSALERT1-K)*%
X64532500Y-157905000D03*
%TD*%
D77*
%TO.P,L7,1,1*%
%TO.N,Net-(U191-VBUS)*%
X-5282500Y-124875000D03*
%TO.P,L7,2,2*%
%TO.N,+5V-USBC*%
X-3707500Y-124875000D03*
%TD*%
D78*
%TO.P,L6,1,1*%
%TO.N,Net-(5Vbuck-6A1-SW)*%
X26005000Y-145550500D03*
%TO.P,L6,2,2*%
%TO.N,Net-(U47-ANODE)*%
X31605000Y-145550500D03*
%TD*%
D79*
%TO.P,H6,1,1*%
%TO.N,Net-(Q63-S)*%
X97960433Y-137021433D03*
D80*
%TO.P,H6,2,2*%
%TO.N,GND*%
X100500433Y-137021433D03*
%TD*%
D79*
%TO.P,H5,1,1*%
%TO.N,Net-(H5-Pad1)*%
X121020433Y-50300500D03*
D80*
%TO.P,H5,2,2*%
%TO.N,Net-(H5-Pad2)*%
X123560433Y-50300500D03*
%TD*%
D81*
%TO.P,H4,1,1*%
%TO.N,GND*%
X7391366Y-27655000D03*
D30*
%TO.P,H4,2,2*%
%TO.N,3V3_RECEIVER*%
X7391366Y-25115000D03*
%TO.P,H4,3,3*%
%TO.N,SBUS_RECEIVER*%
X7391366Y-22575000D03*
%TO.P,H4,4,4*%
%TO.N,GND*%
X9931366Y-27655000D03*
%TO.P,H4,5,5*%
%TO.N,SERVO-VCC-DIODED*%
X9931366Y-25115000D03*
%TO.P,H4,6,6*%
%TO.N,EXTRA_SERVO1_PWM*%
X9931366Y-22575000D03*
%TO.P,H4,7,7*%
%TO.N,GND*%
X12471366Y-27655000D03*
%TO.P,H4,8,8*%
%TO.N,SERVO-VCC-DIODED*%
X12471366Y-25115000D03*
%TO.P,H4,9,9*%
%TO.N,EXTRA_SERVO2_PWM*%
X12471366Y-22575000D03*
%TO.P,H4,10,10*%
%TO.N,GND*%
X15011366Y-27655000D03*
%TO.P,H4,11,11*%
%TO.N,SERVO-VCC-DIODED*%
X15011366Y-25115000D03*
%TO.P,H4,12,12*%
%TO.N,EXTRA_SERVO3_PWM*%
X15011366Y-22575000D03*
%TD*%
D81*
%TO.P,H3,1,1*%
%TO.N,GND*%
X-4399567Y-27655000D03*
D30*
%TO.P,H3,2,2*%
%TO.N,Net-(ESC-6V1-Pad1)*%
X-4399567Y-25115000D03*
%TO.P,H3,3,3*%
%TO.N,THROTTLE_PWM*%
X-4399567Y-22575000D03*
%TO.P,H3,4,4*%
%TO.N,GND*%
X-1859567Y-27655000D03*
%TO.P,H3,5,5*%
%TO.N,SERVO-VCC-DIODED*%
X-1859567Y-25115000D03*
%TO.P,H3,6,6*%
%TO.N,STEER_PWM*%
X-1859567Y-22575000D03*
%TO.P,H3,7,7*%
%TO.N,GND*%
X680433Y-27655000D03*
%TO.P,H3,8,8*%
%TO.N,SERVO-VCC-DIODED*%
X680433Y-25115000D03*
%TO.P,H3,9,9*%
%TO.N,DIFF_FRONT_PWM*%
X680433Y-22575000D03*
%TO.P,H3,10,10*%
%TO.N,GND*%
X3220433Y-27655000D03*
%TO.P,H3,11,11*%
%TO.N,SERVO-VCC-DIODED*%
X3220433Y-25115000D03*
%TO.P,H3,12,12*%
%TO.N,SPEED_PWM*%
X3220433Y-22575000D03*
%TD*%
D79*
%TO.P,H2,1,1*%
%TO.N,Net-(U168-VOUT)*%
X95670433Y-94650500D03*
D80*
%TO.P,H2,2,2*%
%TO.N,Net-(U115-CTL)*%
X98210433Y-94650500D03*
%TD*%
D79*
%TO.P,H1,1,1*%
%TO.N,Net-(U147-VOUT)*%
X97960433Y-132890500D03*
D80*
%TO.P,H1,2,2*%
%TO.N,GND*%
X100500433Y-132890500D03*
%TD*%
D82*
%TO.P,F13,1,1*%
%TO.N,BAT+*%
X94119750Y-45068750D03*
%TO.P,F13,2,2*%
%TO.N,Net-(U153-IN)*%
X97009750Y-45068750D03*
%TD*%
%TO.P,F11,1,1*%
%TO.N,Net-(F10-Pad2)*%
X81219750Y-137256250D03*
%TO.P,F11,2,2*%
%TO.N,Net-(U210-VDD)*%
X84109750Y-137256250D03*
%TD*%
%TO.P,F10,1,1*%
%TO.N,BAT+*%
X81219750Y-133918750D03*
%TO.P,F10,2,2*%
%TO.N,Net-(F10-Pad2)*%
X84109750Y-133918750D03*
%TD*%
%TO.P,F9,1,1*%
%TO.N,Net-(BatBalConn1-Pad4)*%
X66019750Y-75721250D03*
%TO.P,F9,2,2*%
%TO.N,CELL-GND*%
X68909750Y-75721250D03*
%TD*%
%TO.P,F8,1,1*%
%TO.N,Net-(BatBalConn1-Pad3)*%
X66019750Y-72383750D03*
%TO.P,F8,2,2*%
%TO.N,CELL1*%
X68909750Y-72383750D03*
%TD*%
%TO.P,F7,1,1*%
%TO.N,Net-(BatBalConn1-Pad2)*%
X66019750Y-69046250D03*
%TO.P,F7,2,2*%
%TO.N,CELL2*%
X68909750Y-69046250D03*
%TD*%
%TO.P,F6,1,1*%
%TO.N,Net-(BatBalConn1-Pad1)*%
X66019750Y-65708750D03*
%TO.P,F6,2,2*%
%TO.N,CELL3*%
X68909750Y-65708750D03*
%TD*%
D83*
%TO.P,F1,1,1*%
%TO.N,Net-(-BatMains+1-+)*%
X63530433Y-95060500D03*
%TO.P,F1,2,2*%
X68530433Y-95060500D03*
%TO.P,F1,3,3*%
%TO.N,BAT+*%
X72730433Y-95060500D03*
%TO.P,F1,4,4*%
X77730433Y-95060500D03*
%TD*%
D12*
%TO.P,ESC1,1,K*%
%TO.N,Net-(ESC1-K)*%
X70330000Y-151928299D03*
%TO.P,ESC1,2,A*%
%TO.N,VCC_ESC*%
X70830000Y-151928299D03*
%TD*%
D79*
%TO.P,ESC-6V2,1,1*%
%TO.N,Net-(DIFF_DIFR_SBUS1-Pad4)*%
X18250433Y-59961433D03*
D80*
%TO.P,ESC-6V2,2,2*%
%TO.N,Net-(ESC-6V2-Pad2)*%
X20790433Y-59961433D03*
%TD*%
D79*
%TO.P,ESC-6V1,1,1*%
%TO.N,Net-(ESC-6V1-Pad1)*%
X18250433Y-55830500D03*
D80*
%TO.P,ESC-6V1,2,2*%
%TO.N,SERVO-VCC-DIODED*%
X20790433Y-55830500D03*
%TD*%
D55*
%TO.P,DIFF_DIFR_SBUS1,1,1*%
%TO.N,DIFF_FRONT_PWM*%
X24170500Y-22537000D03*
%TO.P,DIFF_DIFR_SBUS1,2,2*%
%TO.N,DIFF_REAR_PWM*%
X21630500Y-22537000D03*
%TO.P,DIFF_DIFR_SBUS1,3,3*%
%TO.N,SBUS_RECEIVER*%
X19090500Y-22537000D03*
%TO.P,DIFF_DIFR_SBUS1,4,4*%
%TO.N,Net-(DIFF_DIFR_SBUS1-Pad4)*%
X24170500Y-25077000D03*
%TO.P,DIFF_DIFR_SBUS1,5,5*%
X21630500Y-25077000D03*
%TO.P,DIFF_DIFR_SBUS1,6,6*%
%TO.N,unconnected-(DIFF_DIFR_SBUS1-Pad6)*%
X19090500Y-25077000D03*
%TO.P,DIFF_DIFR_SBUS1,7,7*%
%TO.N,GND*%
X24170500Y-27617000D03*
%TO.P,DIFF_DIFR_SBUS1,8,8*%
X21630500Y-27617000D03*
%TO.P,DIFF_DIFR_SBUS1,9,9*%
X19090500Y-27617000D03*
%TD*%
D84*
%TO.P,DC1,1,1*%
%TO.N,Net-(D67-K)*%
X76050500Y-122380433D03*
%TO.P,DC1,2,2*%
%TO.N,GND*%
X69850500Y-122380433D03*
D85*
%TO.P,DC1,3,3*%
X73050500Y-127080433D03*
%TD*%
D86*
%TO.P,D83,1,IO1*%
%TO.N,Net-(D83-IO1)*%
X98730433Y-145907500D03*
%TO.P,D83,2,IO2*%
%TO.N,Net-(D83-IO2)*%
X99230433Y-145907500D03*
D87*
%TO.P,D83,3,GND*%
%TO.N,GND*%
X99730433Y-145907500D03*
D86*
%TO.P,D83,4,IO3*%
%TO.N,Net-(D83-IO3)*%
X100230433Y-145907500D03*
%TO.P,D83,5,IO4*%
%TO.N,Net-(D83-IO4)*%
X100730433Y-145907500D03*
%TO.P,D83,6,NC*%
%TO.N,unconnected-(D83-NC-Pad6)*%
X100730433Y-145107500D03*
%TO.P,D83,7,NC*%
%TO.N,unconnected-(D83-NC-Pad7)*%
X100230433Y-145107500D03*
D87*
%TO.P,D83,8,GND*%
%TO.N,GND*%
X99730433Y-145107500D03*
D86*
%TO.P,D83,9,NC*%
%TO.N,unconnected-(D83-NC-Pad9)*%
X99230433Y-145107500D03*
%TO.P,D83,10,NC*%
%TO.N,unconnected-(D83-NC-Pad10)*%
X98730433Y-145107500D03*
%TD*%
%TO.P,D82,1,IO1*%
%TO.N,USB_P*%
X9990433Y-137167500D03*
%TO.P,D82,2,IO2*%
%TO.N,USB_N*%
X10490433Y-137167500D03*
D87*
%TO.P,D82,3,GND*%
%TO.N,GND*%
X10990433Y-137167500D03*
D86*
%TO.P,D82,4,IO3*%
%TO.N,Net-(D82-IO3)*%
X11490433Y-137167500D03*
%TO.P,D82,5,IO4*%
%TO.N,Net-(D82-IO4)*%
X11990433Y-137167500D03*
%TO.P,D82,6,NC*%
%TO.N,unconnected-(D82-NC-Pad6)*%
X11990433Y-136367500D03*
%TO.P,D82,7,NC*%
%TO.N,unconnected-(D82-NC-Pad7)*%
X11490433Y-136367500D03*
D87*
%TO.P,D82,8,GND*%
%TO.N,GND*%
X10990433Y-136367500D03*
D86*
%TO.P,D82,9,NC*%
%TO.N,unconnected-(D82-NC-Pad9)*%
X10490433Y-136367500D03*
%TO.P,D82,10,NC*%
%TO.N,unconnected-(D82-NC-Pad10)*%
X9990433Y-136367500D03*
%TD*%
D88*
%TO.P,D69,1,K*%
%TO.N,MCU-BTN-DIGITAL*%
X72120750Y-45800500D03*
%TO.P,D69,2,A*%
%TO.N,VSS*%
X72920750Y-45800500D03*
%TD*%
D89*
%TO.P,D57,1,1*%
%TO.N,GND*%
X134039000Y-74333500D03*
%TO.P,D57,2,2*%
X134039000Y-72493500D03*
D90*
%TO.P,D57,3,3*%
%TO.N,Net-(D57-Pad3)*%
X129975000Y-73413500D03*
%TD*%
D30*
%TO.P,CN13,1,1*%
%TO.N,unconnected-(CN13-Pad1)*%
X35467500Y-49307433D03*
%TO.P,CN13,2,2*%
%TO.N,unconnected-(CN13-Pad2)*%
X33467500Y-49307433D03*
%TO.P,CN13,3,3*%
%TO.N,unconnected-(CN13-Pad3)*%
X31467500Y-49307433D03*
%TO.P,CN13,4,4*%
%TO.N,unconnected-(CN13-Pad4)*%
X29467500Y-49307433D03*
%TD*%
D91*
%TO.P,CN12,1,1*%
%TO.N,#MCU-EN-SERVO_VCC*%
X30809000Y-40690000D03*
%TD*%
%TO.P,CN11,1,1*%
%TO.N,#MCU-EN-12V-DIODE*%
X102939000Y-94370000D03*
%TD*%
%TO.P,CN10,1,1*%
%TO.N,#EN-PACK+-VCC-DIODE*%
X64159000Y-141240000D03*
%TD*%
%TO.P,CN9,1,1*%
%TO.N,#EN-DC-20V-DIODE*%
X64159000Y-137700000D03*
%TD*%
%TO.P,CN8,1,1*%
%TO.N,#EN-USBC-DIODE*%
X64159000Y-134160000D03*
%TD*%
D52*
%TO.P,CN6,1,1*%
%TO.N,SDA_FAST*%
X99190433Y-126512366D03*
D53*
%TO.P,CN6,2,2*%
%TO.N,SCL_FAST*%
X101690433Y-126512366D03*
%TD*%
D52*
%TO.P,CN5,1,1*%
%TO.N,SCL_SLOW*%
X99190433Y-118981433D03*
D53*
%TO.P,CN5,2,2*%
%TO.N,SDA_SLOW*%
X101690433Y-118981433D03*
%TD*%
D52*
%TO.P,CN4,1,1*%
%TO.N,Net-(U147-VOUT)*%
X99190433Y-111450500D03*
D53*
%TO.P,CN4,2,2*%
%TO.N,GND*%
X101690433Y-111450500D03*
%TD*%
D91*
%TO.P,CN3,1,1*%
%TO.N,#EN_IN-CHARGING-VCC-LIMITED-DIODE*%
X64159000Y-130620000D03*
%TD*%
D92*
%TO.P,CN1,1,1*%
%TO.N,BTN_HIGH*%
X92860500Y-36707433D03*
%TO.P,CN1,2,2*%
%TO.N,BTN_LOW*%
X90360500Y-36707433D03*
%TD*%
D62*
%TO.P,C311,1,1*%
%TO.N,Net-(CUR_4-IN-1)*%
X3115000Y-104645000D03*
%TO.P,C311,2,2*%
%TO.N,Net-(CUR_4-IN+1)*%
X3755000Y-104645000D03*
%TD*%
%TO.P,C310,1,1*%
%TO.N,Net-(CUR_4-IN-2)*%
X3115000Y-102895000D03*
%TO.P,C310,2,2*%
%TO.N,Net-(CUR_4-IN+2)*%
X3755000Y-102895000D03*
%TD*%
%TO.P,C309,1,1*%
%TO.N,Net-(CUR_4-IN+3)*%
X3115000Y-101145000D03*
%TO.P,C309,2,2*%
%TO.N,Net-(CUR_4-IN-3)*%
X3755000Y-101145000D03*
%TD*%
D93*
%TO.P,C308,1,1*%
%TO.N,GND*%
X27830000Y-96085000D03*
%TO.P,C308,2,2*%
%TO.N,+3V3*%
X29380000Y-96085000D03*
%TD*%
D94*
%TO.P,C307,1,1*%
%TO.N,GND*%
X23425000Y-99335000D03*
%TO.P,C307,2,2*%
%TO.N,+3V3*%
X25325000Y-99335000D03*
%TD*%
D93*
%TO.P,C306,1,1*%
%TO.N,GND*%
X27830000Y-93575000D03*
%TO.P,C306,2,2*%
%TO.N,Net-(D84-K)*%
X29380000Y-93575000D03*
%TD*%
D94*
%TO.P,C305,1,1*%
%TO.N,GND*%
X23425000Y-96325000D03*
%TO.P,C305,2,2*%
%TO.N,Net-(D84-K)*%
X25325000Y-96325000D03*
%TD*%
D93*
%TO.P,C304,1,1*%
%TO.N,GND*%
X27830000Y-91065000D03*
%TO.P,C304,2,2*%
%TO.N,Net-(D86-K)*%
X29380000Y-91065000D03*
%TD*%
D94*
%TO.P,C303,1,1*%
%TO.N,GND*%
X23425000Y-93315000D03*
%TO.P,C303,2,2*%
%TO.N,Net-(D86-K)*%
X25325000Y-93315000D03*
%TD*%
D93*
%TO.P,C302,1,1*%
%TO.N,GND*%
X27830000Y-88555000D03*
%TO.P,C302,2,2*%
%TO.N,Net-(D85-K)*%
X29380000Y-88555000D03*
%TD*%
D94*
%TO.P,C301,1,1*%
%TO.N,GND*%
X23425000Y-90305000D03*
%TO.P,C301,2,2*%
%TO.N,Net-(D85-K)*%
X25325000Y-90305000D03*
%TD*%
D93*
%TO.P,C300,1,1*%
%TO.N,GND*%
X45550000Y-123325000D03*
%TO.P,C300,2,2*%
%TO.N,+3V3*%
X47100000Y-123325000D03*
%TD*%
%TO.P,C299,1,1*%
%TO.N,GND*%
X120150000Y-41975000D03*
%TO.P,C299,2,2*%
%TO.N,+5V*%
X121700000Y-41975000D03*
%TD*%
%TO.P,C298,1,1*%
%TO.N,GND*%
X120150000Y-39465000D03*
%TO.P,C298,2,2*%
%TO.N,+12V*%
X121700000Y-39465000D03*
%TD*%
D35*
%TO.P,C297,1,1*%
%TO.N,+12V*%
X111055000Y-45521433D03*
%TO.P,C297,2,2*%
%TO.N,unconnected-(C297-Pad2)*%
X116395000Y-45521433D03*
%TD*%
D93*
%TO.P,C296,1,1*%
%TO.N,GND*%
X120150000Y-36955000D03*
%TO.P,C296,2,2*%
%TO.N,+5V*%
X121700000Y-36955000D03*
%TD*%
%TO.P,C295,1,1*%
%TO.N,GND*%
X120150000Y-34445000D03*
%TO.P,C295,2,2*%
%TO.N,+12V*%
X121700000Y-34445000D03*
%TD*%
D35*
%TO.P,C294,1,1*%
%TO.N,+12V*%
X111055000Y-37290500D03*
%TO.P,C294,2,2*%
%TO.N,unconnected-(C294-Pad2)*%
X116395000Y-37290500D03*
%TD*%
D93*
%TO.P,C290,1,1*%
%TO.N,+3V3*%
X113950000Y-81925000D03*
%TO.P,C290,2,2*%
%TO.N,GND*%
X115500000Y-81925000D03*
%TD*%
%TO.P,C289,1,1*%
%TO.N,GND*%
X109940000Y-91965000D03*
%TO.P,C289,2,2*%
%TO.N,+3V3*%
X111490000Y-91965000D03*
%TD*%
%TO.P,C288,1,1*%
%TO.N,+3V3*%
X133190000Y-144865000D03*
%TO.P,C288,2,2*%
%TO.N,GND*%
X134740000Y-144865000D03*
%TD*%
%TO.P,C287,1,1*%
%TO.N,GND*%
X133190000Y-142355000D03*
%TO.P,C287,2,2*%
%TO.N,+3V3*%
X134740000Y-142355000D03*
%TD*%
%TO.P,C286,1,1*%
%TO.N,+3V3*%
X-5270000Y-122365000D03*
%TO.P,C286,2,2*%
%TO.N,GND*%
X-3720000Y-122365000D03*
%TD*%
%TO.P,C285,1,1*%
%TO.N,GND*%
X-5270000Y-119855000D03*
%TO.P,C285,2,2*%
%TO.N,+3V3*%
X-3720000Y-119855000D03*
%TD*%
%TO.P,C284,1,1*%
%TO.N,GND*%
X-5270000Y-117345000D03*
%TO.P,C284,2,2*%
%TO.N,Net-(U191-VBUS)*%
X-3720000Y-117345000D03*
%TD*%
%TO.P,C282,1,1*%
%TO.N,Net-(U191-VBUS)*%
X-5270000Y-114835000D03*
%TO.P,C282,2,2*%
%TO.N,GND*%
X-3720000Y-114835000D03*
%TD*%
%TO.P,C281,1,1*%
%TO.N,GND*%
X-5270000Y-112325000D03*
%TO.P,C281,2,2*%
%TO.N,Net-(U191-V3)*%
X-3720000Y-112325000D03*
%TD*%
D94*
%TO.P,C280,1,1*%
%TO.N,GND*%
X15865000Y-131505000D03*
%TO.P,C280,2,2*%
%TO.N,Net-(D78-K)*%
X17765000Y-131505000D03*
%TD*%
D93*
%TO.P,C279,1,1*%
%TO.N,GND*%
X118610000Y-119105000D03*
%TO.P,C279,2,2*%
%TO.N,+3V3*%
X120160000Y-119105000D03*
%TD*%
%TO.P,C278,1,1*%
%TO.N,+3V3*%
X118610000Y-116595000D03*
%TO.P,C278,2,2*%
%TO.N,GND*%
X120160000Y-116595000D03*
%TD*%
%TO.P,C275,1,1*%
%TO.N,GND*%
X9360000Y-56845000D03*
%TO.P,C275,2,2*%
%TO.N,Net-(U181-VS)*%
X10910000Y-56845000D03*
%TD*%
%TO.P,C274,1,1*%
%TO.N,GND*%
X9360000Y-54335000D03*
%TO.P,C274,2,2*%
%TO.N,+SERVO_VCC*%
X10910000Y-54335000D03*
%TD*%
D95*
%TO.P,C273,1,1*%
%TO.N,Net-(U115-IOUT)*%
X105535000Y-86650433D03*
%TO.P,C273,2,2*%
%TO.N,GND*%
X96745000Y-86650433D03*
%TD*%
D93*
%TO.P,C272,1,1*%
%TO.N,GND*%
X109940000Y-89455000D03*
%TO.P,C272,2,2*%
%TO.N,Net-(U180-VS)*%
X111490000Y-89455000D03*
%TD*%
%TO.P,C271,1,1*%
%TO.N,GND*%
X109940000Y-86945000D03*
%TO.P,C271,2,2*%
%TO.N,Net-(U115-IOUT)*%
X111490000Y-86945000D03*
%TD*%
%TO.P,C270,1,1*%
%TO.N,GND*%
X92450000Y-155565000D03*
%TO.P,C270,2,2*%
%TO.N,Net-(U176-VCCB)*%
X94000000Y-155565000D03*
%TD*%
D53*
%TO.P,C267,1,1*%
%TO.N,+SERVO_VCC*%
X-1669567Y-52850500D03*
%TO.P,C267,2,2*%
%TO.N,GND*%
X3330433Y-52850500D03*
%TD*%
D96*
%TO.P,C266,1,1*%
%TO.N,GND*%
X-5150000Y-160625000D03*
%TO.P,C266,2,2*%
%TO.N,+SERVO_VCC*%
X-2200000Y-160625000D03*
%TD*%
%TO.P,C265,1,1*%
%TO.N,GND*%
X-5150000Y-156375000D03*
%TO.P,C265,2,2*%
%TO.N,+SERVO_VCC*%
X-2200000Y-156375000D03*
%TD*%
%TO.P,C264,1,1*%
%TO.N,GND*%
X-5150000Y-152125000D03*
%TO.P,C264,2,2*%
%TO.N,+SERVO_VCC*%
X-2200000Y-152125000D03*
%TD*%
D97*
%TO.P,C263,1,1*%
%TO.N,Net-(U173-FB)*%
X8465000Y-158545000D03*
%TO.P,C263,2,2*%
%TO.N,+SERVO_VCC*%
X9425000Y-158545000D03*
%TD*%
D98*
%TO.P,C262,1,1*%
%TO.N,+SERVO_VCC*%
X5285000Y-154080500D03*
%TO.P,C262,2,2*%
%TO.N,GND*%
X10085000Y-154080500D03*
%TD*%
D96*
%TO.P,C261,1,1*%
%TO.N,Net-(U173-VIN1)*%
X-5150000Y-147875000D03*
%TO.P,C261,2,2*%
%TO.N,unconnected-(C261-Pad2)*%
X-2200000Y-147875000D03*
%TD*%
%TO.P,C260,1,1*%
%TO.N,GND*%
X-5150000Y-143625000D03*
%TO.P,C260,2,2*%
%TO.N,Net-(U173-VIN1)*%
X-2200000Y-143625000D03*
%TD*%
D35*
%TO.P,C257,1,1*%
%TO.N,Net-(D64-K)*%
X107515000Y-130150500D03*
%TO.P,C257,2,2*%
%TO.N,GND*%
X112855000Y-130150500D03*
%TD*%
D93*
%TO.P,C256,1,1*%
%TO.N,Net-(U112-CP1)*%
X76310000Y-29785000D03*
%TO.P,C256,2,2*%
%TO.N,Net-(U112-BAT)*%
X77860000Y-29785000D03*
%TD*%
D35*
%TO.P,C253,1,1*%
%TO.N,Net-(U115-IOUT)*%
X85705000Y-76371433D03*
%TO.P,C253,2,2*%
%TO.N,GND*%
X91045000Y-76371433D03*
%TD*%
%TO.P,C252,1,1*%
%TO.N,VCC*%
X85705000Y-68140500D03*
%TO.P,C252,2,2*%
%TO.N,GND*%
X91045000Y-68140500D03*
%TD*%
D93*
%TO.P,C251,1,1*%
%TO.N,GND*%
X106820000Y-144865000D03*
%TO.P,C251,2,2*%
%TO.N,+3V3*%
X108370000Y-144865000D03*
%TD*%
%TO.P,C250,1,1*%
%TO.N,GND*%
X109940000Y-84435000D03*
%TO.P,C250,2,2*%
%TO.N,Net-(U115-LL)*%
X111490000Y-84435000D03*
%TD*%
%TO.P,C249,1,1*%
%TO.N,GND*%
X109940000Y-81925000D03*
%TO.P,C249,2,2*%
%TO.N,Net-(U115-SS)*%
X111490000Y-81925000D03*
%TD*%
D94*
%TO.P,C247,1,1*%
%TO.N,GND*%
X116625000Y-71565000D03*
%TO.P,C247,2,2*%
%TO.N,unconnected-(C247-Pad2)*%
X118525000Y-71565000D03*
%TD*%
%TO.P,C246,1,1*%
%TO.N,GND*%
X116625000Y-68555000D03*
%TO.P,C246,2,2*%
%TO.N,VCC*%
X118525000Y-68555000D03*
%TD*%
%TO.P,C245,1,1*%
%TO.N,GND*%
X116625000Y-65545000D03*
%TO.P,C245,2,2*%
%TO.N,VCC*%
X118525000Y-65545000D03*
%TD*%
D62*
%TO.P,C244,1,1*%
%TO.N,Net-(CUR_2-IN-1)*%
X77795000Y-54015000D03*
%TO.P,C244,2,2*%
%TO.N,Net-(CUR_2-IN+1)*%
X78435000Y-54015000D03*
%TD*%
%TO.P,C243,1,1*%
%TO.N,Net-(C243-Pad1)*%
X77795000Y-52265000D03*
%TO.P,C243,2,2*%
%TO.N,Net-(C243-Pad2)*%
X78435000Y-52265000D03*
%TD*%
%TO.P,C242,1,1*%
%TO.N,Net-(CUR_2-IN+3)*%
X77795000Y-50515000D03*
%TO.P,C242,2,2*%
%TO.N,Net-(CUR_2-IN-3)*%
X78435000Y-50515000D03*
%TD*%
D93*
%TO.P,C241,1,1*%
%TO.N,GND*%
X45890000Y-146265000D03*
%TO.P,C241,2,2*%
%TO.N,+3V3*%
X47440000Y-146265000D03*
%TD*%
%TO.P,C240,1,1*%
%TO.N,GND*%
X82570000Y-58655000D03*
%TO.P,C240,2,2*%
%TO.N,+3V3*%
X84120000Y-58655000D03*
%TD*%
D94*
%TO.P,C239,1,1*%
%TO.N,GND*%
X78165000Y-59405000D03*
%TO.P,C239,2,2*%
%TO.N,+3V3*%
X80065000Y-59405000D03*
%TD*%
D93*
%TO.P,C238,1,1*%
%TO.N,GND*%
X82570000Y-56145000D03*
%TO.P,C238,2,2*%
%TO.N,+3V3*%
X84120000Y-56145000D03*
%TD*%
D94*
%TO.P,C237,1,1*%
%TO.N,GND*%
X78165000Y-56395000D03*
%TO.P,C237,2,2*%
%TO.N,+3V3*%
X80065000Y-56395000D03*
%TD*%
D93*
%TO.P,C236,1,1*%
%TO.N,GND*%
X9360000Y-51825000D03*
%TO.P,C236,2,2*%
%TO.N,3V3_RECEIVER*%
X10910000Y-51825000D03*
%TD*%
%TO.P,C235,1,1*%
%TO.N,GND*%
X9360000Y-49315000D03*
%TO.P,C235,2,2*%
%TO.N,+3V3*%
X10910000Y-49315000D03*
%TD*%
%TO.P,C234,1,1*%
%TO.N,GND*%
X9360000Y-46805000D03*
%TO.P,C234,2,2*%
%TO.N,+3V3*%
X10910000Y-46805000D03*
%TD*%
D94*
%TO.P,C233,1,1*%
%TO.N,GND*%
X111175000Y-118785000D03*
%TO.P,C233,2,2*%
%TO.N,Net-(D64-K)*%
X113075000Y-118785000D03*
%TD*%
D93*
%TO.P,C232,1,1*%
%TO.N,GND*%
X81050000Y-119545000D03*
%TO.P,C232,2,2*%
%TO.N,Net-(D64-K)*%
X82600000Y-119545000D03*
%TD*%
D94*
%TO.P,C231,1,1*%
%TO.N,GND*%
X111175000Y-115775000D03*
%TO.P,C231,2,2*%
%TO.N,Net-(D64-K)*%
X113075000Y-115775000D03*
%TD*%
D93*
%TO.P,C230,1,1*%
%TO.N,GND*%
X81050000Y-117035000D03*
%TO.P,C230,2,2*%
%TO.N,Net-(D64-K)*%
X82600000Y-117035000D03*
%TD*%
D94*
%TO.P,C229,1,1*%
%TO.N,GND*%
X111175000Y-112765000D03*
%TO.P,C229,2,2*%
%TO.N,+3V3*%
X113075000Y-112765000D03*
%TD*%
%TO.P,C228,1,1*%
%TO.N,GND*%
X111175000Y-109755000D03*
%TO.P,C228,2,2*%
%TO.N,+3V3*%
X113075000Y-109755000D03*
%TD*%
D93*
%TO.P,C225,1,1*%
%TO.N,GND*%
X81050000Y-114525000D03*
%TO.P,C225,2,2*%
%TO.N,Net-(U154-VCC)*%
X82600000Y-114525000D03*
%TD*%
%TO.P,C224,1,1*%
%TO.N,VSS*%
X76310000Y-27275000D03*
%TO.P,C224,2,2*%
%TO.N,Net-(U153-IN)*%
X77860000Y-27275000D03*
%TD*%
%TO.P,C223,1,1*%
%TO.N,VSS*%
X76310000Y-24765000D03*
%TO.P,C223,2,2*%
%TO.N,Net-(U120-A)*%
X77860000Y-24765000D03*
%TD*%
%TO.P,C222,1,1*%
%TO.N,BAT-*%
X65290000Y-80715000D03*
%TO.P,C222,2,2*%
%TO.N,Net-(C221-Pad1)*%
X66840000Y-80715000D03*
%TD*%
%TO.P,C221,1,1*%
%TO.N,Net-(C221-Pad1)*%
X61280000Y-90755000D03*
%TO.P,C221,2,2*%
%TO.N,BAT+*%
X62830000Y-90755000D03*
%TD*%
%TO.P,C220,1,1*%
%TO.N,GND*%
X61280000Y-88245000D03*
%TO.P,C220,2,2*%
%TO.N,Net-(C219-Pad1)*%
X62830000Y-88245000D03*
%TD*%
%TO.P,C219,1,1*%
%TO.N,Net-(C219-Pad1)*%
X61280000Y-85735000D03*
%TO.P,C219,2,2*%
%TO.N,PACK+*%
X62830000Y-85735000D03*
%TD*%
%TO.P,C218,1,1*%
%TO.N,GND*%
X45550000Y-120815000D03*
%TO.P,C218,2,2*%
%TO.N,Net-(U152-VS)*%
X47100000Y-120815000D03*
%TD*%
%TO.P,C217,1,1*%
%TO.N,GND*%
X45550000Y-118305000D03*
%TO.P,C217,2,2*%
%TO.N,PACK+*%
X47100000Y-118305000D03*
%TD*%
%TO.P,C216,1,1*%
%TO.N,GND*%
X41540000Y-135875000D03*
%TO.P,C216,2,2*%
%TO.N,Net-(U151-VS)*%
X43090000Y-135875000D03*
%TD*%
%TO.P,C215,1,1*%
%TO.N,GND*%
X41540000Y-133365000D03*
%TO.P,C215,2,2*%
%TO.N,Net-(D67-K)*%
X43090000Y-133365000D03*
%TD*%
%TO.P,C214,1,1*%
%TO.N,GND*%
X41540000Y-130855000D03*
%TO.P,C214,2,2*%
%TO.N,Net-(U150-VS)*%
X43090000Y-130855000D03*
%TD*%
%TO.P,C213,1,1*%
%TO.N,GND*%
X41540000Y-128345000D03*
%TO.P,C213,2,2*%
%TO.N,IN-CHARGING-VCC-USBC*%
X43090000Y-128345000D03*
%TD*%
%TO.P,C210,1,1*%
%TO.N,GND*%
X41540000Y-125835000D03*
%TO.P,C210,2,2*%
%TO.N,Net-(U133-dVdT)*%
X43090000Y-125835000D03*
%TD*%
%TO.P,C209,1,1*%
%TO.N,GND*%
X41540000Y-123325000D03*
%TO.P,C209,2,2*%
%TO.N,IN-CHARGING-VCC*%
X43090000Y-123325000D03*
%TD*%
D99*
%TO.P,C205,1,1*%
%TO.N,GND*%
X86850000Y-137275000D03*
%TO.P,C205,2,2*%
%TO.N,Net-(U147-VOUT)*%
X89800000Y-137275000D03*
%TD*%
%TO.P,C204,1,1*%
%TO.N,GND*%
X86850000Y-133925000D03*
%TO.P,C204,2,2*%
%TO.N,Net-(U147-VOUT)*%
X89800000Y-133925000D03*
%TD*%
D93*
%TO.P,C203,1,1*%
%TO.N,GND*%
X81050000Y-112015000D03*
%TO.P,C203,2,2*%
%TO.N,Net-(U147-VCC)*%
X82600000Y-112015000D03*
%TD*%
%TO.P,C202,1,1*%
%TO.N,GND*%
X106820000Y-142355000D03*
%TO.P,C202,2,2*%
%TO.N,+3V3*%
X108370000Y-142355000D03*
%TD*%
%TO.P,C200,1,1*%
%TO.N,GND*%
X92450000Y-153055000D03*
%TO.P,C200,2,2*%
%TO.N,Net-(D39-K)*%
X94000000Y-153055000D03*
%TD*%
%TO.P,C196,1,1*%
%TO.N,GND*%
X92450000Y-150545000D03*
%TO.P,C196,2,2*%
%TO.N,Net-(U176-VCCB)*%
X94000000Y-150545000D03*
%TD*%
%TO.P,C193,1,1*%
%TO.N,Net-(Q63-S)*%
X78500000Y-106000000D03*
%TO.P,C193,2,2*%
%TO.N,Net-(Q63-D)*%
X80050000Y-106000000D03*
%TD*%
%TO.P,C192,1,1*%
%TO.N,GND*%
X41540000Y-120815000D03*
%TO.P,C192,2,2*%
%TO.N,Net-(U127-VS)*%
X43090000Y-120815000D03*
%TD*%
%TO.P,C191,1,1*%
%TO.N,GND*%
X41540000Y-118305000D03*
%TO.P,C191,2,2*%
%TO.N,IN-CHARGING-VCC-LIMITED*%
X43090000Y-118305000D03*
%TD*%
%TO.P,C188,1,1*%
%TO.N,VSS*%
X76310000Y-22255000D03*
%TO.P,C188,2,2*%
%TO.N,/Battery BMS/VC0*%
X77860000Y-22255000D03*
%TD*%
%TO.P,C187,1,1*%
%TO.N,VSS*%
X72300000Y-37315000D03*
%TO.P,C187,2,2*%
%TO.N,BTN_LOW*%
X73850000Y-37315000D03*
%TD*%
D94*
%TO.P,C177,1,1*%
%TO.N,GND*%
X127575000Y-121445000D03*
%TO.P,C177,2,2*%
%TO.N,PACK+*%
X129475000Y-121445000D03*
%TD*%
D93*
%TO.P,C175,1,1*%
%TO.N,Net-(C174-Pad2)*%
X61280000Y-83225000D03*
%TO.P,C175,2,2*%
%TO.N,PACK+*%
X62830000Y-83225000D03*
%TD*%
%TO.P,C174,1,1*%
%TO.N,BAT+*%
X61280000Y-80715000D03*
%TO.P,C174,2,2*%
%TO.N,Net-(C174-Pad2)*%
X62830000Y-80715000D03*
%TD*%
%TO.P,C173,1,1*%
%TO.N,SRN*%
X72300000Y-34805000D03*
%TO.P,C173,2,2*%
%TO.N,SRP*%
X73850000Y-34805000D03*
%TD*%
D97*
%TO.P,C172,1,1*%
%TO.N,SRP*%
X74895000Y-45685000D03*
%TO.P,C172,2,2*%
%TO.N,SRN*%
X75855000Y-45685000D03*
%TD*%
D93*
%TO.P,C170,1,1*%
%TO.N,VSS*%
X72300000Y-32295000D03*
%TO.P,C170,2,2*%
%TO.N,/Battery BMS/VC1*%
X73850000Y-32295000D03*
%TD*%
%TO.P,C169,1,1*%
%TO.N,/Battery BMS/VC1*%
X72300000Y-29785000D03*
%TO.P,C169,2,2*%
%TO.N,/Battery BMS/VC3*%
X73850000Y-29785000D03*
%TD*%
%TO.P,C168,1,1*%
%TO.N,/Battery BMS/VC3*%
X72300000Y-27275000D03*
%TO.P,C168,2,2*%
%TO.N,/Battery BMS/VC4*%
X73850000Y-27275000D03*
%TD*%
%TO.P,C167,1,1*%
%TO.N,Net-(U112-BAT)*%
X72300000Y-24765000D03*
%TO.P,C167,2,2*%
%TO.N,VSS*%
X73850000Y-24765000D03*
%TD*%
%TO.P,C166,1,1*%
%TO.N,VSS*%
X72300000Y-22255000D03*
%TO.P,C166,2,2*%
%TO.N,Net-(U112-BAT)*%
X73850000Y-22255000D03*
%TD*%
D100*
%TO.P,C160,1,1*%
%TO.N,VCC*%
X4077500Y-97290500D03*
%TO.P,C160,2,2*%
%TO.N,GND*%
X10950500Y-97290500D03*
%TD*%
D62*
%TO.P,C145,1,1*%
%TO.N,Net-(CUR_1-IN+3)*%
X61405000Y-39945000D03*
%TO.P,C145,2,2*%
%TO.N,Net-(CUR_1-IN-3)*%
X62045000Y-39945000D03*
%TD*%
%TO.P,C144,1,1*%
%TO.N,Net-(CUR_1-IN-2)*%
X61405000Y-38195000D03*
%TO.P,C144,2,2*%
%TO.N,Net-(CUR_1-IN+2)*%
X62045000Y-38195000D03*
%TD*%
%TO.P,C143,1,1*%
%TO.N,Net-(CUR_1-IN-1)*%
X61405000Y-36445000D03*
%TO.P,C143,2,2*%
%TO.N,Net-(CUR_1-IN+1)*%
X62045000Y-36445000D03*
%TD*%
D97*
%TO.P,C142,1,1*%
%TO.N,Net-(U47-VCAP)*%
X26335000Y-156625000D03*
%TO.P,C142,2,2*%
%TO.N,GND*%
X27295000Y-156625000D03*
%TD*%
%TO.P,C141,1,1*%
%TO.N,VCC*%
X26335000Y-154655000D03*
%TO.P,C141,2,2*%
%TO.N,GND*%
X27295000Y-154655000D03*
%TD*%
%TO.P,C140,1,1*%
%TO.N,Net-(5Vbuck-6A1-SW)*%
X26335000Y-152685000D03*
%TO.P,C140,2,2*%
%TO.N,Net-(C140-Pad2)*%
X27295000Y-152685000D03*
%TD*%
%TO.P,C139,1,1*%
%TO.N,GND*%
X26335000Y-150715000D03*
%TO.P,C139,2,2*%
%TO.N,Net-(U47-ANODE)*%
X27295000Y-150715000D03*
%TD*%
D62*
%TO.P,C138,1,1*%
%TO.N,GND*%
X23835000Y-152355000D03*
%TO.P,C138,2,2*%
%TO.N,Net-(5Vbuck-6A1-SS)*%
X24475000Y-152355000D03*
%TD*%
%TO.P,C137,1,1*%
%TO.N,unconnected-(C137-Pad1)*%
X23835000Y-150605000D03*
%TO.P,C137,2,2*%
%TO.N,unconnected-(C137-Pad2)*%
X24475000Y-150605000D03*
%TD*%
D93*
%TO.P,C130,1,1*%
%TO.N,GND*%
X57720000Y-44355000D03*
%TO.P,C130,2,2*%
%TO.N,Net-(D16-K)*%
X59270000Y-44355000D03*
%TD*%
D94*
%TO.P,C129,1,1*%
%TO.N,GND*%
X53315000Y-46105000D03*
%TO.P,C129,2,2*%
%TO.N,Net-(D16-K)*%
X55215000Y-46105000D03*
%TD*%
D93*
%TO.P,C128,1,1*%
%TO.N,GND*%
X57720000Y-41845000D03*
%TO.P,C128,2,2*%
%TO.N,Net-(D18-K)*%
X59270000Y-41845000D03*
%TD*%
D94*
%TO.P,C127,1,1*%
%TO.N,GND*%
X53315000Y-43095000D03*
%TO.P,C127,2,2*%
%TO.N,Net-(D18-K)*%
X55215000Y-43095000D03*
%TD*%
D93*
%TO.P,C126,1,1*%
%TO.N,GND*%
X57720000Y-39335000D03*
%TO.P,C126,2,2*%
%TO.N,Net-(D17-K)*%
X59270000Y-39335000D03*
%TD*%
D94*
%TO.P,C125,1,1*%
%TO.N,GND*%
X53315000Y-40085000D03*
%TO.P,C125,2,2*%
%TO.N,Net-(D17-K)*%
X55215000Y-40085000D03*
%TD*%
D93*
%TO.P,C110,1,1*%
%TO.N,GND*%
X27830000Y-86045000D03*
%TO.P,C110,2,2*%
%TO.N,+12V*%
X29380000Y-86045000D03*
%TD*%
D94*
%TO.P,C109,1,1*%
%TO.N,GND*%
X23425000Y-87295000D03*
%TO.P,C109,2,2*%
%TO.N,+12V*%
X25325000Y-87295000D03*
%TD*%
D93*
%TO.P,C108,1,1*%
%TO.N,GND*%
X27830000Y-83535000D03*
%TO.P,C108,2,2*%
%TO.N,+5V*%
X29380000Y-83535000D03*
%TD*%
D94*
%TO.P,C107,1,1*%
%TO.N,GND*%
X23425000Y-84285000D03*
%TO.P,C107,2,2*%
%TO.N,+5V*%
X25325000Y-84285000D03*
%TD*%
D93*
%TO.P,C106,1,1*%
%TO.N,GND*%
X27830000Y-81025000D03*
%TO.P,C106,2,2*%
%TO.N,+3V3*%
X29380000Y-81025000D03*
%TD*%
D94*
%TO.P,C105,1,1*%
%TO.N,GND*%
X23425000Y-81275000D03*
%TO.P,C105,2,2*%
%TO.N,+3V3*%
X25325000Y-81275000D03*
%TD*%
D97*
%TO.P,C79,1,1*%
%TO.N,Net-(U44-GND)*%
X123695000Y-74545000D03*
%TO.P,C79,2,2*%
%TO.N,Net-(U44-COM1)*%
X124655000Y-74545000D03*
%TD*%
D99*
%TO.P,C76,1,1*%
%TO.N,GND*%
X26730000Y-159285000D03*
%TO.P,C76,2,2*%
%TO.N,VCC*%
X29680000Y-159285000D03*
%TD*%
D93*
%TO.P,C74,1,1*%
%TO.N,GND*%
X19880000Y-160875000D03*
%TO.P,C74,2,2*%
%TO.N,Net-(5Vbuck-6A1-VCC)*%
X21430000Y-160875000D03*
%TD*%
D94*
%TO.P,C71,1,1*%
%TO.N,GND*%
X29525000Y-155855000D03*
%TO.P,C71,2,2*%
%TO.N,Net-(U47-ANODE)*%
X31425000Y-155855000D03*
%TD*%
D93*
%TO.P,C69,1,1*%
%TO.N,GND*%
X57720000Y-36825000D03*
%TO.P,C69,2,2*%
%TO.N,+3V3*%
X59270000Y-36825000D03*
%TD*%
D94*
%TO.P,C68,1,1*%
%TO.N,GND*%
X53315000Y-37075000D03*
%TO.P,C68,2,2*%
%TO.N,+3V3*%
X55215000Y-37075000D03*
%TD*%
D101*
%TO.P,BMS_Bypass_5V_SW1,1,1*%
%TO.N,Net-(Q63-S)*%
X106380000Y-136575433D03*
%TO.P,BMS_Bypass_5V_SW1,2,2*%
%TO.N,Net-(Q63-D)*%
X110750000Y-136575433D03*
%TD*%
D102*
%TO.P,BMSALERT1,1,K*%
%TO.N,Net-(BMSALERT1-K)*%
X70685500Y-158897500D03*
%TO.P,BMSALERT1,2,A*%
%TO.N,Net-(BMSALERT1-A)*%
X72183500Y-158890500D03*
%TD*%
%TO.P,BMSACTIVE1,1,K*%
%TO.N,GND*%
X70685500Y-156245000D03*
%TO.P,BMSACTIVE1,2,A*%
%TO.N,Net-(BMSACTIVE1-A)*%
X72183500Y-156238000D03*
%TD*%
D103*
%TO.P,BatBalConn1,1,1*%
%TO.N,Net-(BatBalConn1-Pad1)*%
X43640433Y-98105000D03*
D104*
%TO.P,BatBalConn1,2,2*%
%TO.N,Net-(BatBalConn1-Pad2)*%
X46140433Y-98105000D03*
%TO.P,BatBalConn1,3,3*%
%TO.N,Net-(BatBalConn1-Pad3)*%
X48640433Y-98105000D03*
%TO.P,BatBalConn1,4,4*%
%TO.N,Net-(BatBalConn1-Pad4)*%
X51140433Y-98105000D03*
%TD*%
D12*
%TO.P,12V1,1,K*%
%TO.N,unconnected-(12V1-K-Pad1)*%
X70330000Y-145985500D03*
%TO.P,12V1,2,A*%
%TO.N,unconnected-(12V1-A-Pad2)*%
X70830000Y-145985500D03*
%TD*%
D105*
%TO.P,5Vbuck-6A1,1,VCC*%
%TO.N,Net-(5Vbuck-6A1-VCC)*%
X15755000Y-160845000D03*
%TO.P,5Vbuck-6A1,2,FB*%
%TO.N,Net-(5Vbuck-6A1-FB)*%
X15755000Y-161345000D03*
%TO.P,5Vbuck-6A1,3,EN*%
%TO.N,Net-(5Vbuck-6A1-EN)*%
X15755000Y-161845000D03*
D106*
%TO.P,5Vbuck-6A1,4,PGND*%
%TO.N,GND*%
X16505000Y-161795000D03*
D105*
%TO.P,5Vbuck-6A1,5,VIN*%
%TO.N,VCC*%
X17605000Y-161845000D03*
%TO.P,5Vbuck-6A1,6,VIN*%
X17605000Y-161345000D03*
%TO.P,5Vbuck-6A1,7,BST*%
%TO.N,Net-(5Vbuck-6A1-BST)*%
X17605000Y-160845000D03*
D107*
%TO.P,5Vbuck-6A1,8,SW*%
%TO.N,Net-(5Vbuck-6A1-SW)*%
X17005000Y-161045000D03*
D108*
%TO.P,5Vbuck-6A1,9,SS*%
%TO.N,Net-(5Vbuck-6A1-SS)*%
X16505000Y-160670000D03*
%TD*%
D12*
%TO.P,5V1,1,K*%
%TO.N,Net-(5V1-K)*%
X70330000Y-149947366D03*
%TO.P,5V1,2,A*%
%TO.N,+5V*%
X70830000Y-149947366D03*
%TD*%
%TO.P,3V3,1,K*%
%TO.N,Net-(3V3-K)*%
X70330000Y-147966433D03*
%TO.P,3V3,2,A*%
%TO.N,+3V3*%
X70830000Y-147966433D03*
%TD*%
D109*
%TO.P,-BatMains+1,1,-*%
%TO.N,BAT-*%
X57276000Y-91607500D03*
%TO.P,-BatMains+1,2,+*%
%TO.N,Net-(-BatMains+1-+)*%
X57276000Y-84407500D03*
D110*
%TO.P,-BatMains+1,3,3*%
%TO.N,unconnected-(-BatMains+1-Pad3)*%
X51276000Y-81257500D03*
%TO.P,-BatMains+1,4,4*%
%TO.N,unconnected-(-BatMains+1-Pad4)*%
X51276000Y-94757500D03*
%TD*%
D24*
%TO.P,-12V+_6,1,1*%
%TO.N,GND*%
X15411299Y-92270500D03*
%TO.P,-12V+_6,2,2*%
%TO.N,Net-(D84-K)*%
X19373299Y-92270500D03*
%TD*%
%TO.P,-12V+_5,1,1*%
%TO.N,GND*%
X5860366Y-92270500D03*
%TO.P,-12V+_5,2,2*%
%TO.N,Net-(D86-K)*%
X9822366Y-92270500D03*
%TD*%
%TO.P,-12V+_4,1,1*%
%TO.N,GND*%
X-3690567Y-92270500D03*
%TO.P,-12V+_4,2,2*%
%TO.N,Net-(D85-K)*%
X271433Y-92270500D03*
%TD*%
%TO.P,-12V+_3,1,1*%
%TO.N,GND*%
X62331299Y-33500500D03*
%TO.P,-12V+_3,2,2*%
%TO.N,Net-(D18-K)*%
X66293299Y-33500500D03*
%TD*%
%TO.P,-12V+_2,1,1*%
%TO.N,GND*%
X52780366Y-33500500D03*
%TO.P,-12V+_2,2,2*%
%TO.N,Net-(D17-K)*%
X56742366Y-33500500D03*
%TD*%
%TO.P,-12V+_1,1,1*%
%TO.N,GND*%
X43229433Y-33500500D03*
%TO.P,-12V+_1,2,2*%
%TO.N,Net-(D16-K)*%
X47191433Y-33500500D03*
%TD*%
M02*
