M48
; DRILL file {KiCad 9.0.7} date 2026-03-06T05:21:14+0100
; FORMAT={-:-/ absolute / inch / decimal}
; #@! TF.CreationDate,2026-03-06T05:21:14+01:00
; #@! TF.GenerationSoftware,Kicad,Pcbnew,9.0.7
; #@! TF.FileFunction,Plated,1,8,PTH
FMAT,2
INCH
; #@! TA.AperFunction,Plated,PTH,ViaDrill
T1C0.0118
; #@! TA.AperFunction,Plated,PTH,ViaDrill
T2C0.0197
; #@! TA.AperFunction,Plated,PTH,ComponentDrill
T3C0.0197
; #@! TA.AperFunction,Plated,PTH,ViaDrill
T4C0.0236
; #@! TA.AperFunction,Plated,PTH,ComponentDrill
T5C0.0236
; #@! TA.AperFunction,Plated,PTH,ComponentDrill
T6C0.0276
; #@! TA.AperFunction,Plated,PTH,ComponentDrill
T7C0.0315
; #@! TA.AperFunction,Plated,PTH,ViaDrill
T8C0.0394
; #@! TA.AperFunction,Plated,PTH,ComponentDrill
T9C0.0394
; #@! TA.AperFunction,Plated,PTH,ComponentDrill
T10C0.0402
; #@! TA.AperFunction,Plated,PTH,ComponentDrill
T11C0.0472
; #@! TA.AperFunction,Plated,PTH,ComponentDrill
T12C0.0591
; #@! TA.AperFunction,Plated,PTH,ComponentDrill
T13C0.0709
; #@! TA.AperFunction,Plated,PTH,ComponentDrill
T14C0.1063
; #@! TA.AperFunction,Plated,PTH,ComponentDrill
T15C0.1142
; #@! TA.AperFunction,Plated,PTH,ComponentDrill
T16C0.1791
%
G90
G05
T1
X0.814Y-1.71
X0.816Y-1.847
X0.816Y-3.092
X0.817Y-2.269
X0.818Y-2.16
X0.819Y-2.472
X0.821Y-1.985
X0.823Y-2.35
X0.824Y-2.604
X0.839Y-2.933
X0.846Y-3.031
X0.8543Y-2.7156
X0.857Y-1.25
X0.8671Y-1.3159
X0.899Y-0.779
X0.917Y-2.942
X0.9213Y-2.7244
X0.923Y-3.023
X0.9272Y-1.1811
X0.928Y-3.52
X0.943Y-1.291
X0.9449Y-1.437
X0.975Y-1.34
X0.9843Y-2.5492
X0.991Y-0.765
X0.9921Y-2.627
X0.9995Y-2.8937
X1.0044Y-2.6561
X1.008Y-0.801
X1.0084Y-2.9528
X1.0084Y-3.0118
X1.0084Y-3.0709
X1.0126Y-1.333
X1.0126Y-1.454
X1.0126Y-1.539
X1.0126Y-1.595
X1.0126Y-1.634
X1.0128Y-1.4025
X1.0143Y-2.8346
X1.018Y-3.495
X1.0495Y-3.518
X1.052Y-0.763
X1.0586Y-2.8937
X1.064Y-0.807
X1.0674Y-2.9528
X1.0674Y-3.0118
X1.0674Y-3.0709
X1.071Y-2.712
X1.0733Y-2.8346
X1.0866Y-3.4685
X1.1176Y-2.8937
X1.119Y-0.912
X1.1201Y-1.3386
X1.1254Y-2.5496
X1.1299Y-1.2992
X1.131Y-1.602
X1.1324Y-2.8346
X1.1329Y-1.8061
X1.134Y-1.487
X1.148Y-0.969
X1.1545Y-1.3622
X1.1621Y-3.1521
X1.168Y-3.4473
X1.171Y-3.2702
X1.171Y-3.3292
X1.171Y-3.3883
X1.1767Y-2.8937
X1.1769Y-3.2111
X1.1828Y-3.093
X1.1857Y-3.034
X1.1915Y-2.8346
X1.2212Y-3.1521
X1.2271Y-3.4473
X1.23Y-3.2702
X1.23Y-3.3292
X1.23Y-3.3883
X1.2357Y-2.8937
X1.2359Y-3.2111
X1.2374Y-0.7724
X1.2418Y-3.093
X1.2448Y-2.9749
X1.2448Y-3.034
X1.27Y-1.616
X1.2802Y-3.1521
X1.2861Y-3.4473
X1.289Y-1.3551
X1.2891Y-3.2702
X1.2891Y-3.3292
X1.2891Y-3.3883
X1.295Y-3.2111
X1.298Y-0.789
X1.3009Y-3.093
X1.302Y-0.92
X1.3038Y-2.9749
X1.3038Y-3.034
X1.3205Y-0.9549
X1.3393Y-3.1521
X1.3446Y-0.9782
X1.3547Y-3.313
X1.3598Y-2.8346
X1.3598Y-2.8937
X1.3599Y-3.093
X1.3629Y-2.9749
X1.3629Y-3.034
X1.363Y-1.041
X1.3661Y-1.0079
X1.3678Y-3.2722
X1.3839Y-1.1417
X1.3844Y-0.9325
X1.3858Y-1.2461
X1.4055Y-2.8346
X1.4055Y-2.8937
X1.4061Y-3.2547
X1.41Y-0.895
X1.4183Y-3.2216
X1.425Y-0.7996
X1.4449Y-2.2953
X1.4488Y-2.8268
X1.455Y-2.859
X1.455Y-2.894
X1.461Y-2.796
X1.4685Y-2.6201
X1.523Y-2.4634
X1.523Y-2.4925
X1.523Y-2.5215
X1.523Y-2.5506
X1.523Y-2.5797
X1.523Y-2.6087
X1.523Y-2.6378
X1.523Y-2.6669
X1.5276Y-1.8406
X1.53Y-3.3688
X1.53Y-3.3924
X1.53Y-3.416
X1.53Y-3.4396
X1.53Y-3.4633
X1.5319Y-3.1299
X1.5323Y-2.9487
X1.5323Y-2.9723
X1.5323Y-2.9959
X1.5323Y-3.0195
X1.5323Y-3.0431
X1.5335Y-0.8209
X1.5354Y-0.8524
X1.5453Y-0.9803
X1.548Y-2.448
X1.548Y-2.478
X1.548Y-2.5071
X1.548Y-2.5361
X1.548Y-2.5652
X1.548Y-2.5943
X1.548Y-2.6234
X1.548Y-2.6524
X1.548Y-2.6815
X1.55Y-1.0961
X1.5512Y-1.2506
X1.5536Y-3.3534
X1.5536Y-3.377
X1.5536Y-3.4007
X1.5536Y-3.4243
X1.5536Y-3.4479
X1.5559Y-2.964
X1.5559Y-2.9876
X1.5559Y-3.0113
X1.5559Y-3.0349
X1.5559Y-3.0585
X1.5728Y-1.0236
X1.574Y-2.4636
X1.574Y-2.4926
X1.574Y-2.5217
X1.574Y-2.5508
X1.574Y-2.5799
X1.574Y-2.6089
X1.574Y-2.638
X1.574Y-2.6671
X1.5773Y-3.3345
X1.5773Y-3.3581
X1.5795Y-3.0538
X1.5795Y-3.0774
X1.5965Y-0.9291
X1.6004Y-0.8957
X1.6201Y-1.2504
X1.6418Y-0.9587
X1.6437Y-0.8957
X1.6615Y-3.1964
X1.6615Y-3.2554
X1.6645Y-3.0782
X1.6645Y-3.1373
X1.6654Y-2.8957
X1.6654Y-0.9824
X1.687Y-0.7676
X1.6919Y-3.4478
X1.6929Y-0.872
X1.6929Y-2.8445
X1.6929Y-2.9488
X1.6931Y-1.2245
X1.694Y-3.1194
X1.694Y-3.1785
X1.694Y-3.2375
X1.694Y-3.2966
X1.6949Y-3.0138
X1.7098Y-0.7894
X1.7194Y-1.2072
X1.7205Y-2.8957
X1.7206Y-3.1964
X1.7206Y-3.2554
X1.7235Y-3.0782
X1.7235Y-3.1373
X1.7262Y-1.034
X1.7432Y-0.7894
X1.748Y-1.1521
X1.75Y-1.2146
X1.7721Y-1.0774
X1.7873Y-1.124
X1.7933Y-0.9242
X1.8036Y-3.0607
X1.8036Y-3.0843
X1.805Y-3.3253
X1.805Y-3.3489
X1.8137Y-1.0257
X1.8178Y-0.8997
X1.827Y-2.9911
X1.8273Y-3.0181
X1.8273Y-3.0418
X1.8273Y-3.0654
X1.8286Y-3.3442
X1.8286Y-3.3678
X1.8286Y-3.3914
X1.8286Y-3.415
X1.8286Y-3.4387
X1.8509Y-2.9555
X1.8509Y-2.9792
X1.8509Y-3.0028
X1.8509Y-3.0264
X1.8509Y-3.05
X1.8523Y-3.3595
X1.8523Y-3.3831
X1.8523Y-3.4068
X1.8523Y-3.4304
X1.8523Y-3.454
X1.8853Y-3.2671
X1.8898Y-1.1928
X1.9213Y-2.9528
X1.928Y-2.848
X1.9296Y-2.9073
X1.9416Y-2.763
X1.958Y-1.449
X1.9675Y-1.2618
X1.9825Y-3.1958
X1.988Y-1.548
X1.9922Y-1.3038
X1.993Y-1.449
X2.01Y-1.944
X2.012Y-1.872
X2.018Y-2.01
X2.0196Y-2.0689
X2.02Y-2.13
X2.0207Y-0.939
X2.0435Y-2.6519
X2.0512Y-0.94
X2.0768Y-1.875
X2.0768Y-1.9341
X2.0768Y-1.9931
X2.0768Y-2.0522
X2.0768Y-2.1112
X2.0799Y-1.2602
X2.0817Y-0.9409
X2.086Y-2.162
X2.0884Y-1.2119
X2.1122Y-0.9419
X2.1193Y-1.2181
X2.1205Y-1.1854
X2.1276Y-2.2307
X2.1358Y-1.875
X2.1358Y-1.9341
X2.1358Y-1.9931
X2.1358Y-2.0522
X2.1358Y-2.1112
X2.1358Y-2.1703
X2.144Y-0.768
X2.1703Y-0.7858
X2.1949Y-1.875
X2.1949Y-1.9341
X2.1949Y-1.9931
X2.1949Y-2.0522
X2.1949Y-2.1112
X2.1949Y-2.1703
X2.2047Y-1.1181
X2.2146Y-2.4803
X2.237Y-0.7834
X2.2451Y-1.1191
X2.246Y-2.058
X2.2539Y-1.875
X2.2539Y-1.9341
X2.2539Y-1.9931
X2.2539Y-2.1112
X2.2539Y-2.1703
X2.2697Y-1.0955
X2.2913Y-1.1201
X2.298Y-1.956
X2.3118Y-0.7953
X2.313Y-1.875
X2.313Y-2.1112
X2.313Y-2.1703
X2.334Y-1.924
X2.3378Y-0.8602
X2.3455Y-0.9124
X2.3465Y-1.2311
X2.36Y-1.962
X2.3661Y-0.7874
X2.372Y-1.875
X2.372Y-2.1112
X2.372Y-2.1703
X2.3878Y-0.8366
X2.3942Y-1.07
X2.398Y-1.924
X2.4006Y-1.2037
X2.402Y-1.9929
X2.402Y-2.052
X2.4024Y-0.914
X2.4107Y-1.0969
X2.4114Y-0.872
X2.4134Y-0.7854
X2.4309Y-1.2124
X2.4309Y-1.2489
X2.4325Y-1.5899
X2.435Y-2.555
X2.4535Y-1.3744
X2.4535Y-1.4585
X2.4609Y-2.6082
X2.4665Y-0.7992
X2.4671Y-1.5231
X2.473Y-1.253
X2.4757Y-1.3967
X2.4803Y-1.8898
X2.4803Y-1.9291
X2.4803Y-1.9685
X2.4803Y-2.0079
X2.4803Y-2.0472
X2.4803Y-2.0866
X2.4803Y-2.126
X2.4803Y-2.1654
X2.4803Y-2.2047
X2.4803Y-2.2441
X2.4803Y-2.2835
X2.4803Y-2.3228
X2.4803Y-2.3622
X2.4803Y-2.4016
X2.4821Y-2.7281
X2.4885Y-1.5
X2.5047Y-0.8031
X2.5054Y-0.9892
X2.5054Y-1.0148
X2.5054Y-1.0787
X2.5054Y-1.1043
X2.5138Y-2.7326
X2.5197Y-1.8898
X2.5197Y-1.9291
X2.5197Y-1.9685
X2.5197Y-2.0079
X2.5197Y-2.0472
X2.5197Y-2.0866
X2.5197Y-2.126
X2.5197Y-2.1654
X2.5197Y-2.2047
X2.5197Y-2.2441
X2.5197Y-2.2835
X2.5197Y-2.3228
X2.5197Y-2.3622
X2.5197Y-2.4016
X2.5211Y-1.5475
X2.5324Y-1.3865
X2.533Y-0.9892
X2.533Y-1.0148
X2.533Y-1.0787
X2.533Y-1.1043
X2.5386Y-2.9124
X2.5404Y-3.0004
X2.5591Y-1.8898
X2.5591Y-1.9291
X2.5591Y-1.9685
X2.5591Y-2.0079
X2.5591Y-2.0472
X2.5591Y-2.0866
X2.5591Y-2.2441
X2.5591Y-2.2835
X2.5591Y-2.3228
X2.5591Y-2.3622
X2.5591Y-2.4016
X2.5606Y-0.9892
X2.5606Y-1.0148
X2.5606Y-1.0787
X2.5606Y-1.1043
X2.5684Y-1.5384
X2.5881Y-0.9892
X2.5881Y-1.0148
X2.5881Y-1.0787
X2.5881Y-1.1043
X2.5954Y-1.3758
X2.5954Y-1.417
X2.596Y-1.22
X2.5984Y-1.8898
X2.5984Y-1.9291
X2.5984Y-1.9685
X2.5984Y-2.0079
X2.5984Y-2.0472
X2.5984Y-2.0866
X2.5984Y-2.2441
X2.5984Y-2.2835
X2.5984Y-2.3228
X2.5984Y-2.3622
X2.5984Y-2.4016
X2.6012Y-3.4
X2.6035Y-0.937
X2.6274Y-1.5484
X2.63Y-1.429
X2.6322Y-1.0915
X2.6378Y-1.8898
X2.6378Y-1.9291
X2.6378Y-1.9685
X2.6378Y-2.0079
X2.6378Y-2.0472
X2.6378Y-2.0866
X2.6378Y-2.2441
X2.6378Y-2.2835
X2.6378Y-2.3228
X2.6378Y-2.3622
X2.6378Y-2.4016
X2.6378Y-2.6378
X2.6378Y-2.6772
X2.6378Y-2.7165
X2.6378Y-2.751
X2.6398Y-3.0413
X2.6418Y-1.0546
X2.6772Y-1.8898
X2.6772Y-1.9291
X2.6772Y-1.9685
X2.6772Y-2.0079
X2.6772Y-2.0472
X2.6772Y-2.0866
X2.6772Y-2.126
X2.6772Y-2.1654
X2.6772Y-2.2047
X2.6772Y-2.2441
X2.6772Y-2.2835
X2.6772Y-2.3228
X2.6772Y-2.3622
X2.6772Y-2.4016
X2.6772Y-2.6378
X2.6772Y-2.6772
X2.6772Y-2.7165
X2.6772Y-2.751
X2.6815Y-3.1945
X2.7007Y-1.5063
X2.7136Y-1.5622
X2.7154Y-1.5954
X2.7165Y-1.8898
X2.7165Y-1.9291
X2.7165Y-1.9685
X2.7165Y-2.0079
X2.7165Y-2.0472
X2.7165Y-2.0866
X2.7165Y-2.126
X2.7165Y-2.1654
X2.7165Y-2.2047
X2.7165Y-2.2441
X2.7165Y-2.2835
X2.7165Y-2.3228
X2.7165Y-2.3622
X2.7165Y-2.4016
X2.7165Y-2.6378
X2.7165Y-2.6772
X2.7165Y-2.7165
X2.7165Y-2.751
X2.741Y-1.284
X2.7559Y-1.8898
X2.7559Y-1.9291
X2.7559Y-1.9685
X2.7559Y-2.0079
X2.7559Y-2.0472
X2.7559Y-2.0866
X2.7559Y-2.126
X2.7559Y-2.1654
X2.7559Y-2.2047
X2.7559Y-2.2441
X2.7559Y-2.2835
X2.7559Y-2.3228
X2.7559Y-2.3622
X2.7559Y-2.4016
X2.7559Y-2.6378
X2.7559Y-2.6772
X2.7559Y-2.7165
X2.7559Y-2.751
X2.76Y-3.04
X2.7681Y-1.4803
X2.7953Y-1.8898
X2.7953Y-1.9291
X2.7953Y-1.9685
X2.7953Y-2.0079
X2.7953Y-2.0472
X2.7953Y-2.0866
X2.7953Y-2.126
X2.7953Y-2.1654
X2.7953Y-2.2047
X2.7953Y-2.2441
X2.7953Y-2.2835
X2.7953Y-2.3228
X2.7953Y-2.3622
X2.7953Y-2.4016
X2.8049Y-1.7744
X2.8061Y-1.4744
X2.81Y-0.932
X2.8346Y-1.8898
X2.8346Y-1.9291
X2.8346Y-1.9685
X2.8346Y-2.0079
X2.8346Y-2.0472
X2.8346Y-2.0866
X2.8346Y-2.126
X2.8346Y-2.1654
X2.8346Y-2.2047
X2.8346Y-2.2441
X2.8346Y-2.2835
X2.8346Y-2.3228
X2.8346Y-2.3622
X2.8346Y-2.4016
X2.8376Y-1.4744
X2.8417Y-2.5846
X2.8476Y-1.013
X2.8476Y-1.0534
X2.8506Y-0.9825
X2.8506Y-1.0868
X2.8575Y-1.1681
X2.8686Y-0.8304
X2.8732Y-0.7992
X2.874Y-1.929
X2.874Y-1.8898
X2.874Y-1.9685
X2.874Y-2.0079
X2.874Y-2.0472
X2.874Y-2.0866
X2.874Y-2.126
X2.874Y-2.1654
X2.874Y-2.2047
X2.874Y-2.2441
X2.874Y-2.2835
X2.874Y-2.3228
X2.874Y-2.3622
X2.874Y-2.4016
X2.898Y-3.134
X2.933Y-2.4467
X2.94Y-2.414
X2.9761Y-1.4357
X2.986Y-1.963
X2.9867Y-1.3721
X2.9921Y-2.7106
X3.0154Y-1.2946
X3.0207Y-1.4859
X3.0256Y-1.2638
X3.0271Y-1.0669
X3.0398Y-1.0957
X3.0449Y-1.1278
X3.0464Y-1.1678
X3.0479Y-1.2894
X3.0592Y-2.0079
X3.0592Y-2.185
X3.06Y-1.5349
X3.0622Y-2.0669
X3.0622Y-2.126
X3.0807Y-2.713
X3.1002Y-2.6563
X3.1161Y-1.6161
X3.1183Y-2.0079
X3.1183Y-2.185
X3.1196Y-1.5147
X3.1203Y-1.4832
X3.1212Y-2.0669
X3.1212Y-2.126
X3.1319Y-2.2933
X3.134Y-3.358
X3.1358Y-3.3922
X3.1371Y-2.7386
X3.1773Y-2.0079
X3.1773Y-2.185
X3.1791Y-1.4706
X3.1803Y-2.0669
X3.1803Y-2.126
X3.1836Y-1.5152
X3.208Y-3.216
X3.223Y-3.418
X3.2264Y-0.8228
X3.23Y-2.555
X3.2306Y-2.6106
X3.2492Y-2.4587
X3.2499Y-2.4901
X3.2539Y-1.1122
X3.2559Y-1.1654
X3.2697Y-0.937
X3.29Y-1.52
X3.29Y-1.57
X3.29Y-1.62
X3.29Y-1.671
X3.29Y-1.721
X3.29Y-1.771
X3.307Y-2.935
X3.321Y-3.351
X3.335Y-2.525
X3.34Y-1.52
X3.34Y-1.57
X3.34Y-1.62
X3.34Y-1.671
X3.34Y-1.721
X3.34Y-1.771
X3.342Y-0.852
X3.3537Y-2.4154
X3.357Y-0.761
X3.3661Y-3.1193
X3.375Y-2.52
X3.376Y-3.2782
X3.3761Y-1.3366
X3.3774Y-3.3914
X3.391Y-1.52
X3.391Y-1.57
X3.391Y-1.62
X3.391Y-1.671
X3.391Y-1.721
X3.391Y-1.771
X3.3949Y-2.4219
X3.396Y-3.501
X3.3991Y-2.8244
X3.4311Y-0.9173
X3.4409Y-3.4459
X3.441Y-1.52
X3.441Y-1.57
X3.441Y-1.62
X3.441Y-1.671
X3.441Y-1.721
X3.441Y-1.771
X3.442Y-0.763
X3.45Y-2.985
X3.4882Y-2.1339
X3.49Y-1.52
X3.49Y-1.57
X3.49Y-1.62
X3.49Y-1.671
X3.49Y-1.721
X3.49Y-1.771
X3.4949Y-2.7539
X3.5196Y-2.2836
X3.5285Y-2.3245
X3.5304Y-2.4096
X3.5315Y-2.8248
X3.54Y-1.52
X3.54Y-1.57
X3.54Y-1.62
X3.54Y-1.671
X3.54Y-1.721
X3.54Y-1.771
X3.54Y-1.82
X3.54Y-1.871
X3.548Y-2.7374
X3.5676Y-2.294
X3.574Y-2.3248
X3.576Y-0.762
X3.5811Y-3.0771
X3.589Y-1.87
X3.59Y-1.719
X3.59Y-1.77
X3.59Y-1.82
X3.607Y-3.192
X3.6201Y-1.187
X3.6328Y-1.2665
X3.6332Y-1.3084
X3.64Y-1.87
X3.641Y-1.719
X3.641Y-1.77
X3.641Y-1.82
X3.649Y-3.111
X3.649Y-1.3378
X3.657Y-3.227
X3.665Y-3.27
X3.67Y-2.945
X3.676Y-0.894
X3.689Y-2.5425
X3.69Y-1.719
X3.69Y-1.77
X3.69Y-1.82
X3.69Y-1.87
X3.69Y-2.186
X3.6979Y-2.2364
X3.7033Y-2.1333
X3.7035Y-2.7169
X3.7057Y-2.0207
X3.7087Y-3.4055
X3.7096Y-1.9902
X3.7106Y-2.0591
X3.7244Y-2.6161
X3.7303Y-1.9715
X3.735Y-3.145
X3.7417Y-2.1624
X3.744Y-3.067
X3.7443Y-2.1112
X3.746Y-2.212
X3.752Y-2.864
X3.7539Y-2.4843
X3.7579Y-1.9557
X3.759Y-0.891
X3.7736Y-1.5797
X3.7761Y-2.4151
X3.7772Y-1.2606
X3.7804Y-3.1367
X3.7815Y-1.7815
X3.7815Y-1.8664
X3.7836Y-1.2928
X3.7878Y-2.2136
X3.7894Y-1.9449
X3.7929Y-2.1624
X3.7935Y-3.3995
X3.7943Y-1.5344
X3.7954Y-2.8505
X3.7955Y-2.06
X3.7955Y-2.1112
X3.8066Y-2.6057
X3.8204Y-2.635
X3.83Y-2.91
X3.8307Y-2.4902
X3.8307Y-2.4568
X3.839Y-2.2136
X3.8408Y-2.28
X3.8417Y-3.08
X3.8441Y-2.6142
X3.8441Y-2.1624
X3.846Y-0.886
X3.8467Y-2.06
X3.8467Y-2.1112
X3.8523Y-1.8481
X3.8624Y-1.878
X3.8705Y-3.0343
X3.8708Y-1.6613
X3.873Y-1.5463
X3.8819Y-2.3907
X3.8846Y-1.4419
X3.8866Y-1.3848
X3.8888Y-2.5354
X3.8917Y-1.9035
X3.8996Y-2.0512
X3.9085Y-1.8742
X3.918Y-0.866
X3.9183Y-2.3927
X3.9193Y-2.5354
X3.922Y-2.7602
X3.9232Y-2.3219
X3.9281Y-1.4608
X3.9302Y-1.4138
X3.9311Y-1.3593
X3.937Y-1.8917
X3.9374Y-2.6083
X3.9441Y-2.815
X3.9478Y-1.9892
X3.95Y-1.512
X3.9537Y-2.3927
X3.9537Y-2.5374
X3.9557Y-1.9557
X3.96Y-0.862
X3.972Y-3.188
X3.9734Y-2.0138
X3.9799Y-2.6547
X3.9833Y-1.9803
X3.9836Y-2.9237
X3.9836Y-2.9748
X3.9862Y-2.3563
X3.992Y-1.514
X3.999Y-2.2569
X3.999Y-2.2904
X3.999Y-2.3228
X4.0022Y-2.6999
X4.0042Y-3.2908
X4.007Y-0.757
X4.015Y-2.9771
X4.0169Y-2.4713
X4.0259Y-3.0649
X4.0289Y-1.6191
X4.0335Y-2.248
X4.0358Y-2.6636
X4.037Y-2.8858
X4.0433Y-3.3563
X4.0561Y-1.8258
X4.0573Y-1.6585
X4.063Y-2.2421
X4.0657Y-3.197
X4.0846Y-3.2964
X4.1037Y-2.6627
X4.1088Y-2.8578
X4.116Y-3.294
X4.124Y-3.4551
X4.1319Y-3.0687
X4.14Y-2.87
X4.1417Y-2.2283
X4.1417Y-2.2677
X4.1417Y-2.3071
X4.144Y-2.959
X4.144Y-2.995
X4.158Y-0.755
X4.159Y-1.3
X4.1596Y-2.977
X4.175Y-2.959
X4.175Y-2.995
X4.178Y-3.0804
X4.1796Y-2.78
X4.1796Y-2.8054
X4.1797Y-3.1163
X4.181Y-1.332
X4.1811Y-2.2283
X4.1811Y-2.3071
X4.1816Y-2.2677
X4.195Y-3.098
X4.2028Y-3.5177
X4.205Y-2.78
X4.205Y-2.805
X4.2118Y-3.0813
X4.2138Y-3.118
X4.219Y-2.879
X4.2205Y-2.2283
X4.2205Y-2.2677
X4.2205Y-2.3071
X4.2236Y-3.0316
X4.2362Y-2.675
X4.24Y-2.5984
X4.24Y-3.137
X4.2429Y-2.9201
X4.2531Y-2.3454
X4.256Y-1.855
X4.257Y-1.823
X4.261Y-1.781
X4.263Y-3.0236
X4.2665Y-2.6575
X4.2703Y-2.1917
X4.279Y-2.992
X4.2852Y-1.8041
X4.2852Y-1.8553
X4.2861Y-2.3507
X4.29Y-1.901
X4.299Y-2.5984
X4.3004Y-2.6394
X4.3041Y-1.7234
X4.3041Y-1.7579
X4.3071Y-2.8661
X4.3071Y-3.5453
X4.311Y-3.0433
X4.3187Y-3.256
X4.32Y-2.2158
X4.3201Y-2.3646
X4.327Y-0.752
X4.3307Y-1.8917
X4.3317Y-1.5502
X4.3317Y-1.6093
X4.3364Y-1.8041
X4.3364Y-1.8553
X4.3396Y-3.4823
X4.3409Y-2.3791
X4.3425Y-2.6419
X4.3465Y-2.29
X4.3518Y-1.753
X4.357Y-0.96
X4.3581Y-2.5984
X4.3583Y-2.4488
X4.3602Y-1.1319
X4.3604Y-3.061
X4.3642Y-1.6683
X4.3671Y-1.7913
X4.3681Y-1.8258
X4.3691Y-1.8701
X4.373Y-1.4911
X4.3789Y-1.314
X4.3789Y-1.373
X4.3817Y-2.6575
X4.3878Y-3.2628
X4.3907Y-1.5502
X4.3907Y-1.6093
X4.3909Y-2.6138
X4.3956Y-2.4494
X4.3976Y-2.5394
X4.4075Y-1.0345
X4.417Y-2.25
X4.4232Y-1.6683
X4.4233Y-2.1675
X4.4288Y-2.1945
X4.4321Y-1.4911
X4.438Y-1.4321
X4.44Y-1.9065
X4.444Y-1.713
X4.4488Y-2.9409
X4.4488Y-3.4478
X4.4498Y-1.5502
X4.4498Y-1.6093
X4.4512Y-1.1339
X4.455Y-2.141
X4.4551Y-2.1117
X4.46Y-2.2204
X4.4606Y-2.2717
X4.4606Y-2.2992
X4.4724Y-2.3366
X4.5039Y-1.9508
X4.5039Y-2.7787
X4.5089Y-1.1579
X4.5132Y-2.4177
X4.5236Y-1.0
X4.5316Y-2.3921
X4.54Y-1.382
X4.542Y-1.422
X4.547Y-1.235
X4.556Y-2.14
X4.557Y-2.102
X4.5575Y-2.0249
X4.5627Y-2.0465
X4.565Y-2.175
X4.573Y-1.235
X4.573Y-2.1204
X4.573Y-2.3
X4.5775Y-2.0079
X4.5837Y-2.0336
X4.5837Y-2.4687
X4.588Y-2.141
X4.588Y-2.0574
X4.5886Y-1.5496
X4.592Y-2.104
X4.6Y-2.38
X4.6024Y-1.2717
X4.6036Y-1.3079
X4.605Y-1.935
X4.6102Y-2.3386
X4.6142Y-2.3031
X4.6142Y-2.4606
X4.6154Y-1.516
X4.619Y-2.0436
X4.6299Y-2.5039
X4.63Y-2.17
X4.634Y-2.142
X4.635Y-2.024
X4.635Y-2.104
X4.64Y-1.95
X4.6427Y-2.5669
X4.645Y-1.905
X4.648Y-0.915
X4.653Y-2.043
X4.653Y-2.1217
X4.6546Y-1.4903
X4.6614Y-2.6
X4.6655Y-1.339
X4.669Y-2.105
X4.67Y-2.14
X4.6732Y-2.5758
X4.675Y-1.915
X4.682Y-1.381
X4.682Y-1.405
X4.682Y-1.429
X4.682Y-1.453
X4.684Y-2.043
X4.69Y-1.945
X4.6921Y-2.6972
X4.6921Y-2.7472
X4.6929Y-2.0229
X4.6998Y-2.5679
X4.7008Y-1.2323
X4.704Y-2.7815
X4.7205Y-1.7657
X4.732Y-2.641
X4.7321Y-2.6
X4.742Y-2.674
X4.742Y-2.76
X4.744Y-2.842
X4.748Y-2.2165
X4.748Y-2.2598
X4.748Y-2.2992
X4.748Y-2.3386
X4.748Y-2.378
X4.748Y-2.4173
X4.7717Y-2.5079
X4.7718Y-1.54
X4.775Y-2.175
X4.7766Y-1.9163
X4.7913Y-2.2165
X4.7913Y-2.2598
X4.7913Y-2.2992
X4.7913Y-2.3386
X4.7913Y-2.378
X4.7913Y-2.4173
X4.8055Y-1.5063
X4.81Y-1.575
X4.8111Y-1.4066
X4.8346Y-2.2165
X4.8346Y-2.2598
X4.8346Y-2.2992
X4.8346Y-2.3386
X4.8346Y-2.378
X4.8346Y-2.4173
X4.835Y-1.145
X4.85Y-1.494
X4.8508Y-1.3546
X4.855Y-1.53
X4.855Y-1.575
X4.874Y-2.1132
X4.875Y-1.635
X4.875Y-1.66
X4.875Y-1.685
X4.877Y-2.0266
X4.8789Y-1.9439
X4.8819Y-2.4803
X4.885Y-1.211
X4.8858Y-2.1772
X4.8986Y-1.4991
X4.9085Y-2.0699
X4.9104Y-1.9843
X4.9133Y-0.8897
X4.9173Y-1.061
X4.9183Y-1.2126
X4.92Y-3.07
X4.926Y-2.47
X4.9291Y-2.1929
X4.937Y-2.5866
X4.9429Y-1.9439
X4.9429Y-2.0285
X4.9429Y-2.1142
X4.9449Y-2.2205
X4.95Y-3.158
X4.9508Y-1.2136
X4.9606Y-0.8858
X4.9646Y-2.1929
X4.9673Y-2.378
X4.97Y-3.112
X4.98Y-2.33
X4.983Y-1.209
X4.99Y-3.066
X5.0Y-2.1929
X5.0055Y-2.4685
X5.01Y-3.155
X5.0157Y-2.5827
X5.0169Y-2.2772
X5.0354Y-2.1929
X5.0354Y-2.2283
X5.039Y-0.856
X5.041Y-0.794
X5.0512Y-2.5236
X5.075Y-3.04
X5.0787Y-2.4921
X5.082Y-3.156
X5.0866Y-1.2165
X5.09Y-3.1
X5.1004Y-1.935
X5.103Y-0.89
X5.13Y-1.2583
X5.13Y-1.464
X5.1417Y-1.878
X5.148Y-2.796
X5.148Y-2.86
X5.1606Y-1.1795
X5.1622Y-2.7322
X5.1637Y-0.7584
X5.1846Y-2.6087
X5.205Y-1.335
X5.2224Y-1.8701
X5.2317Y-0.7634
X5.235Y-1.335
X5.242Y-1.048
X5.2426Y-0.8236
X5.2426Y-0.863
X5.2426Y-0.9024
X5.243Y-1.4869
X5.243Y-1.5263
X5.243Y-1.5656
X5.243Y-1.605
X5.265Y-1.335
X5.282Y-0.8236
X5.282Y-0.863
X5.282Y-0.9024
X5.2854Y-1.7244
X5.2854Y-2.5551
X5.293Y-2.835
X5.295Y-2.631
X5.309Y-2.901
X5.311Y-2.778
X5.3214Y-0.8236
X5.3214Y-0.863
X5.3214Y-0.9024
X5.3248Y-1.7244
X5.3287Y-1.3524
X5.334Y-1.8838
X5.3433Y-1.5311
X5.357Y-2.647
X5.358Y-3.232
X5.3607Y-0.9024
X5.372Y-1.7244
X5.379Y-1.048
X5.3972Y-1.3157
X5.412Y-2.973
X5.4215Y-0.8192
X5.4215Y-0.8585
X5.4311Y-1.9173
X5.4331Y-2.7283
X5.4387Y-0.7464
X5.4724Y-1.8602
X5.5Y-2.775
X5.505Y-3.385
X5.506Y-2.828
X5.512Y-2.877
X5.522Y-3.501
X5.5295Y-1.2508
X5.5339Y-2.7016
X5.534Y-3.016
X5.54Y-3.201
X5.573Y-2.986
X5.5799Y-2.837
X5.585Y-2.745
X5.591Y-2.683
X5.602Y-0.776
X5.609Y-2.893
X5.6102Y-1.3583
X5.614Y-3.097
X5.652Y-2.715
X5.657Y-2.866
X5.66Y-2.651
X5.701Y-0.766
X5.714Y-2.784
X5.7141Y-1.3765
X5.7421Y-1.8996
X5.7506Y-1.6546
X5.751Y-2.842
X5.752Y-2.983
X5.7539Y-2.656
X5.792Y-2.69
X5.7931Y-1.3356
X5.7943Y-1.3041
X5.7972Y-1.2185
X5.8Y-0.778
X5.842Y-0.825
T2
X3.3217Y-3.0839
T4
X2.711Y-3.421
X5.7213Y-1.8594
T6
X4.54Y-0.807
X4.54Y-0.857
X4.59Y-0.807
X4.59Y-0.857
X4.64Y-0.807
X4.64Y-0.857
X4.69Y-0.807
X4.69Y-0.857
X4.74Y-0.807
X4.74Y-0.857
X4.79Y-0.807
X4.79Y-0.857
X4.84Y-0.807
X4.84Y-0.857
X4.89Y-0.807
X4.89Y-0.857
T8
X5.045Y-1.2787
X5.0947Y-1.6654
T9
X2.9977Y-3.1516
X3.0961Y-3.1516
X3.1945Y-3.1516
X3.293Y-3.1516
X4.7907Y-1.8081
X4.8907Y-1.8081
X4.9907Y-1.8081
X5.185Y-1.126
X5.285Y-1.126
X5.385Y-1.126
X5.491Y-1.3217
X5.491Y-1.4201
X5.491Y-1.5185
X5.491Y-1.6169
T10
X1.2378Y-1.9291
X1.2378Y-2.0291
X1.2378Y-2.1291
X1.2378Y-2.2291
X1.2378Y-2.3693
X1.2378Y-2.4693
X1.2378Y-2.5693
X1.2378Y-2.6693
X1.3378Y-1.9291
X1.3378Y-2.0291
X1.3378Y-2.1291
X1.3378Y-2.2291
X1.3378Y-2.3693
X1.3378Y-2.4693
X1.3378Y-2.5693
X1.3378Y-2.6693
X1.4378Y-1.9291
X1.4378Y-2.0291
X1.4378Y-2.1291
X1.4378Y-2.2291
X1.4378Y-2.3693
X1.4378Y-2.4693
X1.4378Y-2.5693
X1.4378Y-2.6693
T11
X2.3224Y-2.0312
X2.59Y-2.156
X3.544Y-3.328
X3.7212Y-3.328
T12
X2.5291Y-0.902
X2.5291Y-1.202
X2.7291Y-0.902
X2.7291Y-1.202
X2.9291Y-0.902
X2.9291Y-1.202
X3.1291Y-0.902
X3.1291Y-1.202
X3.4948Y-3.228
X3.7704Y-3.228
T13
X3.3557Y-1.1688
X3.5117Y-1.1688
X3.7198Y-1.1688
X3.8758Y-1.1688
X4.084Y-1.1688
X4.24Y-1.1688
T14
X2.0925Y-2.8366
X2.0925Y-3.0335
X2.0925Y-3.1988
X2.0925Y-3.3957
T15
X1.4781Y-1.3883
X1.4781Y-1.6717
X2.3973Y-2.8644
X2.6807Y-2.8644
T16
X0.9457Y-1.007
X0.9457Y-3.2904
X5.7291Y-1.007
X5.7291Y-3.2904
T3
G00X5.1354Y-0.8344
M15
G01X5.1354Y-0.8069
M16
G05
G00X5.1354Y-0.984
M15
G01X5.1354Y-0.9565
M16
G05
G00X5.4756Y-0.8344
M15
G01X5.4756Y-0.8069
M16
G05
G00X5.4756Y-0.984
M15
G01X5.4756Y-0.9565
M16
G05
T5
G00X1.2222Y-1.2642
M15
G01X1.2616Y-1.2642
M16
G05
G00X1.2222Y-1.7958
M15
G01X1.2616Y-1.7958
M16
G05
G00X2.2732Y-3.1203
M15
G01X2.2732Y-3.0809
M16
G05
G00X2.8048Y-3.1203
M15
G01X2.8048Y-3.0809
M16
G05
G00X4.806Y-3.0478
M15
G01X4.806Y-3.1384
M16
G05
G00X5.2715Y-3.0497
M15
G01X5.2715Y-3.1403
M16
G05
G00X5.4846Y-2.4717
M15
G01X5.4846Y-2.4165
M16
G05
G00X5.6933Y-2.1094
M15
G01X5.6933Y-2.0543
M16
G05
T7
G00X3.8879Y-3.2531
M15
G01X3.8879Y-3.2846
M16
G05
G00X3.8879Y-3.4216
M15
G01X3.8879Y-3.4452
M16
G05
G00X4.2284Y-3.2531
M15
G01X4.2284Y-3.2846
M16
G05
G00X4.2284Y-3.4216
M15
G01X4.2284Y-3.4452
M16
G05
G00X4.5737Y-2.973
M15
G01X4.6603Y-2.973
M16
G05
G00X4.5737Y-3.2191
M15
G01X4.6603Y-3.2191
M16
G05
G00X5.0392Y-2.9749
M15
G01X5.1258Y-2.9749
M16
G05
G00X5.0392Y-3.221
M15
G01X5.1258Y-3.221
M16
G05
M30
