%TF.GenerationSoftware,KiCad,Pcbnew,9.0.7*%
%TF.CreationDate,2026-02-16T20:04:55+01:00*%
%TF.ProjectId,svea_powerboard_rev3,73766561-5f70-46f7-9765-72626f617264,rev?*%
%TF.SameCoordinates,Original*%
%TF.FileFunction,Copper,L2,Bot*%
%TF.FilePolarity,Positive*%
%FSLAX46Y46*%
G04 Gerber Fmt 4.6, Leading zero omitted, Abs format (unit mm)*
G04 Created by KiCad (PCBNEW 9.0.7) date 2026-02-16 20:04:55*
%MOMM*%
%LPD*%
G01*
G04 APERTURE LIST*
%TA.AperFunction,ComponentPad*%
%ADD10C,2.300000*%
%TD*%
%TA.AperFunction,ComponentPad*%
%ADD11O,1.200000X2.000000*%
%TD*%
%TA.AperFunction,ComponentPad*%
%ADD12O,1.200000X1.800000*%
%TD*%
%TA.AperFunction,ComponentPad*%
%ADD13O,1.100000X2.000000*%
%TD*%
%TA.AperFunction,ComponentPad*%
%ADD14R,2.600000X2.600000*%
%TD*%
%TA.AperFunction,ComponentPad*%
%ADD15C,2.600000*%
%TD*%
%TA.AperFunction,ComponentPad*%
%ADD16C,1.600000*%
%TD*%
%TA.AperFunction,ComponentPad*%
%ADD17R,1.800000X1.800000*%
%TD*%
%TA.AperFunction,ComponentPad*%
%ADD18C,1.800000*%
%TD*%
%TA.AperFunction,ComponentPad*%
%ADD19C,1.524000*%
%TD*%
%TA.AperFunction,ComponentPad*%
%ADD20R,2.000000X2.000000*%
%TD*%
%TA.AperFunction,ComponentPad*%
%ADD21C,2.000000*%
%TD*%
%TA.AperFunction,ComponentPad*%
%ADD22R,1.600000X1.600000*%
%TD*%
%TA.AperFunction,ComponentPad*%
%ADD23C,3.500000*%
%TD*%
%TA.AperFunction,ComponentPad*%
%ADD24O,2.000000X4.600000*%
%TD*%
%TA.AperFunction,ComponentPad*%
%ADD25O,4.600000X2.000000*%
%TD*%
%TA.AperFunction,ComponentPad*%
%ADD26C,1.700000*%
%TD*%
%TA.AperFunction,ComponentPad*%
%ADD27R,1.524000X1.500000*%
%TD*%
%TA.AperFunction,ComponentPad*%
%ADD28C,1.500000*%
%TD*%
%TA.AperFunction,ComponentPad*%
%ADD29C,3.800000*%
%TD*%
%TA.AperFunction,ComponentPad*%
%ADD30O,2.200000X1.200000*%
%TD*%
G04 APERTURE END LIST*
D10*
%TO.P,___-3V3+_______-5V0+_______-12V+_______-VCC+___1,1,1*%
%TO.N,VCC*%
X-3129567Y-66592500D03*
X-3129567Y-74212500D03*
%TO.P,___-3V3+_______-5V0+_______-12V+_______-VCC+___1,2,2*%
%TO.N,GND*%
X1950433Y-66592500D03*
X1950433Y-74212500D03*
%TO.P,___-3V3+_______-5V0+_______-12V+_______-VCC+___1,3,3*%
%TO.N,+12V*%
X7030433Y-66592500D03*
X7030433Y-74212500D03*
%TO.P,___-3V3+_______-5V0+_______-12V+_______-VCC+___1,4,4*%
%TO.N,GND*%
X12110433Y-66592500D03*
X12110433Y-74212500D03*
%TO.P,___-3V3+_______-5V0+_______-12V+_______-VCC+___1,5,5*%
%TO.N,+5V*%
X17190433Y-66592500D03*
X17190433Y-74212500D03*
%TO.P,___-3V3+_______-5V0+_______-12V+_______-VCC+___1,6,6*%
%TO.N,GND*%
X22270433Y-66592500D03*
X22270433Y-74212500D03*
%TO.P,___-3V3+_______-5V0+_______-12V+_______-VCC+___1,7,7*%
%TO.N,+3V3*%
X27350433Y-66592500D03*
X27350433Y-74212500D03*
%TO.P,___-3V3+_______-5V0+_______-12V+_______-VCC+___1,8,8*%
%TO.N,GND*%
X32430433Y-66592500D03*
X32430433Y-74212500D03*
%TD*%
D11*
%TO.P,USBC1,0,SH*%
%TO.N,unconnected-(USBC1-SH-Pad0)*%
X81195000Y-151483000D03*
%TO.P,USBC1,1,SH*%
%TO.N,unconnected-(USBC1-SH-Pad1)*%
X89845000Y-151483000D03*
D12*
%TO.P,USBC1,2,SH*%
%TO.N,unconnected-(USBC1-SH-Pad2)*%
X89845000Y-155663000D03*
%TO.P,USBC1,3,SH*%
%TO.N,unconnected-(USBC1-SH-Pad3)*%
X81195000Y-155663000D03*
%TD*%
D13*
%TO.P,USB1,13,SHELL*%
%TO.N,unconnected-(USB1-SHELL-Pad13)*%
X-1115000Y-131875000D03*
D12*
%TO.N,unconnected-(USB1-SHELL-Pad13)_1*%
X-1115000Y-136075000D03*
D13*
%TO.P,USB1,14,SHELL*%
%TO.N,unconnected-(USB1-SHELL-Pad14)_1*%
X7535000Y-131875000D03*
D12*
%TO.N,unconnected-(USB1-SHELL-Pad14)*%
X7535000Y-136075000D03*
%TD*%
D14*
%TO.P,U207,1,1*%
%TO.N,+12V*%
X111340433Y-23075000D03*
D15*
%TO.P,U207,2,2*%
%TO.N,Net-(H5-Pad2)*%
X115300933Y-23075000D03*
%TO.P,U207,3,3*%
%TO.N,Net-(H5-Pad1)*%
X119260433Y-23075000D03*
%TO.P,U207,4,4*%
%TO.N,GND*%
X123220433Y-23075000D03*
%TD*%
D16*
%TO.P,U183,17,GND*%
%TO.N,GND*%
X33645000Y-120535000D03*
%TO.P,U183,18,PROGRAM*%
%TO.N,unconnected-(U183-PROGRAM-Pad18)*%
X33645000Y-117995000D03*
%TO.P,U183,19,ON_OFF*%
%TO.N,unconnected-(U183-ON_OFF-Pad19)*%
X33645000Y-115455000D03*
%TO.P,U183,20,13_SCK_CRX1_LED*%
%TO.N,unconnected-(U183-13_SCK_CRX1_LED-Pad20)*%
X33645000Y-112915000D03*
%TO.P,U183,16,3V3*%
%TO.N,unconnected-(U183-3V3-Pad16)*%
X33645000Y-123075000D03*
%TO.P,U183,15,VBAT*%
%TO.N,unconnected-(U183-VBAT-Pad15)*%
X33645000Y-125615000D03*
%TO.P,U183,14,12_MISO_MQSL*%
%TO.N,unconnected-(U183-12_MISO_MQSL-Pad14)*%
X33645000Y-128155000D03*
%TO.P,U183,21,14_A0_TX3_SPDIF_OUT*%
%TO.N,MCU-LED-INDICATOR-STRIP-PORT*%
X31105000Y-112915000D03*
%TO.P,U183,22,15_A1_RX3_SPDIF_IN*%
%TO.N,MCU-LED-INDICATOR-STRIP-ONBOARD*%
X28565000Y-112915000D03*
%TO.P,U183,23,16_A2_RX4_SCL1*%
%TO.N,SCL_SLOW*%
X26025000Y-112915000D03*
%TO.P,U183,24,17_A3_TX4_SDA1*%
%TO.N,SDA_SLOW*%
X23485000Y-112915000D03*
%TO.P,U183,25,18_A4_SDA0*%
%TO.N,unconnected-(U183-18_A4_SDA0-Pad25)*%
X20945000Y-112915000D03*
%TO.P,U183,26,19_A5_SCL0*%
%TO.N,unconnected-(U183-19_A5_SCL0-Pad26)*%
X18405000Y-112915000D03*
%TO.P,U183,27,20_A6_TX5_LRCLK1*%
%TO.N,TEENSY_MICROROS_TX*%
X15865000Y-112915000D03*
%TO.P,U183,28,21_A7_RX5_BCLK1*%
%TO.N,TEENSY_MICROROS_RX*%
X13325000Y-112915000D03*
%TO.P,U183,29,22_A8_CTX1*%
%TO.N,unconnected-(U183-22_A8_CTX1-Pad29)*%
X10785000Y-112915000D03*
%TO.P,U183,30,23_A9_CRX1_MCLK1*%
%TO.N,unconnected-(U183-23_A9_CRX1_MCLK1-Pad30)*%
X8245000Y-112915000D03*
%TO.P,U183,31,3V3*%
%TO.N,unconnected-(U183-3V3-Pad31)*%
X5705000Y-112915000D03*
%TO.P,U183,32,GND*%
%TO.N,GND*%
X3165000Y-112915000D03*
%TO.P,U183,33,VIN*%
%TO.N,Net-(D78-K)*%
X625000Y-112915000D03*
%TO.P,U183,34,VUSB*%
%TO.N,unconnected-(U183-VUSB-Pad34)*%
X3165000Y-115455000D03*
%TO.P,U183,13,11_MOSI_CTX1*%
%TO.N,unconnected-(U183-11_MOSI_CTX1-Pad13)*%
X31105000Y-128155000D03*
%TO.P,U183,12,10_CS_MQSR*%
%TO.N,unconnected-(U183-10_CS_MQSR-Pad12)*%
X28565000Y-128155000D03*
%TO.P,U183,11,9_OUT1C*%
%TO.N,unconnected-(U183-9_OUT1C-Pad11)*%
X26025000Y-128155000D03*
%TO.P,U183,10,8_TX2_IN1*%
%TO.N,unconnected-(U183-8_TX2_IN1-Pad10)*%
X23485000Y-128155000D03*
%TO.P,U183,9,7_RX2_OUT1A*%
%TO.N,SBUS_RECEIVER*%
X20945000Y-128155000D03*
%TO.P,U183,8,6_OUT1D*%
%TO.N,unconnected-(U183-6_OUT1D-Pad8)*%
X18405000Y-128155000D03*
%TO.P,U183,7,5_IN2*%
%TO.N,unconnected-(U183-5_IN2-Pad7)*%
X15865000Y-128155000D03*
%TO.P,U183,6,4_BCLK2*%
%TO.N,MCU-PIN-IC-INT*%
X13325000Y-128155000D03*
%TO.P,U183,5,3_LRCLK2*%
%TO.N,unconnected-(U183-3_LRCLK2-Pad5)*%
X10785000Y-128155000D03*
%TO.P,U183,4,2_OUT2*%
%TO.N,unconnected-(U183-2_OUT2-Pad4)*%
X8245000Y-128155000D03*
%TO.P,U183,3,1_TX1_CTX2_MISO1*%
%TO.N,unconnected-(U183-1_TX1_CTX2_MISO1-Pad3)*%
X5705000Y-128155000D03*
%TO.P,U183,2,0_RX1_CRX2_CS1*%
%TO.N,unconnected-(U183-0_RX1_CRX2_CS1-Pad2)*%
X3165000Y-128155000D03*
%TO.P,U183,1,GND*%
%TO.N,GND*%
X625000Y-128155000D03*
%TO.P,U183,35,24_A10_TX6_SCL2*%
%TO.N,SCL_FAST*%
X28565000Y-115455000D03*
%TO.P,U183,36,25_A11_RX6_SDA2*%
%TO.N,SDA_FAST*%
X26025000Y-115455000D03*
%TO.P,U183,37,26_A12_MOSI1*%
%TO.N,unconnected-(U183-26_A12_MOSI1-Pad37)*%
X28565000Y-117995000D03*
%TO.P,U183,38,27_A13_SCK1*%
%TO.N,unconnected-(U183-27_A13_SCK1-Pad38)*%
X26025000Y-117995000D03*
%TO.P,U183,39,28_RX7*%
%TO.N,unconnected-(U183-28_RX7-Pad39)*%
X28565000Y-120535000D03*
%TO.P,U183,40,29_TX7*%
%TO.N,unconnected-(U183-29_TX7-Pad40)*%
X26025000Y-120535000D03*
%TO.P,U183,41,30_CRX3*%
%TO.N,unconnected-(U183-30_CRX3-Pad41)*%
X28565000Y-123075000D03*
%TO.P,U183,42,31_CTX3*%
%TO.N,unconnected-(U183-31_CTX3-Pad42)*%
X26025000Y-123075000D03*
%TO.P,U183,43,32_OUT1B*%
%TO.N,unconnected-(U183-32_OUT1B-Pad43)*%
X28565000Y-125615000D03*
%TO.P,U183,44,33_MCLK2*%
%TO.N,unconnected-(U183-33_MCLK2-Pad44)*%
X26025000Y-125615000D03*
%TD*%
D17*
%TO.P,U81,1,1*%
%TO.N,SBUS_RECEIVER*%
X-4399567Y-43490500D03*
D18*
%TO.P,U81,2,2*%
%TO.N,MCU_ADC_PACKDIV*%
X-4399567Y-40950500D03*
%TO.P,U81,3,3*%
%TO.N,THROTTLE_PWM*%
X-1859567Y-43490500D03*
%TO.P,U81,4,4*%
%TO.N,BQ-ALERT*%
X-1859567Y-40950500D03*
%TO.P,U81,5,5*%
%TO.N,STEER_PWM*%
X680433Y-43490500D03*
%TO.P,U81,6,6*%
%TO.N,TS1*%
X680433Y-40950500D03*
%TO.P,U81,7,7*%
%TO.N,SPEED_PWM*%
X3220433Y-43490500D03*
%TO.P,U81,8,8*%
%TO.N,BTN_PWR*%
X3220433Y-40950500D03*
%TO.P,U81,9,9*%
%TO.N,DIFF_FRONT_PWM*%
X5760433Y-43490500D03*
%TO.P,U81,10,10*%
%TO.N,SCL_FAST*%
X5760433Y-40950500D03*
%TO.P,U81,11,11*%
%TO.N,DIFF_REAR_PWM*%
X8300433Y-43490500D03*
%TO.P,U81,12,12*%
%TO.N,SDA_FAST*%
X8300433Y-40950500D03*
%TO.P,U81,13,13*%
%TO.N,MCU_EN_3V3*%
X10840433Y-43490500D03*
%TO.P,U81,14,14*%
%TO.N,SDA_SLOW*%
X10840433Y-40950500D03*
%TO.P,U81,15,15*%
%TO.N,MCU_EN_12V*%
X13380433Y-43490500D03*
%TO.P,U81,16,16*%
%TO.N,SCL_SLOW*%
X13380433Y-40950500D03*
%TO.P,U81,17,17*%
%TO.N,MCU_EN_ESC*%
X15920433Y-43490500D03*
%TO.P,U81,18,18*%
%TO.N,CHG_ACTIVE*%
X15920433Y-40950500D03*
%TO.P,U81,19,19*%
%TO.N,MCU_EN_5V0*%
X18460433Y-43490500D03*
%TO.P,U81,20,20*%
%TO.N,CHG_DONE*%
X18460433Y-40950500D03*
%TO.P,U81,21,21*%
%TO.N,MCU_PMON_EN*%
X21000433Y-43490500D03*
%TO.P,U81,22,22*%
%TO.N,MCU_5V_IN_EXT*%
X21000433Y-40950500D03*
%TO.P,U81,23,23*%
%TO.N,MCU_CHARGEPUMP_EN*%
X23540433Y-43490500D03*
%TO.P,U81,24,24*%
%TO.N,GND*%
X23540433Y-40950500D03*
%TO.P,U81,25,25*%
%TO.N,MCU_PRECHARGE_EN*%
X26080433Y-43490500D03*
%TO.P,U81,26,26*%
%TO.N,unconnected-(U81-Pad26)*%
X26080433Y-40950500D03*
%TD*%
D19*
%TO.P,THR_STR_SPD1,1,1*%
%TO.N,THROTTLE_PWM*%
X33301433Y-22537000D03*
%TO.P,THR_STR_SPD1,2,2*%
%TO.N,STEER_PWM*%
X30761433Y-22537000D03*
%TO.P,THR_STR_SPD1,3,3*%
%TO.N,SPEED_PWM*%
X28221433Y-22537000D03*
%TO.P,THR_STR_SPD1,4,4*%
%TO.N,Net-(ESC-6V2-Pad2)*%
X33301433Y-25077000D03*
%TO.P,THR_STR_SPD1,5,5*%
%TO.N,Net-(DIFF_DIFR_SBUS1-Pad4)*%
X30761433Y-25077000D03*
%TO.P,THR_STR_SPD1,6,6*%
X28221433Y-25077000D03*
%TO.P,THR_STR_SPD1,7,7*%
%TO.N,GND*%
X33301433Y-27617000D03*
%TO.P,THR_STR_SPD1,8,8*%
X30761433Y-27617000D03*
%TO.P,THR_STR_SPD1,9,9*%
X28221433Y-27617000D03*
%TD*%
D20*
%TO.P,H6,1,1*%
%TO.N,Net-(Q63-S)*%
X97960433Y-137021433D03*
D21*
%TO.P,H6,2,2*%
%TO.N,GND*%
X100500433Y-137021433D03*
%TD*%
D20*
%TO.P,H5,1,1*%
%TO.N,Net-(H5-Pad1)*%
X121020433Y-50300500D03*
D21*
%TO.P,H5,2,2*%
%TO.N,Net-(H5-Pad2)*%
X123560433Y-50300500D03*
%TD*%
D22*
%TO.P,H4,1,1*%
%TO.N,GND*%
X7391366Y-27655000D03*
D16*
%TO.P,H4,2,2*%
%TO.N,3V3_RECEIVER*%
X7391366Y-25115000D03*
%TO.P,H4,3,3*%
%TO.N,SBUS_RECEIVER*%
X7391366Y-22575000D03*
%TO.P,H4,4,4*%
%TO.N,GND*%
X9931366Y-27655000D03*
%TO.P,H4,5,5*%
%TO.N,SERVO-VCC-DIODED*%
X9931366Y-25115000D03*
%TO.P,H4,6,6*%
%TO.N,EXTRA_SERVO1_PWM*%
X9931366Y-22575000D03*
%TO.P,H4,7,7*%
%TO.N,GND*%
X12471366Y-27655000D03*
%TO.P,H4,8,8*%
%TO.N,SERVO-VCC-DIODED*%
X12471366Y-25115000D03*
%TO.P,H4,9,9*%
%TO.N,EXTRA_SERVO2_PWM*%
X12471366Y-22575000D03*
%TO.P,H4,10,10*%
%TO.N,GND*%
X15011366Y-27655000D03*
%TO.P,H4,11,11*%
%TO.N,SERVO-VCC-DIODED*%
X15011366Y-25115000D03*
%TO.P,H4,12,12*%
%TO.N,EXTRA_SERVO3_PWM*%
X15011366Y-22575000D03*
%TD*%
D22*
%TO.P,H3,1,1*%
%TO.N,GND*%
X-4399567Y-27655000D03*
D16*
%TO.P,H3,2,2*%
%TO.N,Net-(ESC-6V1-Pad1)*%
X-4399567Y-25115000D03*
%TO.P,H3,3,3*%
%TO.N,THROTTLE_PWM*%
X-4399567Y-22575000D03*
%TO.P,H3,4,4*%
%TO.N,GND*%
X-1859567Y-27655000D03*
%TO.P,H3,5,5*%
%TO.N,SERVO-VCC-DIODED*%
X-1859567Y-25115000D03*
%TO.P,H3,6,6*%
%TO.N,STEER_PWM*%
X-1859567Y-22575000D03*
%TO.P,H3,7,7*%
%TO.N,GND*%
X680433Y-27655000D03*
%TO.P,H3,8,8*%
%TO.N,SERVO-VCC-DIODED*%
X680433Y-25115000D03*
%TO.P,H3,9,9*%
%TO.N,DIFF_FRONT_PWM*%
X680433Y-22575000D03*
%TO.P,H3,10,10*%
%TO.N,GND*%
X3220433Y-27655000D03*
%TO.P,H3,11,11*%
%TO.N,SERVO-VCC-DIODED*%
X3220433Y-25115000D03*
%TO.P,H3,12,12*%
%TO.N,SPEED_PWM*%
X3220433Y-22575000D03*
%TD*%
D20*
%TO.P,H2,1,1*%
%TO.N,Net-(U168-VOUT)*%
X95670433Y-94650500D03*
D21*
%TO.P,H2,2,2*%
%TO.N,Net-(U115-CTL)*%
X98210433Y-94650500D03*
%TD*%
D20*
%TO.P,H1,1,1*%
%TO.N,Net-(U147-VOUT)*%
X97960433Y-132890500D03*
D21*
%TO.P,H1,2,2*%
%TO.N,GND*%
X100500433Y-132890500D03*
%TD*%
D23*
%TO.P,F1,1,1*%
%TO.N,Net-(-BatMains+1-+)*%
X63530433Y-95060500D03*
%TO.P,F1,2,2*%
X68530433Y-95060500D03*
%TO.P,F1,3,3*%
%TO.N,BAT+*%
X72730433Y-95060500D03*
%TO.P,F1,4,4*%
X77730433Y-95060500D03*
%TD*%
D20*
%TO.P,ESC-6V2,1,1*%
%TO.N,Net-(DIFF_DIFR_SBUS1-Pad4)*%
X18250433Y-59961433D03*
D21*
%TO.P,ESC-6V2,2,2*%
%TO.N,Net-(ESC-6V2-Pad2)*%
X20790433Y-59961433D03*
%TD*%
D20*
%TO.P,ESC-6V1,1,1*%
%TO.N,Net-(ESC-6V1-Pad1)*%
X18250433Y-55830500D03*
D21*
%TO.P,ESC-6V1,2,2*%
%TO.N,SERVO-VCC-DIODED*%
X20790433Y-55830500D03*
%TD*%
D19*
%TO.P,DIFF_DIFR_SBUS1,1,1*%
%TO.N,DIFF_FRONT_PWM*%
X24170500Y-22537000D03*
%TO.P,DIFF_DIFR_SBUS1,2,2*%
%TO.N,DIFF_REAR_PWM*%
X21630500Y-22537000D03*
%TO.P,DIFF_DIFR_SBUS1,3,3*%
%TO.N,SBUS_RECEIVER*%
X19090500Y-22537000D03*
%TO.P,DIFF_DIFR_SBUS1,4,4*%
%TO.N,Net-(DIFF_DIFR_SBUS1-Pad4)*%
X24170500Y-25077000D03*
%TO.P,DIFF_DIFR_SBUS1,5,5*%
X21630500Y-25077000D03*
%TO.P,DIFF_DIFR_SBUS1,6,6*%
%TO.N,unconnected-(DIFF_DIFR_SBUS1-Pad6)*%
X19090500Y-25077000D03*
%TO.P,DIFF_DIFR_SBUS1,7,7*%
%TO.N,GND*%
X24170500Y-27617000D03*
%TO.P,DIFF_DIFR_SBUS1,8,8*%
X21630500Y-27617000D03*
%TO.P,DIFF_DIFR_SBUS1,9,9*%
X19090500Y-27617000D03*
%TD*%
D24*
%TO.P,DC1,1,1*%
%TO.N,Net-(D67-K)*%
X76050500Y-122380433D03*
%TO.P,DC1,2,2*%
%TO.N,GND*%
X69850500Y-122380433D03*
D25*
%TO.P,DC1,3,3*%
X73050500Y-127080433D03*
%TD*%
D16*
%TO.P,CN13,1,1*%
%TO.N,unconnected-(CN13-Pad1)*%
X35467500Y-49307433D03*
%TO.P,CN13,2,2*%
%TO.N,unconnected-(CN13-Pad2)*%
X33467500Y-49307433D03*
%TO.P,CN13,3,3*%
%TO.N,unconnected-(CN13-Pad3)*%
X31467500Y-49307433D03*
%TO.P,CN13,4,4*%
%TO.N,unconnected-(CN13-Pad4)*%
X29467500Y-49307433D03*
%TD*%
D17*
%TO.P,CN6,1,1*%
%TO.N,SDA_FAST*%
X99190433Y-126512366D03*
D18*
%TO.P,CN6,2,2*%
%TO.N,SCL_FAST*%
X101690433Y-126512366D03*
%TD*%
D17*
%TO.P,CN5,1,1*%
%TO.N,SCL_SLOW*%
X99190433Y-118981433D03*
D18*
%TO.P,CN5,2,2*%
%TO.N,SDA_SLOW*%
X101690433Y-118981433D03*
%TD*%
D17*
%TO.P,CN4,1,1*%
%TO.N,Net-(U147-VOUT)*%
X99190433Y-111450500D03*
D18*
%TO.P,CN4,2,2*%
%TO.N,GND*%
X101690433Y-111450500D03*
%TD*%
D26*
%TO.P,CN1,1,1*%
%TO.N,BTN_HIGH*%
X92860500Y-36707433D03*
%TO.P,CN1,2,2*%
%TO.N,BTN_LOW*%
X90360500Y-36707433D03*
%TD*%
D18*
%TO.P,C267,1,1*%
%TO.N,+SERVO_VCC*%
X-1669567Y-52850500D03*
%TO.P,C267,2,2*%
%TO.N,GND*%
X3330433Y-52850500D03*
%TD*%
D27*
%TO.P,BatBalConn1,1,1*%
%TO.N,Net-(BatBalConn1-Pad1)*%
X43640433Y-98105000D03*
D28*
%TO.P,BatBalConn1,2,2*%
%TO.N,Net-(BatBalConn1-Pad2)*%
X46140433Y-98105000D03*
%TO.P,BatBalConn1,3,3*%
%TO.N,Net-(BatBalConn1-Pad3)*%
X48640433Y-98105000D03*
%TO.P,BatBalConn1,4,4*%
%TO.N,Net-(BatBalConn1-Pad4)*%
X51140433Y-98105000D03*
%TD*%
D29*
%TO.P,-BatMains+1,1,-*%
%TO.N,BAT-*%
X57276000Y-91607500D03*
%TO.P,-BatMains+1,2,+*%
%TO.N,Net-(-BatMains+1-+)*%
X57276000Y-84407500D03*
D30*
%TO.P,-BatMains+1,3,3*%
%TO.N,unconnected-(-BatMains+1-Pad3)*%
X51276000Y-81257500D03*
%TO.P,-BatMains+1,4,4*%
%TO.N,unconnected-(-BatMains+1-Pad4)*%
X51276000Y-94757500D03*
%TD*%
D15*
%TO.P,-12V+_6,1,1*%
%TO.N,GND*%
X15411299Y-92270500D03*
%TO.P,-12V+_6,2,2*%
%TO.N,Net-(D84-K)*%
X19373299Y-92270500D03*
%TD*%
%TO.P,-12V+_5,1,1*%
%TO.N,GND*%
X5860366Y-92270500D03*
%TO.P,-12V+_5,2,2*%
%TO.N,Net-(D86-K)*%
X9822366Y-92270500D03*
%TD*%
%TO.P,-12V+_4,1,1*%
%TO.N,GND*%
X-3690567Y-92270500D03*
%TO.P,-12V+_4,2,2*%
%TO.N,Net-(D85-K)*%
X271433Y-92270500D03*
%TD*%
%TO.P,-12V+_3,1,1*%
%TO.N,GND*%
X62331299Y-33500500D03*
%TO.P,-12V+_3,2,2*%
%TO.N,Net-(D18-K)*%
X66293299Y-33500500D03*
%TD*%
%TO.P,-12V+_2,1,1*%
%TO.N,GND*%
X52780366Y-33500500D03*
%TO.P,-12V+_2,2,2*%
%TO.N,Net-(D17-K)*%
X56742366Y-33500500D03*
%TD*%
%TO.P,-12V+_1,1,1*%
%TO.N,GND*%
X43229433Y-33500500D03*
%TO.P,-12V+_1,2,2*%
%TO.N,Net-(D16-K)*%
X47191433Y-33500500D03*
%TD*%
M02*
