M48
; DRILL file {KiCad 9.0.7} date 2026-02-16T20:04:55+0100
; FORMAT={-:-/ absolute / inch / decimal}
; #@! TF.CreationDate,2026-02-16T20:04:55+01:00
; #@! TF.GenerationSoftware,Kicad,Pcbnew,9.0.7
; #@! TF.FileFunction,Plated,1,2,PTH
FMAT,2
INCH
; #@! TA.AperFunction,Plated,PTH,ComponentDrill
T1C0.0236
; #@! TA.AperFunction,Plated,PTH,ComponentDrill
T2C0.0315
; #@! TA.AperFunction,Plated,PTH,ComponentDrill
T3C0.0354
; #@! TA.AperFunction,Plated,PTH,ComponentDrill
T4C0.0360
; #@! TA.AperFunction,Plated,PTH,ComponentDrill
T5C0.0394
; #@! TA.AperFunction,Plated,PTH,ComponentDrill
T6C0.0402
; #@! TA.AperFunction,Plated,PTH,ComponentDrill
T7C0.0433
; #@! TA.AperFunction,Plated,PTH,ComponentDrill
T8C0.0472
; #@! TA.AperFunction,Plated,PTH,ComponentDrill
T9C0.0591
; #@! TA.AperFunction,Plated,PTH,ComponentDrill
T10C0.0669
; #@! TA.AperFunction,Plated,PTH,ComponentDrill
T11C0.0709
; #@! TA.AperFunction,Plated,PTH,ComponentDrill
T12C0.1063
; #@! TA.AperFunction,Plated,PTH,ComponentDrill
T13C0.1142
%
G90
G05
T3
X1.7181Y-3.8624
X1.8166Y-3.8624
X1.915Y-3.8624
X2.0134Y-3.8624
T4
X0.7516Y-0.8873
X0.7516Y-0.9873
X0.7516Y-1.0873
X0.8516Y-0.8873
X0.8516Y-0.9873
X0.8516Y-1.0873
X0.9516Y-0.8873
X0.9516Y-0.9873
X0.9516Y-1.0873
X1.1111Y-0.8873
X1.1111Y-0.9873
X1.1111Y-1.0873
X1.2111Y-0.8873
X1.2111Y-0.9873
X1.2111Y-1.0873
X1.3111Y-0.8873
X1.3111Y-0.9873
X1.3111Y-1.0873
T5
X1.1601Y-1.9412
X1.2389Y-1.9412
X1.3176Y-1.9412
X1.3964Y-1.9412
X3.5575Y-1.4452
X3.6559Y-1.4452
T6
X-0.1732Y-0.8888
X-0.1732Y-0.9888
X-0.1732Y-1.0888
X-0.0732Y-0.8888
X-0.0732Y-0.9888
X-0.0732Y-1.0888
X0.0268Y-0.8888
X0.0268Y-0.9888
X0.0268Y-1.0888
X0.1268Y-0.8888
X0.1268Y-0.9888
X0.1268Y-1.0888
X0.291Y-0.8888
X0.291Y-0.9888
X0.291Y-1.0888
X0.391Y-0.8888
X0.391Y-0.9888
X0.391Y-1.0888
X0.491Y-0.8888
X0.491Y-0.9888
X0.491Y-1.0888
X0.591Y-0.8888
X0.591Y-0.9888
X0.591Y-1.0888
T7
X-0.1732Y-1.6122
X-0.1732Y-1.7122
X-0.0732Y-1.6122
X-0.0732Y-1.7122
X-0.0657Y-2.0807
X0.0246Y-4.4455
X0.0246Y-5.0455
X0.0268Y-1.6122
X0.0268Y-1.7122
X0.1246Y-4.4455
X0.1246Y-4.5455
X0.1246Y-5.0455
X0.1268Y-1.6122
X0.1268Y-1.7122
X0.1311Y-2.0807
X0.2246Y-4.4455
X0.2246Y-5.0455
X0.2268Y-1.6122
X0.2268Y-1.7122
X0.3246Y-4.4455
X0.3246Y-5.0455
X0.3268Y-1.6122
X0.3268Y-1.7122
X0.4246Y-4.4455
X0.4246Y-5.0455
X0.4268Y-1.6122
X0.4268Y-1.7122
X0.5246Y-4.4455
X0.5246Y-5.0455
X0.5268Y-1.6122
X0.5268Y-1.7122
X0.6246Y-4.4455
X0.6246Y-5.0455
X0.6268Y-1.6122
X0.6268Y-1.7122
X0.7246Y-4.4455
X0.7246Y-5.0455
X0.7268Y-1.6122
X0.7268Y-1.7122
X0.8246Y-4.4455
X0.8246Y-5.0455
X0.8268Y-1.6122
X0.8268Y-1.7122
X0.9246Y-4.4455
X0.9246Y-5.0455
X0.9268Y-1.6122
X0.9268Y-1.7122
X1.0246Y-4.4455
X1.0246Y-4.5455
X1.0246Y-4.6455
X1.0246Y-4.7455
X1.0246Y-4.8455
X1.0246Y-4.9455
X1.0246Y-5.0455
X1.0268Y-1.6122
X1.0268Y-1.7122
X1.1246Y-4.4455
X1.1246Y-4.5455
X1.1246Y-4.6455
X1.1246Y-4.7455
X1.1246Y-4.8455
X1.1246Y-4.9455
X1.1246Y-5.0455
X1.2246Y-4.4455
X1.2246Y-5.0455
X1.3246Y-4.4455
X1.3246Y-4.5455
X1.3246Y-4.6455
X1.3246Y-4.7455
X1.3246Y-4.8455
X1.3246Y-4.9455
X1.3246Y-5.0455
X3.9051Y-4.3878
X3.9051Y-4.6843
X3.9051Y-4.9808
X4.0036Y-4.3878
X4.0036Y-4.6843
X4.0036Y-4.9808
T8
X0.7185Y-2.1981
X0.7185Y-2.3607
X0.8185Y-2.1981
X0.8185Y-2.3607
X3.7666Y-3.7264
X3.8567Y-5.2319
X3.8567Y-5.3945
X3.8666Y-3.7264
X3.9567Y-5.2319
X3.9567Y-5.3945
X4.7646Y-1.9803
X4.8646Y-1.9803
T9
X-0.1232Y-2.6218
X-0.1232Y-2.9218
X0.0768Y-2.6218
X0.0768Y-2.9218
X0.2768Y-2.6218
X0.2768Y-2.9218
X0.4768Y-2.6218
X0.4768Y-2.9218
X0.6768Y-2.6218
X0.6768Y-2.9218
X0.8768Y-2.6218
X0.8768Y-2.9218
X1.0768Y-2.6218
X1.0768Y-2.9218
X1.2768Y-2.6218
X1.2768Y-2.9218
T10
X4.3835Y-0.9085
X4.5394Y-0.9085
X4.6953Y-0.9085
X4.8512Y-0.9085
T11
X-0.1453Y-3.6327
X0.0107Y-3.6327
X0.2307Y-3.6327
X0.3867Y-3.6327
X0.6067Y-3.6327
X0.7627Y-3.6327
X1.7019Y-1.3189
X1.8579Y-1.3189
X2.078Y-1.3189
X2.234Y-1.3189
X2.454Y-1.3189
X2.61Y-1.3189
T12
X2.5012Y-3.7425
X2.698Y-3.7425
X2.8634Y-3.7425
X3.0603Y-3.7425
T13
X2.255Y-3.3231
X2.255Y-3.6066
T1
G00X-0.0439Y-5.1742
M15
G01X-0.0439Y-5.2096
M16
G05
G00X-0.0439Y-5.3455
M15
G01X-0.0439Y-5.3691
M16
G05
G00X0.2967Y-5.1742
M15
G01X0.2967Y-5.2096
M16
G05
G00X0.2967Y-5.3455
M15
G01X0.2967Y-5.3691
M16
G05
G00X1.9991Y-3.1991
M15
G01X2.0384Y-3.1991
M16
G05
G00X1.9991Y-3.7306
M15
G01X2.0384Y-3.7306
M16
G05
T2
G00X3.1967Y-5.9481
M15
G01X3.1967Y-5.9796
M16
G05
G00X3.1967Y-6.1167
M15
G01X3.1967Y-6.1403
M16
G05
G00X3.5372Y-5.9481
M15
G01X3.5372Y-5.9796
M16
G05
G00X3.5372Y-6.1167
M15
G01X3.5372Y-6.1403
M16
G05
T8
G00X2.75Y-4.8673
M15
G01X2.75Y-4.7689
M16
G05
G00X2.8268Y-5.0032
M15
G01X2.9252Y-5.0032
M16
G05
G00X2.9941Y-4.7689
M15
G01X2.9941Y-4.8673
M16
G05
M30
